%TF.GenerationSoftware,KiCad,Pcbnew,8.0.6*%
%TF.CreationDate,2024-10-21T18:23:26+02:00*%
%TF.ProjectId,AnalogI2SMic,416e616c-6f67-4493-9253-4d69632e6b69,rev?*%
%TF.SameCoordinates,Original*%
%TF.FileFunction,Copper,L1,Top*%
%TF.FilePolarity,Positive*%
%FSLAX46Y46*%
G04 Gerber Fmt 4.6, Leading zero omitted, Abs format (unit mm)*
G04 Created by KiCad (PCBNEW 8.0.6) date 2024-10-21 18:23:26*
%MOMM*%
%LPD*%
G01*
G04 APERTURE LIST*
G04 Aperture macros list*
%AMRoundRect*
0 Rectangle with rounded corners*
0 $1 Rounding radius*
0 $2 $3 $4 $5 $6 $7 $8 $9 X,Y pos of 4 corners*
0 Add a 4 corners polygon primitive as box body*
4,1,4,$2,$3,$4,$5,$6,$7,$8,$9,$2,$3,0*
0 Add four circle primitives for the rounded corners*
1,1,$1+$1,$2,$3*
1,1,$1+$1,$4,$5*
1,1,$1+$1,$6,$7*
1,1,$1+$1,$8,$9*
0 Add four rect primitives between the rounded corners*
20,1,$1+$1,$2,$3,$4,$5,0*
20,1,$1+$1,$4,$5,$6,$7,0*
20,1,$1+$1,$6,$7,$8,$9,0*
20,1,$1+$1,$8,$9,$2,$3,0*%
G04 Aperture macros list end*
%TA.AperFunction,EtchedComponent*%
%ADD10C,0.000000*%
%TD*%
%TA.AperFunction,SMDPad,CuDef*%
%ADD11RoundRect,0.140000X-0.170000X0.140000X-0.170000X-0.140000X0.170000X-0.140000X0.170000X0.140000X0*%
%TD*%
%TA.AperFunction,SMDPad,CuDef*%
%ADD12RoundRect,0.135000X-0.185000X0.135000X-0.185000X-0.135000X0.185000X-0.135000X0.185000X0.135000X0*%
%TD*%
%TA.AperFunction,SMDPad,CuDef*%
%ADD13RoundRect,0.135000X0.185000X-0.135000X0.185000X0.135000X-0.185000X0.135000X-0.185000X-0.135000X0*%
%TD*%
%TA.AperFunction,SMDPad,CuDef*%
%ADD14RoundRect,0.140000X0.170000X-0.140000X0.170000X0.140000X-0.170000X0.140000X-0.170000X-0.140000X0*%
%TD*%
%TA.AperFunction,SMDPad,CuDef*%
%ADD15C,0.500000*%
%TD*%
%TA.AperFunction,SMDPad,CuDef*%
%ADD16RoundRect,0.140000X0.140000X0.170000X-0.140000X0.170000X-0.140000X-0.170000X0.140000X-0.170000X0*%
%TD*%
%TA.AperFunction,SMDPad,CuDef*%
%ADD17RoundRect,0.135000X0.135000X0.185000X-0.135000X0.185000X-0.135000X-0.185000X0.135000X-0.185000X0*%
%TD*%
%TA.AperFunction,SMDPad,CuDef*%
%ADD18RoundRect,0.250000X0.787500X1.025000X-0.787500X1.025000X-0.787500X-1.025000X0.787500X-1.025000X0*%
%TD*%
%TA.AperFunction,ComponentPad*%
%ADD19O,1.200000X2.200000*%
%TD*%
%TA.AperFunction,ComponentPad*%
%ADD20O,2.200000X1.200000*%
%TD*%
%TA.AperFunction,ComponentPad*%
%ADD21R,1.500000X1.500000*%
%TD*%
%TA.AperFunction,ComponentPad*%
%ADD22C,1.500000*%
%TD*%
%TA.AperFunction,SMDPad,CuDef*%
%ADD23R,1.500000X1.000000*%
%TD*%
%TA.AperFunction,SMDPad,CuDef*%
%ADD24RoundRect,0.250000X1.025000X-0.787500X1.025000X0.787500X-1.025000X0.787500X-1.025000X-0.787500X0*%
%TD*%
%TA.AperFunction,SMDPad,CuDef*%
%ADD25RoundRect,0.218750X-0.256250X0.218750X-0.256250X-0.218750X0.256250X-0.218750X0.256250X0.218750X0*%
%TD*%
%TA.AperFunction,SMDPad,CuDef*%
%ADD26RoundRect,0.062500X-0.375000X-0.062500X0.375000X-0.062500X0.375000X0.062500X-0.375000X0.062500X0*%
%TD*%
%TA.AperFunction,SMDPad,CuDef*%
%ADD27RoundRect,0.062500X-0.062500X-0.375000X0.062500X-0.375000X0.062500X0.375000X-0.062500X0.375000X0*%
%TD*%
%TA.AperFunction,ComponentPad*%
%ADD28C,0.500000*%
%TD*%
%TA.AperFunction,SMDPad,CuDef*%
%ADD29R,2.500000X2.500000*%
%TD*%
%TA.AperFunction,ComponentPad*%
%ADD30R,1.700000X1.700000*%
%TD*%
%TA.AperFunction,ComponentPad*%
%ADD31O,1.700000X1.700000*%
%TD*%
%TA.AperFunction,ViaPad*%
%ADD32C,0.800000*%
%TD*%
%TA.AperFunction,ViaPad*%
%ADD33C,1.200000*%
%TD*%
%TA.AperFunction,Conductor*%
%ADD34C,0.250000*%
%TD*%
%TA.AperFunction,Conductor*%
%ADD35C,0.500000*%
%TD*%
G04 APERTURE END LIST*
D10*
%TA.AperFunction,EtchedComponent*%
%TO.C,JP2*%
G36*
X92154400Y-40270000D02*
G01*
X91754400Y-40270000D01*
X91754400Y-39770000D01*
X92154400Y-39770000D01*
X92154400Y-40270000D01*
G37*
%TD.AperFunction*%
%TA.AperFunction,EtchedComponent*%
G36*
X92954400Y-40270000D02*
G01*
X92554400Y-40270000D01*
X92554400Y-39770000D01*
X92954400Y-39770000D01*
X92954400Y-40270000D01*
G37*
%TD.AperFunction*%
%TA.AperFunction,EtchedComponent*%
%TO.C,JP1*%
G36*
X114260000Y-40270000D02*
G01*
X113860000Y-40270000D01*
X113860000Y-39770000D01*
X114260000Y-39770000D01*
X114260000Y-40270000D01*
G37*
%TD.AperFunction*%
%TA.AperFunction,EtchedComponent*%
G36*
X115060000Y-40270000D02*
G01*
X114660000Y-40270000D01*
X114660000Y-39770000D01*
X115060000Y-39770000D01*
X115060000Y-40270000D01*
G37*
%TD.AperFunction*%
%TD*%
D11*
%TO.P,C2,1*%
%TO.N,Net-(U1-IN2R(P))*%
X110020000Y-43330000D03*
%TO.P,C2,2*%
%TO.N,Net-(C2-Pad2)*%
X110020000Y-44290000D03*
%TD*%
D12*
%TO.P,R7,1*%
%TO.N,+3.3V*%
X113360200Y-33524000D03*
%TO.P,R7,2*%
%TO.N,Net-(U1-I2C_ADR1)*%
X113360200Y-34544000D03*
%TD*%
D13*
%TO.P,R13,1*%
%TO.N,Net-(U1-DMCLK{slash}G2)*%
X109601000Y-36451000D03*
%TO.P,R13,2*%
%TO.N,GPIO2*%
X109601000Y-35431000D03*
%TD*%
D14*
%TO.P,C1,1*%
%TO.N,Net-(U1-~{RESET})*%
X99949000Y-39342000D03*
%TO.P,C1,2*%
%TO.N,GND*%
X99949000Y-38382000D03*
%TD*%
D15*
%TO.P,TP3,1,1*%
%TO.N,Net-(U1-IN1R(M))*%
X109680000Y-42380000D03*
%TD*%
D12*
%TO.P,R9,1*%
%TO.N,+3.3V*%
X114757200Y-33526000D03*
%TO.P,R9,2*%
%TO.N,Net-(U1-I2C_ADR0)*%
X114757200Y-34546000D03*
%TD*%
%TO.P,R2,1*%
%TO.N,+3.3V*%
X112903000Y-30732000D03*
%TO.P,R2,2*%
%TO.N,I2C_SDA*%
X112903000Y-31752000D03*
%TD*%
D16*
%TO.P,C13,1*%
%TO.N,+3.3V*%
X97762000Y-35763200D03*
%TO.P,C13,2*%
%TO.N,GND*%
X96802000Y-35763200D03*
%TD*%
D15*
%TO.P,TP1,1,1*%
%TO.N,Net-(U1-IN3L(M))*%
X105350000Y-42300000D03*
%TD*%
D16*
%TO.P,C4,1*%
%TO.N,+3.3VA*%
X108960000Y-43360000D03*
%TO.P,C4,2*%
%TO.N,GNDA*%
X108000000Y-43360000D03*
%TD*%
D11*
%TO.P,C5,1*%
%TO.N,+1V8*%
X106130000Y-35600000D03*
%TO.P,C5,2*%
%TO.N,GND*%
X106130000Y-36560000D03*
%TD*%
D17*
%TO.P,R11,1*%
%TO.N,+3.3V*%
X96826800Y-39014400D03*
%TO.P,R11,2*%
%TO.N,Net-(FB1-Pad1)*%
X95806800Y-39014400D03*
%TD*%
D18*
%TO.P,C15,1*%
%TO.N,+3.3VA*%
X102680500Y-42875200D03*
%TO.P,C15,2*%
%TO.N,GNDA*%
X96455500Y-42875200D03*
%TD*%
D12*
%TO.P,R10,1*%
%TO.N,Net-(U1-I2C_ADR0)*%
X114757200Y-35433000D03*
%TO.P,R10,2*%
%TO.N,GND*%
X114757200Y-36453000D03*
%TD*%
D11*
%TO.P,C8,1*%
%TO.N,+3.3V*%
X104740000Y-35550000D03*
%TO.P,C8,2*%
%TO.N,GND*%
X104740000Y-36510000D03*
%TD*%
D14*
%TO.P,C11,1*%
%TO.N,Net-(MK1-+)*%
X106960000Y-44150000D03*
%TO.P,C11,2*%
%TO.N,Net-(U1-IN1L(P))*%
X106960000Y-43190000D03*
%TD*%
D12*
%TO.P,R3,1*%
%TO.N,Net-(U1-MICBIAS1)*%
X104521000Y-40638000D03*
%TO.P,R3,2*%
%TO.N,Net-(C2-Pad2)*%
X104521000Y-41658000D03*
%TD*%
%TO.P,R6,1*%
%TO.N,+3.3V*%
X113919000Y-30732000D03*
%TO.P,R6,2*%
%TO.N,I2C_SCL*%
X113919000Y-31752000D03*
%TD*%
D15*
%TO.P,TP2,1,1*%
%TO.N,Net-(U1-IN3R(M))*%
X110590000Y-41560000D03*
%TD*%
D16*
%TO.P,C10,1*%
%TO.N,+3.3VA*%
X108938000Y-45415200D03*
%TO.P,C10,2*%
%TO.N,GNDA*%
X107978000Y-45415200D03*
%TD*%
D12*
%TO.P,R8,1*%
%TO.N,Net-(U1-I2C_ADR1)*%
X113360200Y-35433000D03*
%TO.P,R8,2*%
%TO.N,GND*%
X113360200Y-36453000D03*
%TD*%
D16*
%TO.P,C9,1*%
%TO.N,+3.3V*%
X97762000Y-36769200D03*
%TO.P,C9,2*%
%TO.N,GND*%
X96802000Y-36769200D03*
%TD*%
D13*
%TO.P,R5,1*%
%TO.N,Net-(MK1-+)*%
X112520000Y-41650000D03*
%TO.P,R5,2*%
%TO.N,Net-(U1-MICBIAS2)*%
X112520000Y-40630000D03*
%TD*%
D12*
%TO.P,R4,1*%
%TO.N,Net-(U1-MICBIAS2)*%
X111504000Y-40630000D03*
%TO.P,R4,2*%
%TO.N,Net-(C3-Pad1)*%
X111504000Y-41650000D03*
%TD*%
%TO.P,R1,1*%
%TO.N,+3.3V*%
X98933000Y-38352000D03*
%TO.P,R1,2*%
%TO.N,Net-(U1-~{RESET})*%
X98933000Y-39372000D03*
%TD*%
D19*
%TO.P,J2,R*%
%TO.N,Net-(C2-Pad2)*%
X93846000Y-48260000D03*
%TO.P,J2,RN*%
%TO.N,unconnected-(J2-PadRN)*%
X96346000Y-48260000D03*
D20*
%TO.P,J2,S*%
%TO.N,GNDA*%
X98846000Y-53260000D03*
D19*
%TO.P,J2,T*%
%TO.N,Net-(C3-Pad1)*%
X103846000Y-48260000D03*
%TO.P,J2,TN*%
%TO.N,unconnected-(J2-PadTN)*%
X101346000Y-48260000D03*
%TD*%
D21*
%TO.P,MK1,1,-*%
%TO.N,GNDA*%
X109024400Y-50636600D03*
D22*
%TO.P,MK1,2,+*%
%TO.N,Net-(MK1-+)*%
X111564400Y-50636600D03*
%TD*%
D12*
%TO.P,R12,1*%
%TO.N,GPIO2*%
X110617000Y-35431000D03*
%TO.P,R12,2*%
%TO.N,Net-(C2-Pad2)*%
X110617000Y-36451000D03*
%TD*%
D23*
%TO.P,JP2,1,A*%
%TO.N,GND*%
X92354400Y-39370000D03*
%TO.P,JP2,2,B*%
%TO.N,GNDA*%
X92354400Y-40670000D03*
%TD*%
D16*
%TO.P,C7,1*%
%TO.N,+3.3VA*%
X108940000Y-44390000D03*
%TO.P,C7,2*%
%TO.N,GNDA*%
X107980000Y-44390000D03*
%TD*%
D24*
%TO.P,C14,1*%
%TO.N,+3.3V*%
X93472000Y-37046900D03*
%TO.P,C14,2*%
%TO.N,GND*%
X93472000Y-30821900D03*
%TD*%
D14*
%TO.P,C3,1*%
%TO.N,Net-(C3-Pad1)*%
X105900000Y-44150000D03*
%TO.P,C3,2*%
%TO.N,Net-(U1-IN2L(P))*%
X105900000Y-43190000D03*
%TD*%
D23*
%TO.P,JP1,1,A*%
%TO.N,GND*%
X114460000Y-39370000D03*
%TO.P,JP1,2,B*%
%TO.N,GNDA*%
X114460000Y-40670000D03*
%TD*%
D25*
%TO.P,FB1,1*%
%TO.N,Net-(FB1-Pad1)*%
X94386400Y-39242900D03*
%TO.P,FB1,2*%
%TO.N,+3.3VA*%
X94386400Y-40817900D03*
%TD*%
D11*
%TO.P,C12,1*%
%TO.N,+1V8*%
X98940000Y-36360000D03*
%TO.P,C12,2*%
%TO.N,GND*%
X98940000Y-37320000D03*
%TD*%
D26*
%TO.P,U1,1,BCLK*%
%TO.N,I2S_BCLK*%
X105791000Y-38394000D03*
%TO.P,U1,2,WCLK*%
%TO.N,I2S_WCLK*%
X105791000Y-38894000D03*
%TO.P,U1,3,DOUT*%
%TO.N,I2S_DOUT*%
X105791000Y-39394000D03*
%TO.P,U1,4,~{RESET}*%
%TO.N,Net-(U1-~{RESET})*%
X105791000Y-39894000D03*
%TO.P,U1,5,MICBIAS1*%
%TO.N,Net-(U1-MICBIAS1)*%
X105791000Y-40394000D03*
%TO.P,U1,6,IN3L(M)*%
%TO.N,Net-(U1-IN3L(M))*%
X105791000Y-40894000D03*
D27*
%TO.P,U1,7,IN2L(P)*%
%TO.N,Net-(U1-IN2L(P))*%
X106478500Y-41581500D03*
%TO.P,U1,8,IN1L(P)*%
%TO.N,Net-(U1-IN1L(P))*%
X106978500Y-41581500D03*
%TO.P,U1,9,AVSS*%
%TO.N,GNDA*%
X107478500Y-41581500D03*
%TO.P,U1,10,AVDD*%
%TO.N,+3.3VA*%
X107978500Y-41581500D03*
%TO.P,U1,11,IN1R(M)*%
%TO.N,Net-(U1-IN1R(M))*%
X108478500Y-41581500D03*
%TO.P,U1,12,IN2R(P)*%
%TO.N,Net-(U1-IN2R(P))*%
X108978500Y-41581500D03*
D26*
%TO.P,U1,13,IN3R(M)*%
%TO.N,Net-(U1-IN3R(M))*%
X109666000Y-40894000D03*
%TO.P,U1,14,MICBIAS2*%
%TO.N,Net-(U1-MICBIAS2)*%
X109666000Y-40394000D03*
%TO.P,U1,15,I2C_ADR0*%
%TO.N,Net-(U1-I2C_ADR0)*%
X109666000Y-39894000D03*
%TO.P,U1,16,I2C_ADR1*%
%TO.N,Net-(U1-I2C_ADR1)*%
X109666000Y-39394000D03*
%TO.P,U1,17,SCL*%
%TO.N,I2C_SCL*%
X109666000Y-38894000D03*
%TO.P,U1,18,SDA*%
%TO.N,I2C_SDA*%
X109666000Y-38394000D03*
D27*
%TO.P,U1,19,DMDIN/G1*%
%TO.N,GPIO1*%
X108978500Y-37706500D03*
%TO.P,U1,20,DMCLK/G2*%
%TO.N,Net-(U1-DMCLK{slash}G2)*%
X108478500Y-37706500D03*
%TO.P,U1,21,IOVDD*%
%TO.N,+3.3V*%
X107978500Y-37706500D03*
%TO.P,U1,22,DVDD*%
%TO.N,+1V8*%
X107478500Y-37706500D03*
%TO.P,U1,23,DVSS*%
%TO.N,GND*%
X106978500Y-37706500D03*
%TO.P,U1,24,MCLK*%
%TO.N,I2S_MCLK*%
X106478500Y-37706500D03*
D28*
%TO.P,U1,25,PAD*%
%TO.N,GNDA*%
X106728500Y-38644000D03*
X106728500Y-39644000D03*
X106728500Y-40644000D03*
X107728500Y-38644000D03*
X107728500Y-39644000D03*
D29*
X107728500Y-39644000D03*
D28*
X107728500Y-40644000D03*
X108728500Y-38644000D03*
X108728500Y-39644000D03*
X108728500Y-40644000D03*
%TD*%
D11*
%TO.P,C6,1*%
%TO.N,+1V8*%
X99949000Y-36350000D03*
%TO.P,C6,2*%
%TO.N,GND*%
X99949000Y-37310000D03*
%TD*%
D30*
%TO.P,J4,1,Pin_1*%
%TO.N,+3.3V*%
X97663000Y-30602000D03*
D31*
%TO.P,J4,2,Pin_2*%
%TO.N,+1V8*%
X97663000Y-33142000D03*
%TO.P,J4,3,Pin_3*%
%TO.N,I2S_BCLK*%
X100203000Y-30602000D03*
%TO.P,J4,4,Pin_4*%
%TO.N,I2C_SDA*%
X100203000Y-33142000D03*
%TO.P,J4,5,Pin_5*%
%TO.N,I2S_MCLK*%
X102743000Y-30602000D03*
%TO.P,J4,6,Pin_6*%
%TO.N,I2C_SCL*%
X102743000Y-33142000D03*
%TO.P,J4,7,Pin_7*%
%TO.N,I2S_DOUT*%
X105283000Y-30602000D03*
%TO.P,J4,8,Pin_8*%
%TO.N,GPIO1*%
X105283000Y-33142000D03*
%TO.P,J4,9,Pin_9*%
%TO.N,I2S_WCLK*%
X107823000Y-30602000D03*
%TO.P,J4,10,Pin_10*%
%TO.N,GPIO2*%
X107823000Y-33142000D03*
%TO.P,J4,11,Pin_11*%
%TO.N,GND*%
X110363000Y-30602000D03*
%TO.P,J4,12,Pin_12*%
X110363000Y-33142000D03*
%TD*%
D32*
%TO.N,GND*%
X103950000Y-29160000D03*
D33*
X91764223Y-38639377D03*
X95554800Y-35966400D03*
X114802474Y-38702474D03*
X105553500Y-37019000D03*
X113650200Y-37238453D03*
X95810000Y-29302000D03*
X100944051Y-37609199D03*
%TO.N,+3.3VA*%
X112625155Y-43330845D03*
X103378000Y-40803000D03*
X98602800Y-40817900D03*
%TO.N,GNDA*%
X92151200Y-43129200D03*
X114840026Y-51338600D03*
X106692587Y-47954391D03*
X105828400Y-57066508D03*
X93197052Y-50898349D03*
X114969341Y-43160000D03*
X114840026Y-57066508D03*
X94488000Y-43688000D03*
X94518400Y-57160000D03*
%TO.N,+1V8*%
X107196497Y-36132563D03*
X101040926Y-36012141D03*
%TO.N,+3.3V*%
X97669999Y-34995484D03*
X113411000Y-29591000D03*
X108375000Y-35376828D03*
D32*
%TO.N,Net-(C2-Pad2)*%
X111666517Y-44274693D03*
X110610951Y-36981500D03*
%TO.N,Net-(C3-Pad1)*%
X111125000Y-43434000D03*
%TO.N,I2C_SDA*%
X112014000Y-31242000D03*
%TO.N,I2C_SCL*%
X113534804Y-32654001D03*
%TO.N,I2S_DOUT*%
X101223465Y-38776218D03*
X103165495Y-36739999D03*
%TO.N,I2S_WCLK*%
X104043311Y-37219000D03*
X102217703Y-38669000D03*
%TO.N,Net-(MK1-+)*%
X106960000Y-46380400D03*
%TD*%
D34*
%TO.N,Net-(U1-~{RESET})*%
X105775000Y-39878000D02*
X100485000Y-39878000D01*
X99919000Y-39372000D02*
X99949000Y-39342000D01*
X98933000Y-39372000D02*
X99919000Y-39372000D01*
X105791000Y-39894000D02*
X105775000Y-39878000D01*
X100485000Y-39878000D02*
X99949000Y-39342000D01*
D35*
%TO.N,GND*%
X99949000Y-38382000D02*
X99949000Y-37310000D01*
X96802000Y-35700000D02*
X96802000Y-35710000D01*
X99949000Y-37310000D02*
X100683000Y-37310000D01*
D34*
X104030000Y-29080000D02*
X103950000Y-29160000D01*
X96135000Y-28977000D02*
X95810000Y-29302000D01*
D35*
X98940000Y-37320000D02*
X98950000Y-37310000D01*
X96357600Y-36769200D02*
X95554800Y-35966400D01*
X100683000Y-37310000D02*
X100965000Y-37592000D01*
X100961250Y-37592000D02*
X100944051Y-37609199D01*
D34*
X110363000Y-30602000D02*
X108717000Y-28956000D01*
X106703240Y-36944000D02*
X106514000Y-36944000D01*
D35*
X92354400Y-39229554D02*
X92354400Y-39370000D01*
D34*
X104030000Y-28977000D02*
X96135000Y-28977000D01*
D35*
X95810000Y-29302000D02*
X94991900Y-29302000D01*
X105044500Y-36510000D02*
X105553500Y-37019000D01*
X113449053Y-37439600D02*
X113650200Y-37238453D01*
X113360200Y-36453000D02*
X114757200Y-36453000D01*
X92354400Y-39370000D02*
X91747000Y-38762600D01*
X106130000Y-36560000D02*
X106012500Y-36560000D01*
X114802474Y-39027526D02*
X114460000Y-39370000D01*
D34*
X104030000Y-28977000D02*
X104030000Y-29080000D01*
D35*
X91764223Y-38639377D02*
X92354400Y-39229554D01*
X113360200Y-36453000D02*
X113360200Y-37363400D01*
X95554800Y-35966400D02*
X96267018Y-36678618D01*
X106012500Y-36560000D02*
X105553500Y-37019000D01*
D34*
X108717000Y-28956000D02*
X104051000Y-28956000D01*
D35*
X91747000Y-38762600D02*
X91747000Y-32546900D01*
X113436400Y-37439600D02*
X113449053Y-37439600D01*
D34*
X106514000Y-36944000D02*
X106130000Y-36560000D01*
D35*
X114802474Y-38702474D02*
X114802474Y-39027526D01*
X98950000Y-37310000D02*
X99949000Y-37310000D01*
X100965000Y-37592000D02*
X100961250Y-37592000D01*
D34*
X106978500Y-37219260D02*
X106978500Y-37706500D01*
D35*
X94991900Y-29302000D02*
X93472000Y-30821900D01*
X96802000Y-36769200D02*
X96357600Y-36769200D01*
D34*
X104051000Y-28956000D02*
X104030000Y-28977000D01*
X106703240Y-36944000D02*
X106978500Y-37219260D01*
D35*
X91747000Y-32546900D02*
X93472000Y-30821900D01*
X113360200Y-37363400D02*
X113436400Y-37439600D01*
X104740000Y-36510000D02*
X105044500Y-36510000D01*
%TO.N,+3.3VA*%
X103378000Y-42177700D02*
X102680500Y-42875200D01*
X108940000Y-43380000D02*
X108960000Y-43360000D01*
X111728092Y-45415200D02*
X108938000Y-45415200D01*
X98617700Y-40803000D02*
X98602800Y-40817900D01*
D34*
X108336490Y-42725000D02*
X108918490Y-43307000D01*
X108918490Y-43307000D02*
X109093000Y-43307000D01*
X108325000Y-42725000D02*
X108336490Y-42725000D01*
D35*
X108938000Y-45415200D02*
X108938000Y-44392000D01*
D34*
X107978500Y-42378500D02*
X108325000Y-42725000D01*
D35*
X108938000Y-44392000D02*
X108940000Y-44390000D01*
X98602800Y-40817900D02*
X94386400Y-40817900D01*
X103378000Y-40803000D02*
X103378000Y-42177700D01*
X108940000Y-44390000D02*
X108940000Y-43380000D01*
D34*
X107978500Y-41581500D02*
X107978500Y-42378500D01*
D35*
X112625155Y-43330845D02*
X112625155Y-44518137D01*
X103378000Y-40803000D02*
X98617700Y-40803000D01*
X112625155Y-44518137D02*
X111728092Y-45415200D01*
%TO.N,GNDA*%
X95300800Y-42875200D02*
X94488000Y-43688000D01*
X109024400Y-51250882D02*
X114840026Y-57066508D01*
X107998400Y-45435600D02*
X107978000Y-45415200D01*
D34*
X106728500Y-38644000D02*
X107728500Y-38644000D01*
D35*
X94946000Y-57160000D02*
X98846000Y-53260000D01*
X92354400Y-50055697D02*
X93197052Y-50898349D01*
D34*
X107478500Y-42698500D02*
X107478500Y-41581500D01*
D35*
X114969341Y-43160000D02*
X114969341Y-41349341D01*
X96455500Y-42875200D02*
X95300800Y-42875200D01*
X94518400Y-57160000D02*
X94946000Y-57160000D01*
X108000000Y-43360000D02*
X108000000Y-43213173D01*
X94488000Y-42803600D02*
X92354400Y-40670000D01*
X109024400Y-50636600D02*
X109024400Y-51250882D01*
X93197052Y-50898349D02*
X95558703Y-53260000D01*
D34*
X108728500Y-39644000D02*
X107728500Y-39644000D01*
X105720492Y-57066508D02*
X105708400Y-57078600D01*
X106728500Y-39644000D02*
X106728500Y-38644000D01*
X107478500Y-40894000D02*
X107728500Y-40644000D01*
D35*
X108000000Y-43213173D02*
X107750000Y-42963172D01*
X109024400Y-50636600D02*
X107998400Y-49610600D01*
X114969341Y-41349341D02*
X114554000Y-40934000D01*
D34*
X106728500Y-40644000D02*
X107728500Y-40644000D01*
X107728500Y-38644000D02*
X108728500Y-38644000D01*
D35*
X92354400Y-42926000D02*
X92354400Y-40670000D01*
D34*
X114840026Y-57066508D02*
X105720492Y-57066508D01*
X107743172Y-42963172D02*
X107478500Y-42698500D01*
D35*
X101469400Y-50636600D02*
X109024400Y-50636600D01*
X92151200Y-43129200D02*
X92354400Y-42926000D01*
D34*
X107750000Y-42963172D02*
X107743172Y-42963172D01*
D35*
X94488000Y-43688000D02*
X94488000Y-42803600D01*
D34*
X107728500Y-39644000D02*
X106728500Y-39644000D01*
D35*
X92354400Y-40670000D02*
X92354400Y-50055697D01*
X114554000Y-40934000D02*
X114554000Y-40670000D01*
X107998400Y-49610600D02*
X107998400Y-45435600D01*
D34*
X107728500Y-40644000D02*
X108728500Y-40644000D01*
X107478500Y-41581500D02*
X107478500Y-40894000D01*
D35*
X107978000Y-45415200D02*
X107980000Y-45413200D01*
D34*
X108728500Y-40644000D02*
X108728500Y-39644000D01*
D35*
X107980000Y-45413200D02*
X107980000Y-44390000D01*
X98846000Y-53260000D02*
X101469400Y-50636600D01*
X95558703Y-53260000D02*
X98846000Y-53260000D01*
D34*
%TO.N,+1V8*%
X106130000Y-35600000D02*
X106663934Y-35600000D01*
D35*
X99949000Y-36350000D02*
X100703067Y-36350000D01*
X107196497Y-36132563D02*
X107188000Y-36141060D01*
X107188000Y-36141060D02*
X107188000Y-36195000D01*
X98940000Y-34678000D02*
X98940000Y-36360000D01*
X100703067Y-36350000D02*
X101040926Y-36012141D01*
D34*
X106663934Y-35600000D02*
X107196497Y-36132563D01*
X107478500Y-37706500D02*
X107478500Y-37219260D01*
X107478500Y-37706500D02*
X107478500Y-36485500D01*
X107478500Y-36485500D02*
X107188000Y-36195000D01*
D35*
X99949000Y-36350000D02*
X98933000Y-36350000D01*
X97663000Y-33142000D02*
X97663000Y-33401000D01*
X97663000Y-33401000D02*
X98940000Y-34678000D01*
D34*
%TO.N,+3.3V*%
X107898172Y-34900000D02*
X105390000Y-34900000D01*
D35*
X113411000Y-29591000D02*
X114769000Y-30949000D01*
X94843600Y-37998400D02*
X96130799Y-37998400D01*
X96130799Y-37998400D02*
X96826800Y-38694401D01*
X97669999Y-35482933D02*
X97762000Y-35574934D01*
X113411000Y-29591000D02*
X113411000Y-30224000D01*
X114755200Y-33524000D02*
X114757200Y-33526000D01*
X97573600Y-37998400D02*
X97812000Y-37760000D01*
X114769000Y-30949000D02*
X114769000Y-33514200D01*
D34*
X105390000Y-34900000D02*
X104740000Y-35550000D01*
D35*
X113411000Y-30224000D02*
X112903000Y-30732000D01*
D34*
X108375000Y-35376828D02*
X108375000Y-36529208D01*
D35*
X97812000Y-36766000D02*
X97812000Y-37760000D01*
D34*
X107978500Y-36925708D02*
X107978500Y-37706500D01*
D35*
X97762000Y-36716000D02*
X97812000Y-36766000D01*
D34*
X108375000Y-36529208D02*
X107978500Y-36925708D01*
D35*
X98404000Y-38352000D02*
X98933000Y-38352000D01*
X93892100Y-37046900D02*
X93472000Y-37046900D01*
X97663000Y-30602000D02*
X93472000Y-34793000D01*
X114769000Y-33514200D02*
X114757200Y-33526000D01*
D34*
X108375000Y-35376828D02*
X107898172Y-34900000D01*
D35*
X113411000Y-30224000D02*
X113919000Y-30732000D01*
X97762000Y-35574934D02*
X97762000Y-36716000D01*
X93472000Y-34793000D02*
X93472000Y-37046900D01*
X94843600Y-37998400D02*
X93892100Y-37046900D01*
X97812000Y-37760000D02*
X98404000Y-38352000D01*
X113229144Y-33524000D02*
X113360200Y-33524000D01*
X96826800Y-38694401D02*
X96826800Y-39014400D01*
X113360200Y-33524000D02*
X114755200Y-33524000D01*
X97669999Y-34995484D02*
X97669999Y-35482933D01*
X94843600Y-37998400D02*
X97573600Y-37998400D01*
D34*
%TO.N,Net-(U1-IN2L(P))*%
X106095800Y-43081000D02*
X106095800Y-41964200D01*
X106095800Y-41964200D02*
X106478500Y-41581500D01*
%TO.N,Net-(C2-Pad2)*%
X104521000Y-43942000D02*
X102235000Y-46228000D01*
X102235000Y-46228000D02*
X95878000Y-46228000D01*
X110035307Y-44274693D02*
X110020000Y-44290000D01*
X110617000Y-36975451D02*
X110610951Y-36981500D01*
X104521000Y-41658000D02*
X104521000Y-43942000D01*
X111666517Y-44274693D02*
X110035307Y-44274693D01*
X95878000Y-46228000D02*
X93846000Y-48260000D01*
X110617000Y-36397013D02*
X110617000Y-36975451D01*
X110617000Y-36451000D02*
X110617000Y-36397013D01*
%TO.N,Net-(C3-Pad1)*%
X103846000Y-45593000D02*
X103846000Y-48260000D01*
X105289000Y-44150000D02*
X103846000Y-45593000D01*
X105900000Y-44150000D02*
X105289000Y-44150000D01*
X111512000Y-43047000D02*
X111512000Y-41658000D01*
X111125000Y-43434000D02*
X111512000Y-43047000D01*
%TO.N,Net-(U1-IN2R(P))*%
X109798327Y-41581500D02*
X110255000Y-42038173D01*
X110255000Y-42038173D02*
X110255000Y-43095000D01*
X110255000Y-43095000D02*
X110020000Y-43330000D01*
X108978500Y-41581500D02*
X109798327Y-41581500D01*
%TO.N,Net-(FB1-Pad1)*%
X94411700Y-39217600D02*
X94386400Y-39242900D01*
D35*
X95578300Y-39242900D02*
X95785753Y-39035447D01*
X94386400Y-39242900D02*
X95578300Y-39242900D01*
D34*
%TO.N,I2C_SDA*%
X109666000Y-38394000D02*
X109918600Y-38394000D01*
X112524000Y-31752000D02*
X112903000Y-31752000D01*
X112014000Y-31242000D02*
X111815200Y-31440800D01*
X110956604Y-38394000D02*
X109666000Y-38394000D01*
X111815200Y-37535404D02*
X110956604Y-38394000D01*
X112014000Y-31242000D02*
X112524000Y-31752000D01*
X111815200Y-31440800D02*
X111815200Y-37535404D01*
%TO.N,I2C_SCL*%
X109666000Y-38894000D02*
X111093000Y-38894000D01*
X112265200Y-37721800D02*
X112265200Y-33644720D01*
X112265200Y-33644720D02*
X113255919Y-32654001D01*
X113534804Y-32654001D02*
X113919000Y-32269805D01*
X111093000Y-38894000D02*
X112265200Y-37721800D01*
X113255919Y-32654001D02*
X113534804Y-32654001D01*
X113919000Y-32269805D02*
X113919000Y-31752000D01*
%TO.N,I2S_BCLK*%
X101980000Y-37216205D02*
X103157795Y-38394000D01*
X101980000Y-35620000D02*
X101980000Y-37216205D01*
X103157795Y-38394000D02*
X105791000Y-38394000D01*
X100032396Y-34952396D02*
X101312396Y-34952396D01*
X98950000Y-33870000D02*
X100032396Y-34952396D01*
X98950000Y-31855000D02*
X98950000Y-33870000D01*
X101312396Y-34952396D02*
X101980000Y-35620000D01*
X100203000Y-30602000D02*
X98950000Y-31855000D01*
%TO.N,I2S_MCLK*%
X102430000Y-34940000D02*
X102430000Y-37029809D01*
X102743000Y-30602000D02*
X101470000Y-31875000D01*
X101470000Y-31875000D02*
X101470000Y-33980000D01*
X106241000Y-37944000D02*
X106478500Y-37706500D01*
X103344191Y-37944000D02*
X106241000Y-37944000D01*
X102430000Y-37029809D02*
X103344191Y-37944000D01*
X101470000Y-33980000D02*
X102430000Y-34940000D01*
%TO.N,I2S_DOUT*%
X103165495Y-34554505D02*
X104030000Y-33690000D01*
X101223465Y-38776218D02*
X101841247Y-39394000D01*
X104030000Y-33690000D02*
X104030000Y-31855000D01*
X101841247Y-39394000D02*
X105791000Y-39394000D01*
X104030000Y-31855000D02*
X105283000Y-30602000D01*
X103165495Y-36739999D02*
X103165495Y-34554505D01*
%TO.N,I2S_WCLK*%
X107823000Y-30807000D02*
X107823000Y-30602000D01*
X104043311Y-37219000D02*
X104043311Y-35186689D01*
X106560000Y-33720000D02*
X106560000Y-32070000D01*
X102217703Y-38669000D02*
X102442703Y-38894000D01*
X104043311Y-35186689D02*
X104780000Y-34450000D01*
X104780000Y-34450000D02*
X105830000Y-34450000D01*
X105830000Y-34450000D02*
X106560000Y-33720000D01*
X102442703Y-38894000D02*
X105791000Y-38894000D01*
X106560000Y-32070000D02*
X107823000Y-30807000D01*
%TO.N,Net-(U1-MICBIAS1)*%
X105791000Y-40394000D02*
X104765000Y-40394000D01*
X104765000Y-40394000D02*
X104521000Y-40638000D01*
X104378000Y-40638000D02*
X104340000Y-40600000D01*
X104521000Y-40638000D02*
X104378000Y-40638000D01*
%TO.N,Net-(U1-MICBIAS2)*%
X111268000Y-40394000D02*
X109666000Y-40394000D01*
X111504000Y-40630000D02*
X111268000Y-40394000D01*
X111504000Y-40630000D02*
X112520000Y-40630000D01*
%TO.N,Net-(U1-I2C_ADR1)*%
X109676489Y-39404489D02*
X111379216Y-39404489D01*
X111379216Y-39404489D02*
X112715200Y-38068505D01*
X112715200Y-36078000D02*
X113360200Y-35433000D01*
X109666000Y-39394000D02*
X109676489Y-39404489D01*
X113360200Y-35433000D02*
X113360200Y-34544000D01*
X112715200Y-38068505D02*
X112715200Y-36078000D01*
%TO.N,Net-(U1-I2C_ADR0)*%
X111526101Y-39894000D02*
X109666000Y-39894000D01*
X115402200Y-36794600D02*
X114033347Y-38163453D01*
X114757200Y-35433000D02*
X115402200Y-36078000D01*
X113256648Y-38163453D02*
X111526101Y-39894000D01*
X114033347Y-38163453D02*
X113256648Y-38163453D01*
X114757200Y-34546000D02*
X114757200Y-35433000D01*
X115402200Y-36078000D02*
X115402200Y-36794600D01*
%TO.N,Net-(U1-IN3L(M))*%
X105791000Y-40894000D02*
X105350000Y-41335000D01*
X105350000Y-41335000D02*
X105350000Y-42300000D01*
%TO.N,Net-(MK1-+)*%
X113550155Y-43713993D02*
X113550155Y-42680155D01*
X113538000Y-48663000D02*
X113538000Y-43726148D01*
X113538000Y-43726148D02*
X113550155Y-43713993D01*
X106960000Y-46380400D02*
X106960000Y-44215600D01*
X111564400Y-50636600D02*
X113538000Y-48663000D01*
X113550155Y-42680155D02*
X112520000Y-41650000D01*
%TO.N,GPIO2*%
X109601000Y-34920000D02*
X107823000Y-33142000D01*
X107823000Y-33142000D02*
X107823000Y-33143000D01*
X110617000Y-35431000D02*
X109601000Y-35431000D01*
X109601000Y-35431000D02*
X109601000Y-34920000D01*
%TO.N,Net-(U1-IN3R(M))*%
X109924000Y-40894000D02*
X110590000Y-41560000D01*
X109666000Y-40894000D02*
X109924000Y-40894000D01*
%TO.N,GPIO1*%
X105283000Y-32537000D02*
X106610000Y-31210000D01*
X110871000Y-34544000D02*
X111365200Y-35038200D01*
X106610000Y-31210000D02*
X106610000Y-29860000D01*
X111007708Y-37706500D02*
X108978500Y-37706500D01*
X105283000Y-33142000D02*
X105283000Y-32537000D01*
X111365200Y-37349008D02*
X111007708Y-37706500D01*
X108537804Y-29413200D02*
X109100000Y-29975396D01*
X107056800Y-29413200D02*
X108537804Y-29413200D01*
X109100000Y-33782604D02*
X109861396Y-34544000D01*
X106610000Y-29860000D02*
X107056800Y-29413200D01*
X111365200Y-35038200D02*
X111365200Y-37349008D01*
X109861396Y-34544000D02*
X110871000Y-34544000D01*
X109100000Y-29975396D02*
X109100000Y-33782604D01*
%TO.N,Net-(U1-IN1R(M))*%
X108478500Y-42198500D02*
X108670000Y-42390000D01*
X109670000Y-42390000D02*
X109680000Y-42380000D01*
X108478500Y-41581500D02*
X108478500Y-42198500D01*
X108670000Y-42390000D02*
X109670000Y-42390000D01*
%TO.N,Net-(U1-IN1L(P))*%
X106978500Y-41581500D02*
X106978500Y-43171500D01*
%TO.N,Net-(U1-DMCLK{slash}G2)*%
X109601000Y-36451000D02*
X109089604Y-36451000D01*
X108478500Y-37062104D02*
X109089604Y-36451000D01*
X108478500Y-37062104D02*
X108478500Y-37706500D01*
%TD*%
%TA.AperFunction,Conductor*%
%TO.N,GNDA*%
G36*
X92547439Y-40439685D02*
G01*
X92593194Y-40492489D01*
X92604400Y-40544000D01*
X92604400Y-41670000D01*
X93152228Y-41670000D01*
X93152244Y-41669999D01*
X93211772Y-41663598D01*
X93211779Y-41663596D01*
X93346486Y-41613354D01*
X93346493Y-41613350D01*
X93461587Y-41527190D01*
X93461588Y-41527189D01*
X93525240Y-41442161D01*
X93581173Y-41400289D01*
X93650865Y-41395305D01*
X93712188Y-41428790D01*
X93722878Y-41440979D01*
X93724156Y-41442644D01*
X93843069Y-41533889D01*
X93981546Y-41591248D01*
X94092839Y-41605900D01*
X94679960Y-41605899D01*
X94679962Y-41605899D01*
X94785887Y-41591955D01*
X94854922Y-41602721D01*
X94907178Y-41649102D01*
X94926062Y-41716371D01*
X94925429Y-41727496D01*
X94918000Y-41800211D01*
X94918000Y-42625200D01*
X97992999Y-42625200D01*
X97992999Y-41800228D01*
X97992998Y-41800211D01*
X97991771Y-41788206D01*
X98004536Y-41719512D01*
X98052414Y-41668625D01*
X98120203Y-41651701D01*
X98173581Y-41666239D01*
X98224461Y-41693434D01*
X98237299Y-41700296D01*
X98385017Y-41745106D01*
X98416466Y-41754646D01*
X98416468Y-41754647D01*
X98433174Y-41756292D01*
X98602800Y-41772999D01*
X98789131Y-41754647D01*
X98968301Y-41700296D01*
X99133425Y-41612036D01*
X99278157Y-41493257D01*
X99298427Y-41468558D01*
X99314614Y-41448835D01*
X99372360Y-41409501D01*
X99410467Y-41403500D01*
X101242473Y-41403500D01*
X101309512Y-41423185D01*
X101355267Y-41475989D01*
X101365211Y-41545147D01*
X101357034Y-41574952D01*
X101307957Y-41693434D01*
X101307955Y-41693439D01*
X101292501Y-41810829D01*
X101292500Y-41810845D01*
X101292500Y-43939563D01*
X101307953Y-44056953D01*
X101307956Y-44056962D01*
X101368464Y-44203041D01*
X101464718Y-44328482D01*
X101590159Y-44424736D01*
X101736238Y-44485244D01*
X101853639Y-44500700D01*
X102990478Y-44500699D01*
X103057517Y-44520384D01*
X103103272Y-44573187D01*
X103113216Y-44642346D01*
X103084191Y-44705902D01*
X103078159Y-44712380D01*
X102074360Y-45716181D01*
X102013037Y-45749666D01*
X101986679Y-45752500D01*
X95940601Y-45752500D01*
X95815399Y-45752500D01*
X95736277Y-45773701D01*
X95694463Y-45784905D01*
X95586037Y-45847504D01*
X95586034Y-45847506D01*
X94499848Y-46933691D01*
X94438525Y-46967176D01*
X94368833Y-46962192D01*
X94343276Y-46949112D01*
X94296237Y-46917681D01*
X94296228Y-46917676D01*
X94123251Y-46846027D01*
X94123243Y-46846025D01*
X93939620Y-46809500D01*
X93939616Y-46809500D01*
X93752384Y-46809500D01*
X93752379Y-46809500D01*
X93568756Y-46846025D01*
X93568748Y-46846027D01*
X93395771Y-46917676D01*
X93395762Y-46917681D01*
X93240092Y-47021697D01*
X93240088Y-47021700D01*
X93107700Y-47154088D01*
X93107697Y-47154092D01*
X93003681Y-47309762D01*
X93003676Y-47309771D01*
X92932027Y-47482748D01*
X92932025Y-47482756D01*
X92895500Y-47666379D01*
X92895500Y-48853620D01*
X92932025Y-49037243D01*
X92932027Y-49037251D01*
X93003676Y-49210228D01*
X93003681Y-49210237D01*
X93107697Y-49365907D01*
X93107700Y-49365911D01*
X93240088Y-49498299D01*
X93240092Y-49498302D01*
X93395762Y-49602318D01*
X93395768Y-49602321D01*
X93395769Y-49602322D01*
X93568749Y-49673973D01*
X93752379Y-49710499D01*
X93752383Y-49710500D01*
X93752384Y-49710500D01*
X93939617Y-49710500D01*
X93939618Y-49710499D01*
X94123251Y-49673973D01*
X94296231Y-49602322D01*
X94451908Y-49498302D01*
X94584302Y-49365908D01*
X94688322Y-49210231D01*
X94759973Y-49037251D01*
X94796500Y-48853616D01*
X94796500Y-48033320D01*
X94816185Y-47966281D01*
X94832815Y-47945643D01*
X95183820Y-47594638D01*
X95245142Y-47561154D01*
X95314834Y-47566138D01*
X95370767Y-47608010D01*
X95395184Y-47673474D01*
X95395500Y-47682320D01*
X95395500Y-48853620D01*
X95432025Y-49037243D01*
X95432027Y-49037251D01*
X95503676Y-49210228D01*
X95503681Y-49210237D01*
X95607697Y-49365907D01*
X95607700Y-49365911D01*
X95740088Y-49498299D01*
X95740092Y-49498302D01*
X95895762Y-49602318D01*
X95895768Y-49602321D01*
X95895769Y-49602322D01*
X96068749Y-49673973D01*
X96252379Y-49710499D01*
X96252383Y-49710500D01*
X96252384Y-49710500D01*
X96439617Y-49710500D01*
X96439618Y-49710499D01*
X96623251Y-49673973D01*
X96796231Y-49602322D01*
X96951908Y-49498302D01*
X97084302Y-49365908D01*
X97188322Y-49210231D01*
X97259973Y-49037251D01*
X97296500Y-48853616D01*
X97296500Y-48176228D01*
X97995500Y-48176228D01*
X97995500Y-48343771D01*
X98028182Y-48508074D01*
X98028184Y-48508082D01*
X98092295Y-48662860D01*
X98185373Y-48802162D01*
X98303837Y-48920626D01*
X98396494Y-48982537D01*
X98443137Y-49013703D01*
X98597918Y-49077816D01*
X98762228Y-49110499D01*
X98762232Y-49110500D01*
X98762233Y-49110500D01*
X98929768Y-49110500D01*
X98929769Y-49110499D01*
X99094082Y-49077816D01*
X99248863Y-49013703D01*
X99388162Y-48920626D01*
X99506626Y-48802162D01*
X99599703Y-48662863D01*
X99663816Y-48508082D01*
X99696500Y-48343767D01*
X99696500Y-48176233D01*
X99663816Y-48011918D01*
X99599703Y-47857137D01*
X99568537Y-47810494D01*
X99506626Y-47717837D01*
X99388162Y-47599373D01*
X99248860Y-47506295D01*
X99094082Y-47442184D01*
X99094074Y-47442182D01*
X98929771Y-47409500D01*
X98929767Y-47409500D01*
X98762233Y-47409500D01*
X98762228Y-47409500D01*
X98597925Y-47442182D01*
X98597917Y-47442184D01*
X98443139Y-47506295D01*
X98303837Y-47599373D01*
X98185373Y-47717837D01*
X98092295Y-47857139D01*
X98028184Y-48011917D01*
X98028182Y-48011925D01*
X97995500Y-48176228D01*
X97296500Y-48176228D01*
X97296500Y-47666384D01*
X97259973Y-47482749D01*
X97188322Y-47309769D01*
X97188321Y-47309768D01*
X97188318Y-47309762D01*
X97084302Y-47154092D01*
X97084299Y-47154088D01*
X96951911Y-47021700D01*
X96951907Y-47021697D01*
X96815574Y-46930602D01*
X96770769Y-46876990D01*
X96762062Y-46807665D01*
X96792216Y-46744637D01*
X96851659Y-46707918D01*
X96884465Y-46703500D01*
X100807535Y-46703500D01*
X100874574Y-46723185D01*
X100920329Y-46775989D01*
X100930273Y-46845147D01*
X100901248Y-46908703D01*
X100876426Y-46930602D01*
X100740092Y-47021697D01*
X100740088Y-47021700D01*
X100607700Y-47154088D01*
X100607697Y-47154092D01*
X100503681Y-47309762D01*
X100503676Y-47309771D01*
X100432027Y-47482748D01*
X100432025Y-47482756D01*
X100395500Y-47666379D01*
X100395500Y-48853620D01*
X100432025Y-49037243D01*
X100432027Y-49037251D01*
X100503676Y-49210228D01*
X100503681Y-49210237D01*
X100607697Y-49365907D01*
X100607700Y-49365911D01*
X100740088Y-49498299D01*
X100740092Y-49498302D01*
X100895762Y-49602318D01*
X100895768Y-49602321D01*
X100895769Y-49602322D01*
X101068749Y-49673973D01*
X101252379Y-49710499D01*
X101252383Y-49710500D01*
X101252384Y-49710500D01*
X101439617Y-49710500D01*
X101439618Y-49710499D01*
X101623251Y-49673973D01*
X101796231Y-49602322D01*
X101951908Y-49498302D01*
X102084302Y-49365908D01*
X102188322Y-49210231D01*
X102259973Y-49037251D01*
X102296500Y-48853616D01*
X102296500Y-47666384D01*
X102259973Y-47482749D01*
X102188322Y-47309769D01*
X102188321Y-47309768D01*
X102188318Y-47309762D01*
X102084302Y-47154092D01*
X102084299Y-47154088D01*
X101951911Y-47021700D01*
X101951907Y-47021697D01*
X101815574Y-46930602D01*
X101770769Y-46876990D01*
X101762062Y-46807665D01*
X101792216Y-46744637D01*
X101851659Y-46707918D01*
X101884465Y-46703500D01*
X102297599Y-46703500D01*
X102297601Y-46703500D01*
X102418536Y-46671095D01*
X102526964Y-46608495D01*
X103158819Y-45976640D01*
X103220142Y-45943155D01*
X103289834Y-45948139D01*
X103345767Y-45990011D01*
X103370184Y-46055475D01*
X103370500Y-46064321D01*
X103370500Y-46868282D01*
X103350815Y-46935321D01*
X103315391Y-46971384D01*
X103240092Y-47021697D01*
X103240088Y-47021700D01*
X103107700Y-47154088D01*
X103107697Y-47154092D01*
X103003681Y-47309762D01*
X103003676Y-47309771D01*
X102932027Y-47482748D01*
X102932025Y-47482756D01*
X102895500Y-47666379D01*
X102895500Y-48853620D01*
X102932025Y-49037243D01*
X102932027Y-49037251D01*
X103003676Y-49210228D01*
X103003681Y-49210237D01*
X103107697Y-49365907D01*
X103107700Y-49365911D01*
X103240088Y-49498299D01*
X103240092Y-49498302D01*
X103395762Y-49602318D01*
X103395768Y-49602321D01*
X103395769Y-49602322D01*
X103568749Y-49673973D01*
X103752379Y-49710499D01*
X103752383Y-49710500D01*
X103752384Y-49710500D01*
X103939617Y-49710500D01*
X103939618Y-49710499D01*
X104123251Y-49673973D01*
X104296231Y-49602322D01*
X104451908Y-49498302D01*
X104584302Y-49365908D01*
X104688322Y-49210231D01*
X104759973Y-49037251D01*
X104796500Y-48853616D01*
X104796500Y-47666384D01*
X104759973Y-47482749D01*
X104688322Y-47309769D01*
X104688321Y-47309768D01*
X104688318Y-47309762D01*
X104584302Y-47154092D01*
X104584299Y-47154088D01*
X104451911Y-47021700D01*
X104451907Y-47021697D01*
X104376609Y-46971384D01*
X104331804Y-46917772D01*
X104321500Y-46868282D01*
X104321500Y-45841320D01*
X104341185Y-45774281D01*
X104357814Y-45753643D01*
X105358972Y-44752485D01*
X105420293Y-44719002D01*
X105489984Y-44723986D01*
X105492509Y-44724928D01*
X105492511Y-44724929D01*
X105624665Y-44774219D01*
X105683085Y-44780500D01*
X106116914Y-44780499D01*
X106175335Y-44774219D01*
X106307489Y-44724929D01*
X106307488Y-44724929D01*
X106315798Y-44721830D01*
X106316972Y-44724978D01*
X106369313Y-44713578D01*
X106434784Y-44737977D01*
X106476670Y-44793900D01*
X106484500Y-44837264D01*
X106484500Y-45743171D01*
X106464815Y-45810210D01*
X106448181Y-45830852D01*
X106369523Y-45909509D01*
X106369518Y-45909515D01*
X106279547Y-46052702D01*
X106279545Y-46052705D01*
X106223685Y-46212343D01*
X106204751Y-46380397D01*
X106204751Y-46380402D01*
X106223685Y-46548456D01*
X106279545Y-46708094D01*
X106279547Y-46708097D01*
X106369518Y-46851284D01*
X106369523Y-46851290D01*
X106489109Y-46970876D01*
X106489115Y-46970881D01*
X106632302Y-47060852D01*
X106632305Y-47060854D01*
X106632309Y-47060855D01*
X106632310Y-47060856D01*
X106704913Y-47086260D01*
X106791943Y-47116714D01*
X106959997Y-47135649D01*
X106960000Y-47135649D01*
X106960003Y-47135649D01*
X107128056Y-47116714D01*
X107128059Y-47116713D01*
X107287690Y-47060856D01*
X107287692Y-47060854D01*
X107287694Y-47060854D01*
X107287697Y-47060852D01*
X107430884Y-46970881D01*
X107430885Y-46970880D01*
X107430890Y-46970877D01*
X107550477Y-46851290D01*
X107617492Y-46744637D01*
X107640452Y-46708097D01*
X107640454Y-46708094D01*
X107640454Y-46708092D01*
X107640456Y-46708090D01*
X107696313Y-46548459D01*
X107696313Y-46548458D01*
X107696314Y-46548456D01*
X107715249Y-46380402D01*
X107715249Y-46380399D01*
X107713915Y-46368565D01*
X107707489Y-46311532D01*
X107719543Y-46242712D01*
X107728000Y-46232525D01*
X107728000Y-44615562D01*
X107730000Y-44608750D01*
X107730000Y-43608362D01*
X107749685Y-43541323D01*
X107750000Y-43540932D01*
X107750000Y-43234000D01*
X107769685Y-43166961D01*
X107822489Y-43121206D01*
X107874000Y-43110000D01*
X107997669Y-43110000D01*
X108064708Y-43129685D01*
X108085350Y-43146319D01*
X108213681Y-43274650D01*
X108247166Y-43335973D01*
X108250000Y-43362331D01*
X108250000Y-44141638D01*
X108230315Y-44208677D01*
X108230000Y-44209067D01*
X108230000Y-45189638D01*
X108228000Y-45196449D01*
X108228000Y-46219703D01*
X108374195Y-46177231D01*
X108513371Y-46094923D01*
X108513373Y-46094921D01*
X108524302Y-46083993D01*
X108585624Y-46050507D01*
X108655316Y-46055489D01*
X108655321Y-46055490D01*
X108692665Y-46069419D01*
X108751085Y-46075700D01*
X109124914Y-46075699D01*
X109183335Y-46069419D01*
X109306403Y-46023517D01*
X109349735Y-46015700D01*
X111641423Y-46015700D01*
X111641439Y-46015701D01*
X111649035Y-46015701D01*
X111807146Y-46015701D01*
X111807149Y-46015701D01*
X111959877Y-45974777D01*
X112027728Y-45935603D01*
X112096808Y-45895720D01*
X112208612Y-45783916D01*
X112208612Y-45783914D01*
X112218816Y-45773711D01*
X112218819Y-45773706D01*
X112850820Y-45141706D01*
X112912142Y-45108222D01*
X112981834Y-45113206D01*
X113037767Y-45155078D01*
X113062184Y-45220542D01*
X113062500Y-45229388D01*
X113062500Y-48414678D01*
X113042815Y-48481717D01*
X113026181Y-48502359D01*
X111986975Y-49541564D01*
X111925652Y-49575049D01*
X111872723Y-49573388D01*
X111872491Y-49574630D01*
X111866859Y-49573577D01*
X111866856Y-49573576D01*
X111666376Y-49536100D01*
X111462424Y-49536100D01*
X111261944Y-49573576D01*
X111261941Y-49573576D01*
X111261941Y-49573577D01*
X111071764Y-49647251D01*
X111071757Y-49647255D01*
X110898360Y-49754617D01*
X110898358Y-49754619D01*
X110747637Y-49892018D01*
X110624727Y-50054778D01*
X110533822Y-50237339D01*
X110533817Y-50237352D01*
X110517666Y-50294118D01*
X110480386Y-50353211D01*
X110417076Y-50382768D01*
X110347837Y-50373406D01*
X110294651Y-50328096D01*
X110274404Y-50261224D01*
X110274400Y-50260183D01*
X110274400Y-49838772D01*
X110274399Y-49838755D01*
X110267998Y-49779227D01*
X110267996Y-49779220D01*
X110217754Y-49644513D01*
X110217750Y-49644506D01*
X110131590Y-49529412D01*
X110131587Y-49529409D01*
X110016493Y-49443249D01*
X110016486Y-49443245D01*
X109881779Y-49393003D01*
X109881772Y-49393001D01*
X109822244Y-49386600D01*
X109274400Y-49386600D01*
X109274400Y-50426982D01*
X109223954Y-50376536D01*
X109149845Y-50333749D01*
X109067187Y-50311600D01*
X108981613Y-50311600D01*
X108898955Y-50333749D01*
X108824846Y-50376536D01*
X108764336Y-50437046D01*
X108721549Y-50511155D01*
X108699400Y-50593813D01*
X108699400Y-50679387D01*
X108721549Y-50762045D01*
X108764336Y-50836154D01*
X108824846Y-50896664D01*
X108898955Y-50939451D01*
X108981613Y-50961600D01*
X109067187Y-50961600D01*
X109149845Y-50939451D01*
X109223954Y-50896664D01*
X109274400Y-50846218D01*
X109274400Y-51886600D01*
X109822228Y-51886600D01*
X109822244Y-51886599D01*
X109881772Y-51880198D01*
X109881779Y-51880196D01*
X110016486Y-51829954D01*
X110016493Y-51829950D01*
X110131587Y-51743790D01*
X110131590Y-51743787D01*
X110217750Y-51628693D01*
X110217754Y-51628686D01*
X110267996Y-51493979D01*
X110267998Y-51493972D01*
X110274399Y-51434444D01*
X110274400Y-51434427D01*
X110274400Y-51013016D01*
X110294085Y-50945977D01*
X110346889Y-50900222D01*
X110416047Y-50890278D01*
X110479603Y-50919303D01*
X110517377Y-50978081D01*
X110517666Y-50979081D01*
X110533817Y-51035847D01*
X110533822Y-51035860D01*
X110624727Y-51218421D01*
X110747637Y-51381181D01*
X110898358Y-51518580D01*
X110898360Y-51518582D01*
X110997541Y-51579992D01*
X111071763Y-51625948D01*
X111261944Y-51699624D01*
X111462424Y-51737100D01*
X111462426Y-51737100D01*
X111666374Y-51737100D01*
X111666376Y-51737100D01*
X111866856Y-51699624D01*
X112057037Y-51625948D01*
X112230441Y-51518581D01*
X112381164Y-51381179D01*
X112504073Y-51218421D01*
X112594982Y-51035850D01*
X112650797Y-50839683D01*
X112669615Y-50636600D01*
X112650797Y-50433517D01*
X112624033Y-50339453D01*
X112624619Y-50269588D01*
X112655616Y-50217841D01*
X113918495Y-48954964D01*
X113981095Y-48846536D01*
X114013500Y-48725601D01*
X114013500Y-48600399D01*
X114013500Y-43838281D01*
X114017725Y-43806187D01*
X114025655Y-43776594D01*
X114025655Y-43651392D01*
X114025655Y-42617554D01*
X113993250Y-42496619D01*
X113930650Y-42388191D01*
X113842119Y-42299660D01*
X113373224Y-41830765D01*
X113339739Y-41769442D01*
X113344723Y-41699750D01*
X113386595Y-41643817D01*
X113452059Y-41619400D01*
X113504239Y-41626902D01*
X113602623Y-41663597D01*
X113602627Y-41663598D01*
X113662155Y-41669999D01*
X113662172Y-41670000D01*
X114210000Y-41670000D01*
X114210000Y-40544000D01*
X114229685Y-40476961D01*
X114282489Y-40431206D01*
X114334000Y-40420000D01*
X114586000Y-40420000D01*
X114653039Y-40439685D01*
X114698794Y-40492489D01*
X114710000Y-40544000D01*
X114710000Y-41670000D01*
X115257828Y-41670000D01*
X115257844Y-41669999D01*
X115317372Y-41663598D01*
X115317376Y-41663597D01*
X115410096Y-41629015D01*
X115479788Y-41624031D01*
X115541111Y-41657516D01*
X115574596Y-41718839D01*
X115577430Y-41745106D01*
X115588398Y-56763622D01*
X115588291Y-56768852D01*
X115584737Y-56854537D01*
X115582083Y-56875421D01*
X115545325Y-57046674D01*
X115538024Y-57069581D01*
X115469507Y-57229130D01*
X115457923Y-57250198D01*
X115359905Y-57393525D01*
X115344474Y-57411960D01*
X115220636Y-57533683D01*
X115201937Y-57548794D01*
X115056946Y-57644327D01*
X115035682Y-57655547D01*
X114874974Y-57721307D01*
X114851947Y-57728211D01*
X114797770Y-57738868D01*
X114773837Y-57741200D01*
X101170000Y-57741200D01*
X101102961Y-57721515D01*
X101057206Y-57668711D01*
X101046000Y-57617200D01*
X101046000Y-56759991D01*
X101043538Y-56697040D01*
X101043538Y-56697038D01*
X101043538Y-56697036D01*
X101004624Y-56577272D01*
X100930606Y-56475394D01*
X100855224Y-56420626D01*
X100828730Y-56401377D01*
X100828725Y-56401375D01*
X100819424Y-56398353D01*
X100708964Y-56362462D01*
X100708962Y-56362461D01*
X100708960Y-56362461D01*
X100646009Y-56360000D01*
X100646000Y-56360000D01*
X97046000Y-56360000D01*
X97045991Y-56360000D01*
X96983040Y-56362461D01*
X96983038Y-56362461D01*
X96863274Y-56401375D01*
X96863269Y-56401377D01*
X96761394Y-56475394D01*
X96687377Y-56577269D01*
X96687375Y-56577274D01*
X96648461Y-56697038D01*
X96648461Y-56697040D01*
X96646000Y-56759991D01*
X96646000Y-57617200D01*
X96626315Y-57684239D01*
X96573511Y-57729994D01*
X96522000Y-57741200D01*
X91935205Y-57741200D01*
X91911389Y-57738891D01*
X91819368Y-57720882D01*
X91796439Y-57714043D01*
X91636669Y-57649016D01*
X91615480Y-57637899D01*
X91471180Y-57543400D01*
X91452521Y-57528421D01*
X91329057Y-57407966D01*
X91313622Y-57389682D01*
X91215592Y-57247756D01*
X91203957Y-57226848D01*
X91135009Y-57068733D01*
X91127607Y-57045985D01*
X91089995Y-56876142D01*
X91087206Y-56855285D01*
X91087170Y-56854537D01*
X91084585Y-56800718D01*
X91084443Y-56795000D01*
X91084398Y-56767666D01*
X91084400Y-56767667D01*
X91082642Y-55676228D01*
X92995500Y-55676228D01*
X92995500Y-55843771D01*
X93028182Y-56008074D01*
X93028184Y-56008082D01*
X93092295Y-56162860D01*
X93185373Y-56302162D01*
X93303837Y-56420626D01*
X93385804Y-56475394D01*
X93443137Y-56513703D01*
X93597918Y-56577816D01*
X93762228Y-56610499D01*
X93762232Y-56610500D01*
X93762233Y-56610500D01*
X93929768Y-56610500D01*
X93929769Y-56610499D01*
X94094082Y-56577816D01*
X94248863Y-56513703D01*
X94388162Y-56420626D01*
X94506626Y-56302162D01*
X94599703Y-56162863D01*
X94663816Y-56008082D01*
X94696500Y-55843767D01*
X94696500Y-55676233D01*
X94696499Y-55676228D01*
X102995500Y-55676228D01*
X102995500Y-55843771D01*
X103028182Y-56008074D01*
X103028184Y-56008082D01*
X103092295Y-56162860D01*
X103185373Y-56302162D01*
X103303837Y-56420626D01*
X103385804Y-56475394D01*
X103443137Y-56513703D01*
X103597918Y-56577816D01*
X103762228Y-56610499D01*
X103762232Y-56610500D01*
X103762233Y-56610500D01*
X103929768Y-56610500D01*
X103929769Y-56610499D01*
X104094082Y-56577816D01*
X104248863Y-56513703D01*
X104388162Y-56420626D01*
X104506626Y-56302162D01*
X104599703Y-56162863D01*
X104663816Y-56008082D01*
X104696500Y-55843767D01*
X104696500Y-55676233D01*
X104663816Y-55511918D01*
X104599703Y-55357137D01*
X104568537Y-55310494D01*
X104506626Y-55217837D01*
X104388162Y-55099373D01*
X104248860Y-55006295D01*
X104094082Y-54942184D01*
X104094074Y-54942182D01*
X103929771Y-54909500D01*
X103929767Y-54909500D01*
X103762233Y-54909500D01*
X103762228Y-54909500D01*
X103597925Y-54942182D01*
X103597917Y-54942184D01*
X103443139Y-55006295D01*
X103303837Y-55099373D01*
X103185373Y-55217837D01*
X103092295Y-55357139D01*
X103028184Y-55511917D01*
X103028182Y-55511925D01*
X102995500Y-55676228D01*
X94696499Y-55676228D01*
X94663816Y-55511918D01*
X94599703Y-55357137D01*
X94568537Y-55310494D01*
X94506626Y-55217837D01*
X94388162Y-55099373D01*
X94248860Y-55006295D01*
X94094082Y-54942184D01*
X94094074Y-54942182D01*
X93929771Y-54909500D01*
X93929767Y-54909500D01*
X93762233Y-54909500D01*
X93762228Y-54909500D01*
X93597925Y-54942182D01*
X93597917Y-54942184D01*
X93443139Y-55006295D01*
X93303837Y-55099373D01*
X93185373Y-55217837D01*
X93092295Y-55357139D01*
X93028184Y-55511917D01*
X93028182Y-55511925D01*
X92995500Y-55676228D01*
X91082642Y-55676228D01*
X91078615Y-53176228D01*
X92995500Y-53176228D01*
X92995500Y-53343771D01*
X93028182Y-53508074D01*
X93028184Y-53508082D01*
X93092295Y-53662860D01*
X93185373Y-53802162D01*
X93303837Y-53920626D01*
X93387612Y-53976602D01*
X93443137Y-54013703D01*
X93597918Y-54077816D01*
X93762228Y-54110499D01*
X93762232Y-54110500D01*
X93762233Y-54110500D01*
X93929768Y-54110500D01*
X93929769Y-54110499D01*
X94094082Y-54077816D01*
X94248863Y-54013703D01*
X94388162Y-53920626D01*
X94506626Y-53802162D01*
X94599703Y-53662863D01*
X94663022Y-53510000D01*
X97271885Y-53510000D01*
X97273085Y-53517584D01*
X97326591Y-53682255D01*
X97405195Y-53836524D01*
X97506967Y-53976602D01*
X97629397Y-54099032D01*
X97769475Y-54200804D01*
X97923742Y-54279408D01*
X98088415Y-54332914D01*
X98259429Y-54360000D01*
X98596000Y-54360000D01*
X99096000Y-54360000D01*
X99432571Y-54360000D01*
X99603584Y-54332914D01*
X99768257Y-54279408D01*
X99922524Y-54200804D01*
X100062602Y-54099032D01*
X100185032Y-53976602D01*
X100286804Y-53836524D01*
X100365408Y-53682255D01*
X100418914Y-53517584D01*
X100420115Y-53510000D01*
X99096000Y-53510000D01*
X99096000Y-54360000D01*
X98596000Y-54360000D01*
X98596000Y-53510000D01*
X97271885Y-53510000D01*
X94663022Y-53510000D01*
X94663816Y-53508082D01*
X94696500Y-53343767D01*
X94696500Y-53220218D01*
X98146000Y-53220218D01*
X98146000Y-53299782D01*
X98176448Y-53373291D01*
X98232709Y-53429552D01*
X98306218Y-53460000D01*
X99385782Y-53460000D01*
X99459291Y-53429552D01*
X99515552Y-53373291D01*
X99546000Y-53299782D01*
X99546000Y-53220218D01*
X99527779Y-53176228D01*
X102995500Y-53176228D01*
X102995500Y-53343771D01*
X103028182Y-53508074D01*
X103028184Y-53508082D01*
X103092295Y-53662860D01*
X103185373Y-53802162D01*
X103303837Y-53920626D01*
X103387612Y-53976602D01*
X103443137Y-54013703D01*
X103597918Y-54077816D01*
X103762228Y-54110499D01*
X103762232Y-54110500D01*
X103762233Y-54110500D01*
X103929768Y-54110500D01*
X103929769Y-54110499D01*
X104094082Y-54077816D01*
X104248863Y-54013703D01*
X104388162Y-53920626D01*
X104506626Y-53802162D01*
X104599703Y-53662863D01*
X104663816Y-53508082D01*
X104696500Y-53343767D01*
X104696500Y-53176233D01*
X104663816Y-53011918D01*
X104599703Y-52857137D01*
X104568537Y-52810494D01*
X104506626Y-52717837D01*
X104388162Y-52599373D01*
X104248860Y-52506295D01*
X104094082Y-52442184D01*
X104094074Y-52442182D01*
X103929771Y-52409500D01*
X103929767Y-52409500D01*
X103762233Y-52409500D01*
X103762228Y-52409500D01*
X103597925Y-52442182D01*
X103597917Y-52442184D01*
X103443139Y-52506295D01*
X103303837Y-52599373D01*
X103185373Y-52717837D01*
X103092295Y-52857139D01*
X103028184Y-53011917D01*
X103028182Y-53011925D01*
X102995500Y-53176228D01*
X99527779Y-53176228D01*
X99515552Y-53146709D01*
X99459291Y-53090448D01*
X99385782Y-53060000D01*
X98306218Y-53060000D01*
X98232709Y-53090448D01*
X98176448Y-53146709D01*
X98146000Y-53220218D01*
X94696500Y-53220218D01*
X94696500Y-53176233D01*
X94663816Y-53011918D01*
X94663021Y-53009999D01*
X97271884Y-53009999D01*
X97271885Y-53010000D01*
X98596000Y-53010000D01*
X99096000Y-53010000D01*
X100420115Y-53010000D01*
X100420115Y-53009999D01*
X100418914Y-53002415D01*
X100365408Y-52837744D01*
X100286804Y-52683475D01*
X100185032Y-52543397D01*
X100062602Y-52420967D01*
X99922524Y-52319195D01*
X99768257Y-52240591D01*
X99603584Y-52187085D01*
X99432571Y-52160000D01*
X99096000Y-52160000D01*
X99096000Y-53010000D01*
X98596000Y-53010000D01*
X98596000Y-52160000D01*
X98259429Y-52160000D01*
X98088415Y-52187085D01*
X97923742Y-52240591D01*
X97769475Y-52319195D01*
X97629397Y-52420967D01*
X97506967Y-52543397D01*
X97405195Y-52683475D01*
X97326591Y-52837744D01*
X97273085Y-53002415D01*
X97271884Y-53009999D01*
X94663021Y-53009999D01*
X94599703Y-52857137D01*
X94568537Y-52810494D01*
X94506626Y-52717837D01*
X94388162Y-52599373D01*
X94248860Y-52506295D01*
X94094082Y-52442184D01*
X94094074Y-52442182D01*
X93929771Y-52409500D01*
X93929767Y-52409500D01*
X93762233Y-52409500D01*
X93762228Y-52409500D01*
X93597925Y-52442182D01*
X93597917Y-52442184D01*
X93443139Y-52506295D01*
X93303837Y-52599373D01*
X93185373Y-52717837D01*
X93092295Y-52857139D01*
X93028184Y-53011917D01*
X93028182Y-53011925D01*
X92995500Y-53176228D01*
X91078615Y-53176228D01*
X91075809Y-51434444D01*
X107774400Y-51434444D01*
X107780801Y-51493972D01*
X107780803Y-51493979D01*
X107831045Y-51628686D01*
X107831049Y-51628693D01*
X107917209Y-51743787D01*
X107917212Y-51743790D01*
X108032306Y-51829950D01*
X108032313Y-51829954D01*
X108167020Y-51880196D01*
X108167027Y-51880198D01*
X108226555Y-51886599D01*
X108226572Y-51886600D01*
X108774400Y-51886600D01*
X108774400Y-50886600D01*
X107774400Y-50886600D01*
X107774400Y-51434444D01*
X91075809Y-51434444D01*
X91073239Y-49838755D01*
X107774400Y-49838755D01*
X107774400Y-50386600D01*
X108774400Y-50386600D01*
X108774400Y-49386600D01*
X108226555Y-49386600D01*
X108167027Y-49393001D01*
X108167020Y-49393003D01*
X108032313Y-49443245D01*
X108032306Y-49443249D01*
X107917212Y-49529409D01*
X107917209Y-49529412D01*
X107831049Y-49644506D01*
X107831045Y-49644513D01*
X107780803Y-49779220D01*
X107780801Y-49779227D01*
X107774400Y-49838755D01*
X91073239Y-49838755D01*
X91063753Y-43950186D01*
X94918001Y-43950186D01*
X94928494Y-44052897D01*
X94983641Y-44219319D01*
X94983643Y-44219324D01*
X95075684Y-44368545D01*
X95199654Y-44492515D01*
X95348875Y-44584556D01*
X95348880Y-44584558D01*
X95515302Y-44639705D01*
X95515309Y-44639706D01*
X95618019Y-44650199D01*
X96205499Y-44650199D01*
X96705500Y-44650199D01*
X97292972Y-44650199D01*
X97292986Y-44650198D01*
X97395697Y-44639705D01*
X97562119Y-44584558D01*
X97562124Y-44584556D01*
X97711345Y-44492515D01*
X97835315Y-44368545D01*
X97927356Y-44219324D01*
X97927358Y-44219319D01*
X97982505Y-44052897D01*
X97982506Y-44052890D01*
X97992999Y-43950186D01*
X97993000Y-43950173D01*
X97993000Y-43125200D01*
X96705500Y-43125200D01*
X96705500Y-44650199D01*
X96205499Y-44650199D01*
X96205500Y-44650198D01*
X96205500Y-43125200D01*
X94918001Y-43125200D01*
X94918001Y-43950186D01*
X91063753Y-43950186D01*
X91063521Y-43806187D01*
X91061897Y-42798385D01*
X91060691Y-41635406D01*
X91080305Y-41568351D01*
X91133061Y-41522541D01*
X91202210Y-41512526D01*
X91259001Y-41536015D01*
X91362311Y-41613353D01*
X91362313Y-41613354D01*
X91497020Y-41663596D01*
X91497027Y-41663598D01*
X91556555Y-41669999D01*
X91556572Y-41670000D01*
X92104400Y-41670000D01*
X92104400Y-40544000D01*
X92124085Y-40476961D01*
X92176889Y-40431206D01*
X92228400Y-40420000D01*
X92480400Y-40420000D01*
X92547439Y-40439685D01*
G37*
%TD.AperFunction*%
%TD*%
%TA.AperFunction,Conductor*%
%TO.N,GND*%
G36*
X113134613Y-39060459D02*
G01*
X113178960Y-39088960D01*
X113210000Y-39120000D01*
X114586000Y-39120000D01*
X114653039Y-39139685D01*
X114698794Y-39192489D01*
X114710000Y-39244000D01*
X114710000Y-39496000D01*
X114690315Y-39563039D01*
X114637511Y-39608794D01*
X114586000Y-39620000D01*
X113210000Y-39620000D01*
X113210000Y-39917844D01*
X113216889Y-39981910D01*
X113204484Y-40050670D01*
X113156874Y-40101807D01*
X113092960Y-40119164D01*
X113053445Y-40118960D01*
X112986508Y-40098930D01*
X112979775Y-40094229D01*
X112940071Y-40064507D01*
X112940070Y-40064506D01*
X112940068Y-40064505D01*
X112809262Y-40015716D01*
X112809260Y-40015715D01*
X112809258Y-40015715D01*
X112751459Y-40009500D01*
X112382420Y-40009500D01*
X112315381Y-39989815D01*
X112269626Y-39937011D01*
X112259682Y-39867853D01*
X112288707Y-39804297D01*
X112294722Y-39797836D01*
X113003601Y-39088957D01*
X113064921Y-39055475D01*
X113134613Y-39060459D01*
G37*
%TD.AperFunction*%
%TA.AperFunction,Conductor*%
G36*
X101473484Y-36949944D02*
G01*
X101503075Y-37013238D01*
X101504500Y-37031981D01*
X101504500Y-37153604D01*
X101504500Y-37278806D01*
X101536905Y-37399741D01*
X101576602Y-37468500D01*
X101599504Y-37508167D01*
X101599506Y-37508170D01*
X101896665Y-37805329D01*
X101930150Y-37866652D01*
X101925166Y-37936344D01*
X101883294Y-37992277D01*
X101874957Y-37998003D01*
X101746812Y-38078523D01*
X101746807Y-38078527D01*
X101730644Y-38094689D01*
X101669319Y-38128171D01*
X101599628Y-38123184D01*
X101576995Y-38111998D01*
X101551157Y-38095763D01*
X101551156Y-38095762D01*
X101551155Y-38095762D01*
X101501889Y-38078523D01*
X101391521Y-38039903D01*
X101223468Y-38020969D01*
X101223462Y-38020969D01*
X101055408Y-38039903D01*
X100912371Y-38089954D01*
X100898842Y-38094689D01*
X100895764Y-38095766D01*
X100893725Y-38096748D01*
X100892277Y-38096986D01*
X100889203Y-38098062D01*
X100889014Y-38097523D01*
X100824783Y-38108095D01*
X100760651Y-38080368D01*
X100721689Y-38022370D01*
X100720855Y-38019618D01*
X100711031Y-37985804D01*
X100665681Y-37909121D01*
X100648498Y-37841397D01*
X100665681Y-37782879D01*
X100711031Y-37706195D01*
X100753504Y-37560000D01*
X100199000Y-37560000D01*
X100199000Y-38508000D01*
X100179315Y-38575039D01*
X100126511Y-38620794D01*
X100075000Y-38632000D01*
X99823000Y-38632000D01*
X99755961Y-38612315D01*
X99710206Y-38559511D01*
X99699000Y-38508000D01*
X99699000Y-37570000D01*
X98814000Y-37570000D01*
X98746961Y-37550315D01*
X98701206Y-37497511D01*
X98690000Y-37446000D01*
X98690000Y-37194000D01*
X98709685Y-37126961D01*
X98762489Y-37081206D01*
X98814000Y-37070000D01*
X99117880Y-37070000D01*
X99131004Y-37062834D01*
X99157362Y-37060000D01*
X100753505Y-37060000D01*
X100775976Y-37030071D01*
X100806552Y-36982787D01*
X100870190Y-36953941D01*
X100899645Y-36953325D01*
X101040926Y-36967240D01*
X101227257Y-36948888D01*
X101344504Y-36913320D01*
X101414371Y-36912697D01*
X101473484Y-36949944D01*
G37*
%TD.AperFunction*%
%TA.AperFunction,Conductor*%
G36*
X99059220Y-28698154D02*
G01*
X100174544Y-28698431D01*
X100175155Y-28698433D01*
X102618647Y-28711093D01*
X106823234Y-28732879D01*
X106890171Y-28752910D01*
X106935652Y-28805951D01*
X106945237Y-28875160D01*
X106915883Y-28938564D01*
X106879502Y-28964657D01*
X106880302Y-28966042D01*
X106764837Y-29032703D01*
X106683374Y-29114167D01*
X106683373Y-29114166D01*
X106300594Y-29496945D01*
X106300595Y-29496946D01*
X106229502Y-29568039D01*
X106203535Y-29613017D01*
X106152968Y-29661232D01*
X106084361Y-29674456D01*
X106019497Y-29648488D01*
X106012611Y-29642655D01*
X106009564Y-29639877D01*
X106009559Y-29639874D01*
X105820404Y-29522754D01*
X105820398Y-29522752D01*
X105612940Y-29442382D01*
X105394243Y-29401500D01*
X105171757Y-29401500D01*
X104953060Y-29442382D01*
X104857235Y-29479505D01*
X104745601Y-29522752D01*
X104745595Y-29522754D01*
X104556439Y-29639874D01*
X104556437Y-29639876D01*
X104392020Y-29789761D01*
X104257943Y-29967308D01*
X104257938Y-29967316D01*
X104158775Y-30166461D01*
X104158769Y-30166476D01*
X104132266Y-30259627D01*
X104094987Y-30318721D01*
X104031677Y-30348278D01*
X103962438Y-30338916D01*
X103909251Y-30293606D01*
X103893734Y-30259627D01*
X103867230Y-30166476D01*
X103867229Y-30166472D01*
X103867224Y-30166461D01*
X103768061Y-29967316D01*
X103768056Y-29967308D01*
X103633979Y-29789761D01*
X103469562Y-29639876D01*
X103469560Y-29639874D01*
X103280404Y-29522754D01*
X103280398Y-29522752D01*
X103072940Y-29442382D01*
X102854243Y-29401500D01*
X102631757Y-29401500D01*
X102413060Y-29442382D01*
X102317235Y-29479505D01*
X102205601Y-29522752D01*
X102205595Y-29522754D01*
X102016439Y-29639874D01*
X102016437Y-29639876D01*
X101852020Y-29789761D01*
X101717943Y-29967308D01*
X101717938Y-29967316D01*
X101618775Y-30166461D01*
X101618769Y-30166476D01*
X101592266Y-30259627D01*
X101554987Y-30318721D01*
X101491677Y-30348278D01*
X101422438Y-30338916D01*
X101369251Y-30293606D01*
X101353734Y-30259627D01*
X101327230Y-30166476D01*
X101327229Y-30166472D01*
X101327224Y-30166461D01*
X101228061Y-29967316D01*
X101228056Y-29967308D01*
X101093979Y-29789761D01*
X100929562Y-29639876D01*
X100929560Y-29639874D01*
X100740404Y-29522754D01*
X100740398Y-29522752D01*
X100532940Y-29442382D01*
X100314243Y-29401500D01*
X100091757Y-29401500D01*
X99873060Y-29442382D01*
X99777235Y-29479505D01*
X99665601Y-29522752D01*
X99665595Y-29522754D01*
X99476439Y-29639874D01*
X99476437Y-29639876D01*
X99312020Y-29789761D01*
X99177943Y-29967308D01*
X99177938Y-29967316D01*
X99098500Y-30126850D01*
X99050997Y-30178087D01*
X98983334Y-30195508D01*
X98916994Y-30173582D01*
X98873039Y-30119271D01*
X98863500Y-30071578D01*
X98863500Y-29718739D01*
X98853573Y-29650608D01*
X98852537Y-29648488D01*
X98802198Y-29545517D01*
X98802196Y-29545515D01*
X98802196Y-29545514D01*
X98719485Y-29462803D01*
X98614391Y-29411426D01*
X98546261Y-29401500D01*
X98546260Y-29401500D01*
X96779740Y-29401500D01*
X96779739Y-29401500D01*
X96711608Y-29411426D01*
X96606514Y-29462803D01*
X96523803Y-29545514D01*
X96472426Y-29650608D01*
X96462500Y-29718739D01*
X96462500Y-30901902D01*
X96442815Y-30968941D01*
X96426181Y-30989583D01*
X95399722Y-32016042D01*
X95338399Y-32049527D01*
X95268707Y-32044543D01*
X95212774Y-32002671D01*
X95188357Y-31937207D01*
X95194335Y-31889357D01*
X95236505Y-31762097D01*
X95236506Y-31762090D01*
X95246999Y-31659386D01*
X95247000Y-31659373D01*
X95247000Y-31071900D01*
X93722000Y-31071900D01*
X93722000Y-32359399D01*
X94546972Y-32359399D01*
X94546986Y-32359398D01*
X94649695Y-32348906D01*
X94776955Y-32306735D01*
X94846783Y-32304333D01*
X94906825Y-32340064D01*
X94938019Y-32402584D01*
X94930459Y-32472044D01*
X94903641Y-32512122D01*
X93103286Y-34312478D01*
X92991481Y-34424282D01*
X92991475Y-34424290D01*
X92949553Y-34496903D01*
X92949553Y-34496905D01*
X92912423Y-34561214D01*
X92912423Y-34561215D01*
X92871499Y-34713943D01*
X92871499Y-34713945D01*
X92871499Y-34882046D01*
X92871500Y-34882059D01*
X92871500Y-35534900D01*
X92851815Y-35601939D01*
X92799011Y-35647694D01*
X92747500Y-35658900D01*
X92407636Y-35658900D01*
X92290246Y-35674353D01*
X92290237Y-35674356D01*
X92144160Y-35734863D01*
X92018718Y-35831118D01*
X91922463Y-35956560D01*
X91861956Y-36102637D01*
X91861955Y-36102639D01*
X91851705Y-36180499D01*
X91846501Y-36220036D01*
X91846500Y-36220045D01*
X91846500Y-37873763D01*
X91861953Y-37991153D01*
X91861956Y-37991162D01*
X91922464Y-38137242D01*
X91947995Y-38170514D01*
X91973189Y-38235683D01*
X91959151Y-38304128D01*
X91910337Y-38354117D01*
X91849619Y-38370000D01*
X91556555Y-38370000D01*
X91497027Y-38376401D01*
X91497020Y-38376403D01*
X91362313Y-38426645D01*
X91362311Y-38426647D01*
X91257311Y-38505250D01*
X91191847Y-38529667D01*
X91123574Y-38514816D01*
X91074168Y-38465410D01*
X91059000Y-38405983D01*
X91059000Y-31659386D01*
X91697001Y-31659386D01*
X91707494Y-31762097D01*
X91762641Y-31928519D01*
X91762643Y-31928524D01*
X91854684Y-32077745D01*
X91978654Y-32201715D01*
X92127875Y-32293756D01*
X92127880Y-32293758D01*
X92294302Y-32348905D01*
X92294309Y-32348906D01*
X92397019Y-32359399D01*
X93221999Y-32359399D01*
X93222000Y-32359398D01*
X93222000Y-31071900D01*
X91697001Y-31071900D01*
X91697001Y-31659386D01*
X91059000Y-31659386D01*
X91059000Y-29984413D01*
X91697000Y-29984413D01*
X91697000Y-30571900D01*
X93222000Y-30571900D01*
X93722000Y-30571900D01*
X95246999Y-30571900D01*
X95246999Y-29984428D01*
X95246998Y-29984413D01*
X95236505Y-29881702D01*
X95181358Y-29715280D01*
X95181356Y-29715275D01*
X95089315Y-29566054D01*
X94965345Y-29442084D01*
X94816124Y-29350043D01*
X94816119Y-29350041D01*
X94649697Y-29294894D01*
X94649690Y-29294893D01*
X94546986Y-29284400D01*
X93722000Y-29284400D01*
X93722000Y-30571900D01*
X93222000Y-30571900D01*
X93222000Y-29284400D01*
X92397028Y-29284400D01*
X92397012Y-29284401D01*
X92294302Y-29294894D01*
X92127880Y-29350041D01*
X92127875Y-29350043D01*
X91978654Y-29442084D01*
X91854684Y-29566054D01*
X91762643Y-29715275D01*
X91762641Y-29715280D01*
X91707494Y-29881702D01*
X91707493Y-29881709D01*
X91697000Y-29984413D01*
X91059000Y-29984413D01*
X91059000Y-29544853D01*
X91061382Y-29520664D01*
X91079673Y-29428701D01*
X91086724Y-29405451D01*
X91153803Y-29243505D01*
X91165248Y-29222095D01*
X91262630Y-29076352D01*
X91278039Y-29057576D01*
X91401974Y-28933641D01*
X91420755Y-28918227D01*
X91566489Y-28820852D01*
X91587925Y-28809396D01*
X91731577Y-28749895D01*
X91749845Y-28742328D01*
X91773100Y-28735273D01*
X91946405Y-28700803D01*
X91967751Y-28698454D01*
X92055435Y-28696449D01*
X92058238Y-28696418D01*
X99059220Y-28698154D01*
G37*
%TD.AperFunction*%
%TA.AperFunction,Conductor*%
G36*
X115489334Y-37482439D02*
G01*
X115545267Y-37524311D01*
X115569684Y-37589775D01*
X115570000Y-37598621D01*
X115570000Y-38292031D01*
X115550315Y-38359070D01*
X115497511Y-38404825D01*
X115428353Y-38414769D01*
X115402667Y-38408213D01*
X115317380Y-38376403D01*
X115317372Y-38376401D01*
X115257844Y-38370000D01*
X114798621Y-38370000D01*
X114731582Y-38350315D01*
X114685827Y-38297511D01*
X114675883Y-38228353D01*
X114704908Y-38164797D01*
X114710940Y-38158319D01*
X115358319Y-37510940D01*
X115419642Y-37477455D01*
X115489334Y-37482439D01*
G37*
%TD.AperFunction*%
%TA.AperFunction,Conductor*%
G36*
X114869739Y-36222685D02*
G01*
X114915494Y-36275489D01*
X114926700Y-36327000D01*
X114926700Y-36546279D01*
X114907015Y-36613318D01*
X114890381Y-36633960D01*
X114857660Y-36666681D01*
X114796337Y-36700166D01*
X114769979Y-36703000D01*
X113610200Y-36703000D01*
X113610200Y-37222930D01*
X113645322Y-37220167D01*
X113645328Y-37220166D01*
X113799388Y-37175407D01*
X113799391Y-37175406D01*
X113937485Y-37093738D01*
X113937494Y-37093731D01*
X113971018Y-37060207D01*
X114032340Y-37026721D01*
X114102032Y-37031705D01*
X114146382Y-37060207D01*
X114179905Y-37093731D01*
X114179914Y-37093738D01*
X114199843Y-37105524D01*
X114247527Y-37156593D01*
X114260030Y-37225335D01*
X114233385Y-37289924D01*
X114224403Y-37299937D01*
X113872707Y-37651634D01*
X113811384Y-37685119D01*
X113785026Y-37687953D01*
X113314700Y-37687953D01*
X113247661Y-37668268D01*
X113201906Y-37615464D01*
X113190700Y-37563953D01*
X113190700Y-36327000D01*
X113210385Y-36259961D01*
X113263189Y-36214206D01*
X113314700Y-36203000D01*
X114802700Y-36203000D01*
X114869739Y-36222685D01*
G37*
%TD.AperFunction*%
%TA.AperFunction,Conductor*%
G36*
X105453331Y-37114276D02*
G01*
X105497682Y-37142778D01*
X105564620Y-37209717D01*
X105564625Y-37209721D01*
X105612050Y-37237768D01*
X105659733Y-37288837D01*
X105672237Y-37357579D01*
X105645592Y-37422168D01*
X105588256Y-37462098D01*
X105548929Y-37468500D01*
X105236526Y-37468500D01*
X105169487Y-37448815D01*
X105123732Y-37396011D01*
X105113788Y-37326853D01*
X105142813Y-37263297D01*
X105173405Y-37237768D01*
X105305374Y-37159721D01*
X105305382Y-37159714D01*
X105322317Y-37142780D01*
X105383639Y-37109293D01*
X105453331Y-37114276D01*
G37*
%TD.AperFunction*%
%TA.AperFunction,Conductor*%
G36*
X96395076Y-32821672D02*
G01*
X96451009Y-32863544D01*
X96475426Y-32929008D01*
X96475213Y-32949295D01*
X96457357Y-33141998D01*
X96457357Y-33142000D01*
X96477884Y-33363535D01*
X96477885Y-33363537D01*
X96538769Y-33577523D01*
X96538775Y-33577538D01*
X96637938Y-33776683D01*
X96637943Y-33776691D01*
X96772020Y-33954238D01*
X96936436Y-34104123D01*
X96945885Y-34109973D01*
X96972687Y-34126568D01*
X97019322Y-34178594D01*
X97030427Y-34247576D01*
X97002475Y-34311610D01*
X96995100Y-34319667D01*
X96994647Y-34320119D01*
X96875863Y-34464857D01*
X96875861Y-34464860D01*
X96787603Y-34629981D01*
X96733252Y-34809150D01*
X96733251Y-34809152D01*
X96730080Y-34841355D01*
X96703918Y-34906142D01*
X96646884Y-34946501D01*
X96606688Y-34953200D01*
X96597380Y-34953200D01*
X96597351Y-34953201D01*
X96561089Y-34956054D01*
X96405803Y-35001169D01*
X96266625Y-35083478D01*
X96266616Y-35083485D01*
X96152285Y-35197816D01*
X96152278Y-35197825D01*
X96069968Y-35337004D01*
X96069966Y-35337009D01*
X96024855Y-35492281D01*
X96024854Y-35492287D01*
X96023209Y-35513199D01*
X96023210Y-35513200D01*
X96806621Y-35513200D01*
X96873660Y-35532885D01*
X96902474Y-35558535D01*
X96994640Y-35670839D01*
X96994642Y-35670841D01*
X97006662Y-35680706D01*
X97045998Y-35738449D01*
X97052000Y-35776560D01*
X97052000Y-36895200D01*
X97032315Y-36962239D01*
X96979511Y-37007994D01*
X96928000Y-37019200D01*
X96023210Y-37019200D01*
X96024854Y-37040110D01*
X96069968Y-37195394D01*
X96079067Y-37210780D01*
X96096248Y-37278504D01*
X96074088Y-37344766D01*
X96019622Y-37388529D01*
X95972334Y-37397900D01*
X95221500Y-37397900D01*
X95154461Y-37378215D01*
X95108706Y-37325411D01*
X95097500Y-37273900D01*
X95097499Y-36519199D01*
X96023209Y-36519199D01*
X96023210Y-36519200D01*
X96552000Y-36519200D01*
X96552000Y-36013200D01*
X96023210Y-36013200D01*
X96024854Y-36034110D01*
X96069968Y-36189395D01*
X96069968Y-36189396D01*
X96078062Y-36203082D01*
X96095242Y-36270807D01*
X96078062Y-36329318D01*
X96069968Y-36343003D01*
X96069966Y-36343009D01*
X96024855Y-36498281D01*
X96024854Y-36498287D01*
X96023209Y-36519199D01*
X95097499Y-36519199D01*
X95097499Y-36220036D01*
X95082046Y-36102646D01*
X95082044Y-36102639D01*
X95082044Y-36102638D01*
X95021536Y-35956559D01*
X94925282Y-35831118D01*
X94799841Y-35734864D01*
X94776850Y-35725341D01*
X94653762Y-35674356D01*
X94653760Y-35674355D01*
X94536370Y-35658901D01*
X94536367Y-35658900D01*
X94536361Y-35658900D01*
X94536354Y-35658900D01*
X94196500Y-35658900D01*
X94129461Y-35639215D01*
X94083706Y-35586411D01*
X94072500Y-35534900D01*
X94072500Y-35093097D01*
X94092185Y-35026058D01*
X94108819Y-35005416D01*
X95159999Y-33954236D01*
X96264061Y-32850172D01*
X96325384Y-32816688D01*
X96395076Y-32821672D01*
G37*
%TD.AperFunction*%
%TA.AperFunction,Conductor*%
G36*
X105558677Y-36279685D02*
G01*
X105579319Y-36296319D01*
X105593000Y-36310000D01*
X106165088Y-36310000D01*
X106232127Y-36329685D01*
X106277882Y-36382489D01*
X106283745Y-36397994D01*
X106314101Y-36498064D01*
X106365358Y-36593961D01*
X106380000Y-36652412D01*
X106380000Y-36686000D01*
X106360315Y-36753039D01*
X106307511Y-36798794D01*
X106256000Y-36810000D01*
X105378362Y-36810000D01*
X105311323Y-36790315D01*
X105290681Y-36773681D01*
X105277000Y-36760000D01*
X104697040Y-36760000D01*
X104630001Y-36740315D01*
X104609359Y-36723681D01*
X104555130Y-36669452D01*
X104521645Y-36608129D01*
X104518811Y-36581771D01*
X104518811Y-36384000D01*
X104538496Y-36316961D01*
X104591300Y-36271206D01*
X104642811Y-36260000D01*
X105491638Y-36260000D01*
X105558677Y-36279685D01*
G37*
%TD.AperFunction*%
%TA.AperFunction,Conductor*%
G36*
X110613000Y-32708988D02*
G01*
X110555993Y-32676075D01*
X110428826Y-32642000D01*
X110297174Y-32642000D01*
X110170007Y-32676075D01*
X110113000Y-32708988D01*
X110113000Y-31035012D01*
X110170007Y-31067925D01*
X110297174Y-31102000D01*
X110428826Y-31102000D01*
X110555993Y-31067925D01*
X110613000Y-31035012D01*
X110613000Y-32708988D01*
G37*
%TD.AperFunction*%
%TA.AperFunction,Conductor*%
G36*
X112599541Y-28762808D02*
G01*
X112666475Y-28782838D01*
X112711956Y-28835879D01*
X112721541Y-28905088D01*
X112694750Y-28965469D01*
X112616864Y-29060374D01*
X112616862Y-29060376D01*
X112528604Y-29225497D01*
X112474253Y-29404666D01*
X112474252Y-29404668D01*
X112455901Y-29591000D01*
X112474252Y-29777331D01*
X112474253Y-29777333D01*
X112528604Y-29956502D01*
X112547749Y-29992320D01*
X112561991Y-30060723D01*
X112536991Y-30125967D01*
X112489949Y-30160859D01*
X112490712Y-30162257D01*
X112482928Y-30166506D01*
X112371168Y-30250168D01*
X112287506Y-30361928D01*
X112287505Y-30361930D01*
X112265636Y-30420563D01*
X112223764Y-30476496D01*
X112158299Y-30500912D01*
X112135572Y-30500448D01*
X112014004Y-30486751D01*
X112013997Y-30486751D01*
X111839021Y-30506466D01*
X111838714Y-30503750D01*
X111781350Y-30500222D01*
X111725002Y-30458911D01*
X111699995Y-30394418D01*
X111697569Y-30366681D01*
X111697568Y-30366676D01*
X111636433Y-30138516D01*
X111636429Y-30138507D01*
X111536600Y-29924422D01*
X111536599Y-29924420D01*
X111401113Y-29730926D01*
X111401108Y-29730920D01*
X111234082Y-29563894D01*
X111040578Y-29428399D01*
X110826492Y-29328570D01*
X110826486Y-29328567D01*
X110613000Y-29271364D01*
X110613000Y-30168988D01*
X110555993Y-30136075D01*
X110428826Y-30102000D01*
X110297174Y-30102000D01*
X110170007Y-30136075D01*
X110113000Y-30168988D01*
X110113000Y-29271364D01*
X110112999Y-29271364D01*
X109899513Y-29328567D01*
X109899507Y-29328570D01*
X109685422Y-29428399D01*
X109685420Y-29428400D01*
X109500121Y-29558148D01*
X109433915Y-29580475D01*
X109366148Y-29563465D01*
X109341317Y-29544254D01*
X108829769Y-29032706D01*
X108829768Y-29032705D01*
X108728887Y-28974462D01*
X108680672Y-28923896D01*
X108667448Y-28855289D01*
X108693416Y-28790424D01*
X108750330Y-28749895D01*
X108791526Y-28743077D01*
X112599541Y-28762808D01*
G37*
%TD.AperFunction*%
%TD*%
M02*
