%TF.GenerationSoftware,KiCad,Pcbnew,8.0.2*%
%TF.CreationDate,2024-06-06T16:49:24+02:00*%
%TF.ProjectId,AnalogI2SMic,416e616c-6f67-4493-9253-4d69632e6b69,rev?*%
%TF.SameCoordinates,Original*%
%TF.FileFunction,Drillmap*%
%TF.FilePolarity,Positive*%
%FSLAX45Y45*%
G04 Gerber Fmt 4.5, Leading zero omitted, Abs format (unit mm)*
G04 Created by KiCad (PCBNEW 8.0.2) date 2024-06-06 16:49:24*
%MOMM*%
%LPD*%
G01*
G04 APERTURE LIST*
%ADD10C,0.100000*%
%ADD11C,0.120000*%
%ADD12C,0.200000*%
G04 APERTURE END LIST*
D10*
X9357842Y-5852160D02*
G75*
G02*
X9256240Y-5750560I-2J101600D01*
G01*
X11582758Y-5752158D02*
G75*
G02*
X11481000Y-5852173I-101758J1758D01*
G01*
X9258242Y-2818842D02*
X9256242Y-5750560D01*
X11480800Y-2717800D02*
X9359842Y-2717242D01*
X10556000Y-5852200D02*
X11481000Y-5852173D01*
X9398000Y-5852200D02*
X9357842Y-5852160D01*
X9258242Y-2818842D02*
G75*
G02*
X9359842Y-2717242I101598J2D01*
G01*
X11480800Y-2717800D02*
G75*
G02*
X11582400Y-2819400I0J-101600D01*
G01*
X11582758Y-5752158D02*
X11582400Y-2819400D01*
D11*
X9686000Y-5752200D02*
X9686000Y-5852200D01*
X9686000Y-5852200D02*
X9398000Y-5852200D01*
X10086000Y-5712200D02*
X9726000Y-5712200D01*
X10126000Y-5752200D02*
X10126000Y-5852200D01*
X10126000Y-5852200D02*
X10556000Y-5852200D01*
X9686000Y-5752200D02*
G75*
G02*
X9726000Y-5712200I40000J0D01*
G01*
X10086000Y-5712200D02*
G75*
G02*
X10126000Y-5752200I0J-40000D01*
G01*
D12*
D10*
X10399000Y-3849000D02*
X10429000Y-3879000D01*
X10429000Y-3849000D02*
X10399000Y-3879000D01*
X10399000Y-3949000D02*
X10429000Y-3979000D01*
X10429000Y-3949000D02*
X10399000Y-3979000D01*
X10399000Y-4049000D02*
X10429000Y-4079000D01*
X10429000Y-4049000D02*
X10399000Y-4079000D01*
X10499000Y-3849000D02*
X10529000Y-3879000D01*
X10529000Y-3849000D02*
X10499000Y-3879000D01*
X10499000Y-3949000D02*
X10529000Y-3979000D01*
X10529000Y-3949000D02*
X10499000Y-3979000D01*
X10499000Y-4049000D02*
X10529000Y-4079000D01*
X10529000Y-4049000D02*
X10499000Y-4079000D01*
X10599000Y-3849000D02*
X10629000Y-3879000D01*
X10629000Y-3849000D02*
X10599000Y-3879000D01*
X10599000Y-3949000D02*
X10629000Y-3979000D01*
X10629000Y-3949000D02*
X10599000Y-3979000D01*
X10599000Y-4049000D02*
X10629000Y-4079000D01*
X10629000Y-4049000D02*
X10599000Y-4079000D01*
X9341800Y-3962400D02*
G75*
G02*
X9301800Y-3962400I-20000J0D01*
G01*
X9301800Y-3962400D02*
G75*
G02*
X9341800Y-3962400I20000J0D01*
G01*
X9367200Y-5146040D02*
G75*
G02*
X9327200Y-5146040I-20000J0D01*
G01*
X9327200Y-5146040D02*
G75*
G02*
X9367200Y-5146040I20000J0D01*
G01*
X9370314Y-2790372D02*
G75*
G02*
X9330314Y-2790372I-20000J0D01*
G01*
X9330314Y-2790372D02*
G75*
G02*
X9370314Y-2790372I20000J0D01*
G01*
X9395140Y-5803900D02*
G75*
G02*
X9355140Y-5803900I-20000J0D01*
G01*
X9355140Y-5803900D02*
G75*
G02*
X9395140Y-5803900I20000J0D01*
G01*
X9408693Y-3573540D02*
G75*
G02*
X9368693Y-3573540I-20000J0D01*
G01*
X9368693Y-3573540D02*
G75*
G02*
X9408693Y-3573540I20000J0D01*
G01*
X9418000Y-4368800D02*
G75*
G02*
X9378000Y-4368800I-20000J0D01*
G01*
X9378000Y-4368800D02*
G75*
G02*
X9418000Y-4368800I20000J0D01*
G01*
X9504360Y-3136000D02*
G75*
G02*
X9464360Y-3136000I-20000J0D01*
G01*
X9464360Y-3136000D02*
G75*
G02*
X9504360Y-3136000I20000J0D01*
G01*
X9643517Y-3324710D02*
G75*
G02*
X9603517Y-3324710I-20000J0D01*
G01*
X9603517Y-3324710D02*
G75*
G02*
X9643517Y-3324710I20000J0D01*
G01*
X9744279Y-3085954D02*
G75*
G02*
X9704279Y-3085954I-20000J0D01*
G01*
X9704279Y-3085954D02*
G75*
G02*
X9744279Y-3085954I20000J0D01*
G01*
X9762582Y-3426693D02*
G75*
G02*
X9722582Y-3426693I-20000J0D01*
G01*
X9722582Y-3426693D02*
G75*
G02*
X9762582Y-3426693I20000J0D01*
G01*
X9845385Y-4771450D02*
G75*
G02*
X9805385Y-4771450I-20000J0D01*
G01*
X9805385Y-4771450D02*
G75*
G02*
X9845385Y-4771450I20000J0D01*
G01*
X10013095Y-3707665D02*
G75*
G02*
X9973095Y-3707665I-20000J0D01*
G01*
X9973095Y-3707665D02*
G75*
G02*
X10013095Y-3707665I20000J0D01*
G01*
X10098991Y-3793561D02*
G75*
G02*
X10058991Y-3793561I-20000J0D01*
G01*
X10058991Y-3793561D02*
G75*
G02*
X10098991Y-3793561I20000J0D01*
G01*
X10104820Y-3528342D02*
G75*
G02*
X10064820Y-3528342I-20000J0D01*
G01*
X10064820Y-3528342D02*
G75*
G02*
X10104820Y-3528342I20000J0D01*
G01*
X10189323Y-3437677D02*
G75*
G02*
X10149323Y-3437677I-20000J0D01*
G01*
X10149323Y-3437677D02*
G75*
G02*
X10189323Y-3437677I20000J0D01*
G01*
X10300650Y-4514850D02*
G75*
G02*
X10260650Y-4514850I-20000J0D01*
G01*
X10260650Y-4514850D02*
G75*
G02*
X10300650Y-4514850I20000J0D01*
G01*
X10358364Y-3617957D02*
G75*
G02*
X10318364Y-3617957I-20000J0D01*
G01*
X10318364Y-3617957D02*
G75*
G02*
X10358364Y-3617957I20000J0D01*
G01*
X10383200Y-3168560D02*
G75*
G02*
X10343200Y-3168560I-20000J0D01*
G01*
X10343200Y-3168560D02*
G75*
G02*
X10383200Y-3168560I20000J0D01*
G01*
X10443364Y-3436694D02*
G75*
G02*
X10403364Y-3436694I-20000J0D01*
G01*
X10403364Y-3436694D02*
G75*
G02*
X10443364Y-3436694I20000J0D01*
G01*
X10446700Y-4521200D02*
G75*
G02*
X10406700Y-4521200I-20000J0D01*
G01*
X10406700Y-4521200D02*
G75*
G02*
X10446700Y-4521200I20000J0D01*
G01*
X10472100Y-5151120D02*
G75*
G02*
X10432100Y-5151120I-20000J0D01*
G01*
X10432100Y-5151120D02*
G75*
G02*
X10472100Y-5151120I20000J0D01*
G01*
X10553607Y-4692467D02*
G75*
G02*
X10513607Y-4692467I-20000J0D01*
G01*
X10513607Y-4692467D02*
G75*
G02*
X10553607Y-4692467I20000J0D01*
G01*
X10590886Y-4525436D02*
G75*
G02*
X10550886Y-4525436I-20000J0D01*
G01*
X10550886Y-4525436D02*
G75*
G02*
X10590886Y-4525436I20000J0D01*
G01*
X10591480Y-5758180D02*
G75*
G02*
X10551480Y-5758180I-20000J0D01*
G01*
X10551480Y-5758180D02*
G75*
G02*
X10591480Y-5758180I20000J0D01*
G01*
X10744660Y-3587230D02*
G75*
G02*
X10704660Y-3587230I-20000J0D01*
G01*
X10704660Y-3587230D02*
G75*
G02*
X10744660Y-3587230I20000J0D01*
G01*
X10930405Y-3936755D02*
G75*
G02*
X10890405Y-3936755I-20000J0D01*
G01*
X10890405Y-3936755D02*
G75*
G02*
X10930405Y-3936755I20000J0D01*
G01*
X11050271Y-4107373D02*
G75*
G02*
X11010271Y-4107373I-20000J0D01*
G01*
X11010271Y-4107373D02*
G75*
G02*
X11050271Y-4107373I20000J0D01*
G01*
X11066460Y-5433060D02*
G75*
G02*
X11026460Y-5433060I-20000J0D01*
G01*
X11026460Y-5433060D02*
G75*
G02*
X11066460Y-5433060I20000J0D01*
G01*
X11132500Y-4257850D02*
G75*
G02*
X11092500Y-4257850I-20000J0D01*
G01*
X11092500Y-4257850D02*
G75*
G02*
X11132500Y-4257850I20000J0D01*
G01*
X11242152Y-3644082D02*
G75*
G02*
X11202152Y-3644082I-20000J0D01*
G01*
X11202152Y-3644082D02*
G75*
G02*
X11242152Y-3644082I20000J0D01*
G01*
X11309440Y-3746373D02*
G75*
G02*
X11269440Y-3746373I-20000J0D01*
G01*
X11269440Y-3746373D02*
G75*
G02*
X11309440Y-3746373I20000J0D01*
G01*
X11317920Y-3530583D02*
G75*
G02*
X11277920Y-3530583I-20000J0D01*
G01*
X11277920Y-3530583D02*
G75*
G02*
X11317920Y-3530583I20000J0D01*
G01*
X11414440Y-3870960D02*
G75*
G02*
X11374440Y-3870960I-20000J0D01*
G01*
X11374440Y-3870960D02*
G75*
G02*
X11414440Y-3870960I20000J0D01*
G01*
X11483020Y-4445000D02*
G75*
G02*
X11443020Y-4445000I-20000J0D01*
G01*
X11443020Y-4445000D02*
G75*
G02*
X11483020Y-4445000I20000J0D01*
G01*
X11485560Y-5316220D02*
G75*
G02*
X11445560Y-5316220I-20000J0D01*
G01*
X11445560Y-5316220D02*
G75*
G02*
X11485560Y-5316220I20000J0D01*
G01*
X11485560Y-5758180D02*
G75*
G02*
X11445560Y-5758180I-20000J0D01*
G01*
X11445560Y-5758180D02*
G75*
G02*
X11485560Y-5758180I20000J0D01*
G01*
X11488888Y-3058160D02*
G75*
G02*
X11448888Y-3058160I-20000J0D01*
G01*
X11448888Y-3058160D02*
G75*
G02*
X11488888Y-3058160I20000J0D01*
G01*
X11528740Y-4889500D02*
G75*
G02*
X11488740Y-4889500I-20000J0D01*
G01*
X11488740Y-4889500D02*
G75*
G02*
X11528740Y-4889500I20000J0D01*
G01*
X11530490Y-3749830D02*
G75*
G02*
X11490490Y-3749830I-20000J0D01*
G01*
X11490490Y-3749830D02*
G75*
G02*
X11530490Y-3749830I20000J0D01*
G01*
X9406000Y-4882200D02*
X9406000Y-4922200D01*
X9386000Y-4902200D02*
X9426000Y-4902200D01*
X9386000Y-4852200D02*
X9386000Y-4952200D01*
X9426000Y-4952200D02*
G75*
G02*
X9386000Y-4952200I-20000J0D01*
G01*
X9426000Y-4952200D02*
X9426000Y-4852200D01*
X9426000Y-4852200D02*
G75*
G03*
X9386000Y-4852200I-20000J0D01*
G01*
X9656000Y-4882200D02*
X9656000Y-4922200D01*
X9636000Y-4902200D02*
X9676000Y-4902200D01*
X9636000Y-4852200D02*
X9636000Y-4952200D01*
X9676000Y-4952200D02*
G75*
G02*
X9636000Y-4952200I-20000J0D01*
G01*
X9676000Y-4952200D02*
X9676000Y-4852200D01*
X9676000Y-4852200D02*
G75*
G03*
X9636000Y-4852200I-20000J0D01*
G01*
X9906000Y-5382200D02*
X9906000Y-5422200D01*
X9886000Y-5402200D02*
X9926000Y-5402200D01*
X9856000Y-5422200D02*
X9956000Y-5422200D01*
X9956000Y-5382200D02*
G75*
G02*
X9956000Y-5422200I0J-20000D01*
G01*
X9956000Y-5382200D02*
X9856000Y-5382200D01*
X9856000Y-5382200D02*
G75*
G03*
X9856000Y-5422200I0J-20000D01*
G01*
X10156000Y-4882200D02*
X10156000Y-4922200D01*
X10136000Y-4902200D02*
X10176000Y-4902200D01*
X10176000Y-4952200D02*
X10176000Y-4852200D01*
X10136000Y-4852200D02*
G75*
G02*
X10176000Y-4852200I20000J0D01*
G01*
X10136000Y-4852200D02*
X10136000Y-4952200D01*
X10136000Y-4952200D02*
G75*
G03*
X10176000Y-4952200I20000J0D01*
G01*
X10406000Y-4882200D02*
X10406000Y-4922200D01*
X10386000Y-4902200D02*
X10426000Y-4902200D01*
X10426000Y-4952200D02*
X10426000Y-4852200D01*
X10386000Y-4852200D02*
G75*
G02*
X10426000Y-4852200I20000J0D01*
G01*
X10386000Y-4852200D02*
X10386000Y-4952200D01*
X10386000Y-4952200D02*
G75*
G03*
X10426000Y-4952200I20000J0D01*
G01*
X10944981Y-5166481D02*
X10944981Y-5120519D01*
X10899019Y-5120519D01*
X10899019Y-5166481D01*
X10944981Y-5166481D01*
X11198981Y-5166481D02*
X11198981Y-5120519D01*
X11153019Y-5120519D01*
X11153019Y-5166481D01*
X11198981Y-5166481D01*
X9474200Y-2971000D02*
X9524200Y-2921000D01*
X9474200Y-2871000D01*
X9424200Y-2921000D01*
X9474200Y-2971000D01*
X9728200Y-2971000D02*
X9778200Y-2921000D01*
X9728200Y-2871000D01*
X9678200Y-2921000D01*
X9728200Y-2971000D01*
X9789160Y-3987000D02*
X9839160Y-3937000D01*
X9789160Y-3887000D01*
X9739160Y-3937000D01*
X9789160Y-3987000D01*
X9789160Y-4241000D02*
X9839160Y-4191000D01*
X9789160Y-4141000D01*
X9739160Y-4191000D01*
X9789160Y-4241000D01*
X9982200Y-2971000D02*
X10032200Y-2921000D01*
X9982200Y-2871000D01*
X9932200Y-2921000D01*
X9982200Y-2971000D01*
X9994900Y-3339300D02*
X10044900Y-3289300D01*
X9994900Y-3239300D01*
X9944900Y-3289300D01*
X9994900Y-3339300D01*
X10236200Y-2971000D02*
X10286200Y-2921000D01*
X10236200Y-2871000D01*
X10186200Y-2921000D01*
X10236200Y-2971000D01*
X10248900Y-3339300D02*
X10298900Y-3289300D01*
X10248900Y-3239300D01*
X10198900Y-3289300D01*
X10248900Y-3339300D01*
X10490200Y-2971000D02*
X10540200Y-2921000D01*
X10490200Y-2871000D01*
X10440200Y-2921000D01*
X10490200Y-2971000D01*
X10502900Y-3339300D02*
X10552900Y-3289300D01*
X10502900Y-3239300D01*
X10452900Y-3289300D01*
X10502900Y-3339300D01*
X10744200Y-2971000D02*
X10794200Y-2921000D01*
X10744200Y-2871000D01*
X10694200Y-2921000D01*
X10744200Y-2971000D01*
X10756900Y-3339300D02*
X10806900Y-3289300D01*
X10756900Y-3239300D01*
X10706900Y-3289300D01*
X10756900Y-3339300D01*
X10883900Y-4685500D02*
X10933900Y-4635500D01*
X10883900Y-4585500D01*
X10833900Y-4635500D01*
X10883900Y-4685500D01*
X11010900Y-3339300D02*
X11060900Y-3289300D01*
X11010900Y-3239300D01*
X10960900Y-3289300D01*
X11010900Y-3339300D01*
X11137900Y-4685500D02*
X11187900Y-4635500D01*
X11137900Y-4585500D01*
X11087900Y-4635500D01*
X11137900Y-4685500D01*
X11264900Y-3339300D02*
X11314900Y-3289300D01*
X11264900Y-3239300D01*
X11214900Y-3289300D01*
X11264900Y-3339300D01*
X11391900Y-4685500D02*
X11441900Y-4635500D01*
X11391900Y-4585500D01*
X11341900Y-4635500D01*
X11391900Y-4685500D01*
D12*
X9512019Y-6169684D02*
X9512019Y-5969684D01*
X9512019Y-5969684D02*
X9559638Y-5969684D01*
X9559638Y-5969684D02*
X9588209Y-5979208D01*
X9588209Y-5979208D02*
X9607257Y-5998255D01*
X9607257Y-5998255D02*
X9616781Y-6017303D01*
X9616781Y-6017303D02*
X9626305Y-6055398D01*
X9626305Y-6055398D02*
X9626305Y-6083969D01*
X9626305Y-6083969D02*
X9616781Y-6122065D01*
X9616781Y-6122065D02*
X9607257Y-6141112D01*
X9607257Y-6141112D02*
X9588209Y-6160160D01*
X9588209Y-6160160D02*
X9559638Y-6169684D01*
X9559638Y-6169684D02*
X9512019Y-6169684D01*
X9712019Y-6169684D02*
X9712019Y-6036350D01*
X9712019Y-6074446D02*
X9721543Y-6055398D01*
X9721543Y-6055398D02*
X9731066Y-6045874D01*
X9731066Y-6045874D02*
X9750114Y-6036350D01*
X9750114Y-6036350D02*
X9769162Y-6036350D01*
X9835828Y-6169684D02*
X9835828Y-6036350D01*
X9835828Y-5969684D02*
X9826305Y-5979208D01*
X9826305Y-5979208D02*
X9835828Y-5988731D01*
X9835828Y-5988731D02*
X9845352Y-5979208D01*
X9845352Y-5979208D02*
X9835828Y-5969684D01*
X9835828Y-5969684D02*
X9835828Y-5988731D01*
X9959638Y-6169684D02*
X9940590Y-6160160D01*
X9940590Y-6160160D02*
X9931066Y-6141112D01*
X9931066Y-6141112D02*
X9931066Y-5969684D01*
X10064400Y-6169684D02*
X10045352Y-6160160D01*
X10045352Y-6160160D02*
X10035828Y-6141112D01*
X10035828Y-6141112D02*
X10035828Y-5969684D01*
X10292971Y-6169684D02*
X10292971Y-5969684D01*
X10292971Y-5969684D02*
X10359638Y-6112541D01*
X10359638Y-6112541D02*
X10426305Y-5969684D01*
X10426305Y-5969684D02*
X10426305Y-6169684D01*
X10607257Y-6169684D02*
X10607257Y-6064922D01*
X10607257Y-6064922D02*
X10597733Y-6045874D01*
X10597733Y-6045874D02*
X10578686Y-6036350D01*
X10578686Y-6036350D02*
X10540590Y-6036350D01*
X10540590Y-6036350D02*
X10521543Y-6045874D01*
X10607257Y-6160160D02*
X10588209Y-6169684D01*
X10588209Y-6169684D02*
X10540590Y-6169684D01*
X10540590Y-6169684D02*
X10521543Y-6160160D01*
X10521543Y-6160160D02*
X10512019Y-6141112D01*
X10512019Y-6141112D02*
X10512019Y-6122065D01*
X10512019Y-6122065D02*
X10521543Y-6103017D01*
X10521543Y-6103017D02*
X10540590Y-6093493D01*
X10540590Y-6093493D02*
X10588209Y-6093493D01*
X10588209Y-6093493D02*
X10607257Y-6083969D01*
X10702495Y-6036350D02*
X10702495Y-6236350D01*
X10702495Y-6045874D02*
X10721543Y-6036350D01*
X10721543Y-6036350D02*
X10759638Y-6036350D01*
X10759638Y-6036350D02*
X10778686Y-6045874D01*
X10778686Y-6045874D02*
X10788209Y-6055398D01*
X10788209Y-6055398D02*
X10797733Y-6074446D01*
X10797733Y-6074446D02*
X10797733Y-6131588D01*
X10797733Y-6131588D02*
X10788209Y-6150636D01*
X10788209Y-6150636D02*
X10778686Y-6160160D01*
X10778686Y-6160160D02*
X10759638Y-6169684D01*
X10759638Y-6169684D02*
X10721543Y-6169684D01*
X10721543Y-6169684D02*
X10702495Y-6160160D01*
X10883447Y-6150636D02*
X10892971Y-6160160D01*
X10892971Y-6160160D02*
X10883447Y-6169684D01*
X10883447Y-6169684D02*
X10873924Y-6160160D01*
X10873924Y-6160160D02*
X10883447Y-6150636D01*
X10883447Y-6150636D02*
X10883447Y-6169684D01*
X10883447Y-6045874D02*
X10892971Y-6055398D01*
X10892971Y-6055398D02*
X10883447Y-6064922D01*
X10883447Y-6064922D02*
X10873924Y-6055398D01*
X10873924Y-6055398D02*
X10883447Y-6045874D01*
X10883447Y-6045874D02*
X10883447Y-6064922D01*
D10*
X9221242Y-6483200D02*
X9251242Y-6513200D01*
X9251242Y-6483200D02*
X9221242Y-6513200D01*
D12*
X9550114Y-6389684D02*
X9569162Y-6389684D01*
X9569162Y-6389684D02*
X9588209Y-6399208D01*
X9588209Y-6399208D02*
X9597733Y-6408731D01*
X9597733Y-6408731D02*
X9607257Y-6427779D01*
X9607257Y-6427779D02*
X9616781Y-6465874D01*
X9616781Y-6465874D02*
X9616781Y-6513493D01*
X9616781Y-6513493D02*
X9607257Y-6551588D01*
X9607257Y-6551588D02*
X9597733Y-6570636D01*
X9597733Y-6570636D02*
X9588209Y-6580160D01*
X9588209Y-6580160D02*
X9569162Y-6589684D01*
X9569162Y-6589684D02*
X9550114Y-6589684D01*
X9550114Y-6589684D02*
X9531066Y-6580160D01*
X9531066Y-6580160D02*
X9521543Y-6570636D01*
X9521543Y-6570636D02*
X9512019Y-6551588D01*
X9512019Y-6551588D02*
X9502495Y-6513493D01*
X9502495Y-6513493D02*
X9502495Y-6465874D01*
X9502495Y-6465874D02*
X9512019Y-6427779D01*
X9512019Y-6427779D02*
X9521543Y-6408731D01*
X9521543Y-6408731D02*
X9531066Y-6399208D01*
X9531066Y-6399208D02*
X9550114Y-6389684D01*
X9702495Y-6570636D02*
X9712019Y-6580160D01*
X9712019Y-6580160D02*
X9702495Y-6589684D01*
X9702495Y-6589684D02*
X9692971Y-6580160D01*
X9692971Y-6580160D02*
X9702495Y-6570636D01*
X9702495Y-6570636D02*
X9702495Y-6589684D01*
X9778686Y-6389684D02*
X9902495Y-6389684D01*
X9902495Y-6389684D02*
X9835828Y-6465874D01*
X9835828Y-6465874D02*
X9864400Y-6465874D01*
X9864400Y-6465874D02*
X9883447Y-6475398D01*
X9883447Y-6475398D02*
X9892971Y-6484922D01*
X9892971Y-6484922D02*
X9902495Y-6503969D01*
X9902495Y-6503969D02*
X9902495Y-6551588D01*
X9902495Y-6551588D02*
X9892971Y-6570636D01*
X9892971Y-6570636D02*
X9883447Y-6580160D01*
X9883447Y-6580160D02*
X9864400Y-6589684D01*
X9864400Y-6589684D02*
X9807257Y-6589684D01*
X9807257Y-6589684D02*
X9788209Y-6580160D01*
X9788209Y-6580160D02*
X9778686Y-6570636D01*
X10026305Y-6389684D02*
X10045352Y-6389684D01*
X10045352Y-6389684D02*
X10064400Y-6399208D01*
X10064400Y-6399208D02*
X10073924Y-6408731D01*
X10073924Y-6408731D02*
X10083447Y-6427779D01*
X10083447Y-6427779D02*
X10092971Y-6465874D01*
X10092971Y-6465874D02*
X10092971Y-6513493D01*
X10092971Y-6513493D02*
X10083447Y-6551588D01*
X10083447Y-6551588D02*
X10073924Y-6570636D01*
X10073924Y-6570636D02*
X10064400Y-6580160D01*
X10064400Y-6580160D02*
X10045352Y-6589684D01*
X10045352Y-6589684D02*
X10026305Y-6589684D01*
X10026305Y-6589684D02*
X10007257Y-6580160D01*
X10007257Y-6580160D02*
X9997733Y-6570636D01*
X9997733Y-6570636D02*
X9988209Y-6551588D01*
X9988209Y-6551588D02*
X9978686Y-6513493D01*
X9978686Y-6513493D02*
X9978686Y-6465874D01*
X9978686Y-6465874D02*
X9988209Y-6427779D01*
X9988209Y-6427779D02*
X9997733Y-6408731D01*
X9997733Y-6408731D02*
X10007257Y-6399208D01*
X10007257Y-6399208D02*
X10026305Y-6389684D01*
X10216781Y-6389684D02*
X10235828Y-6389684D01*
X10235828Y-6389684D02*
X10254876Y-6399208D01*
X10254876Y-6399208D02*
X10264400Y-6408731D01*
X10264400Y-6408731D02*
X10273924Y-6427779D01*
X10273924Y-6427779D02*
X10283447Y-6465874D01*
X10283447Y-6465874D02*
X10283447Y-6513493D01*
X10283447Y-6513493D02*
X10273924Y-6551588D01*
X10273924Y-6551588D02*
X10264400Y-6570636D01*
X10264400Y-6570636D02*
X10254876Y-6580160D01*
X10254876Y-6580160D02*
X10235828Y-6589684D01*
X10235828Y-6589684D02*
X10216781Y-6589684D01*
X10216781Y-6589684D02*
X10197733Y-6580160D01*
X10197733Y-6580160D02*
X10188209Y-6570636D01*
X10188209Y-6570636D02*
X10178686Y-6551588D01*
X10178686Y-6551588D02*
X10169162Y-6513493D01*
X10169162Y-6513493D02*
X10169162Y-6465874D01*
X10169162Y-6465874D02*
X10178686Y-6427779D01*
X10178686Y-6427779D02*
X10188209Y-6408731D01*
X10188209Y-6408731D02*
X10197733Y-6399208D01*
X10197733Y-6399208D02*
X10216781Y-6389684D01*
X10369162Y-6589684D02*
X10369162Y-6456350D01*
X10369162Y-6475398D02*
X10378686Y-6465874D01*
X10378686Y-6465874D02*
X10397733Y-6456350D01*
X10397733Y-6456350D02*
X10426305Y-6456350D01*
X10426305Y-6456350D02*
X10445352Y-6465874D01*
X10445352Y-6465874D02*
X10454876Y-6484922D01*
X10454876Y-6484922D02*
X10454876Y-6589684D01*
X10454876Y-6484922D02*
X10464400Y-6465874D01*
X10464400Y-6465874D02*
X10483447Y-6456350D01*
X10483447Y-6456350D02*
X10512019Y-6456350D01*
X10512019Y-6456350D02*
X10531067Y-6465874D01*
X10531067Y-6465874D02*
X10540590Y-6484922D01*
X10540590Y-6484922D02*
X10540590Y-6589684D01*
X10635828Y-6589684D02*
X10635828Y-6456350D01*
X10635828Y-6475398D02*
X10645352Y-6465874D01*
X10645352Y-6465874D02*
X10664400Y-6456350D01*
X10664400Y-6456350D02*
X10692971Y-6456350D01*
X10692971Y-6456350D02*
X10712019Y-6465874D01*
X10712019Y-6465874D02*
X10721543Y-6484922D01*
X10721543Y-6484922D02*
X10721543Y-6589684D01*
X10721543Y-6484922D02*
X10731067Y-6465874D01*
X10731067Y-6465874D02*
X10750114Y-6456350D01*
X10750114Y-6456350D02*
X10778686Y-6456350D01*
X10778686Y-6456350D02*
X10797733Y-6465874D01*
X10797733Y-6465874D02*
X10807257Y-6484922D01*
X10807257Y-6484922D02*
X10807257Y-6589684D01*
X11197733Y-6380160D02*
X11026305Y-6637303D01*
X11454876Y-6389684D02*
X11473924Y-6389684D01*
X11473924Y-6389684D02*
X11492971Y-6399208D01*
X11492971Y-6399208D02*
X11502495Y-6408731D01*
X11502495Y-6408731D02*
X11512019Y-6427779D01*
X11512019Y-6427779D02*
X11521543Y-6465874D01*
X11521543Y-6465874D02*
X11521543Y-6513493D01*
X11521543Y-6513493D02*
X11512019Y-6551588D01*
X11512019Y-6551588D02*
X11502495Y-6570636D01*
X11502495Y-6570636D02*
X11492971Y-6580160D01*
X11492971Y-6580160D02*
X11473924Y-6589684D01*
X11473924Y-6589684D02*
X11454876Y-6589684D01*
X11454876Y-6589684D02*
X11435828Y-6580160D01*
X11435828Y-6580160D02*
X11426305Y-6570636D01*
X11426305Y-6570636D02*
X11416781Y-6551588D01*
X11416781Y-6551588D02*
X11407257Y-6513493D01*
X11407257Y-6513493D02*
X11407257Y-6465874D01*
X11407257Y-6465874D02*
X11416781Y-6427779D01*
X11416781Y-6427779D02*
X11426305Y-6408731D01*
X11426305Y-6408731D02*
X11435828Y-6399208D01*
X11435828Y-6399208D02*
X11454876Y-6389684D01*
X11607257Y-6570636D02*
X11616781Y-6580160D01*
X11616781Y-6580160D02*
X11607257Y-6589684D01*
X11607257Y-6589684D02*
X11597733Y-6580160D01*
X11597733Y-6580160D02*
X11607257Y-6570636D01*
X11607257Y-6570636D02*
X11607257Y-6589684D01*
X11740590Y-6389684D02*
X11759638Y-6389684D01*
X11759638Y-6389684D02*
X11778686Y-6399208D01*
X11778686Y-6399208D02*
X11788209Y-6408731D01*
X11788209Y-6408731D02*
X11797733Y-6427779D01*
X11797733Y-6427779D02*
X11807257Y-6465874D01*
X11807257Y-6465874D02*
X11807257Y-6513493D01*
X11807257Y-6513493D02*
X11797733Y-6551588D01*
X11797733Y-6551588D02*
X11788209Y-6570636D01*
X11788209Y-6570636D02*
X11778686Y-6580160D01*
X11778686Y-6580160D02*
X11759638Y-6589684D01*
X11759638Y-6589684D02*
X11740590Y-6589684D01*
X11740590Y-6589684D02*
X11721543Y-6580160D01*
X11721543Y-6580160D02*
X11712019Y-6570636D01*
X11712019Y-6570636D02*
X11702495Y-6551588D01*
X11702495Y-6551588D02*
X11692971Y-6513493D01*
X11692971Y-6513493D02*
X11692971Y-6465874D01*
X11692971Y-6465874D02*
X11702495Y-6427779D01*
X11702495Y-6427779D02*
X11712019Y-6408731D01*
X11712019Y-6408731D02*
X11721543Y-6399208D01*
X11721543Y-6399208D02*
X11740590Y-6389684D01*
X11997733Y-6589684D02*
X11883448Y-6589684D01*
X11940590Y-6589684D02*
X11940590Y-6389684D01*
X11940590Y-6389684D02*
X11921543Y-6418255D01*
X11921543Y-6418255D02*
X11902495Y-6437303D01*
X11902495Y-6437303D02*
X11883448Y-6446827D01*
X12188209Y-6589684D02*
X12073924Y-6589684D01*
X12131067Y-6589684D02*
X12131067Y-6389684D01*
X12131067Y-6389684D02*
X12112019Y-6418255D01*
X12112019Y-6418255D02*
X12092971Y-6437303D01*
X12092971Y-6437303D02*
X12073924Y-6446827D01*
X12302495Y-6475398D02*
X12283448Y-6465874D01*
X12283448Y-6465874D02*
X12273924Y-6456350D01*
X12273924Y-6456350D02*
X12264400Y-6437303D01*
X12264400Y-6437303D02*
X12264400Y-6427779D01*
X12264400Y-6427779D02*
X12273924Y-6408731D01*
X12273924Y-6408731D02*
X12283448Y-6399208D01*
X12283448Y-6399208D02*
X12302495Y-6389684D01*
X12302495Y-6389684D02*
X12340590Y-6389684D01*
X12340590Y-6389684D02*
X12359638Y-6399208D01*
X12359638Y-6399208D02*
X12369162Y-6408731D01*
X12369162Y-6408731D02*
X12378686Y-6427779D01*
X12378686Y-6427779D02*
X12378686Y-6437303D01*
X12378686Y-6437303D02*
X12369162Y-6456350D01*
X12369162Y-6456350D02*
X12359638Y-6465874D01*
X12359638Y-6465874D02*
X12340590Y-6475398D01*
X12340590Y-6475398D02*
X12302495Y-6475398D01*
X12302495Y-6475398D02*
X12283448Y-6484922D01*
X12283448Y-6484922D02*
X12273924Y-6494446D01*
X12273924Y-6494446D02*
X12264400Y-6513493D01*
X12264400Y-6513493D02*
X12264400Y-6551588D01*
X12264400Y-6551588D02*
X12273924Y-6570636D01*
X12273924Y-6570636D02*
X12283448Y-6580160D01*
X12283448Y-6580160D02*
X12302495Y-6589684D01*
X12302495Y-6589684D02*
X12340590Y-6589684D01*
X12340590Y-6589684D02*
X12359638Y-6580160D01*
X12359638Y-6580160D02*
X12369162Y-6570636D01*
X12369162Y-6570636D02*
X12378686Y-6551588D01*
X12378686Y-6551588D02*
X12378686Y-6513493D01*
X12378686Y-6513493D02*
X12369162Y-6494446D01*
X12369162Y-6494446D02*
X12359638Y-6484922D01*
X12359638Y-6484922D02*
X12340590Y-6475398D01*
X12454876Y-6389684D02*
X12454876Y-6427779D01*
X12531067Y-6389684D02*
X12531067Y-6427779D01*
X12826305Y-6665874D02*
X12816781Y-6656350D01*
X12816781Y-6656350D02*
X12797733Y-6627779D01*
X12797733Y-6627779D02*
X12788210Y-6608731D01*
X12788210Y-6608731D02*
X12778686Y-6580160D01*
X12778686Y-6580160D02*
X12769162Y-6532541D01*
X12769162Y-6532541D02*
X12769162Y-6494446D01*
X12769162Y-6494446D02*
X12778686Y-6446827D01*
X12778686Y-6446827D02*
X12788210Y-6418255D01*
X12788210Y-6418255D02*
X12797733Y-6399208D01*
X12797733Y-6399208D02*
X12816781Y-6370636D01*
X12816781Y-6370636D02*
X12826305Y-6361112D01*
X12912019Y-6589684D02*
X12950114Y-6589684D01*
X12950114Y-6589684D02*
X12969162Y-6580160D01*
X12969162Y-6580160D02*
X12978686Y-6570636D01*
X12978686Y-6570636D02*
X12997733Y-6542065D01*
X12997733Y-6542065D02*
X13007257Y-6503969D01*
X13007257Y-6503969D02*
X13007257Y-6427779D01*
X13007257Y-6427779D02*
X12997733Y-6408731D01*
X12997733Y-6408731D02*
X12988210Y-6399208D01*
X12988210Y-6399208D02*
X12969162Y-6389684D01*
X12969162Y-6389684D02*
X12931067Y-6389684D01*
X12931067Y-6389684D02*
X12912019Y-6399208D01*
X12912019Y-6399208D02*
X12902495Y-6408731D01*
X12902495Y-6408731D02*
X12892971Y-6427779D01*
X12892971Y-6427779D02*
X12892971Y-6475398D01*
X12892971Y-6475398D02*
X12902495Y-6494446D01*
X12902495Y-6494446D02*
X12912019Y-6503969D01*
X12912019Y-6503969D02*
X12931067Y-6513493D01*
X12931067Y-6513493D02*
X12969162Y-6513493D01*
X12969162Y-6513493D02*
X12988210Y-6503969D01*
X12988210Y-6503969D02*
X12997733Y-6494446D01*
X12997733Y-6494446D02*
X13007257Y-6475398D01*
X13245352Y-6589684D02*
X13245352Y-6389684D01*
X13331067Y-6589684D02*
X13331067Y-6484922D01*
X13331067Y-6484922D02*
X13321543Y-6465874D01*
X13321543Y-6465874D02*
X13302495Y-6456350D01*
X13302495Y-6456350D02*
X13273924Y-6456350D01*
X13273924Y-6456350D02*
X13254876Y-6465874D01*
X13254876Y-6465874D02*
X13245352Y-6475398D01*
X13454876Y-6589684D02*
X13435829Y-6580160D01*
X13435829Y-6580160D02*
X13426305Y-6570636D01*
X13426305Y-6570636D02*
X13416781Y-6551588D01*
X13416781Y-6551588D02*
X13416781Y-6494446D01*
X13416781Y-6494446D02*
X13426305Y-6475398D01*
X13426305Y-6475398D02*
X13435829Y-6465874D01*
X13435829Y-6465874D02*
X13454876Y-6456350D01*
X13454876Y-6456350D02*
X13483448Y-6456350D01*
X13483448Y-6456350D02*
X13502495Y-6465874D01*
X13502495Y-6465874D02*
X13512019Y-6475398D01*
X13512019Y-6475398D02*
X13521543Y-6494446D01*
X13521543Y-6494446D02*
X13521543Y-6551588D01*
X13521543Y-6551588D02*
X13512019Y-6570636D01*
X13512019Y-6570636D02*
X13502495Y-6580160D01*
X13502495Y-6580160D02*
X13483448Y-6589684D01*
X13483448Y-6589684D02*
X13454876Y-6589684D01*
X13635829Y-6589684D02*
X13616781Y-6580160D01*
X13616781Y-6580160D02*
X13607257Y-6561112D01*
X13607257Y-6561112D02*
X13607257Y-6389684D01*
X13788210Y-6580160D02*
X13769162Y-6589684D01*
X13769162Y-6589684D02*
X13731067Y-6589684D01*
X13731067Y-6589684D02*
X13712019Y-6580160D01*
X13712019Y-6580160D02*
X13702495Y-6561112D01*
X13702495Y-6561112D02*
X13702495Y-6484922D01*
X13702495Y-6484922D02*
X13712019Y-6465874D01*
X13712019Y-6465874D02*
X13731067Y-6456350D01*
X13731067Y-6456350D02*
X13769162Y-6456350D01*
X13769162Y-6456350D02*
X13788210Y-6465874D01*
X13788210Y-6465874D02*
X13797733Y-6484922D01*
X13797733Y-6484922D02*
X13797733Y-6503969D01*
X13797733Y-6503969D02*
X13702495Y-6523017D01*
X13873924Y-6580160D02*
X13892972Y-6589684D01*
X13892972Y-6589684D02*
X13931067Y-6589684D01*
X13931067Y-6589684D02*
X13950114Y-6580160D01*
X13950114Y-6580160D02*
X13959638Y-6561112D01*
X13959638Y-6561112D02*
X13959638Y-6551588D01*
X13959638Y-6551588D02*
X13950114Y-6532541D01*
X13950114Y-6532541D02*
X13931067Y-6523017D01*
X13931067Y-6523017D02*
X13902495Y-6523017D01*
X13902495Y-6523017D02*
X13883448Y-6513493D01*
X13883448Y-6513493D02*
X13873924Y-6494446D01*
X13873924Y-6494446D02*
X13873924Y-6484922D01*
X13873924Y-6484922D02*
X13883448Y-6465874D01*
X13883448Y-6465874D02*
X13902495Y-6456350D01*
X13902495Y-6456350D02*
X13931067Y-6456350D01*
X13931067Y-6456350D02*
X13950114Y-6465874D01*
X14026305Y-6665874D02*
X14035829Y-6656350D01*
X14035829Y-6656350D02*
X14054876Y-6627779D01*
X14054876Y-6627779D02*
X14064400Y-6608731D01*
X14064400Y-6608731D02*
X14073924Y-6580160D01*
X14073924Y-6580160D02*
X14083448Y-6532541D01*
X14083448Y-6532541D02*
X14083448Y-6494446D01*
X14083448Y-6494446D02*
X14073924Y-6446827D01*
X14073924Y-6446827D02*
X14064400Y-6418255D01*
X14064400Y-6418255D02*
X14054876Y-6399208D01*
X14054876Y-6399208D02*
X14035829Y-6370636D01*
X14035829Y-6370636D02*
X14026305Y-6361112D01*
D10*
X9251242Y-6762200D02*
G75*
G02*
X9211242Y-6762200I-20000J0D01*
G01*
X9211242Y-6762200D02*
G75*
G02*
X9251242Y-6762200I20000J0D01*
G01*
D12*
X9550114Y-6653684D02*
X9569162Y-6653684D01*
X9569162Y-6653684D02*
X9588209Y-6663208D01*
X9588209Y-6663208D02*
X9597733Y-6672731D01*
X9597733Y-6672731D02*
X9607257Y-6691779D01*
X9607257Y-6691779D02*
X9616781Y-6729874D01*
X9616781Y-6729874D02*
X9616781Y-6777493D01*
X9616781Y-6777493D02*
X9607257Y-6815588D01*
X9607257Y-6815588D02*
X9597733Y-6834636D01*
X9597733Y-6834636D02*
X9588209Y-6844160D01*
X9588209Y-6844160D02*
X9569162Y-6853684D01*
X9569162Y-6853684D02*
X9550114Y-6853684D01*
X9550114Y-6853684D02*
X9531066Y-6844160D01*
X9531066Y-6844160D02*
X9521543Y-6834636D01*
X9521543Y-6834636D02*
X9512019Y-6815588D01*
X9512019Y-6815588D02*
X9502495Y-6777493D01*
X9502495Y-6777493D02*
X9502495Y-6729874D01*
X9502495Y-6729874D02*
X9512019Y-6691779D01*
X9512019Y-6691779D02*
X9521543Y-6672731D01*
X9521543Y-6672731D02*
X9531066Y-6663208D01*
X9531066Y-6663208D02*
X9550114Y-6653684D01*
X9702495Y-6834636D02*
X9712019Y-6844160D01*
X9712019Y-6844160D02*
X9702495Y-6853684D01*
X9702495Y-6853684D02*
X9692971Y-6844160D01*
X9692971Y-6844160D02*
X9702495Y-6834636D01*
X9702495Y-6834636D02*
X9702495Y-6853684D01*
X9883447Y-6720350D02*
X9883447Y-6853684D01*
X9835828Y-6644160D02*
X9788209Y-6787017D01*
X9788209Y-6787017D02*
X9912019Y-6787017D01*
X10026305Y-6653684D02*
X10045352Y-6653684D01*
X10045352Y-6653684D02*
X10064400Y-6663208D01*
X10064400Y-6663208D02*
X10073924Y-6672731D01*
X10073924Y-6672731D02*
X10083447Y-6691779D01*
X10083447Y-6691779D02*
X10092971Y-6729874D01*
X10092971Y-6729874D02*
X10092971Y-6777493D01*
X10092971Y-6777493D02*
X10083447Y-6815588D01*
X10083447Y-6815588D02*
X10073924Y-6834636D01*
X10073924Y-6834636D02*
X10064400Y-6844160D01*
X10064400Y-6844160D02*
X10045352Y-6853684D01*
X10045352Y-6853684D02*
X10026305Y-6853684D01*
X10026305Y-6853684D02*
X10007257Y-6844160D01*
X10007257Y-6844160D02*
X9997733Y-6834636D01*
X9997733Y-6834636D02*
X9988209Y-6815588D01*
X9988209Y-6815588D02*
X9978686Y-6777493D01*
X9978686Y-6777493D02*
X9978686Y-6729874D01*
X9978686Y-6729874D02*
X9988209Y-6691779D01*
X9988209Y-6691779D02*
X9997733Y-6672731D01*
X9997733Y-6672731D02*
X10007257Y-6663208D01*
X10007257Y-6663208D02*
X10026305Y-6653684D01*
X10216781Y-6653684D02*
X10235828Y-6653684D01*
X10235828Y-6653684D02*
X10254876Y-6663208D01*
X10254876Y-6663208D02*
X10264400Y-6672731D01*
X10264400Y-6672731D02*
X10273924Y-6691779D01*
X10273924Y-6691779D02*
X10283447Y-6729874D01*
X10283447Y-6729874D02*
X10283447Y-6777493D01*
X10283447Y-6777493D02*
X10273924Y-6815588D01*
X10273924Y-6815588D02*
X10264400Y-6834636D01*
X10264400Y-6834636D02*
X10254876Y-6844160D01*
X10254876Y-6844160D02*
X10235828Y-6853684D01*
X10235828Y-6853684D02*
X10216781Y-6853684D01*
X10216781Y-6853684D02*
X10197733Y-6844160D01*
X10197733Y-6844160D02*
X10188209Y-6834636D01*
X10188209Y-6834636D02*
X10178686Y-6815588D01*
X10178686Y-6815588D02*
X10169162Y-6777493D01*
X10169162Y-6777493D02*
X10169162Y-6729874D01*
X10169162Y-6729874D02*
X10178686Y-6691779D01*
X10178686Y-6691779D02*
X10188209Y-6672731D01*
X10188209Y-6672731D02*
X10197733Y-6663208D01*
X10197733Y-6663208D02*
X10216781Y-6653684D01*
X10369162Y-6853684D02*
X10369162Y-6720350D01*
X10369162Y-6739398D02*
X10378686Y-6729874D01*
X10378686Y-6729874D02*
X10397733Y-6720350D01*
X10397733Y-6720350D02*
X10426305Y-6720350D01*
X10426305Y-6720350D02*
X10445352Y-6729874D01*
X10445352Y-6729874D02*
X10454876Y-6748922D01*
X10454876Y-6748922D02*
X10454876Y-6853684D01*
X10454876Y-6748922D02*
X10464400Y-6729874D01*
X10464400Y-6729874D02*
X10483447Y-6720350D01*
X10483447Y-6720350D02*
X10512019Y-6720350D01*
X10512019Y-6720350D02*
X10531067Y-6729874D01*
X10531067Y-6729874D02*
X10540590Y-6748922D01*
X10540590Y-6748922D02*
X10540590Y-6853684D01*
X10635828Y-6853684D02*
X10635828Y-6720350D01*
X10635828Y-6739398D02*
X10645352Y-6729874D01*
X10645352Y-6729874D02*
X10664400Y-6720350D01*
X10664400Y-6720350D02*
X10692971Y-6720350D01*
X10692971Y-6720350D02*
X10712019Y-6729874D01*
X10712019Y-6729874D02*
X10721543Y-6748922D01*
X10721543Y-6748922D02*
X10721543Y-6853684D01*
X10721543Y-6748922D02*
X10731067Y-6729874D01*
X10731067Y-6729874D02*
X10750114Y-6720350D01*
X10750114Y-6720350D02*
X10778686Y-6720350D01*
X10778686Y-6720350D02*
X10797733Y-6729874D01*
X10797733Y-6729874D02*
X10807257Y-6748922D01*
X10807257Y-6748922D02*
X10807257Y-6853684D01*
X11197733Y-6644160D02*
X11026305Y-6901303D01*
X11454876Y-6653684D02*
X11473924Y-6653684D01*
X11473924Y-6653684D02*
X11492971Y-6663208D01*
X11492971Y-6663208D02*
X11502495Y-6672731D01*
X11502495Y-6672731D02*
X11512019Y-6691779D01*
X11512019Y-6691779D02*
X11521543Y-6729874D01*
X11521543Y-6729874D02*
X11521543Y-6777493D01*
X11521543Y-6777493D02*
X11512019Y-6815588D01*
X11512019Y-6815588D02*
X11502495Y-6834636D01*
X11502495Y-6834636D02*
X11492971Y-6844160D01*
X11492971Y-6844160D02*
X11473924Y-6853684D01*
X11473924Y-6853684D02*
X11454876Y-6853684D01*
X11454876Y-6853684D02*
X11435828Y-6844160D01*
X11435828Y-6844160D02*
X11426305Y-6834636D01*
X11426305Y-6834636D02*
X11416781Y-6815588D01*
X11416781Y-6815588D02*
X11407257Y-6777493D01*
X11407257Y-6777493D02*
X11407257Y-6729874D01*
X11407257Y-6729874D02*
X11416781Y-6691779D01*
X11416781Y-6691779D02*
X11426305Y-6672731D01*
X11426305Y-6672731D02*
X11435828Y-6663208D01*
X11435828Y-6663208D02*
X11454876Y-6653684D01*
X11607257Y-6834636D02*
X11616781Y-6844160D01*
X11616781Y-6844160D02*
X11607257Y-6853684D01*
X11607257Y-6853684D02*
X11597733Y-6844160D01*
X11597733Y-6844160D02*
X11607257Y-6834636D01*
X11607257Y-6834636D02*
X11607257Y-6853684D01*
X11740590Y-6653684D02*
X11759638Y-6653684D01*
X11759638Y-6653684D02*
X11778686Y-6663208D01*
X11778686Y-6663208D02*
X11788209Y-6672731D01*
X11788209Y-6672731D02*
X11797733Y-6691779D01*
X11797733Y-6691779D02*
X11807257Y-6729874D01*
X11807257Y-6729874D02*
X11807257Y-6777493D01*
X11807257Y-6777493D02*
X11797733Y-6815588D01*
X11797733Y-6815588D02*
X11788209Y-6834636D01*
X11788209Y-6834636D02*
X11778686Y-6844160D01*
X11778686Y-6844160D02*
X11759638Y-6853684D01*
X11759638Y-6853684D02*
X11740590Y-6853684D01*
X11740590Y-6853684D02*
X11721543Y-6844160D01*
X11721543Y-6844160D02*
X11712019Y-6834636D01*
X11712019Y-6834636D02*
X11702495Y-6815588D01*
X11702495Y-6815588D02*
X11692971Y-6777493D01*
X11692971Y-6777493D02*
X11692971Y-6729874D01*
X11692971Y-6729874D02*
X11702495Y-6691779D01*
X11702495Y-6691779D02*
X11712019Y-6672731D01*
X11712019Y-6672731D02*
X11721543Y-6663208D01*
X11721543Y-6663208D02*
X11740590Y-6653684D01*
X11997733Y-6853684D02*
X11883448Y-6853684D01*
X11940590Y-6853684D02*
X11940590Y-6653684D01*
X11940590Y-6653684D02*
X11921543Y-6682255D01*
X11921543Y-6682255D02*
X11902495Y-6701303D01*
X11902495Y-6701303D02*
X11883448Y-6710827D01*
X12178686Y-6653684D02*
X12083448Y-6653684D01*
X12083448Y-6653684D02*
X12073924Y-6748922D01*
X12073924Y-6748922D02*
X12083448Y-6739398D01*
X12083448Y-6739398D02*
X12102495Y-6729874D01*
X12102495Y-6729874D02*
X12150114Y-6729874D01*
X12150114Y-6729874D02*
X12169162Y-6739398D01*
X12169162Y-6739398D02*
X12178686Y-6748922D01*
X12178686Y-6748922D02*
X12188209Y-6767969D01*
X12188209Y-6767969D02*
X12188209Y-6815588D01*
X12188209Y-6815588D02*
X12178686Y-6834636D01*
X12178686Y-6834636D02*
X12169162Y-6844160D01*
X12169162Y-6844160D02*
X12150114Y-6853684D01*
X12150114Y-6853684D02*
X12102495Y-6853684D01*
X12102495Y-6853684D02*
X12083448Y-6844160D01*
X12083448Y-6844160D02*
X12073924Y-6834636D01*
X12254876Y-6653684D02*
X12388209Y-6653684D01*
X12388209Y-6653684D02*
X12302495Y-6853684D01*
X12454876Y-6653684D02*
X12454876Y-6691779D01*
X12531067Y-6653684D02*
X12531067Y-6691779D01*
X12826305Y-6929874D02*
X12816781Y-6920350D01*
X12816781Y-6920350D02*
X12797733Y-6891779D01*
X12797733Y-6891779D02*
X12788210Y-6872731D01*
X12788210Y-6872731D02*
X12778686Y-6844160D01*
X12778686Y-6844160D02*
X12769162Y-6796541D01*
X12769162Y-6796541D02*
X12769162Y-6758446D01*
X12769162Y-6758446D02*
X12778686Y-6710827D01*
X12778686Y-6710827D02*
X12788210Y-6682255D01*
X12788210Y-6682255D02*
X12797733Y-6663208D01*
X12797733Y-6663208D02*
X12816781Y-6634636D01*
X12816781Y-6634636D02*
X12826305Y-6625112D01*
X12883448Y-6653684D02*
X13007257Y-6653684D01*
X13007257Y-6653684D02*
X12940590Y-6729874D01*
X12940590Y-6729874D02*
X12969162Y-6729874D01*
X12969162Y-6729874D02*
X12988210Y-6739398D01*
X12988210Y-6739398D02*
X12997733Y-6748922D01*
X12997733Y-6748922D02*
X13007257Y-6767969D01*
X13007257Y-6767969D02*
X13007257Y-6815588D01*
X13007257Y-6815588D02*
X12997733Y-6834636D01*
X12997733Y-6834636D02*
X12988210Y-6844160D01*
X12988210Y-6844160D02*
X12969162Y-6853684D01*
X12969162Y-6853684D02*
X12912019Y-6853684D01*
X12912019Y-6853684D02*
X12892971Y-6844160D01*
X12892971Y-6844160D02*
X12883448Y-6834636D01*
X13102495Y-6853684D02*
X13140590Y-6853684D01*
X13140590Y-6853684D02*
X13159638Y-6844160D01*
X13159638Y-6844160D02*
X13169162Y-6834636D01*
X13169162Y-6834636D02*
X13188210Y-6806065D01*
X13188210Y-6806065D02*
X13197733Y-6767969D01*
X13197733Y-6767969D02*
X13197733Y-6691779D01*
X13197733Y-6691779D02*
X13188210Y-6672731D01*
X13188210Y-6672731D02*
X13178686Y-6663208D01*
X13178686Y-6663208D02*
X13159638Y-6653684D01*
X13159638Y-6653684D02*
X13121543Y-6653684D01*
X13121543Y-6653684D02*
X13102495Y-6663208D01*
X13102495Y-6663208D02*
X13092971Y-6672731D01*
X13092971Y-6672731D02*
X13083448Y-6691779D01*
X13083448Y-6691779D02*
X13083448Y-6739398D01*
X13083448Y-6739398D02*
X13092971Y-6758446D01*
X13092971Y-6758446D02*
X13102495Y-6767969D01*
X13102495Y-6767969D02*
X13121543Y-6777493D01*
X13121543Y-6777493D02*
X13159638Y-6777493D01*
X13159638Y-6777493D02*
X13178686Y-6767969D01*
X13178686Y-6767969D02*
X13188210Y-6758446D01*
X13188210Y-6758446D02*
X13197733Y-6739398D01*
X13435829Y-6853684D02*
X13435829Y-6653684D01*
X13521543Y-6853684D02*
X13521543Y-6748922D01*
X13521543Y-6748922D02*
X13512019Y-6729874D01*
X13512019Y-6729874D02*
X13492972Y-6720350D01*
X13492972Y-6720350D02*
X13464400Y-6720350D01*
X13464400Y-6720350D02*
X13445352Y-6729874D01*
X13445352Y-6729874D02*
X13435829Y-6739398D01*
X13645352Y-6853684D02*
X13626305Y-6844160D01*
X13626305Y-6844160D02*
X13616781Y-6834636D01*
X13616781Y-6834636D02*
X13607257Y-6815588D01*
X13607257Y-6815588D02*
X13607257Y-6758446D01*
X13607257Y-6758446D02*
X13616781Y-6739398D01*
X13616781Y-6739398D02*
X13626305Y-6729874D01*
X13626305Y-6729874D02*
X13645352Y-6720350D01*
X13645352Y-6720350D02*
X13673924Y-6720350D01*
X13673924Y-6720350D02*
X13692972Y-6729874D01*
X13692972Y-6729874D02*
X13702495Y-6739398D01*
X13702495Y-6739398D02*
X13712019Y-6758446D01*
X13712019Y-6758446D02*
X13712019Y-6815588D01*
X13712019Y-6815588D02*
X13702495Y-6834636D01*
X13702495Y-6834636D02*
X13692972Y-6844160D01*
X13692972Y-6844160D02*
X13673924Y-6853684D01*
X13673924Y-6853684D02*
X13645352Y-6853684D01*
X13826305Y-6853684D02*
X13807257Y-6844160D01*
X13807257Y-6844160D02*
X13797733Y-6825112D01*
X13797733Y-6825112D02*
X13797733Y-6653684D01*
X13978686Y-6844160D02*
X13959638Y-6853684D01*
X13959638Y-6853684D02*
X13921543Y-6853684D01*
X13921543Y-6853684D02*
X13902495Y-6844160D01*
X13902495Y-6844160D02*
X13892972Y-6825112D01*
X13892972Y-6825112D02*
X13892972Y-6748922D01*
X13892972Y-6748922D02*
X13902495Y-6729874D01*
X13902495Y-6729874D02*
X13921543Y-6720350D01*
X13921543Y-6720350D02*
X13959638Y-6720350D01*
X13959638Y-6720350D02*
X13978686Y-6729874D01*
X13978686Y-6729874D02*
X13988210Y-6748922D01*
X13988210Y-6748922D02*
X13988210Y-6767969D01*
X13988210Y-6767969D02*
X13892972Y-6787017D01*
X14064400Y-6844160D02*
X14083448Y-6853684D01*
X14083448Y-6853684D02*
X14121543Y-6853684D01*
X14121543Y-6853684D02*
X14140591Y-6844160D01*
X14140591Y-6844160D02*
X14150114Y-6825112D01*
X14150114Y-6825112D02*
X14150114Y-6815588D01*
X14150114Y-6815588D02*
X14140591Y-6796541D01*
X14140591Y-6796541D02*
X14121543Y-6787017D01*
X14121543Y-6787017D02*
X14092972Y-6787017D01*
X14092972Y-6787017D02*
X14073924Y-6777493D01*
X14073924Y-6777493D02*
X14064400Y-6758446D01*
X14064400Y-6758446D02*
X14064400Y-6748922D01*
X14064400Y-6748922D02*
X14073924Y-6729874D01*
X14073924Y-6729874D02*
X14092972Y-6720350D01*
X14092972Y-6720350D02*
X14121543Y-6720350D01*
X14121543Y-6720350D02*
X14140591Y-6729874D01*
X14216781Y-6929874D02*
X14226305Y-6920350D01*
X14226305Y-6920350D02*
X14245353Y-6891779D01*
X14245353Y-6891779D02*
X14254876Y-6872731D01*
X14254876Y-6872731D02*
X14264400Y-6844160D01*
X14264400Y-6844160D02*
X14273924Y-6796541D01*
X14273924Y-6796541D02*
X14273924Y-6758446D01*
X14273924Y-6758446D02*
X14264400Y-6710827D01*
X14264400Y-6710827D02*
X14254876Y-6682255D01*
X14254876Y-6682255D02*
X14245353Y-6663208D01*
X14245353Y-6663208D02*
X14226305Y-6634636D01*
X14226305Y-6634636D02*
X14216781Y-6625112D01*
D10*
X9231242Y-7006200D02*
X9231242Y-7046200D01*
X9211242Y-7026200D02*
X9251242Y-7026200D01*
D12*
X9550114Y-6917684D02*
X9569162Y-6917684D01*
X9569162Y-6917684D02*
X9588209Y-6927208D01*
X9588209Y-6927208D02*
X9597733Y-6936731D01*
X9597733Y-6936731D02*
X9607257Y-6955779D01*
X9607257Y-6955779D02*
X9616781Y-6993874D01*
X9616781Y-6993874D02*
X9616781Y-7041493D01*
X9616781Y-7041493D02*
X9607257Y-7079588D01*
X9607257Y-7079588D02*
X9597733Y-7098636D01*
X9597733Y-7098636D02*
X9588209Y-7108160D01*
X9588209Y-7108160D02*
X9569162Y-7117684D01*
X9569162Y-7117684D02*
X9550114Y-7117684D01*
X9550114Y-7117684D02*
X9531066Y-7108160D01*
X9531066Y-7108160D02*
X9521543Y-7098636D01*
X9521543Y-7098636D02*
X9512019Y-7079588D01*
X9512019Y-7079588D02*
X9502495Y-7041493D01*
X9502495Y-7041493D02*
X9502495Y-6993874D01*
X9502495Y-6993874D02*
X9512019Y-6955779D01*
X9512019Y-6955779D02*
X9521543Y-6936731D01*
X9521543Y-6936731D02*
X9531066Y-6927208D01*
X9531066Y-6927208D02*
X9550114Y-6917684D01*
X9702495Y-7098636D02*
X9712019Y-7108160D01*
X9712019Y-7108160D02*
X9702495Y-7117684D01*
X9702495Y-7117684D02*
X9692971Y-7108160D01*
X9692971Y-7108160D02*
X9702495Y-7098636D01*
X9702495Y-7098636D02*
X9702495Y-7117684D01*
X9883447Y-6984350D02*
X9883447Y-7117684D01*
X9835828Y-6908160D02*
X9788209Y-7051017D01*
X9788209Y-7051017D02*
X9912019Y-7051017D01*
X10026305Y-6917684D02*
X10045352Y-6917684D01*
X10045352Y-6917684D02*
X10064400Y-6927208D01*
X10064400Y-6927208D02*
X10073924Y-6936731D01*
X10073924Y-6936731D02*
X10083447Y-6955779D01*
X10083447Y-6955779D02*
X10092971Y-6993874D01*
X10092971Y-6993874D02*
X10092971Y-7041493D01*
X10092971Y-7041493D02*
X10083447Y-7079588D01*
X10083447Y-7079588D02*
X10073924Y-7098636D01*
X10073924Y-7098636D02*
X10064400Y-7108160D01*
X10064400Y-7108160D02*
X10045352Y-7117684D01*
X10045352Y-7117684D02*
X10026305Y-7117684D01*
X10026305Y-7117684D02*
X10007257Y-7108160D01*
X10007257Y-7108160D02*
X9997733Y-7098636D01*
X9997733Y-7098636D02*
X9988209Y-7079588D01*
X9988209Y-7079588D02*
X9978686Y-7041493D01*
X9978686Y-7041493D02*
X9978686Y-6993874D01*
X9978686Y-6993874D02*
X9988209Y-6955779D01*
X9988209Y-6955779D02*
X9997733Y-6936731D01*
X9997733Y-6936731D02*
X10007257Y-6927208D01*
X10007257Y-6927208D02*
X10026305Y-6917684D01*
X10216781Y-6917684D02*
X10235828Y-6917684D01*
X10235828Y-6917684D02*
X10254876Y-6927208D01*
X10254876Y-6927208D02*
X10264400Y-6936731D01*
X10264400Y-6936731D02*
X10273924Y-6955779D01*
X10273924Y-6955779D02*
X10283447Y-6993874D01*
X10283447Y-6993874D02*
X10283447Y-7041493D01*
X10283447Y-7041493D02*
X10273924Y-7079588D01*
X10273924Y-7079588D02*
X10264400Y-7098636D01*
X10264400Y-7098636D02*
X10254876Y-7108160D01*
X10254876Y-7108160D02*
X10235828Y-7117684D01*
X10235828Y-7117684D02*
X10216781Y-7117684D01*
X10216781Y-7117684D02*
X10197733Y-7108160D01*
X10197733Y-7108160D02*
X10188209Y-7098636D01*
X10188209Y-7098636D02*
X10178686Y-7079588D01*
X10178686Y-7079588D02*
X10169162Y-7041493D01*
X10169162Y-7041493D02*
X10169162Y-6993874D01*
X10169162Y-6993874D02*
X10178686Y-6955779D01*
X10178686Y-6955779D02*
X10188209Y-6936731D01*
X10188209Y-6936731D02*
X10197733Y-6927208D01*
X10197733Y-6927208D02*
X10216781Y-6917684D01*
X10369162Y-7117684D02*
X10369162Y-6984350D01*
X10369162Y-7003398D02*
X10378686Y-6993874D01*
X10378686Y-6993874D02*
X10397733Y-6984350D01*
X10397733Y-6984350D02*
X10426305Y-6984350D01*
X10426305Y-6984350D02*
X10445352Y-6993874D01*
X10445352Y-6993874D02*
X10454876Y-7012922D01*
X10454876Y-7012922D02*
X10454876Y-7117684D01*
X10454876Y-7012922D02*
X10464400Y-6993874D01*
X10464400Y-6993874D02*
X10483447Y-6984350D01*
X10483447Y-6984350D02*
X10512019Y-6984350D01*
X10512019Y-6984350D02*
X10531067Y-6993874D01*
X10531067Y-6993874D02*
X10540590Y-7012922D01*
X10540590Y-7012922D02*
X10540590Y-7117684D01*
X10635828Y-7117684D02*
X10635828Y-6984350D01*
X10635828Y-7003398D02*
X10645352Y-6993874D01*
X10645352Y-6993874D02*
X10664400Y-6984350D01*
X10664400Y-6984350D02*
X10692971Y-6984350D01*
X10692971Y-6984350D02*
X10712019Y-6993874D01*
X10712019Y-6993874D02*
X10721543Y-7012922D01*
X10721543Y-7012922D02*
X10721543Y-7117684D01*
X10721543Y-7012922D02*
X10731067Y-6993874D01*
X10731067Y-6993874D02*
X10750114Y-6984350D01*
X10750114Y-6984350D02*
X10778686Y-6984350D01*
X10778686Y-6984350D02*
X10797733Y-6993874D01*
X10797733Y-6993874D02*
X10807257Y-7012922D01*
X10807257Y-7012922D02*
X10807257Y-7117684D01*
X11197733Y-6908160D02*
X11026305Y-7165303D01*
X11454876Y-6917684D02*
X11473924Y-6917684D01*
X11473924Y-6917684D02*
X11492971Y-6927208D01*
X11492971Y-6927208D02*
X11502495Y-6936731D01*
X11502495Y-6936731D02*
X11512019Y-6955779D01*
X11512019Y-6955779D02*
X11521543Y-6993874D01*
X11521543Y-6993874D02*
X11521543Y-7041493D01*
X11521543Y-7041493D02*
X11512019Y-7079588D01*
X11512019Y-7079588D02*
X11502495Y-7098636D01*
X11502495Y-7098636D02*
X11492971Y-7108160D01*
X11492971Y-7108160D02*
X11473924Y-7117684D01*
X11473924Y-7117684D02*
X11454876Y-7117684D01*
X11454876Y-7117684D02*
X11435828Y-7108160D01*
X11435828Y-7108160D02*
X11426305Y-7098636D01*
X11426305Y-7098636D02*
X11416781Y-7079588D01*
X11416781Y-7079588D02*
X11407257Y-7041493D01*
X11407257Y-7041493D02*
X11407257Y-6993874D01*
X11407257Y-6993874D02*
X11416781Y-6955779D01*
X11416781Y-6955779D02*
X11426305Y-6936731D01*
X11426305Y-6936731D02*
X11435828Y-6927208D01*
X11435828Y-6927208D02*
X11454876Y-6917684D01*
X11607257Y-7098636D02*
X11616781Y-7108160D01*
X11616781Y-7108160D02*
X11607257Y-7117684D01*
X11607257Y-7117684D02*
X11597733Y-7108160D01*
X11597733Y-7108160D02*
X11607257Y-7098636D01*
X11607257Y-7098636D02*
X11607257Y-7117684D01*
X11740590Y-6917684D02*
X11759638Y-6917684D01*
X11759638Y-6917684D02*
X11778686Y-6927208D01*
X11778686Y-6927208D02*
X11788209Y-6936731D01*
X11788209Y-6936731D02*
X11797733Y-6955779D01*
X11797733Y-6955779D02*
X11807257Y-6993874D01*
X11807257Y-6993874D02*
X11807257Y-7041493D01*
X11807257Y-7041493D02*
X11797733Y-7079588D01*
X11797733Y-7079588D02*
X11788209Y-7098636D01*
X11788209Y-7098636D02*
X11778686Y-7108160D01*
X11778686Y-7108160D02*
X11759638Y-7117684D01*
X11759638Y-7117684D02*
X11740590Y-7117684D01*
X11740590Y-7117684D02*
X11721543Y-7108160D01*
X11721543Y-7108160D02*
X11712019Y-7098636D01*
X11712019Y-7098636D02*
X11702495Y-7079588D01*
X11702495Y-7079588D02*
X11692971Y-7041493D01*
X11692971Y-7041493D02*
X11692971Y-6993874D01*
X11692971Y-6993874D02*
X11702495Y-6955779D01*
X11702495Y-6955779D02*
X11712019Y-6936731D01*
X11712019Y-6936731D02*
X11721543Y-6927208D01*
X11721543Y-6927208D02*
X11740590Y-6917684D01*
X11997733Y-7117684D02*
X11883448Y-7117684D01*
X11940590Y-7117684D02*
X11940590Y-6917684D01*
X11940590Y-6917684D02*
X11921543Y-6946255D01*
X11921543Y-6946255D02*
X11902495Y-6965303D01*
X11902495Y-6965303D02*
X11883448Y-6974827D01*
X12178686Y-6917684D02*
X12083448Y-6917684D01*
X12083448Y-6917684D02*
X12073924Y-7012922D01*
X12073924Y-7012922D02*
X12083448Y-7003398D01*
X12083448Y-7003398D02*
X12102495Y-6993874D01*
X12102495Y-6993874D02*
X12150114Y-6993874D01*
X12150114Y-6993874D02*
X12169162Y-7003398D01*
X12169162Y-7003398D02*
X12178686Y-7012922D01*
X12178686Y-7012922D02*
X12188209Y-7031969D01*
X12188209Y-7031969D02*
X12188209Y-7079588D01*
X12188209Y-7079588D02*
X12178686Y-7098636D01*
X12178686Y-7098636D02*
X12169162Y-7108160D01*
X12169162Y-7108160D02*
X12150114Y-7117684D01*
X12150114Y-7117684D02*
X12102495Y-7117684D01*
X12102495Y-7117684D02*
X12083448Y-7108160D01*
X12083448Y-7108160D02*
X12073924Y-7098636D01*
X12254876Y-6917684D02*
X12388209Y-6917684D01*
X12388209Y-6917684D02*
X12302495Y-7117684D01*
X12454876Y-6917684D02*
X12454876Y-6955779D01*
X12531067Y-6917684D02*
X12531067Y-6955779D01*
X12826305Y-7193874D02*
X12816781Y-7184350D01*
X12816781Y-7184350D02*
X12797733Y-7155779D01*
X12797733Y-7155779D02*
X12788210Y-7136731D01*
X12788210Y-7136731D02*
X12778686Y-7108160D01*
X12778686Y-7108160D02*
X12769162Y-7060541D01*
X12769162Y-7060541D02*
X12769162Y-7022446D01*
X12769162Y-7022446D02*
X12778686Y-6974827D01*
X12778686Y-6974827D02*
X12788210Y-6946255D01*
X12788210Y-6946255D02*
X12797733Y-6927208D01*
X12797733Y-6927208D02*
X12816781Y-6898636D01*
X12816781Y-6898636D02*
X12826305Y-6889112D01*
X12940590Y-6917684D02*
X12959638Y-6917684D01*
X12959638Y-6917684D02*
X12978686Y-6927208D01*
X12978686Y-6927208D02*
X12988210Y-6936731D01*
X12988210Y-6936731D02*
X12997733Y-6955779D01*
X12997733Y-6955779D02*
X13007257Y-6993874D01*
X13007257Y-6993874D02*
X13007257Y-7041493D01*
X13007257Y-7041493D02*
X12997733Y-7079588D01*
X12997733Y-7079588D02*
X12988210Y-7098636D01*
X12988210Y-7098636D02*
X12978686Y-7108160D01*
X12978686Y-7108160D02*
X12959638Y-7117684D01*
X12959638Y-7117684D02*
X12940590Y-7117684D01*
X12940590Y-7117684D02*
X12921543Y-7108160D01*
X12921543Y-7108160D02*
X12912019Y-7098636D01*
X12912019Y-7098636D02*
X12902495Y-7079588D01*
X12902495Y-7079588D02*
X12892971Y-7041493D01*
X12892971Y-7041493D02*
X12892971Y-6993874D01*
X12892971Y-6993874D02*
X12902495Y-6955779D01*
X12902495Y-6955779D02*
X12912019Y-6936731D01*
X12912019Y-6936731D02*
X12921543Y-6927208D01*
X12921543Y-6927208D02*
X12940590Y-6917684D01*
X13245352Y-7117684D02*
X13245352Y-6917684D01*
X13331067Y-7117684D02*
X13331067Y-7012922D01*
X13331067Y-7012922D02*
X13321543Y-6993874D01*
X13321543Y-6993874D02*
X13302495Y-6984350D01*
X13302495Y-6984350D02*
X13273924Y-6984350D01*
X13273924Y-6984350D02*
X13254876Y-6993874D01*
X13254876Y-6993874D02*
X13245352Y-7003398D01*
X13454876Y-7117684D02*
X13435829Y-7108160D01*
X13435829Y-7108160D02*
X13426305Y-7098636D01*
X13426305Y-7098636D02*
X13416781Y-7079588D01*
X13416781Y-7079588D02*
X13416781Y-7022446D01*
X13416781Y-7022446D02*
X13426305Y-7003398D01*
X13426305Y-7003398D02*
X13435829Y-6993874D01*
X13435829Y-6993874D02*
X13454876Y-6984350D01*
X13454876Y-6984350D02*
X13483448Y-6984350D01*
X13483448Y-6984350D02*
X13502495Y-6993874D01*
X13502495Y-6993874D02*
X13512019Y-7003398D01*
X13512019Y-7003398D02*
X13521543Y-7022446D01*
X13521543Y-7022446D02*
X13521543Y-7079588D01*
X13521543Y-7079588D02*
X13512019Y-7098636D01*
X13512019Y-7098636D02*
X13502495Y-7108160D01*
X13502495Y-7108160D02*
X13483448Y-7117684D01*
X13483448Y-7117684D02*
X13454876Y-7117684D01*
X13635829Y-7117684D02*
X13616781Y-7108160D01*
X13616781Y-7108160D02*
X13607257Y-7089112D01*
X13607257Y-7089112D02*
X13607257Y-6917684D01*
X13788210Y-7108160D02*
X13769162Y-7117684D01*
X13769162Y-7117684D02*
X13731067Y-7117684D01*
X13731067Y-7117684D02*
X13712019Y-7108160D01*
X13712019Y-7108160D02*
X13702495Y-7089112D01*
X13702495Y-7089112D02*
X13702495Y-7012922D01*
X13702495Y-7012922D02*
X13712019Y-6993874D01*
X13712019Y-6993874D02*
X13731067Y-6984350D01*
X13731067Y-6984350D02*
X13769162Y-6984350D01*
X13769162Y-6984350D02*
X13788210Y-6993874D01*
X13788210Y-6993874D02*
X13797733Y-7012922D01*
X13797733Y-7012922D02*
X13797733Y-7031969D01*
X13797733Y-7031969D02*
X13702495Y-7051017D01*
X13873924Y-7108160D02*
X13892972Y-7117684D01*
X13892972Y-7117684D02*
X13931067Y-7117684D01*
X13931067Y-7117684D02*
X13950114Y-7108160D01*
X13950114Y-7108160D02*
X13959638Y-7089112D01*
X13959638Y-7089112D02*
X13959638Y-7079588D01*
X13959638Y-7079588D02*
X13950114Y-7060541D01*
X13950114Y-7060541D02*
X13931067Y-7051017D01*
X13931067Y-7051017D02*
X13902495Y-7051017D01*
X13902495Y-7051017D02*
X13883448Y-7041493D01*
X13883448Y-7041493D02*
X13873924Y-7022446D01*
X13873924Y-7022446D02*
X13873924Y-7012922D01*
X13873924Y-7012922D02*
X13883448Y-6993874D01*
X13883448Y-6993874D02*
X13902495Y-6984350D01*
X13902495Y-6984350D02*
X13931067Y-6984350D01*
X13931067Y-6984350D02*
X13950114Y-6993874D01*
X14197734Y-7041493D02*
X14350115Y-7041493D01*
X14273924Y-7117684D02*
X14273924Y-6965303D01*
X14692972Y-6917684D02*
X14597734Y-6917684D01*
X14597734Y-6917684D02*
X14588210Y-7012922D01*
X14588210Y-7012922D02*
X14597734Y-7003398D01*
X14597734Y-7003398D02*
X14616781Y-6993874D01*
X14616781Y-6993874D02*
X14664400Y-6993874D01*
X14664400Y-6993874D02*
X14683448Y-7003398D01*
X14683448Y-7003398D02*
X14692972Y-7012922D01*
X14692972Y-7012922D02*
X14702495Y-7031969D01*
X14702495Y-7031969D02*
X14702495Y-7079588D01*
X14702495Y-7079588D02*
X14692972Y-7098636D01*
X14692972Y-7098636D02*
X14683448Y-7108160D01*
X14683448Y-7108160D02*
X14664400Y-7117684D01*
X14664400Y-7117684D02*
X14616781Y-7117684D01*
X14616781Y-7117684D02*
X14597734Y-7108160D01*
X14597734Y-7108160D02*
X14588210Y-7098636D01*
X14931067Y-7108160D02*
X14950115Y-7117684D01*
X14950115Y-7117684D02*
X14988210Y-7117684D01*
X14988210Y-7117684D02*
X15007257Y-7108160D01*
X15007257Y-7108160D02*
X15016781Y-7089112D01*
X15016781Y-7089112D02*
X15016781Y-7079588D01*
X15016781Y-7079588D02*
X15007257Y-7060541D01*
X15007257Y-7060541D02*
X14988210Y-7051017D01*
X14988210Y-7051017D02*
X14959638Y-7051017D01*
X14959638Y-7051017D02*
X14940591Y-7041493D01*
X14940591Y-7041493D02*
X14931067Y-7022446D01*
X14931067Y-7022446D02*
X14931067Y-7012922D01*
X14931067Y-7012922D02*
X14940591Y-6993874D01*
X14940591Y-6993874D02*
X14959638Y-6984350D01*
X14959638Y-6984350D02*
X14988210Y-6984350D01*
X14988210Y-6984350D02*
X15007257Y-6993874D01*
X15131067Y-7117684D02*
X15112019Y-7108160D01*
X15112019Y-7108160D02*
X15102496Y-7089112D01*
X15102496Y-7089112D02*
X15102496Y-6917684D01*
X15235829Y-7117684D02*
X15216781Y-7108160D01*
X15216781Y-7108160D02*
X15207257Y-7098636D01*
X15207257Y-7098636D02*
X15197734Y-7079588D01*
X15197734Y-7079588D02*
X15197734Y-7022446D01*
X15197734Y-7022446D02*
X15207257Y-7003398D01*
X15207257Y-7003398D02*
X15216781Y-6993874D01*
X15216781Y-6993874D02*
X15235829Y-6984350D01*
X15235829Y-6984350D02*
X15264400Y-6984350D01*
X15264400Y-6984350D02*
X15283448Y-6993874D01*
X15283448Y-6993874D02*
X15292972Y-7003398D01*
X15292972Y-7003398D02*
X15302496Y-7022446D01*
X15302496Y-7022446D02*
X15302496Y-7079588D01*
X15302496Y-7079588D02*
X15292972Y-7098636D01*
X15292972Y-7098636D02*
X15283448Y-7108160D01*
X15283448Y-7108160D02*
X15264400Y-7117684D01*
X15264400Y-7117684D02*
X15235829Y-7117684D01*
X15359638Y-6984350D02*
X15435829Y-6984350D01*
X15388210Y-6917684D02*
X15388210Y-7089112D01*
X15388210Y-7089112D02*
X15397734Y-7108160D01*
X15397734Y-7108160D02*
X15416781Y-7117684D01*
X15416781Y-7117684D02*
X15435829Y-7117684D01*
X15492972Y-7108160D02*
X15512019Y-7117684D01*
X15512019Y-7117684D02*
X15550115Y-7117684D01*
X15550115Y-7117684D02*
X15569162Y-7108160D01*
X15569162Y-7108160D02*
X15578686Y-7089112D01*
X15578686Y-7089112D02*
X15578686Y-7079588D01*
X15578686Y-7079588D02*
X15569162Y-7060541D01*
X15569162Y-7060541D02*
X15550115Y-7051017D01*
X15550115Y-7051017D02*
X15521543Y-7051017D01*
X15521543Y-7051017D02*
X15502496Y-7041493D01*
X15502496Y-7041493D02*
X15492972Y-7022446D01*
X15492972Y-7022446D02*
X15492972Y-7012922D01*
X15492972Y-7012922D02*
X15502496Y-6993874D01*
X15502496Y-6993874D02*
X15521543Y-6984350D01*
X15521543Y-6984350D02*
X15550115Y-6984350D01*
X15550115Y-6984350D02*
X15569162Y-6993874D01*
X15645353Y-7193874D02*
X15654877Y-7184350D01*
X15654877Y-7184350D02*
X15673924Y-7155779D01*
X15673924Y-7155779D02*
X15683448Y-7136731D01*
X15683448Y-7136731D02*
X15692972Y-7108160D01*
X15692972Y-7108160D02*
X15702496Y-7060541D01*
X15702496Y-7060541D02*
X15702496Y-7022446D01*
X15702496Y-7022446D02*
X15692972Y-6974827D01*
X15692972Y-6974827D02*
X15683448Y-6946255D01*
X15683448Y-6946255D02*
X15673924Y-6927208D01*
X15673924Y-6927208D02*
X15654877Y-6898636D01*
X15654877Y-6898636D02*
X15645353Y-6889112D01*
D10*
X9241723Y-7313181D02*
X9241723Y-7267219D01*
X9195761Y-7267219D01*
X9195761Y-7313181D01*
X9241723Y-7313181D01*
D12*
X9550114Y-7181684D02*
X9569162Y-7181684D01*
X9569162Y-7181684D02*
X9588209Y-7191208D01*
X9588209Y-7191208D02*
X9597733Y-7200731D01*
X9597733Y-7200731D02*
X9607257Y-7219779D01*
X9607257Y-7219779D02*
X9616781Y-7257874D01*
X9616781Y-7257874D02*
X9616781Y-7305493D01*
X9616781Y-7305493D02*
X9607257Y-7343588D01*
X9607257Y-7343588D02*
X9597733Y-7362636D01*
X9597733Y-7362636D02*
X9588209Y-7372160D01*
X9588209Y-7372160D02*
X9569162Y-7381684D01*
X9569162Y-7381684D02*
X9550114Y-7381684D01*
X9550114Y-7381684D02*
X9531066Y-7372160D01*
X9531066Y-7372160D02*
X9521543Y-7362636D01*
X9521543Y-7362636D02*
X9512019Y-7343588D01*
X9512019Y-7343588D02*
X9502495Y-7305493D01*
X9502495Y-7305493D02*
X9502495Y-7257874D01*
X9502495Y-7257874D02*
X9512019Y-7219779D01*
X9512019Y-7219779D02*
X9521543Y-7200731D01*
X9521543Y-7200731D02*
X9531066Y-7191208D01*
X9531066Y-7191208D02*
X9550114Y-7181684D01*
X9702495Y-7362636D02*
X9712019Y-7372160D01*
X9712019Y-7372160D02*
X9702495Y-7381684D01*
X9702495Y-7381684D02*
X9692971Y-7372160D01*
X9692971Y-7372160D02*
X9702495Y-7362636D01*
X9702495Y-7362636D02*
X9702495Y-7381684D01*
X9883447Y-7181684D02*
X9845352Y-7181684D01*
X9845352Y-7181684D02*
X9826305Y-7191208D01*
X9826305Y-7191208D02*
X9816781Y-7200731D01*
X9816781Y-7200731D02*
X9797733Y-7229303D01*
X9797733Y-7229303D02*
X9788209Y-7267398D01*
X9788209Y-7267398D02*
X9788209Y-7343588D01*
X9788209Y-7343588D02*
X9797733Y-7362636D01*
X9797733Y-7362636D02*
X9807257Y-7372160D01*
X9807257Y-7372160D02*
X9826305Y-7381684D01*
X9826305Y-7381684D02*
X9864400Y-7381684D01*
X9864400Y-7381684D02*
X9883447Y-7372160D01*
X9883447Y-7372160D02*
X9892971Y-7362636D01*
X9892971Y-7362636D02*
X9902495Y-7343588D01*
X9902495Y-7343588D02*
X9902495Y-7295969D01*
X9902495Y-7295969D02*
X9892971Y-7276922D01*
X9892971Y-7276922D02*
X9883447Y-7267398D01*
X9883447Y-7267398D02*
X9864400Y-7257874D01*
X9864400Y-7257874D02*
X9826305Y-7257874D01*
X9826305Y-7257874D02*
X9807257Y-7267398D01*
X9807257Y-7267398D02*
X9797733Y-7276922D01*
X9797733Y-7276922D02*
X9788209Y-7295969D01*
X10083447Y-7181684D02*
X9988209Y-7181684D01*
X9988209Y-7181684D02*
X9978686Y-7276922D01*
X9978686Y-7276922D02*
X9988209Y-7267398D01*
X9988209Y-7267398D02*
X10007257Y-7257874D01*
X10007257Y-7257874D02*
X10054876Y-7257874D01*
X10054876Y-7257874D02*
X10073924Y-7267398D01*
X10073924Y-7267398D02*
X10083447Y-7276922D01*
X10083447Y-7276922D02*
X10092971Y-7295969D01*
X10092971Y-7295969D02*
X10092971Y-7343588D01*
X10092971Y-7343588D02*
X10083447Y-7362636D01*
X10083447Y-7362636D02*
X10073924Y-7372160D01*
X10073924Y-7372160D02*
X10054876Y-7381684D01*
X10054876Y-7381684D02*
X10007257Y-7381684D01*
X10007257Y-7381684D02*
X9988209Y-7372160D01*
X9988209Y-7372160D02*
X9978686Y-7362636D01*
X10216781Y-7181684D02*
X10235828Y-7181684D01*
X10235828Y-7181684D02*
X10254876Y-7191208D01*
X10254876Y-7191208D02*
X10264400Y-7200731D01*
X10264400Y-7200731D02*
X10273924Y-7219779D01*
X10273924Y-7219779D02*
X10283447Y-7257874D01*
X10283447Y-7257874D02*
X10283447Y-7305493D01*
X10283447Y-7305493D02*
X10273924Y-7343588D01*
X10273924Y-7343588D02*
X10264400Y-7362636D01*
X10264400Y-7362636D02*
X10254876Y-7372160D01*
X10254876Y-7372160D02*
X10235828Y-7381684D01*
X10235828Y-7381684D02*
X10216781Y-7381684D01*
X10216781Y-7381684D02*
X10197733Y-7372160D01*
X10197733Y-7372160D02*
X10188209Y-7362636D01*
X10188209Y-7362636D02*
X10178686Y-7343588D01*
X10178686Y-7343588D02*
X10169162Y-7305493D01*
X10169162Y-7305493D02*
X10169162Y-7257874D01*
X10169162Y-7257874D02*
X10178686Y-7219779D01*
X10178686Y-7219779D02*
X10188209Y-7200731D01*
X10188209Y-7200731D02*
X10197733Y-7191208D01*
X10197733Y-7191208D02*
X10216781Y-7181684D01*
X10369162Y-7381684D02*
X10369162Y-7248350D01*
X10369162Y-7267398D02*
X10378686Y-7257874D01*
X10378686Y-7257874D02*
X10397733Y-7248350D01*
X10397733Y-7248350D02*
X10426305Y-7248350D01*
X10426305Y-7248350D02*
X10445352Y-7257874D01*
X10445352Y-7257874D02*
X10454876Y-7276922D01*
X10454876Y-7276922D02*
X10454876Y-7381684D01*
X10454876Y-7276922D02*
X10464400Y-7257874D01*
X10464400Y-7257874D02*
X10483447Y-7248350D01*
X10483447Y-7248350D02*
X10512019Y-7248350D01*
X10512019Y-7248350D02*
X10531067Y-7257874D01*
X10531067Y-7257874D02*
X10540590Y-7276922D01*
X10540590Y-7276922D02*
X10540590Y-7381684D01*
X10635828Y-7381684D02*
X10635828Y-7248350D01*
X10635828Y-7267398D02*
X10645352Y-7257874D01*
X10645352Y-7257874D02*
X10664400Y-7248350D01*
X10664400Y-7248350D02*
X10692971Y-7248350D01*
X10692971Y-7248350D02*
X10712019Y-7257874D01*
X10712019Y-7257874D02*
X10721543Y-7276922D01*
X10721543Y-7276922D02*
X10721543Y-7381684D01*
X10721543Y-7276922D02*
X10731067Y-7257874D01*
X10731067Y-7257874D02*
X10750114Y-7248350D01*
X10750114Y-7248350D02*
X10778686Y-7248350D01*
X10778686Y-7248350D02*
X10797733Y-7257874D01*
X10797733Y-7257874D02*
X10807257Y-7276922D01*
X10807257Y-7276922D02*
X10807257Y-7381684D01*
X11197733Y-7172160D02*
X11026305Y-7429303D01*
X11454876Y-7181684D02*
X11473924Y-7181684D01*
X11473924Y-7181684D02*
X11492971Y-7191208D01*
X11492971Y-7191208D02*
X11502495Y-7200731D01*
X11502495Y-7200731D02*
X11512019Y-7219779D01*
X11512019Y-7219779D02*
X11521543Y-7257874D01*
X11521543Y-7257874D02*
X11521543Y-7305493D01*
X11521543Y-7305493D02*
X11512019Y-7343588D01*
X11512019Y-7343588D02*
X11502495Y-7362636D01*
X11502495Y-7362636D02*
X11492971Y-7372160D01*
X11492971Y-7372160D02*
X11473924Y-7381684D01*
X11473924Y-7381684D02*
X11454876Y-7381684D01*
X11454876Y-7381684D02*
X11435828Y-7372160D01*
X11435828Y-7372160D02*
X11426305Y-7362636D01*
X11426305Y-7362636D02*
X11416781Y-7343588D01*
X11416781Y-7343588D02*
X11407257Y-7305493D01*
X11407257Y-7305493D02*
X11407257Y-7257874D01*
X11407257Y-7257874D02*
X11416781Y-7219779D01*
X11416781Y-7219779D02*
X11426305Y-7200731D01*
X11426305Y-7200731D02*
X11435828Y-7191208D01*
X11435828Y-7191208D02*
X11454876Y-7181684D01*
X11607257Y-7362636D02*
X11616781Y-7372160D01*
X11616781Y-7372160D02*
X11607257Y-7381684D01*
X11607257Y-7381684D02*
X11597733Y-7372160D01*
X11597733Y-7372160D02*
X11607257Y-7362636D01*
X11607257Y-7362636D02*
X11607257Y-7381684D01*
X11740590Y-7181684D02*
X11759638Y-7181684D01*
X11759638Y-7181684D02*
X11778686Y-7191208D01*
X11778686Y-7191208D02*
X11788209Y-7200731D01*
X11788209Y-7200731D02*
X11797733Y-7219779D01*
X11797733Y-7219779D02*
X11807257Y-7257874D01*
X11807257Y-7257874D02*
X11807257Y-7305493D01*
X11807257Y-7305493D02*
X11797733Y-7343588D01*
X11797733Y-7343588D02*
X11788209Y-7362636D01*
X11788209Y-7362636D02*
X11778686Y-7372160D01*
X11778686Y-7372160D02*
X11759638Y-7381684D01*
X11759638Y-7381684D02*
X11740590Y-7381684D01*
X11740590Y-7381684D02*
X11721543Y-7372160D01*
X11721543Y-7372160D02*
X11712019Y-7362636D01*
X11712019Y-7362636D02*
X11702495Y-7343588D01*
X11702495Y-7343588D02*
X11692971Y-7305493D01*
X11692971Y-7305493D02*
X11692971Y-7257874D01*
X11692971Y-7257874D02*
X11702495Y-7219779D01*
X11702495Y-7219779D02*
X11712019Y-7200731D01*
X11712019Y-7200731D02*
X11721543Y-7191208D01*
X11721543Y-7191208D02*
X11740590Y-7181684D01*
X11883448Y-7200731D02*
X11892971Y-7191208D01*
X11892971Y-7191208D02*
X11912019Y-7181684D01*
X11912019Y-7181684D02*
X11959638Y-7181684D01*
X11959638Y-7181684D02*
X11978686Y-7191208D01*
X11978686Y-7191208D02*
X11988209Y-7200731D01*
X11988209Y-7200731D02*
X11997733Y-7219779D01*
X11997733Y-7219779D02*
X11997733Y-7238827D01*
X11997733Y-7238827D02*
X11988209Y-7267398D01*
X11988209Y-7267398D02*
X11873924Y-7381684D01*
X11873924Y-7381684D02*
X11997733Y-7381684D01*
X12178686Y-7181684D02*
X12083448Y-7181684D01*
X12083448Y-7181684D02*
X12073924Y-7276922D01*
X12073924Y-7276922D02*
X12083448Y-7267398D01*
X12083448Y-7267398D02*
X12102495Y-7257874D01*
X12102495Y-7257874D02*
X12150114Y-7257874D01*
X12150114Y-7257874D02*
X12169162Y-7267398D01*
X12169162Y-7267398D02*
X12178686Y-7276922D01*
X12178686Y-7276922D02*
X12188209Y-7295969D01*
X12188209Y-7295969D02*
X12188209Y-7343588D01*
X12188209Y-7343588D02*
X12178686Y-7362636D01*
X12178686Y-7362636D02*
X12169162Y-7372160D01*
X12169162Y-7372160D02*
X12150114Y-7381684D01*
X12150114Y-7381684D02*
X12102495Y-7381684D01*
X12102495Y-7381684D02*
X12083448Y-7372160D01*
X12083448Y-7372160D02*
X12073924Y-7362636D01*
X12359638Y-7181684D02*
X12321543Y-7181684D01*
X12321543Y-7181684D02*
X12302495Y-7191208D01*
X12302495Y-7191208D02*
X12292971Y-7200731D01*
X12292971Y-7200731D02*
X12273924Y-7229303D01*
X12273924Y-7229303D02*
X12264400Y-7267398D01*
X12264400Y-7267398D02*
X12264400Y-7343588D01*
X12264400Y-7343588D02*
X12273924Y-7362636D01*
X12273924Y-7362636D02*
X12283448Y-7372160D01*
X12283448Y-7372160D02*
X12302495Y-7381684D01*
X12302495Y-7381684D02*
X12340590Y-7381684D01*
X12340590Y-7381684D02*
X12359638Y-7372160D01*
X12359638Y-7372160D02*
X12369162Y-7362636D01*
X12369162Y-7362636D02*
X12378686Y-7343588D01*
X12378686Y-7343588D02*
X12378686Y-7295969D01*
X12378686Y-7295969D02*
X12369162Y-7276922D01*
X12369162Y-7276922D02*
X12359638Y-7267398D01*
X12359638Y-7267398D02*
X12340590Y-7257874D01*
X12340590Y-7257874D02*
X12302495Y-7257874D01*
X12302495Y-7257874D02*
X12283448Y-7267398D01*
X12283448Y-7267398D02*
X12273924Y-7276922D01*
X12273924Y-7276922D02*
X12264400Y-7295969D01*
X12454876Y-7181684D02*
X12454876Y-7219779D01*
X12531067Y-7181684D02*
X12531067Y-7219779D01*
X12826305Y-7457874D02*
X12816781Y-7448350D01*
X12816781Y-7448350D02*
X12797733Y-7419779D01*
X12797733Y-7419779D02*
X12788210Y-7400731D01*
X12788210Y-7400731D02*
X12778686Y-7372160D01*
X12778686Y-7372160D02*
X12769162Y-7324541D01*
X12769162Y-7324541D02*
X12769162Y-7286446D01*
X12769162Y-7286446D02*
X12778686Y-7238827D01*
X12778686Y-7238827D02*
X12788210Y-7210255D01*
X12788210Y-7210255D02*
X12797733Y-7191208D01*
X12797733Y-7191208D02*
X12816781Y-7162636D01*
X12816781Y-7162636D02*
X12826305Y-7153112D01*
X12892971Y-7200731D02*
X12902495Y-7191208D01*
X12902495Y-7191208D02*
X12921543Y-7181684D01*
X12921543Y-7181684D02*
X12969162Y-7181684D01*
X12969162Y-7181684D02*
X12988210Y-7191208D01*
X12988210Y-7191208D02*
X12997733Y-7200731D01*
X12997733Y-7200731D02*
X13007257Y-7219779D01*
X13007257Y-7219779D02*
X13007257Y-7238827D01*
X13007257Y-7238827D02*
X12997733Y-7267398D01*
X12997733Y-7267398D02*
X12883448Y-7381684D01*
X12883448Y-7381684D02*
X13007257Y-7381684D01*
X13245352Y-7381684D02*
X13245352Y-7181684D01*
X13331067Y-7381684D02*
X13331067Y-7276922D01*
X13331067Y-7276922D02*
X13321543Y-7257874D01*
X13321543Y-7257874D02*
X13302495Y-7248350D01*
X13302495Y-7248350D02*
X13273924Y-7248350D01*
X13273924Y-7248350D02*
X13254876Y-7257874D01*
X13254876Y-7257874D02*
X13245352Y-7267398D01*
X13454876Y-7381684D02*
X13435829Y-7372160D01*
X13435829Y-7372160D02*
X13426305Y-7362636D01*
X13426305Y-7362636D02*
X13416781Y-7343588D01*
X13416781Y-7343588D02*
X13416781Y-7286446D01*
X13416781Y-7286446D02*
X13426305Y-7267398D01*
X13426305Y-7267398D02*
X13435829Y-7257874D01*
X13435829Y-7257874D02*
X13454876Y-7248350D01*
X13454876Y-7248350D02*
X13483448Y-7248350D01*
X13483448Y-7248350D02*
X13502495Y-7257874D01*
X13502495Y-7257874D02*
X13512019Y-7267398D01*
X13512019Y-7267398D02*
X13521543Y-7286446D01*
X13521543Y-7286446D02*
X13521543Y-7343588D01*
X13521543Y-7343588D02*
X13512019Y-7362636D01*
X13512019Y-7362636D02*
X13502495Y-7372160D01*
X13502495Y-7372160D02*
X13483448Y-7381684D01*
X13483448Y-7381684D02*
X13454876Y-7381684D01*
X13635829Y-7381684D02*
X13616781Y-7372160D01*
X13616781Y-7372160D02*
X13607257Y-7353112D01*
X13607257Y-7353112D02*
X13607257Y-7181684D01*
X13788210Y-7372160D02*
X13769162Y-7381684D01*
X13769162Y-7381684D02*
X13731067Y-7381684D01*
X13731067Y-7381684D02*
X13712019Y-7372160D01*
X13712019Y-7372160D02*
X13702495Y-7353112D01*
X13702495Y-7353112D02*
X13702495Y-7276922D01*
X13702495Y-7276922D02*
X13712019Y-7257874D01*
X13712019Y-7257874D02*
X13731067Y-7248350D01*
X13731067Y-7248350D02*
X13769162Y-7248350D01*
X13769162Y-7248350D02*
X13788210Y-7257874D01*
X13788210Y-7257874D02*
X13797733Y-7276922D01*
X13797733Y-7276922D02*
X13797733Y-7295969D01*
X13797733Y-7295969D02*
X13702495Y-7315017D01*
X13873924Y-7372160D02*
X13892972Y-7381684D01*
X13892972Y-7381684D02*
X13931067Y-7381684D01*
X13931067Y-7381684D02*
X13950114Y-7372160D01*
X13950114Y-7372160D02*
X13959638Y-7353112D01*
X13959638Y-7353112D02*
X13959638Y-7343588D01*
X13959638Y-7343588D02*
X13950114Y-7324541D01*
X13950114Y-7324541D02*
X13931067Y-7315017D01*
X13931067Y-7315017D02*
X13902495Y-7315017D01*
X13902495Y-7315017D02*
X13883448Y-7305493D01*
X13883448Y-7305493D02*
X13873924Y-7286446D01*
X13873924Y-7286446D02*
X13873924Y-7276922D01*
X13873924Y-7276922D02*
X13883448Y-7257874D01*
X13883448Y-7257874D02*
X13902495Y-7248350D01*
X13902495Y-7248350D02*
X13931067Y-7248350D01*
X13931067Y-7248350D02*
X13950114Y-7257874D01*
X14026305Y-7457874D02*
X14035829Y-7448350D01*
X14035829Y-7448350D02*
X14054876Y-7419779D01*
X14054876Y-7419779D02*
X14064400Y-7400731D01*
X14064400Y-7400731D02*
X14073924Y-7372160D01*
X14073924Y-7372160D02*
X14083448Y-7324541D01*
X14083448Y-7324541D02*
X14083448Y-7286446D01*
X14083448Y-7286446D02*
X14073924Y-7238827D01*
X14073924Y-7238827D02*
X14064400Y-7210255D01*
X14064400Y-7210255D02*
X14054876Y-7191208D01*
X14054876Y-7191208D02*
X14035829Y-7162636D01*
X14035829Y-7162636D02*
X14026305Y-7153112D01*
D10*
X9201242Y-7604200D02*
X9251242Y-7554200D01*
X9201242Y-7504200D01*
X9151242Y-7554200D01*
X9201242Y-7604200D01*
D12*
X9616781Y-7645684D02*
X9502495Y-7645684D01*
X9559638Y-7645684D02*
X9559638Y-7445684D01*
X9559638Y-7445684D02*
X9540590Y-7474255D01*
X9540590Y-7474255D02*
X9521543Y-7493303D01*
X9521543Y-7493303D02*
X9502495Y-7502827D01*
X9702495Y-7626636D02*
X9712019Y-7636160D01*
X9712019Y-7636160D02*
X9702495Y-7645684D01*
X9702495Y-7645684D02*
X9692971Y-7636160D01*
X9692971Y-7636160D02*
X9702495Y-7626636D01*
X9702495Y-7626636D02*
X9702495Y-7645684D01*
X9835828Y-7445684D02*
X9854876Y-7445684D01*
X9854876Y-7445684D02*
X9873924Y-7455208D01*
X9873924Y-7455208D02*
X9883447Y-7464731D01*
X9883447Y-7464731D02*
X9892971Y-7483779D01*
X9892971Y-7483779D02*
X9902495Y-7521874D01*
X9902495Y-7521874D02*
X9902495Y-7569493D01*
X9902495Y-7569493D02*
X9892971Y-7607588D01*
X9892971Y-7607588D02*
X9883447Y-7626636D01*
X9883447Y-7626636D02*
X9873924Y-7636160D01*
X9873924Y-7636160D02*
X9854876Y-7645684D01*
X9854876Y-7645684D02*
X9835828Y-7645684D01*
X9835828Y-7645684D02*
X9816781Y-7636160D01*
X9816781Y-7636160D02*
X9807257Y-7626636D01*
X9807257Y-7626636D02*
X9797733Y-7607588D01*
X9797733Y-7607588D02*
X9788209Y-7569493D01*
X9788209Y-7569493D02*
X9788209Y-7521874D01*
X9788209Y-7521874D02*
X9797733Y-7483779D01*
X9797733Y-7483779D02*
X9807257Y-7464731D01*
X9807257Y-7464731D02*
X9816781Y-7455208D01*
X9816781Y-7455208D02*
X9835828Y-7445684D01*
X10026305Y-7445684D02*
X10045352Y-7445684D01*
X10045352Y-7445684D02*
X10064400Y-7455208D01*
X10064400Y-7455208D02*
X10073924Y-7464731D01*
X10073924Y-7464731D02*
X10083447Y-7483779D01*
X10083447Y-7483779D02*
X10092971Y-7521874D01*
X10092971Y-7521874D02*
X10092971Y-7569493D01*
X10092971Y-7569493D02*
X10083447Y-7607588D01*
X10083447Y-7607588D02*
X10073924Y-7626636D01*
X10073924Y-7626636D02*
X10064400Y-7636160D01*
X10064400Y-7636160D02*
X10045352Y-7645684D01*
X10045352Y-7645684D02*
X10026305Y-7645684D01*
X10026305Y-7645684D02*
X10007257Y-7636160D01*
X10007257Y-7636160D02*
X9997733Y-7626636D01*
X9997733Y-7626636D02*
X9988209Y-7607588D01*
X9988209Y-7607588D02*
X9978686Y-7569493D01*
X9978686Y-7569493D02*
X9978686Y-7521874D01*
X9978686Y-7521874D02*
X9988209Y-7483779D01*
X9988209Y-7483779D02*
X9997733Y-7464731D01*
X9997733Y-7464731D02*
X10007257Y-7455208D01*
X10007257Y-7455208D02*
X10026305Y-7445684D01*
X10216781Y-7445684D02*
X10235828Y-7445684D01*
X10235828Y-7445684D02*
X10254876Y-7455208D01*
X10254876Y-7455208D02*
X10264400Y-7464731D01*
X10264400Y-7464731D02*
X10273924Y-7483779D01*
X10273924Y-7483779D02*
X10283447Y-7521874D01*
X10283447Y-7521874D02*
X10283447Y-7569493D01*
X10283447Y-7569493D02*
X10273924Y-7607588D01*
X10273924Y-7607588D02*
X10264400Y-7626636D01*
X10264400Y-7626636D02*
X10254876Y-7636160D01*
X10254876Y-7636160D02*
X10235828Y-7645684D01*
X10235828Y-7645684D02*
X10216781Y-7645684D01*
X10216781Y-7645684D02*
X10197733Y-7636160D01*
X10197733Y-7636160D02*
X10188209Y-7626636D01*
X10188209Y-7626636D02*
X10178686Y-7607588D01*
X10178686Y-7607588D02*
X10169162Y-7569493D01*
X10169162Y-7569493D02*
X10169162Y-7521874D01*
X10169162Y-7521874D02*
X10178686Y-7483779D01*
X10178686Y-7483779D02*
X10188209Y-7464731D01*
X10188209Y-7464731D02*
X10197733Y-7455208D01*
X10197733Y-7455208D02*
X10216781Y-7445684D01*
X10369162Y-7645684D02*
X10369162Y-7512350D01*
X10369162Y-7531398D02*
X10378686Y-7521874D01*
X10378686Y-7521874D02*
X10397733Y-7512350D01*
X10397733Y-7512350D02*
X10426305Y-7512350D01*
X10426305Y-7512350D02*
X10445352Y-7521874D01*
X10445352Y-7521874D02*
X10454876Y-7540922D01*
X10454876Y-7540922D02*
X10454876Y-7645684D01*
X10454876Y-7540922D02*
X10464400Y-7521874D01*
X10464400Y-7521874D02*
X10483447Y-7512350D01*
X10483447Y-7512350D02*
X10512019Y-7512350D01*
X10512019Y-7512350D02*
X10531067Y-7521874D01*
X10531067Y-7521874D02*
X10540590Y-7540922D01*
X10540590Y-7540922D02*
X10540590Y-7645684D01*
X10635828Y-7645684D02*
X10635828Y-7512350D01*
X10635828Y-7531398D02*
X10645352Y-7521874D01*
X10645352Y-7521874D02*
X10664400Y-7512350D01*
X10664400Y-7512350D02*
X10692971Y-7512350D01*
X10692971Y-7512350D02*
X10712019Y-7521874D01*
X10712019Y-7521874D02*
X10721543Y-7540922D01*
X10721543Y-7540922D02*
X10721543Y-7645684D01*
X10721543Y-7540922D02*
X10731067Y-7521874D01*
X10731067Y-7521874D02*
X10750114Y-7512350D01*
X10750114Y-7512350D02*
X10778686Y-7512350D01*
X10778686Y-7512350D02*
X10797733Y-7521874D01*
X10797733Y-7521874D02*
X10807257Y-7540922D01*
X10807257Y-7540922D02*
X10807257Y-7645684D01*
X11197733Y-7436160D02*
X11026305Y-7693303D01*
X11454876Y-7445684D02*
X11473924Y-7445684D01*
X11473924Y-7445684D02*
X11492971Y-7455208D01*
X11492971Y-7455208D02*
X11502495Y-7464731D01*
X11502495Y-7464731D02*
X11512019Y-7483779D01*
X11512019Y-7483779D02*
X11521543Y-7521874D01*
X11521543Y-7521874D02*
X11521543Y-7569493D01*
X11521543Y-7569493D02*
X11512019Y-7607588D01*
X11512019Y-7607588D02*
X11502495Y-7626636D01*
X11502495Y-7626636D02*
X11492971Y-7636160D01*
X11492971Y-7636160D02*
X11473924Y-7645684D01*
X11473924Y-7645684D02*
X11454876Y-7645684D01*
X11454876Y-7645684D02*
X11435828Y-7636160D01*
X11435828Y-7636160D02*
X11426305Y-7626636D01*
X11426305Y-7626636D02*
X11416781Y-7607588D01*
X11416781Y-7607588D02*
X11407257Y-7569493D01*
X11407257Y-7569493D02*
X11407257Y-7521874D01*
X11407257Y-7521874D02*
X11416781Y-7483779D01*
X11416781Y-7483779D02*
X11426305Y-7464731D01*
X11426305Y-7464731D02*
X11435828Y-7455208D01*
X11435828Y-7455208D02*
X11454876Y-7445684D01*
X11607257Y-7626636D02*
X11616781Y-7636160D01*
X11616781Y-7636160D02*
X11607257Y-7645684D01*
X11607257Y-7645684D02*
X11597733Y-7636160D01*
X11597733Y-7636160D02*
X11607257Y-7626636D01*
X11607257Y-7626636D02*
X11607257Y-7645684D01*
X11740590Y-7445684D02*
X11759638Y-7445684D01*
X11759638Y-7445684D02*
X11778686Y-7455208D01*
X11778686Y-7455208D02*
X11788209Y-7464731D01*
X11788209Y-7464731D02*
X11797733Y-7483779D01*
X11797733Y-7483779D02*
X11807257Y-7521874D01*
X11807257Y-7521874D02*
X11807257Y-7569493D01*
X11807257Y-7569493D02*
X11797733Y-7607588D01*
X11797733Y-7607588D02*
X11788209Y-7626636D01*
X11788209Y-7626636D02*
X11778686Y-7636160D01*
X11778686Y-7636160D02*
X11759638Y-7645684D01*
X11759638Y-7645684D02*
X11740590Y-7645684D01*
X11740590Y-7645684D02*
X11721543Y-7636160D01*
X11721543Y-7636160D02*
X11712019Y-7626636D01*
X11712019Y-7626636D02*
X11702495Y-7607588D01*
X11702495Y-7607588D02*
X11692971Y-7569493D01*
X11692971Y-7569493D02*
X11692971Y-7521874D01*
X11692971Y-7521874D02*
X11702495Y-7483779D01*
X11702495Y-7483779D02*
X11712019Y-7464731D01*
X11712019Y-7464731D02*
X11721543Y-7455208D01*
X11721543Y-7455208D02*
X11740590Y-7445684D01*
X11873924Y-7445684D02*
X11997733Y-7445684D01*
X11997733Y-7445684D02*
X11931067Y-7521874D01*
X11931067Y-7521874D02*
X11959638Y-7521874D01*
X11959638Y-7521874D02*
X11978686Y-7531398D01*
X11978686Y-7531398D02*
X11988209Y-7540922D01*
X11988209Y-7540922D02*
X11997733Y-7559969D01*
X11997733Y-7559969D02*
X11997733Y-7607588D01*
X11997733Y-7607588D02*
X11988209Y-7626636D01*
X11988209Y-7626636D02*
X11978686Y-7636160D01*
X11978686Y-7636160D02*
X11959638Y-7645684D01*
X11959638Y-7645684D02*
X11902495Y-7645684D01*
X11902495Y-7645684D02*
X11883448Y-7636160D01*
X11883448Y-7636160D02*
X11873924Y-7626636D01*
X12092971Y-7645684D02*
X12131067Y-7645684D01*
X12131067Y-7645684D02*
X12150114Y-7636160D01*
X12150114Y-7636160D02*
X12159638Y-7626636D01*
X12159638Y-7626636D02*
X12178686Y-7598065D01*
X12178686Y-7598065D02*
X12188209Y-7559969D01*
X12188209Y-7559969D02*
X12188209Y-7483779D01*
X12188209Y-7483779D02*
X12178686Y-7464731D01*
X12178686Y-7464731D02*
X12169162Y-7455208D01*
X12169162Y-7455208D02*
X12150114Y-7445684D01*
X12150114Y-7445684D02*
X12112019Y-7445684D01*
X12112019Y-7445684D02*
X12092971Y-7455208D01*
X12092971Y-7455208D02*
X12083448Y-7464731D01*
X12083448Y-7464731D02*
X12073924Y-7483779D01*
X12073924Y-7483779D02*
X12073924Y-7531398D01*
X12073924Y-7531398D02*
X12083448Y-7550446D01*
X12083448Y-7550446D02*
X12092971Y-7559969D01*
X12092971Y-7559969D02*
X12112019Y-7569493D01*
X12112019Y-7569493D02*
X12150114Y-7569493D01*
X12150114Y-7569493D02*
X12169162Y-7559969D01*
X12169162Y-7559969D02*
X12178686Y-7550446D01*
X12178686Y-7550446D02*
X12188209Y-7531398D01*
X12359638Y-7512350D02*
X12359638Y-7645684D01*
X12312019Y-7436160D02*
X12264400Y-7579017D01*
X12264400Y-7579017D02*
X12388209Y-7579017D01*
X12454876Y-7445684D02*
X12454876Y-7483779D01*
X12531067Y-7445684D02*
X12531067Y-7483779D01*
X12826305Y-7721874D02*
X12816781Y-7712350D01*
X12816781Y-7712350D02*
X12797733Y-7683779D01*
X12797733Y-7683779D02*
X12788210Y-7664731D01*
X12788210Y-7664731D02*
X12778686Y-7636160D01*
X12778686Y-7636160D02*
X12769162Y-7588541D01*
X12769162Y-7588541D02*
X12769162Y-7550446D01*
X12769162Y-7550446D02*
X12778686Y-7502827D01*
X12778686Y-7502827D02*
X12788210Y-7474255D01*
X12788210Y-7474255D02*
X12797733Y-7455208D01*
X12797733Y-7455208D02*
X12816781Y-7426636D01*
X12816781Y-7426636D02*
X12826305Y-7417112D01*
X13007257Y-7645684D02*
X12892971Y-7645684D01*
X12950114Y-7645684D02*
X12950114Y-7445684D01*
X12950114Y-7445684D02*
X12931067Y-7474255D01*
X12931067Y-7474255D02*
X12912019Y-7493303D01*
X12912019Y-7493303D02*
X12892971Y-7502827D01*
X13073924Y-7445684D02*
X13207257Y-7445684D01*
X13207257Y-7445684D02*
X13121543Y-7645684D01*
X13435829Y-7645684D02*
X13435829Y-7445684D01*
X13521543Y-7645684D02*
X13521543Y-7540922D01*
X13521543Y-7540922D02*
X13512019Y-7521874D01*
X13512019Y-7521874D02*
X13492972Y-7512350D01*
X13492972Y-7512350D02*
X13464400Y-7512350D01*
X13464400Y-7512350D02*
X13445352Y-7521874D01*
X13445352Y-7521874D02*
X13435829Y-7531398D01*
X13645352Y-7645684D02*
X13626305Y-7636160D01*
X13626305Y-7636160D02*
X13616781Y-7626636D01*
X13616781Y-7626636D02*
X13607257Y-7607588D01*
X13607257Y-7607588D02*
X13607257Y-7550446D01*
X13607257Y-7550446D02*
X13616781Y-7531398D01*
X13616781Y-7531398D02*
X13626305Y-7521874D01*
X13626305Y-7521874D02*
X13645352Y-7512350D01*
X13645352Y-7512350D02*
X13673924Y-7512350D01*
X13673924Y-7512350D02*
X13692972Y-7521874D01*
X13692972Y-7521874D02*
X13702495Y-7531398D01*
X13702495Y-7531398D02*
X13712019Y-7550446D01*
X13712019Y-7550446D02*
X13712019Y-7607588D01*
X13712019Y-7607588D02*
X13702495Y-7626636D01*
X13702495Y-7626636D02*
X13692972Y-7636160D01*
X13692972Y-7636160D02*
X13673924Y-7645684D01*
X13673924Y-7645684D02*
X13645352Y-7645684D01*
X13826305Y-7645684D02*
X13807257Y-7636160D01*
X13807257Y-7636160D02*
X13797733Y-7617112D01*
X13797733Y-7617112D02*
X13797733Y-7445684D01*
X13978686Y-7636160D02*
X13959638Y-7645684D01*
X13959638Y-7645684D02*
X13921543Y-7645684D01*
X13921543Y-7645684D02*
X13902495Y-7636160D01*
X13902495Y-7636160D02*
X13892972Y-7617112D01*
X13892972Y-7617112D02*
X13892972Y-7540922D01*
X13892972Y-7540922D02*
X13902495Y-7521874D01*
X13902495Y-7521874D02*
X13921543Y-7512350D01*
X13921543Y-7512350D02*
X13959638Y-7512350D01*
X13959638Y-7512350D02*
X13978686Y-7521874D01*
X13978686Y-7521874D02*
X13988210Y-7540922D01*
X13988210Y-7540922D02*
X13988210Y-7559969D01*
X13988210Y-7559969D02*
X13892972Y-7579017D01*
X14064400Y-7636160D02*
X14083448Y-7645684D01*
X14083448Y-7645684D02*
X14121543Y-7645684D01*
X14121543Y-7645684D02*
X14140591Y-7636160D01*
X14140591Y-7636160D02*
X14150114Y-7617112D01*
X14150114Y-7617112D02*
X14150114Y-7607588D01*
X14150114Y-7607588D02*
X14140591Y-7588541D01*
X14140591Y-7588541D02*
X14121543Y-7579017D01*
X14121543Y-7579017D02*
X14092972Y-7579017D01*
X14092972Y-7579017D02*
X14073924Y-7569493D01*
X14073924Y-7569493D02*
X14064400Y-7550446D01*
X14064400Y-7550446D02*
X14064400Y-7540922D01*
X14064400Y-7540922D02*
X14073924Y-7521874D01*
X14073924Y-7521874D02*
X14092972Y-7512350D01*
X14092972Y-7512350D02*
X14121543Y-7512350D01*
X14121543Y-7512350D02*
X14140591Y-7521874D01*
X14216781Y-7721874D02*
X14226305Y-7712350D01*
X14226305Y-7712350D02*
X14245353Y-7683779D01*
X14245353Y-7683779D02*
X14254876Y-7664731D01*
X14254876Y-7664731D02*
X14264400Y-7636160D01*
X14264400Y-7636160D02*
X14273924Y-7588541D01*
X14273924Y-7588541D02*
X14273924Y-7550446D01*
X14273924Y-7550446D02*
X14264400Y-7502827D01*
X14264400Y-7502827D02*
X14254876Y-7474255D01*
X14254876Y-7474255D02*
X14245353Y-7455208D01*
X14245353Y-7455208D02*
X14226305Y-7426636D01*
X14226305Y-7426636D02*
X14216781Y-7417112D01*
M02*
