M48
; DRILL file {KiCad 8.0.2} date 2024-05-17T20:22:55+0200
; FORMAT={-:-/ absolute / metric / decimal}
; #@! TF.CreationDate,2024-05-17T20:22:55+02:00
; #@! TF.GenerationSoftware,Kicad,Pcbnew,8.0.2
; #@! TF.FileFunction,Plated,1,2,PTH
FMAT,2
METRIC
; #@! TA.AperFunction,Plated,PTH,ComponentDrill
T1C0.300
; #@! TA.AperFunction,Plated,PTH,ViaDrill
T2C0.400
; #@! TA.AperFunction,Plated,PTH,ComponentDrill
T3C0.400
; #@! TA.AperFunction,Plated,PTH,ComponentDrill
T4C0.650
; #@! TA.AperFunction,Plated,PTH,ComponentDrill
T5C1.000
%
G90
G05
T1
X104.14Y-38.64
X104.14Y-39.64
X104.14Y-40.64
X105.14Y-38.64
X105.14Y-39.64
X105.14Y-40.64
X106.14Y-38.64
X106.14Y-39.64
X106.14Y-40.64
T2
X93.218Y-39.624
X93.337Y-30.825
X93.472Y-51.46
X93.503Y-27.904
X93.751Y-58.039
X93.98Y-43.688
X94.77Y-34.595
X97.333Y-31.711
X98.254Y-47.715
X98.45Y-36.322
X99.919Y-37.444
X100.648Y-35.486
X100.683Y-38.204
X101.573Y-34.257
X102.806Y-45.148
X103.384Y-36.18
X103.775Y-31.685
X104.234Y-34.327
X104.267Y-45.212
X104.521Y-51.511
X105.336Y-46.925
X105.709Y-45.254
X105.715Y-57.582
X107.247Y-35.872
X109.104Y-39.368
X110.303Y-41.074
X110.465Y-54.331
X111.125Y-42.578
X112.222Y-36.441
X112.894Y-37.464
X112.979Y-35.306
X113.944Y-38.71
X114.63Y-44.45
X114.656Y-53.162
X114.656Y-57.582
X114.689Y-30.582
X115.087Y-48.895
X115.105Y-37.498
T4
X109.22Y-51.435
X111.76Y-51.435
T5
X94.742Y-29.21
X97.282Y-29.21
X99.822Y-29.21
X102.362Y-29.21
X102.464Y-32.868
X104.902Y-29.21
X105.004Y-32.868
X107.442Y-29.21
X107.544Y-32.868
X108.839Y-46.355
X110.084Y-32.868
X111.379Y-46.355
X112.624Y-32.868
X113.919Y-46.355
T3
G00X94.06Y-48.522
M15
G01X94.06Y-49.522
M16
G05
G00X96.56Y-48.522
M15
G01X96.56Y-49.522
M16
G05
G00X98.56Y-54.022
M15
G01X99.56Y-54.022
M16
G05
G00X101.56Y-49.522
M15
G01X101.56Y-48.522
M16
G05
G00X104.06Y-49.522
M15
G01X104.06Y-48.522
M16
G05
M30
