%TF.GenerationSoftware,KiCad,Pcbnew,8.0.2*%
%TF.CreationDate,2024-05-17T20:22:52+02:00*%
%TF.ProjectId,AnalogI2SMic,416e616c-6f67-4493-9253-4d69632e6b69,rev?*%
%TF.SameCoordinates,Original*%
%TF.FileFunction,Copper,L2,Bot*%
%TF.FilePolarity,Positive*%
%FSLAX46Y46*%
G04 Gerber Fmt 4.6, Leading zero omitted, Abs format (unit mm)*
G04 Created by KiCad (PCBNEW 8.0.2) date 2024-05-17 20:22:52*
%MOMM*%
%LPD*%
G01*
G04 APERTURE LIST*
%TA.AperFunction,EtchedComponent*%
%ADD10C,0.000000*%
%TD*%
%TA.AperFunction,ComponentPad*%
%ADD11R,1.700000X1.700000*%
%TD*%
%TA.AperFunction,ComponentPad*%
%ADD12O,1.700000X1.700000*%
%TD*%
%TA.AperFunction,ComponentPad*%
%ADD13O,1.200000X2.200000*%
%TD*%
%TA.AperFunction,ComponentPad*%
%ADD14O,2.200000X1.200000*%
%TD*%
%TA.AperFunction,ComponentPad*%
%ADD15R,1.500000X1.500000*%
%TD*%
%TA.AperFunction,ComponentPad*%
%ADD16C,1.500000*%
%TD*%
%TA.AperFunction,ComponentPad*%
%ADD17C,0.500000*%
%TD*%
%TA.AperFunction,SMDPad,CuDef*%
%ADD18R,2.500000X2.500000*%
%TD*%
%TA.AperFunction,SMDPad,CuDef*%
%ADD19R,1.500000X1.000000*%
%TD*%
%TA.AperFunction,ViaPad*%
%ADD20C,1.200000*%
%TD*%
%TA.AperFunction,ViaPad*%
%ADD21C,0.800000*%
%TD*%
%TA.AperFunction,Conductor*%
%ADD22C,0.500000*%
%TD*%
%TA.AperFunction,Conductor*%
%ADD23C,0.250000*%
%TD*%
G04 APERTURE END LIST*
D10*
%TA.AperFunction,EtchedComponent*%
%TO.C,JP3*%
G36*
X93957800Y-41916400D02*
G01*
X93557800Y-41916400D01*
X93557800Y-41416400D01*
X93957800Y-41416400D01*
X93957800Y-41916400D01*
G37*
%TD.AperFunction*%
%TA.AperFunction,EtchedComponent*%
G36*
X94757800Y-41916400D02*
G01*
X94357800Y-41916400D01*
X94357800Y-41416400D01*
X94757800Y-41416400D01*
X94757800Y-41916400D01*
G37*
%TD.AperFunction*%
%TA.AperFunction,EtchedComponent*%
%TO.C,JP4*%
G36*
X114354000Y-41764000D02*
G01*
X113954000Y-41764000D01*
X113954000Y-41264000D01*
X114354000Y-41264000D01*
X114354000Y-41764000D01*
G37*
%TD.AperFunction*%
%TA.AperFunction,EtchedComponent*%
G36*
X115154000Y-41764000D02*
G01*
X114754000Y-41764000D01*
X114754000Y-41264000D01*
X115154000Y-41264000D01*
X115154000Y-41764000D01*
G37*
%TD.AperFunction*%
%TD*%
D11*
%TO.P,J2,1,Pin_1*%
%TO.N,Net-(J2-Pin_1)*%
X113919000Y-46355000D03*
D12*
%TO.P,J2,2,Pin_2*%
%TO.N,Net-(J2-Pin_2)*%
X111379000Y-46355000D03*
%TO.P,J2,3,Pin_3*%
%TO.N,Net-(J2-Pin_3)*%
X108839000Y-46355000D03*
%TD*%
D11*
%TO.P,J4,1,Pin_1*%
%TO.N,+3.3V*%
X94742000Y-29210000D03*
D12*
%TO.P,J4,2,Pin_2*%
%TO.N,I2S_BCLK*%
X97282000Y-29210000D03*
%TO.P,J4,3,Pin_3*%
%TO.N,I2S_MCLK*%
X99822000Y-29210000D03*
%TO.P,J4,4,Pin_4*%
%TO.N,I2S_DOUT*%
X102362000Y-29210000D03*
%TO.P,J4,5,Pin_5*%
%TO.N,I2S_WCLK*%
X104902000Y-29210000D03*
%TO.P,J4,6,Pin_6*%
%TO.N,GND*%
X107442000Y-29210000D03*
%TD*%
D11*
%TO.P,J3,1,Pin_1*%
%TO.N,GPIO1*%
X112623600Y-32867600D03*
D12*
%TO.P,J3,2,Pin_2*%
%TO.N,I2C_SCL*%
X110083600Y-32867600D03*
%TO.P,J3,3,Pin_3*%
%TO.N,I2C_SDA*%
X107543600Y-32867600D03*
%TO.P,J3,4,Pin_4*%
%TO.N,GPIO2*%
X105003600Y-32867600D03*
%TO.P,J3,5,Pin_5*%
%TO.N,ENABLE*%
X102463600Y-32867600D03*
%TD*%
D13*
%TO.P,J1,R*%
%TO.N,Net-(C10-Pad2)*%
X94060000Y-49022000D03*
%TO.P,J1,RN*%
%TO.N,unconnected-(J1-PadRN)*%
X96560000Y-49022000D03*
D14*
%TO.P,J1,S*%
%TO.N,GNDA*%
X99060000Y-54022000D03*
D13*
%TO.P,J1,T*%
%TO.N,Net-(J2-Pin_3)*%
X104060000Y-49022000D03*
%TO.P,J1,TN*%
%TO.N,unconnected-(J1-PadTN)*%
X101560000Y-49022000D03*
%TD*%
D15*
%TO.P,MK1,1,-*%
%TO.N,GNDA*%
X109220000Y-51435000D03*
D16*
%TO.P,MK1,2,+*%
%TO.N,Net-(J2-Pin_1)*%
X111760000Y-51435000D03*
%TD*%
D17*
%TO.P,U1,25,PAD*%
%TO.N,GNDA*%
X104140000Y-38640000D03*
X104140000Y-39640000D03*
X104140000Y-40640000D03*
X105140000Y-38640000D03*
X105140000Y-39640000D03*
D18*
X105140000Y-39640000D03*
D17*
X105140000Y-40640000D03*
X106140000Y-38640000D03*
X106140000Y-39640000D03*
X106140000Y-40640000D03*
%TD*%
D19*
%TO.P,JP3,1,A*%
%TO.N,GND*%
X94157800Y-41016400D03*
%TO.P,JP3,2,B*%
%TO.N,GNDA*%
X94157800Y-42316400D03*
%TD*%
%TO.P,JP4,1,A*%
%TO.N,GND*%
X114554000Y-40864000D03*
%TO.P,JP4,2,B*%
%TO.N,GNDA*%
X114554000Y-42164000D03*
%TD*%
D20*
%TO.N,GND*%
X98450400Y-36322000D03*
D21*
X93218000Y-39624000D03*
X93503141Y-27903721D03*
D20*
X101573197Y-34256730D03*
X112894400Y-37463727D03*
X115104900Y-37498300D03*
D21*
X93336908Y-30825459D03*
D20*
X114688883Y-30581600D03*
X104233640Y-34326938D03*
%TO.N,+3.3VA*%
X105708861Y-45254358D03*
X111125000Y-42578500D03*
D21*
%TO.N,GNDA*%
X98253850Y-47714500D03*
X104521000Y-51511200D03*
X114655600Y-53162200D03*
D20*
X114630200Y-44450000D03*
D21*
X114655600Y-57581800D03*
X105714800Y-57581800D03*
D20*
X110302710Y-41073728D03*
X93980000Y-43688000D03*
D21*
X115087400Y-48895000D03*
X93751400Y-58039000D03*
X93472000Y-51460400D03*
X110464600Y-54330600D03*
D20*
X104267000Y-45212000D03*
%TO.N,+1V8*%
X94770000Y-34594800D03*
D21*
X103383640Y-36179575D03*
D20*
%TO.N,+3.3V*%
X112979200Y-35305826D03*
D21*
X107246600Y-35872301D03*
D20*
X113944400Y-38709600D03*
D21*
%TO.N,Net-(J2-Pin_2)*%
X102806500Y-45148500D03*
%TO.N,Net-(C10-Pad2)*%
X105336070Y-46924668D03*
%TO.N,I2S_DOUT*%
X100648197Y-35486497D03*
X99918947Y-37444253D03*
%TO.N,I2S_WCLK*%
X103775003Y-31685100D03*
X100683453Y-38203747D03*
%TO.N,Net-(U1-I2C_ADR0)*%
X112221518Y-36440817D03*
X109104052Y-39367546D03*
%TO.N,ENABLE*%
X97332800Y-31711000D03*
%TD*%
D22*
%TO.N,GND*%
X99466400Y-30835600D02*
X99441000Y-30861000D01*
X115104900Y-37498300D02*
X115104900Y-40313100D01*
X100515670Y-34256730D02*
X98450400Y-36322000D01*
X93336908Y-28069954D02*
X93336908Y-30825459D01*
X93336908Y-30825459D02*
X92960000Y-31202367D01*
X105003600Y-30835600D02*
X100736400Y-30835600D01*
X114688883Y-37082283D02*
X114688883Y-30581600D01*
X100736400Y-30835600D02*
X99466400Y-30835600D01*
X104233640Y-34326938D02*
X104233640Y-36845592D01*
X105410000Y-31242000D02*
X105003600Y-30835600D01*
X93218000Y-39624000D02*
X92968000Y-39874000D01*
X115104900Y-40313100D02*
X114554000Y-40864000D01*
X104233640Y-36845592D02*
X101325485Y-39753747D01*
X94102400Y-41016400D02*
X92960000Y-39874000D01*
X105410000Y-31242000D02*
X107442000Y-29210000D01*
X92960000Y-31202367D02*
X92960000Y-31246000D01*
X101573197Y-34256730D02*
X100515670Y-34256730D01*
X101325485Y-39753747D02*
X93347747Y-39753747D01*
X108661200Y-31242000D02*
X105410000Y-31242000D01*
X115104900Y-37498300D02*
X114688883Y-37082283D01*
X98450400Y-35938951D02*
X93336908Y-30825459D01*
X93347747Y-39753747D02*
X93218000Y-39624000D01*
X115104900Y-37498300D02*
X115104900Y-39034025D01*
X92960000Y-39874000D02*
X92960000Y-31246000D01*
X109067600Y-30835600D02*
X108661200Y-31242000D01*
X98450400Y-36322000D02*
X98450400Y-35938951D01*
X114362525Y-39776400D02*
X113526275Y-39776400D01*
X93503141Y-27903721D02*
X93336908Y-28069954D01*
X115104900Y-39034025D02*
X114362525Y-39776400D01*
X93345000Y-30861000D02*
X92960000Y-31246000D01*
X112725200Y-37294527D02*
X112894400Y-37463727D01*
X92968000Y-39874000D02*
X92960000Y-39874000D01*
X99441000Y-30861000D02*
X93345000Y-30861000D01*
X113526275Y-39776400D02*
X112725200Y-38975325D01*
X112725200Y-38975325D02*
X112725200Y-37294527D01*
%TO.N,+3.3VA*%
X111125000Y-42578500D02*
X110015500Y-43688000D01*
X110015500Y-43688000D02*
X107275219Y-43688000D01*
X105708861Y-45254358D02*
X107275219Y-43688000D01*
%TO.N,GNDA*%
X104267000Y-44729400D02*
X104267000Y-45212000D01*
X93010000Y-48087076D02*
X97104276Y-43992800D01*
X98253850Y-47714500D02*
X97960000Y-48008350D01*
X104267000Y-45212000D02*
X107950000Y-41529000D01*
X107950000Y-41529000D02*
X110439200Y-41529000D01*
X97960000Y-48008350D02*
X97960000Y-49606924D01*
X115087400Y-48895000D02*
X114655600Y-49326800D01*
X114630200Y-44450000D02*
X114630200Y-42240200D01*
X97960000Y-49606924D02*
X96994924Y-50572000D01*
X93751400Y-58039000D02*
X95043000Y-58039000D01*
X93625076Y-50572000D02*
X93010000Y-49956924D01*
X95043000Y-58039000D02*
X99060000Y-54022000D01*
X94157800Y-42316400D02*
X94157800Y-43510200D01*
X114630200Y-44450000D02*
X114630200Y-43891200D01*
X114655600Y-57581800D02*
X105714800Y-57581800D01*
X110439200Y-41210218D02*
X110302710Y-41073728D01*
X112268000Y-41529000D02*
X110439200Y-41529000D01*
X109220000Y-51435000D02*
X109220000Y-52146200D01*
X114630200Y-43891200D02*
X112268000Y-41529000D01*
X96994924Y-50572000D02*
X93625076Y-50572000D01*
X107213400Y-57581800D02*
X110464600Y-54330600D01*
X114655600Y-49326800D02*
X114655600Y-53162200D01*
X99060000Y-54022000D02*
X96033600Y-54022000D01*
X97104276Y-43992800D02*
X103530400Y-43992800D01*
X114630200Y-42240200D02*
X114554000Y-42164000D01*
X105714800Y-57581800D02*
X107213400Y-57581800D01*
X94157800Y-43510200D02*
X93980000Y-43688000D01*
X105638600Y-57505600D02*
X105714800Y-57581800D01*
X96033600Y-54022000D02*
X93472000Y-51460400D01*
X103530400Y-43992800D02*
X104267000Y-44729400D01*
X114655600Y-57581800D02*
X114655600Y-53162200D01*
X93010000Y-49956924D02*
X93010000Y-48087076D01*
X109220000Y-52146200D02*
X114655600Y-57581800D01*
X110439200Y-41529000D02*
X110439200Y-41210218D01*
%TO.N,+1V8*%
X103383640Y-36179575D02*
X101727297Y-37835918D01*
X101533453Y-38555829D02*
X101035535Y-39053747D01*
X101727297Y-37835918D02*
X101549200Y-37835918D01*
X101035535Y-39053747D02*
X98692947Y-39053747D01*
X101533453Y-37851665D02*
X101533453Y-38555829D01*
X94770000Y-35130800D02*
X94770000Y-34594800D01*
X98692947Y-39053747D02*
X94770000Y-35130800D01*
X101549200Y-37835918D02*
X101533453Y-37851665D01*
%TO.N,+3.3V*%
X96042000Y-27910000D02*
X108072400Y-27910000D01*
D23*
X107246600Y-35872301D02*
X107507053Y-35611848D01*
D22*
X94742000Y-29210000D02*
X96042000Y-27910000D01*
X112979200Y-35305826D02*
X113944400Y-36271026D01*
X112979200Y-35305826D02*
X107813075Y-35305826D01*
X108072400Y-27910000D02*
X111455200Y-31292800D01*
X113648800Y-31292800D02*
X113944400Y-31588400D01*
X111455200Y-31292800D02*
X113648800Y-31292800D01*
X113944400Y-31588400D02*
X113944400Y-38709600D01*
X107813075Y-35305826D02*
X107246600Y-35872301D01*
D23*
%TO.N,Net-(J2-Pin_2)*%
X110204000Y-47530000D02*
X111379000Y-46355000D01*
X105615358Y-46179358D02*
X106966000Y-47530000D01*
X106966000Y-47530000D02*
X110204000Y-47530000D01*
X103837358Y-46179358D02*
X105615358Y-46179358D01*
X102806500Y-45148500D02*
X103837358Y-46179358D01*
%TO.N,Net-(C10-Pad2)*%
X96092000Y-46990000D02*
X94060000Y-49022000D01*
X105336070Y-46924668D02*
X105270738Y-46990000D01*
X105270738Y-46990000D02*
X96092000Y-46990000D01*
%TO.N,I2S_DOUT*%
X99918947Y-36215747D02*
X100648197Y-35486497D01*
X99918947Y-37444253D02*
X99918947Y-36215747D01*
%TO.N,I2S_WCLK*%
X103784400Y-33375600D02*
X103784400Y-31694497D01*
X100683453Y-38203747D02*
X100683453Y-36476547D01*
X100683453Y-36476547D02*
X103784400Y-33375600D01*
X103784400Y-31694497D02*
X103775003Y-31685100D01*
%TO.N,Net-(U1-I2C_ADR0)*%
X109349454Y-39367546D02*
X109104052Y-39367546D01*
X112221518Y-36495482D02*
X109349454Y-39367546D01*
X112221518Y-36440817D02*
X112221518Y-36495482D01*
%TO.N,ENABLE*%
X101307000Y-31711000D02*
X102463600Y-32867600D01*
X97332800Y-31711000D02*
X101307000Y-31711000D01*
D22*
%TO.N,GPIO1*%
X112649000Y-32893000D02*
X112496600Y-32893000D01*
%TD*%
%TA.AperFunction,Conductor*%
%TO.N,GNDA*%
G36*
X112852216Y-40167923D02*
G01*
X112873429Y-40184922D01*
X112943296Y-40254789D01*
X112943310Y-40254802D01*
X112943324Y-40254816D01*
X113047859Y-40359351D01*
X113047862Y-40359353D01*
X113047863Y-40359354D01*
X113100831Y-40394746D01*
X113170780Y-40441484D01*
X113226952Y-40464751D01*
X113281355Y-40508591D01*
X113303421Y-40574885D01*
X113303500Y-40579312D01*
X113303500Y-41411870D01*
X113303501Y-41411876D01*
X113309909Y-41471487D01*
X113311692Y-41479031D01*
X113310438Y-41479327D01*
X113314856Y-41541069D01*
X113310864Y-41554664D01*
X113310401Y-41556624D01*
X113304000Y-41616155D01*
X113304000Y-41914000D01*
X114680000Y-41914000D01*
X114747039Y-41933685D01*
X114792794Y-41986489D01*
X114804000Y-42038000D01*
X114804000Y-43164000D01*
X115351828Y-43164000D01*
X115351844Y-43163999D01*
X115411372Y-43157598D01*
X115411379Y-43157596D01*
X115546086Y-43107354D01*
X115546089Y-43107352D01*
X115625688Y-43047764D01*
X115691152Y-43023346D01*
X115759425Y-43038197D01*
X115808831Y-43087601D01*
X115824000Y-43147030D01*
X115824000Y-57605065D01*
X115821238Y-57631092D01*
X115784546Y-57802010D01*
X115777245Y-57824916D01*
X115708721Y-57984468D01*
X115697136Y-58005535D01*
X115599109Y-58148868D01*
X115583678Y-58167303D01*
X115459839Y-58289021D01*
X115441140Y-58304132D01*
X115296138Y-58399667D01*
X115274874Y-58410886D01*
X115114159Y-58476645D01*
X115091129Y-58483549D01*
X114919297Y-58517342D01*
X114898307Y-58519638D01*
X114811476Y-58521696D01*
X114808542Y-58521731D01*
X105560000Y-58522000D01*
X101384000Y-58522000D01*
X101316961Y-58502315D01*
X101271206Y-58449511D01*
X101260000Y-58398000D01*
X101260000Y-57521991D01*
X101257538Y-57459040D01*
X101257538Y-57459038D01*
X101257538Y-57459036D01*
X101218624Y-57339272D01*
X101144606Y-57237394D01*
X101069224Y-57182626D01*
X101042730Y-57163377D01*
X101042725Y-57163375D01*
X101033424Y-57160353D01*
X100922964Y-57124462D01*
X100922962Y-57124461D01*
X100922960Y-57124461D01*
X100860009Y-57122000D01*
X100860000Y-57122000D01*
X97260000Y-57122000D01*
X97259991Y-57122000D01*
X97197040Y-57124461D01*
X97197038Y-57124461D01*
X97077274Y-57163375D01*
X97077269Y-57163377D01*
X96975394Y-57237394D01*
X96901377Y-57339269D01*
X96901375Y-57339274D01*
X96862461Y-57459038D01*
X96862461Y-57459040D01*
X96860000Y-57521991D01*
X96860000Y-58398000D01*
X96840315Y-58465039D01*
X96787511Y-58510794D01*
X96736000Y-58522000D01*
X93980000Y-58522000D01*
X93579791Y-58521601D01*
X93577080Y-58521569D01*
X93489353Y-58519563D01*
X93467999Y-58517213D01*
X93294704Y-58482745D01*
X93271442Y-58475689D01*
X93109519Y-58408621D01*
X93088081Y-58397162D01*
X92942361Y-58299798D01*
X92923569Y-58284377D01*
X92799635Y-58160445D01*
X92784215Y-58141655D01*
X92686846Y-57995936D01*
X92675386Y-57974497D01*
X92608316Y-57812575D01*
X92601260Y-57789313D01*
X92585383Y-57709494D01*
X92583000Y-57685303D01*
X92583000Y-56438228D01*
X93209500Y-56438228D01*
X93209500Y-56605771D01*
X93242182Y-56770074D01*
X93242184Y-56770082D01*
X93306295Y-56924860D01*
X93399373Y-57064162D01*
X93517837Y-57182626D01*
X93599804Y-57237394D01*
X93657137Y-57275703D01*
X93811918Y-57339816D01*
X93976228Y-57372499D01*
X93976232Y-57372500D01*
X93976233Y-57372500D01*
X94143768Y-57372500D01*
X94143769Y-57372499D01*
X94308082Y-57339816D01*
X94462863Y-57275703D01*
X94602162Y-57182626D01*
X94720626Y-57064162D01*
X94813703Y-56924863D01*
X94877816Y-56770082D01*
X94910500Y-56605767D01*
X94910500Y-56438233D01*
X94910499Y-56438228D01*
X103209500Y-56438228D01*
X103209500Y-56605771D01*
X103242182Y-56770074D01*
X103242184Y-56770082D01*
X103306295Y-56924860D01*
X103399373Y-57064162D01*
X103517837Y-57182626D01*
X103599804Y-57237394D01*
X103657137Y-57275703D01*
X103811918Y-57339816D01*
X103976228Y-57372499D01*
X103976232Y-57372500D01*
X103976233Y-57372500D01*
X104143768Y-57372500D01*
X104143769Y-57372499D01*
X104308082Y-57339816D01*
X104462863Y-57275703D01*
X104602162Y-57182626D01*
X104720626Y-57064162D01*
X104813703Y-56924863D01*
X104877816Y-56770082D01*
X104910500Y-56605767D01*
X104910500Y-56438233D01*
X104877816Y-56273918D01*
X104813703Y-56119137D01*
X104782537Y-56072494D01*
X104720626Y-55979837D01*
X104602162Y-55861373D01*
X104462860Y-55768295D01*
X104308082Y-55704184D01*
X104308074Y-55704182D01*
X104143771Y-55671500D01*
X104143767Y-55671500D01*
X103976233Y-55671500D01*
X103976228Y-55671500D01*
X103811925Y-55704182D01*
X103811917Y-55704184D01*
X103657139Y-55768295D01*
X103517837Y-55861373D01*
X103399373Y-55979837D01*
X103306295Y-56119139D01*
X103242184Y-56273917D01*
X103242182Y-56273925D01*
X103209500Y-56438228D01*
X94910499Y-56438228D01*
X94877816Y-56273918D01*
X94813703Y-56119137D01*
X94782537Y-56072494D01*
X94720626Y-55979837D01*
X94602162Y-55861373D01*
X94462860Y-55768295D01*
X94308082Y-55704184D01*
X94308074Y-55704182D01*
X94143771Y-55671500D01*
X94143767Y-55671500D01*
X93976233Y-55671500D01*
X93976228Y-55671500D01*
X93811925Y-55704182D01*
X93811917Y-55704184D01*
X93657139Y-55768295D01*
X93517837Y-55861373D01*
X93399373Y-55979837D01*
X93306295Y-56119139D01*
X93242184Y-56273917D01*
X93242182Y-56273925D01*
X93209500Y-56438228D01*
X92583000Y-56438228D01*
X92583000Y-53938228D01*
X93209500Y-53938228D01*
X93209500Y-54105771D01*
X93242182Y-54270074D01*
X93242184Y-54270082D01*
X93306295Y-54424860D01*
X93399373Y-54564162D01*
X93517837Y-54682626D01*
X93601612Y-54738602D01*
X93657137Y-54775703D01*
X93811918Y-54839816D01*
X93976228Y-54872499D01*
X93976232Y-54872500D01*
X93976233Y-54872500D01*
X94143768Y-54872500D01*
X94143769Y-54872499D01*
X94308082Y-54839816D01*
X94462863Y-54775703D01*
X94602162Y-54682626D01*
X94720626Y-54564162D01*
X94813703Y-54424863D01*
X94877022Y-54272000D01*
X97485885Y-54272000D01*
X97487085Y-54279584D01*
X97540591Y-54444255D01*
X97619195Y-54598524D01*
X97720967Y-54738602D01*
X97843397Y-54861032D01*
X97983475Y-54962804D01*
X98137742Y-55041408D01*
X98302415Y-55094914D01*
X98473429Y-55122000D01*
X98810000Y-55122000D01*
X99310000Y-55122000D01*
X99646571Y-55122000D01*
X99817584Y-55094914D01*
X99982257Y-55041408D01*
X100136524Y-54962804D01*
X100276602Y-54861032D01*
X100399032Y-54738602D01*
X100500804Y-54598524D01*
X100579408Y-54444255D01*
X100632914Y-54279584D01*
X100634115Y-54272000D01*
X99310000Y-54272000D01*
X99310000Y-55122000D01*
X98810000Y-55122000D01*
X98810000Y-54272000D01*
X97485885Y-54272000D01*
X94877022Y-54272000D01*
X94877816Y-54270082D01*
X94910500Y-54105767D01*
X94910500Y-53982218D01*
X98360000Y-53982218D01*
X98360000Y-54061782D01*
X98390448Y-54135291D01*
X98446709Y-54191552D01*
X98520218Y-54222000D01*
X99599782Y-54222000D01*
X99673291Y-54191552D01*
X99729552Y-54135291D01*
X99760000Y-54061782D01*
X99760000Y-53982218D01*
X99741779Y-53938228D01*
X103209500Y-53938228D01*
X103209500Y-54105771D01*
X103242182Y-54270074D01*
X103242184Y-54270082D01*
X103306295Y-54424860D01*
X103399373Y-54564162D01*
X103517837Y-54682626D01*
X103601612Y-54738602D01*
X103657137Y-54775703D01*
X103811918Y-54839816D01*
X103976228Y-54872499D01*
X103976232Y-54872500D01*
X103976233Y-54872500D01*
X104143768Y-54872500D01*
X104143769Y-54872499D01*
X104308082Y-54839816D01*
X104462863Y-54775703D01*
X104602162Y-54682626D01*
X104720626Y-54564162D01*
X104813703Y-54424863D01*
X104877816Y-54270082D01*
X104910500Y-54105767D01*
X104910500Y-53938233D01*
X104877816Y-53773918D01*
X104813703Y-53619137D01*
X104782537Y-53572494D01*
X104720626Y-53479837D01*
X104602162Y-53361373D01*
X104462860Y-53268295D01*
X104308082Y-53204184D01*
X104308074Y-53204182D01*
X104143771Y-53171500D01*
X104143767Y-53171500D01*
X103976233Y-53171500D01*
X103976228Y-53171500D01*
X103811925Y-53204182D01*
X103811917Y-53204184D01*
X103657139Y-53268295D01*
X103517837Y-53361373D01*
X103399373Y-53479837D01*
X103306295Y-53619139D01*
X103242184Y-53773917D01*
X103242182Y-53773925D01*
X103209500Y-53938228D01*
X99741779Y-53938228D01*
X99729552Y-53908709D01*
X99673291Y-53852448D01*
X99599782Y-53822000D01*
X98520218Y-53822000D01*
X98446709Y-53852448D01*
X98390448Y-53908709D01*
X98360000Y-53982218D01*
X94910500Y-53982218D01*
X94910500Y-53938233D01*
X94877816Y-53773918D01*
X94877021Y-53771999D01*
X97485884Y-53771999D01*
X97485885Y-53772000D01*
X98810000Y-53772000D01*
X99310000Y-53772000D01*
X100634115Y-53772000D01*
X100634115Y-53771999D01*
X100632914Y-53764415D01*
X100579408Y-53599744D01*
X100500804Y-53445475D01*
X100399032Y-53305397D01*
X100276602Y-53182967D01*
X100136524Y-53081195D01*
X99982257Y-53002591D01*
X99817584Y-52949085D01*
X99646571Y-52922000D01*
X99310000Y-52922000D01*
X99310000Y-53772000D01*
X98810000Y-53772000D01*
X98810000Y-52922000D01*
X98473429Y-52922000D01*
X98302415Y-52949085D01*
X98137742Y-53002591D01*
X97983475Y-53081195D01*
X97843397Y-53182967D01*
X97720967Y-53305397D01*
X97619195Y-53445475D01*
X97540591Y-53599744D01*
X97487085Y-53764415D01*
X97485884Y-53771999D01*
X94877021Y-53771999D01*
X94813703Y-53619137D01*
X94782537Y-53572494D01*
X94720626Y-53479837D01*
X94602162Y-53361373D01*
X94462860Y-53268295D01*
X94308082Y-53204184D01*
X94308074Y-53204182D01*
X94143771Y-53171500D01*
X94143767Y-53171500D01*
X93976233Y-53171500D01*
X93976228Y-53171500D01*
X93811925Y-53204182D01*
X93811917Y-53204184D01*
X93657139Y-53268295D01*
X93517837Y-53361373D01*
X93399373Y-53479837D01*
X93306295Y-53619139D01*
X93242184Y-53773917D01*
X93242182Y-53773925D01*
X93209500Y-53938228D01*
X92583000Y-53938228D01*
X92583000Y-52232844D01*
X107970000Y-52232844D01*
X107976401Y-52292372D01*
X107976403Y-52292379D01*
X108026645Y-52427086D01*
X108026649Y-52427093D01*
X108112809Y-52542187D01*
X108112812Y-52542190D01*
X108227906Y-52628350D01*
X108227913Y-52628354D01*
X108362620Y-52678596D01*
X108362627Y-52678598D01*
X108422155Y-52684999D01*
X108422172Y-52685000D01*
X108970000Y-52685000D01*
X108970000Y-51685000D01*
X107970000Y-51685000D01*
X107970000Y-52232844D01*
X92583000Y-52232844D01*
X92583000Y-51392213D01*
X108895000Y-51392213D01*
X108895000Y-51477787D01*
X108917149Y-51560445D01*
X108959936Y-51634554D01*
X109020446Y-51695064D01*
X109094555Y-51737851D01*
X109177213Y-51760000D01*
X109262787Y-51760000D01*
X109345445Y-51737851D01*
X109419554Y-51695064D01*
X109470000Y-51644618D01*
X109470000Y-52685000D01*
X110017828Y-52685000D01*
X110017844Y-52684999D01*
X110077372Y-52678598D01*
X110077379Y-52678596D01*
X110212086Y-52628354D01*
X110212093Y-52628350D01*
X110327187Y-52542190D01*
X110327190Y-52542187D01*
X110413350Y-52427093D01*
X110413354Y-52427086D01*
X110463596Y-52292379D01*
X110463598Y-52292372D01*
X110469999Y-52232844D01*
X110470000Y-52232827D01*
X110470000Y-52166148D01*
X110489685Y-52099109D01*
X110542489Y-52053354D01*
X110611647Y-52043410D01*
X110675203Y-52072435D01*
X110695571Y-52095020D01*
X110798402Y-52241877D01*
X110953123Y-52396598D01*
X111132361Y-52522102D01*
X111330670Y-52614575D01*
X111542023Y-52671207D01*
X111724926Y-52687208D01*
X111759998Y-52690277D01*
X111760000Y-52690277D01*
X111760002Y-52690277D01*
X111788254Y-52687805D01*
X111977977Y-52671207D01*
X112189330Y-52614575D01*
X112387639Y-52522102D01*
X112566877Y-52396598D01*
X112721598Y-52241877D01*
X112847102Y-52062639D01*
X112939575Y-51864330D01*
X112996207Y-51652977D01*
X113015277Y-51435000D01*
X112996207Y-51217023D01*
X112939575Y-51005670D01*
X112847102Y-50807362D01*
X112847100Y-50807359D01*
X112847099Y-50807357D01*
X112721599Y-50628124D01*
X112671095Y-50577620D01*
X112566877Y-50473402D01*
X112387639Y-50347898D01*
X112387640Y-50347898D01*
X112387638Y-50347897D01*
X112288484Y-50301661D01*
X112189330Y-50255425D01*
X112189326Y-50255424D01*
X112189322Y-50255422D01*
X111977977Y-50198793D01*
X111760002Y-50179723D01*
X111759998Y-50179723D01*
X111626516Y-50191401D01*
X111542023Y-50198793D01*
X111542020Y-50198793D01*
X111330677Y-50255422D01*
X111330668Y-50255426D01*
X111132361Y-50347898D01*
X111132357Y-50347900D01*
X110953121Y-50473402D01*
X110798402Y-50628121D01*
X110695575Y-50774975D01*
X110640998Y-50818600D01*
X110571500Y-50825794D01*
X110509145Y-50794271D01*
X110473731Y-50734041D01*
X110470000Y-50703852D01*
X110470000Y-50637172D01*
X110469999Y-50637155D01*
X110463598Y-50577627D01*
X110463596Y-50577620D01*
X110413354Y-50442913D01*
X110413350Y-50442906D01*
X110327190Y-50327812D01*
X110327187Y-50327809D01*
X110212093Y-50241649D01*
X110212086Y-50241645D01*
X110077379Y-50191403D01*
X110077372Y-50191401D01*
X110017844Y-50185000D01*
X109470000Y-50185000D01*
X109470000Y-51225382D01*
X109419554Y-51174936D01*
X109345445Y-51132149D01*
X109262787Y-51110000D01*
X109177213Y-51110000D01*
X109094555Y-51132149D01*
X109020446Y-51174936D01*
X108959936Y-51235446D01*
X108917149Y-51309555D01*
X108895000Y-51392213D01*
X92583000Y-51392213D01*
X92583000Y-50637155D01*
X107970000Y-50637155D01*
X107970000Y-51185000D01*
X108970000Y-51185000D01*
X108970000Y-50185000D01*
X108422155Y-50185000D01*
X108362627Y-50191401D01*
X108362620Y-50191403D01*
X108227913Y-50241645D01*
X108227906Y-50241649D01*
X108112812Y-50327809D01*
X108112809Y-50327812D01*
X108026649Y-50442906D01*
X108026645Y-50442913D01*
X107976403Y-50577620D01*
X107976401Y-50577627D01*
X107970000Y-50637155D01*
X92583000Y-50637155D01*
X92583000Y-48435389D01*
X92959500Y-48435389D01*
X92959500Y-49608610D01*
X92985964Y-49775703D01*
X92986598Y-49779701D01*
X93040127Y-49944445D01*
X93118768Y-50098788D01*
X93220586Y-50238928D01*
X93343072Y-50361414D01*
X93483212Y-50463232D01*
X93637555Y-50541873D01*
X93802299Y-50595402D01*
X93973389Y-50622500D01*
X93973390Y-50622500D01*
X94146610Y-50622500D01*
X94146611Y-50622500D01*
X94317701Y-50595402D01*
X94482445Y-50541873D01*
X94636788Y-50463232D01*
X94776928Y-50361414D01*
X94899414Y-50238928D01*
X95001232Y-50098788D01*
X95079873Y-49944445D01*
X95133402Y-49779701D01*
X95160500Y-49608611D01*
X95160500Y-48857452D01*
X95180185Y-48790413D01*
X95196819Y-48769771D01*
X95247819Y-48718771D01*
X95309142Y-48685286D01*
X95378834Y-48690270D01*
X95434767Y-48732142D01*
X95459184Y-48797606D01*
X95459500Y-48806452D01*
X95459500Y-49608610D01*
X95485964Y-49775703D01*
X95486598Y-49779701D01*
X95540127Y-49944445D01*
X95618768Y-50098788D01*
X95720586Y-50238928D01*
X95843072Y-50361414D01*
X95983212Y-50463232D01*
X96137555Y-50541873D01*
X96302299Y-50595402D01*
X96473389Y-50622500D01*
X96473390Y-50622500D01*
X96646610Y-50622500D01*
X96646611Y-50622500D01*
X96817701Y-50595402D01*
X96982445Y-50541873D01*
X97136788Y-50463232D01*
X97276928Y-50361414D01*
X97399414Y-50238928D01*
X97501232Y-50098788D01*
X97579873Y-49944445D01*
X97633402Y-49779701D01*
X97660500Y-49608611D01*
X97660500Y-48938228D01*
X98209500Y-48938228D01*
X98209500Y-49105771D01*
X98242182Y-49270074D01*
X98242184Y-49270082D01*
X98306295Y-49424860D01*
X98399373Y-49564162D01*
X98517837Y-49682626D01*
X98610494Y-49744537D01*
X98657137Y-49775703D01*
X98811918Y-49839816D01*
X98976228Y-49872499D01*
X98976232Y-49872500D01*
X98976233Y-49872500D01*
X99143768Y-49872500D01*
X99143769Y-49872499D01*
X99308082Y-49839816D01*
X99462863Y-49775703D01*
X99602162Y-49682626D01*
X99720626Y-49564162D01*
X99813703Y-49424863D01*
X99877816Y-49270082D01*
X99910500Y-49105767D01*
X99910500Y-48938233D01*
X99877816Y-48773918D01*
X99813703Y-48619137D01*
X99782537Y-48572494D01*
X99720626Y-48479837D01*
X99602162Y-48361373D01*
X99462860Y-48268295D01*
X99308082Y-48204184D01*
X99308074Y-48204182D01*
X99143771Y-48171500D01*
X99143767Y-48171500D01*
X98976233Y-48171500D01*
X98976228Y-48171500D01*
X98811925Y-48204182D01*
X98811917Y-48204184D01*
X98657139Y-48268295D01*
X98517837Y-48361373D01*
X98399373Y-48479837D01*
X98306295Y-48619139D01*
X98242184Y-48773917D01*
X98242182Y-48773925D01*
X98209500Y-48938228D01*
X97660500Y-48938228D01*
X97660500Y-48435389D01*
X97633402Y-48264299D01*
X97579873Y-48099555D01*
X97501232Y-47945212D01*
X97404726Y-47812383D01*
X97381247Y-47746580D01*
X97397072Y-47678526D01*
X97447178Y-47629831D01*
X97505045Y-47615500D01*
X100614955Y-47615500D01*
X100681994Y-47635185D01*
X100727749Y-47687989D01*
X100737693Y-47757147D01*
X100715274Y-47812383D01*
X100686812Y-47851558D01*
X100618768Y-47945211D01*
X100540128Y-48099552D01*
X100486597Y-48264302D01*
X100459500Y-48435389D01*
X100459500Y-49608610D01*
X100485964Y-49775703D01*
X100486598Y-49779701D01*
X100540127Y-49944445D01*
X100618768Y-50098788D01*
X100720586Y-50238928D01*
X100843072Y-50361414D01*
X100983212Y-50463232D01*
X101137555Y-50541873D01*
X101302299Y-50595402D01*
X101473389Y-50622500D01*
X101473390Y-50622500D01*
X101646610Y-50622500D01*
X101646611Y-50622500D01*
X101817701Y-50595402D01*
X101982445Y-50541873D01*
X102136788Y-50463232D01*
X102276928Y-50361414D01*
X102399414Y-50238928D01*
X102501232Y-50098788D01*
X102579873Y-49944445D01*
X102633402Y-49779701D01*
X102660500Y-49608611D01*
X102660500Y-48435389D01*
X102633402Y-48264299D01*
X102579873Y-48099555D01*
X102501232Y-47945212D01*
X102404726Y-47812383D01*
X102381247Y-47746580D01*
X102397072Y-47678526D01*
X102447178Y-47629831D01*
X102505045Y-47615500D01*
X103114955Y-47615500D01*
X103181994Y-47635185D01*
X103227749Y-47687989D01*
X103237693Y-47757147D01*
X103215274Y-47812383D01*
X103186812Y-47851558D01*
X103118768Y-47945211D01*
X103040128Y-48099552D01*
X102986597Y-48264302D01*
X102959500Y-48435389D01*
X102959500Y-49608610D01*
X102985964Y-49775703D01*
X102986598Y-49779701D01*
X103040127Y-49944445D01*
X103118768Y-50098788D01*
X103220586Y-50238928D01*
X103343072Y-50361414D01*
X103483212Y-50463232D01*
X103637555Y-50541873D01*
X103802299Y-50595402D01*
X103973389Y-50622500D01*
X103973390Y-50622500D01*
X104146610Y-50622500D01*
X104146611Y-50622500D01*
X104317701Y-50595402D01*
X104482445Y-50541873D01*
X104636788Y-50463232D01*
X104776928Y-50361414D01*
X104899414Y-50238928D01*
X105001232Y-50098788D01*
X105079873Y-49944445D01*
X105133402Y-49779701D01*
X105160500Y-49608611D01*
X105160500Y-48435389D01*
X105133402Y-48264299D01*
X105079873Y-48099555D01*
X105021487Y-47984966D01*
X105008592Y-47916299D01*
X105034868Y-47851558D01*
X105091975Y-47811301D01*
X105157752Y-47807383D01*
X105241424Y-47825168D01*
X105241425Y-47825168D01*
X105430714Y-47825168D01*
X105430716Y-47825168D01*
X105615873Y-47785812D01*
X105788800Y-47708819D01*
X105941941Y-47597556D01*
X105952593Y-47585725D01*
X106012078Y-47549076D01*
X106081935Y-47550405D01*
X106132425Y-47581015D01*
X106477016Y-47925606D01*
X106477045Y-47925637D01*
X106567263Y-48015855D01*
X106567267Y-48015858D01*
X106669707Y-48084307D01*
X106669711Y-48084309D01*
X106669714Y-48084311D01*
X106783548Y-48131463D01*
X106843971Y-48143481D01*
X106904393Y-48155500D01*
X110265607Y-48155500D01*
X110326029Y-48143481D01*
X110386452Y-48131463D01*
X110386455Y-48131461D01*
X110386458Y-48131461D01*
X110419787Y-48117654D01*
X110419786Y-48117654D01*
X110419792Y-48117652D01*
X110500286Y-48084312D01*
X110551509Y-48050084D01*
X110602733Y-48015858D01*
X110689858Y-47928733D01*
X110689859Y-47928731D01*
X110696925Y-47921665D01*
X110696928Y-47921661D01*
X110923353Y-47695235D01*
X110984674Y-47661752D01*
X111043125Y-47663143D01*
X111077780Y-47672428D01*
X111143592Y-47690063D01*
X111320034Y-47705500D01*
X111378999Y-47710659D01*
X111379000Y-47710659D01*
X111379001Y-47710659D01*
X111437966Y-47705500D01*
X111614408Y-47690063D01*
X111842663Y-47628903D01*
X112056830Y-47529035D01*
X112250401Y-47393495D01*
X112372329Y-47271566D01*
X112433648Y-47238084D01*
X112503340Y-47243068D01*
X112559274Y-47284939D01*
X112576189Y-47315917D01*
X112625202Y-47447328D01*
X112625206Y-47447335D01*
X112711452Y-47562544D01*
X112711455Y-47562547D01*
X112826664Y-47648793D01*
X112826671Y-47648797D01*
X112961517Y-47699091D01*
X112961516Y-47699091D01*
X112968444Y-47699835D01*
X113021127Y-47705500D01*
X114816872Y-47705499D01*
X114876483Y-47699091D01*
X115011331Y-47648796D01*
X115126546Y-47562546D01*
X115212796Y-47447331D01*
X115263091Y-47312483D01*
X115269500Y-47252873D01*
X115269499Y-45457128D01*
X115263091Y-45397517D01*
X115261810Y-45394083D01*
X115212797Y-45262671D01*
X115212793Y-45262664D01*
X115126547Y-45147455D01*
X115126544Y-45147452D01*
X115011335Y-45061206D01*
X115011328Y-45061202D01*
X114876482Y-45010908D01*
X114876483Y-45010908D01*
X114816883Y-45004501D01*
X114816881Y-45004500D01*
X114816873Y-45004500D01*
X114816864Y-45004500D01*
X113021129Y-45004500D01*
X113021123Y-45004501D01*
X112961516Y-45010908D01*
X112826671Y-45061202D01*
X112826664Y-45061206D01*
X112711455Y-45147452D01*
X112711452Y-45147455D01*
X112625206Y-45262664D01*
X112625203Y-45262669D01*
X112576189Y-45394083D01*
X112534317Y-45450016D01*
X112468853Y-45474433D01*
X112400580Y-45459581D01*
X112372326Y-45438430D01*
X112250402Y-45316506D01*
X112250395Y-45316501D01*
X112056834Y-45180967D01*
X112056830Y-45180965D01*
X112042693Y-45174373D01*
X111842663Y-45081097D01*
X111842659Y-45081096D01*
X111842655Y-45081094D01*
X111614413Y-45019938D01*
X111614403Y-45019936D01*
X111379001Y-44999341D01*
X111378999Y-44999341D01*
X111143596Y-45019936D01*
X111143586Y-45019938D01*
X110915344Y-45081094D01*
X110915335Y-45081098D01*
X110701171Y-45180964D01*
X110701169Y-45180965D01*
X110507597Y-45316505D01*
X110340505Y-45483597D01*
X110210575Y-45669158D01*
X110155998Y-45712783D01*
X110086500Y-45719977D01*
X110024145Y-45688454D01*
X110007425Y-45669158D01*
X109877494Y-45483597D01*
X109710402Y-45316506D01*
X109710395Y-45316501D01*
X109516834Y-45180967D01*
X109516830Y-45180965D01*
X109502693Y-45174373D01*
X109302663Y-45081097D01*
X109302659Y-45081096D01*
X109302655Y-45081094D01*
X109074413Y-45019938D01*
X109074403Y-45019936D01*
X108839001Y-44999341D01*
X108838999Y-44999341D01*
X108603596Y-45019936D01*
X108603586Y-45019938D01*
X108375344Y-45081094D01*
X108375335Y-45081098D01*
X108161171Y-45180964D01*
X108161169Y-45180965D01*
X107967597Y-45316505D01*
X107800505Y-45483597D01*
X107664965Y-45677169D01*
X107664964Y-45677171D01*
X107565098Y-45891335D01*
X107565094Y-45891344D01*
X107503938Y-46119586D01*
X107503936Y-46119596D01*
X107483341Y-46354999D01*
X107483341Y-46355000D01*
X107503936Y-46590403D01*
X107503938Y-46590413D01*
X107546272Y-46748407D01*
X107544609Y-46818257D01*
X107505446Y-46876119D01*
X107441218Y-46903623D01*
X107426497Y-46904500D01*
X107276452Y-46904500D01*
X107209413Y-46884815D01*
X107188771Y-46868181D01*
X106509640Y-46189050D01*
X106476155Y-46127727D01*
X106481139Y-46058035D01*
X106513783Y-46009732D01*
X106513882Y-46009642D01*
X106525625Y-45998937D01*
X106648534Y-45836179D01*
X106739443Y-45653608D01*
X106795258Y-45457441D01*
X106814076Y-45254358D01*
X106814075Y-45254357D01*
X106814423Y-45250613D01*
X106840209Y-45185676D01*
X106850213Y-45174373D01*
X107549768Y-44474819D01*
X107611091Y-44441334D01*
X107637449Y-44438500D01*
X110089420Y-44438500D01*
X110186962Y-44419096D01*
X110234413Y-44409658D01*
X110370995Y-44353084D01*
X110420229Y-44320186D01*
X110493916Y-44270952D01*
X111049549Y-43715319D01*
X111110872Y-43681834D01*
X111137230Y-43679000D01*
X111226974Y-43679000D01*
X111226976Y-43679000D01*
X111427456Y-43641524D01*
X111617637Y-43567848D01*
X111791041Y-43460481D01*
X111941764Y-43323079D01*
X112064673Y-43160321D01*
X112155582Y-42977750D01*
X112211397Y-42781583D01*
X112217859Y-42711844D01*
X113304000Y-42711844D01*
X113310401Y-42771372D01*
X113310403Y-42771379D01*
X113360645Y-42906086D01*
X113360649Y-42906093D01*
X113446809Y-43021187D01*
X113446812Y-43021190D01*
X113561906Y-43107350D01*
X113561913Y-43107354D01*
X113696620Y-43157596D01*
X113696627Y-43157598D01*
X113756155Y-43163999D01*
X113756172Y-43164000D01*
X114304000Y-43164000D01*
X114304000Y-42414000D01*
X113304000Y-42414000D01*
X113304000Y-42711844D01*
X112217859Y-42711844D01*
X112230215Y-42578500D01*
X112211397Y-42375417D01*
X112155582Y-42179250D01*
X112064673Y-41996679D01*
X112002237Y-41914000D01*
X111941762Y-41833918D01*
X111791041Y-41696519D01*
X111791039Y-41696517D01*
X111617642Y-41589155D01*
X111617635Y-41589151D01*
X111522546Y-41552314D01*
X111427456Y-41515476D01*
X111226976Y-41478000D01*
X111023024Y-41478000D01*
X110822544Y-41515476D01*
X110822541Y-41515476D01*
X110822541Y-41515477D01*
X110632364Y-41589151D01*
X110632357Y-41589155D01*
X110458960Y-41696517D01*
X110458958Y-41696519D01*
X110308237Y-41833918D01*
X110185327Y-41996678D01*
X110094422Y-42179239D01*
X110094417Y-42179252D01*
X110038602Y-42375417D01*
X110019438Y-42582243D01*
X109993652Y-42647180D01*
X109983648Y-42658483D01*
X109740951Y-42901181D01*
X109679628Y-42934666D01*
X109653270Y-42937500D01*
X107201295Y-42937500D01*
X107172461Y-42943234D01*
X107172462Y-42943235D01*
X107056312Y-42966339D01*
X107056302Y-42966342D01*
X106976300Y-42999479D01*
X106976301Y-42999480D01*
X106919721Y-43022917D01*
X106870488Y-43055813D01*
X106796807Y-43105044D01*
X106796799Y-43105050D01*
X105784312Y-44117539D01*
X105722989Y-44151024D01*
X105696631Y-44153858D01*
X105606885Y-44153858D01*
X105406405Y-44191334D01*
X105406402Y-44191334D01*
X105406402Y-44191335D01*
X105216225Y-44265009D01*
X105216218Y-44265013D01*
X105042821Y-44372375D01*
X105042819Y-44372377D01*
X104892098Y-44509776D01*
X104769188Y-44672536D01*
X104678283Y-44855097D01*
X104678278Y-44855110D01*
X104622463Y-45051275D01*
X104603646Y-45254357D01*
X104603646Y-45254358D01*
X104618848Y-45418417D01*
X104605433Y-45486987D01*
X104557076Y-45537418D01*
X104495377Y-45553858D01*
X104147811Y-45553858D01*
X104080772Y-45534173D01*
X104060130Y-45517539D01*
X103745460Y-45202869D01*
X103711975Y-45141546D01*
X103709823Y-45128168D01*
X103692174Y-44960244D01*
X103633679Y-44780216D01*
X103539033Y-44616284D01*
X103412371Y-44475612D01*
X103411280Y-44474819D01*
X103259234Y-44364351D01*
X103259229Y-44364348D01*
X103086307Y-44287357D01*
X103086302Y-44287355D01*
X102940501Y-44256365D01*
X102901146Y-44248000D01*
X102711854Y-44248000D01*
X102679397Y-44254898D01*
X102526697Y-44287355D01*
X102526692Y-44287357D01*
X102353770Y-44364348D01*
X102353765Y-44364351D01*
X102200629Y-44475611D01*
X102073966Y-44616285D01*
X101979321Y-44780215D01*
X101979318Y-44780222D01*
X101954986Y-44855110D01*
X101920826Y-44960244D01*
X101901040Y-45148500D01*
X101920826Y-45336756D01*
X101920827Y-45336759D01*
X101979318Y-45516777D01*
X101979321Y-45516784D01*
X102073967Y-45680716D01*
X102109318Y-45719977D01*
X102200629Y-45821388D01*
X102353765Y-45932648D01*
X102353770Y-45932651D01*
X102526692Y-46009642D01*
X102526697Y-46009644D01*
X102711854Y-46049000D01*
X102771048Y-46049000D01*
X102838087Y-46068685D01*
X102858729Y-46085319D01*
X102926229Y-46152819D01*
X102959714Y-46214142D01*
X102954730Y-46283834D01*
X102912858Y-46339767D01*
X102847394Y-46364184D01*
X102838548Y-46364500D01*
X96030389Y-46364500D01*
X95969971Y-46376518D01*
X95909548Y-46388537D01*
X95909543Y-46388538D01*
X95875546Y-46402620D01*
X95862397Y-46408067D01*
X95795718Y-46435685D01*
X95776571Y-46448479D01*
X95770190Y-46452743D01*
X95770189Y-46452744D01*
X95770188Y-46452743D01*
X95693266Y-46504142D01*
X95693265Y-46504143D01*
X95649704Y-46547705D01*
X95606142Y-46591267D01*
X95606139Y-46591270D01*
X94687145Y-47510263D01*
X94625822Y-47543748D01*
X94556130Y-47538764D01*
X94543170Y-47533067D01*
X94482452Y-47502130D01*
X94482446Y-47502127D01*
X94482445Y-47502127D01*
X94317701Y-47448598D01*
X94317699Y-47448597D01*
X94317698Y-47448597D01*
X94186271Y-47427781D01*
X94146611Y-47421500D01*
X93973389Y-47421500D01*
X93933728Y-47427781D01*
X93802302Y-47448597D01*
X93637552Y-47502128D01*
X93483211Y-47580768D01*
X93416963Y-47628901D01*
X93343072Y-47682586D01*
X93343070Y-47682588D01*
X93343069Y-47682588D01*
X93220588Y-47805069D01*
X93220588Y-47805070D01*
X93220586Y-47805072D01*
X93186812Y-47851558D01*
X93118768Y-47945211D01*
X93040128Y-48099552D01*
X92986597Y-48264302D01*
X92959500Y-48435389D01*
X92583000Y-48435389D01*
X92583000Y-42864244D01*
X92907800Y-42864244D01*
X92914201Y-42923772D01*
X92914203Y-42923779D01*
X92964445Y-43058486D01*
X92964449Y-43058493D01*
X93050609Y-43173587D01*
X93050612Y-43173590D01*
X93165706Y-43259750D01*
X93165713Y-43259754D01*
X93300420Y-43309996D01*
X93300427Y-43309998D01*
X93359955Y-43316399D01*
X93359972Y-43316400D01*
X93907800Y-43316400D01*
X94407800Y-43316400D01*
X94955628Y-43316400D01*
X94955644Y-43316399D01*
X95015172Y-43309998D01*
X95015179Y-43309996D01*
X95149886Y-43259754D01*
X95149893Y-43259750D01*
X95264987Y-43173590D01*
X95264990Y-43173587D01*
X95351150Y-43058493D01*
X95351154Y-43058486D01*
X95401396Y-42923779D01*
X95401398Y-42923772D01*
X95407799Y-42864244D01*
X95407800Y-42864227D01*
X95407800Y-42566400D01*
X94407800Y-42566400D01*
X94407800Y-43316400D01*
X93907800Y-43316400D01*
X93907800Y-42566400D01*
X92907800Y-42566400D01*
X92907800Y-42864244D01*
X92583000Y-42864244D01*
X92583000Y-40857729D01*
X92602685Y-40790690D01*
X92655489Y-40744935D01*
X92724647Y-40734991D01*
X92788203Y-40764016D01*
X92794681Y-40770048D01*
X92870981Y-40846348D01*
X92904466Y-40907671D01*
X92907300Y-40934029D01*
X92907300Y-41564270D01*
X92907301Y-41564276D01*
X92913709Y-41623887D01*
X92915492Y-41631431D01*
X92914238Y-41631727D01*
X92918656Y-41693469D01*
X92914664Y-41707064D01*
X92914201Y-41709024D01*
X92907800Y-41768555D01*
X92907800Y-42066400D01*
X95407800Y-42066400D01*
X95407800Y-41768572D01*
X95407799Y-41768555D01*
X95401398Y-41709027D01*
X95399614Y-41701476D01*
X95401259Y-41701087D01*
X95396943Y-41640761D01*
X95401858Y-41624019D01*
X95401891Y-41623881D01*
X95403778Y-41606331D01*
X95408300Y-41564273D01*
X95408299Y-40628246D01*
X95427983Y-40561208D01*
X95480787Y-40515453D01*
X95532299Y-40504247D01*
X101399405Y-40504247D01*
X101496947Y-40484843D01*
X101544398Y-40475405D01*
X101680980Y-40418831D01*
X101730738Y-40385584D01*
X101730738Y-40385583D01*
X101730740Y-40385583D01*
X101780378Y-40352416D01*
X101803901Y-40336699D01*
X101896654Y-40243945D01*
X101957975Y-40210461D01*
X101983643Y-40207630D01*
X104942087Y-40191464D01*
X104813285Y-40320266D01*
X104972056Y-40375824D01*
X105139996Y-40394746D01*
X105140004Y-40394746D01*
X105307943Y-40375824D01*
X105466713Y-40320267D01*
X105466714Y-40320266D01*
X105335760Y-40189312D01*
X108667877Y-40171104D01*
X108718981Y-40181821D01*
X108824249Y-40228690D01*
X109009406Y-40268046D01*
X109009407Y-40268046D01*
X109198696Y-40268046D01*
X109198698Y-40268046D01*
X109383855Y-40228690D01*
X109499949Y-40177000D01*
X109549690Y-40166285D01*
X112785074Y-40148606D01*
X112852216Y-40167923D01*
G37*
%TD.AperFunction*%
%TD*%
%TA.AperFunction,Conductor*%
%TO.N,GND*%
G36*
X95480309Y-27197685D02*
G01*
X95526064Y-27250489D01*
X95536008Y-27319647D01*
X95506983Y-27383203D01*
X95500951Y-27389681D01*
X95067450Y-27823181D01*
X95006127Y-27856666D01*
X94979769Y-27859500D01*
X93844129Y-27859500D01*
X93844123Y-27859501D01*
X93784516Y-27865908D01*
X93649671Y-27916202D01*
X93649664Y-27916206D01*
X93534455Y-28002452D01*
X93534452Y-28002455D01*
X93448206Y-28117664D01*
X93448202Y-28117671D01*
X93397908Y-28252517D01*
X93391501Y-28312116D01*
X93391500Y-28312135D01*
X93391500Y-30107870D01*
X93391501Y-30107876D01*
X93397908Y-30167483D01*
X93448202Y-30302328D01*
X93448206Y-30302335D01*
X93534452Y-30417544D01*
X93534455Y-30417547D01*
X93649664Y-30503793D01*
X93649671Y-30503797D01*
X93784517Y-30554091D01*
X93784516Y-30554091D01*
X93791444Y-30554835D01*
X93844127Y-30560500D01*
X95639872Y-30560499D01*
X95699483Y-30554091D01*
X95834331Y-30503796D01*
X95949546Y-30417546D01*
X96035796Y-30302331D01*
X96084810Y-30170916D01*
X96126681Y-30114984D01*
X96192145Y-30090566D01*
X96260418Y-30105417D01*
X96288673Y-30126569D01*
X96410599Y-30248495D01*
X96507384Y-30316265D01*
X96604165Y-30384032D01*
X96604167Y-30384033D01*
X96604170Y-30384035D01*
X96818337Y-30483903D01*
X97046592Y-30545063D01*
X97223034Y-30560500D01*
X97251288Y-30562972D01*
X97278874Y-30573763D01*
X97288585Y-30567523D01*
X97312712Y-30562972D01*
X97340966Y-30560500D01*
X97517408Y-30545063D01*
X97745663Y-30483903D01*
X97959830Y-30384035D01*
X98153401Y-30248495D01*
X98320495Y-30081401D01*
X98450425Y-29895842D01*
X98505002Y-29852217D01*
X98574500Y-29845023D01*
X98636855Y-29876546D01*
X98653575Y-29895842D01*
X98783281Y-30081082D01*
X98783505Y-30081401D01*
X98950599Y-30248495D01*
X99047384Y-30316265D01*
X99144165Y-30384032D01*
X99144167Y-30384033D01*
X99144170Y-30384035D01*
X99358337Y-30483903D01*
X99586592Y-30545063D01*
X99763034Y-30560500D01*
X99821999Y-30565659D01*
X99822000Y-30565659D01*
X99822001Y-30565659D01*
X99880966Y-30560500D01*
X100057408Y-30545063D01*
X100285663Y-30483903D01*
X100499830Y-30384035D01*
X100693401Y-30248495D01*
X100860495Y-30081401D01*
X100990425Y-29895842D01*
X101045002Y-29852217D01*
X101114500Y-29845023D01*
X101176855Y-29876546D01*
X101193575Y-29895842D01*
X101323281Y-30081082D01*
X101323505Y-30081401D01*
X101490599Y-30248495D01*
X101587384Y-30316265D01*
X101684165Y-30384032D01*
X101684167Y-30384033D01*
X101684170Y-30384035D01*
X101898337Y-30483903D01*
X102126592Y-30545063D01*
X102303034Y-30560500D01*
X102361999Y-30565659D01*
X102362000Y-30565659D01*
X102362001Y-30565659D01*
X102420966Y-30560500D01*
X102597408Y-30545063D01*
X102825663Y-30483903D01*
X103039830Y-30384035D01*
X103233401Y-30248495D01*
X103400495Y-30081401D01*
X103530425Y-29895842D01*
X103585002Y-29852217D01*
X103654500Y-29845023D01*
X103716855Y-29876546D01*
X103733575Y-29895842D01*
X103863281Y-30081082D01*
X103863505Y-30081401D01*
X104030599Y-30248495D01*
X104127384Y-30316265D01*
X104224165Y-30384032D01*
X104224167Y-30384033D01*
X104224170Y-30384035D01*
X104438337Y-30483903D01*
X104666592Y-30545063D01*
X104843034Y-30560500D01*
X104901999Y-30565659D01*
X104902000Y-30565659D01*
X104902001Y-30565659D01*
X104960966Y-30560500D01*
X105137408Y-30545063D01*
X105365663Y-30483903D01*
X105579830Y-30384035D01*
X105773401Y-30248495D01*
X105940495Y-30081401D01*
X106070730Y-29895405D01*
X106125307Y-29851781D01*
X106194805Y-29844587D01*
X106257160Y-29876110D01*
X106273879Y-29895405D01*
X106403890Y-30081078D01*
X106570917Y-30248105D01*
X106764421Y-30383600D01*
X106978507Y-30483429D01*
X106978516Y-30483433D01*
X107192000Y-30540634D01*
X107192000Y-29643012D01*
X107249007Y-29675925D01*
X107376174Y-29710000D01*
X107507826Y-29710000D01*
X107634993Y-29675925D01*
X107692000Y-29643012D01*
X107692000Y-30540633D01*
X107905483Y-30483433D01*
X107905492Y-30483429D01*
X108119578Y-30383600D01*
X108313082Y-30248105D01*
X108480105Y-30081082D01*
X108615598Y-29887580D01*
X108659380Y-29793689D01*
X108705553Y-29741249D01*
X108772746Y-29722097D01*
X108839627Y-29742312D01*
X108859444Y-29758412D01*
X110422827Y-31321794D01*
X110456312Y-31383117D01*
X110451328Y-31452809D01*
X110409456Y-31508742D01*
X110343992Y-31533159D01*
X110324339Y-31533003D01*
X110083602Y-31511941D01*
X110083599Y-31511941D01*
X109848196Y-31532536D01*
X109848186Y-31532538D01*
X109619944Y-31593694D01*
X109619935Y-31593698D01*
X109405771Y-31693564D01*
X109405769Y-31693565D01*
X109212197Y-31829105D01*
X109045105Y-31996197D01*
X108915175Y-32181758D01*
X108860598Y-32225383D01*
X108791100Y-32232577D01*
X108728745Y-32201054D01*
X108712025Y-32181758D01*
X108582094Y-31996197D01*
X108415002Y-31829106D01*
X108414995Y-31829101D01*
X108221434Y-31693567D01*
X108221430Y-31693565D01*
X108221428Y-31693564D01*
X108007263Y-31593697D01*
X108007259Y-31593696D01*
X108007255Y-31593694D01*
X107779013Y-31532538D01*
X107779003Y-31532536D01*
X107543601Y-31511941D01*
X107543599Y-31511941D01*
X107308196Y-31532536D01*
X107308186Y-31532538D01*
X107079944Y-31593694D01*
X107079935Y-31593698D01*
X106865771Y-31693564D01*
X106865769Y-31693565D01*
X106672197Y-31829105D01*
X106505105Y-31996197D01*
X106375175Y-32181758D01*
X106320598Y-32225383D01*
X106251100Y-32232577D01*
X106188745Y-32201054D01*
X106172025Y-32181758D01*
X106042094Y-31996197D01*
X105875002Y-31829106D01*
X105874995Y-31829101D01*
X105681434Y-31693567D01*
X105681430Y-31693565D01*
X105681428Y-31693564D01*
X105467263Y-31593697D01*
X105467259Y-31593696D01*
X105467255Y-31593694D01*
X105239013Y-31532538D01*
X105239003Y-31532536D01*
X105003601Y-31511941D01*
X105003598Y-31511941D01*
X104773183Y-31532100D01*
X104704683Y-31518333D01*
X104654500Y-31469718D01*
X104644447Y-31446893D01*
X104619296Y-31369488D01*
X104602185Y-31316824D01*
X104602183Y-31316819D01*
X104602182Y-31316816D01*
X104507536Y-31152884D01*
X104380874Y-31012212D01*
X104380873Y-31012211D01*
X104227737Y-30900951D01*
X104227732Y-30900948D01*
X104054810Y-30823957D01*
X104054805Y-30823955D01*
X103909004Y-30792965D01*
X103869649Y-30784600D01*
X103680357Y-30784600D01*
X103647900Y-30791498D01*
X103495200Y-30823955D01*
X103495195Y-30823957D01*
X103322273Y-30900948D01*
X103322268Y-30900951D01*
X103169132Y-31012211D01*
X103042469Y-31152885D01*
X102947824Y-31316815D01*
X102947822Y-31316819D01*
X102899780Y-31464678D01*
X102860342Y-31522353D01*
X102795983Y-31549551D01*
X102749757Y-31546134D01*
X102699016Y-31532539D01*
X102699012Y-31532538D01*
X102699008Y-31532537D01*
X102699006Y-31532536D01*
X102699003Y-31532536D01*
X102463601Y-31511941D01*
X102463599Y-31511941D01*
X102228196Y-31532536D01*
X102228186Y-31532538D01*
X102127726Y-31559456D01*
X102057876Y-31557793D01*
X102007952Y-31527362D01*
X101799928Y-31319338D01*
X101799925Y-31319334D01*
X101799925Y-31319335D01*
X101792858Y-31312268D01*
X101792858Y-31312267D01*
X101705733Y-31225142D01*
X101705732Y-31225141D01*
X101705731Y-31225140D01*
X101654509Y-31190915D01*
X101603286Y-31156688D01*
X101603283Y-31156686D01*
X101603280Y-31156685D01*
X101522792Y-31123347D01*
X101489453Y-31109537D01*
X101479427Y-31107543D01*
X101429029Y-31097518D01*
X101368610Y-31085500D01*
X101368607Y-31085500D01*
X101368606Y-31085500D01*
X98036548Y-31085500D01*
X97969509Y-31065815D01*
X97944400Y-31044474D01*
X97938673Y-31038114D01*
X97938669Y-31038110D01*
X97785534Y-30926851D01*
X97785529Y-30926848D01*
X97612607Y-30849857D01*
X97612602Y-30849855D01*
X97466801Y-30818865D01*
X97427446Y-30810500D01*
X97323520Y-30810500D01*
X97282951Y-30798587D01*
X97264912Y-30808069D01*
X97240480Y-30810500D01*
X97238154Y-30810500D01*
X97205697Y-30817398D01*
X97052997Y-30849855D01*
X97052992Y-30849857D01*
X96880070Y-30926848D01*
X96880065Y-30926851D01*
X96726929Y-31038111D01*
X96600266Y-31178785D01*
X96505621Y-31342715D01*
X96505618Y-31342722D01*
X96448559Y-31518333D01*
X96447126Y-31522744D01*
X96427340Y-31711000D01*
X96447126Y-31899256D01*
X96447127Y-31899259D01*
X96505618Y-32079277D01*
X96505621Y-32079284D01*
X96600267Y-32243216D01*
X96701985Y-32356185D01*
X96726929Y-32383888D01*
X96880065Y-32495148D01*
X96880070Y-32495151D01*
X97052992Y-32572142D01*
X97052997Y-32572144D01*
X97238154Y-32611500D01*
X97238155Y-32611500D01*
X97427444Y-32611500D01*
X97427446Y-32611500D01*
X97612603Y-32572144D01*
X97785530Y-32495151D01*
X97938671Y-32383888D01*
X97941588Y-32380647D01*
X97944400Y-32377526D01*
X98003887Y-32340879D01*
X98036548Y-32336500D01*
X100996548Y-32336500D01*
X101063587Y-32356185D01*
X101084229Y-32372819D01*
X101123362Y-32411952D01*
X101156847Y-32473275D01*
X101155456Y-32531726D01*
X101128538Y-32632186D01*
X101128536Y-32632196D01*
X101107941Y-32867599D01*
X101107941Y-32867600D01*
X101128536Y-33103003D01*
X101128538Y-33103013D01*
X101189694Y-33331255D01*
X101189696Y-33331259D01*
X101189697Y-33331263D01*
X101284303Y-33534146D01*
X101289565Y-33545430D01*
X101289567Y-33545434D01*
X101331595Y-33605455D01*
X101425105Y-33739001D01*
X101592199Y-33906095D01*
X101681133Y-33968367D01*
X101785765Y-34041632D01*
X101785767Y-34041633D01*
X101785770Y-34041635D01*
X101930805Y-34109266D01*
X101983243Y-34155437D01*
X102002395Y-34222631D01*
X101982179Y-34289512D01*
X101966080Y-34309328D01*
X101444887Y-34830521D01*
X101383564Y-34864006D01*
X101313872Y-34859022D01*
X101265057Y-34825813D01*
X101254068Y-34813609D01*
X101254061Y-34813603D01*
X101100931Y-34702348D01*
X101100926Y-34702345D01*
X100928004Y-34625354D01*
X100927999Y-34625352D01*
X100782198Y-34594362D01*
X100742843Y-34585997D01*
X100553551Y-34585997D01*
X100521094Y-34592895D01*
X100368394Y-34625352D01*
X100368389Y-34625354D01*
X100195467Y-34702345D01*
X100195462Y-34702348D01*
X100042326Y-34813608D01*
X99915663Y-34954282D01*
X99821018Y-35118212D01*
X99821015Y-35118219D01*
X99768750Y-35279075D01*
X99762523Y-35298241D01*
X99758199Y-35339380D01*
X99744875Y-35466148D01*
X99718290Y-35530763D01*
X99709235Y-35540867D01*
X99602744Y-35647359D01*
X99520217Y-35729886D01*
X99520214Y-35729889D01*
X99476650Y-35773452D01*
X99433087Y-35817015D01*
X99409406Y-35852457D01*
X99364636Y-35919459D01*
X99364632Y-35919466D01*
X99335132Y-35990688D01*
X99317486Y-36033288D01*
X99317482Y-36033302D01*
X99293447Y-36154136D01*
X99293447Y-36745565D01*
X99273762Y-36812604D01*
X99261597Y-36828537D01*
X99186413Y-36912037D01*
X99091768Y-37075968D01*
X99091765Y-37075975D01*
X99076455Y-37123096D01*
X99033273Y-37255997D01*
X99013487Y-37444253D01*
X99033273Y-37632509D01*
X99033274Y-37632512D01*
X99091765Y-37812530D01*
X99091768Y-37812537D01*
X99186414Y-37976469D01*
X99280693Y-38081176D01*
X99294288Y-38096275D01*
X99324518Y-38159266D01*
X99315893Y-38228602D01*
X99271151Y-38282267D01*
X99204499Y-38303225D01*
X99202138Y-38303247D01*
X99055177Y-38303247D01*
X98988138Y-38283562D01*
X98967496Y-38266928D01*
X95828126Y-35127558D01*
X95794641Y-35066235D01*
X95799401Y-34999674D01*
X95799013Y-34999564D01*
X95799541Y-34997705D01*
X95799625Y-34996543D01*
X95800187Y-34995065D01*
X95800569Y-34994075D01*
X95800582Y-34994050D01*
X95856397Y-34797883D01*
X95875215Y-34594800D01*
X95871395Y-34553580D01*
X95856397Y-34391717D01*
X95832955Y-34309328D01*
X95800582Y-34195550D01*
X95783575Y-34161396D01*
X95723940Y-34041632D01*
X95709673Y-34012979D01*
X95650704Y-33934891D01*
X95586762Y-33850218D01*
X95436041Y-33712819D01*
X95436039Y-33712817D01*
X95262642Y-33605455D01*
X95262635Y-33605451D01*
X95128383Y-33553442D01*
X95072456Y-33531776D01*
X94871976Y-33494300D01*
X94668024Y-33494300D01*
X94467544Y-33531776D01*
X94467541Y-33531776D01*
X94467541Y-33531777D01*
X94277364Y-33605451D01*
X94277357Y-33605455D01*
X94103960Y-33712817D01*
X94103958Y-33712819D01*
X93953237Y-33850218D01*
X93830327Y-34012978D01*
X93739422Y-34195539D01*
X93739417Y-34195552D01*
X93683602Y-34391717D01*
X93664785Y-34594799D01*
X93664785Y-34594800D01*
X93683602Y-34797882D01*
X93739417Y-34994047D01*
X93739422Y-34994060D01*
X93830327Y-35176621D01*
X93900791Y-35269931D01*
X93953237Y-35339380D01*
X94080142Y-35455069D01*
X94100852Y-35481684D01*
X94101532Y-35481231D01*
X94104916Y-35486295D01*
X94134628Y-35530763D01*
X94137812Y-35535527D01*
X94137813Y-35535530D01*
X94187046Y-35609214D01*
X94187052Y-35609221D01*
X98214525Y-39636694D01*
X98214532Y-39636700D01*
X98285049Y-39683817D01*
X98285051Y-39683818D01*
X98285054Y-39683820D01*
X98337452Y-39718831D01*
X98337453Y-39718831D01*
X98337454Y-39718832D01*
X98437291Y-39760186D01*
X98491695Y-39804027D01*
X98513760Y-39870321D01*
X98496481Y-39938020D01*
X98445344Y-39985631D01*
X98389839Y-39998747D01*
X95532290Y-39998747D01*
X95424848Y-40010299D01*
X95424838Y-40010301D01*
X95373336Y-40021505D01*
X95270794Y-40055634D01*
X95261459Y-40061633D01*
X95194418Y-40081313D01*
X95151093Y-40073495D01*
X95015180Y-40022803D01*
X95015172Y-40022801D01*
X94955644Y-40016400D01*
X94407800Y-40016400D01*
X94407800Y-41142400D01*
X94388115Y-41209439D01*
X94335311Y-41255194D01*
X94283800Y-41266400D01*
X94031800Y-41266400D01*
X93964761Y-41246715D01*
X93919006Y-41193911D01*
X93907800Y-41142400D01*
X93907800Y-40016400D01*
X93359955Y-40016400D01*
X93300427Y-40022801D01*
X93300420Y-40022803D01*
X93165713Y-40073045D01*
X93165706Y-40073049D01*
X93050612Y-40159209D01*
X93010141Y-40213271D01*
X92954206Y-40255142D01*
X92884515Y-40260125D01*
X92875948Y-40257938D01*
X92796583Y-40234636D01*
X92796582Y-40234636D01*
X92707000Y-40234636D01*
X92639961Y-40214951D01*
X92594206Y-40162147D01*
X92583000Y-40110636D01*
X92583000Y-28164489D01*
X92583032Y-28161655D01*
X92583060Y-28160405D01*
X92584456Y-28099351D01*
X92586806Y-28078002D01*
X92621275Y-27904700D01*
X92628327Y-27881451D01*
X92695401Y-27719515D01*
X92706851Y-27698094D01*
X92804231Y-27552354D01*
X92819640Y-27533578D01*
X92943578Y-27409640D01*
X92962354Y-27394231D01*
X93108094Y-27296851D01*
X93129515Y-27285401D01*
X93291448Y-27218328D01*
X93314703Y-27211275D01*
X93470025Y-27180382D01*
X93494214Y-27178000D01*
X95413270Y-27178000D01*
X95480309Y-27197685D01*
G37*
%TD.AperFunction*%
%TA.AperFunction,Conductor*%
G36*
X114809510Y-27178037D02*
G01*
X114897156Y-27180184D01*
X114918300Y-27182529D01*
X115091670Y-27217014D01*
X115114917Y-27224065D01*
X115276818Y-27291127D01*
X115298250Y-27302583D01*
X115418906Y-27383203D01*
X115443949Y-27399936D01*
X115462739Y-27415357D01*
X115586642Y-27539260D01*
X115602063Y-27558050D01*
X115699414Y-27703746D01*
X115710873Y-27725184D01*
X115775598Y-27881444D01*
X115777931Y-27887075D01*
X115784987Y-27910337D01*
X115819469Y-28083694D01*
X115821815Y-28104847D01*
X115823963Y-28192488D01*
X115824000Y-28195526D01*
X115824000Y-39880969D01*
X115804315Y-39948008D01*
X115751511Y-39993763D01*
X115682353Y-40003707D01*
X115625689Y-39980235D01*
X115546093Y-39920649D01*
X115546086Y-39920645D01*
X115411379Y-39870403D01*
X115411372Y-39870401D01*
X115351844Y-39864000D01*
X114804000Y-39864000D01*
X114804000Y-40990000D01*
X114784315Y-41057039D01*
X114731511Y-41102794D01*
X114680000Y-41114000D01*
X114428000Y-41114000D01*
X114360961Y-41094315D01*
X114315206Y-41041511D01*
X114304000Y-40990000D01*
X114304000Y-39835428D01*
X114323685Y-39768389D01*
X114376489Y-39722634D01*
X114383198Y-39719804D01*
X114437037Y-39698948D01*
X114610441Y-39591581D01*
X114761164Y-39454179D01*
X114884073Y-39291421D01*
X114974982Y-39108850D01*
X115030797Y-38912683D01*
X115049615Y-38709600D01*
X115048230Y-38694658D01*
X115030797Y-38506517D01*
X114998211Y-38391991D01*
X114974982Y-38310350D01*
X114971974Y-38304310D01*
X114930672Y-38221364D01*
X114884073Y-38127779D01*
X114761164Y-37965021D01*
X114735360Y-37941497D01*
X114699080Y-37881785D01*
X114694900Y-37849861D01*
X114694900Y-31514481D01*
X114689163Y-31485642D01*
X114689163Y-31485640D01*
X114666060Y-31369495D01*
X114666059Y-31369488D01*
X114611808Y-31238517D01*
X114610164Y-31233922D01*
X114527354Y-31109988D01*
X114527353Y-31109987D01*
X114527351Y-31109984D01*
X114422816Y-31005449D01*
X114127216Y-30709848D01*
X114127215Y-30709847D01*
X114127214Y-30709846D01*
X114053529Y-30660612D01*
X114053529Y-30660613D01*
X114004291Y-30627713D01*
X113867717Y-30571143D01*
X113867707Y-30571140D01*
X113722720Y-30542300D01*
X113722718Y-30542300D01*
X111817429Y-30542300D01*
X111750390Y-30522615D01*
X111729748Y-30505981D01*
X108613450Y-27389681D01*
X108579965Y-27328358D01*
X108584949Y-27258666D01*
X108626821Y-27202733D01*
X108692285Y-27178316D01*
X108701131Y-27178000D01*
X114806473Y-27178000D01*
X114809510Y-27178037D01*
G37*
%TD.AperFunction*%
%TA.AperFunction,Conductor*%
G36*
X108898455Y-33534146D02*
G01*
X108915175Y-33553442D01*
X109045100Y-33738995D01*
X109045105Y-33739001D01*
X109212199Y-33906095D01*
X109301133Y-33968367D01*
X109405765Y-34041632D01*
X109405767Y-34041633D01*
X109405770Y-34041635D01*
X109619937Y-34141503D01*
X109848192Y-34202663D01*
X110024634Y-34218100D01*
X110083599Y-34223259D01*
X110083600Y-34223259D01*
X110083601Y-34223259D01*
X110142566Y-34218100D01*
X110319008Y-34202663D01*
X110547263Y-34141503D01*
X110761430Y-34041635D01*
X110955001Y-33906095D01*
X111076929Y-33784166D01*
X111138248Y-33750684D01*
X111207940Y-33755668D01*
X111263874Y-33797539D01*
X111280789Y-33828517D01*
X111329802Y-33959928D01*
X111329806Y-33959935D01*
X111416052Y-34075144D01*
X111416055Y-34075147D01*
X111531264Y-34161393D01*
X111531271Y-34161397D01*
X111666117Y-34211691D01*
X111666116Y-34211691D01*
X111673044Y-34212435D01*
X111725727Y-34218100D01*
X112218771Y-34218099D01*
X112285809Y-34237783D01*
X112331564Y-34290587D01*
X112341508Y-34359746D01*
X112312483Y-34423302D01*
X112302308Y-34433736D01*
X112204431Y-34522963D01*
X112141627Y-34553580D01*
X112120893Y-34555326D01*
X107739151Y-34555326D01*
X107710317Y-34561060D01*
X107710318Y-34561061D01*
X107594168Y-34584165D01*
X107594158Y-34584168D01*
X107514156Y-34617305D01*
X107514157Y-34617306D01*
X107457580Y-34640741D01*
X107375447Y-34695621D01*
X107334660Y-34722873D01*
X107334656Y-34722876D01*
X107093829Y-34963703D01*
X107032506Y-34997188D01*
X107031930Y-34997312D01*
X106966796Y-35011157D01*
X106966792Y-35011158D01*
X106793870Y-35088149D01*
X106793865Y-35088152D01*
X106640729Y-35199412D01*
X106514066Y-35340086D01*
X106419421Y-35504016D01*
X106419418Y-35504023D01*
X106367334Y-35664322D01*
X106360926Y-35684045D01*
X106341140Y-35872301D01*
X106360926Y-36060557D01*
X106360927Y-36060560D01*
X106419418Y-36240578D01*
X106419421Y-36240585D01*
X106514067Y-36404517D01*
X106617223Y-36519083D01*
X106640729Y-36545189D01*
X106793865Y-36656449D01*
X106793870Y-36656452D01*
X106966792Y-36733443D01*
X106966797Y-36733445D01*
X107151954Y-36772801D01*
X107151955Y-36772801D01*
X107341244Y-36772801D01*
X107341246Y-36772801D01*
X107526403Y-36733445D01*
X107699330Y-36656452D01*
X107852471Y-36545189D01*
X107979133Y-36404517D01*
X108073779Y-36240585D01*
X108105809Y-36142008D01*
X108145247Y-36084332D01*
X108209605Y-36057134D01*
X108223740Y-36056326D01*
X111228933Y-36056326D01*
X111295972Y-36076011D01*
X111341727Y-36128815D01*
X111351671Y-36197973D01*
X111346864Y-36218643D01*
X111335845Y-36252555D01*
X111316058Y-36440817D01*
X111317060Y-36450354D01*
X111304486Y-36519083D01*
X111281419Y-36550989D01*
X109383754Y-38448654D01*
X109322431Y-38482139D01*
X109270292Y-38482263D01*
X109198702Y-38467046D01*
X109198698Y-38467046D01*
X109009406Y-38467046D01*
X108976949Y-38473944D01*
X108824249Y-38506401D01*
X108824244Y-38506403D01*
X108651322Y-38583394D01*
X108651317Y-38583397D01*
X108498181Y-38694657D01*
X108371518Y-38835331D01*
X108276873Y-38999261D01*
X108276870Y-38999268D01*
X108241266Y-39108847D01*
X108218378Y-39179290D01*
X108198592Y-39367546D01*
X108207697Y-39454181D01*
X108215853Y-39531777D01*
X108203283Y-39600507D01*
X108155551Y-39651530D01*
X108093209Y-39668736D01*
X107015176Y-39674626D01*
X106948030Y-39655308D01*
X106901988Y-39602755D01*
X106890499Y-39550628D01*
X106890499Y-38689117D01*
X106891279Y-38675232D01*
X106895249Y-38640000D01*
X106895249Y-38639998D01*
X106891279Y-38604767D01*
X106890499Y-38590882D01*
X106890499Y-38342129D01*
X106890498Y-38342123D01*
X106890497Y-38342116D01*
X106884091Y-38282517D01*
X106863908Y-38228404D01*
X106833797Y-38147671D01*
X106833793Y-38147664D01*
X106747547Y-38032455D01*
X106747544Y-38032452D01*
X106632335Y-37946206D01*
X106632328Y-37946202D01*
X106497482Y-37895908D01*
X106497483Y-37895908D01*
X106437883Y-37889501D01*
X106437881Y-37889500D01*
X106437873Y-37889500D01*
X106437865Y-37889500D01*
X106189110Y-37889500D01*
X106175226Y-37888720D01*
X106140002Y-37884751D01*
X106139999Y-37884751D01*
X106122972Y-37886669D01*
X106104771Y-37888720D01*
X106090890Y-37889500D01*
X105189111Y-37889500D01*
X105175230Y-37888720D01*
X105158837Y-37886873D01*
X105140002Y-37884751D01*
X105139997Y-37884751D01*
X105110445Y-37888080D01*
X105104769Y-37888720D01*
X105090888Y-37889500D01*
X104189121Y-37889500D01*
X104175240Y-37888721D01*
X104175231Y-37888720D01*
X104140000Y-37884751D01*
X104139999Y-37884751D01*
X104104758Y-37888721D01*
X104090878Y-37889500D01*
X103842130Y-37889500D01*
X103842123Y-37889501D01*
X103782516Y-37895908D01*
X103647671Y-37946202D01*
X103647664Y-37946206D01*
X103532455Y-38032452D01*
X103532452Y-38032455D01*
X103446206Y-38147664D01*
X103446202Y-38147671D01*
X103395908Y-38282517D01*
X103389661Y-38340630D01*
X103389501Y-38342123D01*
X103389500Y-38342135D01*
X103389500Y-38590890D01*
X103388720Y-38604774D01*
X103384751Y-38639997D01*
X103384751Y-38640001D01*
X103388720Y-38675224D01*
X103389500Y-38689109D01*
X103389500Y-39571115D01*
X103369815Y-39638154D01*
X103317011Y-39683909D01*
X103266178Y-39695113D01*
X101980880Y-39702138D01*
X101928250Y-39705175D01*
X101928233Y-39705176D01*
X101921870Y-39705878D01*
X101902558Y-39708008D01*
X101902549Y-39708009D01*
X101902544Y-39708010D01*
X101850521Y-39716514D01*
X101720529Y-39764999D01*
X101650837Y-39769983D01*
X101589514Y-39736498D01*
X101556029Y-39675175D01*
X101561013Y-39605483D01*
X101589514Y-39561136D01*
X102116401Y-39034248D01*
X102116400Y-39034248D01*
X102116404Y-39034245D01*
X102198537Y-38911324D01*
X102255111Y-38774742D01*
X102273528Y-38682155D01*
X102283953Y-38629749D01*
X102283953Y-38391991D01*
X102303638Y-38324952D01*
X102320267Y-38304315D01*
X103536411Y-37088170D01*
X103597732Y-37054687D01*
X103598088Y-37054609D01*
X103663443Y-37040719D01*
X103836370Y-36963726D01*
X103989511Y-36852463D01*
X104116173Y-36711791D01*
X104210819Y-36547859D01*
X104269314Y-36367831D01*
X104289100Y-36179575D01*
X104269314Y-35991319D01*
X104210819Y-35811291D01*
X104116173Y-35647359D01*
X103989511Y-35506687D01*
X103987715Y-35505382D01*
X103836374Y-35395426D01*
X103836369Y-35395423D01*
X103663447Y-35318432D01*
X103663442Y-35318430D01*
X103517641Y-35287440D01*
X103478286Y-35279075D01*
X103288994Y-35279075D01*
X103256537Y-35285973D01*
X103103837Y-35318430D01*
X103103836Y-35318430D01*
X103034254Y-35349411D01*
X102965004Y-35358695D01*
X102901728Y-35329066D01*
X102864515Y-35269931D01*
X102865180Y-35200065D01*
X102896135Y-35148453D01*
X104062330Y-33982258D01*
X104123651Y-33948775D01*
X104193343Y-33953759D01*
X104221133Y-33968367D01*
X104325766Y-34041633D01*
X104325770Y-34041635D01*
X104539937Y-34141503D01*
X104768192Y-34202663D01*
X104944634Y-34218100D01*
X105003599Y-34223259D01*
X105003600Y-34223259D01*
X105003601Y-34223259D01*
X105062566Y-34218100D01*
X105239008Y-34202663D01*
X105467263Y-34141503D01*
X105681430Y-34041635D01*
X105875001Y-33906095D01*
X106042095Y-33739001D01*
X106172025Y-33553442D01*
X106226602Y-33509817D01*
X106296100Y-33502623D01*
X106358455Y-33534146D01*
X106375175Y-33553442D01*
X106505100Y-33738995D01*
X106505105Y-33739001D01*
X106672199Y-33906095D01*
X106761133Y-33968367D01*
X106865765Y-34041632D01*
X106865767Y-34041633D01*
X106865770Y-34041635D01*
X107079937Y-34141503D01*
X107308192Y-34202663D01*
X107484634Y-34218100D01*
X107543599Y-34223259D01*
X107543600Y-34223259D01*
X107543601Y-34223259D01*
X107602566Y-34218100D01*
X107779008Y-34202663D01*
X108007263Y-34141503D01*
X108221430Y-34041635D01*
X108415001Y-33906095D01*
X108582095Y-33739001D01*
X108712025Y-33553442D01*
X108766602Y-33509817D01*
X108836100Y-33502623D01*
X108898455Y-33534146D01*
G37*
%TD.AperFunction*%
%TA.AperFunction,Conductor*%
G36*
X113146550Y-36922904D02*
G01*
X113187079Y-36979817D01*
X113193900Y-37020376D01*
X113193900Y-37849861D01*
X113174215Y-37916900D01*
X113153440Y-37941497D01*
X113127635Y-37965021D01*
X113004727Y-38127778D01*
X112913822Y-38310339D01*
X112913817Y-38310352D01*
X112858002Y-38506517D01*
X112839185Y-38709599D01*
X112839185Y-38709600D01*
X112858002Y-38912682D01*
X112913817Y-39108847D01*
X112913822Y-39108860D01*
X113004727Y-39291421D01*
X113127637Y-39454181D01*
X113179179Y-39501167D01*
X113215461Y-39560878D01*
X113213700Y-39630725D01*
X113174457Y-39688533D01*
X113110190Y-39715948D01*
X113044747Y-39705878D01*
X112991979Y-39682127D01*
X112926074Y-39663167D01*
X112924921Y-39662822D01*
X112782312Y-39643114D01*
X110244646Y-39656979D01*
X110177500Y-39637661D01*
X110131458Y-39585108D01*
X110121137Y-39516005D01*
X110149814Y-39452291D01*
X110156274Y-39445314D01*
X112223954Y-37377636D01*
X112285277Y-37344151D01*
X112311635Y-37341317D01*
X112316162Y-37341317D01*
X112316164Y-37341317D01*
X112501321Y-37301961D01*
X112674248Y-37224968D01*
X112827389Y-37113705D01*
X112954051Y-36973033D01*
X112962512Y-36958377D01*
X113013078Y-36910162D01*
X113081684Y-36896937D01*
X113146550Y-36922904D01*
G37*
%TD.AperFunction*%
%TD*%
M02*
