%TF.GenerationSoftware,KiCad,Pcbnew,8.0.6*%
%TF.CreationDate,2024-10-21T18:23:27+02:00*%
%TF.ProjectId,AnalogI2SMic,416e616c-6f67-4493-9253-4d69632e6b69,rev?*%
%TF.SameCoordinates,Original*%
%TF.FileFunction,Copper,L2,Bot*%
%TF.FilePolarity,Positive*%
%FSLAX46Y46*%
G04 Gerber Fmt 4.6, Leading zero omitted, Abs format (unit mm)*
G04 Created by KiCad (PCBNEW 8.0.6) date 2024-10-21 18:23:27*
%MOMM*%
%LPD*%
G01*
G04 APERTURE LIST*
%TA.AperFunction,EtchedComponent*%
%ADD10C,0.000000*%
%TD*%
%TA.AperFunction,ComponentPad*%
%ADD11O,1.200000X2.200000*%
%TD*%
%TA.AperFunction,ComponentPad*%
%ADD12O,2.200000X1.200000*%
%TD*%
%TA.AperFunction,ComponentPad*%
%ADD13R,1.500000X1.500000*%
%TD*%
%TA.AperFunction,ComponentPad*%
%ADD14C,1.500000*%
%TD*%
%TA.AperFunction,ComponentPad*%
%ADD15C,0.500000*%
%TD*%
%TA.AperFunction,SMDPad,CuDef*%
%ADD16R,2.500000X2.500000*%
%TD*%
%TA.AperFunction,ComponentPad*%
%ADD17R,1.700000X1.700000*%
%TD*%
%TA.AperFunction,ComponentPad*%
%ADD18O,1.700000X1.700000*%
%TD*%
%TA.AperFunction,SMDPad,CuDef*%
%ADD19R,1.500000X1.000000*%
%TD*%
%TA.AperFunction,ViaPad*%
%ADD20C,0.800000*%
%TD*%
%TA.AperFunction,ViaPad*%
%ADD21C,1.200000*%
%TD*%
%TA.AperFunction,Conductor*%
%ADD22C,0.500000*%
%TD*%
%TA.AperFunction,Conductor*%
%ADD23C,0.250000*%
%TD*%
G04 APERTURE END LIST*
D10*
%TA.AperFunction,EtchedComponent*%
%TO.C,JP3*%
G36*
X92154400Y-40270000D02*
G01*
X91754400Y-40270000D01*
X91754400Y-39770000D01*
X92154400Y-39770000D01*
X92154400Y-40270000D01*
G37*
%TD.AperFunction*%
%TA.AperFunction,EtchedComponent*%
G36*
X92954400Y-40270000D02*
G01*
X92554400Y-40270000D01*
X92554400Y-39770000D01*
X92954400Y-39770000D01*
X92954400Y-40270000D01*
G37*
%TD.AperFunction*%
%TA.AperFunction,EtchedComponent*%
%TO.C,JP4*%
G36*
X114250000Y-40260000D02*
G01*
X113850000Y-40260000D01*
X113850000Y-39760000D01*
X114250000Y-39760000D01*
X114250000Y-40260000D01*
G37*
%TD.AperFunction*%
%TA.AperFunction,EtchedComponent*%
G36*
X115050000Y-40260000D02*
G01*
X114650000Y-40260000D01*
X114650000Y-39760000D01*
X115050000Y-39760000D01*
X115050000Y-40260000D01*
G37*
%TD.AperFunction*%
%TD*%
D11*
%TO.P,J2,R*%
%TO.N,Net-(C2-Pad2)*%
X93846000Y-48260000D03*
%TO.P,J2,RN*%
%TO.N,unconnected-(J2-PadRN)*%
X96346000Y-48260000D03*
D12*
%TO.P,J2,S*%
%TO.N,GNDA*%
X98846000Y-53260000D03*
D11*
%TO.P,J2,T*%
%TO.N,Net-(C3-Pad1)*%
X103846000Y-48260000D03*
%TO.P,J2,TN*%
%TO.N,unconnected-(J2-PadTN)*%
X101346000Y-48260000D03*
%TD*%
D13*
%TO.P,MK1,1,-*%
%TO.N,GNDA*%
X109024400Y-50636600D03*
D14*
%TO.P,MK1,2,+*%
%TO.N,Net-(MK1-+)*%
X111564400Y-50636600D03*
%TD*%
D15*
%TO.P,U1,25,PAD*%
%TO.N,GNDA*%
X106728500Y-38644000D03*
X106728500Y-39644000D03*
X106728500Y-40644000D03*
X107728500Y-38644000D03*
X107728500Y-39644000D03*
D16*
X107728500Y-39644000D03*
D15*
X107728500Y-40644000D03*
X108728500Y-38644000D03*
X108728500Y-39644000D03*
X108728500Y-40644000D03*
%TD*%
D17*
%TO.P,J4,1,Pin_1*%
%TO.N,+3.3V*%
X97663000Y-30602000D03*
D18*
%TO.P,J4,2,Pin_2*%
%TO.N,+1V8*%
X97663000Y-33142000D03*
%TO.P,J4,3,Pin_3*%
%TO.N,I2S_BCLK*%
X100203000Y-30602000D03*
%TO.P,J4,4,Pin_4*%
%TO.N,I2C_SDA*%
X100203000Y-33142000D03*
%TO.P,J4,5,Pin_5*%
%TO.N,I2S_MCLK*%
X102743000Y-30602000D03*
%TO.P,J4,6,Pin_6*%
%TO.N,I2C_SCL*%
X102743000Y-33142000D03*
%TO.P,J4,7,Pin_7*%
%TO.N,I2S_DOUT*%
X105283000Y-30602000D03*
%TO.P,J4,8,Pin_8*%
%TO.N,GPIO1*%
X105283000Y-33142000D03*
%TO.P,J4,9,Pin_9*%
%TO.N,I2S_WCLK*%
X107823000Y-30602000D03*
%TO.P,J4,10,Pin_10*%
%TO.N,GPIO2*%
X107823000Y-33142000D03*
%TO.P,J4,11,Pin_11*%
%TO.N,GND*%
X110363000Y-30602000D03*
%TO.P,J4,12,Pin_12*%
X110363000Y-33142000D03*
%TD*%
D19*
%TO.P,JP3,1,A*%
%TO.N,GND*%
X92354400Y-39370000D03*
%TO.P,JP3,2,B*%
%TO.N,GNDA*%
X92354400Y-40670000D03*
%TD*%
%TO.P,JP4,1,A*%
%TO.N,GND*%
X114450000Y-39360000D03*
%TO.P,JP4,2,B*%
%TO.N,GNDA*%
X114450000Y-40660000D03*
%TD*%
D20*
%TO.N,GND*%
X103950000Y-29160000D03*
D21*
X91764223Y-38639377D03*
X95554800Y-35966400D03*
X114802474Y-38702474D03*
X105553500Y-37019000D03*
X113650200Y-37238453D03*
X95810000Y-29302000D03*
X100944051Y-37609199D03*
%TO.N,+3.3VA*%
X112625155Y-43330845D03*
X103378000Y-40803000D03*
X98602800Y-40817900D03*
%TO.N,GNDA*%
X92151200Y-43129200D03*
X114840026Y-51338600D03*
X106692587Y-47954391D03*
X105828400Y-57066508D03*
X93197052Y-50898349D03*
X114969341Y-43160000D03*
X114840026Y-57066508D03*
X94488000Y-43688000D03*
X94518400Y-57160000D03*
%TO.N,+1V8*%
X107196497Y-36132563D03*
X101040926Y-36012141D03*
%TO.N,+3.3V*%
X97669999Y-34995484D03*
X113411000Y-29591000D03*
X108375000Y-35376828D03*
D20*
%TO.N,Net-(C2-Pad2)*%
X111666517Y-44274693D03*
X110610951Y-36981500D03*
%TO.N,Net-(C3-Pad1)*%
X111125000Y-43434000D03*
%TO.N,I2C_SDA*%
X112014000Y-31242000D03*
%TO.N,I2C_SCL*%
X113534804Y-32654001D03*
%TO.N,I2S_DOUT*%
X101223465Y-38776218D03*
X103165495Y-36739999D03*
%TO.N,I2S_WCLK*%
X104043311Y-37219000D03*
X102217703Y-38669000D03*
%TO.N,Net-(MK1-+)*%
X106960000Y-46380400D03*
%TD*%
D22*
%TO.N,GND*%
X94792800Y-35153600D02*
X94792800Y-30319200D01*
X91655024Y-38530178D02*
X91655024Y-33456976D01*
X100919965Y-39674800D02*
X102897700Y-39674800D01*
X92354400Y-39370000D02*
X92354400Y-32757600D01*
X113650200Y-38560200D02*
X114450000Y-39360000D01*
X91764223Y-38779823D02*
X92354400Y-39370000D01*
X111565081Y-33142000D02*
X112864000Y-31843081D01*
X112543247Y-36131500D02*
X113650200Y-37238453D01*
X114534000Y-39360000D02*
X114554000Y-39340000D01*
X109760951Y-36830000D02*
X109760951Y-36629418D01*
X113485653Y-37403000D02*
X113650200Y-37238453D01*
X92354400Y-32757600D02*
X95810000Y-29302000D01*
X100373465Y-39128300D02*
X100919965Y-39674800D01*
X94792800Y-35204400D02*
X94792800Y-30319200D01*
X91764223Y-38639377D02*
X91655024Y-38530178D01*
X113650200Y-37238453D02*
X113650200Y-38560200D01*
X108987369Y-37403000D02*
X109560369Y-36830000D01*
X100944051Y-37609199D02*
X97248399Y-37609199D01*
X91655024Y-33456976D02*
X95810000Y-29302000D01*
X112366082Y-30392000D02*
X110573000Y-30392000D01*
X109760951Y-36629418D02*
X110258869Y-36131500D01*
X102897700Y-39674800D02*
X105553500Y-37019000D01*
X100944051Y-37609199D02*
X100373465Y-38179785D01*
X97248399Y-37609199D02*
X94792800Y-35153600D01*
X112864000Y-31843081D02*
X112864000Y-30889918D01*
X110573000Y-30392000D02*
X110363000Y-30602000D01*
X100373465Y-38179785D02*
X100373465Y-39128300D01*
X94792800Y-30319200D02*
X95810000Y-29302000D01*
X105937500Y-37403000D02*
X108987369Y-37403000D01*
X95554800Y-35966400D02*
X94792800Y-35204400D01*
X114364511Y-39529489D02*
X114554000Y-39340000D01*
X91764223Y-38639377D02*
X91764223Y-38779823D01*
X110363000Y-33142000D02*
X111565081Y-33142000D01*
X110258869Y-36131500D02*
X112543247Y-36131500D01*
X114450000Y-39360000D02*
X114534000Y-39360000D01*
X109560369Y-36830000D02*
X109760951Y-36830000D01*
X112864000Y-30889918D02*
X112366082Y-30392000D01*
X114554000Y-38950948D02*
X114554000Y-39340000D01*
X105553500Y-37019000D02*
X105937500Y-37403000D01*
X114802474Y-38702474D02*
X114554000Y-38950948D01*
%TO.N,+3.3VA*%
X112625155Y-43330844D02*
X112625155Y-43330845D01*
X104358000Y-41783000D02*
X111077311Y-41783000D01*
X111077311Y-41783000D02*
X112625155Y-43330844D01*
X103378000Y-40803000D02*
X104358000Y-41783000D01*
X98617700Y-40803000D02*
X98602800Y-40817900D01*
X103378000Y-40803000D02*
X98617700Y-40803000D01*
%TO.N,GNDA*%
X114969341Y-43160000D02*
X114969341Y-41179341D01*
X114969341Y-43160000D02*
X114987741Y-43178400D01*
X94488000Y-43688000D02*
X94488000Y-42803600D01*
X101731173Y-53260000D02*
X98846000Y-53260000D01*
X98846000Y-54025668D02*
X98846000Y-53260000D01*
X106692587Y-48304787D02*
X109024400Y-50636600D01*
X106326800Y-48664373D02*
X101731173Y-53260000D01*
X92151200Y-43129200D02*
X92151200Y-40873200D01*
X114969341Y-43160000D02*
X114840026Y-43289315D01*
X92151200Y-40873200D02*
X92354400Y-40670000D01*
X114840026Y-57066508D02*
X101886840Y-57066508D01*
X101886840Y-57066508D02*
X98846000Y-54025668D01*
X106692587Y-47954391D02*
X106692587Y-48304787D01*
X92354400Y-50055697D02*
X92354400Y-40670000D01*
X106326800Y-48320178D02*
X106326800Y-48664373D01*
X94488000Y-42803600D02*
X92354400Y-40670000D01*
X93197052Y-50898349D02*
X92354400Y-50055697D01*
X114840026Y-43289315D02*
X114840026Y-57066508D01*
X106692587Y-47954391D02*
X106326800Y-48320178D01*
X114987741Y-49657941D02*
X114868400Y-49538600D01*
X114987741Y-43178400D02*
X114987741Y-49657941D01*
X114969341Y-41179341D02*
X114450000Y-40660000D01*
%TO.N,+1V8*%
X107196497Y-36132563D02*
X106953933Y-35889999D01*
X101163068Y-35889999D02*
X101040926Y-36012141D01*
X106953933Y-35889999D02*
X101163068Y-35889999D01*
%TO.N,+3.3V*%
X114384804Y-33951196D02*
X114384804Y-30564804D01*
X97669999Y-34995484D02*
X97735483Y-34930000D01*
X108375000Y-35376828D02*
X112959172Y-35376828D01*
X114384804Y-30564804D02*
X113411000Y-29591000D01*
X112959172Y-35376828D02*
X114384804Y-33951196D01*
X107928172Y-34930000D02*
X108375000Y-35376828D01*
X97735483Y-34930000D02*
X107928172Y-34930000D01*
D23*
%TO.N,Net-(C2-Pad2)*%
X110881610Y-45059600D02*
X106187548Y-45059600D01*
X111666517Y-44274693D02*
X112989455Y-44274693D01*
X112989455Y-44274693D02*
X113550155Y-43713993D01*
X95642400Y-49765600D02*
X93864400Y-47987600D01*
X105751800Y-45495348D02*
X105751800Y-48426200D01*
X106187548Y-45059600D02*
X105751800Y-45495348D01*
X113550155Y-41541155D02*
X110610951Y-38601951D01*
X111666517Y-44274693D02*
X110881610Y-45059600D01*
X105751800Y-48426200D02*
X104412400Y-49765600D01*
X104412400Y-49765600D02*
X95642400Y-49765600D01*
X113550155Y-43713993D02*
X113550155Y-41541155D01*
X110610951Y-38601951D02*
X110610951Y-36981500D01*
%TO.N,Net-(C3-Pad1)*%
X111125000Y-43434000D02*
X110199000Y-44360000D01*
X110199000Y-44360000D02*
X105079000Y-44360000D01*
X105079000Y-44360000D02*
X103878700Y-45560300D01*
X103835200Y-45603800D02*
X103835200Y-48249200D01*
X103835200Y-48249200D02*
X103846000Y-48260000D01*
%TO.N,I2C_SDA*%
X111379000Y-31877000D02*
X108219701Y-31877000D01*
X108219701Y-31877000D02*
X108202701Y-31860000D01*
X112014000Y-31242000D02*
X111379000Y-31877000D01*
X108202701Y-31860000D02*
X101485000Y-31860000D01*
X101485000Y-31860000D02*
X100203000Y-33142000D01*
%TO.N,I2C_SCL*%
X103956000Y-34355000D02*
X102743000Y-33142000D01*
X113534804Y-32654001D02*
X113534804Y-33785196D01*
X112965000Y-34355000D02*
X103956000Y-34355000D01*
X113534804Y-33785196D02*
X112965000Y-34355000D01*
%TO.N,I2S_DOUT*%
X101223465Y-38776218D02*
X101223465Y-38637933D01*
X101223465Y-38637933D02*
X101917398Y-37944000D01*
X101917398Y-37944000D02*
X101961494Y-37944000D01*
X101961494Y-37944000D02*
X103165495Y-36739999D01*
%TO.N,I2S_WCLK*%
X102593311Y-38669000D02*
X102217703Y-38669000D01*
X104043311Y-37219000D02*
X102593311Y-38669000D01*
%TO.N,Net-(MK1-+)*%
X107308200Y-46380400D02*
X111564400Y-50636600D01*
X106960000Y-46380400D02*
X107308200Y-46380400D01*
%TD*%
%TA.AperFunction,Conductor*%
%TO.N,GNDA*%
G36*
X97845184Y-40024685D02*
G01*
X97890939Y-40077489D01*
X97900883Y-40146647D01*
X97873998Y-40207665D01*
X97808664Y-40287273D01*
X97808662Y-40287276D01*
X97720404Y-40452397D01*
X97666053Y-40631566D01*
X97666052Y-40631568D01*
X97647701Y-40817900D01*
X97666052Y-41004231D01*
X97666053Y-41004233D01*
X97720404Y-41183402D01*
X97808662Y-41348523D01*
X97808664Y-41348526D01*
X97927442Y-41493257D01*
X98072173Y-41612035D01*
X98072176Y-41612037D01*
X98182875Y-41671206D01*
X98237299Y-41700296D01*
X98416466Y-41754646D01*
X98416468Y-41754647D01*
X98433174Y-41756292D01*
X98602800Y-41772999D01*
X98789131Y-41754647D01*
X98968301Y-41700296D01*
X99133425Y-41612036D01*
X99278157Y-41493257D01*
X99314614Y-41448835D01*
X99372360Y-41409501D01*
X99410467Y-41403500D01*
X102582561Y-41403500D01*
X102649600Y-41423185D01*
X102678414Y-41448835D01*
X102702642Y-41478357D01*
X102847373Y-41597135D01*
X102847376Y-41597137D01*
X102983693Y-41669999D01*
X103012499Y-41685396D01*
X103164087Y-41731380D01*
X103191666Y-41739746D01*
X103191668Y-41739747D01*
X103212024Y-41741751D01*
X103378000Y-41758099D01*
X103416007Y-41754355D01*
X103484652Y-41767373D01*
X103515842Y-41790077D01*
X103873139Y-42147374D01*
X103873149Y-42147385D01*
X103877479Y-42151715D01*
X103877480Y-42151716D01*
X103989284Y-42263520D01*
X104064137Y-42306735D01*
X104076095Y-42313639D01*
X104076097Y-42313641D01*
X104126213Y-42342576D01*
X104126215Y-42342577D01*
X104278942Y-42383500D01*
X104278943Y-42383500D01*
X110777214Y-42383500D01*
X110844253Y-42403185D01*
X110864895Y-42419819D01*
X110955051Y-42509975D01*
X110988536Y-42571298D01*
X110983552Y-42640990D01*
X110941680Y-42696923D01*
X110908325Y-42714697D01*
X110797313Y-42753542D01*
X110797302Y-42753547D01*
X110654115Y-42843518D01*
X110654109Y-42843523D01*
X110534523Y-42963109D01*
X110534518Y-42963115D01*
X110444547Y-43106302D01*
X110444545Y-43106305D01*
X110388685Y-43265943D01*
X110369751Y-43433997D01*
X110369751Y-43434004D01*
X110371448Y-43449067D01*
X110359393Y-43517888D01*
X110335909Y-43550630D01*
X110038358Y-43848182D01*
X109977038Y-43881666D01*
X109950679Y-43884500D01*
X105149213Y-43884500D01*
X105149197Y-43884499D01*
X105141601Y-43884499D01*
X105016399Y-43884499D01*
X105016396Y-43884499D01*
X104903092Y-43914861D01*
X104903088Y-43914862D01*
X104895468Y-43916903D01*
X104895463Y-43916905D01*
X104787037Y-43979504D01*
X104787034Y-43979506D01*
X104698503Y-44068038D01*
X103525795Y-45240745D01*
X103525794Y-45240745D01*
X103525795Y-45240746D01*
X103454703Y-45311837D01*
X103392105Y-45420263D01*
X103392105Y-45420264D01*
X103359892Y-45540485D01*
X103359700Y-45541200D01*
X103359700Y-46875498D01*
X103340015Y-46942537D01*
X103304592Y-46978600D01*
X103240088Y-47021700D01*
X103107700Y-47154088D01*
X103107697Y-47154092D01*
X103003681Y-47309762D01*
X103003676Y-47309771D01*
X102932027Y-47482748D01*
X102932025Y-47482756D01*
X102895500Y-47666379D01*
X102895500Y-48853620D01*
X102932025Y-49037243D01*
X102932028Y-49037255D01*
X102965742Y-49118648D01*
X102973211Y-49188117D01*
X102941935Y-49250596D01*
X102881846Y-49286248D01*
X102851181Y-49290100D01*
X102340819Y-49290100D01*
X102273780Y-49270415D01*
X102228025Y-49217611D01*
X102218081Y-49148453D01*
X102226258Y-49118648D01*
X102259971Y-49037255D01*
X102259973Y-49037251D01*
X102296500Y-48853616D01*
X102296500Y-47666384D01*
X102259973Y-47482749D01*
X102188322Y-47309769D01*
X102188321Y-47309768D01*
X102188318Y-47309762D01*
X102084302Y-47154092D01*
X102084299Y-47154088D01*
X101951911Y-47021700D01*
X101951907Y-47021697D01*
X101796237Y-46917681D01*
X101796228Y-46917676D01*
X101623251Y-46846027D01*
X101623243Y-46846025D01*
X101439620Y-46809500D01*
X101439616Y-46809500D01*
X101252384Y-46809500D01*
X101252379Y-46809500D01*
X101068756Y-46846025D01*
X101068748Y-46846027D01*
X100895771Y-46917676D01*
X100895762Y-46917681D01*
X100740092Y-47021697D01*
X100740088Y-47021700D01*
X100607700Y-47154088D01*
X100607697Y-47154092D01*
X100503681Y-47309762D01*
X100503676Y-47309771D01*
X100432027Y-47482748D01*
X100432025Y-47482756D01*
X100395500Y-47666379D01*
X100395500Y-48853620D01*
X100432025Y-49037243D01*
X100432028Y-49037255D01*
X100465742Y-49118648D01*
X100473211Y-49188117D01*
X100441935Y-49250596D01*
X100381846Y-49286248D01*
X100351181Y-49290100D01*
X99204973Y-49290100D01*
X99137934Y-49270415D01*
X99092179Y-49217611D01*
X99082235Y-49148453D01*
X99111260Y-49084897D01*
X99157520Y-49051539D01*
X99192033Y-49037243D01*
X99248863Y-49013703D01*
X99388162Y-48920626D01*
X99506626Y-48802162D01*
X99599703Y-48662863D01*
X99663816Y-48508082D01*
X99696500Y-48343767D01*
X99696500Y-48176233D01*
X99663816Y-48011918D01*
X99599703Y-47857137D01*
X99568537Y-47810494D01*
X99506626Y-47717837D01*
X99388162Y-47599373D01*
X99248860Y-47506295D01*
X99094082Y-47442184D01*
X99094074Y-47442182D01*
X98929771Y-47409500D01*
X98929767Y-47409500D01*
X98762233Y-47409500D01*
X98762228Y-47409500D01*
X98597925Y-47442182D01*
X98597917Y-47442184D01*
X98443139Y-47506295D01*
X98303837Y-47599373D01*
X98185373Y-47717837D01*
X98092295Y-47857139D01*
X98028184Y-48011917D01*
X98028182Y-48011925D01*
X97995500Y-48176228D01*
X97995500Y-48343771D01*
X98028182Y-48508074D01*
X98028184Y-48508082D01*
X98092295Y-48662860D01*
X98185373Y-48802162D01*
X98303837Y-48920626D01*
X98396494Y-48982537D01*
X98443137Y-49013703D01*
X98443138Y-49013703D01*
X98443139Y-49013704D01*
X98534480Y-49051539D01*
X98588883Y-49095380D01*
X98610948Y-49161674D01*
X98593669Y-49229374D01*
X98542531Y-49276984D01*
X98487027Y-49290100D01*
X97340819Y-49290100D01*
X97273780Y-49270415D01*
X97228025Y-49217611D01*
X97218081Y-49148453D01*
X97226258Y-49118648D01*
X97259971Y-49037255D01*
X97259973Y-49037251D01*
X97296500Y-48853616D01*
X97296500Y-47666384D01*
X97259973Y-47482749D01*
X97188322Y-47309769D01*
X97188321Y-47309768D01*
X97188318Y-47309762D01*
X97084302Y-47154092D01*
X97084299Y-47154088D01*
X96951911Y-47021700D01*
X96951907Y-47021697D01*
X96796237Y-46917681D01*
X96796228Y-46917676D01*
X96623251Y-46846027D01*
X96623243Y-46846025D01*
X96439620Y-46809500D01*
X96439616Y-46809500D01*
X96252384Y-46809500D01*
X96252379Y-46809500D01*
X96068756Y-46846025D01*
X96068748Y-46846027D01*
X95895771Y-46917676D01*
X95895762Y-46917681D01*
X95740092Y-47021697D01*
X95740088Y-47021700D01*
X95607700Y-47154088D01*
X95607697Y-47154092D01*
X95503681Y-47309762D01*
X95503676Y-47309771D01*
X95432027Y-47482748D01*
X95432025Y-47482756D01*
X95395500Y-47666379D01*
X95395500Y-48546879D01*
X95375815Y-48613918D01*
X95323011Y-48659673D01*
X95253853Y-48669617D01*
X95190297Y-48640592D01*
X95183819Y-48634560D01*
X94832819Y-48283560D01*
X94799334Y-48222237D01*
X94796500Y-48195879D01*
X94796500Y-47666383D01*
X94796499Y-47666379D01*
X94764657Y-47506297D01*
X94759973Y-47482749D01*
X94688322Y-47309769D01*
X94688321Y-47309768D01*
X94688318Y-47309762D01*
X94584302Y-47154092D01*
X94584299Y-47154088D01*
X94451911Y-47021700D01*
X94451907Y-47021697D01*
X94296237Y-46917681D01*
X94296228Y-46917676D01*
X94123251Y-46846027D01*
X94123243Y-46846025D01*
X93939620Y-46809500D01*
X93939616Y-46809500D01*
X93752384Y-46809500D01*
X93752379Y-46809500D01*
X93568756Y-46846025D01*
X93568748Y-46846027D01*
X93395771Y-46917676D01*
X93395762Y-46917681D01*
X93240092Y-47021697D01*
X93240088Y-47021700D01*
X93107700Y-47154088D01*
X93107697Y-47154092D01*
X93003681Y-47309762D01*
X93003676Y-47309771D01*
X92932027Y-47482748D01*
X92932025Y-47482756D01*
X92895500Y-47666379D01*
X92895500Y-48853620D01*
X92932025Y-49037243D01*
X92932027Y-49037251D01*
X93003676Y-49210228D01*
X93003681Y-49210237D01*
X93107697Y-49365907D01*
X93107700Y-49365911D01*
X93240088Y-49498299D01*
X93240092Y-49498302D01*
X93395762Y-49602318D01*
X93395768Y-49602321D01*
X93395769Y-49602322D01*
X93568749Y-49673973D01*
X93752379Y-49710499D01*
X93752383Y-49710500D01*
X93752384Y-49710500D01*
X93939617Y-49710500D01*
X93939618Y-49710499D01*
X94123251Y-49673973D01*
X94296231Y-49602322D01*
X94451908Y-49498302D01*
X94489593Y-49460616D01*
X94550914Y-49427130D01*
X94620606Y-49432113D01*
X94664956Y-49460615D01*
X95257564Y-50053222D01*
X95257574Y-50053233D01*
X95261904Y-50057563D01*
X95261905Y-50057564D01*
X95350436Y-50146095D01*
X95454182Y-50205992D01*
X95454185Y-50205995D01*
X95458859Y-50208693D01*
X95458861Y-50208693D01*
X95458864Y-50208695D01*
X95579799Y-50241101D01*
X95579802Y-50241101D01*
X95712597Y-50241101D01*
X95712613Y-50241100D01*
X104474999Y-50241100D01*
X104475001Y-50241100D01*
X104595936Y-50208695D01*
X104704364Y-50146095D01*
X105011703Y-49838755D01*
X107774400Y-49838755D01*
X107774400Y-50386600D01*
X108774400Y-50386600D01*
X108774400Y-49386600D01*
X108226555Y-49386600D01*
X108167027Y-49393001D01*
X108167020Y-49393003D01*
X108032313Y-49443245D01*
X108032306Y-49443249D01*
X107917212Y-49529409D01*
X107917209Y-49529412D01*
X107831049Y-49644506D01*
X107831045Y-49644513D01*
X107780803Y-49779220D01*
X107780801Y-49779227D01*
X107774400Y-49838755D01*
X105011703Y-49838755D01*
X106033554Y-48816902D01*
X106033559Y-48816899D01*
X106043762Y-48806695D01*
X106043764Y-48806695D01*
X106132295Y-48718164D01*
X106194895Y-48609736D01*
X106227301Y-48488801D01*
X106227301Y-48363599D01*
X106227301Y-48356004D01*
X106227300Y-48355986D01*
X106227300Y-47008429D01*
X106246985Y-46941390D01*
X106299789Y-46895635D01*
X106368947Y-46885691D01*
X106432503Y-46914716D01*
X106438981Y-46920748D01*
X106489109Y-46970876D01*
X106489115Y-46970881D01*
X106632302Y-47060852D01*
X106632305Y-47060854D01*
X106632309Y-47060855D01*
X106632310Y-47060856D01*
X106704913Y-47086260D01*
X106791943Y-47116714D01*
X106959997Y-47135649D01*
X106960000Y-47135649D01*
X106960003Y-47135649D01*
X107086044Y-47121447D01*
X107128059Y-47116713D01*
X107235265Y-47079199D01*
X107305043Y-47075637D01*
X107363901Y-47108560D01*
X109430260Y-49174919D01*
X109463745Y-49236242D01*
X109458761Y-49305934D01*
X109416889Y-49361867D01*
X109351425Y-49386284D01*
X109342579Y-49386600D01*
X109274400Y-49386600D01*
X109274400Y-50426982D01*
X109223954Y-50376536D01*
X109149845Y-50333749D01*
X109067187Y-50311600D01*
X108981613Y-50311600D01*
X108898955Y-50333749D01*
X108824846Y-50376536D01*
X108764336Y-50437046D01*
X108721549Y-50511155D01*
X108699400Y-50593813D01*
X108699400Y-50679387D01*
X108721549Y-50762045D01*
X108764336Y-50836154D01*
X108824846Y-50896664D01*
X108898955Y-50939451D01*
X108981613Y-50961600D01*
X109067187Y-50961600D01*
X109149845Y-50939451D01*
X109223954Y-50896664D01*
X109274400Y-50846218D01*
X109274400Y-51886600D01*
X109822228Y-51886600D01*
X109822244Y-51886599D01*
X109881772Y-51880198D01*
X109881779Y-51880196D01*
X110016486Y-51829954D01*
X110016493Y-51829950D01*
X110131587Y-51743790D01*
X110131590Y-51743787D01*
X110217750Y-51628693D01*
X110217754Y-51628686D01*
X110267996Y-51493979D01*
X110267998Y-51493972D01*
X110274399Y-51434444D01*
X110274400Y-51434427D01*
X110274400Y-51013016D01*
X110294085Y-50945977D01*
X110346889Y-50900222D01*
X110416047Y-50890278D01*
X110479603Y-50919303D01*
X110517377Y-50978081D01*
X110517666Y-50979081D01*
X110533817Y-51035847D01*
X110533822Y-51035860D01*
X110624727Y-51218421D01*
X110747637Y-51381181D01*
X110898358Y-51518580D01*
X110898360Y-51518582D01*
X110997541Y-51579992D01*
X111071763Y-51625948D01*
X111261944Y-51699624D01*
X111462424Y-51737100D01*
X111462426Y-51737100D01*
X111666374Y-51737100D01*
X111666376Y-51737100D01*
X111866856Y-51699624D01*
X112057037Y-51625948D01*
X112230441Y-51518581D01*
X112381164Y-51381179D01*
X112504073Y-51218421D01*
X112594982Y-51035850D01*
X112650797Y-50839683D01*
X112669615Y-50636600D01*
X112650797Y-50433517D01*
X112594982Y-50237350D01*
X112504073Y-50054779D01*
X112381164Y-49892021D01*
X112381162Y-49892018D01*
X112230441Y-49754619D01*
X112230439Y-49754617D01*
X112057042Y-49647255D01*
X112057035Y-49647251D01*
X111941048Y-49602318D01*
X111866856Y-49573576D01*
X111666376Y-49536100D01*
X111462424Y-49536100D01*
X111261944Y-49573576D01*
X111261940Y-49573577D01*
X111256309Y-49574630D01*
X111256021Y-49573090D01*
X111193558Y-49572559D01*
X111141824Y-49541565D01*
X107629180Y-46028921D01*
X107611867Y-46007212D01*
X107550476Y-45909509D01*
X107430890Y-45789923D01*
X107423184Y-45785081D01*
X107389782Y-45764093D01*
X107343492Y-45711759D01*
X107332844Y-45642706D01*
X107361219Y-45578857D01*
X107419609Y-45540485D01*
X107455755Y-45535100D01*
X110944209Y-45535100D01*
X110944211Y-45535100D01*
X111065146Y-45502695D01*
X111173574Y-45440095D01*
X111549886Y-45063781D01*
X111611207Y-45030298D01*
X111651448Y-45028244D01*
X111666517Y-45029942D01*
X111666518Y-45029941D01*
X111666519Y-45029942D01*
X111666520Y-45029942D01*
X111834573Y-45011007D01*
X111834576Y-45011006D01*
X111994207Y-44955149D01*
X111994209Y-44955147D01*
X111994211Y-44955147D01*
X111994214Y-44955145D01*
X112137401Y-44865174D01*
X112137402Y-44865173D01*
X112137407Y-44865170D01*
X112216065Y-44786512D01*
X112277388Y-44753027D01*
X112303746Y-44750193D01*
X113052054Y-44750193D01*
X113052056Y-44750193D01*
X113172991Y-44717788D01*
X113281419Y-44655188D01*
X113831909Y-44104695D01*
X113831914Y-44104692D01*
X113842117Y-44094488D01*
X113842119Y-44094488D01*
X113930650Y-44005957D01*
X113993250Y-43897529D01*
X113996741Y-43884500D01*
X114025656Y-43776594D01*
X114025656Y-43651392D01*
X114025656Y-43643797D01*
X114025655Y-43643779D01*
X114025655Y-41784000D01*
X114045340Y-41716961D01*
X114098144Y-41671206D01*
X114149655Y-41660000D01*
X114200000Y-41660000D01*
X114200000Y-40534000D01*
X114219685Y-40466961D01*
X114272489Y-40421206D01*
X114324000Y-40410000D01*
X114576000Y-40410000D01*
X114643039Y-40429685D01*
X114688794Y-40482489D01*
X114700000Y-40534000D01*
X114700000Y-41660000D01*
X115247828Y-41660000D01*
X115247844Y-41659999D01*
X115307372Y-41653598D01*
X115307376Y-41653597D01*
X115410086Y-41615289D01*
X115479778Y-41610305D01*
X115541101Y-41643790D01*
X115574586Y-41705113D01*
X115577420Y-41731380D01*
X115588398Y-56763622D01*
X115588291Y-56768852D01*
X115584737Y-56854537D01*
X115582083Y-56875421D01*
X115545325Y-57046674D01*
X115538024Y-57069581D01*
X115469507Y-57229130D01*
X115457923Y-57250198D01*
X115359905Y-57393525D01*
X115344474Y-57411960D01*
X115220636Y-57533683D01*
X115201937Y-57548794D01*
X115056946Y-57644327D01*
X115035682Y-57655547D01*
X114874974Y-57721307D01*
X114851947Y-57728211D01*
X114797770Y-57738868D01*
X114773837Y-57741200D01*
X101170000Y-57741200D01*
X101102961Y-57721515D01*
X101057206Y-57668711D01*
X101046000Y-57617200D01*
X101046000Y-56759991D01*
X101043538Y-56697040D01*
X101043538Y-56697038D01*
X101043538Y-56697036D01*
X101004624Y-56577272D01*
X100930606Y-56475394D01*
X100855224Y-56420626D01*
X100828730Y-56401377D01*
X100828725Y-56401375D01*
X100819424Y-56398353D01*
X100708964Y-56362462D01*
X100708962Y-56362461D01*
X100708960Y-56362461D01*
X100646009Y-56360000D01*
X100646000Y-56360000D01*
X97046000Y-56360000D01*
X97045991Y-56360000D01*
X96983040Y-56362461D01*
X96983038Y-56362461D01*
X96863274Y-56401375D01*
X96863269Y-56401377D01*
X96761394Y-56475394D01*
X96687377Y-56577269D01*
X96687375Y-56577274D01*
X96648461Y-56697038D01*
X96648461Y-56697040D01*
X96646000Y-56759991D01*
X96646000Y-57617200D01*
X96626315Y-57684239D01*
X96573511Y-57729994D01*
X96522000Y-57741200D01*
X91935205Y-57741200D01*
X91911389Y-57738891D01*
X91819368Y-57720882D01*
X91796439Y-57714043D01*
X91636669Y-57649016D01*
X91615480Y-57637899D01*
X91471180Y-57543400D01*
X91452521Y-57528421D01*
X91329057Y-57407966D01*
X91313622Y-57389682D01*
X91215592Y-57247756D01*
X91203957Y-57226848D01*
X91135009Y-57068733D01*
X91127607Y-57045985D01*
X91089995Y-56876142D01*
X91087206Y-56855285D01*
X91087170Y-56854537D01*
X91084585Y-56800718D01*
X91084443Y-56795000D01*
X91084398Y-56767666D01*
X91084400Y-56767667D01*
X91082642Y-55676228D01*
X92995500Y-55676228D01*
X92995500Y-55843771D01*
X93028182Y-56008074D01*
X93028184Y-56008082D01*
X93092295Y-56162860D01*
X93185373Y-56302162D01*
X93303837Y-56420626D01*
X93385804Y-56475394D01*
X93443137Y-56513703D01*
X93597918Y-56577816D01*
X93762228Y-56610499D01*
X93762232Y-56610500D01*
X93762233Y-56610500D01*
X93929768Y-56610500D01*
X93929769Y-56610499D01*
X94094082Y-56577816D01*
X94248863Y-56513703D01*
X94388162Y-56420626D01*
X94506626Y-56302162D01*
X94599703Y-56162863D01*
X94663816Y-56008082D01*
X94696500Y-55843767D01*
X94696500Y-55676233D01*
X94696499Y-55676228D01*
X102995500Y-55676228D01*
X102995500Y-55843771D01*
X103028182Y-56008074D01*
X103028184Y-56008082D01*
X103092295Y-56162860D01*
X103185373Y-56302162D01*
X103303837Y-56420626D01*
X103385804Y-56475394D01*
X103443137Y-56513703D01*
X103597918Y-56577816D01*
X103762228Y-56610499D01*
X103762232Y-56610500D01*
X103762233Y-56610500D01*
X103929768Y-56610500D01*
X103929769Y-56610499D01*
X104094082Y-56577816D01*
X104248863Y-56513703D01*
X104388162Y-56420626D01*
X104506626Y-56302162D01*
X104599703Y-56162863D01*
X104663816Y-56008082D01*
X104696500Y-55843767D01*
X104696500Y-55676233D01*
X104663816Y-55511918D01*
X104599703Y-55357137D01*
X104568537Y-55310494D01*
X104506626Y-55217837D01*
X104388162Y-55099373D01*
X104248860Y-55006295D01*
X104094082Y-54942184D01*
X104094074Y-54942182D01*
X103929771Y-54909500D01*
X103929767Y-54909500D01*
X103762233Y-54909500D01*
X103762228Y-54909500D01*
X103597925Y-54942182D01*
X103597917Y-54942184D01*
X103443139Y-55006295D01*
X103303837Y-55099373D01*
X103185373Y-55217837D01*
X103092295Y-55357139D01*
X103028184Y-55511917D01*
X103028182Y-55511925D01*
X102995500Y-55676228D01*
X94696499Y-55676228D01*
X94663816Y-55511918D01*
X94599703Y-55357137D01*
X94568537Y-55310494D01*
X94506626Y-55217837D01*
X94388162Y-55099373D01*
X94248860Y-55006295D01*
X94094082Y-54942184D01*
X94094074Y-54942182D01*
X93929771Y-54909500D01*
X93929767Y-54909500D01*
X93762233Y-54909500D01*
X93762228Y-54909500D01*
X93597925Y-54942182D01*
X93597917Y-54942184D01*
X93443139Y-55006295D01*
X93303837Y-55099373D01*
X93185373Y-55217837D01*
X93092295Y-55357139D01*
X93028184Y-55511917D01*
X93028182Y-55511925D01*
X92995500Y-55676228D01*
X91082642Y-55676228D01*
X91078615Y-53176228D01*
X92995500Y-53176228D01*
X92995500Y-53343771D01*
X93028182Y-53508074D01*
X93028184Y-53508082D01*
X93092295Y-53662860D01*
X93185373Y-53802162D01*
X93303837Y-53920626D01*
X93387612Y-53976602D01*
X93443137Y-54013703D01*
X93597918Y-54077816D01*
X93762228Y-54110499D01*
X93762232Y-54110500D01*
X93762233Y-54110500D01*
X93929768Y-54110500D01*
X93929769Y-54110499D01*
X94094082Y-54077816D01*
X94248863Y-54013703D01*
X94388162Y-53920626D01*
X94506626Y-53802162D01*
X94599703Y-53662863D01*
X94663022Y-53510000D01*
X97271885Y-53510000D01*
X97273085Y-53517584D01*
X97326591Y-53682255D01*
X97405195Y-53836524D01*
X97506967Y-53976602D01*
X97629397Y-54099032D01*
X97769475Y-54200804D01*
X97923742Y-54279408D01*
X98088415Y-54332914D01*
X98259429Y-54360000D01*
X98596000Y-54360000D01*
X99096000Y-54360000D01*
X99432571Y-54360000D01*
X99603584Y-54332914D01*
X99768257Y-54279408D01*
X99922524Y-54200804D01*
X100062602Y-54099032D01*
X100185032Y-53976602D01*
X100286804Y-53836524D01*
X100365408Y-53682255D01*
X100418914Y-53517584D01*
X100420115Y-53510000D01*
X99096000Y-53510000D01*
X99096000Y-54360000D01*
X98596000Y-54360000D01*
X98596000Y-53510000D01*
X97271885Y-53510000D01*
X94663022Y-53510000D01*
X94663816Y-53508082D01*
X94696500Y-53343767D01*
X94696500Y-53220218D01*
X98146000Y-53220218D01*
X98146000Y-53299782D01*
X98176448Y-53373291D01*
X98232709Y-53429552D01*
X98306218Y-53460000D01*
X99385782Y-53460000D01*
X99459291Y-53429552D01*
X99515552Y-53373291D01*
X99546000Y-53299782D01*
X99546000Y-53220218D01*
X99527779Y-53176228D01*
X102995500Y-53176228D01*
X102995500Y-53343771D01*
X103028182Y-53508074D01*
X103028184Y-53508082D01*
X103092295Y-53662860D01*
X103185373Y-53802162D01*
X103303837Y-53920626D01*
X103387612Y-53976602D01*
X103443137Y-54013703D01*
X103597918Y-54077816D01*
X103762228Y-54110499D01*
X103762232Y-54110500D01*
X103762233Y-54110500D01*
X103929768Y-54110500D01*
X103929769Y-54110499D01*
X104094082Y-54077816D01*
X104248863Y-54013703D01*
X104388162Y-53920626D01*
X104506626Y-53802162D01*
X104599703Y-53662863D01*
X104663816Y-53508082D01*
X104696500Y-53343767D01*
X104696500Y-53176233D01*
X104663816Y-53011918D01*
X104599703Y-52857137D01*
X104568537Y-52810494D01*
X104506626Y-52717837D01*
X104388162Y-52599373D01*
X104248860Y-52506295D01*
X104094082Y-52442184D01*
X104094074Y-52442182D01*
X103929771Y-52409500D01*
X103929767Y-52409500D01*
X103762233Y-52409500D01*
X103762228Y-52409500D01*
X103597925Y-52442182D01*
X103597917Y-52442184D01*
X103443139Y-52506295D01*
X103303837Y-52599373D01*
X103185373Y-52717837D01*
X103092295Y-52857139D01*
X103028184Y-53011917D01*
X103028182Y-53011925D01*
X102995500Y-53176228D01*
X99527779Y-53176228D01*
X99515552Y-53146709D01*
X99459291Y-53090448D01*
X99385782Y-53060000D01*
X98306218Y-53060000D01*
X98232709Y-53090448D01*
X98176448Y-53146709D01*
X98146000Y-53220218D01*
X94696500Y-53220218D01*
X94696500Y-53176233D01*
X94663816Y-53011918D01*
X94663021Y-53009999D01*
X97271884Y-53009999D01*
X97271885Y-53010000D01*
X98596000Y-53010000D01*
X99096000Y-53010000D01*
X100420115Y-53010000D01*
X100420115Y-53009999D01*
X100418914Y-53002415D01*
X100365408Y-52837744D01*
X100286804Y-52683475D01*
X100185032Y-52543397D01*
X100062602Y-52420967D01*
X99922524Y-52319195D01*
X99768257Y-52240591D01*
X99603584Y-52187085D01*
X99432571Y-52160000D01*
X99096000Y-52160000D01*
X99096000Y-53010000D01*
X98596000Y-53010000D01*
X98596000Y-52160000D01*
X98259429Y-52160000D01*
X98088415Y-52187085D01*
X97923742Y-52240591D01*
X97769475Y-52319195D01*
X97629397Y-52420967D01*
X97506967Y-52543397D01*
X97405195Y-52683475D01*
X97326591Y-52837744D01*
X97273085Y-53002415D01*
X97271884Y-53009999D01*
X94663021Y-53009999D01*
X94599703Y-52857137D01*
X94568537Y-52810494D01*
X94506626Y-52717837D01*
X94388162Y-52599373D01*
X94248860Y-52506295D01*
X94094082Y-52442184D01*
X94094074Y-52442182D01*
X93929771Y-52409500D01*
X93929767Y-52409500D01*
X93762233Y-52409500D01*
X93762228Y-52409500D01*
X93597925Y-52442182D01*
X93597917Y-52442184D01*
X93443139Y-52506295D01*
X93303837Y-52599373D01*
X93185373Y-52717837D01*
X93092295Y-52857139D01*
X93028184Y-53011917D01*
X93028182Y-53011925D01*
X92995500Y-53176228D01*
X91078615Y-53176228D01*
X91075809Y-51434444D01*
X107774400Y-51434444D01*
X107780801Y-51493972D01*
X107780803Y-51493979D01*
X107831045Y-51628686D01*
X107831049Y-51628693D01*
X107917209Y-51743787D01*
X107917212Y-51743790D01*
X108032306Y-51829950D01*
X108032313Y-51829954D01*
X108167020Y-51880196D01*
X108167027Y-51880198D01*
X108226555Y-51886599D01*
X108226572Y-51886600D01*
X108774400Y-51886600D01*
X108774400Y-50886600D01*
X107774400Y-50886600D01*
X107774400Y-51434444D01*
X91075809Y-51434444D01*
X91063589Y-43848181D01*
X91061897Y-42798385D01*
X91060691Y-41635406D01*
X91080305Y-41568351D01*
X91133061Y-41522541D01*
X91202210Y-41512526D01*
X91259001Y-41536015D01*
X91362311Y-41613353D01*
X91362313Y-41613354D01*
X91497020Y-41663596D01*
X91497027Y-41663598D01*
X91556555Y-41669999D01*
X91556572Y-41670000D01*
X92104400Y-41670000D01*
X92604400Y-41670000D01*
X93152228Y-41670000D01*
X93152244Y-41669999D01*
X93211772Y-41663598D01*
X93211779Y-41663596D01*
X93346486Y-41613354D01*
X93346493Y-41613350D01*
X93461587Y-41527190D01*
X93461590Y-41527187D01*
X93547750Y-41412093D01*
X93547754Y-41412086D01*
X93597996Y-41277379D01*
X93597998Y-41277372D01*
X93604399Y-41217844D01*
X93604400Y-41217827D01*
X93604400Y-40920000D01*
X92604400Y-40920000D01*
X92604400Y-41670000D01*
X92104400Y-41670000D01*
X92104400Y-40544000D01*
X92124085Y-40476961D01*
X92176889Y-40431206D01*
X92228400Y-40420000D01*
X93604400Y-40420000D01*
X93604400Y-40129000D01*
X93624085Y-40061961D01*
X93676889Y-40016206D01*
X93728400Y-40005000D01*
X97778145Y-40005000D01*
X97845184Y-40024685D01*
G37*
%TD.AperFunction*%
%TA.AperFunction,Conductor*%
G36*
X111357218Y-40024685D02*
G01*
X111377860Y-40041319D01*
X113038336Y-41701795D01*
X113071821Y-41763118D01*
X113074655Y-41789476D01*
X113074655Y-42306735D01*
X113054970Y-42373774D01*
X113002166Y-42419529D01*
X112933008Y-42429473D01*
X112914666Y-42425397D01*
X112811486Y-42394098D01*
X112811484Y-42394097D01*
X112811482Y-42394097D01*
X112625155Y-42375746D01*
X112587147Y-42379489D01*
X112518501Y-42366469D01*
X112487313Y-42343767D01*
X111564901Y-41421355D01*
X111564899Y-41421352D01*
X111446028Y-41302481D01*
X111446027Y-41302480D01*
X111353727Y-41249191D01*
X111353725Y-41249189D01*
X111309099Y-41223424D01*
X111309098Y-41223423D01*
X111248004Y-41207053D01*
X111156368Y-41182499D01*
X110998254Y-41182499D01*
X110990658Y-41182499D01*
X110990642Y-41182500D01*
X104658097Y-41182500D01*
X104591058Y-41162815D01*
X104570416Y-41146181D01*
X104365077Y-40940842D01*
X104331592Y-40879519D01*
X104329355Y-40841009D01*
X104333099Y-40803000D01*
X104314747Y-40616669D01*
X104260396Y-40437499D01*
X104180101Y-40287276D01*
X104172137Y-40272376D01*
X104172135Y-40272373D01*
X104119030Y-40207665D01*
X104091717Y-40143355D01*
X104103508Y-40074488D01*
X104150660Y-40022927D01*
X104214883Y-40005000D01*
X111290179Y-40005000D01*
X111357218Y-40024685D01*
G37*
%TD.AperFunction*%
%TD*%
%TA.AperFunction,Conductor*%
%TO.N,GND*%
G36*
X99059220Y-28698154D02*
G01*
X100174544Y-28698431D01*
X100175155Y-28698433D01*
X100499737Y-28700114D01*
X112599541Y-28762808D01*
X112666475Y-28782838D01*
X112711956Y-28835879D01*
X112721541Y-28905088D01*
X112694750Y-28965469D01*
X112616864Y-29060374D01*
X112616862Y-29060376D01*
X112528604Y-29225497D01*
X112474253Y-29404666D01*
X112474252Y-29404668D01*
X112455901Y-29591000D01*
X112474252Y-29777331D01*
X112474253Y-29777333D01*
X112528604Y-29956502D01*
X112616862Y-30121623D01*
X112616864Y-30121626D01*
X112735642Y-30266357D01*
X112880373Y-30385135D01*
X112880376Y-30385137D01*
X113018399Y-30458911D01*
X113045499Y-30473396D01*
X113224666Y-30527746D01*
X113224668Y-30527747D01*
X113245024Y-30529751D01*
X113411000Y-30546099D01*
X113449007Y-30542355D01*
X113517652Y-30555373D01*
X113548842Y-30578077D01*
X113747985Y-30777220D01*
X113781470Y-30838543D01*
X113784304Y-30864901D01*
X113784304Y-31788107D01*
X113764619Y-31855146D01*
X113711815Y-31900901D01*
X113646421Y-31911327D01*
X113534808Y-31898752D01*
X113534801Y-31898752D01*
X113366747Y-31917686D01*
X113207109Y-31973546D01*
X113207106Y-31973548D01*
X113063919Y-32063519D01*
X113063913Y-32063524D01*
X112944327Y-32183110D01*
X112944322Y-32183116D01*
X112854351Y-32326303D01*
X112854349Y-32326306D01*
X112798489Y-32485944D01*
X112779555Y-32653998D01*
X112779555Y-32654003D01*
X112798489Y-32822057D01*
X112854349Y-32981695D01*
X112854351Y-32981698D01*
X112944322Y-33124885D01*
X112944327Y-33124891D01*
X113022985Y-33203549D01*
X113056470Y-33264872D01*
X113059304Y-33291230D01*
X113059304Y-33536875D01*
X113039619Y-33603914D01*
X113022985Y-33624556D01*
X112804360Y-33843181D01*
X112743037Y-33876666D01*
X112716679Y-33879500D01*
X111703299Y-33879500D01*
X111636260Y-33859815D01*
X111590505Y-33807011D01*
X111580561Y-33737853D01*
X111590917Y-33703095D01*
X111636429Y-33605492D01*
X111636432Y-33605486D01*
X111693636Y-33392000D01*
X110796012Y-33392000D01*
X110828925Y-33334993D01*
X110863000Y-33207826D01*
X110863000Y-33076174D01*
X110828925Y-32949007D01*
X110796012Y-32892000D01*
X111693636Y-32892000D01*
X111693635Y-32891999D01*
X111636432Y-32678513D01*
X111636429Y-32678507D01*
X111537096Y-32465486D01*
X111526604Y-32396408D01*
X111555124Y-32332624D01*
X111587476Y-32305695D01*
X111670964Y-32257495D01*
X111897370Y-32031087D01*
X111958689Y-31997605D01*
X111998931Y-31995551D01*
X112014000Y-31997249D01*
X112014001Y-31997248D01*
X112014002Y-31997249D01*
X112014003Y-31997249D01*
X112182056Y-31978314D01*
X112182059Y-31978313D01*
X112341690Y-31922456D01*
X112341692Y-31922454D01*
X112341694Y-31922454D01*
X112341697Y-31922452D01*
X112484884Y-31832481D01*
X112484885Y-31832480D01*
X112484890Y-31832477D01*
X112604477Y-31712890D01*
X112638662Y-31658485D01*
X112694452Y-31569697D01*
X112694454Y-31569694D01*
X112694454Y-31569692D01*
X112694456Y-31569690D01*
X112750313Y-31410059D01*
X112750313Y-31410058D01*
X112750314Y-31410056D01*
X112769249Y-31242002D01*
X112769249Y-31241997D01*
X112750314Y-31073943D01*
X112694454Y-30914305D01*
X112694452Y-30914302D01*
X112604481Y-30771115D01*
X112604476Y-30771109D01*
X112484890Y-30651523D01*
X112484884Y-30651518D01*
X112341697Y-30561547D01*
X112341694Y-30561545D01*
X112182056Y-30505685D01*
X112014003Y-30486751D01*
X112013997Y-30486751D01*
X111839021Y-30506466D01*
X111838714Y-30503750D01*
X111781350Y-30500222D01*
X111725002Y-30458911D01*
X111699995Y-30394418D01*
X111697569Y-30366681D01*
X111697568Y-30366676D01*
X111636433Y-30138516D01*
X111636429Y-30138507D01*
X111536600Y-29924422D01*
X111536599Y-29924420D01*
X111401113Y-29730926D01*
X111401108Y-29730920D01*
X111234082Y-29563894D01*
X111040578Y-29428399D01*
X110826492Y-29328570D01*
X110826486Y-29328567D01*
X110613000Y-29271364D01*
X110613000Y-30168988D01*
X110555993Y-30136075D01*
X110428826Y-30102000D01*
X110297174Y-30102000D01*
X110170007Y-30136075D01*
X110113000Y-30168988D01*
X110113000Y-29271364D01*
X110112999Y-29271364D01*
X109899513Y-29328567D01*
X109899507Y-29328570D01*
X109685422Y-29428399D01*
X109685420Y-29428400D01*
X109491926Y-29563886D01*
X109491920Y-29563891D01*
X109324891Y-29730920D01*
X109324886Y-29730926D01*
X109189400Y-29924420D01*
X109189399Y-29924422D01*
X109122717Y-30067421D01*
X109076544Y-30119860D01*
X109009350Y-30139012D01*
X108942469Y-30118796D01*
X108899335Y-30070288D01*
X108848061Y-29967316D01*
X108848056Y-29967308D01*
X108713979Y-29789761D01*
X108549562Y-29639876D01*
X108549560Y-29639874D01*
X108360404Y-29522754D01*
X108360398Y-29522752D01*
X108152940Y-29442382D01*
X107934243Y-29401500D01*
X107711757Y-29401500D01*
X107493060Y-29442382D01*
X107361864Y-29493207D01*
X107285601Y-29522752D01*
X107285595Y-29522754D01*
X107096439Y-29639874D01*
X107096437Y-29639876D01*
X106932020Y-29789761D01*
X106797943Y-29967308D01*
X106797938Y-29967316D01*
X106698775Y-30166461D01*
X106698769Y-30166476D01*
X106672266Y-30259627D01*
X106634987Y-30318721D01*
X106571677Y-30348278D01*
X106502438Y-30338916D01*
X106449251Y-30293606D01*
X106433734Y-30259627D01*
X106407230Y-30166476D01*
X106407229Y-30166472D01*
X106407224Y-30166461D01*
X106308061Y-29967316D01*
X106308056Y-29967308D01*
X106173979Y-29789761D01*
X106009562Y-29639876D01*
X106009560Y-29639874D01*
X105820404Y-29522754D01*
X105820398Y-29522752D01*
X105612940Y-29442382D01*
X105394243Y-29401500D01*
X105171757Y-29401500D01*
X104953060Y-29442382D01*
X104821864Y-29493207D01*
X104745601Y-29522752D01*
X104745595Y-29522754D01*
X104556439Y-29639874D01*
X104556437Y-29639876D01*
X104392020Y-29789761D01*
X104257943Y-29967308D01*
X104257938Y-29967316D01*
X104158775Y-30166461D01*
X104158769Y-30166476D01*
X104132266Y-30259627D01*
X104094987Y-30318721D01*
X104031677Y-30348278D01*
X103962438Y-30338916D01*
X103909251Y-30293606D01*
X103893734Y-30259627D01*
X103867230Y-30166476D01*
X103867229Y-30166472D01*
X103867224Y-30166461D01*
X103768061Y-29967316D01*
X103768056Y-29967308D01*
X103633979Y-29789761D01*
X103469562Y-29639876D01*
X103469560Y-29639874D01*
X103280404Y-29522754D01*
X103280398Y-29522752D01*
X103072940Y-29442382D01*
X102854243Y-29401500D01*
X102631757Y-29401500D01*
X102413060Y-29442382D01*
X102281864Y-29493207D01*
X102205601Y-29522752D01*
X102205595Y-29522754D01*
X102016439Y-29639874D01*
X102016437Y-29639876D01*
X101852020Y-29789761D01*
X101717943Y-29967308D01*
X101717938Y-29967316D01*
X101618775Y-30166461D01*
X101618769Y-30166476D01*
X101592266Y-30259627D01*
X101554987Y-30318721D01*
X101491677Y-30348278D01*
X101422438Y-30338916D01*
X101369251Y-30293606D01*
X101353734Y-30259627D01*
X101327230Y-30166476D01*
X101327229Y-30166472D01*
X101327224Y-30166461D01*
X101228061Y-29967316D01*
X101228056Y-29967308D01*
X101093979Y-29789761D01*
X100929562Y-29639876D01*
X100929560Y-29639874D01*
X100740404Y-29522754D01*
X100740398Y-29522752D01*
X100532940Y-29442382D01*
X100314243Y-29401500D01*
X100091757Y-29401500D01*
X99873060Y-29442382D01*
X99741864Y-29493207D01*
X99665601Y-29522752D01*
X99665595Y-29522754D01*
X99476439Y-29639874D01*
X99476437Y-29639876D01*
X99312020Y-29789761D01*
X99177943Y-29967308D01*
X99177938Y-29967316D01*
X99098500Y-30126850D01*
X99050997Y-30178087D01*
X98983334Y-30195508D01*
X98916994Y-30173582D01*
X98873039Y-30119271D01*
X98863500Y-30071578D01*
X98863500Y-29718739D01*
X98853573Y-29650608D01*
X98853573Y-29650607D01*
X98802198Y-29545517D01*
X98802196Y-29545515D01*
X98802196Y-29545514D01*
X98719485Y-29462803D01*
X98614391Y-29411426D01*
X98546261Y-29401500D01*
X98546260Y-29401500D01*
X96779740Y-29401500D01*
X96779739Y-29401500D01*
X96711608Y-29411426D01*
X96606514Y-29462803D01*
X96523803Y-29545514D01*
X96472426Y-29650608D01*
X96462500Y-29718739D01*
X96462500Y-31485260D01*
X96472426Y-31553391D01*
X96523803Y-31658485D01*
X96606514Y-31741196D01*
X96606515Y-31741196D01*
X96606517Y-31741198D01*
X96711607Y-31792573D01*
X96745673Y-31797536D01*
X96779739Y-31802500D01*
X97134047Y-31802500D01*
X97201086Y-31822185D01*
X97246841Y-31874989D01*
X97256785Y-31944147D01*
X97227760Y-32007703D01*
X97178841Y-32042127D01*
X97125601Y-32062751D01*
X97125595Y-32062754D01*
X96936439Y-32179874D01*
X96936437Y-32179876D01*
X96772020Y-32329761D01*
X96637943Y-32507308D01*
X96637938Y-32507316D01*
X96538775Y-32706461D01*
X96538769Y-32706476D01*
X96477885Y-32920462D01*
X96477884Y-32920464D01*
X96457357Y-33141999D01*
X96457357Y-33142000D01*
X96477884Y-33363535D01*
X96477885Y-33363537D01*
X96538769Y-33577523D01*
X96538775Y-33577538D01*
X96637938Y-33776683D01*
X96637943Y-33776691D01*
X96772020Y-33954238D01*
X96936436Y-34104123D01*
X96940353Y-34106548D01*
X96972687Y-34126568D01*
X97019322Y-34178594D01*
X97030427Y-34247576D01*
X97002475Y-34311610D01*
X96995100Y-34319667D01*
X96994647Y-34320119D01*
X96875863Y-34464857D01*
X96875861Y-34464860D01*
X96787603Y-34629981D01*
X96733252Y-34809150D01*
X96733251Y-34809152D01*
X96714900Y-34995484D01*
X96733251Y-35181815D01*
X96733252Y-35181817D01*
X96787603Y-35360986D01*
X96875861Y-35526107D01*
X96875863Y-35526110D01*
X96994641Y-35670841D01*
X97139372Y-35789619D01*
X97139375Y-35789621D01*
X97207079Y-35825809D01*
X97304498Y-35877880D01*
X97483665Y-35932230D01*
X97483667Y-35932231D01*
X97500373Y-35933876D01*
X97669999Y-35950583D01*
X97856330Y-35932231D01*
X98035500Y-35877880D01*
X98200624Y-35789620D01*
X98345356Y-35670841D01*
X98401041Y-35602989D01*
X98423326Y-35575835D01*
X98481071Y-35536501D01*
X98519179Y-35530500D01*
X100026566Y-35530500D01*
X100093605Y-35550185D01*
X100139360Y-35602989D01*
X100149304Y-35672147D01*
X100145226Y-35690496D01*
X100104179Y-35825807D01*
X100104178Y-35825809D01*
X100085827Y-36012141D01*
X100104178Y-36198472D01*
X100104179Y-36198474D01*
X100158530Y-36377643D01*
X100246788Y-36542764D01*
X100246790Y-36542767D01*
X100365568Y-36687498D01*
X100510299Y-36806276D01*
X100510302Y-36806278D01*
X100669373Y-36891302D01*
X100675425Y-36894537D01*
X100854592Y-36948887D01*
X100854594Y-36948888D01*
X100871300Y-36950533D01*
X101040926Y-36967240D01*
X101227257Y-36948888D01*
X101406427Y-36894537D01*
X101571551Y-36806277D01*
X101716283Y-36687498D01*
X101743937Y-36653802D01*
X101838927Y-36538057D01*
X101840579Y-36539413D01*
X101886762Y-36500809D01*
X101936265Y-36490499D01*
X102299602Y-36490499D01*
X102366641Y-36510184D01*
X102412396Y-36562988D01*
X102422822Y-36628383D01*
X102410246Y-36739996D01*
X102410246Y-36740003D01*
X102411943Y-36755066D01*
X102399888Y-36823887D01*
X102376404Y-36856629D01*
X101741307Y-37491726D01*
X101715627Y-37511432D01*
X101625434Y-37563505D01*
X101625431Y-37563507D01*
X101191603Y-37997334D01*
X101130280Y-38030819D01*
X101117808Y-38032873D01*
X101055406Y-38039905D01*
X100895772Y-38095762D01*
X100895767Y-38095765D01*
X100752580Y-38185736D01*
X100752574Y-38185741D01*
X100632988Y-38305327D01*
X100632983Y-38305333D01*
X100543012Y-38448520D01*
X100543010Y-38448523D01*
X100487150Y-38608161D01*
X100468216Y-38776215D01*
X100468216Y-38776220D01*
X100487150Y-38944274D01*
X100543010Y-39103912D01*
X100543012Y-39103915D01*
X100632983Y-39247102D01*
X100632988Y-39247108D01*
X100752574Y-39366694D01*
X100752580Y-39366699D01*
X100895767Y-39456670D01*
X100895770Y-39456672D01*
X100895774Y-39456673D01*
X100895775Y-39456674D01*
X100968378Y-39482078D01*
X101055408Y-39512532D01*
X101223462Y-39531467D01*
X101223465Y-39531467D01*
X101223468Y-39531467D01*
X101391521Y-39512532D01*
X101391524Y-39512531D01*
X101551155Y-39456674D01*
X101694355Y-39366695D01*
X101710517Y-39350533D01*
X101771839Y-39317046D01*
X101841531Y-39322029D01*
X101864169Y-39333217D01*
X101890007Y-39349452D01*
X101890015Y-39349457D01*
X101939279Y-39366695D01*
X102049644Y-39405313D01*
X102091658Y-39410047D01*
X102217700Y-39424249D01*
X102217703Y-39424249D01*
X102217706Y-39424249D01*
X102385759Y-39405314D01*
X102385762Y-39405313D01*
X102545393Y-39349456D01*
X102545395Y-39349454D01*
X102545397Y-39349454D01*
X102545400Y-39349452D01*
X102688587Y-39259481D01*
X102688588Y-39259480D01*
X102688593Y-39259477D01*
X102808180Y-39139890D01*
X102837066Y-39093918D01*
X102880059Y-39052505D01*
X102885275Y-39049495D01*
X103926680Y-38008088D01*
X103988001Y-37974605D01*
X104028242Y-37972551D01*
X104043311Y-37974249D01*
X104043312Y-37974248D01*
X104043313Y-37974249D01*
X104043314Y-37974249D01*
X104211367Y-37955314D01*
X104211370Y-37955313D01*
X104371001Y-37899456D01*
X104371003Y-37899454D01*
X104371005Y-37899454D01*
X104371008Y-37899452D01*
X104514195Y-37809481D01*
X104514196Y-37809480D01*
X104514201Y-37809477D01*
X104633788Y-37689890D01*
X104710775Y-37567367D01*
X104723763Y-37546697D01*
X104723765Y-37546694D01*
X104723765Y-37546692D01*
X104723767Y-37546690D01*
X104779624Y-37387059D01*
X104779624Y-37387058D01*
X104779625Y-37387056D01*
X104798560Y-37219002D01*
X104798560Y-37218997D01*
X104779625Y-37050943D01*
X104723765Y-36891305D01*
X104723763Y-36891302D01*
X104633792Y-36748115D01*
X104633787Y-36748109D01*
X104587858Y-36702180D01*
X104554373Y-36640857D01*
X104559357Y-36571165D01*
X104601229Y-36515232D01*
X104666693Y-36490815D01*
X104675539Y-36490499D01*
X106235734Y-36490499D01*
X106302773Y-36510184D01*
X106345092Y-36556046D01*
X106402359Y-36663186D01*
X106402361Y-36663189D01*
X106521139Y-36807920D01*
X106665870Y-36926698D01*
X106665873Y-36926700D01*
X106768398Y-36981500D01*
X106830996Y-37014959D01*
X106949619Y-37050943D01*
X107010163Y-37069309D01*
X107010165Y-37069310D01*
X107026871Y-37070955D01*
X107196497Y-37087662D01*
X107382828Y-37069310D01*
X107561998Y-37014959D01*
X107727122Y-36926699D01*
X107871854Y-36807920D01*
X107990633Y-36663188D01*
X108054999Y-36542767D01*
X108078891Y-36498068D01*
X108078891Y-36498067D01*
X108078893Y-36498064D01*
X108106878Y-36405808D01*
X108145175Y-36347372D01*
X108208987Y-36318916D01*
X108237689Y-36318403D01*
X108375000Y-36331927D01*
X108561331Y-36313575D01*
X108740501Y-36259224D01*
X108905625Y-36170964D01*
X109050357Y-36052185D01*
X109074586Y-36022663D01*
X109132332Y-35983329D01*
X109170439Y-35977328D01*
X112872503Y-35977328D01*
X112872519Y-35977329D01*
X112880115Y-35977329D01*
X113038226Y-35977329D01*
X113038229Y-35977329D01*
X113190957Y-35936405D01*
X113252664Y-35900778D01*
X113327888Y-35857348D01*
X113439692Y-35745544D01*
X113439692Y-35745542D01*
X113449896Y-35735339D01*
X113449900Y-35735334D01*
X114743310Y-34441924D01*
X114743315Y-34441920D01*
X114753518Y-34431716D01*
X114753520Y-34431716D01*
X114865324Y-34319912D01*
X114922288Y-34221247D01*
X114944381Y-34182981D01*
X114985304Y-34030253D01*
X114985304Y-33872139D01*
X114985304Y-30653863D01*
X114985305Y-30653850D01*
X114985305Y-30485749D01*
X114985305Y-30485747D01*
X114944381Y-30333019D01*
X114922426Y-30294993D01*
X114905893Y-30266356D01*
X114905892Y-30266355D01*
X114865325Y-30196090D01*
X114865324Y-30196088D01*
X114753520Y-30084284D01*
X114753519Y-30084283D01*
X114749189Y-30079953D01*
X114749178Y-30079943D01*
X114398077Y-29728842D01*
X114364592Y-29667519D01*
X114362355Y-29629009D01*
X114366099Y-29591000D01*
X114347747Y-29404669D01*
X114293396Y-29225499D01*
X114291577Y-29222095D01*
X114205137Y-29060376D01*
X114205135Y-29060373D01*
X114134186Y-28973922D01*
X114106873Y-28909612D01*
X114118664Y-28840745D01*
X114165816Y-28789184D01*
X114230679Y-28771259D01*
X114902846Y-28774742D01*
X114949485Y-28784109D01*
X115021717Y-28813904D01*
X115043093Y-28825279D01*
X115187874Y-28921552D01*
X115206629Y-28936861D01*
X115329944Y-29059443D01*
X115345363Y-29078104D01*
X115442500Y-29222311D01*
X115454003Y-29243620D01*
X115521257Y-29403949D01*
X115528399Y-29427087D01*
X115563515Y-29598920D01*
X115565969Y-29620002D01*
X115568586Y-29706593D01*
X115568643Y-29710248D01*
X115570000Y-31568165D01*
X115570000Y-38285761D01*
X115550315Y-38352800D01*
X115497511Y-38398555D01*
X115428353Y-38408499D01*
X115402667Y-38401943D01*
X115307379Y-38366403D01*
X115307372Y-38366401D01*
X115247844Y-38360000D01*
X114700000Y-38360000D01*
X114700000Y-39486000D01*
X114680315Y-39553039D01*
X114627511Y-39598794D01*
X114576000Y-39610000D01*
X113200000Y-39610000D01*
X113200000Y-39907844D01*
X113207231Y-39975087D01*
X113205759Y-39975245D01*
X113202477Y-40036388D01*
X113161606Y-40093057D01*
X113096585Y-40118632D01*
X113084901Y-40119123D01*
X112850086Y-40117906D01*
X112783150Y-40097875D01*
X112763048Y-40081589D01*
X111493614Y-38812155D01*
X113200000Y-38812155D01*
X113200000Y-39110000D01*
X114200000Y-39110000D01*
X114200000Y-38360000D01*
X113652155Y-38360000D01*
X113592627Y-38366401D01*
X113592620Y-38366403D01*
X113457913Y-38416645D01*
X113457906Y-38416649D01*
X113342812Y-38502809D01*
X113342809Y-38502812D01*
X113256649Y-38617906D01*
X113256645Y-38617913D01*
X113206403Y-38752620D01*
X113206401Y-38752627D01*
X113200000Y-38812155D01*
X111493614Y-38812155D01*
X111122770Y-38441311D01*
X111089285Y-38379988D01*
X111086451Y-38353630D01*
X111086451Y-37618729D01*
X111106136Y-37551690D01*
X111122770Y-37531048D01*
X111162092Y-37491726D01*
X111201428Y-37452390D01*
X111201432Y-37452384D01*
X111291403Y-37309197D01*
X111291405Y-37309194D01*
X111291405Y-37309192D01*
X111291407Y-37309190D01*
X111347264Y-37149559D01*
X111347264Y-37149558D01*
X111347265Y-37149556D01*
X111366200Y-36981502D01*
X111366200Y-36981497D01*
X111347265Y-36813443D01*
X111291405Y-36653805D01*
X111291403Y-36653802D01*
X111201432Y-36510615D01*
X111201427Y-36510609D01*
X111081841Y-36391023D01*
X111081835Y-36391018D01*
X110938648Y-36301047D01*
X110938645Y-36301045D01*
X110779007Y-36245185D01*
X110610954Y-36226251D01*
X110610948Y-36226251D01*
X110442894Y-36245185D01*
X110283256Y-36301045D01*
X110283253Y-36301047D01*
X110140066Y-36391018D01*
X110140060Y-36391023D01*
X110020474Y-36510609D01*
X110020469Y-36510615D01*
X109930498Y-36653802D01*
X109930496Y-36653805D01*
X109874636Y-36813443D01*
X109855702Y-36981497D01*
X109855702Y-36981502D01*
X109874636Y-37149556D01*
X109930496Y-37309194D01*
X109930498Y-37309197D01*
X110020469Y-37452384D01*
X110020474Y-37452390D01*
X110099132Y-37531048D01*
X110132617Y-37592371D01*
X110135451Y-37618729D01*
X110135451Y-38539350D01*
X110135451Y-38664552D01*
X110159049Y-38752620D01*
X110167856Y-38785487D01*
X110230455Y-38893913D01*
X110230457Y-38893916D01*
X110774360Y-39437819D01*
X110807845Y-39499142D01*
X110802861Y-39568834D01*
X110760989Y-39624767D01*
X110695525Y-39649184D01*
X110686679Y-39649500D01*
X109453000Y-39649500D01*
X109385961Y-39629815D01*
X109340206Y-39577011D01*
X109329000Y-39525500D01*
X109329000Y-38691487D01*
X109330061Y-38675301D01*
X109331477Y-38664550D01*
X109334182Y-38644000D01*
X109330061Y-38612697D01*
X109329000Y-38596512D01*
X109329000Y-38360739D01*
X109319073Y-38292608D01*
X109315726Y-38285761D01*
X109267698Y-38187517D01*
X109267696Y-38187515D01*
X109267696Y-38187514D01*
X109184985Y-38104803D01*
X109079891Y-38053426D01*
X109011761Y-38043500D01*
X109011760Y-38043500D01*
X108775987Y-38043500D01*
X108759802Y-38042439D01*
X108728500Y-38038318D01*
X108697197Y-38042439D01*
X108681013Y-38043500D01*
X107775987Y-38043500D01*
X107759802Y-38042439D01*
X107728500Y-38038318D01*
X107697197Y-38042439D01*
X107681013Y-38043500D01*
X106775987Y-38043500D01*
X106759802Y-38042439D01*
X106728500Y-38038318D01*
X106697197Y-38042439D01*
X106681013Y-38043500D01*
X106445239Y-38043500D01*
X106377108Y-38053426D01*
X106272014Y-38104803D01*
X106189303Y-38187514D01*
X106137926Y-38292608D01*
X106128000Y-38360739D01*
X106128000Y-38596512D01*
X106126938Y-38612697D01*
X106122818Y-38644000D01*
X106125523Y-38664550D01*
X106126939Y-38675301D01*
X106128000Y-38691487D01*
X106128000Y-39525500D01*
X106108315Y-39592539D01*
X106055511Y-39638294D01*
X106004000Y-39649500D01*
X104214881Y-39649500D01*
X104119302Y-39662590D01*
X104119295Y-39662591D01*
X104055097Y-39680511D01*
X104055088Y-39680514D01*
X103980427Y-39710834D01*
X103888318Y-39783016D01*
X103841164Y-39834578D01*
X103824969Y-39857238D01*
X103769973Y-39900333D01*
X103700408Y-39906853D01*
X103688101Y-39903798D01*
X103564331Y-39866253D01*
X103564329Y-39866252D01*
X103564327Y-39866252D01*
X103378000Y-39847901D01*
X103191668Y-39866252D01*
X103191666Y-39866253D01*
X103012497Y-39920604D01*
X102847381Y-40008860D01*
X102847375Y-40008864D01*
X102812670Y-40037345D01*
X102748359Y-40064657D01*
X102733364Y-40065488D01*
X99205487Y-40047208D01*
X99138551Y-40027177D01*
X99137243Y-40026315D01*
X99133421Y-40023761D01*
X98968302Y-39935504D01*
X98789133Y-39881153D01*
X98789131Y-39881152D01*
X98602800Y-39862801D01*
X98416470Y-39881152D01*
X98310365Y-39913339D01*
X98240498Y-39913962D01*
X98181385Y-39876713D01*
X98168573Y-39859353D01*
X98159608Y-39844686D01*
X98137721Y-39819427D01*
X98113865Y-39791895D01*
X98113859Y-39791889D01*
X98113853Y-39791882D01*
X98050670Y-39734589D01*
X98050666Y-39734587D01*
X98050663Y-39734585D01*
X97945343Y-39683586D01*
X97945340Y-39683585D01*
X97878305Y-39663901D01*
X97878299Y-39663899D01*
X97788250Y-39650952D01*
X97778145Y-39649500D01*
X93728400Y-39649500D01*
X93702056Y-39652332D01*
X93633296Y-39639924D01*
X93605667Y-39620000D01*
X92228400Y-39620000D01*
X92161361Y-39600315D01*
X92115606Y-39547511D01*
X92104400Y-39496000D01*
X92104400Y-39120000D01*
X92604400Y-39120000D01*
X93604400Y-39120000D01*
X93604400Y-38822172D01*
X93604399Y-38822155D01*
X93597998Y-38762627D01*
X93597996Y-38762620D01*
X93547754Y-38627913D01*
X93547750Y-38627906D01*
X93461590Y-38512812D01*
X93461587Y-38512809D01*
X93346493Y-38426649D01*
X93346486Y-38426645D01*
X93211779Y-38376403D01*
X93211772Y-38376401D01*
X93152244Y-38370000D01*
X92604400Y-38370000D01*
X92604400Y-39120000D01*
X92104400Y-39120000D01*
X92104400Y-38370000D01*
X91556555Y-38370000D01*
X91497027Y-38376401D01*
X91497020Y-38376403D01*
X91362313Y-38426645D01*
X91362311Y-38426647D01*
X91257311Y-38505250D01*
X91191847Y-38529667D01*
X91123574Y-38514816D01*
X91074168Y-38465410D01*
X91059000Y-38405983D01*
X91059000Y-29544853D01*
X91061382Y-29520664D01*
X91079673Y-29428701D01*
X91086724Y-29405451D01*
X91153803Y-29243505D01*
X91165248Y-29222095D01*
X91262630Y-29076352D01*
X91278039Y-29057576D01*
X91401974Y-28933641D01*
X91420755Y-28918227D01*
X91566489Y-28820852D01*
X91587925Y-28809396D01*
X91700404Y-28762807D01*
X91749845Y-28742328D01*
X91773100Y-28735273D01*
X91946405Y-28700803D01*
X91967751Y-28698454D01*
X92055435Y-28696449D01*
X92058238Y-28696418D01*
X99059220Y-28698154D01*
G37*
%TD.AperFunction*%
%TA.AperFunction,Conductor*%
G36*
X110556039Y-32372185D02*
G01*
X110601794Y-32424989D01*
X110613000Y-32476500D01*
X110613000Y-32708988D01*
X110555993Y-32676075D01*
X110428826Y-32642000D01*
X110297174Y-32642000D01*
X110170007Y-32676075D01*
X110113000Y-32708988D01*
X110113000Y-32476500D01*
X110132685Y-32409461D01*
X110185489Y-32363706D01*
X110237000Y-32352500D01*
X110489000Y-32352500D01*
X110556039Y-32372185D01*
G37*
%TD.AperFunction*%
%TA.AperFunction,Conductor*%
G36*
X110613000Y-31277500D02*
G01*
X110593315Y-31344539D01*
X110540511Y-31390294D01*
X110489000Y-31401500D01*
X110237000Y-31401500D01*
X110169961Y-31381815D01*
X110124206Y-31329011D01*
X110113000Y-31277500D01*
X110113000Y-31035012D01*
X110170007Y-31067925D01*
X110297174Y-31102000D01*
X110428826Y-31102000D01*
X110555993Y-31067925D01*
X110613000Y-31035012D01*
X110613000Y-31277500D01*
G37*
%TD.AperFunction*%
%TD*%
M02*
