%TF.GenerationSoftware,KiCad,Pcbnew,8.0.5*%
%TF.CreationDate,2024-09-20T16:42:49+02:00*%
%TF.ProjectId,AnalogI2SMic,416e616c-6f67-4493-9253-4d69632e6b69,rev?*%
%TF.SameCoordinates,Original*%
%TF.FileFunction,Drillmap*%
%TF.FilePolarity,Positive*%
%FSLAX45Y45*%
G04 Gerber Fmt 4.5, Leading zero omitted, Abs format (unit mm)*
G04 Created by KiCad (PCBNEW 8.0.5) date 2024-09-20 16:42:49*
%MOMM*%
%LPD*%
G01*
G04 APERTURE LIST*
%ADD10C,0.100000*%
%ADD11C,0.120000*%
%ADD12C,0.200000*%
G04 APERTURE END LIST*
D10*
X9359900Y-5511000D02*
G75*
G02*
X9258331Y-5411906I0J101600D01*
G01*
X11557000Y-5411765D02*
G75*
G02*
X11455242Y-5511775I-101750J1755D01*
G01*
X9256400Y-2971242D02*
X9258329Y-5411906D01*
X11455622Y-2870200D02*
X9358000Y-2869642D01*
X10532760Y-5511140D02*
X11455242Y-5511780D01*
X9374760Y-5511140D02*
X9359900Y-5511000D01*
X9256400Y-2971242D02*
G75*
G02*
X9358000Y-2869640I101600J2D01*
G01*
X11455622Y-2870200D02*
G75*
G02*
X11556868Y-2970844I-2J-101250D01*
G01*
X11557000Y-5411765D02*
X11556864Y-2970844D01*
D11*
X9662760Y-5411140D02*
X9662760Y-5511140D01*
X9662760Y-5511140D02*
X9374760Y-5511140D01*
X10062760Y-5371140D02*
X9702760Y-5371140D01*
X10102760Y-5411140D02*
X10102760Y-5511140D01*
X10102760Y-5511140D02*
X10532760Y-5511140D01*
X9662760Y-5411140D02*
G75*
G02*
X9702760Y-5371140I40000J0D01*
G01*
X10062760Y-5371140D02*
G75*
G02*
X10102760Y-5411140I0J-40000D01*
G01*
D12*
D10*
X10657850Y-3849400D02*
X10687850Y-3879400D01*
X10687850Y-3849400D02*
X10657850Y-3879400D01*
X10657850Y-3949400D02*
X10687850Y-3979400D01*
X10687850Y-3949400D02*
X10657850Y-3979400D01*
X10657850Y-4049400D02*
X10687850Y-4079400D01*
X10687850Y-4049400D02*
X10657850Y-4079400D01*
X10757850Y-3849400D02*
X10787850Y-3879400D01*
X10787850Y-3849400D02*
X10757850Y-3879400D01*
X10757850Y-3949400D02*
X10787850Y-3979400D01*
X10787850Y-3949400D02*
X10757850Y-3979400D01*
X10757850Y-4049400D02*
X10787850Y-4079400D01*
X10787850Y-4049400D02*
X10757850Y-4079400D01*
X10857850Y-3849400D02*
X10887850Y-3879400D01*
X10887850Y-3849400D02*
X10857850Y-3879400D01*
X10857850Y-3949400D02*
X10887850Y-3979400D01*
X10887850Y-3949400D02*
X10857850Y-3979400D01*
X10857850Y-4049400D02*
X10887850Y-4079400D01*
X10887850Y-4049400D02*
X10857850Y-4079400D01*
X9337865Y-4824975D02*
G75*
G02*
X9297865Y-4824975I-20000J0D01*
G01*
X9297865Y-4824975D02*
G75*
G02*
X9337865Y-4824975I20000J0D01*
G01*
X9470000Y-5451140D02*
G75*
G02*
X9430000Y-5451140I-20000J0D01*
G01*
X9430000Y-5451140D02*
G75*
G02*
X9470000Y-5451140I20000J0D01*
G01*
X9579000Y-4222000D02*
G75*
G02*
X9539000Y-4222000I-20000J0D01*
G01*
X9539000Y-4222000D02*
G75*
G02*
X9579000Y-4222000I20000J0D01*
G01*
X9601000Y-2930200D02*
G75*
G02*
X9561000Y-2930200I-20000J0D01*
G01*
X9561000Y-2930200D02*
G75*
G02*
X9601000Y-2930200I20000J0D01*
G01*
X9654000Y-3467000D02*
G75*
G02*
X9614000Y-3467000I-20000J0D01*
G01*
X9614000Y-3467000D02*
G75*
G02*
X9654000Y-3467000I20000J0D01*
G01*
X9805000Y-3601214D02*
G75*
G02*
X9765000Y-3601214I-20000J0D01*
G01*
X9765000Y-3601214D02*
G75*
G02*
X9805000Y-3601214I20000J0D01*
G01*
X9951400Y-4076700D02*
G75*
G02*
X9911400Y-4076700I-20000J0D01*
G01*
X9911400Y-4076700D02*
G75*
G02*
X9951400Y-4076700I20000J0D01*
G01*
X10114405Y-3760920D02*
G75*
G02*
X10074405Y-3760920I-20000J0D01*
G01*
X10074405Y-3760920D02*
G75*
G02*
X10114405Y-3760920I20000J0D01*
G01*
X10124093Y-3601214D02*
G75*
G02*
X10084093Y-3601214I-20000J0D01*
G01*
X10084093Y-3601214D02*
G75*
G02*
X10124093Y-3601214I20000J0D01*
G01*
X10141900Y-3915300D02*
G75*
G02*
X10101900Y-3915300I-20000J0D01*
G01*
X10101900Y-3915300D02*
G75*
G02*
X10141900Y-3915300I20000J0D01*
G01*
X10241770Y-3866900D02*
G75*
G02*
X10201770Y-3866900I-20000J0D01*
G01*
X10201770Y-3866900D02*
G75*
G02*
X10241770Y-3866900I20000J0D01*
G01*
X10336550Y-3674000D02*
G75*
G02*
X10296550Y-3674000I-20000J0D01*
G01*
X10296550Y-3674000D02*
G75*
G02*
X10336550Y-3674000I20000J0D01*
G01*
X10415000Y-2916000D02*
G75*
G02*
X10375000Y-2916000I-20000J0D01*
G01*
X10375000Y-2916000D02*
G75*
G02*
X10415000Y-2916000I20000J0D01*
G01*
X10424331Y-3721900D02*
G75*
G02*
X10384331Y-3721900I-20000J0D01*
G01*
X10384331Y-3721900D02*
G75*
G02*
X10424331Y-3721900I20000J0D01*
G01*
X10508000Y-4856000D02*
G75*
G02*
X10468000Y-4856000I-20000J0D01*
G01*
X10468000Y-4856000D02*
G75*
G02*
X10508000Y-4856000I20000J0D01*
G01*
X10575350Y-3701900D02*
G75*
G02*
X10535350Y-3701900I-20000J0D01*
G01*
X10535350Y-3701900D02*
G75*
G02*
X10575350Y-3701900I20000J0D01*
G01*
X10601000Y-5441791D02*
G75*
G02*
X10561000Y-5441791I-20000J0D01*
G01*
X10561000Y-5441791D02*
G75*
G02*
X10601000Y-5441791I20000J0D01*
G01*
X10667680Y-4579620D02*
G75*
G02*
X10627680Y-4579620I-20000J0D01*
G01*
X10627680Y-4579620D02*
G75*
G02*
X10667680Y-4579620I20000J0D01*
G01*
X10739650Y-3613256D02*
G75*
G02*
X10699650Y-3613256I-20000J0D01*
G01*
X10699650Y-3613256D02*
G75*
G02*
X10739650Y-3613256I20000J0D01*
G01*
X10857500Y-3537683D02*
G75*
G02*
X10817500Y-3537683I-20000J0D01*
G01*
X10817500Y-3537683D02*
G75*
G02*
X10857500Y-3537683I20000J0D01*
G01*
X11075694Y-3464447D02*
G75*
G02*
X11035694Y-3464447I-20000J0D01*
G01*
X11035694Y-3464447D02*
G75*
G02*
X11075694Y-3464447I20000J0D01*
G01*
X11170600Y-3825240D02*
G75*
G02*
X11130600Y-3825240I-20000J0D01*
G01*
X11130600Y-3825240D02*
G75*
G02*
X11170600Y-3825240I20000J0D01*
G01*
X11174130Y-4344908D02*
G75*
G02*
X11134130Y-4344908I-20000J0D01*
G01*
X11134130Y-4344908D02*
G75*
G02*
X11174130Y-4344908I20000J0D01*
G01*
X11232753Y-3535753D02*
G75*
G02*
X11192753Y-3535753I-20000J0D01*
G01*
X11192753Y-3535753D02*
G75*
G02*
X11232753Y-3535753I20000J0D01*
G01*
X11237500Y-4422266D02*
G75*
G02*
X11197500Y-4422266I-20000J0D01*
G01*
X11197500Y-4422266D02*
G75*
G02*
X11237500Y-4422266I20000J0D01*
G01*
X11322500Y-4519000D02*
G75*
G02*
X11282500Y-4519000I-20000J0D01*
G01*
X11282500Y-4519000D02*
G75*
G02*
X11322500Y-4519000I20000J0D01*
G01*
X11385020Y-3723845D02*
G75*
G02*
X11345020Y-3723845I-20000J0D01*
G01*
X11345020Y-3723845D02*
G75*
G02*
X11385020Y-3723845I20000J0D01*
G01*
X11500247Y-3870247D02*
G75*
G02*
X11460247Y-3870247I-20000J0D01*
G01*
X11460247Y-3870247D02*
G75*
G02*
X11500247Y-3870247I20000J0D01*
G01*
X11502163Y-4869000D02*
G75*
G02*
X11462163Y-4869000I-20000J0D01*
G01*
X11462163Y-4869000D02*
G75*
G02*
X11502163Y-4869000I20000J0D01*
G01*
X11502163Y-5441791D02*
G75*
G02*
X11462163Y-5441791I-20000J0D01*
G01*
X11462163Y-5441791D02*
G75*
G02*
X11502163Y-5441791I20000J0D01*
G01*
X11516934Y-4316000D02*
G75*
G02*
X11476934Y-4316000I-20000J0D01*
G01*
X11476934Y-4316000D02*
G75*
G02*
X11516934Y-4316000I20000J0D01*
G01*
X9382760Y-4541140D02*
X9382760Y-4581140D01*
X9362760Y-4561140D02*
X9402760Y-4561140D01*
X9362760Y-4511140D02*
X9362760Y-4611140D01*
X9402760Y-4611140D02*
G75*
G02*
X9362760Y-4611140I-20000J0D01*
G01*
X9402760Y-4611140D02*
X9402760Y-4511140D01*
X9402760Y-4511140D02*
G75*
G03*
X9362760Y-4511140I-20000J0D01*
G01*
X9632760Y-4541140D02*
X9632760Y-4581140D01*
X9612760Y-4561140D02*
X9652760Y-4561140D01*
X9612760Y-4511140D02*
X9612760Y-4611140D01*
X9652760Y-4611140D02*
G75*
G02*
X9612760Y-4611140I-20000J0D01*
G01*
X9652760Y-4611140D02*
X9652760Y-4511140D01*
X9652760Y-4511140D02*
G75*
G03*
X9612760Y-4511140I-20000J0D01*
G01*
X9882760Y-5041140D02*
X9882760Y-5081140D01*
X9862760Y-5061140D02*
X9902760Y-5061140D01*
X9832760Y-5081140D02*
X9932760Y-5081140D01*
X9932760Y-5041140D02*
G75*
G02*
X9932760Y-5081140I0J-20000D01*
G01*
X9932760Y-5041140D02*
X9832760Y-5041140D01*
X9832760Y-5041140D02*
G75*
G03*
X9832760Y-5081140I0J-20000D01*
G01*
X10132760Y-4541140D02*
X10132760Y-4581140D01*
X10112760Y-4561140D02*
X10152760Y-4561140D01*
X10152760Y-4611140D02*
X10152760Y-4511140D01*
X10112760Y-4511140D02*
G75*
G02*
X10152760Y-4511140I20000J0D01*
G01*
X10112760Y-4511140D02*
X10112760Y-4611140D01*
X10112760Y-4611140D02*
G75*
G03*
X10152760Y-4611140I20000J0D01*
G01*
X10382760Y-4541140D02*
X10382760Y-4581140D01*
X10362760Y-4561140D02*
X10402760Y-4561140D01*
X10402760Y-4611140D02*
X10402760Y-4511140D01*
X10362760Y-4511140D02*
G75*
G02*
X10402760Y-4511140I20000J0D01*
G01*
X10362760Y-4511140D02*
X10362760Y-4611140D01*
X10362760Y-4611140D02*
G75*
G03*
X10402760Y-4611140I20000J0D01*
G01*
X10923581Y-4821781D02*
X10923581Y-4775819D01*
X10877619Y-4775819D01*
X10877619Y-4821781D01*
X10923581Y-4821781D01*
X11177581Y-4821781D02*
X11177581Y-4775819D01*
X11131619Y-4775819D01*
X11131619Y-4821781D01*
X11177581Y-4821781D01*
X9766300Y-3110200D02*
X9816300Y-3060200D01*
X9766300Y-3010200D01*
X9716300Y-3060200D01*
X9766300Y-3110200D01*
X9766300Y-3364200D02*
X9816300Y-3314200D01*
X9766300Y-3264200D01*
X9716300Y-3314200D01*
X9766300Y-3364200D01*
X10020300Y-3110200D02*
X10070300Y-3060200D01*
X10020300Y-3010200D01*
X9970300Y-3060200D01*
X10020300Y-3110200D01*
X10020300Y-3364200D02*
X10070300Y-3314200D01*
X10020300Y-3264200D01*
X9970300Y-3314200D01*
X10020300Y-3364200D01*
X10274300Y-3110200D02*
X10324300Y-3060200D01*
X10274300Y-3010200D01*
X10224300Y-3060200D01*
X10274300Y-3110200D01*
X10274300Y-3364200D02*
X10324300Y-3314200D01*
X10274300Y-3264200D01*
X10224300Y-3314200D01*
X10274300Y-3364200D01*
X10528300Y-3110200D02*
X10578300Y-3060200D01*
X10528300Y-3010200D01*
X10478300Y-3060200D01*
X10528300Y-3110200D01*
X10528300Y-3364200D02*
X10578300Y-3314200D01*
X10528300Y-3264200D01*
X10478300Y-3314200D01*
X10528300Y-3364200D01*
X10782300Y-3110200D02*
X10832300Y-3060200D01*
X10782300Y-3010200D01*
X10732300Y-3060200D01*
X10782300Y-3110200D01*
X10782300Y-3364200D02*
X10832300Y-3314200D01*
X10782300Y-3264200D01*
X10732300Y-3314200D01*
X10782300Y-3364200D01*
X11036300Y-3110200D02*
X11086300Y-3060200D01*
X11036300Y-3010200D01*
X10986300Y-3060200D01*
X11036300Y-3110200D01*
X11036300Y-3364200D02*
X11086300Y-3314200D01*
X11036300Y-3264200D01*
X10986300Y-3314200D01*
X11036300Y-3364200D01*
D12*
X9512177Y-5828624D02*
X9512177Y-5628624D01*
X9512177Y-5628624D02*
X9559796Y-5628624D01*
X9559796Y-5628624D02*
X9588367Y-5638148D01*
X9588367Y-5638148D02*
X9607415Y-5657195D01*
X9607415Y-5657195D02*
X9616939Y-5676243D01*
X9616939Y-5676243D02*
X9626463Y-5714338D01*
X9626463Y-5714338D02*
X9626463Y-5742909D01*
X9626463Y-5742909D02*
X9616939Y-5781005D01*
X9616939Y-5781005D02*
X9607415Y-5800052D01*
X9607415Y-5800052D02*
X9588367Y-5819100D01*
X9588367Y-5819100D02*
X9559796Y-5828624D01*
X9559796Y-5828624D02*
X9512177Y-5828624D01*
X9712177Y-5828624D02*
X9712177Y-5695290D01*
X9712177Y-5733386D02*
X9721701Y-5714338D01*
X9721701Y-5714338D02*
X9731224Y-5704814D01*
X9731224Y-5704814D02*
X9750272Y-5695290D01*
X9750272Y-5695290D02*
X9769320Y-5695290D01*
X9835986Y-5828624D02*
X9835986Y-5695290D01*
X9835986Y-5628624D02*
X9826463Y-5638148D01*
X9826463Y-5638148D02*
X9835986Y-5647671D01*
X9835986Y-5647671D02*
X9845510Y-5638148D01*
X9845510Y-5638148D02*
X9835986Y-5628624D01*
X9835986Y-5628624D02*
X9835986Y-5647671D01*
X9959796Y-5828624D02*
X9940748Y-5819100D01*
X9940748Y-5819100D02*
X9931224Y-5800052D01*
X9931224Y-5800052D02*
X9931224Y-5628624D01*
X10064558Y-5828624D02*
X10045510Y-5819100D01*
X10045510Y-5819100D02*
X10035986Y-5800052D01*
X10035986Y-5800052D02*
X10035986Y-5628624D01*
X10293129Y-5828624D02*
X10293129Y-5628624D01*
X10293129Y-5628624D02*
X10359796Y-5771481D01*
X10359796Y-5771481D02*
X10426463Y-5628624D01*
X10426463Y-5628624D02*
X10426463Y-5828624D01*
X10607415Y-5828624D02*
X10607415Y-5723862D01*
X10607415Y-5723862D02*
X10597891Y-5704814D01*
X10597891Y-5704814D02*
X10578844Y-5695290D01*
X10578844Y-5695290D02*
X10540748Y-5695290D01*
X10540748Y-5695290D02*
X10521701Y-5704814D01*
X10607415Y-5819100D02*
X10588367Y-5828624D01*
X10588367Y-5828624D02*
X10540748Y-5828624D01*
X10540748Y-5828624D02*
X10521701Y-5819100D01*
X10521701Y-5819100D02*
X10512177Y-5800052D01*
X10512177Y-5800052D02*
X10512177Y-5781005D01*
X10512177Y-5781005D02*
X10521701Y-5761957D01*
X10521701Y-5761957D02*
X10540748Y-5752433D01*
X10540748Y-5752433D02*
X10588367Y-5752433D01*
X10588367Y-5752433D02*
X10607415Y-5742909D01*
X10702653Y-5695290D02*
X10702653Y-5895290D01*
X10702653Y-5704814D02*
X10721701Y-5695290D01*
X10721701Y-5695290D02*
X10759796Y-5695290D01*
X10759796Y-5695290D02*
X10778844Y-5704814D01*
X10778844Y-5704814D02*
X10788367Y-5714338D01*
X10788367Y-5714338D02*
X10797891Y-5733386D01*
X10797891Y-5733386D02*
X10797891Y-5790528D01*
X10797891Y-5790528D02*
X10788367Y-5809576D01*
X10788367Y-5809576D02*
X10778844Y-5819100D01*
X10778844Y-5819100D02*
X10759796Y-5828624D01*
X10759796Y-5828624D02*
X10721701Y-5828624D01*
X10721701Y-5828624D02*
X10702653Y-5819100D01*
X10883605Y-5809576D02*
X10893129Y-5819100D01*
X10893129Y-5819100D02*
X10883605Y-5828624D01*
X10883605Y-5828624D02*
X10874082Y-5819100D01*
X10874082Y-5819100D02*
X10883605Y-5809576D01*
X10883605Y-5809576D02*
X10883605Y-5828624D01*
X10883605Y-5704814D02*
X10893129Y-5714338D01*
X10893129Y-5714338D02*
X10883605Y-5723862D01*
X10883605Y-5723862D02*
X10874082Y-5714338D01*
X10874082Y-5714338D02*
X10883605Y-5704814D01*
X10883605Y-5704814D02*
X10883605Y-5723862D01*
D10*
X9221400Y-6142140D02*
X9251400Y-6172140D01*
X9251400Y-6142140D02*
X9221400Y-6172140D01*
D12*
X9550272Y-6048624D02*
X9569320Y-6048624D01*
X9569320Y-6048624D02*
X9588367Y-6058148D01*
X9588367Y-6058148D02*
X9597891Y-6067671D01*
X9597891Y-6067671D02*
X9607415Y-6086719D01*
X9607415Y-6086719D02*
X9616939Y-6124814D01*
X9616939Y-6124814D02*
X9616939Y-6172433D01*
X9616939Y-6172433D02*
X9607415Y-6210528D01*
X9607415Y-6210528D02*
X9597891Y-6229576D01*
X9597891Y-6229576D02*
X9588367Y-6239100D01*
X9588367Y-6239100D02*
X9569320Y-6248624D01*
X9569320Y-6248624D02*
X9550272Y-6248624D01*
X9550272Y-6248624D02*
X9531224Y-6239100D01*
X9531224Y-6239100D02*
X9521701Y-6229576D01*
X9521701Y-6229576D02*
X9512177Y-6210528D01*
X9512177Y-6210528D02*
X9502653Y-6172433D01*
X9502653Y-6172433D02*
X9502653Y-6124814D01*
X9502653Y-6124814D02*
X9512177Y-6086719D01*
X9512177Y-6086719D02*
X9521701Y-6067671D01*
X9521701Y-6067671D02*
X9531224Y-6058148D01*
X9531224Y-6058148D02*
X9550272Y-6048624D01*
X9702653Y-6229576D02*
X9712177Y-6239100D01*
X9712177Y-6239100D02*
X9702653Y-6248624D01*
X9702653Y-6248624D02*
X9693129Y-6239100D01*
X9693129Y-6239100D02*
X9702653Y-6229576D01*
X9702653Y-6229576D02*
X9702653Y-6248624D01*
X9778844Y-6048624D02*
X9902653Y-6048624D01*
X9902653Y-6048624D02*
X9835986Y-6124814D01*
X9835986Y-6124814D02*
X9864558Y-6124814D01*
X9864558Y-6124814D02*
X9883605Y-6134338D01*
X9883605Y-6134338D02*
X9893129Y-6143862D01*
X9893129Y-6143862D02*
X9902653Y-6162909D01*
X9902653Y-6162909D02*
X9902653Y-6210528D01*
X9902653Y-6210528D02*
X9893129Y-6229576D01*
X9893129Y-6229576D02*
X9883605Y-6239100D01*
X9883605Y-6239100D02*
X9864558Y-6248624D01*
X9864558Y-6248624D02*
X9807415Y-6248624D01*
X9807415Y-6248624D02*
X9788367Y-6239100D01*
X9788367Y-6239100D02*
X9778844Y-6229576D01*
X10026463Y-6048624D02*
X10045510Y-6048624D01*
X10045510Y-6048624D02*
X10064558Y-6058148D01*
X10064558Y-6058148D02*
X10074082Y-6067671D01*
X10074082Y-6067671D02*
X10083605Y-6086719D01*
X10083605Y-6086719D02*
X10093129Y-6124814D01*
X10093129Y-6124814D02*
X10093129Y-6172433D01*
X10093129Y-6172433D02*
X10083605Y-6210528D01*
X10083605Y-6210528D02*
X10074082Y-6229576D01*
X10074082Y-6229576D02*
X10064558Y-6239100D01*
X10064558Y-6239100D02*
X10045510Y-6248624D01*
X10045510Y-6248624D02*
X10026463Y-6248624D01*
X10026463Y-6248624D02*
X10007415Y-6239100D01*
X10007415Y-6239100D02*
X9997891Y-6229576D01*
X9997891Y-6229576D02*
X9988367Y-6210528D01*
X9988367Y-6210528D02*
X9978844Y-6172433D01*
X9978844Y-6172433D02*
X9978844Y-6124814D01*
X9978844Y-6124814D02*
X9988367Y-6086719D01*
X9988367Y-6086719D02*
X9997891Y-6067671D01*
X9997891Y-6067671D02*
X10007415Y-6058148D01*
X10007415Y-6058148D02*
X10026463Y-6048624D01*
X10216939Y-6048624D02*
X10235986Y-6048624D01*
X10235986Y-6048624D02*
X10255034Y-6058148D01*
X10255034Y-6058148D02*
X10264558Y-6067671D01*
X10264558Y-6067671D02*
X10274082Y-6086719D01*
X10274082Y-6086719D02*
X10283605Y-6124814D01*
X10283605Y-6124814D02*
X10283605Y-6172433D01*
X10283605Y-6172433D02*
X10274082Y-6210528D01*
X10274082Y-6210528D02*
X10264558Y-6229576D01*
X10264558Y-6229576D02*
X10255034Y-6239100D01*
X10255034Y-6239100D02*
X10235986Y-6248624D01*
X10235986Y-6248624D02*
X10216939Y-6248624D01*
X10216939Y-6248624D02*
X10197891Y-6239100D01*
X10197891Y-6239100D02*
X10188367Y-6229576D01*
X10188367Y-6229576D02*
X10178844Y-6210528D01*
X10178844Y-6210528D02*
X10169320Y-6172433D01*
X10169320Y-6172433D02*
X10169320Y-6124814D01*
X10169320Y-6124814D02*
X10178844Y-6086719D01*
X10178844Y-6086719D02*
X10188367Y-6067671D01*
X10188367Y-6067671D02*
X10197891Y-6058148D01*
X10197891Y-6058148D02*
X10216939Y-6048624D01*
X10369320Y-6248624D02*
X10369320Y-6115290D01*
X10369320Y-6134338D02*
X10378844Y-6124814D01*
X10378844Y-6124814D02*
X10397891Y-6115290D01*
X10397891Y-6115290D02*
X10426463Y-6115290D01*
X10426463Y-6115290D02*
X10445510Y-6124814D01*
X10445510Y-6124814D02*
X10455034Y-6143862D01*
X10455034Y-6143862D02*
X10455034Y-6248624D01*
X10455034Y-6143862D02*
X10464558Y-6124814D01*
X10464558Y-6124814D02*
X10483605Y-6115290D01*
X10483605Y-6115290D02*
X10512177Y-6115290D01*
X10512177Y-6115290D02*
X10531225Y-6124814D01*
X10531225Y-6124814D02*
X10540748Y-6143862D01*
X10540748Y-6143862D02*
X10540748Y-6248624D01*
X10635986Y-6248624D02*
X10635986Y-6115290D01*
X10635986Y-6134338D02*
X10645510Y-6124814D01*
X10645510Y-6124814D02*
X10664558Y-6115290D01*
X10664558Y-6115290D02*
X10693129Y-6115290D01*
X10693129Y-6115290D02*
X10712177Y-6124814D01*
X10712177Y-6124814D02*
X10721701Y-6143862D01*
X10721701Y-6143862D02*
X10721701Y-6248624D01*
X10721701Y-6143862D02*
X10731225Y-6124814D01*
X10731225Y-6124814D02*
X10750272Y-6115290D01*
X10750272Y-6115290D02*
X10778844Y-6115290D01*
X10778844Y-6115290D02*
X10797891Y-6124814D01*
X10797891Y-6124814D02*
X10807415Y-6143862D01*
X10807415Y-6143862D02*
X10807415Y-6248624D01*
X11197891Y-6039100D02*
X11026463Y-6296243D01*
X11455034Y-6048624D02*
X11474082Y-6048624D01*
X11474082Y-6048624D02*
X11493129Y-6058148D01*
X11493129Y-6058148D02*
X11502653Y-6067671D01*
X11502653Y-6067671D02*
X11512177Y-6086719D01*
X11512177Y-6086719D02*
X11521701Y-6124814D01*
X11521701Y-6124814D02*
X11521701Y-6172433D01*
X11521701Y-6172433D02*
X11512177Y-6210528D01*
X11512177Y-6210528D02*
X11502653Y-6229576D01*
X11502653Y-6229576D02*
X11493129Y-6239100D01*
X11493129Y-6239100D02*
X11474082Y-6248624D01*
X11474082Y-6248624D02*
X11455034Y-6248624D01*
X11455034Y-6248624D02*
X11435986Y-6239100D01*
X11435986Y-6239100D02*
X11426463Y-6229576D01*
X11426463Y-6229576D02*
X11416939Y-6210528D01*
X11416939Y-6210528D02*
X11407415Y-6172433D01*
X11407415Y-6172433D02*
X11407415Y-6124814D01*
X11407415Y-6124814D02*
X11416939Y-6086719D01*
X11416939Y-6086719D02*
X11426463Y-6067671D01*
X11426463Y-6067671D02*
X11435986Y-6058148D01*
X11435986Y-6058148D02*
X11455034Y-6048624D01*
X11607415Y-6229576D02*
X11616939Y-6239100D01*
X11616939Y-6239100D02*
X11607415Y-6248624D01*
X11607415Y-6248624D02*
X11597891Y-6239100D01*
X11597891Y-6239100D02*
X11607415Y-6229576D01*
X11607415Y-6229576D02*
X11607415Y-6248624D01*
X11740748Y-6048624D02*
X11759796Y-6048624D01*
X11759796Y-6048624D02*
X11778844Y-6058148D01*
X11778844Y-6058148D02*
X11788367Y-6067671D01*
X11788367Y-6067671D02*
X11797891Y-6086719D01*
X11797891Y-6086719D02*
X11807415Y-6124814D01*
X11807415Y-6124814D02*
X11807415Y-6172433D01*
X11807415Y-6172433D02*
X11797891Y-6210528D01*
X11797891Y-6210528D02*
X11788367Y-6229576D01*
X11788367Y-6229576D02*
X11778844Y-6239100D01*
X11778844Y-6239100D02*
X11759796Y-6248624D01*
X11759796Y-6248624D02*
X11740748Y-6248624D01*
X11740748Y-6248624D02*
X11721701Y-6239100D01*
X11721701Y-6239100D02*
X11712177Y-6229576D01*
X11712177Y-6229576D02*
X11702653Y-6210528D01*
X11702653Y-6210528D02*
X11693129Y-6172433D01*
X11693129Y-6172433D02*
X11693129Y-6124814D01*
X11693129Y-6124814D02*
X11702653Y-6086719D01*
X11702653Y-6086719D02*
X11712177Y-6067671D01*
X11712177Y-6067671D02*
X11721701Y-6058148D01*
X11721701Y-6058148D02*
X11740748Y-6048624D01*
X11997891Y-6248624D02*
X11883606Y-6248624D01*
X11940748Y-6248624D02*
X11940748Y-6048624D01*
X11940748Y-6048624D02*
X11921701Y-6077195D01*
X11921701Y-6077195D02*
X11902653Y-6096243D01*
X11902653Y-6096243D02*
X11883606Y-6105767D01*
X12188367Y-6248624D02*
X12074082Y-6248624D01*
X12131225Y-6248624D02*
X12131225Y-6048624D01*
X12131225Y-6048624D02*
X12112177Y-6077195D01*
X12112177Y-6077195D02*
X12093129Y-6096243D01*
X12093129Y-6096243D02*
X12074082Y-6105767D01*
X12302653Y-6134338D02*
X12283606Y-6124814D01*
X12283606Y-6124814D02*
X12274082Y-6115290D01*
X12274082Y-6115290D02*
X12264558Y-6096243D01*
X12264558Y-6096243D02*
X12264558Y-6086719D01*
X12264558Y-6086719D02*
X12274082Y-6067671D01*
X12274082Y-6067671D02*
X12283606Y-6058148D01*
X12283606Y-6058148D02*
X12302653Y-6048624D01*
X12302653Y-6048624D02*
X12340748Y-6048624D01*
X12340748Y-6048624D02*
X12359796Y-6058148D01*
X12359796Y-6058148D02*
X12369320Y-6067671D01*
X12369320Y-6067671D02*
X12378844Y-6086719D01*
X12378844Y-6086719D02*
X12378844Y-6096243D01*
X12378844Y-6096243D02*
X12369320Y-6115290D01*
X12369320Y-6115290D02*
X12359796Y-6124814D01*
X12359796Y-6124814D02*
X12340748Y-6134338D01*
X12340748Y-6134338D02*
X12302653Y-6134338D01*
X12302653Y-6134338D02*
X12283606Y-6143862D01*
X12283606Y-6143862D02*
X12274082Y-6153386D01*
X12274082Y-6153386D02*
X12264558Y-6172433D01*
X12264558Y-6172433D02*
X12264558Y-6210528D01*
X12264558Y-6210528D02*
X12274082Y-6229576D01*
X12274082Y-6229576D02*
X12283606Y-6239100D01*
X12283606Y-6239100D02*
X12302653Y-6248624D01*
X12302653Y-6248624D02*
X12340748Y-6248624D01*
X12340748Y-6248624D02*
X12359796Y-6239100D01*
X12359796Y-6239100D02*
X12369320Y-6229576D01*
X12369320Y-6229576D02*
X12378844Y-6210528D01*
X12378844Y-6210528D02*
X12378844Y-6172433D01*
X12378844Y-6172433D02*
X12369320Y-6153386D01*
X12369320Y-6153386D02*
X12359796Y-6143862D01*
X12359796Y-6143862D02*
X12340748Y-6134338D01*
X12455034Y-6048624D02*
X12455034Y-6086719D01*
X12531225Y-6048624D02*
X12531225Y-6086719D01*
X12826463Y-6324814D02*
X12816939Y-6315290D01*
X12816939Y-6315290D02*
X12797891Y-6286719D01*
X12797891Y-6286719D02*
X12788368Y-6267671D01*
X12788368Y-6267671D02*
X12778844Y-6239100D01*
X12778844Y-6239100D02*
X12769320Y-6191481D01*
X12769320Y-6191481D02*
X12769320Y-6153386D01*
X12769320Y-6153386D02*
X12778844Y-6105767D01*
X12778844Y-6105767D02*
X12788368Y-6077195D01*
X12788368Y-6077195D02*
X12797891Y-6058148D01*
X12797891Y-6058148D02*
X12816939Y-6029576D01*
X12816939Y-6029576D02*
X12826463Y-6020052D01*
X12912177Y-6248624D02*
X12950272Y-6248624D01*
X12950272Y-6248624D02*
X12969320Y-6239100D01*
X12969320Y-6239100D02*
X12978844Y-6229576D01*
X12978844Y-6229576D02*
X12997891Y-6201005D01*
X12997891Y-6201005D02*
X13007415Y-6162909D01*
X13007415Y-6162909D02*
X13007415Y-6086719D01*
X13007415Y-6086719D02*
X12997891Y-6067671D01*
X12997891Y-6067671D02*
X12988368Y-6058148D01*
X12988368Y-6058148D02*
X12969320Y-6048624D01*
X12969320Y-6048624D02*
X12931225Y-6048624D01*
X12931225Y-6048624D02*
X12912177Y-6058148D01*
X12912177Y-6058148D02*
X12902653Y-6067671D01*
X12902653Y-6067671D02*
X12893129Y-6086719D01*
X12893129Y-6086719D02*
X12893129Y-6134338D01*
X12893129Y-6134338D02*
X12902653Y-6153386D01*
X12902653Y-6153386D02*
X12912177Y-6162909D01*
X12912177Y-6162909D02*
X12931225Y-6172433D01*
X12931225Y-6172433D02*
X12969320Y-6172433D01*
X12969320Y-6172433D02*
X12988368Y-6162909D01*
X12988368Y-6162909D02*
X12997891Y-6153386D01*
X12997891Y-6153386D02*
X13007415Y-6134338D01*
X13245510Y-6248624D02*
X13245510Y-6048624D01*
X13331225Y-6248624D02*
X13331225Y-6143862D01*
X13331225Y-6143862D02*
X13321701Y-6124814D01*
X13321701Y-6124814D02*
X13302653Y-6115290D01*
X13302653Y-6115290D02*
X13274082Y-6115290D01*
X13274082Y-6115290D02*
X13255034Y-6124814D01*
X13255034Y-6124814D02*
X13245510Y-6134338D01*
X13455034Y-6248624D02*
X13435987Y-6239100D01*
X13435987Y-6239100D02*
X13426463Y-6229576D01*
X13426463Y-6229576D02*
X13416939Y-6210528D01*
X13416939Y-6210528D02*
X13416939Y-6153386D01*
X13416939Y-6153386D02*
X13426463Y-6134338D01*
X13426463Y-6134338D02*
X13435987Y-6124814D01*
X13435987Y-6124814D02*
X13455034Y-6115290D01*
X13455034Y-6115290D02*
X13483606Y-6115290D01*
X13483606Y-6115290D02*
X13502653Y-6124814D01*
X13502653Y-6124814D02*
X13512177Y-6134338D01*
X13512177Y-6134338D02*
X13521701Y-6153386D01*
X13521701Y-6153386D02*
X13521701Y-6210528D01*
X13521701Y-6210528D02*
X13512177Y-6229576D01*
X13512177Y-6229576D02*
X13502653Y-6239100D01*
X13502653Y-6239100D02*
X13483606Y-6248624D01*
X13483606Y-6248624D02*
X13455034Y-6248624D01*
X13635987Y-6248624D02*
X13616939Y-6239100D01*
X13616939Y-6239100D02*
X13607415Y-6220052D01*
X13607415Y-6220052D02*
X13607415Y-6048624D01*
X13788368Y-6239100D02*
X13769320Y-6248624D01*
X13769320Y-6248624D02*
X13731225Y-6248624D01*
X13731225Y-6248624D02*
X13712177Y-6239100D01*
X13712177Y-6239100D02*
X13702653Y-6220052D01*
X13702653Y-6220052D02*
X13702653Y-6143862D01*
X13702653Y-6143862D02*
X13712177Y-6124814D01*
X13712177Y-6124814D02*
X13731225Y-6115290D01*
X13731225Y-6115290D02*
X13769320Y-6115290D01*
X13769320Y-6115290D02*
X13788368Y-6124814D01*
X13788368Y-6124814D02*
X13797891Y-6143862D01*
X13797891Y-6143862D02*
X13797891Y-6162909D01*
X13797891Y-6162909D02*
X13702653Y-6181957D01*
X13874082Y-6239100D02*
X13893130Y-6248624D01*
X13893130Y-6248624D02*
X13931225Y-6248624D01*
X13931225Y-6248624D02*
X13950272Y-6239100D01*
X13950272Y-6239100D02*
X13959796Y-6220052D01*
X13959796Y-6220052D02*
X13959796Y-6210528D01*
X13959796Y-6210528D02*
X13950272Y-6191481D01*
X13950272Y-6191481D02*
X13931225Y-6181957D01*
X13931225Y-6181957D02*
X13902653Y-6181957D01*
X13902653Y-6181957D02*
X13883606Y-6172433D01*
X13883606Y-6172433D02*
X13874082Y-6153386D01*
X13874082Y-6153386D02*
X13874082Y-6143862D01*
X13874082Y-6143862D02*
X13883606Y-6124814D01*
X13883606Y-6124814D02*
X13902653Y-6115290D01*
X13902653Y-6115290D02*
X13931225Y-6115290D01*
X13931225Y-6115290D02*
X13950272Y-6124814D01*
X14026463Y-6324814D02*
X14035987Y-6315290D01*
X14035987Y-6315290D02*
X14055034Y-6286719D01*
X14055034Y-6286719D02*
X14064558Y-6267671D01*
X14064558Y-6267671D02*
X14074082Y-6239100D01*
X14074082Y-6239100D02*
X14083606Y-6191481D01*
X14083606Y-6191481D02*
X14083606Y-6153386D01*
X14083606Y-6153386D02*
X14074082Y-6105767D01*
X14074082Y-6105767D02*
X14064558Y-6077195D01*
X14064558Y-6077195D02*
X14055034Y-6058148D01*
X14055034Y-6058148D02*
X14035987Y-6029576D01*
X14035987Y-6029576D02*
X14026463Y-6020052D01*
D10*
X9251400Y-6421140D02*
G75*
G02*
X9211400Y-6421140I-20000J0D01*
G01*
X9211400Y-6421140D02*
G75*
G02*
X9251400Y-6421140I20000J0D01*
G01*
D12*
X9550272Y-6312624D02*
X9569320Y-6312624D01*
X9569320Y-6312624D02*
X9588367Y-6322148D01*
X9588367Y-6322148D02*
X9597891Y-6331671D01*
X9597891Y-6331671D02*
X9607415Y-6350719D01*
X9607415Y-6350719D02*
X9616939Y-6388814D01*
X9616939Y-6388814D02*
X9616939Y-6436433D01*
X9616939Y-6436433D02*
X9607415Y-6474528D01*
X9607415Y-6474528D02*
X9597891Y-6493576D01*
X9597891Y-6493576D02*
X9588367Y-6503100D01*
X9588367Y-6503100D02*
X9569320Y-6512624D01*
X9569320Y-6512624D02*
X9550272Y-6512624D01*
X9550272Y-6512624D02*
X9531224Y-6503100D01*
X9531224Y-6503100D02*
X9521701Y-6493576D01*
X9521701Y-6493576D02*
X9512177Y-6474528D01*
X9512177Y-6474528D02*
X9502653Y-6436433D01*
X9502653Y-6436433D02*
X9502653Y-6388814D01*
X9502653Y-6388814D02*
X9512177Y-6350719D01*
X9512177Y-6350719D02*
X9521701Y-6331671D01*
X9521701Y-6331671D02*
X9531224Y-6322148D01*
X9531224Y-6322148D02*
X9550272Y-6312624D01*
X9702653Y-6493576D02*
X9712177Y-6503100D01*
X9712177Y-6503100D02*
X9702653Y-6512624D01*
X9702653Y-6512624D02*
X9693129Y-6503100D01*
X9693129Y-6503100D02*
X9702653Y-6493576D01*
X9702653Y-6493576D02*
X9702653Y-6512624D01*
X9883605Y-6379290D02*
X9883605Y-6512624D01*
X9835986Y-6303100D02*
X9788367Y-6445957D01*
X9788367Y-6445957D02*
X9912177Y-6445957D01*
X10026463Y-6312624D02*
X10045510Y-6312624D01*
X10045510Y-6312624D02*
X10064558Y-6322148D01*
X10064558Y-6322148D02*
X10074082Y-6331671D01*
X10074082Y-6331671D02*
X10083605Y-6350719D01*
X10083605Y-6350719D02*
X10093129Y-6388814D01*
X10093129Y-6388814D02*
X10093129Y-6436433D01*
X10093129Y-6436433D02*
X10083605Y-6474528D01*
X10083605Y-6474528D02*
X10074082Y-6493576D01*
X10074082Y-6493576D02*
X10064558Y-6503100D01*
X10064558Y-6503100D02*
X10045510Y-6512624D01*
X10045510Y-6512624D02*
X10026463Y-6512624D01*
X10026463Y-6512624D02*
X10007415Y-6503100D01*
X10007415Y-6503100D02*
X9997891Y-6493576D01*
X9997891Y-6493576D02*
X9988367Y-6474528D01*
X9988367Y-6474528D02*
X9978844Y-6436433D01*
X9978844Y-6436433D02*
X9978844Y-6388814D01*
X9978844Y-6388814D02*
X9988367Y-6350719D01*
X9988367Y-6350719D02*
X9997891Y-6331671D01*
X9997891Y-6331671D02*
X10007415Y-6322148D01*
X10007415Y-6322148D02*
X10026463Y-6312624D01*
X10216939Y-6312624D02*
X10235986Y-6312624D01*
X10235986Y-6312624D02*
X10255034Y-6322148D01*
X10255034Y-6322148D02*
X10264558Y-6331671D01*
X10264558Y-6331671D02*
X10274082Y-6350719D01*
X10274082Y-6350719D02*
X10283605Y-6388814D01*
X10283605Y-6388814D02*
X10283605Y-6436433D01*
X10283605Y-6436433D02*
X10274082Y-6474528D01*
X10274082Y-6474528D02*
X10264558Y-6493576D01*
X10264558Y-6493576D02*
X10255034Y-6503100D01*
X10255034Y-6503100D02*
X10235986Y-6512624D01*
X10235986Y-6512624D02*
X10216939Y-6512624D01*
X10216939Y-6512624D02*
X10197891Y-6503100D01*
X10197891Y-6503100D02*
X10188367Y-6493576D01*
X10188367Y-6493576D02*
X10178844Y-6474528D01*
X10178844Y-6474528D02*
X10169320Y-6436433D01*
X10169320Y-6436433D02*
X10169320Y-6388814D01*
X10169320Y-6388814D02*
X10178844Y-6350719D01*
X10178844Y-6350719D02*
X10188367Y-6331671D01*
X10188367Y-6331671D02*
X10197891Y-6322148D01*
X10197891Y-6322148D02*
X10216939Y-6312624D01*
X10369320Y-6512624D02*
X10369320Y-6379290D01*
X10369320Y-6398338D02*
X10378844Y-6388814D01*
X10378844Y-6388814D02*
X10397891Y-6379290D01*
X10397891Y-6379290D02*
X10426463Y-6379290D01*
X10426463Y-6379290D02*
X10445510Y-6388814D01*
X10445510Y-6388814D02*
X10455034Y-6407862D01*
X10455034Y-6407862D02*
X10455034Y-6512624D01*
X10455034Y-6407862D02*
X10464558Y-6388814D01*
X10464558Y-6388814D02*
X10483605Y-6379290D01*
X10483605Y-6379290D02*
X10512177Y-6379290D01*
X10512177Y-6379290D02*
X10531225Y-6388814D01*
X10531225Y-6388814D02*
X10540748Y-6407862D01*
X10540748Y-6407862D02*
X10540748Y-6512624D01*
X10635986Y-6512624D02*
X10635986Y-6379290D01*
X10635986Y-6398338D02*
X10645510Y-6388814D01*
X10645510Y-6388814D02*
X10664558Y-6379290D01*
X10664558Y-6379290D02*
X10693129Y-6379290D01*
X10693129Y-6379290D02*
X10712177Y-6388814D01*
X10712177Y-6388814D02*
X10721701Y-6407862D01*
X10721701Y-6407862D02*
X10721701Y-6512624D01*
X10721701Y-6407862D02*
X10731225Y-6388814D01*
X10731225Y-6388814D02*
X10750272Y-6379290D01*
X10750272Y-6379290D02*
X10778844Y-6379290D01*
X10778844Y-6379290D02*
X10797891Y-6388814D01*
X10797891Y-6388814D02*
X10807415Y-6407862D01*
X10807415Y-6407862D02*
X10807415Y-6512624D01*
X11197891Y-6303100D02*
X11026463Y-6560243D01*
X11455034Y-6312624D02*
X11474082Y-6312624D01*
X11474082Y-6312624D02*
X11493129Y-6322148D01*
X11493129Y-6322148D02*
X11502653Y-6331671D01*
X11502653Y-6331671D02*
X11512177Y-6350719D01*
X11512177Y-6350719D02*
X11521701Y-6388814D01*
X11521701Y-6388814D02*
X11521701Y-6436433D01*
X11521701Y-6436433D02*
X11512177Y-6474528D01*
X11512177Y-6474528D02*
X11502653Y-6493576D01*
X11502653Y-6493576D02*
X11493129Y-6503100D01*
X11493129Y-6503100D02*
X11474082Y-6512624D01*
X11474082Y-6512624D02*
X11455034Y-6512624D01*
X11455034Y-6512624D02*
X11435986Y-6503100D01*
X11435986Y-6503100D02*
X11426463Y-6493576D01*
X11426463Y-6493576D02*
X11416939Y-6474528D01*
X11416939Y-6474528D02*
X11407415Y-6436433D01*
X11407415Y-6436433D02*
X11407415Y-6388814D01*
X11407415Y-6388814D02*
X11416939Y-6350719D01*
X11416939Y-6350719D02*
X11426463Y-6331671D01*
X11426463Y-6331671D02*
X11435986Y-6322148D01*
X11435986Y-6322148D02*
X11455034Y-6312624D01*
X11607415Y-6493576D02*
X11616939Y-6503100D01*
X11616939Y-6503100D02*
X11607415Y-6512624D01*
X11607415Y-6512624D02*
X11597891Y-6503100D01*
X11597891Y-6503100D02*
X11607415Y-6493576D01*
X11607415Y-6493576D02*
X11607415Y-6512624D01*
X11740748Y-6312624D02*
X11759796Y-6312624D01*
X11759796Y-6312624D02*
X11778844Y-6322148D01*
X11778844Y-6322148D02*
X11788367Y-6331671D01*
X11788367Y-6331671D02*
X11797891Y-6350719D01*
X11797891Y-6350719D02*
X11807415Y-6388814D01*
X11807415Y-6388814D02*
X11807415Y-6436433D01*
X11807415Y-6436433D02*
X11797891Y-6474528D01*
X11797891Y-6474528D02*
X11788367Y-6493576D01*
X11788367Y-6493576D02*
X11778844Y-6503100D01*
X11778844Y-6503100D02*
X11759796Y-6512624D01*
X11759796Y-6512624D02*
X11740748Y-6512624D01*
X11740748Y-6512624D02*
X11721701Y-6503100D01*
X11721701Y-6503100D02*
X11712177Y-6493576D01*
X11712177Y-6493576D02*
X11702653Y-6474528D01*
X11702653Y-6474528D02*
X11693129Y-6436433D01*
X11693129Y-6436433D02*
X11693129Y-6388814D01*
X11693129Y-6388814D02*
X11702653Y-6350719D01*
X11702653Y-6350719D02*
X11712177Y-6331671D01*
X11712177Y-6331671D02*
X11721701Y-6322148D01*
X11721701Y-6322148D02*
X11740748Y-6312624D01*
X11997891Y-6512624D02*
X11883606Y-6512624D01*
X11940748Y-6512624D02*
X11940748Y-6312624D01*
X11940748Y-6312624D02*
X11921701Y-6341195D01*
X11921701Y-6341195D02*
X11902653Y-6360243D01*
X11902653Y-6360243D02*
X11883606Y-6369767D01*
X12178844Y-6312624D02*
X12083606Y-6312624D01*
X12083606Y-6312624D02*
X12074082Y-6407862D01*
X12074082Y-6407862D02*
X12083606Y-6398338D01*
X12083606Y-6398338D02*
X12102653Y-6388814D01*
X12102653Y-6388814D02*
X12150272Y-6388814D01*
X12150272Y-6388814D02*
X12169320Y-6398338D01*
X12169320Y-6398338D02*
X12178844Y-6407862D01*
X12178844Y-6407862D02*
X12188367Y-6426909D01*
X12188367Y-6426909D02*
X12188367Y-6474528D01*
X12188367Y-6474528D02*
X12178844Y-6493576D01*
X12178844Y-6493576D02*
X12169320Y-6503100D01*
X12169320Y-6503100D02*
X12150272Y-6512624D01*
X12150272Y-6512624D02*
X12102653Y-6512624D01*
X12102653Y-6512624D02*
X12083606Y-6503100D01*
X12083606Y-6503100D02*
X12074082Y-6493576D01*
X12255034Y-6312624D02*
X12388367Y-6312624D01*
X12388367Y-6312624D02*
X12302653Y-6512624D01*
X12455034Y-6312624D02*
X12455034Y-6350719D01*
X12531225Y-6312624D02*
X12531225Y-6350719D01*
X12826463Y-6588814D02*
X12816939Y-6579290D01*
X12816939Y-6579290D02*
X12797891Y-6550719D01*
X12797891Y-6550719D02*
X12788368Y-6531671D01*
X12788368Y-6531671D02*
X12778844Y-6503100D01*
X12778844Y-6503100D02*
X12769320Y-6455481D01*
X12769320Y-6455481D02*
X12769320Y-6417386D01*
X12769320Y-6417386D02*
X12778844Y-6369767D01*
X12778844Y-6369767D02*
X12788368Y-6341195D01*
X12788368Y-6341195D02*
X12797891Y-6322148D01*
X12797891Y-6322148D02*
X12816939Y-6293576D01*
X12816939Y-6293576D02*
X12826463Y-6284052D01*
X12883606Y-6312624D02*
X13007415Y-6312624D01*
X13007415Y-6312624D02*
X12940748Y-6388814D01*
X12940748Y-6388814D02*
X12969320Y-6388814D01*
X12969320Y-6388814D02*
X12988368Y-6398338D01*
X12988368Y-6398338D02*
X12997891Y-6407862D01*
X12997891Y-6407862D02*
X13007415Y-6426909D01*
X13007415Y-6426909D02*
X13007415Y-6474528D01*
X13007415Y-6474528D02*
X12997891Y-6493576D01*
X12997891Y-6493576D02*
X12988368Y-6503100D01*
X12988368Y-6503100D02*
X12969320Y-6512624D01*
X12969320Y-6512624D02*
X12912177Y-6512624D01*
X12912177Y-6512624D02*
X12893129Y-6503100D01*
X12893129Y-6503100D02*
X12883606Y-6493576D01*
X13197891Y-6512624D02*
X13083606Y-6512624D01*
X13140748Y-6512624D02*
X13140748Y-6312624D01*
X13140748Y-6312624D02*
X13121701Y-6341195D01*
X13121701Y-6341195D02*
X13102653Y-6360243D01*
X13102653Y-6360243D02*
X13083606Y-6369767D01*
X13435987Y-6512624D02*
X13435987Y-6312624D01*
X13521701Y-6512624D02*
X13521701Y-6407862D01*
X13521701Y-6407862D02*
X13512177Y-6388814D01*
X13512177Y-6388814D02*
X13493130Y-6379290D01*
X13493130Y-6379290D02*
X13464558Y-6379290D01*
X13464558Y-6379290D02*
X13445510Y-6388814D01*
X13445510Y-6388814D02*
X13435987Y-6398338D01*
X13645510Y-6512624D02*
X13626463Y-6503100D01*
X13626463Y-6503100D02*
X13616939Y-6493576D01*
X13616939Y-6493576D02*
X13607415Y-6474528D01*
X13607415Y-6474528D02*
X13607415Y-6417386D01*
X13607415Y-6417386D02*
X13616939Y-6398338D01*
X13616939Y-6398338D02*
X13626463Y-6388814D01*
X13626463Y-6388814D02*
X13645510Y-6379290D01*
X13645510Y-6379290D02*
X13674082Y-6379290D01*
X13674082Y-6379290D02*
X13693130Y-6388814D01*
X13693130Y-6388814D02*
X13702653Y-6398338D01*
X13702653Y-6398338D02*
X13712177Y-6417386D01*
X13712177Y-6417386D02*
X13712177Y-6474528D01*
X13712177Y-6474528D02*
X13702653Y-6493576D01*
X13702653Y-6493576D02*
X13693130Y-6503100D01*
X13693130Y-6503100D02*
X13674082Y-6512624D01*
X13674082Y-6512624D02*
X13645510Y-6512624D01*
X13826463Y-6512624D02*
X13807415Y-6503100D01*
X13807415Y-6503100D02*
X13797891Y-6484052D01*
X13797891Y-6484052D02*
X13797891Y-6312624D01*
X13978844Y-6503100D02*
X13959796Y-6512624D01*
X13959796Y-6512624D02*
X13921701Y-6512624D01*
X13921701Y-6512624D02*
X13902653Y-6503100D01*
X13902653Y-6503100D02*
X13893130Y-6484052D01*
X13893130Y-6484052D02*
X13893130Y-6407862D01*
X13893130Y-6407862D02*
X13902653Y-6388814D01*
X13902653Y-6388814D02*
X13921701Y-6379290D01*
X13921701Y-6379290D02*
X13959796Y-6379290D01*
X13959796Y-6379290D02*
X13978844Y-6388814D01*
X13978844Y-6388814D02*
X13988368Y-6407862D01*
X13988368Y-6407862D02*
X13988368Y-6426909D01*
X13988368Y-6426909D02*
X13893130Y-6445957D01*
X14064558Y-6503100D02*
X14083606Y-6512624D01*
X14083606Y-6512624D02*
X14121701Y-6512624D01*
X14121701Y-6512624D02*
X14140749Y-6503100D01*
X14140749Y-6503100D02*
X14150272Y-6484052D01*
X14150272Y-6484052D02*
X14150272Y-6474528D01*
X14150272Y-6474528D02*
X14140749Y-6455481D01*
X14140749Y-6455481D02*
X14121701Y-6445957D01*
X14121701Y-6445957D02*
X14093130Y-6445957D01*
X14093130Y-6445957D02*
X14074082Y-6436433D01*
X14074082Y-6436433D02*
X14064558Y-6417386D01*
X14064558Y-6417386D02*
X14064558Y-6407862D01*
X14064558Y-6407862D02*
X14074082Y-6388814D01*
X14074082Y-6388814D02*
X14093130Y-6379290D01*
X14093130Y-6379290D02*
X14121701Y-6379290D01*
X14121701Y-6379290D02*
X14140749Y-6388814D01*
X14216939Y-6588814D02*
X14226463Y-6579290D01*
X14226463Y-6579290D02*
X14245511Y-6550719D01*
X14245511Y-6550719D02*
X14255034Y-6531671D01*
X14255034Y-6531671D02*
X14264558Y-6503100D01*
X14264558Y-6503100D02*
X14274082Y-6455481D01*
X14274082Y-6455481D02*
X14274082Y-6417386D01*
X14274082Y-6417386D02*
X14264558Y-6369767D01*
X14264558Y-6369767D02*
X14255034Y-6341195D01*
X14255034Y-6341195D02*
X14245511Y-6322148D01*
X14245511Y-6322148D02*
X14226463Y-6293576D01*
X14226463Y-6293576D02*
X14216939Y-6284052D01*
D10*
X9231400Y-6665140D02*
X9231400Y-6705140D01*
X9211400Y-6685140D02*
X9251400Y-6685140D01*
D12*
X9550272Y-6576624D02*
X9569320Y-6576624D01*
X9569320Y-6576624D02*
X9588367Y-6586148D01*
X9588367Y-6586148D02*
X9597891Y-6595671D01*
X9597891Y-6595671D02*
X9607415Y-6614719D01*
X9607415Y-6614719D02*
X9616939Y-6652814D01*
X9616939Y-6652814D02*
X9616939Y-6700433D01*
X9616939Y-6700433D02*
X9607415Y-6738528D01*
X9607415Y-6738528D02*
X9597891Y-6757576D01*
X9597891Y-6757576D02*
X9588367Y-6767100D01*
X9588367Y-6767100D02*
X9569320Y-6776624D01*
X9569320Y-6776624D02*
X9550272Y-6776624D01*
X9550272Y-6776624D02*
X9531224Y-6767100D01*
X9531224Y-6767100D02*
X9521701Y-6757576D01*
X9521701Y-6757576D02*
X9512177Y-6738528D01*
X9512177Y-6738528D02*
X9502653Y-6700433D01*
X9502653Y-6700433D02*
X9502653Y-6652814D01*
X9502653Y-6652814D02*
X9512177Y-6614719D01*
X9512177Y-6614719D02*
X9521701Y-6595671D01*
X9521701Y-6595671D02*
X9531224Y-6586148D01*
X9531224Y-6586148D02*
X9550272Y-6576624D01*
X9702653Y-6757576D02*
X9712177Y-6767100D01*
X9712177Y-6767100D02*
X9702653Y-6776624D01*
X9702653Y-6776624D02*
X9693129Y-6767100D01*
X9693129Y-6767100D02*
X9702653Y-6757576D01*
X9702653Y-6757576D02*
X9702653Y-6776624D01*
X9883605Y-6643290D02*
X9883605Y-6776624D01*
X9835986Y-6567100D02*
X9788367Y-6709957D01*
X9788367Y-6709957D02*
X9912177Y-6709957D01*
X10026463Y-6576624D02*
X10045510Y-6576624D01*
X10045510Y-6576624D02*
X10064558Y-6586148D01*
X10064558Y-6586148D02*
X10074082Y-6595671D01*
X10074082Y-6595671D02*
X10083605Y-6614719D01*
X10083605Y-6614719D02*
X10093129Y-6652814D01*
X10093129Y-6652814D02*
X10093129Y-6700433D01*
X10093129Y-6700433D02*
X10083605Y-6738528D01*
X10083605Y-6738528D02*
X10074082Y-6757576D01*
X10074082Y-6757576D02*
X10064558Y-6767100D01*
X10064558Y-6767100D02*
X10045510Y-6776624D01*
X10045510Y-6776624D02*
X10026463Y-6776624D01*
X10026463Y-6776624D02*
X10007415Y-6767100D01*
X10007415Y-6767100D02*
X9997891Y-6757576D01*
X9997891Y-6757576D02*
X9988367Y-6738528D01*
X9988367Y-6738528D02*
X9978844Y-6700433D01*
X9978844Y-6700433D02*
X9978844Y-6652814D01*
X9978844Y-6652814D02*
X9988367Y-6614719D01*
X9988367Y-6614719D02*
X9997891Y-6595671D01*
X9997891Y-6595671D02*
X10007415Y-6586148D01*
X10007415Y-6586148D02*
X10026463Y-6576624D01*
X10216939Y-6576624D02*
X10235986Y-6576624D01*
X10235986Y-6576624D02*
X10255034Y-6586148D01*
X10255034Y-6586148D02*
X10264558Y-6595671D01*
X10264558Y-6595671D02*
X10274082Y-6614719D01*
X10274082Y-6614719D02*
X10283605Y-6652814D01*
X10283605Y-6652814D02*
X10283605Y-6700433D01*
X10283605Y-6700433D02*
X10274082Y-6738528D01*
X10274082Y-6738528D02*
X10264558Y-6757576D01*
X10264558Y-6757576D02*
X10255034Y-6767100D01*
X10255034Y-6767100D02*
X10235986Y-6776624D01*
X10235986Y-6776624D02*
X10216939Y-6776624D01*
X10216939Y-6776624D02*
X10197891Y-6767100D01*
X10197891Y-6767100D02*
X10188367Y-6757576D01*
X10188367Y-6757576D02*
X10178844Y-6738528D01*
X10178844Y-6738528D02*
X10169320Y-6700433D01*
X10169320Y-6700433D02*
X10169320Y-6652814D01*
X10169320Y-6652814D02*
X10178844Y-6614719D01*
X10178844Y-6614719D02*
X10188367Y-6595671D01*
X10188367Y-6595671D02*
X10197891Y-6586148D01*
X10197891Y-6586148D02*
X10216939Y-6576624D01*
X10369320Y-6776624D02*
X10369320Y-6643290D01*
X10369320Y-6662338D02*
X10378844Y-6652814D01*
X10378844Y-6652814D02*
X10397891Y-6643290D01*
X10397891Y-6643290D02*
X10426463Y-6643290D01*
X10426463Y-6643290D02*
X10445510Y-6652814D01*
X10445510Y-6652814D02*
X10455034Y-6671862D01*
X10455034Y-6671862D02*
X10455034Y-6776624D01*
X10455034Y-6671862D02*
X10464558Y-6652814D01*
X10464558Y-6652814D02*
X10483605Y-6643290D01*
X10483605Y-6643290D02*
X10512177Y-6643290D01*
X10512177Y-6643290D02*
X10531225Y-6652814D01*
X10531225Y-6652814D02*
X10540748Y-6671862D01*
X10540748Y-6671862D02*
X10540748Y-6776624D01*
X10635986Y-6776624D02*
X10635986Y-6643290D01*
X10635986Y-6662338D02*
X10645510Y-6652814D01*
X10645510Y-6652814D02*
X10664558Y-6643290D01*
X10664558Y-6643290D02*
X10693129Y-6643290D01*
X10693129Y-6643290D02*
X10712177Y-6652814D01*
X10712177Y-6652814D02*
X10721701Y-6671862D01*
X10721701Y-6671862D02*
X10721701Y-6776624D01*
X10721701Y-6671862D02*
X10731225Y-6652814D01*
X10731225Y-6652814D02*
X10750272Y-6643290D01*
X10750272Y-6643290D02*
X10778844Y-6643290D01*
X10778844Y-6643290D02*
X10797891Y-6652814D01*
X10797891Y-6652814D02*
X10807415Y-6671862D01*
X10807415Y-6671862D02*
X10807415Y-6776624D01*
X11197891Y-6567100D02*
X11026463Y-6824243D01*
X11455034Y-6576624D02*
X11474082Y-6576624D01*
X11474082Y-6576624D02*
X11493129Y-6586148D01*
X11493129Y-6586148D02*
X11502653Y-6595671D01*
X11502653Y-6595671D02*
X11512177Y-6614719D01*
X11512177Y-6614719D02*
X11521701Y-6652814D01*
X11521701Y-6652814D02*
X11521701Y-6700433D01*
X11521701Y-6700433D02*
X11512177Y-6738528D01*
X11512177Y-6738528D02*
X11502653Y-6757576D01*
X11502653Y-6757576D02*
X11493129Y-6767100D01*
X11493129Y-6767100D02*
X11474082Y-6776624D01*
X11474082Y-6776624D02*
X11455034Y-6776624D01*
X11455034Y-6776624D02*
X11435986Y-6767100D01*
X11435986Y-6767100D02*
X11426463Y-6757576D01*
X11426463Y-6757576D02*
X11416939Y-6738528D01*
X11416939Y-6738528D02*
X11407415Y-6700433D01*
X11407415Y-6700433D02*
X11407415Y-6652814D01*
X11407415Y-6652814D02*
X11416939Y-6614719D01*
X11416939Y-6614719D02*
X11426463Y-6595671D01*
X11426463Y-6595671D02*
X11435986Y-6586148D01*
X11435986Y-6586148D02*
X11455034Y-6576624D01*
X11607415Y-6757576D02*
X11616939Y-6767100D01*
X11616939Y-6767100D02*
X11607415Y-6776624D01*
X11607415Y-6776624D02*
X11597891Y-6767100D01*
X11597891Y-6767100D02*
X11607415Y-6757576D01*
X11607415Y-6757576D02*
X11607415Y-6776624D01*
X11740748Y-6576624D02*
X11759796Y-6576624D01*
X11759796Y-6576624D02*
X11778844Y-6586148D01*
X11778844Y-6586148D02*
X11788367Y-6595671D01*
X11788367Y-6595671D02*
X11797891Y-6614719D01*
X11797891Y-6614719D02*
X11807415Y-6652814D01*
X11807415Y-6652814D02*
X11807415Y-6700433D01*
X11807415Y-6700433D02*
X11797891Y-6738528D01*
X11797891Y-6738528D02*
X11788367Y-6757576D01*
X11788367Y-6757576D02*
X11778844Y-6767100D01*
X11778844Y-6767100D02*
X11759796Y-6776624D01*
X11759796Y-6776624D02*
X11740748Y-6776624D01*
X11740748Y-6776624D02*
X11721701Y-6767100D01*
X11721701Y-6767100D02*
X11712177Y-6757576D01*
X11712177Y-6757576D02*
X11702653Y-6738528D01*
X11702653Y-6738528D02*
X11693129Y-6700433D01*
X11693129Y-6700433D02*
X11693129Y-6652814D01*
X11693129Y-6652814D02*
X11702653Y-6614719D01*
X11702653Y-6614719D02*
X11712177Y-6595671D01*
X11712177Y-6595671D02*
X11721701Y-6586148D01*
X11721701Y-6586148D02*
X11740748Y-6576624D01*
X11997891Y-6776624D02*
X11883606Y-6776624D01*
X11940748Y-6776624D02*
X11940748Y-6576624D01*
X11940748Y-6576624D02*
X11921701Y-6605195D01*
X11921701Y-6605195D02*
X11902653Y-6624243D01*
X11902653Y-6624243D02*
X11883606Y-6633767D01*
X12178844Y-6576624D02*
X12083606Y-6576624D01*
X12083606Y-6576624D02*
X12074082Y-6671862D01*
X12074082Y-6671862D02*
X12083606Y-6662338D01*
X12083606Y-6662338D02*
X12102653Y-6652814D01*
X12102653Y-6652814D02*
X12150272Y-6652814D01*
X12150272Y-6652814D02*
X12169320Y-6662338D01*
X12169320Y-6662338D02*
X12178844Y-6671862D01*
X12178844Y-6671862D02*
X12188367Y-6690909D01*
X12188367Y-6690909D02*
X12188367Y-6738528D01*
X12188367Y-6738528D02*
X12178844Y-6757576D01*
X12178844Y-6757576D02*
X12169320Y-6767100D01*
X12169320Y-6767100D02*
X12150272Y-6776624D01*
X12150272Y-6776624D02*
X12102653Y-6776624D01*
X12102653Y-6776624D02*
X12083606Y-6767100D01*
X12083606Y-6767100D02*
X12074082Y-6757576D01*
X12255034Y-6576624D02*
X12388367Y-6576624D01*
X12388367Y-6576624D02*
X12302653Y-6776624D01*
X12455034Y-6576624D02*
X12455034Y-6614719D01*
X12531225Y-6576624D02*
X12531225Y-6614719D01*
X12826463Y-6852814D02*
X12816939Y-6843290D01*
X12816939Y-6843290D02*
X12797891Y-6814719D01*
X12797891Y-6814719D02*
X12788368Y-6795671D01*
X12788368Y-6795671D02*
X12778844Y-6767100D01*
X12778844Y-6767100D02*
X12769320Y-6719481D01*
X12769320Y-6719481D02*
X12769320Y-6681386D01*
X12769320Y-6681386D02*
X12778844Y-6633767D01*
X12778844Y-6633767D02*
X12788368Y-6605195D01*
X12788368Y-6605195D02*
X12797891Y-6586148D01*
X12797891Y-6586148D02*
X12816939Y-6557576D01*
X12816939Y-6557576D02*
X12826463Y-6548052D01*
X12940748Y-6576624D02*
X12959796Y-6576624D01*
X12959796Y-6576624D02*
X12978844Y-6586148D01*
X12978844Y-6586148D02*
X12988368Y-6595671D01*
X12988368Y-6595671D02*
X12997891Y-6614719D01*
X12997891Y-6614719D02*
X13007415Y-6652814D01*
X13007415Y-6652814D02*
X13007415Y-6700433D01*
X13007415Y-6700433D02*
X12997891Y-6738528D01*
X12997891Y-6738528D02*
X12988368Y-6757576D01*
X12988368Y-6757576D02*
X12978844Y-6767100D01*
X12978844Y-6767100D02*
X12959796Y-6776624D01*
X12959796Y-6776624D02*
X12940748Y-6776624D01*
X12940748Y-6776624D02*
X12921701Y-6767100D01*
X12921701Y-6767100D02*
X12912177Y-6757576D01*
X12912177Y-6757576D02*
X12902653Y-6738528D01*
X12902653Y-6738528D02*
X12893129Y-6700433D01*
X12893129Y-6700433D02*
X12893129Y-6652814D01*
X12893129Y-6652814D02*
X12902653Y-6614719D01*
X12902653Y-6614719D02*
X12912177Y-6595671D01*
X12912177Y-6595671D02*
X12921701Y-6586148D01*
X12921701Y-6586148D02*
X12940748Y-6576624D01*
X13245510Y-6776624D02*
X13245510Y-6576624D01*
X13331225Y-6776624D02*
X13331225Y-6671862D01*
X13331225Y-6671862D02*
X13321701Y-6652814D01*
X13321701Y-6652814D02*
X13302653Y-6643290D01*
X13302653Y-6643290D02*
X13274082Y-6643290D01*
X13274082Y-6643290D02*
X13255034Y-6652814D01*
X13255034Y-6652814D02*
X13245510Y-6662338D01*
X13455034Y-6776624D02*
X13435987Y-6767100D01*
X13435987Y-6767100D02*
X13426463Y-6757576D01*
X13426463Y-6757576D02*
X13416939Y-6738528D01*
X13416939Y-6738528D02*
X13416939Y-6681386D01*
X13416939Y-6681386D02*
X13426463Y-6662338D01*
X13426463Y-6662338D02*
X13435987Y-6652814D01*
X13435987Y-6652814D02*
X13455034Y-6643290D01*
X13455034Y-6643290D02*
X13483606Y-6643290D01*
X13483606Y-6643290D02*
X13502653Y-6652814D01*
X13502653Y-6652814D02*
X13512177Y-6662338D01*
X13512177Y-6662338D02*
X13521701Y-6681386D01*
X13521701Y-6681386D02*
X13521701Y-6738528D01*
X13521701Y-6738528D02*
X13512177Y-6757576D01*
X13512177Y-6757576D02*
X13502653Y-6767100D01*
X13502653Y-6767100D02*
X13483606Y-6776624D01*
X13483606Y-6776624D02*
X13455034Y-6776624D01*
X13635987Y-6776624D02*
X13616939Y-6767100D01*
X13616939Y-6767100D02*
X13607415Y-6748052D01*
X13607415Y-6748052D02*
X13607415Y-6576624D01*
X13788368Y-6767100D02*
X13769320Y-6776624D01*
X13769320Y-6776624D02*
X13731225Y-6776624D01*
X13731225Y-6776624D02*
X13712177Y-6767100D01*
X13712177Y-6767100D02*
X13702653Y-6748052D01*
X13702653Y-6748052D02*
X13702653Y-6671862D01*
X13702653Y-6671862D02*
X13712177Y-6652814D01*
X13712177Y-6652814D02*
X13731225Y-6643290D01*
X13731225Y-6643290D02*
X13769320Y-6643290D01*
X13769320Y-6643290D02*
X13788368Y-6652814D01*
X13788368Y-6652814D02*
X13797891Y-6671862D01*
X13797891Y-6671862D02*
X13797891Y-6690909D01*
X13797891Y-6690909D02*
X13702653Y-6709957D01*
X13874082Y-6767100D02*
X13893130Y-6776624D01*
X13893130Y-6776624D02*
X13931225Y-6776624D01*
X13931225Y-6776624D02*
X13950272Y-6767100D01*
X13950272Y-6767100D02*
X13959796Y-6748052D01*
X13959796Y-6748052D02*
X13959796Y-6738528D01*
X13959796Y-6738528D02*
X13950272Y-6719481D01*
X13950272Y-6719481D02*
X13931225Y-6709957D01*
X13931225Y-6709957D02*
X13902653Y-6709957D01*
X13902653Y-6709957D02*
X13883606Y-6700433D01*
X13883606Y-6700433D02*
X13874082Y-6681386D01*
X13874082Y-6681386D02*
X13874082Y-6671862D01*
X13874082Y-6671862D02*
X13883606Y-6652814D01*
X13883606Y-6652814D02*
X13902653Y-6643290D01*
X13902653Y-6643290D02*
X13931225Y-6643290D01*
X13931225Y-6643290D02*
X13950272Y-6652814D01*
X14197892Y-6700433D02*
X14350273Y-6700433D01*
X14274082Y-6776624D02*
X14274082Y-6624243D01*
X14693130Y-6576624D02*
X14597892Y-6576624D01*
X14597892Y-6576624D02*
X14588368Y-6671862D01*
X14588368Y-6671862D02*
X14597892Y-6662338D01*
X14597892Y-6662338D02*
X14616939Y-6652814D01*
X14616939Y-6652814D02*
X14664558Y-6652814D01*
X14664558Y-6652814D02*
X14683606Y-6662338D01*
X14683606Y-6662338D02*
X14693130Y-6671862D01*
X14693130Y-6671862D02*
X14702653Y-6690909D01*
X14702653Y-6690909D02*
X14702653Y-6738528D01*
X14702653Y-6738528D02*
X14693130Y-6757576D01*
X14693130Y-6757576D02*
X14683606Y-6767100D01*
X14683606Y-6767100D02*
X14664558Y-6776624D01*
X14664558Y-6776624D02*
X14616939Y-6776624D01*
X14616939Y-6776624D02*
X14597892Y-6767100D01*
X14597892Y-6767100D02*
X14588368Y-6757576D01*
X14931225Y-6767100D02*
X14950273Y-6776624D01*
X14950273Y-6776624D02*
X14988368Y-6776624D01*
X14988368Y-6776624D02*
X15007415Y-6767100D01*
X15007415Y-6767100D02*
X15016939Y-6748052D01*
X15016939Y-6748052D02*
X15016939Y-6738528D01*
X15016939Y-6738528D02*
X15007415Y-6719481D01*
X15007415Y-6719481D02*
X14988368Y-6709957D01*
X14988368Y-6709957D02*
X14959796Y-6709957D01*
X14959796Y-6709957D02*
X14940749Y-6700433D01*
X14940749Y-6700433D02*
X14931225Y-6681386D01*
X14931225Y-6681386D02*
X14931225Y-6671862D01*
X14931225Y-6671862D02*
X14940749Y-6652814D01*
X14940749Y-6652814D02*
X14959796Y-6643290D01*
X14959796Y-6643290D02*
X14988368Y-6643290D01*
X14988368Y-6643290D02*
X15007415Y-6652814D01*
X15131225Y-6776624D02*
X15112177Y-6767100D01*
X15112177Y-6767100D02*
X15102654Y-6748052D01*
X15102654Y-6748052D02*
X15102654Y-6576624D01*
X15235987Y-6776624D02*
X15216939Y-6767100D01*
X15216939Y-6767100D02*
X15207415Y-6757576D01*
X15207415Y-6757576D02*
X15197892Y-6738528D01*
X15197892Y-6738528D02*
X15197892Y-6681386D01*
X15197892Y-6681386D02*
X15207415Y-6662338D01*
X15207415Y-6662338D02*
X15216939Y-6652814D01*
X15216939Y-6652814D02*
X15235987Y-6643290D01*
X15235987Y-6643290D02*
X15264558Y-6643290D01*
X15264558Y-6643290D02*
X15283606Y-6652814D01*
X15283606Y-6652814D02*
X15293130Y-6662338D01*
X15293130Y-6662338D02*
X15302654Y-6681386D01*
X15302654Y-6681386D02*
X15302654Y-6738528D01*
X15302654Y-6738528D02*
X15293130Y-6757576D01*
X15293130Y-6757576D02*
X15283606Y-6767100D01*
X15283606Y-6767100D02*
X15264558Y-6776624D01*
X15264558Y-6776624D02*
X15235987Y-6776624D01*
X15359796Y-6643290D02*
X15435987Y-6643290D01*
X15388368Y-6576624D02*
X15388368Y-6748052D01*
X15388368Y-6748052D02*
X15397892Y-6767100D01*
X15397892Y-6767100D02*
X15416939Y-6776624D01*
X15416939Y-6776624D02*
X15435987Y-6776624D01*
X15493130Y-6767100D02*
X15512177Y-6776624D01*
X15512177Y-6776624D02*
X15550273Y-6776624D01*
X15550273Y-6776624D02*
X15569320Y-6767100D01*
X15569320Y-6767100D02*
X15578844Y-6748052D01*
X15578844Y-6748052D02*
X15578844Y-6738528D01*
X15578844Y-6738528D02*
X15569320Y-6719481D01*
X15569320Y-6719481D02*
X15550273Y-6709957D01*
X15550273Y-6709957D02*
X15521701Y-6709957D01*
X15521701Y-6709957D02*
X15502654Y-6700433D01*
X15502654Y-6700433D02*
X15493130Y-6681386D01*
X15493130Y-6681386D02*
X15493130Y-6671862D01*
X15493130Y-6671862D02*
X15502654Y-6652814D01*
X15502654Y-6652814D02*
X15521701Y-6643290D01*
X15521701Y-6643290D02*
X15550273Y-6643290D01*
X15550273Y-6643290D02*
X15569320Y-6652814D01*
X15645511Y-6852814D02*
X15655035Y-6843290D01*
X15655035Y-6843290D02*
X15674082Y-6814719D01*
X15674082Y-6814719D02*
X15683606Y-6795671D01*
X15683606Y-6795671D02*
X15693130Y-6767100D01*
X15693130Y-6767100D02*
X15702654Y-6719481D01*
X15702654Y-6719481D02*
X15702654Y-6681386D01*
X15702654Y-6681386D02*
X15693130Y-6633767D01*
X15693130Y-6633767D02*
X15683606Y-6605195D01*
X15683606Y-6605195D02*
X15674082Y-6586148D01*
X15674082Y-6586148D02*
X15655035Y-6557576D01*
X15655035Y-6557576D02*
X15645511Y-6548052D01*
D10*
X9241881Y-6972121D02*
X9241881Y-6926159D01*
X9195919Y-6926159D01*
X9195919Y-6972121D01*
X9241881Y-6972121D01*
D12*
X9550272Y-6840624D02*
X9569320Y-6840624D01*
X9569320Y-6840624D02*
X9588367Y-6850148D01*
X9588367Y-6850148D02*
X9597891Y-6859671D01*
X9597891Y-6859671D02*
X9607415Y-6878719D01*
X9607415Y-6878719D02*
X9616939Y-6916814D01*
X9616939Y-6916814D02*
X9616939Y-6964433D01*
X9616939Y-6964433D02*
X9607415Y-7002528D01*
X9607415Y-7002528D02*
X9597891Y-7021576D01*
X9597891Y-7021576D02*
X9588367Y-7031100D01*
X9588367Y-7031100D02*
X9569320Y-7040624D01*
X9569320Y-7040624D02*
X9550272Y-7040624D01*
X9550272Y-7040624D02*
X9531224Y-7031100D01*
X9531224Y-7031100D02*
X9521701Y-7021576D01*
X9521701Y-7021576D02*
X9512177Y-7002528D01*
X9512177Y-7002528D02*
X9502653Y-6964433D01*
X9502653Y-6964433D02*
X9502653Y-6916814D01*
X9502653Y-6916814D02*
X9512177Y-6878719D01*
X9512177Y-6878719D02*
X9521701Y-6859671D01*
X9521701Y-6859671D02*
X9531224Y-6850148D01*
X9531224Y-6850148D02*
X9550272Y-6840624D01*
X9702653Y-7021576D02*
X9712177Y-7031100D01*
X9712177Y-7031100D02*
X9702653Y-7040624D01*
X9702653Y-7040624D02*
X9693129Y-7031100D01*
X9693129Y-7031100D02*
X9702653Y-7021576D01*
X9702653Y-7021576D02*
X9702653Y-7040624D01*
X9883605Y-6840624D02*
X9845510Y-6840624D01*
X9845510Y-6840624D02*
X9826463Y-6850148D01*
X9826463Y-6850148D02*
X9816939Y-6859671D01*
X9816939Y-6859671D02*
X9797891Y-6888243D01*
X9797891Y-6888243D02*
X9788367Y-6926338D01*
X9788367Y-6926338D02*
X9788367Y-7002528D01*
X9788367Y-7002528D02*
X9797891Y-7021576D01*
X9797891Y-7021576D02*
X9807415Y-7031100D01*
X9807415Y-7031100D02*
X9826463Y-7040624D01*
X9826463Y-7040624D02*
X9864558Y-7040624D01*
X9864558Y-7040624D02*
X9883605Y-7031100D01*
X9883605Y-7031100D02*
X9893129Y-7021576D01*
X9893129Y-7021576D02*
X9902653Y-7002528D01*
X9902653Y-7002528D02*
X9902653Y-6954909D01*
X9902653Y-6954909D02*
X9893129Y-6935862D01*
X9893129Y-6935862D02*
X9883605Y-6926338D01*
X9883605Y-6926338D02*
X9864558Y-6916814D01*
X9864558Y-6916814D02*
X9826463Y-6916814D01*
X9826463Y-6916814D02*
X9807415Y-6926338D01*
X9807415Y-6926338D02*
X9797891Y-6935862D01*
X9797891Y-6935862D02*
X9788367Y-6954909D01*
X10083605Y-6840624D02*
X9988367Y-6840624D01*
X9988367Y-6840624D02*
X9978844Y-6935862D01*
X9978844Y-6935862D02*
X9988367Y-6926338D01*
X9988367Y-6926338D02*
X10007415Y-6916814D01*
X10007415Y-6916814D02*
X10055034Y-6916814D01*
X10055034Y-6916814D02*
X10074082Y-6926338D01*
X10074082Y-6926338D02*
X10083605Y-6935862D01*
X10083605Y-6935862D02*
X10093129Y-6954909D01*
X10093129Y-6954909D02*
X10093129Y-7002528D01*
X10093129Y-7002528D02*
X10083605Y-7021576D01*
X10083605Y-7021576D02*
X10074082Y-7031100D01*
X10074082Y-7031100D02*
X10055034Y-7040624D01*
X10055034Y-7040624D02*
X10007415Y-7040624D01*
X10007415Y-7040624D02*
X9988367Y-7031100D01*
X9988367Y-7031100D02*
X9978844Y-7021576D01*
X10216939Y-6840624D02*
X10235986Y-6840624D01*
X10235986Y-6840624D02*
X10255034Y-6850148D01*
X10255034Y-6850148D02*
X10264558Y-6859671D01*
X10264558Y-6859671D02*
X10274082Y-6878719D01*
X10274082Y-6878719D02*
X10283605Y-6916814D01*
X10283605Y-6916814D02*
X10283605Y-6964433D01*
X10283605Y-6964433D02*
X10274082Y-7002528D01*
X10274082Y-7002528D02*
X10264558Y-7021576D01*
X10264558Y-7021576D02*
X10255034Y-7031100D01*
X10255034Y-7031100D02*
X10235986Y-7040624D01*
X10235986Y-7040624D02*
X10216939Y-7040624D01*
X10216939Y-7040624D02*
X10197891Y-7031100D01*
X10197891Y-7031100D02*
X10188367Y-7021576D01*
X10188367Y-7021576D02*
X10178844Y-7002528D01*
X10178844Y-7002528D02*
X10169320Y-6964433D01*
X10169320Y-6964433D02*
X10169320Y-6916814D01*
X10169320Y-6916814D02*
X10178844Y-6878719D01*
X10178844Y-6878719D02*
X10188367Y-6859671D01*
X10188367Y-6859671D02*
X10197891Y-6850148D01*
X10197891Y-6850148D02*
X10216939Y-6840624D01*
X10369320Y-7040624D02*
X10369320Y-6907290D01*
X10369320Y-6926338D02*
X10378844Y-6916814D01*
X10378844Y-6916814D02*
X10397891Y-6907290D01*
X10397891Y-6907290D02*
X10426463Y-6907290D01*
X10426463Y-6907290D02*
X10445510Y-6916814D01*
X10445510Y-6916814D02*
X10455034Y-6935862D01*
X10455034Y-6935862D02*
X10455034Y-7040624D01*
X10455034Y-6935862D02*
X10464558Y-6916814D01*
X10464558Y-6916814D02*
X10483605Y-6907290D01*
X10483605Y-6907290D02*
X10512177Y-6907290D01*
X10512177Y-6907290D02*
X10531225Y-6916814D01*
X10531225Y-6916814D02*
X10540748Y-6935862D01*
X10540748Y-6935862D02*
X10540748Y-7040624D01*
X10635986Y-7040624D02*
X10635986Y-6907290D01*
X10635986Y-6926338D02*
X10645510Y-6916814D01*
X10645510Y-6916814D02*
X10664558Y-6907290D01*
X10664558Y-6907290D02*
X10693129Y-6907290D01*
X10693129Y-6907290D02*
X10712177Y-6916814D01*
X10712177Y-6916814D02*
X10721701Y-6935862D01*
X10721701Y-6935862D02*
X10721701Y-7040624D01*
X10721701Y-6935862D02*
X10731225Y-6916814D01*
X10731225Y-6916814D02*
X10750272Y-6907290D01*
X10750272Y-6907290D02*
X10778844Y-6907290D01*
X10778844Y-6907290D02*
X10797891Y-6916814D01*
X10797891Y-6916814D02*
X10807415Y-6935862D01*
X10807415Y-6935862D02*
X10807415Y-7040624D01*
X11197891Y-6831100D02*
X11026463Y-7088243D01*
X11455034Y-6840624D02*
X11474082Y-6840624D01*
X11474082Y-6840624D02*
X11493129Y-6850148D01*
X11493129Y-6850148D02*
X11502653Y-6859671D01*
X11502653Y-6859671D02*
X11512177Y-6878719D01*
X11512177Y-6878719D02*
X11521701Y-6916814D01*
X11521701Y-6916814D02*
X11521701Y-6964433D01*
X11521701Y-6964433D02*
X11512177Y-7002528D01*
X11512177Y-7002528D02*
X11502653Y-7021576D01*
X11502653Y-7021576D02*
X11493129Y-7031100D01*
X11493129Y-7031100D02*
X11474082Y-7040624D01*
X11474082Y-7040624D02*
X11455034Y-7040624D01*
X11455034Y-7040624D02*
X11435986Y-7031100D01*
X11435986Y-7031100D02*
X11426463Y-7021576D01*
X11426463Y-7021576D02*
X11416939Y-7002528D01*
X11416939Y-7002528D02*
X11407415Y-6964433D01*
X11407415Y-6964433D02*
X11407415Y-6916814D01*
X11407415Y-6916814D02*
X11416939Y-6878719D01*
X11416939Y-6878719D02*
X11426463Y-6859671D01*
X11426463Y-6859671D02*
X11435986Y-6850148D01*
X11435986Y-6850148D02*
X11455034Y-6840624D01*
X11607415Y-7021576D02*
X11616939Y-7031100D01*
X11616939Y-7031100D02*
X11607415Y-7040624D01*
X11607415Y-7040624D02*
X11597891Y-7031100D01*
X11597891Y-7031100D02*
X11607415Y-7021576D01*
X11607415Y-7021576D02*
X11607415Y-7040624D01*
X11740748Y-6840624D02*
X11759796Y-6840624D01*
X11759796Y-6840624D02*
X11778844Y-6850148D01*
X11778844Y-6850148D02*
X11788367Y-6859671D01*
X11788367Y-6859671D02*
X11797891Y-6878719D01*
X11797891Y-6878719D02*
X11807415Y-6916814D01*
X11807415Y-6916814D02*
X11807415Y-6964433D01*
X11807415Y-6964433D02*
X11797891Y-7002528D01*
X11797891Y-7002528D02*
X11788367Y-7021576D01*
X11788367Y-7021576D02*
X11778844Y-7031100D01*
X11778844Y-7031100D02*
X11759796Y-7040624D01*
X11759796Y-7040624D02*
X11740748Y-7040624D01*
X11740748Y-7040624D02*
X11721701Y-7031100D01*
X11721701Y-7031100D02*
X11712177Y-7021576D01*
X11712177Y-7021576D02*
X11702653Y-7002528D01*
X11702653Y-7002528D02*
X11693129Y-6964433D01*
X11693129Y-6964433D02*
X11693129Y-6916814D01*
X11693129Y-6916814D02*
X11702653Y-6878719D01*
X11702653Y-6878719D02*
X11712177Y-6859671D01*
X11712177Y-6859671D02*
X11721701Y-6850148D01*
X11721701Y-6850148D02*
X11740748Y-6840624D01*
X11883606Y-6859671D02*
X11893129Y-6850148D01*
X11893129Y-6850148D02*
X11912177Y-6840624D01*
X11912177Y-6840624D02*
X11959796Y-6840624D01*
X11959796Y-6840624D02*
X11978844Y-6850148D01*
X11978844Y-6850148D02*
X11988367Y-6859671D01*
X11988367Y-6859671D02*
X11997891Y-6878719D01*
X11997891Y-6878719D02*
X11997891Y-6897767D01*
X11997891Y-6897767D02*
X11988367Y-6926338D01*
X11988367Y-6926338D02*
X11874082Y-7040624D01*
X11874082Y-7040624D02*
X11997891Y-7040624D01*
X12178844Y-6840624D02*
X12083606Y-6840624D01*
X12083606Y-6840624D02*
X12074082Y-6935862D01*
X12074082Y-6935862D02*
X12083606Y-6926338D01*
X12083606Y-6926338D02*
X12102653Y-6916814D01*
X12102653Y-6916814D02*
X12150272Y-6916814D01*
X12150272Y-6916814D02*
X12169320Y-6926338D01*
X12169320Y-6926338D02*
X12178844Y-6935862D01*
X12178844Y-6935862D02*
X12188367Y-6954909D01*
X12188367Y-6954909D02*
X12188367Y-7002528D01*
X12188367Y-7002528D02*
X12178844Y-7021576D01*
X12178844Y-7021576D02*
X12169320Y-7031100D01*
X12169320Y-7031100D02*
X12150272Y-7040624D01*
X12150272Y-7040624D02*
X12102653Y-7040624D01*
X12102653Y-7040624D02*
X12083606Y-7031100D01*
X12083606Y-7031100D02*
X12074082Y-7021576D01*
X12359796Y-6840624D02*
X12321701Y-6840624D01*
X12321701Y-6840624D02*
X12302653Y-6850148D01*
X12302653Y-6850148D02*
X12293129Y-6859671D01*
X12293129Y-6859671D02*
X12274082Y-6888243D01*
X12274082Y-6888243D02*
X12264558Y-6926338D01*
X12264558Y-6926338D02*
X12264558Y-7002528D01*
X12264558Y-7002528D02*
X12274082Y-7021576D01*
X12274082Y-7021576D02*
X12283606Y-7031100D01*
X12283606Y-7031100D02*
X12302653Y-7040624D01*
X12302653Y-7040624D02*
X12340748Y-7040624D01*
X12340748Y-7040624D02*
X12359796Y-7031100D01*
X12359796Y-7031100D02*
X12369320Y-7021576D01*
X12369320Y-7021576D02*
X12378844Y-7002528D01*
X12378844Y-7002528D02*
X12378844Y-6954909D01*
X12378844Y-6954909D02*
X12369320Y-6935862D01*
X12369320Y-6935862D02*
X12359796Y-6926338D01*
X12359796Y-6926338D02*
X12340748Y-6916814D01*
X12340748Y-6916814D02*
X12302653Y-6916814D01*
X12302653Y-6916814D02*
X12283606Y-6926338D01*
X12283606Y-6926338D02*
X12274082Y-6935862D01*
X12274082Y-6935862D02*
X12264558Y-6954909D01*
X12455034Y-6840624D02*
X12455034Y-6878719D01*
X12531225Y-6840624D02*
X12531225Y-6878719D01*
X12826463Y-7116814D02*
X12816939Y-7107290D01*
X12816939Y-7107290D02*
X12797891Y-7078719D01*
X12797891Y-7078719D02*
X12788368Y-7059671D01*
X12788368Y-7059671D02*
X12778844Y-7031100D01*
X12778844Y-7031100D02*
X12769320Y-6983481D01*
X12769320Y-6983481D02*
X12769320Y-6945386D01*
X12769320Y-6945386D02*
X12778844Y-6897767D01*
X12778844Y-6897767D02*
X12788368Y-6869195D01*
X12788368Y-6869195D02*
X12797891Y-6850148D01*
X12797891Y-6850148D02*
X12816939Y-6821576D01*
X12816939Y-6821576D02*
X12826463Y-6812052D01*
X12893129Y-6859671D02*
X12902653Y-6850148D01*
X12902653Y-6850148D02*
X12921701Y-6840624D01*
X12921701Y-6840624D02*
X12969320Y-6840624D01*
X12969320Y-6840624D02*
X12988368Y-6850148D01*
X12988368Y-6850148D02*
X12997891Y-6859671D01*
X12997891Y-6859671D02*
X13007415Y-6878719D01*
X13007415Y-6878719D02*
X13007415Y-6897767D01*
X13007415Y-6897767D02*
X12997891Y-6926338D01*
X12997891Y-6926338D02*
X12883606Y-7040624D01*
X12883606Y-7040624D02*
X13007415Y-7040624D01*
X13245510Y-7040624D02*
X13245510Y-6840624D01*
X13331225Y-7040624D02*
X13331225Y-6935862D01*
X13331225Y-6935862D02*
X13321701Y-6916814D01*
X13321701Y-6916814D02*
X13302653Y-6907290D01*
X13302653Y-6907290D02*
X13274082Y-6907290D01*
X13274082Y-6907290D02*
X13255034Y-6916814D01*
X13255034Y-6916814D02*
X13245510Y-6926338D01*
X13455034Y-7040624D02*
X13435987Y-7031100D01*
X13435987Y-7031100D02*
X13426463Y-7021576D01*
X13426463Y-7021576D02*
X13416939Y-7002528D01*
X13416939Y-7002528D02*
X13416939Y-6945386D01*
X13416939Y-6945386D02*
X13426463Y-6926338D01*
X13426463Y-6926338D02*
X13435987Y-6916814D01*
X13435987Y-6916814D02*
X13455034Y-6907290D01*
X13455034Y-6907290D02*
X13483606Y-6907290D01*
X13483606Y-6907290D02*
X13502653Y-6916814D01*
X13502653Y-6916814D02*
X13512177Y-6926338D01*
X13512177Y-6926338D02*
X13521701Y-6945386D01*
X13521701Y-6945386D02*
X13521701Y-7002528D01*
X13521701Y-7002528D02*
X13512177Y-7021576D01*
X13512177Y-7021576D02*
X13502653Y-7031100D01*
X13502653Y-7031100D02*
X13483606Y-7040624D01*
X13483606Y-7040624D02*
X13455034Y-7040624D01*
X13635987Y-7040624D02*
X13616939Y-7031100D01*
X13616939Y-7031100D02*
X13607415Y-7012052D01*
X13607415Y-7012052D02*
X13607415Y-6840624D01*
X13788368Y-7031100D02*
X13769320Y-7040624D01*
X13769320Y-7040624D02*
X13731225Y-7040624D01*
X13731225Y-7040624D02*
X13712177Y-7031100D01*
X13712177Y-7031100D02*
X13702653Y-7012052D01*
X13702653Y-7012052D02*
X13702653Y-6935862D01*
X13702653Y-6935862D02*
X13712177Y-6916814D01*
X13712177Y-6916814D02*
X13731225Y-6907290D01*
X13731225Y-6907290D02*
X13769320Y-6907290D01*
X13769320Y-6907290D02*
X13788368Y-6916814D01*
X13788368Y-6916814D02*
X13797891Y-6935862D01*
X13797891Y-6935862D02*
X13797891Y-6954909D01*
X13797891Y-6954909D02*
X13702653Y-6973957D01*
X13874082Y-7031100D02*
X13893130Y-7040624D01*
X13893130Y-7040624D02*
X13931225Y-7040624D01*
X13931225Y-7040624D02*
X13950272Y-7031100D01*
X13950272Y-7031100D02*
X13959796Y-7012052D01*
X13959796Y-7012052D02*
X13959796Y-7002528D01*
X13959796Y-7002528D02*
X13950272Y-6983481D01*
X13950272Y-6983481D02*
X13931225Y-6973957D01*
X13931225Y-6973957D02*
X13902653Y-6973957D01*
X13902653Y-6973957D02*
X13883606Y-6964433D01*
X13883606Y-6964433D02*
X13874082Y-6945386D01*
X13874082Y-6945386D02*
X13874082Y-6935862D01*
X13874082Y-6935862D02*
X13883606Y-6916814D01*
X13883606Y-6916814D02*
X13902653Y-6907290D01*
X13902653Y-6907290D02*
X13931225Y-6907290D01*
X13931225Y-6907290D02*
X13950272Y-6916814D01*
X14026463Y-7116814D02*
X14035987Y-7107290D01*
X14035987Y-7107290D02*
X14055034Y-7078719D01*
X14055034Y-7078719D02*
X14064558Y-7059671D01*
X14064558Y-7059671D02*
X14074082Y-7031100D01*
X14074082Y-7031100D02*
X14083606Y-6983481D01*
X14083606Y-6983481D02*
X14083606Y-6945386D01*
X14083606Y-6945386D02*
X14074082Y-6897767D01*
X14074082Y-6897767D02*
X14064558Y-6869195D01*
X14064558Y-6869195D02*
X14055034Y-6850148D01*
X14055034Y-6850148D02*
X14035987Y-6821576D01*
X14035987Y-6821576D02*
X14026463Y-6812052D01*
D10*
X9201400Y-7263140D02*
X9251400Y-7213140D01*
X9201400Y-7163140D01*
X9151400Y-7213140D01*
X9201400Y-7263140D01*
D12*
X9616939Y-7304624D02*
X9502653Y-7304624D01*
X9559796Y-7304624D02*
X9559796Y-7104624D01*
X9559796Y-7104624D02*
X9540748Y-7133195D01*
X9540748Y-7133195D02*
X9521701Y-7152243D01*
X9521701Y-7152243D02*
X9502653Y-7161767D01*
X9702653Y-7285576D02*
X9712177Y-7295100D01*
X9712177Y-7295100D02*
X9702653Y-7304624D01*
X9702653Y-7304624D02*
X9693129Y-7295100D01*
X9693129Y-7295100D02*
X9702653Y-7285576D01*
X9702653Y-7285576D02*
X9702653Y-7304624D01*
X9835986Y-7104624D02*
X9855034Y-7104624D01*
X9855034Y-7104624D02*
X9874082Y-7114148D01*
X9874082Y-7114148D02*
X9883605Y-7123671D01*
X9883605Y-7123671D02*
X9893129Y-7142719D01*
X9893129Y-7142719D02*
X9902653Y-7180814D01*
X9902653Y-7180814D02*
X9902653Y-7228433D01*
X9902653Y-7228433D02*
X9893129Y-7266528D01*
X9893129Y-7266528D02*
X9883605Y-7285576D01*
X9883605Y-7285576D02*
X9874082Y-7295100D01*
X9874082Y-7295100D02*
X9855034Y-7304624D01*
X9855034Y-7304624D02*
X9835986Y-7304624D01*
X9835986Y-7304624D02*
X9816939Y-7295100D01*
X9816939Y-7295100D02*
X9807415Y-7285576D01*
X9807415Y-7285576D02*
X9797891Y-7266528D01*
X9797891Y-7266528D02*
X9788367Y-7228433D01*
X9788367Y-7228433D02*
X9788367Y-7180814D01*
X9788367Y-7180814D02*
X9797891Y-7142719D01*
X9797891Y-7142719D02*
X9807415Y-7123671D01*
X9807415Y-7123671D02*
X9816939Y-7114148D01*
X9816939Y-7114148D02*
X9835986Y-7104624D01*
X10026463Y-7104624D02*
X10045510Y-7104624D01*
X10045510Y-7104624D02*
X10064558Y-7114148D01*
X10064558Y-7114148D02*
X10074082Y-7123671D01*
X10074082Y-7123671D02*
X10083605Y-7142719D01*
X10083605Y-7142719D02*
X10093129Y-7180814D01*
X10093129Y-7180814D02*
X10093129Y-7228433D01*
X10093129Y-7228433D02*
X10083605Y-7266528D01*
X10083605Y-7266528D02*
X10074082Y-7285576D01*
X10074082Y-7285576D02*
X10064558Y-7295100D01*
X10064558Y-7295100D02*
X10045510Y-7304624D01*
X10045510Y-7304624D02*
X10026463Y-7304624D01*
X10026463Y-7304624D02*
X10007415Y-7295100D01*
X10007415Y-7295100D02*
X9997891Y-7285576D01*
X9997891Y-7285576D02*
X9988367Y-7266528D01*
X9988367Y-7266528D02*
X9978844Y-7228433D01*
X9978844Y-7228433D02*
X9978844Y-7180814D01*
X9978844Y-7180814D02*
X9988367Y-7142719D01*
X9988367Y-7142719D02*
X9997891Y-7123671D01*
X9997891Y-7123671D02*
X10007415Y-7114148D01*
X10007415Y-7114148D02*
X10026463Y-7104624D01*
X10216939Y-7104624D02*
X10235986Y-7104624D01*
X10235986Y-7104624D02*
X10255034Y-7114148D01*
X10255034Y-7114148D02*
X10264558Y-7123671D01*
X10264558Y-7123671D02*
X10274082Y-7142719D01*
X10274082Y-7142719D02*
X10283605Y-7180814D01*
X10283605Y-7180814D02*
X10283605Y-7228433D01*
X10283605Y-7228433D02*
X10274082Y-7266528D01*
X10274082Y-7266528D02*
X10264558Y-7285576D01*
X10264558Y-7285576D02*
X10255034Y-7295100D01*
X10255034Y-7295100D02*
X10235986Y-7304624D01*
X10235986Y-7304624D02*
X10216939Y-7304624D01*
X10216939Y-7304624D02*
X10197891Y-7295100D01*
X10197891Y-7295100D02*
X10188367Y-7285576D01*
X10188367Y-7285576D02*
X10178844Y-7266528D01*
X10178844Y-7266528D02*
X10169320Y-7228433D01*
X10169320Y-7228433D02*
X10169320Y-7180814D01*
X10169320Y-7180814D02*
X10178844Y-7142719D01*
X10178844Y-7142719D02*
X10188367Y-7123671D01*
X10188367Y-7123671D02*
X10197891Y-7114148D01*
X10197891Y-7114148D02*
X10216939Y-7104624D01*
X10369320Y-7304624D02*
X10369320Y-7171290D01*
X10369320Y-7190338D02*
X10378844Y-7180814D01*
X10378844Y-7180814D02*
X10397891Y-7171290D01*
X10397891Y-7171290D02*
X10426463Y-7171290D01*
X10426463Y-7171290D02*
X10445510Y-7180814D01*
X10445510Y-7180814D02*
X10455034Y-7199862D01*
X10455034Y-7199862D02*
X10455034Y-7304624D01*
X10455034Y-7199862D02*
X10464558Y-7180814D01*
X10464558Y-7180814D02*
X10483605Y-7171290D01*
X10483605Y-7171290D02*
X10512177Y-7171290D01*
X10512177Y-7171290D02*
X10531225Y-7180814D01*
X10531225Y-7180814D02*
X10540748Y-7199862D01*
X10540748Y-7199862D02*
X10540748Y-7304624D01*
X10635986Y-7304624D02*
X10635986Y-7171290D01*
X10635986Y-7190338D02*
X10645510Y-7180814D01*
X10645510Y-7180814D02*
X10664558Y-7171290D01*
X10664558Y-7171290D02*
X10693129Y-7171290D01*
X10693129Y-7171290D02*
X10712177Y-7180814D01*
X10712177Y-7180814D02*
X10721701Y-7199862D01*
X10721701Y-7199862D02*
X10721701Y-7304624D01*
X10721701Y-7199862D02*
X10731225Y-7180814D01*
X10731225Y-7180814D02*
X10750272Y-7171290D01*
X10750272Y-7171290D02*
X10778844Y-7171290D01*
X10778844Y-7171290D02*
X10797891Y-7180814D01*
X10797891Y-7180814D02*
X10807415Y-7199862D01*
X10807415Y-7199862D02*
X10807415Y-7304624D01*
X11197891Y-7095100D02*
X11026463Y-7352243D01*
X11455034Y-7104624D02*
X11474082Y-7104624D01*
X11474082Y-7104624D02*
X11493129Y-7114148D01*
X11493129Y-7114148D02*
X11502653Y-7123671D01*
X11502653Y-7123671D02*
X11512177Y-7142719D01*
X11512177Y-7142719D02*
X11521701Y-7180814D01*
X11521701Y-7180814D02*
X11521701Y-7228433D01*
X11521701Y-7228433D02*
X11512177Y-7266528D01*
X11512177Y-7266528D02*
X11502653Y-7285576D01*
X11502653Y-7285576D02*
X11493129Y-7295100D01*
X11493129Y-7295100D02*
X11474082Y-7304624D01*
X11474082Y-7304624D02*
X11455034Y-7304624D01*
X11455034Y-7304624D02*
X11435986Y-7295100D01*
X11435986Y-7295100D02*
X11426463Y-7285576D01*
X11426463Y-7285576D02*
X11416939Y-7266528D01*
X11416939Y-7266528D02*
X11407415Y-7228433D01*
X11407415Y-7228433D02*
X11407415Y-7180814D01*
X11407415Y-7180814D02*
X11416939Y-7142719D01*
X11416939Y-7142719D02*
X11426463Y-7123671D01*
X11426463Y-7123671D02*
X11435986Y-7114148D01*
X11435986Y-7114148D02*
X11455034Y-7104624D01*
X11607415Y-7285576D02*
X11616939Y-7295100D01*
X11616939Y-7295100D02*
X11607415Y-7304624D01*
X11607415Y-7304624D02*
X11597891Y-7295100D01*
X11597891Y-7295100D02*
X11607415Y-7285576D01*
X11607415Y-7285576D02*
X11607415Y-7304624D01*
X11740748Y-7104624D02*
X11759796Y-7104624D01*
X11759796Y-7104624D02*
X11778844Y-7114148D01*
X11778844Y-7114148D02*
X11788367Y-7123671D01*
X11788367Y-7123671D02*
X11797891Y-7142719D01*
X11797891Y-7142719D02*
X11807415Y-7180814D01*
X11807415Y-7180814D02*
X11807415Y-7228433D01*
X11807415Y-7228433D02*
X11797891Y-7266528D01*
X11797891Y-7266528D02*
X11788367Y-7285576D01*
X11788367Y-7285576D02*
X11778844Y-7295100D01*
X11778844Y-7295100D02*
X11759796Y-7304624D01*
X11759796Y-7304624D02*
X11740748Y-7304624D01*
X11740748Y-7304624D02*
X11721701Y-7295100D01*
X11721701Y-7295100D02*
X11712177Y-7285576D01*
X11712177Y-7285576D02*
X11702653Y-7266528D01*
X11702653Y-7266528D02*
X11693129Y-7228433D01*
X11693129Y-7228433D02*
X11693129Y-7180814D01*
X11693129Y-7180814D02*
X11702653Y-7142719D01*
X11702653Y-7142719D02*
X11712177Y-7123671D01*
X11712177Y-7123671D02*
X11721701Y-7114148D01*
X11721701Y-7114148D02*
X11740748Y-7104624D01*
X11874082Y-7104624D02*
X11997891Y-7104624D01*
X11997891Y-7104624D02*
X11931225Y-7180814D01*
X11931225Y-7180814D02*
X11959796Y-7180814D01*
X11959796Y-7180814D02*
X11978844Y-7190338D01*
X11978844Y-7190338D02*
X11988367Y-7199862D01*
X11988367Y-7199862D02*
X11997891Y-7218909D01*
X11997891Y-7218909D02*
X11997891Y-7266528D01*
X11997891Y-7266528D02*
X11988367Y-7285576D01*
X11988367Y-7285576D02*
X11978844Y-7295100D01*
X11978844Y-7295100D02*
X11959796Y-7304624D01*
X11959796Y-7304624D02*
X11902653Y-7304624D01*
X11902653Y-7304624D02*
X11883606Y-7295100D01*
X11883606Y-7295100D02*
X11874082Y-7285576D01*
X12093129Y-7304624D02*
X12131225Y-7304624D01*
X12131225Y-7304624D02*
X12150272Y-7295100D01*
X12150272Y-7295100D02*
X12159796Y-7285576D01*
X12159796Y-7285576D02*
X12178844Y-7257005D01*
X12178844Y-7257005D02*
X12188367Y-7218909D01*
X12188367Y-7218909D02*
X12188367Y-7142719D01*
X12188367Y-7142719D02*
X12178844Y-7123671D01*
X12178844Y-7123671D02*
X12169320Y-7114148D01*
X12169320Y-7114148D02*
X12150272Y-7104624D01*
X12150272Y-7104624D02*
X12112177Y-7104624D01*
X12112177Y-7104624D02*
X12093129Y-7114148D01*
X12093129Y-7114148D02*
X12083606Y-7123671D01*
X12083606Y-7123671D02*
X12074082Y-7142719D01*
X12074082Y-7142719D02*
X12074082Y-7190338D01*
X12074082Y-7190338D02*
X12083606Y-7209386D01*
X12083606Y-7209386D02*
X12093129Y-7218909D01*
X12093129Y-7218909D02*
X12112177Y-7228433D01*
X12112177Y-7228433D02*
X12150272Y-7228433D01*
X12150272Y-7228433D02*
X12169320Y-7218909D01*
X12169320Y-7218909D02*
X12178844Y-7209386D01*
X12178844Y-7209386D02*
X12188367Y-7190338D01*
X12359796Y-7171290D02*
X12359796Y-7304624D01*
X12312177Y-7095100D02*
X12264558Y-7237957D01*
X12264558Y-7237957D02*
X12388367Y-7237957D01*
X12455034Y-7104624D02*
X12455034Y-7142719D01*
X12531225Y-7104624D02*
X12531225Y-7142719D01*
X12826463Y-7380814D02*
X12816939Y-7371290D01*
X12816939Y-7371290D02*
X12797891Y-7342719D01*
X12797891Y-7342719D02*
X12788368Y-7323671D01*
X12788368Y-7323671D02*
X12778844Y-7295100D01*
X12778844Y-7295100D02*
X12769320Y-7247481D01*
X12769320Y-7247481D02*
X12769320Y-7209386D01*
X12769320Y-7209386D02*
X12778844Y-7161767D01*
X12778844Y-7161767D02*
X12788368Y-7133195D01*
X12788368Y-7133195D02*
X12797891Y-7114148D01*
X12797891Y-7114148D02*
X12816939Y-7085576D01*
X12816939Y-7085576D02*
X12826463Y-7076052D01*
X13007415Y-7304624D02*
X12893129Y-7304624D01*
X12950272Y-7304624D02*
X12950272Y-7104624D01*
X12950272Y-7104624D02*
X12931225Y-7133195D01*
X12931225Y-7133195D02*
X12912177Y-7152243D01*
X12912177Y-7152243D02*
X12893129Y-7161767D01*
X13083606Y-7123671D02*
X13093129Y-7114148D01*
X13093129Y-7114148D02*
X13112177Y-7104624D01*
X13112177Y-7104624D02*
X13159796Y-7104624D01*
X13159796Y-7104624D02*
X13178844Y-7114148D01*
X13178844Y-7114148D02*
X13188368Y-7123671D01*
X13188368Y-7123671D02*
X13197891Y-7142719D01*
X13197891Y-7142719D02*
X13197891Y-7161767D01*
X13197891Y-7161767D02*
X13188368Y-7190338D01*
X13188368Y-7190338D02*
X13074082Y-7304624D01*
X13074082Y-7304624D02*
X13197891Y-7304624D01*
X13435987Y-7304624D02*
X13435987Y-7104624D01*
X13521701Y-7304624D02*
X13521701Y-7199862D01*
X13521701Y-7199862D02*
X13512177Y-7180814D01*
X13512177Y-7180814D02*
X13493130Y-7171290D01*
X13493130Y-7171290D02*
X13464558Y-7171290D01*
X13464558Y-7171290D02*
X13445510Y-7180814D01*
X13445510Y-7180814D02*
X13435987Y-7190338D01*
X13645510Y-7304624D02*
X13626463Y-7295100D01*
X13626463Y-7295100D02*
X13616939Y-7285576D01*
X13616939Y-7285576D02*
X13607415Y-7266528D01*
X13607415Y-7266528D02*
X13607415Y-7209386D01*
X13607415Y-7209386D02*
X13616939Y-7190338D01*
X13616939Y-7190338D02*
X13626463Y-7180814D01*
X13626463Y-7180814D02*
X13645510Y-7171290D01*
X13645510Y-7171290D02*
X13674082Y-7171290D01*
X13674082Y-7171290D02*
X13693130Y-7180814D01*
X13693130Y-7180814D02*
X13702653Y-7190338D01*
X13702653Y-7190338D02*
X13712177Y-7209386D01*
X13712177Y-7209386D02*
X13712177Y-7266528D01*
X13712177Y-7266528D02*
X13702653Y-7285576D01*
X13702653Y-7285576D02*
X13693130Y-7295100D01*
X13693130Y-7295100D02*
X13674082Y-7304624D01*
X13674082Y-7304624D02*
X13645510Y-7304624D01*
X13826463Y-7304624D02*
X13807415Y-7295100D01*
X13807415Y-7295100D02*
X13797891Y-7276052D01*
X13797891Y-7276052D02*
X13797891Y-7104624D01*
X13978844Y-7295100D02*
X13959796Y-7304624D01*
X13959796Y-7304624D02*
X13921701Y-7304624D01*
X13921701Y-7304624D02*
X13902653Y-7295100D01*
X13902653Y-7295100D02*
X13893130Y-7276052D01*
X13893130Y-7276052D02*
X13893130Y-7199862D01*
X13893130Y-7199862D02*
X13902653Y-7180814D01*
X13902653Y-7180814D02*
X13921701Y-7171290D01*
X13921701Y-7171290D02*
X13959796Y-7171290D01*
X13959796Y-7171290D02*
X13978844Y-7180814D01*
X13978844Y-7180814D02*
X13988368Y-7199862D01*
X13988368Y-7199862D02*
X13988368Y-7218909D01*
X13988368Y-7218909D02*
X13893130Y-7237957D01*
X14064558Y-7295100D02*
X14083606Y-7304624D01*
X14083606Y-7304624D02*
X14121701Y-7304624D01*
X14121701Y-7304624D02*
X14140749Y-7295100D01*
X14140749Y-7295100D02*
X14150272Y-7276052D01*
X14150272Y-7276052D02*
X14150272Y-7266528D01*
X14150272Y-7266528D02*
X14140749Y-7247481D01*
X14140749Y-7247481D02*
X14121701Y-7237957D01*
X14121701Y-7237957D02*
X14093130Y-7237957D01*
X14093130Y-7237957D02*
X14074082Y-7228433D01*
X14074082Y-7228433D02*
X14064558Y-7209386D01*
X14064558Y-7209386D02*
X14064558Y-7199862D01*
X14064558Y-7199862D02*
X14074082Y-7180814D01*
X14074082Y-7180814D02*
X14093130Y-7171290D01*
X14093130Y-7171290D02*
X14121701Y-7171290D01*
X14121701Y-7171290D02*
X14140749Y-7180814D01*
X14216939Y-7380814D02*
X14226463Y-7371290D01*
X14226463Y-7371290D02*
X14245511Y-7342719D01*
X14245511Y-7342719D02*
X14255034Y-7323671D01*
X14255034Y-7323671D02*
X14264558Y-7295100D01*
X14264558Y-7295100D02*
X14274082Y-7247481D01*
X14274082Y-7247481D02*
X14274082Y-7209386D01*
X14274082Y-7209386D02*
X14264558Y-7161767D01*
X14264558Y-7161767D02*
X14255034Y-7133195D01*
X14255034Y-7133195D02*
X14245511Y-7114148D01*
X14245511Y-7114148D02*
X14226463Y-7085576D01*
X14226463Y-7085576D02*
X14216939Y-7076052D01*
M02*
