M48
; DRILL file {KiCad 8.0.5} date 2024-09-20T16:42:49+0200
; FORMAT={-:-/ absolute / metric / decimal}
; #@! TF.CreationDate,2024-09-20T16:42:49+02:00
; #@! TF.GenerationSoftware,Kicad,Pcbnew,8.0.5
; #@! TF.FileFunction,Plated,1,2,PTH
FMAT,2
METRIC
; #@! TA.AperFunction,Plated,PTH,ComponentDrill
T1C0.300
; #@! TA.AperFunction,Plated,PTH,ViaDrill
T2C0.400
; #@! TA.AperFunction,Plated,PTH,ComponentDrill
T3C0.400
; #@! TA.AperFunction,Plated,PTH,ComponentDrill
T4C0.650
; #@! TA.AperFunction,Plated,PTH,ComponentDrill
T5C1.000
%
G90
G05
T1
X106.728Y-38.644
X106.728Y-39.644
X106.728Y-40.644
X107.728Y-38.644
X107.728Y-39.644
X107.728Y-40.644
X108.728Y-38.644
X108.728Y-39.644
X108.728Y-40.644
T2
X93.179Y-48.25
X94.5Y-54.511
X95.59Y-42.22
X95.81Y-29.302
X96.34Y-34.67
X97.85Y-36.012
X99.314Y-40.767
X100.944Y-37.609
X101.041Y-36.012
X101.219Y-39.153
X102.218Y-38.669
X103.165Y-36.74
X103.95Y-29.16
X104.043Y-37.219
X104.88Y-48.56
X105.553Y-37.019
X105.81Y-54.418
X106.477Y-45.796
X107.196Y-36.133
X108.375Y-35.377
X110.557Y-34.644
X111.506Y-38.252
X111.541Y-43.449
X112.128Y-35.358
X112.175Y-44.223
X113.025Y-45.19
X113.65Y-37.238
X114.802Y-38.702
X114.822Y-48.69
X114.822Y-54.418
X114.969Y-43.16
T4
X109.006Y-47.988
X111.546Y-47.988
T5
X97.663Y-30.602
X97.663Y-33.142
X100.203Y-30.602
X100.203Y-33.142
X102.743Y-30.602
X102.743Y-33.142
X105.283Y-30.602
X105.283Y-33.142
X107.823Y-30.602
X107.823Y-33.142
X110.363Y-30.602
X110.363Y-33.142
T3
X93.828Y-45.111G85X93.828Y-46.111
G05
X96.328Y-45.111G85X96.328Y-46.111
G05
X98.328Y-50.611G85X99.328Y-50.611
G05
X101.328Y-46.111G85X101.328Y-45.111
G05
X103.828Y-46.111G85X103.828Y-45.111
G05
M30
