%TF.GenerationSoftware,KiCad,Pcbnew,8.0.2*%
%TF.CreationDate,2024-06-06T19:50:14+02:00*%
%TF.ProjectId,AnalogI2SMic,416e616c-6f67-4493-9253-4d69632e6b69,rev?*%
%TF.SameCoordinates,Original*%
%TF.FileFunction,Copper,L1,Top*%
%TF.FilePolarity,Positive*%
%FSLAX46Y46*%
G04 Gerber Fmt 4.6, Leading zero omitted, Abs format (unit mm)*
G04 Created by KiCad (PCBNEW 8.0.2) date 2024-06-06 19:50:14*
%MOMM*%
%LPD*%
G01*
G04 APERTURE LIST*
G04 Aperture macros list*
%AMRoundRect*
0 Rectangle with rounded corners*
0 $1 Rounding radius*
0 $2 $3 $4 $5 $6 $7 $8 $9 X,Y pos of 4 corners*
0 Add a 4 corners polygon primitive as box body*
4,1,4,$2,$3,$4,$5,$6,$7,$8,$9,$2,$3,0*
0 Add four circle primitives for the rounded corners*
1,1,$1+$1,$2,$3*
1,1,$1+$1,$4,$5*
1,1,$1+$1,$6,$7*
1,1,$1+$1,$8,$9*
0 Add four rect primitives between the rounded corners*
20,1,$1+$1,$2,$3,$4,$5,0*
20,1,$1+$1,$4,$5,$6,$7,0*
20,1,$1+$1,$6,$7,$8,$9,0*
20,1,$1+$1,$8,$9,$2,$3,0*%
%AMRotRect*
0 Rectangle, with rotation*
0 The origin of the aperture is its center*
0 $1 length*
0 $2 width*
0 $3 Rotation angle, in degrees counterclockwise*
0 Add horizontal line*
21,1,$1,$2,0,0,$3*%
%AMFreePoly0*
4,1,5,0.110000,-0.125000,-0.110000,-0.125000,-0.110000,0.125000,0.360000,0.125000,0.110000,-0.125000,0.110000,-0.125000,$1*%
%AMFreePoly1*
4,1,6,0.290000,-0.055000,0.290000,-0.125000,-0.110000,-0.125000,-0.110000,0.125000,0.110000,0.125000,0.290000,-0.055000,0.290000,-0.055000,$1*%
%AMFreePoly2*
4,1,7,0.110000,-0.125000,-0.110000,-0.125000,-0.290000,-0.125000,-0.290000,-0.055000,-0.110000,0.125000,0.110000,0.125000,0.110000,-0.125000,0.110000,-0.125000,$1*%
%AMFreePoly3*
4,1,6,0.110000,-0.125000,-0.110000,-0.125000,-0.290000,0.055000,-0.290000,0.125000,0.110000,0.125000,0.110000,-0.125000,0.110000,-0.125000,$1*%
G04 Aperture macros list end*
%TA.AperFunction,EtchedComponent*%
%ADD10C,0.000000*%
%TD*%
%TA.AperFunction,ComponentPad*%
%ADD11R,1.700000X1.700000*%
%TD*%
%TA.AperFunction,ComponentPad*%
%ADD12O,1.700000X1.700000*%
%TD*%
%TA.AperFunction,ComponentPad*%
%ADD13R,1.500000X1.500000*%
%TD*%
%TA.AperFunction,ComponentPad*%
%ADD14C,1.500000*%
%TD*%
%TA.AperFunction,SMDPad,CuDef*%
%ADD15FreePoly0,180.000000*%
%TD*%
%TA.AperFunction,SMDPad,CuDef*%
%ADD16FreePoly1,180.000000*%
%TD*%
%TA.AperFunction,SMDPad,CuDef*%
%ADD17FreePoly2,180.000000*%
%TD*%
%TA.AperFunction,SMDPad,CuDef*%
%ADD18FreePoly3,180.000000*%
%TD*%
%TA.AperFunction,SMDPad,CuDef*%
%ADD19RotRect,0.480000X0.480000X225.000000*%
%TD*%
%TA.AperFunction,ComponentPad*%
%ADD20O,1.200000X2.200000*%
%TD*%
%TA.AperFunction,ComponentPad*%
%ADD21O,2.200000X1.200000*%
%TD*%
%TA.AperFunction,SMDPad,CuDef*%
%ADD22RoundRect,0.150000X-0.150000X0.587500X-0.150000X-0.587500X0.150000X-0.587500X0.150000X0.587500X0*%
%TD*%
%TA.AperFunction,SMDPad,CuDef*%
%ADD23RoundRect,0.140000X-0.170000X0.140000X-0.170000X-0.140000X0.170000X-0.140000X0.170000X0.140000X0*%
%TD*%
%TA.AperFunction,SMDPad,CuDef*%
%ADD24RoundRect,0.135000X0.185000X-0.135000X0.185000X0.135000X-0.185000X0.135000X-0.185000X-0.135000X0*%
%TD*%
%TA.AperFunction,SMDPad,CuDef*%
%ADD25RoundRect,0.135000X-0.185000X0.135000X-0.185000X-0.135000X0.185000X-0.135000X0.185000X0.135000X0*%
%TD*%
%TA.AperFunction,SMDPad,CuDef*%
%ADD26RoundRect,0.140000X0.170000X-0.140000X0.170000X0.140000X-0.170000X0.140000X-0.170000X-0.140000X0*%
%TD*%
%TA.AperFunction,SMDPad,CuDef*%
%ADD27RoundRect,0.140000X0.140000X0.170000X-0.140000X0.170000X-0.140000X-0.170000X0.140000X-0.170000X0*%
%TD*%
%TA.AperFunction,SMDPad,CuDef*%
%ADD28RoundRect,0.140000X-0.140000X-0.170000X0.140000X-0.170000X0.140000X0.170000X-0.140000X0.170000X0*%
%TD*%
%TA.AperFunction,SMDPad,CuDef*%
%ADD29R,1.500000X1.000000*%
%TD*%
%TA.AperFunction,SMDPad,CuDef*%
%ADD30RoundRect,0.218750X-0.256250X0.218750X-0.256250X-0.218750X0.256250X-0.218750X0.256250X0.218750X0*%
%TD*%
%TA.AperFunction,SMDPad,CuDef*%
%ADD31RoundRect,0.062500X-0.375000X-0.062500X0.375000X-0.062500X0.375000X0.062500X-0.375000X0.062500X0*%
%TD*%
%TA.AperFunction,SMDPad,CuDef*%
%ADD32RoundRect,0.062500X-0.062500X-0.375000X0.062500X-0.375000X0.062500X0.375000X-0.062500X0.375000X0*%
%TD*%
%TA.AperFunction,ComponentPad*%
%ADD33C,0.500000*%
%TD*%
%TA.AperFunction,SMDPad,CuDef*%
%ADD34R,2.500000X2.500000*%
%TD*%
%TA.AperFunction,ViaPad*%
%ADD35C,0.800000*%
%TD*%
%TA.AperFunction,ViaPad*%
%ADD36C,1.200000*%
%TD*%
%TA.AperFunction,Conductor*%
%ADD37C,0.500000*%
%TD*%
%TA.AperFunction,Conductor*%
%ADD38C,0.250000*%
%TD*%
G04 APERTURE END LIST*
D10*
%TA.AperFunction,EtchedComponent*%
%TO.C,JP2*%
G36*
X93957800Y-41916400D02*
G01*
X93557800Y-41916400D01*
X93557800Y-41416400D01*
X93957800Y-41416400D01*
X93957800Y-41916400D01*
G37*
%TD.AperFunction*%
%TA.AperFunction,EtchedComponent*%
G36*
X94757800Y-41916400D02*
G01*
X94357800Y-41916400D01*
X94357800Y-41416400D01*
X94757800Y-41416400D01*
X94757800Y-41916400D01*
G37*
%TD.AperFunction*%
%TA.AperFunction,EtchedComponent*%
%TO.C,JP1*%
G36*
X114354000Y-41764000D02*
G01*
X113954000Y-41764000D01*
X113954000Y-41264000D01*
X114354000Y-41264000D01*
X114354000Y-41764000D01*
G37*
%TD.AperFunction*%
%TA.AperFunction,EtchedComponent*%
G36*
X115154000Y-41764000D02*
G01*
X114754000Y-41764000D01*
X114754000Y-41264000D01*
X115154000Y-41264000D01*
X115154000Y-41764000D01*
G37*
%TD.AperFunction*%
%TD*%
D11*
%TO.P,J4,1,Pin_1*%
%TO.N,+3.3V*%
X94742000Y-29210000D03*
D12*
%TO.P,J4,2,Pin_2*%
%TO.N,I2S_BCLK*%
X97282000Y-29210000D03*
%TO.P,J4,3,Pin_3*%
%TO.N,I2S_MCLK*%
X99822000Y-29210000D03*
%TO.P,J4,4,Pin_4*%
%TO.N,I2S_DOUT*%
X102362000Y-29210000D03*
%TO.P,J4,5,Pin_5*%
%TO.N,I2S_WCLK*%
X104902000Y-29210000D03*
%TO.P,J4,6,Pin_6*%
%TO.N,GND*%
X107442000Y-29210000D03*
%TD*%
D11*
%TO.P,J6,1,Pin_1*%
%TO.N,GPIO1*%
X112649000Y-32893000D03*
D12*
%TO.P,J6,2,Pin_2*%
%TO.N,I2C_SCL*%
X110109000Y-32893000D03*
%TO.P,J6,3,Pin_3*%
%TO.N,I2C_SDA*%
X107569000Y-32893000D03*
%TO.P,J6,4,Pin_4*%
%TO.N,GPIO2*%
X105029000Y-32893000D03*
%TO.P,J6,5,Pin_5*%
%TO.N,ENABLE*%
X102489000Y-32893000D03*
%TO.P,J6,6,Pin_6*%
%TO.N,~{TRIGGER}*%
X99949000Y-32893000D03*
%TD*%
D13*
%TO.P,MK1,1,-*%
%TO.N,GNDA*%
X109220000Y-51435000D03*
D14*
%TO.P,MK1,2,+*%
%TO.N,Net-(J2-Pin_1)*%
X111760000Y-51435000D03*
%TD*%
D15*
%TO.P,U2,1,VOUT*%
%TO.N,+1V8*%
X96613300Y-32282500D03*
D16*
%TO.P,U2,2,GND*%
%TO.N,GND*%
X96613300Y-31632500D03*
D17*
%TO.P,U2,3,EN*%
%TO.N,ENABLE*%
X95533300Y-31632500D03*
D18*
%TO.P,U2,4,VIN*%
%TO.N,+3.3V*%
X95533300Y-32282500D03*
D19*
%TO.P,U2,5,SGND*%
%TO.N,GND*%
X96073300Y-31957500D03*
%TD*%
D20*
%TO.P,J1,R*%
%TO.N,Net-(J3-Pin_1)*%
X94060000Y-49020000D03*
%TO.P,J1,RN*%
%TO.N,unconnected-(J1-PadRN)*%
X96560000Y-49020000D03*
D21*
%TO.P,J1,S*%
%TO.N,GNDA*%
X99060000Y-54020000D03*
D20*
%TO.P,J1,T*%
%TO.N,Net-(J2-Pin_3)*%
X104060000Y-49020000D03*
%TO.P,J1,TN*%
%TO.N,unconnected-(J1-PadTN)*%
X101560000Y-49020000D03*
%TD*%
D11*
%TO.P,J2,1,Pin_1*%
%TO.N,Net-(J2-Pin_1)*%
X113935000Y-46360000D03*
D12*
%TO.P,J2,2,Pin_2*%
%TO.N,Net-(J2-Pin_2)*%
X111395000Y-46360000D03*
%TO.P,J2,3,Pin_3*%
%TO.N,Net-(J2-Pin_3)*%
X108855000Y-46360000D03*
%TD*%
D22*
%TO.P,Q1,1,B*%
%TO.N,Net-(Q1-B)*%
X95285800Y-37098900D03*
%TO.P,Q1,2,E*%
%TO.N,GND*%
X93385800Y-37098900D03*
%TO.P,Q1,3,C*%
%TO.N,~{TRIGGER}*%
X94335800Y-38973900D03*
%TD*%
D11*
%TO.P,J3,1,Pin_1*%
%TO.N,Net-(J3-Pin_1)*%
X97890000Y-41910000D03*
D12*
%TO.P,J3,2,Pin_2*%
%TO.N,RIGHT*%
X97890000Y-39370000D03*
%TD*%
D23*
%TO.P,C10,1*%
%TO.N,Net-(U1-IN2R(P))*%
X106680000Y-42954000D03*
%TO.P,C10,2*%
%TO.N,Net-(J3-Pin_1)*%
X106680000Y-43914000D03*
%TD*%
D24*
%TO.P,R12,1*%
%TO.N,RIGHT*%
X96570800Y-37035200D03*
%TO.P,R12,2*%
%TO.N,Net-(Q1-B)*%
X96570800Y-36015200D03*
%TD*%
%TO.P,R11,1*%
%TO.N,+3.3V*%
X94488000Y-32969200D03*
%TO.P,R11,2*%
%TO.N,ENABLE*%
X94488000Y-31949200D03*
%TD*%
D23*
%TO.P,C12,1*%
%TO.N,Net-(J2-Pin_2)*%
X109347000Y-41839000D03*
%TO.P,C12,2*%
%TO.N,GNDA*%
X109347000Y-42799000D03*
%TD*%
D25*
%TO.P,R3,1*%
%TO.N,+3.3V*%
X109982000Y-37080000D03*
%TO.P,R3,2*%
%TO.N,Net-(U1-I2C_ADR1)*%
X109982000Y-38100000D03*
%TD*%
%TO.P,R2,1*%
%TO.N,Net-(U1-MICBIAS2)*%
X108331000Y-40765000D03*
%TO.P,R2,2*%
%TO.N,Net-(J2-Pin_2)*%
X108331000Y-41785000D03*
%TD*%
D26*
%TO.P,C1,1*%
%TO.N,Net-(U1-~{RESET})*%
X98704400Y-37005200D03*
%TO.P,C1,2*%
%TO.N,GND*%
X98704400Y-36045200D03*
%TD*%
D25*
%TO.P,R5,1*%
%TO.N,+3.3V*%
X110998000Y-37082000D03*
%TO.P,R5,2*%
%TO.N,Net-(U1-I2C_ADR0)*%
X110998000Y-38102000D03*
%TD*%
D24*
%TO.P,R13,1*%
%TO.N,~{TRIGGER}*%
X93827600Y-34901600D03*
%TO.P,R13,2*%
%TO.N,+3.3V*%
X93827600Y-33881600D03*
%TD*%
D27*
%TO.P,C2,1*%
%TO.N,+3.3VA*%
X105664000Y-42926000D03*
%TO.P,C2,2*%
%TO.N,GNDA*%
X104704000Y-42926000D03*
%TD*%
D26*
%TO.P,C4,1*%
%TO.N,+1V8*%
X102463600Y-36141600D03*
%TO.P,C4,2*%
%TO.N,GND*%
X102463600Y-35181600D03*
%TD*%
D25*
%TO.P,R8,1*%
%TO.N,+3.3V*%
X112801400Y-38733000D03*
%TO.P,R8,2*%
%TO.N,Net-(FB1-Pad1)*%
X112801400Y-39753000D03*
%TD*%
%TO.P,R6,1*%
%TO.N,Net-(U1-I2C_ADR0)*%
X110998000Y-38989000D03*
%TO.P,R6,2*%
%TO.N,GND*%
X110998000Y-40009000D03*
%TD*%
D26*
%TO.P,C6,1*%
%TO.N,+3.3V*%
X105308400Y-36195000D03*
%TO.P,C6,2*%
%TO.N,GND*%
X105308400Y-35235000D03*
%TD*%
D25*
%TO.P,R1,1*%
%TO.N,Net-(U1-MICBIAS1)*%
X101981000Y-40765000D03*
%TO.P,R1,2*%
%TO.N,Net-(J3-Pin_1)*%
X101981000Y-41785000D03*
%TD*%
D24*
%TO.P,R9,1*%
%TO.N,+3.3V*%
X109982000Y-36171600D03*
%TO.P,R9,2*%
%TO.N,I2C_SCL*%
X109982000Y-35151600D03*
%TD*%
D28*
%TO.P,C13,1*%
%TO.N,+3.3VA*%
X111889600Y-43713400D03*
%TO.P,C13,2*%
%TO.N,GNDA*%
X112849600Y-43713400D03*
%TD*%
D23*
%TO.P,C16,1*%
%TO.N,Net-(U1-IN3R(M))*%
X107696000Y-42982000D03*
%TO.P,C16,2*%
%TO.N,GNDA*%
X107696000Y-43942000D03*
%TD*%
D25*
%TO.P,R4,1*%
%TO.N,Net-(U1-I2C_ADR1)*%
X109982000Y-38989000D03*
%TO.P,R4,2*%
%TO.N,GND*%
X109982000Y-40009000D03*
%TD*%
D26*
%TO.P,C7,1*%
%TO.N,+3.3V*%
X106324400Y-36192400D03*
%TO.P,C7,2*%
%TO.N,GND*%
X106324400Y-35232400D03*
%TD*%
D25*
%TO.P,R7,1*%
%TO.N,+3.3V*%
X97637600Y-36015200D03*
%TO.P,R7,2*%
%TO.N,Net-(U1-~{RESET})*%
X97637600Y-37035200D03*
%TD*%
D23*
%TO.P,C8,1*%
%TO.N,Net-(U1-IN2L(P))*%
X103632000Y-42926000D03*
%TO.P,C8,2*%
%TO.N,Net-(J2-Pin_2)*%
X103632000Y-43886000D03*
%TD*%
D28*
%TO.P,C14,1*%
%TO.N,+3.3V*%
X94820800Y-34340800D03*
%TO.P,C14,2*%
%TO.N,GND*%
X95780800Y-34340800D03*
%TD*%
D29*
%TO.P,JP2,1,A*%
%TO.N,GND*%
X94157800Y-41016400D03*
%TO.P,JP2,2,B*%
%TO.N,GNDA*%
X94157800Y-42316400D03*
%TD*%
D27*
%TO.P,C3,1*%
%TO.N,+3.3VA*%
X105664000Y-43942000D03*
%TO.P,C3,2*%
%TO.N,GNDA*%
X104704000Y-43942000D03*
%TD*%
D29*
%TO.P,JP1,1,A*%
%TO.N,GND*%
X114554000Y-40864000D03*
%TO.P,JP1,2,B*%
%TO.N,GNDA*%
X114554000Y-42164000D03*
%TD*%
D23*
%TO.P,C9,1*%
%TO.N,Net-(U1-IN3L(M))*%
X102616000Y-42926000D03*
%TO.P,C9,2*%
%TO.N,GNDA*%
X102616000Y-43886000D03*
%TD*%
D26*
%TO.P,C15,1*%
%TO.N,+1V8*%
X97434400Y-32941200D03*
%TO.P,C15,2*%
%TO.N,GND*%
X97434400Y-31981200D03*
%TD*%
D30*
%TO.P,FB1,1*%
%TO.N,Net-(FB1-Pad1)*%
X112547400Y-40894000D03*
%TO.P,FB1,2*%
%TO.N,+3.3VA*%
X112547400Y-42469000D03*
%TD*%
D31*
%TO.P,U1,1,BCLK*%
%TO.N,I2S_BCLK*%
X103202500Y-38390000D03*
%TO.P,U1,2,WCLK*%
%TO.N,I2S_WCLK*%
X103202500Y-38890000D03*
%TO.P,U1,3,DOUT*%
%TO.N,I2S_DOUT*%
X103202500Y-39390000D03*
%TO.P,U1,4,~{RESET}*%
%TO.N,Net-(U1-~{RESET})*%
X103202500Y-39890000D03*
%TO.P,U1,5,MICBIAS1*%
%TO.N,Net-(U1-MICBIAS1)*%
X103202500Y-40390000D03*
%TO.P,U1,6,IN3L(M)*%
%TO.N,Net-(U1-IN3L(M))*%
X103202500Y-40890000D03*
D32*
%TO.P,U1,7,IN2L(P)*%
%TO.N,Net-(U1-IN2L(P))*%
X103890000Y-41577500D03*
%TO.P,U1,8,IN1L(P)*%
%TO.N,unconnected-(U1-IN1L(P)-Pad8)*%
X104390000Y-41577500D03*
%TO.P,U1,9,AVSS*%
%TO.N,GNDA*%
X104890000Y-41577500D03*
%TO.P,U1,10,AVDD*%
%TO.N,+3.3VA*%
X105390000Y-41577500D03*
%TO.P,U1,11,IN1R(M)*%
%TO.N,unconnected-(U1-IN1R(M)-Pad11)*%
X105890000Y-41577500D03*
%TO.P,U1,12,IN2R(P)*%
%TO.N,Net-(U1-IN2R(P))*%
X106390000Y-41577500D03*
D31*
%TO.P,U1,13,IN3R(M)*%
%TO.N,Net-(U1-IN3R(M))*%
X107077500Y-40890000D03*
%TO.P,U1,14,MICBIAS2*%
%TO.N,Net-(U1-MICBIAS2)*%
X107077500Y-40390000D03*
%TO.P,U1,15,I2C_ADR0*%
%TO.N,Net-(U1-I2C_ADR0)*%
X107077500Y-39890000D03*
%TO.P,U1,16,I2C_ADR1*%
%TO.N,Net-(U1-I2C_ADR1)*%
X107077500Y-39390000D03*
%TO.P,U1,17,SCL*%
%TO.N,I2C_SCL*%
X107077500Y-38890000D03*
%TO.P,U1,18,SDA*%
%TO.N,I2C_SDA*%
X107077500Y-38390000D03*
D32*
%TO.P,U1,19,DMDIN/G1*%
%TO.N,GPIO1*%
X106390000Y-37702500D03*
%TO.P,U1,20,DMCLK/G2*%
%TO.N,GPIO2*%
X105890000Y-37702500D03*
%TO.P,U1,21,IOVDD*%
%TO.N,+3.3V*%
X105390000Y-37702500D03*
%TO.P,U1,22,DVDD*%
%TO.N,+1V8*%
X104890000Y-37702500D03*
%TO.P,U1,23,DVSS*%
%TO.N,GND*%
X104390000Y-37702500D03*
%TO.P,U1,24,MCLK*%
%TO.N,I2S_MCLK*%
X103890000Y-37702500D03*
D33*
%TO.P,U1,25,PAD*%
%TO.N,GNDA*%
X104140000Y-38640000D03*
X104140000Y-39640000D03*
X104140000Y-40640000D03*
X105140000Y-38640000D03*
X105140000Y-39640000D03*
D34*
X105140000Y-39640000D03*
D33*
X105140000Y-40640000D03*
X106140000Y-38640000D03*
X106140000Y-39640000D03*
X106140000Y-40640000D03*
%TD*%
D26*
%TO.P,C5,1*%
%TO.N,+1V8*%
X104292400Y-36192400D03*
%TO.P,C5,2*%
%TO.N,GND*%
X104292400Y-35232400D03*
%TD*%
D24*
%TO.P,R10,1*%
%TO.N,+3.3V*%
X110998000Y-36171600D03*
%TO.P,R10,2*%
%TO.N,I2C_SDA*%
X110998000Y-35151600D03*
%TD*%
D26*
%TO.P,C11,1*%
%TO.N,GNDA*%
X100965000Y-42799000D03*
%TO.P,C11,2*%
%TO.N,Net-(J3-Pin_1)*%
X100965000Y-41839000D03*
%TD*%
D35*
%TO.N,GND*%
X93218000Y-39624000D03*
D36*
X97425817Y-34266931D03*
D35*
X93503141Y-27903721D03*
D36*
X101693234Y-34376766D03*
X112894400Y-37463727D03*
X115104900Y-37498300D03*
X114688883Y-30581600D03*
X104233640Y-34366938D03*
X97242785Y-30859536D03*
%TO.N,+3.3VA*%
X105708861Y-45254358D03*
X111125000Y-42578500D03*
D35*
%TO.N,GNDA*%
X98253850Y-47714500D03*
X104521000Y-51511200D03*
X114655600Y-53162200D03*
D36*
X114630200Y-44450000D03*
D35*
X114655600Y-57581800D03*
X105714800Y-57581800D03*
D36*
X110302710Y-41073728D03*
X93980000Y-43688000D03*
D35*
X115087400Y-48895000D03*
X93751400Y-58039000D03*
X93472000Y-51460400D03*
X110464600Y-54330600D03*
D36*
X104267000Y-45212000D03*
%TO.N,+1V8*%
X96235168Y-33247104D03*
D35*
X103383640Y-36179575D03*
D36*
%TO.N,+3.3V*%
X112979200Y-35305826D03*
D35*
X107246600Y-35872301D03*
D36*
X113944400Y-38709600D03*
D35*
%TO.N,Net-(J2-Pin_2)*%
X102806500Y-45148500D03*
%TO.N,Net-(J3-Pin_1)*%
X105336070Y-46924668D03*
%TO.N,I2S_DOUT*%
X100848197Y-35283418D03*
X99930949Y-37076651D03*
%TO.N,I2S_WCLK*%
X103632000Y-31685600D03*
X100789908Y-37935609D03*
%TO.N,Net-(U1-I2C_ADR0)*%
X112221518Y-36440817D03*
X109104052Y-39367546D03*
%TO.N,ENABLE*%
X94843600Y-31360000D03*
%TO.N,~{TRIGGER}*%
X93886931Y-35735397D03*
%TD*%
D37*
%TO.N,GND*%
X93503141Y-27903721D02*
X93018000Y-28388862D01*
X93018000Y-28388862D02*
X93018000Y-36685400D01*
X93375227Y-37042627D02*
X93375227Y-39466773D01*
X93018000Y-36685400D02*
X93375227Y-37042627D01*
X93375227Y-39466773D02*
X93218000Y-39624000D01*
D38*
%TO.N,Net-(Q1-B)*%
X96570800Y-36015200D02*
X96369500Y-36015200D01*
X96369500Y-36015200D02*
X95280000Y-37104700D01*
%TO.N,~{TRIGGER}*%
X94330000Y-39155000D02*
X94335800Y-39149200D01*
X94335800Y-39149200D02*
X94335800Y-36184266D01*
X94335800Y-36184266D02*
X93886931Y-35735397D01*
%TO.N,GND*%
X96613300Y-31632500D02*
X96613300Y-31489021D01*
X96613300Y-31489021D02*
X97242785Y-30859536D01*
X96067500Y-31957500D02*
X96392500Y-31632500D01*
X96392500Y-31632500D02*
X96613300Y-31632500D01*
%TO.N,+1V8*%
X96607500Y-32282500D02*
X96607500Y-32874772D01*
X96607500Y-32874772D02*
X96235168Y-33247104D01*
%TO.N,+3.3V*%
X95527500Y-32282500D02*
X95174700Y-32282500D01*
X95174700Y-32282500D02*
X94488000Y-32969200D01*
%TO.N,ENABLE*%
X94488000Y-31949200D02*
X94804700Y-31632500D01*
X94804700Y-31632500D02*
X95527500Y-31632500D01*
%TO.N,Net-(J2-Pin_3)*%
X108855000Y-46360000D02*
X108855000Y-46720000D01*
X106565000Y-49010000D02*
X104072000Y-49010000D01*
X108855000Y-46720000D02*
X106565000Y-49010000D01*
X104072000Y-49010000D02*
X104060000Y-49022000D01*
%TO.N,Net-(J3-Pin_1)*%
X100965000Y-41839000D02*
X100953510Y-41839000D01*
X100953510Y-41839000D02*
X100330000Y-42462510D01*
X100330000Y-42462510D02*
X100330000Y-42750000D01*
X100330000Y-42750000D02*
X94060000Y-49020000D01*
X94060000Y-49020000D02*
X94060000Y-49022000D01*
%TO.N,Net-(J2-Pin_1)*%
X113919000Y-46355000D02*
X113935000Y-46371000D01*
X113935000Y-46371000D02*
X113935000Y-49260000D01*
X113935000Y-49260000D02*
X111760000Y-51435000D01*
%TO.N,Net-(J2-Pin_3)*%
X108839000Y-46355000D02*
X108850000Y-46355000D01*
X108850000Y-46355000D02*
X108855000Y-46360000D01*
%TO.N,Net-(J2-Pin_2)*%
X109347000Y-41839000D02*
X109784000Y-41839000D01*
X110200000Y-45176000D02*
X111379000Y-46355000D01*
X109784000Y-41839000D02*
X110200000Y-42255000D01*
X110200000Y-42255000D02*
X110200000Y-45176000D01*
%TO.N,Net-(J3-Pin_1)*%
X97890000Y-41910000D02*
X99109200Y-40690800D01*
X99109200Y-40690800D02*
X100838000Y-40690800D01*
X100965000Y-40817800D02*
X100965000Y-41839000D01*
X100838000Y-40690800D02*
X100965000Y-40817800D01*
%TO.N,RIGHT*%
X97890000Y-39370000D02*
X96570800Y-38050800D01*
X96570800Y-38050800D02*
X96570800Y-37035200D01*
%TO.N,Net-(U1-~{RESET})*%
X99468947Y-38201600D02*
X98704400Y-37437053D01*
X99468947Y-38201600D02*
X99468947Y-38650942D01*
X98704400Y-37437053D02*
X98704400Y-37005200D01*
X99468947Y-38650942D02*
X100708005Y-39890000D01*
X97637600Y-37035200D02*
X98674400Y-37035200D01*
X100708005Y-39890000D02*
X103202500Y-39890000D01*
X98674400Y-37035200D02*
X98704400Y-37005200D01*
D37*
%TO.N,GND*%
X105562400Y-34493200D02*
X105359200Y-34290000D01*
X115104900Y-37498300D02*
X115104900Y-40313100D01*
X101693234Y-34349166D02*
X101701600Y-34340800D01*
D38*
X97298200Y-32117400D02*
X97434400Y-31981200D01*
D37*
X105562400Y-34493200D02*
X105308400Y-34747200D01*
X106057931Y-34493200D02*
X106324400Y-34759669D01*
X112894400Y-36969310D02*
X113311255Y-36552455D01*
X104016578Y-34544000D02*
X104233640Y-34326938D01*
X97425817Y-34266931D02*
X98704400Y-35545514D01*
X105308400Y-34747200D02*
X103733600Y-34747200D01*
X105308400Y-34747200D02*
X105308400Y-35235000D01*
X106324400Y-34759669D02*
X106324400Y-35232400D01*
X111912400Y-37951310D02*
X111912400Y-39221915D01*
X93722000Y-27813000D02*
X106045000Y-27813000D01*
X115104900Y-40313100D02*
X114554000Y-40864000D01*
X97434400Y-31051151D02*
X97434400Y-31981200D01*
X104698800Y-34340800D02*
X104749600Y-34290000D01*
X105562400Y-34493200D02*
X106057931Y-34493200D01*
X98704400Y-35545514D02*
X98704400Y-36045200D01*
X114688883Y-30581600D02*
X114681000Y-30589483D01*
X104292400Y-35232400D02*
X104292400Y-34747200D01*
X97242785Y-30859536D02*
X97434400Y-31051151D01*
D38*
X104114740Y-36940000D02*
X102215194Y-36940000D01*
D37*
X97351948Y-34340800D02*
X97425817Y-34266931D01*
X93218000Y-40076600D02*
X93218000Y-39624000D01*
X107442000Y-29210000D02*
X113317283Y-29210000D01*
D38*
X109982000Y-40009000D02*
X110998000Y-40009000D01*
D37*
X105359200Y-34290000D02*
X104749600Y-34290000D01*
X95780800Y-34340800D02*
X97351948Y-34340800D01*
X111912400Y-39221915D02*
X111125315Y-40009000D01*
X102463600Y-35147132D02*
X102463600Y-35181600D01*
D38*
X104390000Y-37215260D02*
X104114740Y-36940000D01*
D37*
X101693234Y-34376766D02*
X101693234Y-34349166D01*
X94157800Y-41016400D02*
X93218000Y-40076600D01*
X112894400Y-37463727D02*
X112894400Y-36969310D01*
X101693234Y-34376766D02*
X102463600Y-35147132D01*
X103530400Y-34544000D02*
X104016578Y-34544000D01*
D38*
X104390000Y-37702500D02*
X104390000Y-37215260D01*
D37*
X113311255Y-36552455D02*
X111912400Y-37951310D01*
X94157800Y-41016400D02*
X94389000Y-41247600D01*
D38*
X102215194Y-36940000D02*
X101573197Y-36298003D01*
D37*
X106045000Y-27813000D02*
X107442000Y-29210000D01*
X104292400Y-34747200D02*
X104749600Y-34290000D01*
X103022400Y-34340800D02*
X103327200Y-34340800D01*
X114681000Y-35182710D02*
X113311255Y-36552455D01*
X111125315Y-40009000D02*
X110998000Y-40009000D01*
X103022400Y-34340800D02*
X104698800Y-34340800D01*
X93503141Y-27903721D02*
X93503141Y-28031859D01*
D38*
X101573197Y-34496803D02*
X101573197Y-36298003D01*
D37*
X114681000Y-30589483D02*
X114681000Y-35182710D01*
X101701600Y-34340800D02*
X103022400Y-34340800D01*
X103733600Y-34747200D02*
X103530400Y-34544000D01*
X103327200Y-34340800D02*
X103530400Y-34544000D01*
X113317283Y-29210000D02*
X114688883Y-30581600D01*
D38*
X101693234Y-34376766D02*
X101573197Y-34496803D01*
%TO.N,+3.3VA*%
X105390000Y-41577500D02*
X105390000Y-42652000D01*
D37*
X112547400Y-42469000D02*
X111889600Y-43126800D01*
X105664000Y-45209497D02*
X105708861Y-45254358D01*
X111889600Y-43126800D02*
X111889600Y-43713400D01*
X105664000Y-43942000D02*
X105664000Y-42926000D01*
X105664000Y-43942000D02*
X105664000Y-45209497D01*
X112547400Y-42469000D02*
X111234500Y-42469000D01*
D38*
X105390000Y-42652000D02*
X105664000Y-42926000D01*
D37*
X111234500Y-42469000D02*
X111125000Y-42578500D01*
D38*
%TO.N,GNDA*%
X104890000Y-42740000D02*
X104704000Y-42926000D01*
D37*
X104470200Y-51460400D02*
X104521000Y-51511200D01*
X104267000Y-47057680D02*
X105088320Y-47879000D01*
X104267000Y-45212000D02*
X104267000Y-47057680D01*
X100965000Y-44590300D02*
X100965000Y-42799000D01*
X100965000Y-42799000D02*
X102052000Y-43886000D01*
X115087400Y-49804657D02*
X114655600Y-50236457D01*
X98253850Y-47714500D02*
X98253850Y-47301450D01*
X105088320Y-47879000D02*
X105664000Y-47879000D01*
X107539000Y-46004000D02*
X107539000Y-44099000D01*
X115087400Y-48895000D02*
X115087400Y-49804657D01*
X107539000Y-44099000D02*
X107696000Y-43942000D01*
X101956500Y-45568500D02*
X101956500Y-44545500D01*
X113893600Y-43713400D02*
X114630200Y-44450000D01*
X114655600Y-50236457D02*
X114655600Y-57581800D01*
X101956500Y-44545500D02*
X102616000Y-43886000D01*
X114630200Y-42240200D02*
X114554000Y-42164000D01*
X102052000Y-43886000D02*
X102616000Y-43886000D01*
D38*
X104890000Y-41577500D02*
X104890000Y-42740000D01*
D37*
X93980000Y-43688000D02*
X93980000Y-42494200D01*
X114630200Y-44450000D02*
X114630200Y-42240200D01*
X102386500Y-45998500D02*
X101956500Y-45568500D01*
X93472000Y-51460400D02*
X104470200Y-51460400D01*
X108204000Y-43942000D02*
X109347000Y-42799000D01*
X104704000Y-43942000D02*
X104704000Y-44775000D01*
X105664000Y-47879000D02*
X107539000Y-46004000D01*
X104704000Y-44775000D02*
X104267000Y-45212000D01*
X98253850Y-47301450D02*
X100965000Y-44590300D01*
X93980000Y-42494200D02*
X94157800Y-42316400D01*
X104267000Y-45212000D02*
X103480500Y-45998500D01*
X103480500Y-45998500D02*
X102386500Y-45998500D01*
X107696000Y-43942000D02*
X108204000Y-43942000D01*
X114630200Y-44450000D02*
X114145000Y-44450000D01*
X112849600Y-43713400D02*
X113893600Y-43713400D01*
X104704000Y-42926000D02*
X104704000Y-43942000D01*
%TO.N,+1V8*%
X103383640Y-36179575D02*
X103345665Y-36141600D01*
X97128496Y-33247104D02*
X97434400Y-32941200D01*
X103345665Y-36141600D02*
X102768400Y-36141600D01*
D38*
X97260600Y-32767400D02*
X97434400Y-32941200D01*
D37*
X96235168Y-33247104D02*
X97128496Y-33247104D01*
D38*
X104315200Y-36192400D02*
X104292400Y-36192400D01*
X104890000Y-37702500D02*
X104890000Y-36767200D01*
D37*
X104292400Y-36192400D02*
X103396465Y-36192400D01*
D38*
X104890000Y-36767200D02*
X104315200Y-36192400D01*
D37*
X103396465Y-36192400D02*
X103383640Y-36179575D01*
D38*
%TO.N,+3.3V*%
X105308400Y-36195000D02*
X106321800Y-36195000D01*
D37*
X97637600Y-35745201D02*
X97637600Y-36015200D01*
X97180199Y-35287800D02*
X97637600Y-35745201D01*
D38*
X105390000Y-37702500D02*
X105390000Y-36276600D01*
D37*
X112979200Y-35204400D02*
X112979200Y-35305826D01*
X111288653Y-36171600D02*
X112255853Y-35204400D01*
X113921000Y-38733000D02*
X113944400Y-38709600D01*
D38*
X109984000Y-37082000D02*
X109982000Y-37080000D01*
X106321800Y-36195000D02*
X106324400Y-36192400D01*
D37*
X110998000Y-36171600D02*
X111288653Y-36171600D01*
X112801400Y-38733000D02*
X113921000Y-38733000D01*
X106926501Y-36192400D02*
X106324400Y-36192400D01*
X110998000Y-37082000D02*
X110998000Y-36171600D01*
X93718000Y-30234000D02*
X93718000Y-32330256D01*
X94488000Y-32969200D02*
X94488000Y-33221200D01*
X93718000Y-32330256D02*
X94356944Y-32969200D01*
X94356944Y-32969200D02*
X94488000Y-32969200D01*
X94488000Y-33221200D02*
X93827600Y-33881600D01*
D38*
X110998000Y-37082000D02*
X109984000Y-37082000D01*
D37*
X93827600Y-33881600D02*
X94361600Y-33881600D01*
X94361600Y-33881600D02*
X94820800Y-34340800D01*
X94820800Y-34650799D02*
X95457801Y-35287800D01*
D38*
X105390000Y-36276600D02*
X105308400Y-36195000D01*
D37*
X95457801Y-35287800D02*
X97180199Y-35287800D01*
X94820800Y-34340800D02*
X94820800Y-34650799D01*
X112255853Y-35204400D02*
X112979200Y-35204400D01*
D38*
X109982000Y-36171600D02*
X110998000Y-36171600D01*
D37*
X109982000Y-36171600D02*
X109982000Y-37080000D01*
X94742000Y-29210000D02*
X93718000Y-30234000D01*
X107246600Y-35872301D02*
X106926501Y-36192400D01*
D38*
%TO.N,Net-(U1-IN2L(P))*%
X103890000Y-42668000D02*
X103632000Y-42926000D01*
X103890000Y-41577500D02*
X103890000Y-42668000D01*
%TO.N,Net-(J2-Pin_2)*%
X108385000Y-41839000D02*
X108331000Y-41785000D01*
X103632000Y-44323000D02*
X102806500Y-45148500D01*
X109347000Y-41839000D02*
X108385000Y-41839000D01*
X103632000Y-43886000D02*
X103632000Y-44323000D01*
%TO.N,Net-(U1-IN3L(M))*%
X102616000Y-42926000D02*
X103202500Y-42339500D01*
X103202500Y-42339500D02*
X103202500Y-40890000D01*
%TO.N,Net-(U1-IN2R(P))*%
X106390000Y-41577500D02*
X106390000Y-42664000D01*
X106390000Y-42664000D02*
X106680000Y-42954000D01*
%TO.N,Net-(J3-Pin_1)*%
X100965000Y-41839000D02*
X101927000Y-41839000D01*
X106633861Y-45637506D02*
X106633861Y-43960139D01*
X101927000Y-41839000D02*
X101981000Y-41785000D01*
X106043367Y-46228000D02*
X106633861Y-45637506D01*
X105336070Y-46924668D02*
X106032738Y-46228000D01*
X106633861Y-43960139D02*
X106680000Y-43914000D01*
X106032738Y-46228000D02*
X106043367Y-46228000D01*
D37*
%TO.N,Net-(FB1-Pad1)*%
X112801400Y-40640000D02*
X112547400Y-40894000D01*
X112801400Y-39753000D02*
X112801400Y-40640000D01*
D38*
%TO.N,I2C_SDA*%
X110710004Y-31590400D02*
X111353600Y-32233996D01*
X107543600Y-32867600D02*
X108820800Y-31590400D01*
X108871600Y-34195600D02*
X108871600Y-36595900D01*
X108871600Y-36595900D02*
X107077500Y-38390000D01*
X108820800Y-31590400D02*
X110710004Y-31590400D01*
X107543600Y-32867600D02*
X108871600Y-34195600D01*
X111353600Y-34796000D02*
X110998000Y-35151600D01*
X111353600Y-32233996D02*
X111353600Y-34796000D01*
%TO.N,I2C_SCL*%
X110083600Y-32918400D02*
X109321600Y-33680400D01*
X109321600Y-37409568D02*
X107841168Y-38890000D01*
X110083600Y-35050000D02*
X109982000Y-35151600D01*
X110083600Y-32867600D02*
X110083600Y-35050000D01*
X109321600Y-33680400D02*
X109321600Y-37409568D01*
X107841168Y-38890000D02*
X107077500Y-38890000D01*
X110363000Y-33147000D02*
X110083600Y-32867600D01*
X110083600Y-32867600D02*
X110083600Y-32918400D01*
%TO.N,I2S_BCLK*%
X98175000Y-30103000D02*
X97282000Y-29210000D01*
X99673197Y-35171294D02*
X98175000Y-33673097D01*
X102194800Y-38315197D02*
X99673197Y-35793594D01*
X103202500Y-38390000D02*
X102194800Y-38390000D01*
X99673197Y-35793594D02*
X99673197Y-35171294D01*
X98175000Y-33673097D02*
X98175000Y-30103000D01*
X102194800Y-38390000D02*
X102194800Y-38315197D01*
%TO.N,I2S_MCLK*%
X103890000Y-37702500D02*
X102218499Y-37702500D01*
X102218499Y-37702500D02*
X100123197Y-35607198D01*
X100123197Y-34984898D02*
X98625000Y-33486701D01*
X100123197Y-35607198D02*
X100123197Y-34984898D01*
X99822000Y-29210000D02*
X99874005Y-29210000D01*
X98625000Y-30407000D02*
X99822000Y-29210000D01*
X98625000Y-33486701D02*
X98625000Y-30407000D01*
%TO.N,I2S_DOUT*%
X100634800Y-35070021D02*
X100848197Y-35283418D01*
X101244400Y-33274000D02*
X100634800Y-33883600D01*
X100634800Y-33883600D02*
X100634800Y-35070021D01*
X99930949Y-37076651D02*
X99930949Y-38476548D01*
X100634800Y-30937200D02*
X100634800Y-31800800D01*
X100844401Y-39390000D02*
X103202500Y-39390000D01*
X101244400Y-32410400D02*
X101244400Y-33274000D01*
X100634800Y-31800800D02*
X101244400Y-32410400D01*
X102362000Y-29210000D02*
X100634800Y-30937200D01*
X99930949Y-38476548D02*
X100844401Y-39390000D01*
%TO.N,I2S_WCLK*%
X100789908Y-37935609D02*
X101744299Y-38890000D01*
X103632000Y-31685600D02*
X103632000Y-30480000D01*
X103632000Y-30480000D02*
X104902000Y-29210000D01*
X101744299Y-38890000D02*
X103202500Y-38890000D01*
%TO.N,Net-(U1-MICBIAS1)*%
X102356000Y-40390000D02*
X101981000Y-40765000D01*
X103202500Y-40390000D02*
X102356000Y-40390000D01*
%TO.N,Net-(U1-MICBIAS2)*%
X107956000Y-40390000D02*
X108331000Y-40765000D01*
X107077500Y-40390000D02*
X107956000Y-40390000D01*
%TO.N,Net-(U1-I2C_ADR1)*%
X109347000Y-38100000D02*
X109982000Y-38100000D01*
X107077500Y-39390000D02*
X108057000Y-39390000D01*
X108057000Y-39390000D02*
X109347000Y-38100000D01*
X109982000Y-38989000D02*
X109982000Y-38100000D01*
%TO.N,Net-(U1-I2C_ADR0)*%
X107077500Y-39890000D02*
X108581598Y-39890000D01*
X112221518Y-36829020D02*
X110998000Y-38052538D01*
X110998000Y-38102000D02*
X110998000Y-38989000D01*
X112221518Y-36440817D02*
X112221518Y-36829020D01*
X108581598Y-39890000D02*
X109104052Y-39367546D01*
X110998000Y-38052538D02*
X110998000Y-38989000D01*
%TO.N,ENABLE*%
X94488000Y-31292800D02*
X94538800Y-31242000D01*
X94656800Y-31360000D02*
X94843600Y-31360000D01*
X94538800Y-31242000D02*
X94656800Y-31360000D01*
X94488000Y-31949200D02*
X94488000Y-31292800D01*
%TO.N,GPIO2*%
X107478299Y-35100396D02*
X107971600Y-35100396D01*
X107254708Y-36940000D02*
X106165260Y-36940000D01*
X105890000Y-37215260D02*
X105890000Y-37702500D01*
X107971600Y-35100396D02*
X107971600Y-36223108D01*
X105245503Y-32867600D02*
X107478299Y-35100396D01*
X107971600Y-36223108D02*
X107254708Y-36940000D01*
X106165260Y-36940000D02*
X105890000Y-37215260D01*
X105003600Y-32867600D02*
X105245503Y-32867600D01*
%TO.N,Net-(U1-IN3R(M))*%
X107077500Y-42363500D02*
X107696000Y-42982000D01*
X107077500Y-40890000D02*
X107077500Y-42363500D01*
%TO.N,GPIO1*%
X106273600Y-33259301D02*
X106273600Y-31953200D01*
X110896400Y-31140400D02*
X112623600Y-32867600D01*
X106273600Y-31953200D02*
X107086400Y-31140400D01*
X108421600Y-34914000D02*
X107746800Y-34239200D01*
X107128604Y-37702500D02*
X108421600Y-36409504D01*
X107253499Y-34239200D02*
X106273600Y-33259301D01*
X107746800Y-34239200D02*
X107253499Y-34239200D01*
X106390000Y-37702500D02*
X107128604Y-37702500D01*
X107086400Y-31140400D02*
X110896400Y-31140400D01*
X108421600Y-36409504D02*
X108421600Y-34914000D01*
%TO.N,~{TRIGGER}*%
X93827600Y-34901600D02*
X93827600Y-35676066D01*
X93827600Y-35676066D02*
X93886931Y-35735397D01*
%TO.N,Net-(Q1-B)*%
X96723200Y-35862800D02*
X96577400Y-35862800D01*
%TD*%
%TA.AperFunction,Conductor*%
%TO.N,GNDA*%
G36*
X97075127Y-40254136D02*
G01*
X97092190Y-40267173D01*
X97163438Y-40332124D01*
X97163440Y-40332125D01*
X97163441Y-40332126D01*
X97352595Y-40449245D01*
X97352601Y-40449248D01*
X97405841Y-40469873D01*
X97461242Y-40512446D01*
X97484833Y-40578213D01*
X97469122Y-40646293D01*
X97419098Y-40695072D01*
X97361047Y-40709500D01*
X97006739Y-40709500D01*
X96938608Y-40719426D01*
X96833514Y-40770803D01*
X96750803Y-40853514D01*
X96699426Y-40958608D01*
X96689500Y-41026739D01*
X96689500Y-42793260D01*
X96699426Y-42861391D01*
X96750803Y-42966485D01*
X96833514Y-43049196D01*
X96833515Y-43049196D01*
X96833517Y-43049198D01*
X96938607Y-43100573D01*
X96972673Y-43105536D01*
X97006739Y-43110500D01*
X97006740Y-43110500D01*
X98773261Y-43110500D01*
X98795971Y-43107191D01*
X98841393Y-43100573D01*
X98946483Y-43049198D01*
X99029198Y-42966483D01*
X99080573Y-42861393D01*
X99090500Y-42793260D01*
X99090500Y-41433321D01*
X99110185Y-41366282D01*
X99126819Y-41345640D01*
X99269840Y-41202619D01*
X99331163Y-41169134D01*
X99357521Y-41166300D01*
X100333343Y-41166300D01*
X100400382Y-41185985D01*
X100446137Y-41238789D01*
X100456081Y-41307947D01*
X100432610Y-41364610D01*
X100360073Y-41461507D01*
X100360069Y-41461514D01*
X100314712Y-41583125D01*
X100310781Y-41593665D01*
X100304500Y-41652085D01*
X100304500Y-41652093D01*
X100304500Y-41764188D01*
X100284815Y-41831227D01*
X100268181Y-41851869D01*
X100038036Y-42082015D01*
X99949506Y-42170544D01*
X99949504Y-42170547D01*
X99886905Y-42278973D01*
X99886905Y-42278974D01*
X99854668Y-42399284D01*
X99854500Y-42399910D01*
X99854500Y-42501678D01*
X99834815Y-42568717D01*
X99818181Y-42589359D01*
X94713848Y-47693691D01*
X94652525Y-47727176D01*
X94582833Y-47722192D01*
X94557276Y-47709112D01*
X94510237Y-47677681D01*
X94510228Y-47677676D01*
X94337251Y-47606027D01*
X94337243Y-47606025D01*
X94153620Y-47569500D01*
X94153616Y-47569500D01*
X93966384Y-47569500D01*
X93966379Y-47569500D01*
X93782756Y-47606025D01*
X93782748Y-47606027D01*
X93609771Y-47677676D01*
X93609762Y-47677681D01*
X93454092Y-47781697D01*
X93454088Y-47781700D01*
X93321700Y-47914088D01*
X93321697Y-47914092D01*
X93217681Y-48069762D01*
X93217676Y-48069771D01*
X93146027Y-48242748D01*
X93146025Y-48242756D01*
X93109500Y-48426379D01*
X93109500Y-49613620D01*
X93146025Y-49797243D01*
X93146027Y-49797251D01*
X93217676Y-49970228D01*
X93217681Y-49970237D01*
X93321697Y-50125907D01*
X93321700Y-50125911D01*
X93454088Y-50258299D01*
X93454092Y-50258302D01*
X93609762Y-50362318D01*
X93609768Y-50362321D01*
X93609769Y-50362322D01*
X93782749Y-50433973D01*
X93966379Y-50470499D01*
X93966383Y-50470500D01*
X93966384Y-50470500D01*
X94153617Y-50470500D01*
X94153618Y-50470499D01*
X94337251Y-50433973D01*
X94510231Y-50362322D01*
X94665908Y-50258302D01*
X94798302Y-50125908D01*
X94902322Y-49970231D01*
X94973973Y-49797251D01*
X95010500Y-49613616D01*
X95010500Y-48793320D01*
X95030185Y-48726281D01*
X95046815Y-48705643D01*
X95397820Y-48354638D01*
X95459142Y-48321154D01*
X95528834Y-48326138D01*
X95584767Y-48368010D01*
X95609184Y-48433474D01*
X95609500Y-48442320D01*
X95609500Y-49613620D01*
X95646025Y-49797243D01*
X95646027Y-49797251D01*
X95717676Y-49970228D01*
X95717681Y-49970237D01*
X95821697Y-50125907D01*
X95821700Y-50125911D01*
X95954088Y-50258299D01*
X95954092Y-50258302D01*
X96109762Y-50362318D01*
X96109768Y-50362321D01*
X96109769Y-50362322D01*
X96282749Y-50433973D01*
X96466379Y-50470499D01*
X96466383Y-50470500D01*
X96466384Y-50470500D01*
X96653617Y-50470500D01*
X96653618Y-50470499D01*
X96837251Y-50433973D01*
X97010231Y-50362322D01*
X97165908Y-50258302D01*
X97298302Y-50125908D01*
X97402322Y-49970231D01*
X97473973Y-49797251D01*
X97510500Y-49613616D01*
X97510500Y-48936228D01*
X98209500Y-48936228D01*
X98209500Y-49103771D01*
X98242182Y-49268074D01*
X98242184Y-49268082D01*
X98306295Y-49422860D01*
X98399373Y-49562162D01*
X98517837Y-49680626D01*
X98610494Y-49742537D01*
X98657137Y-49773703D01*
X98811918Y-49837816D01*
X98976228Y-49870499D01*
X98976232Y-49870500D01*
X98976233Y-49870500D01*
X99143768Y-49870500D01*
X99143769Y-49870499D01*
X99308082Y-49837816D01*
X99462863Y-49773703D01*
X99602162Y-49680626D01*
X99720626Y-49562162D01*
X99813703Y-49422863D01*
X99877816Y-49268082D01*
X99910500Y-49103767D01*
X99910500Y-48936233D01*
X99877816Y-48771918D01*
X99813703Y-48617137D01*
X99782537Y-48570494D01*
X99720626Y-48477837D01*
X99669168Y-48426379D01*
X100609500Y-48426379D01*
X100609500Y-49613620D01*
X100646025Y-49797243D01*
X100646027Y-49797251D01*
X100717676Y-49970228D01*
X100717681Y-49970237D01*
X100821697Y-50125907D01*
X100821700Y-50125911D01*
X100954088Y-50258299D01*
X100954092Y-50258302D01*
X101109762Y-50362318D01*
X101109768Y-50362321D01*
X101109769Y-50362322D01*
X101282749Y-50433973D01*
X101466379Y-50470499D01*
X101466383Y-50470500D01*
X101466384Y-50470500D01*
X101653617Y-50470500D01*
X101653618Y-50470499D01*
X101837251Y-50433973D01*
X102010231Y-50362322D01*
X102165908Y-50258302D01*
X102298302Y-50125908D01*
X102402322Y-49970231D01*
X102473973Y-49797251D01*
X102510500Y-49613616D01*
X102510500Y-48426384D01*
X102473973Y-48242749D01*
X102402322Y-48069769D01*
X102402321Y-48069768D01*
X102402318Y-48069762D01*
X102298302Y-47914092D01*
X102298299Y-47914088D01*
X102165911Y-47781700D01*
X102165907Y-47781697D01*
X102010237Y-47677681D01*
X102010228Y-47677676D01*
X101837251Y-47606027D01*
X101837243Y-47606025D01*
X101653620Y-47569500D01*
X101653616Y-47569500D01*
X101466384Y-47569500D01*
X101466379Y-47569500D01*
X101282756Y-47606025D01*
X101282748Y-47606027D01*
X101109771Y-47677676D01*
X101109762Y-47677681D01*
X100954092Y-47781697D01*
X100954088Y-47781700D01*
X100821700Y-47914088D01*
X100821697Y-47914092D01*
X100717681Y-48069762D01*
X100717676Y-48069771D01*
X100646027Y-48242748D01*
X100646025Y-48242756D01*
X100609500Y-48426379D01*
X99669168Y-48426379D01*
X99602162Y-48359373D01*
X99462860Y-48266295D01*
X99308082Y-48202184D01*
X99308074Y-48202182D01*
X99143771Y-48169500D01*
X99143767Y-48169500D01*
X98976233Y-48169500D01*
X98976228Y-48169500D01*
X98811925Y-48202182D01*
X98811917Y-48202184D01*
X98657139Y-48266295D01*
X98517837Y-48359373D01*
X98399373Y-48477837D01*
X98306295Y-48617139D01*
X98242184Y-48771917D01*
X98242182Y-48771925D01*
X98209500Y-48936228D01*
X97510500Y-48936228D01*
X97510500Y-48426384D01*
X97473973Y-48242749D01*
X97402322Y-48069769D01*
X97402321Y-48069768D01*
X97402318Y-48069762D01*
X97298302Y-47914092D01*
X97298299Y-47914088D01*
X97165911Y-47781700D01*
X97165907Y-47781697D01*
X97010237Y-47677681D01*
X97010228Y-47677676D01*
X96837251Y-47606027D01*
X96837243Y-47606025D01*
X96653620Y-47569500D01*
X96653616Y-47569500D01*
X96482320Y-47569500D01*
X96415281Y-47549815D01*
X96369526Y-47497011D01*
X96359582Y-47427853D01*
X96388607Y-47364297D01*
X96394639Y-47357819D01*
X97298681Y-46453777D01*
X100271363Y-43481095D01*
X100332680Y-43447614D01*
X100402372Y-43452598D01*
X100422159Y-43462048D01*
X100538804Y-43531031D01*
X100694089Y-43576145D01*
X100715000Y-43577789D01*
X100715000Y-43067385D01*
X100731612Y-43005386D01*
X100773095Y-42933536D01*
X100805500Y-42812601D01*
X100805500Y-42710831D01*
X100825185Y-42643792D01*
X100841819Y-42623150D01*
X100879650Y-42585319D01*
X100940973Y-42551834D01*
X100967331Y-42549000D01*
X101091000Y-42549000D01*
X101158039Y-42568685D01*
X101203794Y-42621489D01*
X101215000Y-42673000D01*
X101215000Y-43577789D01*
X101235910Y-43576145D01*
X101391195Y-43531031D01*
X101530374Y-43448721D01*
X101530383Y-43448714D01*
X101644714Y-43334383D01*
X101644721Y-43334374D01*
X101727030Y-43195196D01*
X101729275Y-43187470D01*
X101766877Y-43128582D01*
X101830347Y-43099370D01*
X101899534Y-43109111D01*
X101952472Y-43154711D01*
X101964536Y-43178722D01*
X101975709Y-43208678D01*
X101980693Y-43278370D01*
X101947214Y-43339688D01*
X101936283Y-43350619D01*
X101936277Y-43350627D01*
X101853968Y-43489804D01*
X101811496Y-43636000D01*
X102742000Y-43636000D01*
X102809039Y-43655685D01*
X102854794Y-43708489D01*
X102866000Y-43760000D01*
X102866000Y-44012000D01*
X102846315Y-44079039D01*
X102793511Y-44124794D01*
X102742000Y-44136000D01*
X101811496Y-44136000D01*
X101853968Y-44282195D01*
X101936278Y-44421374D01*
X101936285Y-44421383D01*
X102050616Y-44535714D01*
X102050625Y-44535721D01*
X102126567Y-44580633D01*
X102174251Y-44631702D01*
X102186754Y-44700444D01*
X102168440Y-44753337D01*
X102126045Y-44820807D01*
X102070185Y-44980443D01*
X102051251Y-45148497D01*
X102051251Y-45148502D01*
X102070185Y-45316556D01*
X102126045Y-45476194D01*
X102126047Y-45476197D01*
X102216018Y-45619384D01*
X102216023Y-45619390D01*
X102335609Y-45738976D01*
X102335615Y-45738981D01*
X102478802Y-45828952D01*
X102478805Y-45828954D01*
X102478809Y-45828955D01*
X102478810Y-45828956D01*
X102480588Y-45829578D01*
X102638443Y-45884814D01*
X102806497Y-45903749D01*
X102806500Y-45903749D01*
X102806503Y-45903749D01*
X102974556Y-45884814D01*
X102974559Y-45884813D01*
X103134190Y-45828956D01*
X103134192Y-45828954D01*
X103134194Y-45828954D01*
X103134197Y-45828952D01*
X103277384Y-45738981D01*
X103277385Y-45738980D01*
X103277390Y-45738977D01*
X103396977Y-45619390D01*
X103424929Y-45574905D01*
X103486952Y-45476197D01*
X103486954Y-45476194D01*
X103486954Y-45476192D01*
X103486956Y-45476190D01*
X103542813Y-45316559D01*
X103542813Y-45316558D01*
X103542814Y-45316556D01*
X103561749Y-45148502D01*
X103561749Y-45148501D01*
X103561749Y-45148497D01*
X103560051Y-45133433D01*
X103572104Y-45064612D01*
X103595587Y-45031870D01*
X103999592Y-44627866D01*
X104060913Y-44594383D01*
X104130605Y-44599367D01*
X104163266Y-44617566D01*
X104168617Y-44621716D01*
X104307804Y-44704031D01*
X104454000Y-44746504D01*
X104454000Y-42800000D01*
X104473685Y-42732961D01*
X104526489Y-42687206D01*
X104578000Y-42676000D01*
X104809009Y-42676000D01*
X104876048Y-42695685D01*
X104921803Y-42748489D01*
X104928781Y-42767898D01*
X104946905Y-42835536D01*
X104946906Y-42835537D01*
X104949009Y-42843386D01*
X104947336Y-42843834D01*
X104954000Y-42877329D01*
X104954000Y-44631507D01*
X104934315Y-44698546D01*
X104925855Y-44710169D01*
X104914728Y-44723726D01*
X104914723Y-44723734D01*
X104826465Y-44888855D01*
X104772114Y-45068024D01*
X104772113Y-45068026D01*
X104753762Y-45254358D01*
X104772113Y-45440689D01*
X104772114Y-45440691D01*
X104826465Y-45619860D01*
X104914723Y-45784981D01*
X104914725Y-45784984D01*
X105033503Y-45929715D01*
X105124061Y-46004034D01*
X105163395Y-46061780D01*
X105165266Y-46131624D01*
X105129078Y-46191393D01*
X105086351Y-46216928D01*
X105008383Y-46244210D01*
X105008372Y-46244215D01*
X104865185Y-46334186D01*
X104865179Y-46334191D01*
X104745593Y-46453777D01*
X104745588Y-46453783D01*
X104655617Y-46596970D01*
X104655615Y-46596973D01*
X104599755Y-46756611D01*
X104580821Y-46924665D01*
X104580821Y-46924670D01*
X104599755Y-47092724D01*
X104655615Y-47252362D01*
X104655617Y-47252365D01*
X104745588Y-47395552D01*
X104745593Y-47395558D01*
X104865179Y-47515144D01*
X104865185Y-47515149D01*
X105008372Y-47605120D01*
X105008375Y-47605122D01*
X105008379Y-47605123D01*
X105008380Y-47605124D01*
X105080983Y-47630528D01*
X105168013Y-47660982D01*
X105336067Y-47679917D01*
X105336070Y-47679917D01*
X105336073Y-47679917D01*
X105504126Y-47660982D01*
X105504129Y-47660981D01*
X105663760Y-47605124D01*
X105663762Y-47605122D01*
X105663764Y-47605122D01*
X105663767Y-47605120D01*
X105806954Y-47515149D01*
X105806955Y-47515148D01*
X105806960Y-47515145D01*
X105926547Y-47395558D01*
X105950260Y-47357819D01*
X106016522Y-47252365D01*
X106016524Y-47252362D01*
X106016524Y-47252360D01*
X106016526Y-47252358D01*
X106072383Y-47092727D01*
X106072383Y-47092726D01*
X106072384Y-47092724D01*
X106091319Y-46924670D01*
X106091319Y-46924669D01*
X106091319Y-46924665D01*
X106089621Y-46909601D01*
X106101674Y-46840780D01*
X106125157Y-46808038D01*
X106298641Y-46634554D01*
X106324320Y-46614851D01*
X106335331Y-46608495D01*
X106915618Y-46028205D01*
X106915623Y-46028202D01*
X106925823Y-46018001D01*
X106925825Y-46018001D01*
X107014356Y-45929470D01*
X107076956Y-45821042D01*
X107080020Y-45809608D01*
X107109362Y-45700107D01*
X107109362Y-45574905D01*
X107109362Y-45567310D01*
X107109361Y-45567292D01*
X107109361Y-44792571D01*
X107129046Y-44725532D01*
X107181850Y-44679777D01*
X107251008Y-44669833D01*
X107267955Y-44673494D01*
X107425089Y-44719145D01*
X107446000Y-44720789D01*
X107946000Y-44720789D01*
X107966910Y-44719145D01*
X108122195Y-44674031D01*
X108261374Y-44591721D01*
X108261383Y-44591714D01*
X108375714Y-44477383D01*
X108375721Y-44477374D01*
X108458031Y-44338195D01*
X108500504Y-44192000D01*
X107946000Y-44192000D01*
X107946000Y-44720789D01*
X107446000Y-44720789D01*
X107446000Y-43816000D01*
X107465685Y-43748961D01*
X107518489Y-43703206D01*
X107570000Y-43692000D01*
X108500504Y-43692000D01*
X108458031Y-43545804D01*
X108375721Y-43406625D01*
X108375714Y-43406616D01*
X108364791Y-43395693D01*
X108331306Y-43334370D01*
X108336289Y-43264681D01*
X108350219Y-43227335D01*
X108352002Y-43219790D01*
X108355335Y-43220577D01*
X108375999Y-43170401D01*
X108433310Y-43130435D01*
X108503130Y-43127798D01*
X108563292Y-43163328D01*
X108580117Y-43189000D01*
X108580997Y-43188480D01*
X108667278Y-43334374D01*
X108667285Y-43334383D01*
X108781616Y-43448714D01*
X108781625Y-43448721D01*
X108920804Y-43531031D01*
X109076089Y-43576145D01*
X109097000Y-43577789D01*
X109097000Y-42673000D01*
X109116685Y-42605961D01*
X109169489Y-42560206D01*
X109221000Y-42549000D01*
X109473000Y-42549000D01*
X109540039Y-42568685D01*
X109585794Y-42621489D01*
X109597000Y-42673000D01*
X109597000Y-43577790D01*
X109599514Y-43580115D01*
X109659152Y-43592645D01*
X109708907Y-43641698D01*
X109724500Y-43701897D01*
X109724500Y-45238600D01*
X109725561Y-45246658D01*
X109722787Y-45247023D01*
X109721451Y-45303265D01*
X109682290Y-45361129D01*
X109618063Y-45388635D01*
X109549160Y-45377052D01*
X109538060Y-45370940D01*
X109392404Y-45280754D01*
X109392398Y-45280752D01*
X109184940Y-45200382D01*
X108966243Y-45159500D01*
X108743757Y-45159500D01*
X108525060Y-45200382D01*
X108464028Y-45224026D01*
X108317601Y-45280752D01*
X108317595Y-45280754D01*
X108128439Y-45397874D01*
X108128437Y-45397876D01*
X107964020Y-45547761D01*
X107829943Y-45725308D01*
X107829938Y-45725316D01*
X107730775Y-45924461D01*
X107730769Y-45924476D01*
X107669885Y-46138462D01*
X107669884Y-46138464D01*
X107649357Y-46359999D01*
X107649357Y-46360000D01*
X107669884Y-46581535D01*
X107669885Y-46581537D01*
X107730769Y-46795523D01*
X107730775Y-46795538D01*
X107816071Y-46966834D01*
X107828332Y-47035620D01*
X107801459Y-47100115D01*
X107792752Y-47109787D01*
X106404360Y-48498181D01*
X106343037Y-48531666D01*
X106316679Y-48534500D01*
X105133536Y-48534500D01*
X105066497Y-48514815D01*
X105020742Y-48462011D01*
X105012693Y-48432159D01*
X105011689Y-48432359D01*
X104978657Y-48266297D01*
X104973973Y-48242749D01*
X104902322Y-48069769D01*
X104902321Y-48069768D01*
X104902318Y-48069762D01*
X104798302Y-47914092D01*
X104798299Y-47914088D01*
X104665911Y-47781700D01*
X104665907Y-47781697D01*
X104510237Y-47677681D01*
X104510228Y-47677676D01*
X104337251Y-47606027D01*
X104337243Y-47606025D01*
X104153620Y-47569500D01*
X104153616Y-47569500D01*
X103966384Y-47569500D01*
X103966379Y-47569500D01*
X103782756Y-47606025D01*
X103782748Y-47606027D01*
X103609771Y-47677676D01*
X103609762Y-47677681D01*
X103454092Y-47781697D01*
X103454088Y-47781700D01*
X103321700Y-47914088D01*
X103321697Y-47914092D01*
X103217681Y-48069762D01*
X103217676Y-48069771D01*
X103146027Y-48242748D01*
X103146025Y-48242756D01*
X103109500Y-48426379D01*
X103109500Y-49613620D01*
X103146025Y-49797243D01*
X103146027Y-49797251D01*
X103217676Y-49970228D01*
X103217681Y-49970237D01*
X103321697Y-50125907D01*
X103321700Y-50125911D01*
X103454088Y-50258299D01*
X103454092Y-50258302D01*
X103609762Y-50362318D01*
X103609768Y-50362321D01*
X103609769Y-50362322D01*
X103782749Y-50433973D01*
X103966379Y-50470499D01*
X103966383Y-50470500D01*
X103966384Y-50470500D01*
X104153617Y-50470500D01*
X104153618Y-50470499D01*
X104337251Y-50433973D01*
X104510231Y-50362322D01*
X104665908Y-50258302D01*
X104798302Y-50125908D01*
X104902322Y-49970231D01*
X104973973Y-49797251D01*
X105010500Y-49613616D01*
X105010500Y-49609500D01*
X105030185Y-49542461D01*
X105082989Y-49496706D01*
X105134500Y-49485500D01*
X106627599Y-49485500D01*
X106627601Y-49485500D01*
X106748536Y-49453095D01*
X106856964Y-49390495D01*
X108650639Y-47596818D01*
X108711962Y-47563334D01*
X108738320Y-47560500D01*
X108966241Y-47560500D01*
X108966243Y-47560500D01*
X109184940Y-47519618D01*
X109392401Y-47439247D01*
X109581562Y-47322124D01*
X109745981Y-47172236D01*
X109880058Y-46994689D01*
X109979229Y-46795528D01*
X110005734Y-46702371D01*
X110043013Y-46643278D01*
X110106323Y-46613721D01*
X110175562Y-46623083D01*
X110228749Y-46668393D01*
X110244266Y-46702372D01*
X110270769Y-46795523D01*
X110270775Y-46795538D01*
X110369938Y-46994683D01*
X110369943Y-46994691D01*
X110504020Y-47172238D01*
X110668437Y-47322123D01*
X110668439Y-47322125D01*
X110857595Y-47439245D01*
X110857596Y-47439245D01*
X110857599Y-47439247D01*
X111065060Y-47519618D01*
X111283757Y-47560500D01*
X111283759Y-47560500D01*
X111506241Y-47560500D01*
X111506243Y-47560500D01*
X111724940Y-47519618D01*
X111932401Y-47439247D01*
X112121562Y-47322124D01*
X112285981Y-47172236D01*
X112420058Y-46994689D01*
X112499500Y-46835149D01*
X112547003Y-46783912D01*
X112614666Y-46766491D01*
X112681006Y-46788417D01*
X112724961Y-46842728D01*
X112734500Y-46890421D01*
X112734500Y-47243260D01*
X112744426Y-47311391D01*
X112795803Y-47416485D01*
X112878514Y-47499196D01*
X112878515Y-47499196D01*
X112878517Y-47499198D01*
X112983607Y-47550573D01*
X113017673Y-47555536D01*
X113051739Y-47560500D01*
X113051740Y-47560500D01*
X113335500Y-47560500D01*
X113402539Y-47580185D01*
X113448294Y-47632989D01*
X113459500Y-47684500D01*
X113459500Y-49011678D01*
X113439815Y-49078717D01*
X113423181Y-49099359D01*
X112182575Y-50339964D01*
X112121252Y-50373449D01*
X112068323Y-50371788D01*
X112068091Y-50373030D01*
X112062459Y-50371977D01*
X112062456Y-50371976D01*
X111861976Y-50334500D01*
X111658024Y-50334500D01*
X111457544Y-50371976D01*
X111457541Y-50371976D01*
X111457541Y-50371977D01*
X111267364Y-50445651D01*
X111267357Y-50445655D01*
X111093960Y-50553017D01*
X111093958Y-50553019D01*
X110943237Y-50690418D01*
X110820327Y-50853178D01*
X110729422Y-51035739D01*
X110729417Y-51035752D01*
X110713266Y-51092518D01*
X110675986Y-51151611D01*
X110612676Y-51181168D01*
X110543437Y-51171806D01*
X110490251Y-51126496D01*
X110470004Y-51059624D01*
X110470000Y-51058583D01*
X110470000Y-50637172D01*
X110469999Y-50637155D01*
X110463598Y-50577627D01*
X110463596Y-50577620D01*
X110413354Y-50442913D01*
X110413350Y-50442906D01*
X110327190Y-50327812D01*
X110327187Y-50327809D01*
X110212093Y-50241649D01*
X110212086Y-50241645D01*
X110077379Y-50191403D01*
X110077372Y-50191401D01*
X110017844Y-50185000D01*
X109470000Y-50185000D01*
X109470000Y-51225382D01*
X109419554Y-51174936D01*
X109345445Y-51132149D01*
X109262787Y-51110000D01*
X109177213Y-51110000D01*
X109094555Y-51132149D01*
X109020446Y-51174936D01*
X108959936Y-51235446D01*
X108917149Y-51309555D01*
X108895000Y-51392213D01*
X108895000Y-51477787D01*
X108917149Y-51560445D01*
X108959936Y-51634554D01*
X109020446Y-51695064D01*
X109094555Y-51737851D01*
X109177213Y-51760000D01*
X109262787Y-51760000D01*
X109345445Y-51737851D01*
X109419554Y-51695064D01*
X109470000Y-51644618D01*
X109470000Y-52685000D01*
X110017828Y-52685000D01*
X110017844Y-52684999D01*
X110077372Y-52678598D01*
X110077379Y-52678596D01*
X110212086Y-52628354D01*
X110212093Y-52628350D01*
X110327187Y-52542190D01*
X110327190Y-52542187D01*
X110413350Y-52427093D01*
X110413354Y-52427086D01*
X110463596Y-52292379D01*
X110463598Y-52292372D01*
X110469999Y-52232844D01*
X110470000Y-52232827D01*
X110470000Y-51811416D01*
X110489685Y-51744377D01*
X110542489Y-51698622D01*
X110611647Y-51688678D01*
X110675203Y-51717703D01*
X110712977Y-51776481D01*
X110713266Y-51777481D01*
X110729417Y-51834247D01*
X110729422Y-51834260D01*
X110820327Y-52016821D01*
X110943237Y-52179581D01*
X111093958Y-52316980D01*
X111093960Y-52316982D01*
X111193141Y-52378392D01*
X111267363Y-52424348D01*
X111457544Y-52498024D01*
X111658024Y-52535500D01*
X111658026Y-52535500D01*
X111861974Y-52535500D01*
X111861976Y-52535500D01*
X112062456Y-52498024D01*
X112252637Y-52424348D01*
X112426041Y-52316981D01*
X112576764Y-52179579D01*
X112699673Y-52016821D01*
X112790582Y-51834250D01*
X112846397Y-51638083D01*
X112865215Y-51435000D01*
X112846397Y-51231917D01*
X112819633Y-51137853D01*
X112820219Y-51067988D01*
X112851216Y-51016241D01*
X114315495Y-49551964D01*
X114378095Y-49443536D01*
X114410500Y-49322601D01*
X114410500Y-49197399D01*
X114410500Y-47684500D01*
X114430185Y-47617461D01*
X114482989Y-47571706D01*
X114534500Y-47560500D01*
X114818261Y-47560500D01*
X114840971Y-47557191D01*
X114886393Y-47550573D01*
X114991483Y-47499198D01*
X115074198Y-47416483D01*
X115125573Y-47311393D01*
X115135500Y-47243260D01*
X115135500Y-45476740D01*
X115135420Y-45476194D01*
X115125573Y-45408608D01*
X115125573Y-45408607D01*
X115074198Y-45303517D01*
X115074196Y-45303515D01*
X115074196Y-45303514D01*
X114991485Y-45220803D01*
X114886391Y-45169426D01*
X114818261Y-45159500D01*
X114818260Y-45159500D01*
X113051740Y-45159500D01*
X113051739Y-45159500D01*
X112983608Y-45169426D01*
X112878514Y-45220803D01*
X112795803Y-45303514D01*
X112744426Y-45408608D01*
X112734500Y-45476739D01*
X112734500Y-45829578D01*
X112714815Y-45896617D01*
X112662011Y-45942372D01*
X112592853Y-45952316D01*
X112529297Y-45923291D01*
X112499500Y-45884850D01*
X112420061Y-45725316D01*
X112420056Y-45725308D01*
X112285979Y-45547761D01*
X112121562Y-45397876D01*
X112121560Y-45397874D01*
X111932404Y-45280754D01*
X111932398Y-45280752D01*
X111724940Y-45200382D01*
X111506243Y-45159500D01*
X111283757Y-45159500D01*
X111119427Y-45190219D01*
X111065055Y-45200383D01*
X111019150Y-45218166D01*
X110949527Y-45224026D01*
X110887787Y-45191315D01*
X110886678Y-45190219D01*
X110711819Y-45015360D01*
X110678334Y-44954037D01*
X110675500Y-44927679D01*
X110675500Y-43602609D01*
X110695185Y-43535570D01*
X110747989Y-43489815D01*
X110817147Y-43479871D01*
X110835485Y-43483946D01*
X110938669Y-43515247D01*
X110938668Y-43515247D01*
X111125000Y-43533599D01*
X111131092Y-43533599D01*
X111131092Y-43535347D01*
X111191585Y-43546816D01*
X111242298Y-43594878D01*
X111259100Y-43657204D01*
X111259100Y-43930311D01*
X111259101Y-43930318D01*
X111265380Y-43988735D01*
X111314669Y-44120885D01*
X111314670Y-44120887D01*
X111314671Y-44120889D01*
X111399197Y-44233803D01*
X111512111Y-44318329D01*
X111644265Y-44367619D01*
X111702685Y-44373900D01*
X112076514Y-44373899D01*
X112134935Y-44367619D01*
X112172278Y-44353690D01*
X112241969Y-44348705D01*
X112303292Y-44382190D01*
X112314216Y-44393114D01*
X112314225Y-44393121D01*
X112453404Y-44475431D01*
X112599600Y-44517904D01*
X112599600Y-44517903D01*
X113099600Y-44517903D01*
X113245795Y-44475431D01*
X113384974Y-44393121D01*
X113384983Y-44393114D01*
X113499314Y-44278783D01*
X113499321Y-44278774D01*
X113581631Y-44139595D01*
X113581633Y-44139590D01*
X113626744Y-43984318D01*
X113626745Y-43984312D01*
X113628390Y-43963400D01*
X113099600Y-43963400D01*
X113099600Y-44517903D01*
X112599600Y-44517903D01*
X112599600Y-43587400D01*
X112619285Y-43520361D01*
X112672089Y-43474606D01*
X112723600Y-43463400D01*
X113628390Y-43463400D01*
X113626744Y-43442486D01*
X113590671Y-43318318D01*
X113590870Y-43248448D01*
X113628812Y-43189778D01*
X113692451Y-43160935D01*
X113723005Y-43160434D01*
X113756160Y-43163999D01*
X113756172Y-43164000D01*
X114304000Y-43164000D01*
X114304000Y-42038000D01*
X114323685Y-41970961D01*
X114376489Y-41925206D01*
X114428000Y-41914000D01*
X114680000Y-41914000D01*
X114747039Y-41933685D01*
X114792794Y-41986489D01*
X114804000Y-42038000D01*
X114804000Y-43164000D01*
X115351828Y-43164000D01*
X115351844Y-43163999D01*
X115411372Y-43157598D01*
X115411379Y-43157596D01*
X115546086Y-43107354D01*
X115546089Y-43107352D01*
X115625688Y-43047764D01*
X115691152Y-43023346D01*
X115759425Y-43038197D01*
X115808831Y-43087601D01*
X115824000Y-43147030D01*
X115824000Y-57605065D01*
X115821238Y-57631092D01*
X115784546Y-57802010D01*
X115777245Y-57824916D01*
X115708721Y-57984468D01*
X115697136Y-58005535D01*
X115599109Y-58148868D01*
X115583678Y-58167303D01*
X115459839Y-58289021D01*
X115441140Y-58304132D01*
X115296138Y-58399667D01*
X115274874Y-58410886D01*
X115114159Y-58476645D01*
X115091129Y-58483549D01*
X114919297Y-58517342D01*
X114898307Y-58519638D01*
X114811476Y-58521696D01*
X114808542Y-58521731D01*
X105560058Y-58521999D01*
X105559996Y-58521999D01*
X101383942Y-58520057D01*
X101316912Y-58500341D01*
X101271182Y-58447516D01*
X101260000Y-58396057D01*
X101260000Y-57519991D01*
X101257538Y-57457040D01*
X101257538Y-57457038D01*
X101257538Y-57457036D01*
X101218624Y-57337272D01*
X101144606Y-57235394D01*
X101069224Y-57180626D01*
X101042730Y-57161377D01*
X101042725Y-57161375D01*
X101033424Y-57158353D01*
X100922964Y-57122462D01*
X100922962Y-57122461D01*
X100922960Y-57122461D01*
X100860009Y-57120000D01*
X100860000Y-57120000D01*
X97260000Y-57120000D01*
X97259991Y-57120000D01*
X97197040Y-57122461D01*
X97197038Y-57122461D01*
X97077274Y-57161375D01*
X97077269Y-57161377D01*
X96975394Y-57235394D01*
X96901377Y-57337269D01*
X96901375Y-57337274D01*
X96862461Y-57457038D01*
X96862461Y-57457040D01*
X96860000Y-57519991D01*
X96860000Y-58396000D01*
X96840315Y-58463039D01*
X96787511Y-58508794D01*
X96736000Y-58520000D01*
X93979996Y-58520000D01*
X93580100Y-58521593D01*
X93576771Y-58521562D01*
X93489353Y-58519563D01*
X93467999Y-58517213D01*
X93294704Y-58482745D01*
X93271442Y-58475689D01*
X93109519Y-58408621D01*
X93088081Y-58397162D01*
X92942361Y-58299798D01*
X92923569Y-58284377D01*
X92799635Y-58160445D01*
X92784215Y-58141655D01*
X92686846Y-57995936D01*
X92675386Y-57974497D01*
X92608316Y-57812575D01*
X92601260Y-57789313D01*
X92585383Y-57709494D01*
X92583000Y-57685303D01*
X92583000Y-56436228D01*
X93209500Y-56436228D01*
X93209500Y-56603771D01*
X93242182Y-56768074D01*
X93242184Y-56768082D01*
X93306295Y-56922860D01*
X93399373Y-57062162D01*
X93517837Y-57180626D01*
X93599804Y-57235394D01*
X93657137Y-57273703D01*
X93811918Y-57337816D01*
X93976228Y-57370499D01*
X93976232Y-57370500D01*
X93976233Y-57370500D01*
X94143768Y-57370500D01*
X94143769Y-57370499D01*
X94308082Y-57337816D01*
X94462863Y-57273703D01*
X94602162Y-57180626D01*
X94720626Y-57062162D01*
X94813703Y-56922863D01*
X94877816Y-56768082D01*
X94910500Y-56603767D01*
X94910500Y-56436233D01*
X94910499Y-56436228D01*
X103209500Y-56436228D01*
X103209500Y-56603771D01*
X103242182Y-56768074D01*
X103242184Y-56768082D01*
X103306295Y-56922860D01*
X103399373Y-57062162D01*
X103517837Y-57180626D01*
X103599804Y-57235394D01*
X103657137Y-57273703D01*
X103811918Y-57337816D01*
X103976228Y-57370499D01*
X103976232Y-57370500D01*
X103976233Y-57370500D01*
X104143768Y-57370500D01*
X104143769Y-57370499D01*
X104308082Y-57337816D01*
X104462863Y-57273703D01*
X104602162Y-57180626D01*
X104720626Y-57062162D01*
X104813703Y-56922863D01*
X104877816Y-56768082D01*
X104910500Y-56603767D01*
X104910500Y-56436233D01*
X104877816Y-56271918D01*
X104813703Y-56117137D01*
X104782537Y-56070494D01*
X104720626Y-55977837D01*
X104602162Y-55859373D01*
X104462860Y-55766295D01*
X104308082Y-55702184D01*
X104308074Y-55702182D01*
X104143771Y-55669500D01*
X104143767Y-55669500D01*
X103976233Y-55669500D01*
X103976228Y-55669500D01*
X103811925Y-55702182D01*
X103811917Y-55702184D01*
X103657139Y-55766295D01*
X103517837Y-55859373D01*
X103399373Y-55977837D01*
X103306295Y-56117139D01*
X103242184Y-56271917D01*
X103242182Y-56271925D01*
X103209500Y-56436228D01*
X94910499Y-56436228D01*
X94877816Y-56271918D01*
X94813703Y-56117137D01*
X94782537Y-56070494D01*
X94720626Y-55977837D01*
X94602162Y-55859373D01*
X94462860Y-55766295D01*
X94308082Y-55702184D01*
X94308074Y-55702182D01*
X94143771Y-55669500D01*
X94143767Y-55669500D01*
X93976233Y-55669500D01*
X93976228Y-55669500D01*
X93811925Y-55702182D01*
X93811917Y-55702184D01*
X93657139Y-55766295D01*
X93517837Y-55859373D01*
X93399373Y-55977837D01*
X93306295Y-56117139D01*
X93242184Y-56271917D01*
X93242182Y-56271925D01*
X93209500Y-56436228D01*
X92583000Y-56436228D01*
X92583000Y-53936228D01*
X93209500Y-53936228D01*
X93209500Y-54103771D01*
X93242182Y-54268074D01*
X93242184Y-54268082D01*
X93306295Y-54422860D01*
X93399373Y-54562162D01*
X93517837Y-54680626D01*
X93601612Y-54736602D01*
X93657137Y-54773703D01*
X93811918Y-54837816D01*
X93976228Y-54870499D01*
X93976232Y-54870500D01*
X93976233Y-54870500D01*
X94143768Y-54870500D01*
X94143769Y-54870499D01*
X94308082Y-54837816D01*
X94462863Y-54773703D01*
X94602162Y-54680626D01*
X94720626Y-54562162D01*
X94813703Y-54422863D01*
X94877022Y-54270000D01*
X97485885Y-54270000D01*
X97487085Y-54277584D01*
X97540591Y-54442255D01*
X97619195Y-54596524D01*
X97720967Y-54736602D01*
X97843397Y-54859032D01*
X97983475Y-54960804D01*
X98137742Y-55039408D01*
X98302415Y-55092914D01*
X98473429Y-55120000D01*
X98810000Y-55120000D01*
X99310000Y-55120000D01*
X99646571Y-55120000D01*
X99817584Y-55092914D01*
X99982257Y-55039408D01*
X100136524Y-54960804D01*
X100276602Y-54859032D01*
X100399032Y-54736602D01*
X100500804Y-54596524D01*
X100579408Y-54442255D01*
X100632914Y-54277584D01*
X100634115Y-54270000D01*
X99310000Y-54270000D01*
X99310000Y-55120000D01*
X98810000Y-55120000D01*
X98810000Y-54270000D01*
X97485885Y-54270000D01*
X94877022Y-54270000D01*
X94877816Y-54268082D01*
X94910500Y-54103767D01*
X94910500Y-53980218D01*
X98360000Y-53980218D01*
X98360000Y-54059782D01*
X98390448Y-54133291D01*
X98446709Y-54189552D01*
X98520218Y-54220000D01*
X99599782Y-54220000D01*
X99673291Y-54189552D01*
X99729552Y-54133291D01*
X99760000Y-54059782D01*
X99760000Y-53980218D01*
X99741779Y-53936228D01*
X103209500Y-53936228D01*
X103209500Y-54103771D01*
X103242182Y-54268074D01*
X103242184Y-54268082D01*
X103306295Y-54422860D01*
X103399373Y-54562162D01*
X103517837Y-54680626D01*
X103601612Y-54736602D01*
X103657137Y-54773703D01*
X103811918Y-54837816D01*
X103976228Y-54870499D01*
X103976232Y-54870500D01*
X103976233Y-54870500D01*
X104143768Y-54870500D01*
X104143769Y-54870499D01*
X104308082Y-54837816D01*
X104462863Y-54773703D01*
X104602162Y-54680626D01*
X104720626Y-54562162D01*
X104813703Y-54422863D01*
X104877816Y-54268082D01*
X104910500Y-54103767D01*
X104910500Y-53936233D01*
X104877816Y-53771918D01*
X104813703Y-53617137D01*
X104782537Y-53570494D01*
X104720626Y-53477837D01*
X104602162Y-53359373D01*
X104462860Y-53266295D01*
X104308082Y-53202184D01*
X104308074Y-53202182D01*
X104143771Y-53169500D01*
X104143767Y-53169500D01*
X103976233Y-53169500D01*
X103976228Y-53169500D01*
X103811925Y-53202182D01*
X103811917Y-53202184D01*
X103657139Y-53266295D01*
X103517837Y-53359373D01*
X103399373Y-53477837D01*
X103306295Y-53617139D01*
X103242184Y-53771917D01*
X103242182Y-53771925D01*
X103209500Y-53936228D01*
X99741779Y-53936228D01*
X99729552Y-53906709D01*
X99673291Y-53850448D01*
X99599782Y-53820000D01*
X98520218Y-53820000D01*
X98446709Y-53850448D01*
X98390448Y-53906709D01*
X98360000Y-53980218D01*
X94910500Y-53980218D01*
X94910500Y-53936233D01*
X94877816Y-53771918D01*
X94877021Y-53769999D01*
X97485884Y-53769999D01*
X97485885Y-53770000D01*
X98810000Y-53770000D01*
X99310000Y-53770000D01*
X100634115Y-53770000D01*
X100634115Y-53769999D01*
X100632914Y-53762415D01*
X100579408Y-53597744D01*
X100500804Y-53443475D01*
X100399032Y-53303397D01*
X100276602Y-53180967D01*
X100136524Y-53079195D01*
X99982257Y-53000591D01*
X99817584Y-52947085D01*
X99646571Y-52920000D01*
X99310000Y-52920000D01*
X99310000Y-53770000D01*
X98810000Y-53770000D01*
X98810000Y-52920000D01*
X98473429Y-52920000D01*
X98302415Y-52947085D01*
X98137742Y-53000591D01*
X97983475Y-53079195D01*
X97843397Y-53180967D01*
X97720967Y-53303397D01*
X97619195Y-53443475D01*
X97540591Y-53597744D01*
X97487085Y-53762415D01*
X97485884Y-53769999D01*
X94877021Y-53769999D01*
X94813703Y-53617137D01*
X94782537Y-53570494D01*
X94720626Y-53477837D01*
X94602162Y-53359373D01*
X94462860Y-53266295D01*
X94308082Y-53202184D01*
X94308074Y-53202182D01*
X94143771Y-53169500D01*
X94143767Y-53169500D01*
X93976233Y-53169500D01*
X93976228Y-53169500D01*
X93811925Y-53202182D01*
X93811917Y-53202184D01*
X93657139Y-53266295D01*
X93517837Y-53359373D01*
X93399373Y-53477837D01*
X93306295Y-53617139D01*
X93242184Y-53771917D01*
X93242182Y-53771925D01*
X93209500Y-53936228D01*
X92583000Y-53936228D01*
X92583000Y-52232844D01*
X107970000Y-52232844D01*
X107976401Y-52292372D01*
X107976403Y-52292379D01*
X108026645Y-52427086D01*
X108026649Y-52427093D01*
X108112809Y-52542187D01*
X108112812Y-52542190D01*
X108227906Y-52628350D01*
X108227913Y-52628354D01*
X108362620Y-52678596D01*
X108362627Y-52678598D01*
X108422155Y-52684999D01*
X108422172Y-52685000D01*
X108970000Y-52685000D01*
X108970000Y-51685000D01*
X107970000Y-51685000D01*
X107970000Y-52232844D01*
X92583000Y-52232844D01*
X92583000Y-50637155D01*
X107970000Y-50637155D01*
X107970000Y-51185000D01*
X108970000Y-51185000D01*
X108970000Y-50185000D01*
X108422155Y-50185000D01*
X108362627Y-50191401D01*
X108362620Y-50191403D01*
X108227913Y-50241645D01*
X108227906Y-50241649D01*
X108112812Y-50327809D01*
X108112809Y-50327812D01*
X108026649Y-50442906D01*
X108026645Y-50442913D01*
X107976403Y-50577620D01*
X107976401Y-50577627D01*
X107970000Y-50637155D01*
X92583000Y-50637155D01*
X92583000Y-42864244D01*
X92907800Y-42864244D01*
X92914201Y-42923772D01*
X92914203Y-42923779D01*
X92964445Y-43058486D01*
X92964449Y-43058493D01*
X93050609Y-43173587D01*
X93050612Y-43173590D01*
X93165706Y-43259750D01*
X93165713Y-43259754D01*
X93300420Y-43309996D01*
X93300427Y-43309998D01*
X93359955Y-43316399D01*
X93359972Y-43316400D01*
X93907800Y-43316400D01*
X94407800Y-43316400D01*
X94955628Y-43316400D01*
X94955644Y-43316399D01*
X95015172Y-43309998D01*
X95015179Y-43309996D01*
X95149886Y-43259754D01*
X95149893Y-43259750D01*
X95264987Y-43173590D01*
X95264990Y-43173587D01*
X95351150Y-43058493D01*
X95351154Y-43058486D01*
X95401396Y-42923779D01*
X95401398Y-42923772D01*
X95407799Y-42864244D01*
X95407800Y-42864227D01*
X95407800Y-42566400D01*
X94407800Y-42566400D01*
X94407800Y-43316400D01*
X93907800Y-43316400D01*
X93907800Y-42566400D01*
X92907800Y-42566400D01*
X92907800Y-42864244D01*
X92583000Y-42864244D01*
X92583000Y-40590198D01*
X92602685Y-40523159D01*
X92655489Y-40477404D01*
X92724647Y-40467460D01*
X92788203Y-40496485D01*
X92794681Y-40502517D01*
X92856349Y-40564185D01*
X92856355Y-40564190D01*
X93020981Y-40728816D01*
X93054466Y-40790139D01*
X93057300Y-40816497D01*
X93057300Y-41409004D01*
X93037615Y-41476043D01*
X93032567Y-41483315D01*
X92964446Y-41574311D01*
X92964445Y-41574313D01*
X92914203Y-41709020D01*
X92914201Y-41709027D01*
X92907800Y-41768555D01*
X92907800Y-42066400D01*
X95407800Y-42066400D01*
X95407800Y-41768572D01*
X95407799Y-41768555D01*
X95401398Y-41709027D01*
X95401396Y-41709020D01*
X95351154Y-41574313D01*
X95351153Y-41574311D01*
X95283033Y-41483315D01*
X95258616Y-41417851D01*
X95258300Y-41409004D01*
X95258300Y-40483139D01*
X95248373Y-40415007D01*
X95245530Y-40405805D01*
X95248936Y-40404752D01*
X95240160Y-40353429D01*
X95267485Y-40289124D01*
X95325239Y-40249801D01*
X95362640Y-40243810D01*
X97007987Y-40234819D01*
X97075127Y-40254136D01*
G37*
%TD.AperFunction*%
%TA.AperFunction,Conductor*%
G36*
X109268222Y-40187507D02*
G01*
X109314265Y-40240060D01*
X109317935Y-40248852D01*
X109366505Y-40379069D01*
X109366506Y-40379071D01*
X109450168Y-40490831D01*
X109561927Y-40574492D01*
X109561928Y-40574492D01*
X109561932Y-40574495D01*
X109692738Y-40623284D01*
X109750557Y-40629500D01*
X110213442Y-40629499D01*
X110271262Y-40623284D01*
X110402068Y-40574495D01*
X110415688Y-40564298D01*
X110481152Y-40539881D01*
X110549425Y-40554732D01*
X110564310Y-40564297D01*
X110577932Y-40574495D01*
X110708738Y-40623284D01*
X110766557Y-40629500D01*
X111229442Y-40629499D01*
X111287262Y-40623284D01*
X111418068Y-40574495D01*
X111528709Y-40491670D01*
X111594171Y-40467255D01*
X111662444Y-40482107D01*
X111711849Y-40531512D01*
X111726701Y-40599785D01*
X111725956Y-40607122D01*
X111721901Y-40637923D01*
X111721900Y-40637945D01*
X111721900Y-41150062D01*
X111736550Y-41261346D01*
X111736552Y-41261354D01*
X111780014Y-41366282D01*
X111793911Y-41399831D01*
X111885156Y-41518744D01*
X111917794Y-41543788D01*
X111969058Y-41583125D01*
X112010260Y-41639553D01*
X112014415Y-41709299D01*
X111980202Y-41770219D01*
X111969058Y-41779875D01*
X111922566Y-41815550D01*
X111890243Y-41840353D01*
X111886956Y-41842875D01*
X111821787Y-41868070D01*
X111811469Y-41868500D01*
X111802513Y-41868500D01*
X111735474Y-41848815D01*
X111723848Y-41840353D01*
X111655626Y-41784364D01*
X111655623Y-41784362D01*
X111490502Y-41696104D01*
X111311333Y-41641753D01*
X111311331Y-41641752D01*
X111125000Y-41623401D01*
X110938668Y-41641752D01*
X110938666Y-41641753D01*
X110759497Y-41696104D01*
X110594381Y-41784360D01*
X110594374Y-41784364D01*
X110575492Y-41799861D01*
X110511181Y-41827173D01*
X110442314Y-41815381D01*
X110409147Y-41791688D01*
X110075965Y-41458506D01*
X110075964Y-41458505D01*
X109967536Y-41395905D01*
X109967531Y-41395903D01*
X109927468Y-41385168D01*
X109871886Y-41353079D01*
X109867405Y-41348598D01*
X109754492Y-41264073D01*
X109754490Y-41264072D01*
X109754489Y-41264071D01*
X109754487Y-41264070D01*
X109754485Y-41264069D01*
X109622338Y-41214782D01*
X109622337Y-41214781D01*
X109622335Y-41214781D01*
X109563915Y-41208500D01*
X109563905Y-41208500D01*
X109130087Y-41208500D01*
X109130080Y-41208501D01*
X109109878Y-41210673D01*
X109041118Y-41198266D01*
X108989982Y-41150654D01*
X108972704Y-41082955D01*
X108980444Y-41044049D01*
X108986900Y-41026739D01*
X108995284Y-41004262D01*
X108996713Y-40990969D01*
X109001499Y-40946459D01*
X109001499Y-40946452D01*
X109001500Y-40946443D01*
X109001499Y-40583558D01*
X108995284Y-40525738D01*
X108994322Y-40523159D01*
X108966753Y-40449245D01*
X108946495Y-40394932D01*
X108926387Y-40368071D01*
X108901972Y-40302607D01*
X108916824Y-40234334D01*
X108937972Y-40206084D01*
X108938592Y-40205463D01*
X108999914Y-40171980D01*
X109025577Y-40169149D01*
X109201082Y-40168190D01*
X109268222Y-40187507D01*
G37*
%TD.AperFunction*%
%TD*%
%TA.AperFunction,Conductor*%
%TO.N,GND*%
G36*
X114809510Y-27178037D02*
G01*
X114897156Y-27180184D01*
X114918300Y-27182529D01*
X115091670Y-27217014D01*
X115114917Y-27224065D01*
X115276818Y-27291127D01*
X115298250Y-27302583D01*
X115435400Y-27394224D01*
X115443949Y-27399936D01*
X115462739Y-27415357D01*
X115586642Y-27539260D01*
X115602063Y-27558050D01*
X115699414Y-27703746D01*
X115710873Y-27725184D01*
X115775598Y-27881444D01*
X115777931Y-27887075D01*
X115784987Y-27910337D01*
X115819469Y-28083694D01*
X115821815Y-28104847D01*
X115823963Y-28192488D01*
X115824000Y-28195526D01*
X115824000Y-39880969D01*
X115804315Y-39948008D01*
X115751511Y-39993763D01*
X115682353Y-40003707D01*
X115625689Y-39980235D01*
X115546093Y-39920649D01*
X115546086Y-39920645D01*
X115411379Y-39870403D01*
X115411372Y-39870401D01*
X115351844Y-39864000D01*
X114804000Y-39864000D01*
X114804000Y-40990000D01*
X114784315Y-41057039D01*
X114731511Y-41102794D01*
X114680000Y-41114000D01*
X114428000Y-41114000D01*
X114360961Y-41094315D01*
X114315206Y-41041511D01*
X114304000Y-40990000D01*
X114304000Y-39864000D01*
X114249165Y-39864000D01*
X114182126Y-39844315D01*
X114136371Y-39791511D01*
X114126427Y-39722353D01*
X114155452Y-39658797D01*
X114213169Y-39621340D01*
X114252976Y-39609264D01*
X114309901Y-39591996D01*
X114475025Y-39503736D01*
X114619757Y-39384957D01*
X114738536Y-39240225D01*
X114826796Y-39075101D01*
X114881147Y-38895931D01*
X114899499Y-38709600D01*
X114881147Y-38523269D01*
X114826796Y-38344099D01*
X114826083Y-38342765D01*
X114738537Y-38178976D01*
X114738535Y-38178973D01*
X114619757Y-38034242D01*
X114475026Y-37915464D01*
X114475023Y-37915462D01*
X114309902Y-37827204D01*
X114130733Y-37772853D01*
X114130731Y-37772852D01*
X113944400Y-37754501D01*
X113758068Y-37772852D01*
X113758066Y-37772853D01*
X113578897Y-37827204D01*
X113413776Y-37915462D01*
X113413773Y-37915464D01*
X113269041Y-38034243D01*
X113230351Y-38081387D01*
X113172605Y-38120721D01*
X113102760Y-38122590D01*
X113091171Y-38118905D01*
X113090664Y-38118716D01*
X113032851Y-38112500D01*
X112569960Y-38112500D01*
X112569951Y-38112501D01*
X112512137Y-38118715D01*
X112512134Y-38118716D01*
X112381329Y-38167505D01*
X112381328Y-38167506D01*
X112269568Y-38251168D01*
X112185907Y-38362927D01*
X112185905Y-38362931D01*
X112185905Y-38362932D01*
X112137116Y-38493738D01*
X112137115Y-38493741D01*
X112130900Y-38551540D01*
X112130900Y-38914438D01*
X112130901Y-38914448D01*
X112137115Y-38972262D01*
X112137116Y-38972265D01*
X112185905Y-39103070D01*
X112235028Y-39168691D01*
X112259444Y-39234155D01*
X112244592Y-39302428D01*
X112235028Y-39317309D01*
X112185907Y-39382928D01*
X112185906Y-39382930D01*
X112185905Y-39382932D01*
X112153120Y-39470831D01*
X112137115Y-39513741D01*
X112130900Y-39571540D01*
X112130900Y-39934438D01*
X112130901Y-39934448D01*
X112137115Y-39992261D01*
X112137507Y-39993310D01*
X112137569Y-39994183D01*
X112138899Y-39999810D01*
X112137987Y-40000025D01*
X112142493Y-40063002D01*
X112109009Y-40124326D01*
X112068779Y-40151207D01*
X112004066Y-40178012D01*
X112000790Y-40180526D01*
X111997527Y-40181786D01*
X111997029Y-40182075D01*
X111996984Y-40181997D01*
X111935619Y-40205718D01*
X111867175Y-40191676D01*
X111848784Y-40179716D01*
X111846710Y-40178090D01*
X111738012Y-40134731D01*
X111725552Y-40132020D01*
X111669750Y-40119881D01*
X111669735Y-40119878D01*
X111584826Y-40111878D01*
X111469940Y-40134168D01*
X111469935Y-40134169D01*
X111404481Y-40158581D01*
X111315660Y-40207080D01*
X111279342Y-40234268D01*
X111213877Y-40258684D01*
X111205033Y-40259000D01*
X110825870Y-40259000D01*
X110767417Y-40244358D01*
X110668212Y-40191332D01*
X110489043Y-40136981D01*
X110489041Y-40136980D01*
X110302710Y-40118629D01*
X110116378Y-40136980D01*
X110116376Y-40136981D01*
X109937206Y-40191332D01*
X109914451Y-40203495D01*
X109846048Y-40217736D01*
X109780805Y-40192734D01*
X109739435Y-40136429D01*
X109732000Y-40094136D01*
X109732000Y-39883000D01*
X109751685Y-39815961D01*
X109804489Y-39770206D01*
X109856000Y-39759000D01*
X111810844Y-39759000D01*
X111770404Y-39619805D01*
X111688738Y-39481714D01*
X111688731Y-39481705D01*
X111656967Y-39449941D01*
X111623482Y-39388618D01*
X111628465Y-39318930D01*
X111662284Y-39228262D01*
X111667408Y-39180604D01*
X111668499Y-39170459D01*
X111668499Y-39170452D01*
X111668500Y-39170443D01*
X111668499Y-38807558D01*
X111662284Y-38749738D01*
X111613495Y-38618932D01*
X111613490Y-38618926D01*
X111609244Y-38611147D01*
X111610639Y-38610385D01*
X111589736Y-38554359D01*
X111604581Y-38486085D01*
X111612964Y-38473039D01*
X111613489Y-38472075D01*
X111613495Y-38472068D01*
X111662284Y-38341262D01*
X111667714Y-38290754D01*
X111668499Y-38283458D01*
X111668499Y-38283452D01*
X111668500Y-38283443D01*
X111668499Y-38105858D01*
X111688183Y-38038819D01*
X111704813Y-38018182D01*
X112602013Y-37120984D01*
X112616435Y-37096002D01*
X112657854Y-37053005D01*
X112692408Y-37031294D01*
X112811995Y-36911707D01*
X112811999Y-36911701D01*
X112901970Y-36768514D01*
X112901972Y-36768511D01*
X112901972Y-36768509D01*
X112901974Y-36768507D01*
X112957831Y-36608876D01*
X112957831Y-36608875D01*
X112957832Y-36608873D01*
X112976767Y-36440819D01*
X112976767Y-36440817D01*
X112973181Y-36408994D01*
X112970826Y-36388095D01*
X112982879Y-36319277D01*
X113030227Y-36267897D01*
X113081890Y-36250810D01*
X113165531Y-36242573D01*
X113344701Y-36188222D01*
X113509825Y-36099962D01*
X113654557Y-35981183D01*
X113773336Y-35836451D01*
X113861596Y-35671327D01*
X113915947Y-35492157D01*
X113934299Y-35305826D01*
X113915947Y-35119495D01*
X113861596Y-34940325D01*
X113790483Y-34807281D01*
X113773337Y-34775202D01*
X113773335Y-34775199D01*
X113654557Y-34630468D01*
X113509826Y-34511690D01*
X113509823Y-34511688D01*
X113344702Y-34423430D01*
X113165533Y-34369079D01*
X113165531Y-34369078D01*
X112979200Y-34350727D01*
X112792868Y-34369078D01*
X112792866Y-34369079D01*
X112613697Y-34423430D01*
X112448576Y-34511688D01*
X112448573Y-34511690D01*
X112370514Y-34575753D01*
X112306204Y-34603066D01*
X112291849Y-34603900D01*
X112176793Y-34603900D01*
X112135872Y-34614864D01*
X112135872Y-34614865D01*
X112079970Y-34629844D01*
X112024068Y-34644823D01*
X112015099Y-34650002D01*
X111947199Y-34666473D01*
X111881172Y-34643621D01*
X111837982Y-34588699D01*
X111829100Y-34542614D01*
X111829100Y-34217500D01*
X111848785Y-34150461D01*
X111901589Y-34104706D01*
X111953100Y-34093500D01*
X113532261Y-34093500D01*
X113554971Y-34090191D01*
X113600393Y-34083573D01*
X113705483Y-34032198D01*
X113788198Y-33949483D01*
X113839573Y-33844393D01*
X113849500Y-33776260D01*
X113849500Y-32009740D01*
X113839573Y-31941607D01*
X113788198Y-31836517D01*
X113788196Y-31836515D01*
X113788196Y-31836514D01*
X113705485Y-31753803D01*
X113600391Y-31702426D01*
X113532261Y-31692500D01*
X113532260Y-31692500D01*
X112172320Y-31692500D01*
X112105281Y-31672815D01*
X112084639Y-31656181D01*
X111643173Y-31214715D01*
X111188364Y-30759905D01*
X111079936Y-30697305D01*
X111079937Y-30697305D01*
X111013663Y-30679547D01*
X110959001Y-30664900D01*
X108075657Y-30664900D01*
X108008618Y-30645215D01*
X107962863Y-30592411D01*
X107952919Y-30523253D01*
X107981944Y-30459697D01*
X108023252Y-30428518D01*
X108119578Y-30383600D01*
X108313082Y-30248105D01*
X108480105Y-30081082D01*
X108615600Y-29887578D01*
X108715429Y-29673492D01*
X108715432Y-29673486D01*
X108772636Y-29460000D01*
X107875012Y-29460000D01*
X107907925Y-29402993D01*
X107942000Y-29275826D01*
X107942000Y-29144174D01*
X107907925Y-29017007D01*
X107875012Y-28960000D01*
X108772636Y-28960000D01*
X108772635Y-28959999D01*
X108715432Y-28746513D01*
X108715429Y-28746507D01*
X108615600Y-28532422D01*
X108615599Y-28532420D01*
X108480113Y-28338926D01*
X108480108Y-28338920D01*
X108313082Y-28171894D01*
X108119578Y-28036399D01*
X107905492Y-27936570D01*
X107905486Y-27936567D01*
X107692000Y-27879364D01*
X107692000Y-28776988D01*
X107634993Y-28744075D01*
X107507826Y-28710000D01*
X107376174Y-28710000D01*
X107249007Y-28744075D01*
X107192000Y-28776988D01*
X107192000Y-27879364D01*
X107191999Y-27879364D01*
X106978513Y-27936567D01*
X106978507Y-27936570D01*
X106764422Y-28036399D01*
X106764420Y-28036400D01*
X106570926Y-28171886D01*
X106570920Y-28171891D01*
X106403891Y-28338920D01*
X106403886Y-28338926D01*
X106268400Y-28532420D01*
X106268399Y-28532422D01*
X106201717Y-28675421D01*
X106155544Y-28727860D01*
X106088350Y-28747012D01*
X106021469Y-28726796D01*
X105978335Y-28678288D01*
X105927061Y-28575316D01*
X105927056Y-28575308D01*
X105792979Y-28397761D01*
X105628562Y-28247876D01*
X105628560Y-28247874D01*
X105439404Y-28130754D01*
X105439398Y-28130752D01*
X105231940Y-28050382D01*
X105013243Y-28009500D01*
X104790757Y-28009500D01*
X104572060Y-28050382D01*
X104500765Y-28078002D01*
X104364601Y-28130752D01*
X104364595Y-28130754D01*
X104175439Y-28247874D01*
X104175437Y-28247876D01*
X104011020Y-28397761D01*
X103876943Y-28575308D01*
X103876938Y-28575316D01*
X103777775Y-28774461D01*
X103777769Y-28774476D01*
X103751266Y-28867627D01*
X103713987Y-28926721D01*
X103650677Y-28956278D01*
X103581438Y-28946916D01*
X103528251Y-28901606D01*
X103512734Y-28867627D01*
X103486230Y-28774476D01*
X103486229Y-28774472D01*
X103486224Y-28774461D01*
X103387061Y-28575316D01*
X103387056Y-28575308D01*
X103252979Y-28397761D01*
X103088562Y-28247876D01*
X103088560Y-28247874D01*
X102899404Y-28130754D01*
X102899398Y-28130752D01*
X102691940Y-28050382D01*
X102473243Y-28009500D01*
X102250757Y-28009500D01*
X102032060Y-28050382D01*
X101960765Y-28078002D01*
X101824601Y-28130752D01*
X101824595Y-28130754D01*
X101635439Y-28247874D01*
X101635437Y-28247876D01*
X101471020Y-28397761D01*
X101336943Y-28575308D01*
X101336938Y-28575316D01*
X101237775Y-28774461D01*
X101237769Y-28774476D01*
X101211266Y-28867627D01*
X101173987Y-28926721D01*
X101110677Y-28956278D01*
X101041438Y-28946916D01*
X100988251Y-28901606D01*
X100972734Y-28867627D01*
X100946230Y-28774476D01*
X100946229Y-28774472D01*
X100946224Y-28774461D01*
X100847061Y-28575316D01*
X100847056Y-28575308D01*
X100712979Y-28397761D01*
X100548562Y-28247876D01*
X100548560Y-28247874D01*
X100359404Y-28130754D01*
X100359398Y-28130752D01*
X100151940Y-28050382D01*
X99933243Y-28009500D01*
X99710757Y-28009500D01*
X99492060Y-28050382D01*
X99420765Y-28078002D01*
X99284601Y-28130752D01*
X99284595Y-28130754D01*
X99095439Y-28247874D01*
X99095437Y-28247876D01*
X98931020Y-28397761D01*
X98796943Y-28575308D01*
X98796938Y-28575316D01*
X98697775Y-28774461D01*
X98697769Y-28774476D01*
X98671266Y-28867627D01*
X98633987Y-28926721D01*
X98570677Y-28956278D01*
X98501438Y-28946916D01*
X98448251Y-28901606D01*
X98432734Y-28867627D01*
X98406230Y-28774476D01*
X98406229Y-28774472D01*
X98406224Y-28774461D01*
X98307061Y-28575316D01*
X98307056Y-28575308D01*
X98172979Y-28397761D01*
X98008562Y-28247876D01*
X98008560Y-28247874D01*
X97819404Y-28130754D01*
X97819398Y-28130752D01*
X97611940Y-28050382D01*
X97393243Y-28009500D01*
X97170757Y-28009500D01*
X96952060Y-28050382D01*
X96880765Y-28078002D01*
X96744601Y-28130752D01*
X96744595Y-28130754D01*
X96555439Y-28247874D01*
X96555437Y-28247876D01*
X96391020Y-28397761D01*
X96256943Y-28575308D01*
X96256938Y-28575316D01*
X96177500Y-28734850D01*
X96129997Y-28786087D01*
X96062334Y-28803508D01*
X95995994Y-28781582D01*
X95952039Y-28727271D01*
X95942500Y-28679578D01*
X95942500Y-28326739D01*
X95932573Y-28258608D01*
X95932573Y-28258607D01*
X95881198Y-28153517D01*
X95881196Y-28153515D01*
X95881196Y-28153514D01*
X95798485Y-28070803D01*
X95693391Y-28019426D01*
X95625261Y-28009500D01*
X95625260Y-28009500D01*
X93858740Y-28009500D01*
X93858739Y-28009500D01*
X93790608Y-28019426D01*
X93685514Y-28070803D01*
X93602803Y-28153514D01*
X93551426Y-28258608D01*
X93541500Y-28326739D01*
X93541500Y-29509902D01*
X93521815Y-29576941D01*
X93505181Y-29597583D01*
X93237481Y-29865282D01*
X93237479Y-29865285D01*
X93199252Y-29931498D01*
X93199251Y-29931500D01*
X93158423Y-30002214D01*
X93158423Y-30002215D01*
X93117499Y-30154943D01*
X93117499Y-30154945D01*
X93117499Y-30323046D01*
X93117500Y-30323059D01*
X93117500Y-32243586D01*
X93117499Y-32243604D01*
X93117499Y-32409310D01*
X93117498Y-32409310D01*
X93120875Y-32421913D01*
X93158423Y-32562041D01*
X93158424Y-32562043D01*
X93158423Y-32562043D01*
X93166273Y-32575638D01*
X93166274Y-32575639D01*
X93237477Y-32698968D01*
X93237481Y-32698973D01*
X93356349Y-32817841D01*
X93356355Y-32817846D01*
X93597473Y-33058964D01*
X93630958Y-33120287D01*
X93625974Y-33189979D01*
X93584102Y-33245912D01*
X93545387Y-33264014D01*
X93545607Y-33264604D01*
X93407529Y-33316105D01*
X93407528Y-33316106D01*
X93295768Y-33399768D01*
X93212107Y-33511527D01*
X93163315Y-33642341D01*
X93157100Y-33700140D01*
X93157100Y-34063038D01*
X93157101Y-34063048D01*
X93163315Y-34120862D01*
X93163316Y-34120865D01*
X93212105Y-34251670D01*
X93261228Y-34317291D01*
X93285644Y-34382755D01*
X93270792Y-34451028D01*
X93261228Y-34465909D01*
X93212107Y-34531528D01*
X93212106Y-34531530D01*
X93212105Y-34531532D01*
X93189999Y-34590800D01*
X93163315Y-34662341D01*
X93157100Y-34720140D01*
X93157100Y-35083038D01*
X93157101Y-35083048D01*
X93163315Y-35140862D01*
X93163316Y-35140865D01*
X93199652Y-35238282D01*
X93212105Y-35271668D01*
X93212107Y-35271671D01*
X93214381Y-35275836D01*
X93229232Y-35344110D01*
X93210544Y-35401230D01*
X93206476Y-35407704D01*
X93150616Y-35567340D01*
X93131682Y-35735394D01*
X93131682Y-35735395D01*
X93134100Y-35756861D01*
X93122043Y-35825682D01*
X93074693Y-35877060D01*
X93045475Y-35889817D01*
X92975604Y-35910116D01*
X92975603Y-35910117D01*
X92834247Y-35993714D01*
X92834238Y-35993721D01*
X92794681Y-36033279D01*
X92733358Y-36066764D01*
X92663666Y-36061780D01*
X92607733Y-36019908D01*
X92583316Y-35954444D01*
X92583000Y-35945598D01*
X92583000Y-28164489D01*
X92583032Y-28161655D01*
X92583218Y-28153514D01*
X92584456Y-28099351D01*
X92586806Y-28078002D01*
X92592300Y-28050382D01*
X92621275Y-27904700D01*
X92628327Y-27881451D01*
X92695401Y-27719515D01*
X92706851Y-27698094D01*
X92804231Y-27552354D01*
X92819640Y-27533578D01*
X92943578Y-27409640D01*
X92962354Y-27394231D01*
X93108094Y-27296851D01*
X93129515Y-27285401D01*
X93291448Y-27218328D01*
X93314703Y-27211275D01*
X93470025Y-27180382D01*
X93494214Y-27178000D01*
X114806473Y-27178000D01*
X114809510Y-27178037D01*
G37*
%TD.AperFunction*%
%TA.AperFunction,Conductor*%
G36*
X93578839Y-36868585D02*
G01*
X93624594Y-36921389D01*
X93635800Y-36972900D01*
X93635800Y-38333695D01*
X93645471Y-38342635D01*
X93681338Y-38402596D01*
X93685300Y-38433691D01*
X93685300Y-39609270D01*
X93685301Y-39609276D01*
X93691708Y-39668883D01*
X93742002Y-39803728D01*
X93742004Y-39803732D01*
X93752751Y-39818087D01*
X93777170Y-39883551D01*
X93762320Y-39951824D01*
X93712915Y-40001231D01*
X93653486Y-40016400D01*
X93359955Y-40016400D01*
X93300427Y-40022801D01*
X93300420Y-40022803D01*
X93165713Y-40073045D01*
X93165710Y-40073047D01*
X93054505Y-40156295D01*
X92989040Y-40180712D01*
X92928684Y-40169823D01*
X92904071Y-40158583D01*
X92872327Y-40144086D01*
X92869226Y-40143099D01*
X92791049Y-40118216D01*
X92785578Y-40118092D01*
X92704204Y-40116258D01*
X92637627Y-40095068D01*
X92593074Y-40041247D01*
X92583000Y-39992290D01*
X92583000Y-38252202D01*
X92602685Y-38185163D01*
X92655489Y-38139408D01*
X92724647Y-38129464D01*
X92788203Y-38158489D01*
X92794681Y-38164521D01*
X92834238Y-38204078D01*
X92834247Y-38204085D01*
X92975601Y-38287681D01*
X93133314Y-38333500D01*
X93133311Y-38333500D01*
X93135798Y-38333695D01*
X93135800Y-38333695D01*
X93135800Y-36972900D01*
X93155485Y-36905861D01*
X93208289Y-36860106D01*
X93259800Y-36848900D01*
X93511800Y-36848900D01*
X93578839Y-36868585D01*
G37*
%TD.AperFunction*%
%TA.AperFunction,Conductor*%
G36*
X102901349Y-36761785D02*
G01*
X102911623Y-36769153D01*
X102912755Y-36770056D01*
X103055942Y-36860027D01*
X103055945Y-36860029D01*
X103055949Y-36860030D01*
X103055950Y-36860031D01*
X103211614Y-36914500D01*
X103215584Y-36915889D01*
X103376404Y-36934009D01*
X103440818Y-36961075D01*
X103480374Y-37018670D01*
X103482511Y-37088507D01*
X103473006Y-37113523D01*
X103449685Y-37159294D01*
X103401711Y-37210090D01*
X103339200Y-37227000D01*
X102466819Y-37227000D01*
X102399780Y-37207315D01*
X102379138Y-37190681D01*
X102172238Y-36983780D01*
X102138753Y-36922457D01*
X102143737Y-36852765D01*
X102185609Y-36796832D01*
X102251073Y-36772415D01*
X102259891Y-36772099D01*
X102680514Y-36772099D01*
X102738935Y-36765819D01*
X102781568Y-36749918D01*
X102824901Y-36742100D01*
X102834310Y-36742100D01*
X102901349Y-36761785D01*
G37*
%TD.AperFunction*%
%TA.AperFunction,Conductor*%
G36*
X101704914Y-35596828D02*
G01*
X101731403Y-35628243D01*
X101783878Y-35716974D01*
X101783885Y-35716983D01*
X101794808Y-35727906D01*
X101828293Y-35789229D01*
X101823310Y-35858918D01*
X101809381Y-35896265D01*
X101803100Y-35954685D01*
X101803100Y-35954692D01*
X101803100Y-35954693D01*
X101803100Y-36315281D01*
X101783415Y-36382320D01*
X101730611Y-36428075D01*
X101661453Y-36438019D01*
X101597897Y-36408994D01*
X101591428Y-36402970D01*
X101271369Y-36082911D01*
X101237884Y-36021588D01*
X101242868Y-35951896D01*
X101284740Y-35895963D01*
X101293051Y-35890254D01*
X101319087Y-35873895D01*
X101438674Y-35754308D01*
X101519678Y-35625390D01*
X101572012Y-35579101D01*
X101641065Y-35568453D01*
X101704914Y-35596828D01*
G37*
%TD.AperFunction*%
%TA.AperFunction,Conductor*%
G36*
X97634187Y-33693155D02*
G01*
X97690122Y-33735024D01*
X97710632Y-33777243D01*
X97731905Y-33856633D01*
X97776174Y-33933311D01*
X97794504Y-33965059D01*
X97794506Y-33965062D01*
X98936711Y-35107267D01*
X98970196Y-35168590D01*
X98965212Y-35238282D01*
X98954400Y-35254401D01*
X98954400Y-36171200D01*
X98934715Y-36238239D01*
X98881911Y-36283994D01*
X98830400Y-36295200D01*
X98578400Y-36295200D01*
X98511361Y-36275515D01*
X98465606Y-36222711D01*
X98454400Y-36171200D01*
X98454400Y-35266410D01*
X98454399Y-35266409D01*
X98433487Y-35268054D01*
X98433481Y-35268055D01*
X98278209Y-35313166D01*
X98278206Y-35313167D01*
X98220612Y-35347228D01*
X98152888Y-35364409D01*
X98086625Y-35342249D01*
X98069811Y-35328176D01*
X97548916Y-34807281D01*
X97548908Y-34807275D01*
X97446740Y-34748289D01*
X97446737Y-34748288D01*
X97411986Y-34728224D01*
X97411985Y-34728223D01*
X97411984Y-34728223D01*
X97259256Y-34687299D01*
X97101142Y-34687299D01*
X97093546Y-34687299D01*
X97093530Y-34687300D01*
X96686139Y-34687300D01*
X96619100Y-34667615D01*
X96573345Y-34614811D01*
X96571349Y-34603521D01*
X96559590Y-34590800D01*
X95661398Y-34590800D01*
X95594359Y-34571115D01*
X95573717Y-34554481D01*
X95567119Y-34547883D01*
X95533634Y-34486560D01*
X95530800Y-34460202D01*
X95530800Y-34214800D01*
X95550485Y-34147761D01*
X95603289Y-34102006D01*
X95654800Y-34090800D01*
X95766204Y-34090800D01*
X95824656Y-34105441D01*
X95853512Y-34120865D01*
X95869667Y-34129500D01*
X96048834Y-34183850D01*
X96048836Y-34183851D01*
X96065542Y-34185496D01*
X96235168Y-34202203D01*
X96421499Y-34183851D01*
X96600669Y-34129500D01*
X96765793Y-34041240D01*
X96910525Y-33922461D01*
X96934754Y-33892939D01*
X96992500Y-33853605D01*
X97030607Y-33847604D01*
X97041827Y-33847604D01*
X97041843Y-33847605D01*
X97049439Y-33847605D01*
X97207550Y-33847605D01*
X97207553Y-33847605D01*
X97360281Y-33806681D01*
X97412971Y-33776260D01*
X97497212Y-33727624D01*
X97503175Y-33721660D01*
X97564495Y-33688174D01*
X97634187Y-33693155D01*
G37*
%TD.AperFunction*%
%TA.AperFunction,Conductor*%
G36*
X103809562Y-33156083D02*
G01*
X103862749Y-33201393D01*
X103878266Y-33235372D01*
X103904769Y-33328523D01*
X103904775Y-33328538D01*
X104003938Y-33527683D01*
X104003943Y-33527691D01*
X104138020Y-33705238D01*
X104302437Y-33855123D01*
X104302439Y-33855125D01*
X104491595Y-33972245D01*
X104491596Y-33972245D01*
X104491599Y-33972247D01*
X104699060Y-34052618D01*
X104917757Y-34093500D01*
X104917759Y-34093500D01*
X105140241Y-34093500D01*
X105140243Y-34093500D01*
X105358940Y-34052618D01*
X105566401Y-33972247D01*
X105566403Y-33972245D01*
X105571273Y-33970359D01*
X105640896Y-33964496D01*
X105702636Y-33997206D01*
X105703748Y-33998304D01*
X105988302Y-34282858D01*
X106021787Y-34344181D01*
X106016803Y-34413873D01*
X105974931Y-34469806D01*
X105935216Y-34489615D01*
X105898209Y-34500366D01*
X105898201Y-34500369D01*
X105877319Y-34512719D01*
X105809595Y-34529899D01*
X105751081Y-34512718D01*
X105734594Y-34502967D01*
X105734590Y-34502966D01*
X105579318Y-34457855D01*
X105579312Y-34457854D01*
X105558400Y-34456209D01*
X105558400Y-34982400D01*
X106450400Y-34982400D01*
X106517439Y-35002085D01*
X106563194Y-35054889D01*
X106574400Y-35106400D01*
X106574400Y-35358400D01*
X106554715Y-35425439D01*
X106501911Y-35471194D01*
X106450400Y-35482400D01*
X106131620Y-35482400D01*
X106107438Y-35485000D01*
X104509362Y-35485000D01*
X104500507Y-35482400D01*
X104166400Y-35482400D01*
X104099361Y-35462715D01*
X104053606Y-35409911D01*
X104042400Y-35358400D01*
X104042400Y-34982400D01*
X104542400Y-34982400D01*
X105058400Y-34982400D01*
X105058400Y-34456210D01*
X105058399Y-34456209D01*
X105037487Y-34457854D01*
X105037481Y-34457855D01*
X104882209Y-34502966D01*
X104882203Y-34502968D01*
X104865716Y-34512719D01*
X104797991Y-34529899D01*
X104739479Y-34512718D01*
X104718598Y-34500369D01*
X104718590Y-34500366D01*
X104563318Y-34455255D01*
X104563312Y-34455254D01*
X104542400Y-34453609D01*
X104542400Y-34982400D01*
X104042400Y-34982400D01*
X104042400Y-34453610D01*
X104042399Y-34453609D01*
X104021487Y-34455254D01*
X104021481Y-34455255D01*
X103866209Y-34500366D01*
X103866204Y-34500368D01*
X103727025Y-34582678D01*
X103727016Y-34582685D01*
X103612685Y-34697016D01*
X103612678Y-34697025D01*
X103530368Y-34836204D01*
X103530366Y-34836210D01*
X103504455Y-34925396D01*
X103466849Y-34984282D01*
X103403376Y-35013488D01*
X103334190Y-35003742D01*
X103281255Y-34958138D01*
X103266302Y-34925396D01*
X103225630Y-34785403D01*
X103143321Y-34646225D01*
X103143314Y-34646216D01*
X103028983Y-34531885D01*
X103028974Y-34531878D01*
X102889795Y-34449568D01*
X102889790Y-34449566D01*
X102734518Y-34404455D01*
X102734512Y-34404454D01*
X102713600Y-34402809D01*
X102713600Y-35307600D01*
X102693915Y-35374639D01*
X102641111Y-35420394D01*
X102589600Y-35431600D01*
X102337600Y-35431600D01*
X102270561Y-35411915D01*
X102224806Y-35359111D01*
X102213600Y-35307600D01*
X102213600Y-34402810D01*
X102213599Y-34402809D01*
X102192687Y-34404454D01*
X102192681Y-34404455D01*
X102037409Y-34449566D01*
X102037404Y-34449568D01*
X101898225Y-34531878D01*
X101898216Y-34531885D01*
X101783885Y-34646216D01*
X101783878Y-34646225D01*
X101701568Y-34785404D01*
X101701567Y-34785406D01*
X101690137Y-34824749D01*
X101652530Y-34883634D01*
X101589057Y-34912839D01*
X101519870Y-34903092D01*
X101466936Y-34857488D01*
X101466067Y-34856124D01*
X101453554Y-34836210D01*
X101438674Y-34812528D01*
X101319087Y-34692941D01*
X101319081Y-34692936D01*
X101169991Y-34599256D01*
X101171417Y-34596985D01*
X101128634Y-34558352D01*
X101110300Y-34493462D01*
X101110300Y-34131919D01*
X101129985Y-34064880D01*
X101146615Y-34044242D01*
X101455502Y-33735354D01*
X101516823Y-33701871D01*
X101586514Y-33706855D01*
X101626719Y-33731400D01*
X101724344Y-33820397D01*
X101750664Y-33844391D01*
X101762437Y-33855123D01*
X101762439Y-33855125D01*
X101951595Y-33972245D01*
X101951596Y-33972245D01*
X101951599Y-33972247D01*
X102159060Y-34052618D01*
X102377757Y-34093500D01*
X102377759Y-34093500D01*
X102600241Y-34093500D01*
X102600243Y-34093500D01*
X102818940Y-34052618D01*
X103026401Y-33972247D01*
X103215562Y-33855124D01*
X103379981Y-33705236D01*
X103514058Y-33527689D01*
X103613229Y-33328528D01*
X103639734Y-33235371D01*
X103677013Y-33176278D01*
X103740323Y-33146721D01*
X103809562Y-33156083D01*
G37*
%TD.AperFunction*%
%TA.AperFunction,Conductor*%
G36*
X96147703Y-29646708D02*
G01*
X96177500Y-29685149D01*
X96256938Y-29844683D01*
X96256943Y-29844691D01*
X96391020Y-30022238D01*
X96555437Y-30172123D01*
X96555439Y-30172125D01*
X96744595Y-30289245D01*
X96744596Y-30289245D01*
X96744599Y-30289247D01*
X96952060Y-30369618D01*
X97170757Y-30410500D01*
X97170759Y-30410500D01*
X97393240Y-30410500D01*
X97393243Y-30410500D01*
X97552718Y-30380688D01*
X97622229Y-30387719D01*
X97676908Y-30431216D01*
X97699391Y-30497370D01*
X97699500Y-30502577D01*
X97699500Y-31134212D01*
X97684400Y-31185636D01*
X97684400Y-32107200D01*
X97664715Y-32174239D01*
X97611911Y-32219994D01*
X97560400Y-32231200D01*
X97308400Y-32231200D01*
X97241361Y-32211515D01*
X97195606Y-32158711D01*
X97184400Y-32107200D01*
X97184400Y-31202410D01*
X97184399Y-31202409D01*
X97163487Y-31204054D01*
X97163481Y-31204055D01*
X97008209Y-31249166D01*
X97008204Y-31249168D01*
X96869025Y-31331478D01*
X96869020Y-31331482D01*
X96754679Y-31445824D01*
X96722820Y-31499691D01*
X96724710Y-31514650D01*
X96742474Y-31547182D01*
X96737490Y-31616874D01*
X96708990Y-31661221D01*
X96604531Y-31765681D01*
X96543208Y-31799166D01*
X96516849Y-31802000D01*
X96503291Y-31802000D01*
X96459328Y-31804729D01*
X96347165Y-31838122D01*
X96337932Y-31842636D01*
X96337319Y-31841384D01*
X96281590Y-31860744D01*
X96213672Y-31844349D01*
X96165398Y-31793837D01*
X96152097Y-31725245D01*
X96158272Y-31696616D01*
X96159536Y-31692934D01*
X96159538Y-31692931D01*
X96164830Y-31661221D01*
X96178800Y-31577499D01*
X96178800Y-31563950D01*
X96198485Y-31496911D01*
X96215119Y-31476269D01*
X96426853Y-31264535D01*
X96393029Y-31230712D01*
X96346397Y-31193134D01*
X96215618Y-31133408D01*
X96215613Y-31133407D01*
X96073300Y-31112947D01*
X95930986Y-31133407D01*
X95930984Y-31133408D01*
X95906853Y-31144428D01*
X95837694Y-31154369D01*
X95834938Y-31153941D01*
X95823304Y-31152000D01*
X95823300Y-31152000D01*
X95653920Y-31152000D01*
X95586881Y-31132315D01*
X95541126Y-31079511D01*
X95536878Y-31068954D01*
X95524055Y-31032307D01*
X95524052Y-31032302D01*
X95434081Y-30889115D01*
X95434076Y-30889109D01*
X95314490Y-30769523D01*
X95314484Y-30769518D01*
X95171297Y-30679547D01*
X95171294Y-30679545D01*
X95113808Y-30659430D01*
X95091263Y-30651541D01*
X95034488Y-30610820D01*
X95008741Y-30545867D01*
X95022197Y-30477305D01*
X95070585Y-30426903D01*
X95132219Y-30410500D01*
X95625261Y-30410500D01*
X95647971Y-30407191D01*
X95693393Y-30400573D01*
X95798483Y-30349198D01*
X95881198Y-30266483D01*
X95932573Y-30161393D01*
X95942500Y-30093260D01*
X95942500Y-29740421D01*
X95962185Y-29673382D01*
X96014989Y-29627627D01*
X96084147Y-29617683D01*
X96147703Y-29646708D01*
G37*
%TD.AperFunction*%
%TD*%
M02*
