%TF.GenerationSoftware,KiCad,Pcbnew,8.0.5*%
%TF.CreationDate,2024-09-20T16:42:47+02:00*%
%TF.ProjectId,AnalogI2SMic,416e616c-6f67-4493-9253-4d69632e6b69,rev?*%
%TF.SameCoordinates,Original*%
%TF.FileFunction,Legend,Bot*%
%TF.FilePolarity,Positive*%
%FSLAX46Y46*%
G04 Gerber Fmt 4.6, Leading zero omitted, Abs format (unit mm)*
G04 Created by KiCad (PCBNEW 8.0.5) date 2024-09-20 16:42:47*
%MOMM*%
%LPD*%
G01*
G04 APERTURE LIST*
%ADD10C,0.150000*%
%ADD11C,0.120000*%
%ADD12C,0.160000*%
%ADD13C,0.130000*%
%ADD14O,1.200000X2.200000*%
%ADD15O,2.200000X1.200000*%
%ADD16R,1.500000X1.500000*%
%ADD17C,1.500000*%
%ADD18R,1.700000X1.700000*%
%ADD19O,1.700000X1.700000*%
%ADD20R,1.500000X1.000000*%
G04 APERTURE END LIST*
D10*
X104546400Y-47891700D02*
X108090000Y-47890000D01*
X104119051Y-39044299D02*
X104119051Y-40544299D01*
X102387400Y-46812200D02*
X104521000Y-46812200D01*
X104521000Y-48920400D01*
X102387400Y-48920400D01*
X102387400Y-46812200D01*
X109910000Y-47890000D02*
X110620000Y-47890000D01*
X104546400Y-39433500D02*
X113106200Y-39433500D01*
X113106200Y-54952900D01*
X104546400Y-54952900D01*
X104546400Y-39433500D01*
X112440000Y-47890000D02*
X113080000Y-47890000D01*
X105617651Y-39044299D02*
X104117651Y-39044299D01*
X105483066Y-40106779D02*
X105483066Y-40868684D01*
X105864019Y-40487731D02*
X105102114Y-40487731D01*
X104864019Y-41249636D02*
X104864019Y-41868683D01*
X104864019Y-41868683D02*
X105244971Y-41535350D01*
X105244971Y-41535350D02*
X105244971Y-41678207D01*
X105244971Y-41678207D02*
X105292590Y-41773445D01*
X105292590Y-41773445D02*
X105340209Y-41821064D01*
X105340209Y-41821064D02*
X105435447Y-41868683D01*
X105435447Y-41868683D02*
X105673542Y-41868683D01*
X105673542Y-41868683D02*
X105768780Y-41821064D01*
X105768780Y-41821064D02*
X105816400Y-41773445D01*
X105816400Y-41773445D02*
X105864019Y-41678207D01*
X105864019Y-41678207D02*
X105864019Y-41392493D01*
X105864019Y-41392493D02*
X105816400Y-41297255D01*
X105816400Y-41297255D02*
X105768780Y-41249636D01*
X105768780Y-42297255D02*
X105816400Y-42344874D01*
X105816400Y-42344874D02*
X105864019Y-42297255D01*
X105864019Y-42297255D02*
X105816400Y-42249636D01*
X105816400Y-42249636D02*
X105768780Y-42297255D01*
X105768780Y-42297255D02*
X105864019Y-42297255D01*
X104864019Y-42678207D02*
X104864019Y-43297254D01*
X104864019Y-43297254D02*
X105244971Y-42963921D01*
X105244971Y-42963921D02*
X105244971Y-43106778D01*
X105244971Y-43106778D02*
X105292590Y-43202016D01*
X105292590Y-43202016D02*
X105340209Y-43249635D01*
X105340209Y-43249635D02*
X105435447Y-43297254D01*
X105435447Y-43297254D02*
X105673542Y-43297254D01*
X105673542Y-43297254D02*
X105768780Y-43249635D01*
X105768780Y-43249635D02*
X105816400Y-43202016D01*
X105816400Y-43202016D02*
X105864019Y-43106778D01*
X105864019Y-43106778D02*
X105864019Y-42821064D01*
X105864019Y-42821064D02*
X105816400Y-42725826D01*
X105816400Y-42725826D02*
X105768780Y-42678207D01*
X104864019Y-43582969D02*
X105864019Y-43916302D01*
X105864019Y-43916302D02*
X104864019Y-44249635D01*
X111887438Y-49450588D02*
X111839819Y-49355350D01*
X111839819Y-49355350D02*
X111839819Y-49212493D01*
X111839819Y-49212493D02*
X111887438Y-49069636D01*
X111887438Y-49069636D02*
X111982676Y-48974398D01*
X111982676Y-48974398D02*
X112077914Y-48926779D01*
X112077914Y-48926779D02*
X112268390Y-48879160D01*
X112268390Y-48879160D02*
X112411247Y-48879160D01*
X112411247Y-48879160D02*
X112601723Y-48926779D01*
X112601723Y-48926779D02*
X112696961Y-48974398D01*
X112696961Y-48974398D02*
X112792200Y-49069636D01*
X112792200Y-49069636D02*
X112839819Y-49212493D01*
X112839819Y-49212493D02*
X112839819Y-49307731D01*
X112839819Y-49307731D02*
X112792200Y-49450588D01*
X112792200Y-49450588D02*
X112744580Y-49498207D01*
X112744580Y-49498207D02*
X112411247Y-49498207D01*
X112411247Y-49498207D02*
X112411247Y-49307731D01*
X112839819Y-49926779D02*
X111839819Y-49926779D01*
X111839819Y-49926779D02*
X112839819Y-50498207D01*
X112839819Y-50498207D02*
X111839819Y-50498207D01*
X112839819Y-50974398D02*
X111839819Y-50974398D01*
X111839819Y-50974398D02*
X111839819Y-51212493D01*
X111839819Y-51212493D02*
X111887438Y-51355350D01*
X111887438Y-51355350D02*
X111982676Y-51450588D01*
X111982676Y-51450588D02*
X112077914Y-51498207D01*
X112077914Y-51498207D02*
X112268390Y-51545826D01*
X112268390Y-51545826D02*
X112411247Y-51545826D01*
X112411247Y-51545826D02*
X112601723Y-51498207D01*
X112601723Y-51498207D02*
X112696961Y-51450588D01*
X112696961Y-51450588D02*
X112792200Y-51355350D01*
X112792200Y-51355350D02*
X112839819Y-51212493D01*
X112839819Y-51212493D02*
X112839819Y-50974398D01*
X110507438Y-49450588D02*
X110459819Y-49355350D01*
X110459819Y-49355350D02*
X110459819Y-49212493D01*
X110459819Y-49212493D02*
X110507438Y-49069636D01*
X110507438Y-49069636D02*
X110602676Y-48974398D01*
X110602676Y-48974398D02*
X110697914Y-48926779D01*
X110697914Y-48926779D02*
X110888390Y-48879160D01*
X110888390Y-48879160D02*
X111031247Y-48879160D01*
X111031247Y-48879160D02*
X111221723Y-48926779D01*
X111221723Y-48926779D02*
X111316961Y-48974398D01*
X111316961Y-48974398D02*
X111412200Y-49069636D01*
X111412200Y-49069636D02*
X111459819Y-49212493D01*
X111459819Y-49212493D02*
X111459819Y-49307731D01*
X111459819Y-49307731D02*
X111412200Y-49450588D01*
X111412200Y-49450588D02*
X111364580Y-49498207D01*
X111364580Y-49498207D02*
X111031247Y-49498207D01*
X111031247Y-49498207D02*
X111031247Y-49307731D01*
X111459819Y-49926779D02*
X110459819Y-49926779D01*
X110459819Y-49926779D02*
X110459819Y-50307731D01*
X110459819Y-50307731D02*
X110507438Y-50402969D01*
X110507438Y-50402969D02*
X110555057Y-50450588D01*
X110555057Y-50450588D02*
X110650295Y-50498207D01*
X110650295Y-50498207D02*
X110793152Y-50498207D01*
X110793152Y-50498207D02*
X110888390Y-50450588D01*
X110888390Y-50450588D02*
X110936009Y-50402969D01*
X110936009Y-50402969D02*
X110983628Y-50307731D01*
X110983628Y-50307731D02*
X110983628Y-49926779D01*
X111459819Y-50926779D02*
X110459819Y-50926779D01*
X110459819Y-51593445D02*
X110459819Y-51783921D01*
X110459819Y-51783921D02*
X110507438Y-51879159D01*
X110507438Y-51879159D02*
X110602676Y-51974397D01*
X110602676Y-51974397D02*
X110793152Y-52022016D01*
X110793152Y-52022016D02*
X111126485Y-52022016D01*
X111126485Y-52022016D02*
X111316961Y-51974397D01*
X111316961Y-51974397D02*
X111412200Y-51879159D01*
X111412200Y-51879159D02*
X111459819Y-51783921D01*
X111459819Y-51783921D02*
X111459819Y-51593445D01*
X111459819Y-51593445D02*
X111412200Y-51498207D01*
X111412200Y-51498207D02*
X111316961Y-51402969D01*
X111316961Y-51402969D02*
X111126485Y-51355350D01*
X111126485Y-51355350D02*
X110793152Y-51355350D01*
X110793152Y-51355350D02*
X110602676Y-51402969D01*
X110602676Y-51402969D02*
X110507438Y-51498207D01*
X110507438Y-51498207D02*
X110459819Y-51593445D01*
X110555057Y-52402969D02*
X110507438Y-52450588D01*
X110507438Y-52450588D02*
X110459819Y-52545826D01*
X110459819Y-52545826D02*
X110459819Y-52783921D01*
X110459819Y-52783921D02*
X110507438Y-52879159D01*
X110507438Y-52879159D02*
X110555057Y-52926778D01*
X110555057Y-52926778D02*
X110650295Y-52974397D01*
X110650295Y-52974397D02*
X110745533Y-52974397D01*
X110745533Y-52974397D02*
X110888390Y-52926778D01*
X110888390Y-52926778D02*
X111459819Y-52355350D01*
X111459819Y-52355350D02*
X111459819Y-52974397D01*
X111452019Y-40125879D02*
X110452019Y-40125879D01*
X110547257Y-40554450D02*
X110499638Y-40602069D01*
X110499638Y-40602069D02*
X110452019Y-40697307D01*
X110452019Y-40697307D02*
X110452019Y-40935402D01*
X110452019Y-40935402D02*
X110499638Y-41030640D01*
X110499638Y-41030640D02*
X110547257Y-41078259D01*
X110547257Y-41078259D02*
X110642495Y-41125878D01*
X110642495Y-41125878D02*
X110737733Y-41125878D01*
X110737733Y-41125878D02*
X110880590Y-41078259D01*
X110880590Y-41078259D02*
X111452019Y-40506831D01*
X111452019Y-40506831D02*
X111452019Y-41125878D01*
X111404400Y-41506831D02*
X111452019Y-41649688D01*
X111452019Y-41649688D02*
X111452019Y-41887783D01*
X111452019Y-41887783D02*
X111404400Y-41983021D01*
X111404400Y-41983021D02*
X111356780Y-42030640D01*
X111356780Y-42030640D02*
X111261542Y-42078259D01*
X111261542Y-42078259D02*
X111166304Y-42078259D01*
X111166304Y-42078259D02*
X111071066Y-42030640D01*
X111071066Y-42030640D02*
X111023447Y-41983021D01*
X111023447Y-41983021D02*
X110975828Y-41887783D01*
X110975828Y-41887783D02*
X110928209Y-41697307D01*
X110928209Y-41697307D02*
X110880590Y-41602069D01*
X110880590Y-41602069D02*
X110832971Y-41554450D01*
X110832971Y-41554450D02*
X110737733Y-41506831D01*
X110737733Y-41506831D02*
X110642495Y-41506831D01*
X110642495Y-41506831D02*
X110547257Y-41554450D01*
X110547257Y-41554450D02*
X110499638Y-41602069D01*
X110499638Y-41602069D02*
X110452019Y-41697307D01*
X110452019Y-41697307D02*
X110452019Y-41935402D01*
X110452019Y-41935402D02*
X110499638Y-42078259D01*
X111547257Y-42268736D02*
X111547257Y-43030640D01*
X110452019Y-43173498D02*
X111452019Y-43411593D01*
X111452019Y-43411593D02*
X110737733Y-43602069D01*
X110737733Y-43602069D02*
X111452019Y-43792545D01*
X111452019Y-43792545D02*
X110452019Y-44030641D01*
X111356780Y-44983021D02*
X111404400Y-44935402D01*
X111404400Y-44935402D02*
X111452019Y-44792545D01*
X111452019Y-44792545D02*
X111452019Y-44697307D01*
X111452019Y-44697307D02*
X111404400Y-44554450D01*
X111404400Y-44554450D02*
X111309161Y-44459212D01*
X111309161Y-44459212D02*
X111213923Y-44411593D01*
X111213923Y-44411593D02*
X111023447Y-44363974D01*
X111023447Y-44363974D02*
X110880590Y-44363974D01*
X110880590Y-44363974D02*
X110690114Y-44411593D01*
X110690114Y-44411593D02*
X110594876Y-44459212D01*
X110594876Y-44459212D02*
X110499638Y-44554450D01*
X110499638Y-44554450D02*
X110452019Y-44697307D01*
X110452019Y-44697307D02*
X110452019Y-44792545D01*
X110452019Y-44792545D02*
X110499638Y-44935402D01*
X110499638Y-44935402D02*
X110547257Y-44983021D01*
X111452019Y-45887783D02*
X111452019Y-45411593D01*
X111452019Y-45411593D02*
X110452019Y-45411593D01*
X111452019Y-46221117D02*
X110452019Y-46221117D01*
X111452019Y-46792545D02*
X110880590Y-46363974D01*
X110452019Y-46792545D02*
X111023447Y-46221117D01*
X110080419Y-40125879D02*
X109080419Y-40125879D01*
X109175657Y-40554450D02*
X109128038Y-40602069D01*
X109128038Y-40602069D02*
X109080419Y-40697307D01*
X109080419Y-40697307D02*
X109080419Y-40935402D01*
X109080419Y-40935402D02*
X109128038Y-41030640D01*
X109128038Y-41030640D02*
X109175657Y-41078259D01*
X109175657Y-41078259D02*
X109270895Y-41125878D01*
X109270895Y-41125878D02*
X109366133Y-41125878D01*
X109366133Y-41125878D02*
X109508990Y-41078259D01*
X109508990Y-41078259D02*
X110080419Y-40506831D01*
X110080419Y-40506831D02*
X110080419Y-41125878D01*
X110032800Y-41506831D02*
X110080419Y-41649688D01*
X110080419Y-41649688D02*
X110080419Y-41887783D01*
X110080419Y-41887783D02*
X110032800Y-41983021D01*
X110032800Y-41983021D02*
X109985180Y-42030640D01*
X109985180Y-42030640D02*
X109889942Y-42078259D01*
X109889942Y-42078259D02*
X109794704Y-42078259D01*
X109794704Y-42078259D02*
X109699466Y-42030640D01*
X109699466Y-42030640D02*
X109651847Y-41983021D01*
X109651847Y-41983021D02*
X109604228Y-41887783D01*
X109604228Y-41887783D02*
X109556609Y-41697307D01*
X109556609Y-41697307D02*
X109508990Y-41602069D01*
X109508990Y-41602069D02*
X109461371Y-41554450D01*
X109461371Y-41554450D02*
X109366133Y-41506831D01*
X109366133Y-41506831D02*
X109270895Y-41506831D01*
X109270895Y-41506831D02*
X109175657Y-41554450D01*
X109175657Y-41554450D02*
X109128038Y-41602069D01*
X109128038Y-41602069D02*
X109080419Y-41697307D01*
X109080419Y-41697307D02*
X109080419Y-41935402D01*
X109080419Y-41935402D02*
X109128038Y-42078259D01*
X110175657Y-42268736D02*
X110175657Y-43030640D01*
X110080419Y-43268736D02*
X109080419Y-43268736D01*
X109080419Y-43268736D02*
X109080419Y-43506831D01*
X109080419Y-43506831D02*
X109128038Y-43649688D01*
X109128038Y-43649688D02*
X109223276Y-43744926D01*
X109223276Y-43744926D02*
X109318514Y-43792545D01*
X109318514Y-43792545D02*
X109508990Y-43840164D01*
X109508990Y-43840164D02*
X109651847Y-43840164D01*
X109651847Y-43840164D02*
X109842323Y-43792545D01*
X109842323Y-43792545D02*
X109937561Y-43744926D01*
X109937561Y-43744926D02*
X110032800Y-43649688D01*
X110032800Y-43649688D02*
X110080419Y-43506831D01*
X110080419Y-43506831D02*
X110080419Y-43268736D01*
X109080419Y-44459212D02*
X109080419Y-44649688D01*
X109080419Y-44649688D02*
X109128038Y-44744926D01*
X109128038Y-44744926D02*
X109223276Y-44840164D01*
X109223276Y-44840164D02*
X109413752Y-44887783D01*
X109413752Y-44887783D02*
X109747085Y-44887783D01*
X109747085Y-44887783D02*
X109937561Y-44840164D01*
X109937561Y-44840164D02*
X110032800Y-44744926D01*
X110032800Y-44744926D02*
X110080419Y-44649688D01*
X110080419Y-44649688D02*
X110080419Y-44459212D01*
X110080419Y-44459212D02*
X110032800Y-44363974D01*
X110032800Y-44363974D02*
X109937561Y-44268736D01*
X109937561Y-44268736D02*
X109747085Y-44221117D01*
X109747085Y-44221117D02*
X109413752Y-44221117D01*
X109413752Y-44221117D02*
X109223276Y-44268736D01*
X109223276Y-44268736D02*
X109128038Y-44363974D01*
X109128038Y-44363974D02*
X109080419Y-44459212D01*
X109080419Y-45316355D02*
X109889942Y-45316355D01*
X109889942Y-45316355D02*
X109985180Y-45363974D01*
X109985180Y-45363974D02*
X110032800Y-45411593D01*
X110032800Y-45411593D02*
X110080419Y-45506831D01*
X110080419Y-45506831D02*
X110080419Y-45697307D01*
X110080419Y-45697307D02*
X110032800Y-45792545D01*
X110032800Y-45792545D02*
X109985180Y-45840164D01*
X109985180Y-45840164D02*
X109889942Y-45887783D01*
X109889942Y-45887783D02*
X109080419Y-45887783D01*
X109080419Y-46221117D02*
X109080419Y-46792545D01*
X110080419Y-46506831D02*
X109080419Y-46506831D01*
X108499819Y-48996779D02*
X107499819Y-48996779D01*
X107595057Y-49425350D02*
X107547438Y-49472969D01*
X107547438Y-49472969D02*
X107499819Y-49568207D01*
X107499819Y-49568207D02*
X107499819Y-49806302D01*
X107499819Y-49806302D02*
X107547438Y-49901540D01*
X107547438Y-49901540D02*
X107595057Y-49949159D01*
X107595057Y-49949159D02*
X107690295Y-49996778D01*
X107690295Y-49996778D02*
X107785533Y-49996778D01*
X107785533Y-49996778D02*
X107928390Y-49949159D01*
X107928390Y-49949159D02*
X108499819Y-49377731D01*
X108499819Y-49377731D02*
X108499819Y-49996778D01*
X108404580Y-50996778D02*
X108452200Y-50949159D01*
X108452200Y-50949159D02*
X108499819Y-50806302D01*
X108499819Y-50806302D02*
X108499819Y-50711064D01*
X108499819Y-50711064D02*
X108452200Y-50568207D01*
X108452200Y-50568207D02*
X108356961Y-50472969D01*
X108356961Y-50472969D02*
X108261723Y-50425350D01*
X108261723Y-50425350D02*
X108071247Y-50377731D01*
X108071247Y-50377731D02*
X107928390Y-50377731D01*
X107928390Y-50377731D02*
X107737914Y-50425350D01*
X107737914Y-50425350D02*
X107642676Y-50472969D01*
X107642676Y-50472969D02*
X107547438Y-50568207D01*
X107547438Y-50568207D02*
X107499819Y-50711064D01*
X107499819Y-50711064D02*
X107499819Y-50806302D01*
X107499819Y-50806302D02*
X107547438Y-50949159D01*
X107547438Y-50949159D02*
X107595057Y-50996778D01*
X108595057Y-51187255D02*
X108595057Y-51949159D01*
X108452200Y-52139636D02*
X108499819Y-52282493D01*
X108499819Y-52282493D02*
X108499819Y-52520588D01*
X108499819Y-52520588D02*
X108452200Y-52615826D01*
X108452200Y-52615826D02*
X108404580Y-52663445D01*
X108404580Y-52663445D02*
X108309342Y-52711064D01*
X108309342Y-52711064D02*
X108214104Y-52711064D01*
X108214104Y-52711064D02*
X108118866Y-52663445D01*
X108118866Y-52663445D02*
X108071247Y-52615826D01*
X108071247Y-52615826D02*
X108023628Y-52520588D01*
X108023628Y-52520588D02*
X107976009Y-52330112D01*
X107976009Y-52330112D02*
X107928390Y-52234874D01*
X107928390Y-52234874D02*
X107880771Y-52187255D01*
X107880771Y-52187255D02*
X107785533Y-52139636D01*
X107785533Y-52139636D02*
X107690295Y-52139636D01*
X107690295Y-52139636D02*
X107595057Y-52187255D01*
X107595057Y-52187255D02*
X107547438Y-52234874D01*
X107547438Y-52234874D02*
X107499819Y-52330112D01*
X107499819Y-52330112D02*
X107499819Y-52568207D01*
X107499819Y-52568207D02*
X107547438Y-52711064D01*
X108404580Y-53711064D02*
X108452200Y-53663445D01*
X108452200Y-53663445D02*
X108499819Y-53520588D01*
X108499819Y-53520588D02*
X108499819Y-53425350D01*
X108499819Y-53425350D02*
X108452200Y-53282493D01*
X108452200Y-53282493D02*
X108356961Y-53187255D01*
X108356961Y-53187255D02*
X108261723Y-53139636D01*
X108261723Y-53139636D02*
X108071247Y-53092017D01*
X108071247Y-53092017D02*
X107928390Y-53092017D01*
X107928390Y-53092017D02*
X107737914Y-53139636D01*
X107737914Y-53139636D02*
X107642676Y-53187255D01*
X107642676Y-53187255D02*
X107547438Y-53282493D01*
X107547438Y-53282493D02*
X107499819Y-53425350D01*
X107499819Y-53425350D02*
X107499819Y-53520588D01*
X107499819Y-53520588D02*
X107547438Y-53663445D01*
X107547438Y-53663445D02*
X107595057Y-53711064D01*
X108499819Y-54615826D02*
X108499819Y-54139636D01*
X108499819Y-54139636D02*
X107499819Y-54139636D01*
X109027438Y-49470588D02*
X108979819Y-49375350D01*
X108979819Y-49375350D02*
X108979819Y-49232493D01*
X108979819Y-49232493D02*
X109027438Y-49089636D01*
X109027438Y-49089636D02*
X109122676Y-48994398D01*
X109122676Y-48994398D02*
X109217914Y-48946779D01*
X109217914Y-48946779D02*
X109408390Y-48899160D01*
X109408390Y-48899160D02*
X109551247Y-48899160D01*
X109551247Y-48899160D02*
X109741723Y-48946779D01*
X109741723Y-48946779D02*
X109836961Y-48994398D01*
X109836961Y-48994398D02*
X109932200Y-49089636D01*
X109932200Y-49089636D02*
X109979819Y-49232493D01*
X109979819Y-49232493D02*
X109979819Y-49327731D01*
X109979819Y-49327731D02*
X109932200Y-49470588D01*
X109932200Y-49470588D02*
X109884580Y-49518207D01*
X109884580Y-49518207D02*
X109551247Y-49518207D01*
X109551247Y-49518207D02*
X109551247Y-49327731D01*
X109979819Y-49946779D02*
X108979819Y-49946779D01*
X108979819Y-49946779D02*
X108979819Y-50327731D01*
X108979819Y-50327731D02*
X109027438Y-50422969D01*
X109027438Y-50422969D02*
X109075057Y-50470588D01*
X109075057Y-50470588D02*
X109170295Y-50518207D01*
X109170295Y-50518207D02*
X109313152Y-50518207D01*
X109313152Y-50518207D02*
X109408390Y-50470588D01*
X109408390Y-50470588D02*
X109456009Y-50422969D01*
X109456009Y-50422969D02*
X109503628Y-50327731D01*
X109503628Y-50327731D02*
X109503628Y-49946779D01*
X109979819Y-50946779D02*
X108979819Y-50946779D01*
X108979819Y-51613445D02*
X108979819Y-51803921D01*
X108979819Y-51803921D02*
X109027438Y-51899159D01*
X109027438Y-51899159D02*
X109122676Y-51994397D01*
X109122676Y-51994397D02*
X109313152Y-52042016D01*
X109313152Y-52042016D02*
X109646485Y-52042016D01*
X109646485Y-52042016D02*
X109836961Y-51994397D01*
X109836961Y-51994397D02*
X109932200Y-51899159D01*
X109932200Y-51899159D02*
X109979819Y-51803921D01*
X109979819Y-51803921D02*
X109979819Y-51613445D01*
X109979819Y-51613445D02*
X109932200Y-51518207D01*
X109932200Y-51518207D02*
X109836961Y-51422969D01*
X109836961Y-51422969D02*
X109646485Y-51375350D01*
X109646485Y-51375350D02*
X109313152Y-51375350D01*
X109313152Y-51375350D02*
X109122676Y-51422969D01*
X109122676Y-51422969D02*
X109027438Y-51518207D01*
X109027438Y-51518207D02*
X108979819Y-51613445D01*
X109979819Y-52994397D02*
X109979819Y-52422969D01*
X109979819Y-52708683D02*
X108979819Y-52708683D01*
X108979819Y-52708683D02*
X109122676Y-52613445D01*
X109122676Y-52613445D02*
X109217914Y-52518207D01*
X109217914Y-52518207D02*
X109265533Y-52422969D01*
X107286419Y-40075079D02*
X106286419Y-40075079D01*
X106381657Y-40503650D02*
X106334038Y-40551269D01*
X106334038Y-40551269D02*
X106286419Y-40646507D01*
X106286419Y-40646507D02*
X106286419Y-40884602D01*
X106286419Y-40884602D02*
X106334038Y-40979840D01*
X106334038Y-40979840D02*
X106381657Y-41027459D01*
X106381657Y-41027459D02*
X106476895Y-41075078D01*
X106476895Y-41075078D02*
X106572133Y-41075078D01*
X106572133Y-41075078D02*
X106714990Y-41027459D01*
X106714990Y-41027459D02*
X107286419Y-40456031D01*
X107286419Y-40456031D02*
X107286419Y-41075078D01*
X107238800Y-41456031D02*
X107286419Y-41598888D01*
X107286419Y-41598888D02*
X107286419Y-41836983D01*
X107286419Y-41836983D02*
X107238800Y-41932221D01*
X107238800Y-41932221D02*
X107191180Y-41979840D01*
X107191180Y-41979840D02*
X107095942Y-42027459D01*
X107095942Y-42027459D02*
X107000704Y-42027459D01*
X107000704Y-42027459D02*
X106905466Y-41979840D01*
X106905466Y-41979840D02*
X106857847Y-41932221D01*
X106857847Y-41932221D02*
X106810228Y-41836983D01*
X106810228Y-41836983D02*
X106762609Y-41646507D01*
X106762609Y-41646507D02*
X106714990Y-41551269D01*
X106714990Y-41551269D02*
X106667371Y-41503650D01*
X106667371Y-41503650D02*
X106572133Y-41456031D01*
X106572133Y-41456031D02*
X106476895Y-41456031D01*
X106476895Y-41456031D02*
X106381657Y-41503650D01*
X106381657Y-41503650D02*
X106334038Y-41551269D01*
X106334038Y-41551269D02*
X106286419Y-41646507D01*
X106286419Y-41646507D02*
X106286419Y-41884602D01*
X106286419Y-41884602D02*
X106334038Y-42027459D01*
X107381657Y-42217936D02*
X107381657Y-42979840D01*
X106762609Y-43551269D02*
X106810228Y-43694126D01*
X106810228Y-43694126D02*
X106857847Y-43741745D01*
X106857847Y-43741745D02*
X106953085Y-43789364D01*
X106953085Y-43789364D02*
X107095942Y-43789364D01*
X107095942Y-43789364D02*
X107191180Y-43741745D01*
X107191180Y-43741745D02*
X107238800Y-43694126D01*
X107238800Y-43694126D02*
X107286419Y-43598888D01*
X107286419Y-43598888D02*
X107286419Y-43217936D01*
X107286419Y-43217936D02*
X106286419Y-43217936D01*
X106286419Y-43217936D02*
X106286419Y-43551269D01*
X106286419Y-43551269D02*
X106334038Y-43646507D01*
X106334038Y-43646507D02*
X106381657Y-43694126D01*
X106381657Y-43694126D02*
X106476895Y-43741745D01*
X106476895Y-43741745D02*
X106572133Y-43741745D01*
X106572133Y-43741745D02*
X106667371Y-43694126D01*
X106667371Y-43694126D02*
X106714990Y-43646507D01*
X106714990Y-43646507D02*
X106762609Y-43551269D01*
X106762609Y-43551269D02*
X106762609Y-43217936D01*
X107191180Y-44789364D02*
X107238800Y-44741745D01*
X107238800Y-44741745D02*
X107286419Y-44598888D01*
X107286419Y-44598888D02*
X107286419Y-44503650D01*
X107286419Y-44503650D02*
X107238800Y-44360793D01*
X107238800Y-44360793D02*
X107143561Y-44265555D01*
X107143561Y-44265555D02*
X107048323Y-44217936D01*
X107048323Y-44217936D02*
X106857847Y-44170317D01*
X106857847Y-44170317D02*
X106714990Y-44170317D01*
X106714990Y-44170317D02*
X106524514Y-44217936D01*
X106524514Y-44217936D02*
X106429276Y-44265555D01*
X106429276Y-44265555D02*
X106334038Y-44360793D01*
X106334038Y-44360793D02*
X106286419Y-44503650D01*
X106286419Y-44503650D02*
X106286419Y-44598888D01*
X106286419Y-44598888D02*
X106334038Y-44741745D01*
X106334038Y-44741745D02*
X106381657Y-44789364D01*
X107286419Y-45694126D02*
X107286419Y-45217936D01*
X107286419Y-45217936D02*
X106286419Y-45217936D01*
X107286419Y-46027460D02*
X106286419Y-46027460D01*
X107286419Y-46598888D02*
X106714990Y-46170317D01*
X106286419Y-46598888D02*
X106857847Y-46027460D01*
X107089819Y-48976779D02*
X106089819Y-48976779D01*
X106185057Y-49405350D02*
X106137438Y-49452969D01*
X106137438Y-49452969D02*
X106089819Y-49548207D01*
X106089819Y-49548207D02*
X106089819Y-49786302D01*
X106089819Y-49786302D02*
X106137438Y-49881540D01*
X106137438Y-49881540D02*
X106185057Y-49929159D01*
X106185057Y-49929159D02*
X106280295Y-49976778D01*
X106280295Y-49976778D02*
X106375533Y-49976778D01*
X106375533Y-49976778D02*
X106518390Y-49929159D01*
X106518390Y-49929159D02*
X107089819Y-49357731D01*
X107089819Y-49357731D02*
X107089819Y-49976778D01*
X106994580Y-50976778D02*
X107042200Y-50929159D01*
X107042200Y-50929159D02*
X107089819Y-50786302D01*
X107089819Y-50786302D02*
X107089819Y-50691064D01*
X107089819Y-50691064D02*
X107042200Y-50548207D01*
X107042200Y-50548207D02*
X106946961Y-50452969D01*
X106946961Y-50452969D02*
X106851723Y-50405350D01*
X106851723Y-50405350D02*
X106661247Y-50357731D01*
X106661247Y-50357731D02*
X106518390Y-50357731D01*
X106518390Y-50357731D02*
X106327914Y-50405350D01*
X106327914Y-50405350D02*
X106232676Y-50452969D01*
X106232676Y-50452969D02*
X106137438Y-50548207D01*
X106137438Y-50548207D02*
X106089819Y-50691064D01*
X106089819Y-50691064D02*
X106089819Y-50786302D01*
X106089819Y-50786302D02*
X106137438Y-50929159D01*
X106137438Y-50929159D02*
X106185057Y-50976778D01*
X107185057Y-51167255D02*
X107185057Y-51929159D01*
X107042200Y-52119636D02*
X107089819Y-52262493D01*
X107089819Y-52262493D02*
X107089819Y-52500588D01*
X107089819Y-52500588D02*
X107042200Y-52595826D01*
X107042200Y-52595826D02*
X106994580Y-52643445D01*
X106994580Y-52643445D02*
X106899342Y-52691064D01*
X106899342Y-52691064D02*
X106804104Y-52691064D01*
X106804104Y-52691064D02*
X106708866Y-52643445D01*
X106708866Y-52643445D02*
X106661247Y-52595826D01*
X106661247Y-52595826D02*
X106613628Y-52500588D01*
X106613628Y-52500588D02*
X106566009Y-52310112D01*
X106566009Y-52310112D02*
X106518390Y-52214874D01*
X106518390Y-52214874D02*
X106470771Y-52167255D01*
X106470771Y-52167255D02*
X106375533Y-52119636D01*
X106375533Y-52119636D02*
X106280295Y-52119636D01*
X106280295Y-52119636D02*
X106185057Y-52167255D01*
X106185057Y-52167255D02*
X106137438Y-52214874D01*
X106137438Y-52214874D02*
X106089819Y-52310112D01*
X106089819Y-52310112D02*
X106089819Y-52548207D01*
X106089819Y-52548207D02*
X106137438Y-52691064D01*
X107089819Y-53119636D02*
X106089819Y-53119636D01*
X106089819Y-53119636D02*
X106089819Y-53357731D01*
X106089819Y-53357731D02*
X106137438Y-53500588D01*
X106137438Y-53500588D02*
X106232676Y-53595826D01*
X106232676Y-53595826D02*
X106327914Y-53643445D01*
X106327914Y-53643445D02*
X106518390Y-53691064D01*
X106518390Y-53691064D02*
X106661247Y-53691064D01*
X106661247Y-53691064D02*
X106851723Y-53643445D01*
X106851723Y-53643445D02*
X106946961Y-53595826D01*
X106946961Y-53595826D02*
X107042200Y-53500588D01*
X107042200Y-53500588D02*
X107089819Y-53357731D01*
X107089819Y-53357731D02*
X107089819Y-53119636D01*
X106804104Y-54072017D02*
X106804104Y-54548207D01*
X107089819Y-53976779D02*
X106089819Y-54310112D01*
X106089819Y-54310112D02*
X107089819Y-54643445D01*
X105358866Y-48901379D02*
X105358866Y-49663284D01*
X105739819Y-49282331D02*
X104977914Y-49282331D01*
X105739819Y-50663283D02*
X105739819Y-50091855D01*
X105739819Y-50377569D02*
X104739819Y-50377569D01*
X104739819Y-50377569D02*
X104882676Y-50282331D01*
X104882676Y-50282331D02*
X104977914Y-50187093D01*
X104977914Y-50187093D02*
X105025533Y-50091855D01*
X105644580Y-51091855D02*
X105692200Y-51139474D01*
X105692200Y-51139474D02*
X105739819Y-51091855D01*
X105739819Y-51091855D02*
X105692200Y-51044236D01*
X105692200Y-51044236D02*
X105644580Y-51091855D01*
X105644580Y-51091855D02*
X105739819Y-51091855D01*
X105168390Y-51710902D02*
X105120771Y-51615664D01*
X105120771Y-51615664D02*
X105073152Y-51568045D01*
X105073152Y-51568045D02*
X104977914Y-51520426D01*
X104977914Y-51520426D02*
X104930295Y-51520426D01*
X104930295Y-51520426D02*
X104835057Y-51568045D01*
X104835057Y-51568045D02*
X104787438Y-51615664D01*
X104787438Y-51615664D02*
X104739819Y-51710902D01*
X104739819Y-51710902D02*
X104739819Y-51901378D01*
X104739819Y-51901378D02*
X104787438Y-51996616D01*
X104787438Y-51996616D02*
X104835057Y-52044235D01*
X104835057Y-52044235D02*
X104930295Y-52091854D01*
X104930295Y-52091854D02*
X104977914Y-52091854D01*
X104977914Y-52091854D02*
X105073152Y-52044235D01*
X105073152Y-52044235D02*
X105120771Y-51996616D01*
X105120771Y-51996616D02*
X105168390Y-51901378D01*
X105168390Y-51901378D02*
X105168390Y-51710902D01*
X105168390Y-51710902D02*
X105216009Y-51615664D01*
X105216009Y-51615664D02*
X105263628Y-51568045D01*
X105263628Y-51568045D02*
X105358866Y-51520426D01*
X105358866Y-51520426D02*
X105549342Y-51520426D01*
X105549342Y-51520426D02*
X105644580Y-51568045D01*
X105644580Y-51568045D02*
X105692200Y-51615664D01*
X105692200Y-51615664D02*
X105739819Y-51710902D01*
X105739819Y-51710902D02*
X105739819Y-51901378D01*
X105739819Y-51901378D02*
X105692200Y-51996616D01*
X105692200Y-51996616D02*
X105644580Y-52044235D01*
X105644580Y-52044235D02*
X105549342Y-52091854D01*
X105549342Y-52091854D02*
X105358866Y-52091854D01*
X105358866Y-52091854D02*
X105263628Y-52044235D01*
X105263628Y-52044235D02*
X105216009Y-51996616D01*
X105216009Y-51996616D02*
X105168390Y-51901378D01*
X104739819Y-52377569D02*
X105739819Y-52710902D01*
X105739819Y-52710902D02*
X104739819Y-53044235D01*
X111862038Y-40630088D02*
X111814419Y-40534850D01*
X111814419Y-40534850D02*
X111814419Y-40391993D01*
X111814419Y-40391993D02*
X111862038Y-40249136D01*
X111862038Y-40249136D02*
X111957276Y-40153898D01*
X111957276Y-40153898D02*
X112052514Y-40106279D01*
X112052514Y-40106279D02*
X112242990Y-40058660D01*
X112242990Y-40058660D02*
X112385847Y-40058660D01*
X112385847Y-40058660D02*
X112576323Y-40106279D01*
X112576323Y-40106279D02*
X112671561Y-40153898D01*
X112671561Y-40153898D02*
X112766800Y-40249136D01*
X112766800Y-40249136D02*
X112814419Y-40391993D01*
X112814419Y-40391993D02*
X112814419Y-40487231D01*
X112814419Y-40487231D02*
X112766800Y-40630088D01*
X112766800Y-40630088D02*
X112719180Y-40677707D01*
X112719180Y-40677707D02*
X112385847Y-40677707D01*
X112385847Y-40677707D02*
X112385847Y-40487231D01*
X112814419Y-41106279D02*
X111814419Y-41106279D01*
X111814419Y-41106279D02*
X112814419Y-41677707D01*
X112814419Y-41677707D02*
X111814419Y-41677707D01*
X112814419Y-42153898D02*
X111814419Y-42153898D01*
X111814419Y-42153898D02*
X111814419Y-42391993D01*
X111814419Y-42391993D02*
X111862038Y-42534850D01*
X111862038Y-42534850D02*
X111957276Y-42630088D01*
X111957276Y-42630088D02*
X112052514Y-42677707D01*
X112052514Y-42677707D02*
X112242990Y-42725326D01*
X112242990Y-42725326D02*
X112385847Y-42725326D01*
X112385847Y-42725326D02*
X112576323Y-42677707D01*
X112576323Y-42677707D02*
X112671561Y-42630088D01*
X112671561Y-42630088D02*
X112766800Y-42534850D01*
X112766800Y-42534850D02*
X112814419Y-42391993D01*
X112814419Y-42391993D02*
X112814419Y-42153898D01*
X108708819Y-40125879D02*
X107708819Y-40125879D01*
X107804057Y-40554450D02*
X107756438Y-40602069D01*
X107756438Y-40602069D02*
X107708819Y-40697307D01*
X107708819Y-40697307D02*
X107708819Y-40935402D01*
X107708819Y-40935402D02*
X107756438Y-41030640D01*
X107756438Y-41030640D02*
X107804057Y-41078259D01*
X107804057Y-41078259D02*
X107899295Y-41125878D01*
X107899295Y-41125878D02*
X107994533Y-41125878D01*
X107994533Y-41125878D02*
X108137390Y-41078259D01*
X108137390Y-41078259D02*
X108708819Y-40506831D01*
X108708819Y-40506831D02*
X108708819Y-41125878D01*
X108661200Y-41506831D02*
X108708819Y-41649688D01*
X108708819Y-41649688D02*
X108708819Y-41887783D01*
X108708819Y-41887783D02*
X108661200Y-41983021D01*
X108661200Y-41983021D02*
X108613580Y-42030640D01*
X108613580Y-42030640D02*
X108518342Y-42078259D01*
X108518342Y-42078259D02*
X108423104Y-42078259D01*
X108423104Y-42078259D02*
X108327866Y-42030640D01*
X108327866Y-42030640D02*
X108280247Y-41983021D01*
X108280247Y-41983021D02*
X108232628Y-41887783D01*
X108232628Y-41887783D02*
X108185009Y-41697307D01*
X108185009Y-41697307D02*
X108137390Y-41602069D01*
X108137390Y-41602069D02*
X108089771Y-41554450D01*
X108089771Y-41554450D02*
X107994533Y-41506831D01*
X107994533Y-41506831D02*
X107899295Y-41506831D01*
X107899295Y-41506831D02*
X107804057Y-41554450D01*
X107804057Y-41554450D02*
X107756438Y-41602069D01*
X107756438Y-41602069D02*
X107708819Y-41697307D01*
X107708819Y-41697307D02*
X107708819Y-41935402D01*
X107708819Y-41935402D02*
X107756438Y-42078259D01*
X108804057Y-42268736D02*
X108804057Y-43030640D01*
X108708819Y-43268736D02*
X107708819Y-43268736D01*
X107708819Y-43268736D02*
X108423104Y-43602069D01*
X108423104Y-43602069D02*
X107708819Y-43935402D01*
X107708819Y-43935402D02*
X108708819Y-43935402D01*
X108613580Y-44983021D02*
X108661200Y-44935402D01*
X108661200Y-44935402D02*
X108708819Y-44792545D01*
X108708819Y-44792545D02*
X108708819Y-44697307D01*
X108708819Y-44697307D02*
X108661200Y-44554450D01*
X108661200Y-44554450D02*
X108565961Y-44459212D01*
X108565961Y-44459212D02*
X108470723Y-44411593D01*
X108470723Y-44411593D02*
X108280247Y-44363974D01*
X108280247Y-44363974D02*
X108137390Y-44363974D01*
X108137390Y-44363974D02*
X107946914Y-44411593D01*
X107946914Y-44411593D02*
X107851676Y-44459212D01*
X107851676Y-44459212D02*
X107756438Y-44554450D01*
X107756438Y-44554450D02*
X107708819Y-44697307D01*
X107708819Y-44697307D02*
X107708819Y-44792545D01*
X107708819Y-44792545D02*
X107756438Y-44935402D01*
X107756438Y-44935402D02*
X107804057Y-44983021D01*
X108708819Y-45887783D02*
X108708819Y-45411593D01*
X108708819Y-45411593D02*
X107708819Y-45411593D01*
X108708819Y-46221117D02*
X107708819Y-46221117D01*
X108708819Y-46792545D02*
X108137390Y-46363974D01*
X107708819Y-46792545D02*
X108280247Y-46221117D01*
X102909019Y-47444066D02*
X103623304Y-47444066D01*
X103623304Y-47444066D02*
X103766161Y-47396447D01*
X103766161Y-47396447D02*
X103861400Y-47301209D01*
X103861400Y-47301209D02*
X103909019Y-47158352D01*
X103909019Y-47158352D02*
X103909019Y-47063114D01*
X103242352Y-48348828D02*
X103909019Y-48348828D01*
X102861400Y-48110733D02*
X103575685Y-47872638D01*
X103575685Y-47872638D02*
X103575685Y-48491685D01*
X112307019Y-31569066D02*
X113021304Y-31569066D01*
X113021304Y-31569066D02*
X113164161Y-31521447D01*
X113164161Y-31521447D02*
X113259400Y-31426209D01*
X113259400Y-31426209D02*
X113307019Y-31283352D01*
X113307019Y-31283352D02*
X113307019Y-31188114D01*
X112640352Y-32473828D02*
X113307019Y-32473828D01*
X112259400Y-32235733D02*
X112973685Y-31997638D01*
X112973685Y-31997638D02*
X112973685Y-32616685D01*
X93612619Y-36047466D02*
X94326904Y-36047466D01*
X94326904Y-36047466D02*
X94469761Y-35999847D01*
X94469761Y-35999847D02*
X94565000Y-35904609D01*
X94565000Y-35904609D02*
X94612619Y-35761752D01*
X94612619Y-35761752D02*
X94612619Y-35666514D01*
X94612619Y-36523657D02*
X93612619Y-36523657D01*
X93612619Y-36523657D02*
X93612619Y-36904609D01*
X93612619Y-36904609D02*
X93660238Y-36999847D01*
X93660238Y-36999847D02*
X93707857Y-37047466D01*
X93707857Y-37047466D02*
X93803095Y-37095085D01*
X93803095Y-37095085D02*
X93945952Y-37095085D01*
X93945952Y-37095085D02*
X94041190Y-37047466D01*
X94041190Y-37047466D02*
X94088809Y-36999847D01*
X94088809Y-36999847D02*
X94136428Y-36904609D01*
X94136428Y-36904609D02*
X94136428Y-36523657D01*
X93612619Y-37428419D02*
X93612619Y-38047466D01*
X93612619Y-38047466D02*
X93993571Y-37714133D01*
X93993571Y-37714133D02*
X93993571Y-37856990D01*
X93993571Y-37856990D02*
X94041190Y-37952228D01*
X94041190Y-37952228D02*
X94088809Y-37999847D01*
X94088809Y-37999847D02*
X94184047Y-38047466D01*
X94184047Y-38047466D02*
X94422142Y-38047466D01*
X94422142Y-38047466D02*
X94517380Y-37999847D01*
X94517380Y-37999847D02*
X94565000Y-37952228D01*
X94565000Y-37952228D02*
X94612619Y-37856990D01*
X94612619Y-37856990D02*
X94612619Y-37571276D01*
X94612619Y-37571276D02*
X94565000Y-37476038D01*
X94565000Y-37476038D02*
X94517380Y-37428419D01*
X113904819Y-36042066D02*
X114619104Y-36042066D01*
X114619104Y-36042066D02*
X114761961Y-35994447D01*
X114761961Y-35994447D02*
X114857200Y-35899209D01*
X114857200Y-35899209D02*
X114904819Y-35756352D01*
X114904819Y-35756352D02*
X114904819Y-35661114D01*
X114904819Y-36518257D02*
X113904819Y-36518257D01*
X113904819Y-36518257D02*
X113904819Y-36899209D01*
X113904819Y-36899209D02*
X113952438Y-36994447D01*
X113952438Y-36994447D02*
X114000057Y-37042066D01*
X114000057Y-37042066D02*
X114095295Y-37089685D01*
X114095295Y-37089685D02*
X114238152Y-37089685D01*
X114238152Y-37089685D02*
X114333390Y-37042066D01*
X114333390Y-37042066D02*
X114381009Y-36994447D01*
X114381009Y-36994447D02*
X114428628Y-36899209D01*
X114428628Y-36899209D02*
X114428628Y-36518257D01*
X114238152Y-37946828D02*
X114904819Y-37946828D01*
X113857200Y-37708733D02*
X114571485Y-37470638D01*
X114571485Y-37470638D02*
X114571485Y-38089685D01*
D11*
%TO.C,J4*%
X96333000Y-29272000D02*
X97663000Y-29272000D01*
X96333000Y-30602000D02*
X96333000Y-29272000D01*
X96333000Y-31872000D02*
X98933000Y-31872000D01*
X96333000Y-34472000D02*
X96333000Y-31872000D01*
X98933000Y-31872000D02*
X98933000Y-29272000D01*
X111693000Y-29272000D02*
X98933000Y-29272000D01*
X111693000Y-34472000D02*
X96333000Y-34472000D01*
X111693000Y-34472000D02*
X111693000Y-29272000D01*
%TO.C,JP3*%
X93157800Y-38590000D02*
X95157800Y-38590000D01*
X93157800Y-41390000D02*
X93157800Y-38590000D01*
X95157800Y-38590000D02*
X95157800Y-41390000D01*
X95157800Y-41390000D02*
X93157800Y-41390000D01*
%TO.C,JP4*%
X113450000Y-38610000D02*
X115450000Y-38610000D01*
X113450000Y-41410000D02*
X113450000Y-38610000D01*
X115450000Y-38610000D02*
X115450000Y-41410000D01*
X115450000Y-41410000D02*
X113450000Y-41410000D01*
%TD*%
%LPC*%
D12*
G36*
X93760378Y-29651183D02*
G01*
X93760378Y-29532970D01*
X92891460Y-29827624D01*
X92891460Y-29945838D01*
X93760378Y-29651183D01*
G37*
G36*
X93760378Y-29933333D02*
G01*
X93760378Y-29815119D01*
X92891460Y-30109774D01*
X92891460Y-30227987D01*
X93760378Y-29933333D01*
G37*
G36*
X93920211Y-30460311D02*
G01*
X93640015Y-30460311D01*
X93667371Y-30490219D01*
X93686910Y-30524449D01*
X93698634Y-30563003D01*
X93702542Y-30605880D01*
X93701250Y-30631721D01*
X93692775Y-30673651D01*
X93676390Y-30711393D01*
X93652095Y-30744946D01*
X93619890Y-30774310D01*
X93598372Y-30788964D01*
X93562890Y-30807283D01*
X93523560Y-30821204D01*
X93480384Y-30830730D01*
X93441466Y-30835309D01*
X93399876Y-30836836D01*
X93391474Y-30836836D01*
X93373860Y-30836597D01*
X93331930Y-30833909D01*
X93285580Y-30826742D01*
X93243558Y-30815275D01*
X93205864Y-30799508D01*
X93167357Y-30775678D01*
X93143940Y-30755434D01*
X93117824Y-30723086D01*
X93099488Y-30686063D01*
X93088930Y-30644365D01*
X93086073Y-30604903D01*
X93090154Y-30563089D01*
X93215228Y-30563089D01*
X93216815Y-30583177D01*
X93231140Y-30620244D01*
X93260364Y-30648476D01*
X93269124Y-30653749D01*
X93306943Y-30668645D01*
X93349098Y-30676136D01*
X93388152Y-30677980D01*
X93421465Y-30676981D01*
X93469705Y-30670873D01*
X93508843Y-30659212D01*
X93543794Y-30637890D01*
X93568005Y-30602908D01*
X93574558Y-30564261D01*
X93568815Y-30521953D01*
X93549229Y-30485730D01*
X93515745Y-30460311D01*
X93272283Y-30460311D01*
X93239800Y-30485062D01*
X93220800Y-30520896D01*
X93215228Y-30563089D01*
X93090154Y-30563089D01*
X93090396Y-30560609D01*
X93103365Y-30520737D01*
X93124981Y-30485285D01*
X93155242Y-30454254D01*
X93097015Y-30448783D01*
X93097015Y-30301456D01*
X93920211Y-30301456D01*
X93920211Y-30460311D01*
G37*
G36*
X93691600Y-31099055D02*
G01*
X93691600Y-30939613D01*
X93097015Y-30939613D01*
X93097015Y-31099055D01*
X93691600Y-31099055D01*
G37*
G36*
X92943044Y-30930430D02*
G01*
X92903477Y-30939742D01*
X92884426Y-30954268D01*
X92865011Y-30988706D01*
X92861174Y-31019334D01*
X92867736Y-31057884D01*
X92884426Y-31084205D01*
X92918131Y-31105027D01*
X92943044Y-31108434D01*
X92981518Y-31099823D01*
X93002444Y-31084010D01*
X93021695Y-31049426D01*
X93025500Y-31019334D01*
X93018205Y-30979217D01*
X93002444Y-30954854D01*
X92968433Y-30933864D01*
X92943044Y-30930430D01*
G37*
G36*
X93433224Y-31207829D02*
G01*
X93472074Y-31212237D01*
X93515268Y-31222816D01*
X93554726Y-31239165D01*
X93590446Y-31261284D01*
X93622430Y-31289174D01*
X93636747Y-31304990D01*
X93661156Y-31339200D01*
X93679932Y-31376844D01*
X93693075Y-31417922D01*
X93700586Y-31462435D01*
X93702542Y-31502153D01*
X93702294Y-31515959D01*
X93698585Y-31555972D01*
X93689243Y-31597967D01*
X93674405Y-31637366D01*
X93654522Y-31673007D01*
X93627626Y-31706525D01*
X93595466Y-31734086D01*
X93508124Y-31655929D01*
X93537189Y-31627621D01*
X93557950Y-31594282D01*
X93570406Y-31555911D01*
X93574558Y-31512509D01*
X93572875Y-31487580D01*
X93562159Y-31449368D01*
X93539387Y-31414421D01*
X93522897Y-31398982D01*
X93486417Y-31378197D01*
X93445989Y-31368113D01*
X93445989Y-31746592D01*
X93381118Y-31746592D01*
X93355197Y-31745975D01*
X93314513Y-31742208D01*
X93269849Y-31733165D01*
X93229718Y-31719191D01*
X93194121Y-31700284D01*
X93163058Y-31676445D01*
X93136895Y-31648386D01*
X93113213Y-31611032D01*
X93096899Y-31568704D01*
X93088779Y-31528463D01*
X93086073Y-31484568D01*
X93086095Y-31483982D01*
X93214642Y-31483982D01*
X93214755Y-31490217D01*
X93221872Y-31528776D01*
X93243560Y-31561944D01*
X93249157Y-31566878D01*
X93286142Y-31585361D01*
X93325040Y-31590667D01*
X93337740Y-31590667D01*
X93337740Y-31369676D01*
X93319851Y-31372756D01*
X93279633Y-31385585D01*
X93246491Y-31407192D01*
X93244532Y-31409053D01*
X93221640Y-31443559D01*
X93214642Y-31483982D01*
X93086095Y-31483982D01*
X93087008Y-31459601D01*
X93093403Y-31416848D01*
X93105857Y-31376908D01*
X93124370Y-31339781D01*
X93137069Y-31320642D01*
X93163917Y-31289751D01*
X93195898Y-31263434D01*
X93233009Y-31241693D01*
X93269475Y-31226562D01*
X93308334Y-31215754D01*
X93349586Y-31209270D01*
X93393232Y-31207108D01*
X93408669Y-31207108D01*
X93433224Y-31207829D01*
G37*
G36*
X93245905Y-32167471D02*
G01*
X93242114Y-32128265D01*
X93241606Y-32110416D01*
X93245417Y-32069175D01*
X93258812Y-32032093D01*
X93285007Y-32002456D01*
X93302569Y-31992202D01*
X93691600Y-31992202D01*
X93691600Y-31833347D01*
X93097015Y-31833347D01*
X93097015Y-31983410D01*
X93167943Y-31987904D01*
X93136042Y-32010529D01*
X93109179Y-32040714D01*
X93091190Y-32080191D01*
X93086073Y-32120186D01*
X93090366Y-32159374D01*
X93093107Y-32169620D01*
X93245905Y-32167471D01*
G37*
G36*
X93097015Y-32387485D02*
G01*
X93165598Y-32392565D01*
X93134611Y-32422509D01*
X93111235Y-32456604D01*
X93095470Y-32494851D01*
X93087315Y-32537249D01*
X93086073Y-32563340D01*
X93088728Y-32602396D01*
X93098266Y-32641352D01*
X93117287Y-32677939D01*
X93141565Y-32704024D01*
X93177122Y-32726486D01*
X93216021Y-32740433D01*
X93255687Y-32747987D01*
X93300608Y-32751204D01*
X93307454Y-32751309D01*
X93691600Y-32751309D01*
X93691600Y-32592454D01*
X93311362Y-32592454D01*
X93272429Y-32588227D01*
X93238089Y-32570374D01*
X93219001Y-32534123D01*
X93215228Y-32497492D01*
X93221970Y-32455364D01*
X93242196Y-32421132D01*
X93272283Y-32396864D01*
X93691600Y-32396864D01*
X93691600Y-32238008D01*
X93097015Y-32238008D01*
X93097015Y-32387485D01*
G37*
G36*
X93422009Y-32844208D02*
G01*
X93463098Y-32848322D01*
X93508589Y-32858196D01*
X93549917Y-32873455D01*
X93587083Y-32894100D01*
X93620085Y-32920130D01*
X93630070Y-32929907D01*
X93656160Y-32961675D01*
X93676452Y-32997098D01*
X93690946Y-33036176D01*
X93699643Y-33078907D01*
X93702542Y-33125294D01*
X93702219Y-33141184D01*
X93697376Y-33186391D01*
X93686722Y-33227902D01*
X93670256Y-33265718D01*
X93647978Y-33299838D01*
X93619890Y-33330262D01*
X93598378Y-33348168D01*
X93562928Y-33370551D01*
X93523658Y-33387562D01*
X93480569Y-33399201D01*
X93441744Y-33404796D01*
X93400267Y-33406661D01*
X93359625Y-33405684D01*
X93344029Y-33404322D01*
X93299724Y-33397075D01*
X93259142Y-33385088D01*
X93222284Y-33368361D01*
X93189148Y-33346894D01*
X93159736Y-33320688D01*
X93131033Y-33285312D01*
X93109380Y-33245691D01*
X93096432Y-33208352D01*
X93088662Y-33167893D01*
X93086073Y-33124317D01*
X93214642Y-33124317D01*
X93216830Y-33148785D01*
X93232502Y-33187530D01*
X93260364Y-33215566D01*
X93269229Y-33221362D01*
X93307344Y-33237739D01*
X93349647Y-33245974D01*
X93388738Y-33248001D01*
X93412238Y-33247495D01*
X93454272Y-33243440D01*
X93493648Y-33234033D01*
X93530399Y-33215566D01*
X93547606Y-33200160D01*
X93568348Y-33165099D01*
X93574558Y-33125294D01*
X93572985Y-33104047D01*
X93558784Y-33064563D01*
X93529813Y-33034045D01*
X93517958Y-33026580D01*
X93478966Y-33011184D01*
X93440090Y-33004186D01*
X93400267Y-33002195D01*
X93377302Y-33002693D01*
X93336025Y-33006674D01*
X93297003Y-33015912D01*
X93259974Y-33034045D01*
X93242310Y-33049317D01*
X93221017Y-33084328D01*
X93214642Y-33124317D01*
X93086073Y-33124317D01*
X93087405Y-33093311D01*
X93093328Y-33054214D01*
X93105655Y-33013295D01*
X93123979Y-32975622D01*
X93136588Y-32956328D01*
X93163131Y-32925303D01*
X93194620Y-32899038D01*
X93231055Y-32877534D01*
X93266849Y-32862659D01*
X93305061Y-32852035D01*
X93345691Y-32845660D01*
X93388738Y-32843535D01*
X93395968Y-32843535D01*
X93422009Y-32844208D01*
G37*
G36*
X93497573Y-33715189D02*
G01*
X93097015Y-33825782D01*
X93097015Y-33991672D01*
X93691600Y-33791002D01*
X93691600Y-33639376D01*
X93097015Y-33438902D01*
X93097015Y-33604791D01*
X93497573Y-33715189D01*
G37*
D13*
G36*
X94707700Y-29101580D02*
G01*
X94573708Y-29146191D01*
X94573708Y-29381153D01*
X94707700Y-29426240D01*
X94707700Y-29568646D01*
X94057586Y-29325270D01*
X94057586Y-29263196D01*
X94221900Y-29263196D01*
X94465276Y-29344956D01*
X94465276Y-29182388D01*
X94221900Y-29263196D01*
X94057586Y-29263196D01*
X94057586Y-29201122D01*
X94707700Y-28959175D01*
X94707700Y-29101580D01*
G37*
G36*
X94224599Y-29714862D02*
G01*
X94280323Y-29718990D01*
X94255146Y-29743319D01*
X94236153Y-29771021D01*
X94223344Y-29802097D01*
X94216719Y-29836545D01*
X94215709Y-29857744D01*
X94217866Y-29889477D01*
X94225616Y-29921129D01*
X94241070Y-29950856D01*
X94260796Y-29972050D01*
X94289687Y-29990301D01*
X94321292Y-30001632D01*
X94353521Y-30007770D01*
X94390019Y-30010384D01*
X94395582Y-30010469D01*
X94707700Y-30010469D01*
X94707700Y-29881399D01*
X94398757Y-29881399D01*
X94367124Y-29877965D01*
X94339223Y-29863459D01*
X94323713Y-29834005D01*
X94320648Y-29804243D01*
X94326126Y-29770013D01*
X94342559Y-29742200D01*
X94367005Y-29722482D01*
X94707700Y-29722482D01*
X94707700Y-29593412D01*
X94224599Y-29593412D01*
X94224599Y-29714862D01*
G37*
G36*
X94590985Y-30087336D02*
G01*
X94622591Y-30095130D01*
X94650806Y-30110309D01*
X94675630Y-30132871D01*
X94691590Y-30154454D01*
X94706350Y-30185619D01*
X94714030Y-30216547D01*
X94716590Y-30250511D01*
X94713325Y-30286291D01*
X94703532Y-30318539D01*
X94687210Y-30347254D01*
X94664359Y-30372437D01*
X94676771Y-30374739D01*
X94707700Y-30385455D01*
X94707700Y-30515795D01*
X94700079Y-30515795D01*
X94693176Y-30512443D01*
X94662829Y-30502898D01*
X94628370Y-30497965D01*
X94596093Y-30496586D01*
X94386691Y-30496586D01*
X94381647Y-30496534D01*
X94348331Y-30493301D01*
X94314536Y-30483448D01*
X94285304Y-30467027D01*
X94260637Y-30444037D01*
X94250107Y-30430364D01*
X94233259Y-30399565D01*
X94223124Y-30368839D01*
X94217288Y-30334588D01*
X94215709Y-30302425D01*
X94215888Y-30291455D01*
X94218567Y-30259783D01*
X94225314Y-30226773D01*
X94236030Y-30196057D01*
X94248679Y-30171141D01*
X94267447Y-30145292D01*
X94292071Y-30122870D01*
X94305684Y-30114075D01*
X94336672Y-30101263D01*
X94369704Y-30096992D01*
X94369704Y-30226062D01*
X94355274Y-30227519D01*
X94326839Y-30244478D01*
X94316095Y-30263405D01*
X94311122Y-30295598D01*
X94314450Y-30322481D01*
X94331285Y-30349893D01*
X94353117Y-30362200D01*
X94384945Y-30367039D01*
X94412569Y-30367039D01*
X94412569Y-30318936D01*
X94487979Y-30318936D01*
X94487979Y-30367039D01*
X94571009Y-30367039D01*
X94585878Y-30356584D01*
X94605301Y-30331319D01*
X94613524Y-30310979D01*
X94618001Y-30278611D01*
X94616482Y-30261464D01*
X94602443Y-30232254D01*
X94594059Y-30224822D01*
X94562595Y-30215267D01*
X94554974Y-30215743D01*
X94550853Y-30216219D01*
X94519645Y-30228481D01*
X94499036Y-30255109D01*
X94490334Y-30285753D01*
X94487979Y-30318936D01*
X94412569Y-30318936D01*
X94412569Y-30307664D01*
X94413710Y-30275263D01*
X94417699Y-30239647D01*
X94424545Y-30207592D01*
X94436144Y-30174694D01*
X94454163Y-30143032D01*
X94456758Y-30139535D01*
X94480041Y-30115558D01*
X94507809Y-30098685D01*
X94540061Y-30088916D01*
X94571962Y-30086197D01*
X94590985Y-30087336D01*
G37*
G36*
X94707700Y-30729325D02*
G01*
X94707700Y-30599778D01*
X94021866Y-30599778D01*
X94021866Y-30729325D01*
X94707700Y-30729325D01*
G37*
G36*
X94488657Y-30814966D02*
G01*
X94522042Y-30818308D01*
X94559004Y-30826331D01*
X94592583Y-30838729D01*
X94622780Y-30855502D01*
X94649594Y-30876652D01*
X94657707Y-30884596D01*
X94678905Y-30910408D01*
X94695392Y-30939189D01*
X94707169Y-30970939D01*
X94714235Y-31005659D01*
X94716590Y-31043348D01*
X94716328Y-31056259D01*
X94712393Y-31092989D01*
X94703736Y-31126717D01*
X94690358Y-31157443D01*
X94672257Y-31185165D01*
X94649435Y-31209885D01*
X94631957Y-31224433D01*
X94603154Y-31242619D01*
X94571247Y-31256440D01*
X94536237Y-31265897D01*
X94504692Y-31270444D01*
X94470992Y-31271959D01*
X94437970Y-31271165D01*
X94425298Y-31270058D01*
X94389301Y-31264170D01*
X94356328Y-31254431D01*
X94326381Y-31240840D01*
X94299458Y-31223398D01*
X94275561Y-31202106D01*
X94252240Y-31173362D01*
X94234646Y-31141170D01*
X94224126Y-31110832D01*
X94217813Y-31077960D01*
X94215709Y-31042554D01*
X94320172Y-31042554D01*
X94321949Y-31062435D01*
X94334683Y-31093915D01*
X94357321Y-31116694D01*
X94364523Y-31121404D01*
X94395492Y-31134709D01*
X94429863Y-31141401D01*
X94461625Y-31143048D01*
X94480718Y-31142636D01*
X94514871Y-31139342D01*
X94546864Y-31131698D01*
X94576724Y-31116694D01*
X94590705Y-31104176D01*
X94607558Y-31075690D01*
X94612604Y-31043348D01*
X94611325Y-31026085D01*
X94599787Y-30994004D01*
X94576248Y-30969208D01*
X94566616Y-30963143D01*
X94534935Y-30950634D01*
X94503348Y-30944948D01*
X94470992Y-30943330D01*
X94452333Y-30943735D01*
X94418795Y-30946969D01*
X94387090Y-30954475D01*
X94357003Y-30969208D01*
X94342652Y-30981617D01*
X94325351Y-31010063D01*
X94320172Y-31042554D01*
X94215709Y-31042554D01*
X94216792Y-31017362D01*
X94221604Y-30985595D01*
X94231620Y-30952349D01*
X94246508Y-30921739D01*
X94256753Y-30906063D01*
X94278319Y-30880855D01*
X94303904Y-30859515D01*
X94333507Y-30842043D01*
X94362590Y-30829957D01*
X94393637Y-30821325D01*
X94426648Y-30816145D01*
X94461625Y-30814419D01*
X94467499Y-30814419D01*
X94488657Y-30814966D01*
G37*
G36*
X94488661Y-31330537D02*
G01*
X94521407Y-31333428D01*
X94557848Y-31340366D01*
X94591174Y-31351087D01*
X94621385Y-31365593D01*
X94648483Y-31383883D01*
X94664445Y-31397856D01*
X94687259Y-31424805D01*
X94703554Y-31454928D01*
X94713331Y-31488227D01*
X94716590Y-31524702D01*
X94713435Y-31559370D01*
X94703969Y-31590507D01*
X94688192Y-31618111D01*
X94666105Y-31642182D01*
X94692141Y-31642182D01*
X94713065Y-31640815D01*
X94743844Y-31632108D01*
X94769933Y-31613606D01*
X94781949Y-31597899D01*
X94794152Y-31566322D01*
X94797398Y-31533751D01*
X94794024Y-31500600D01*
X94783903Y-31470049D01*
X94767035Y-31442098D01*
X94743420Y-31416746D01*
X94822005Y-31359593D01*
X94843572Y-31380273D01*
X94862212Y-31406731D01*
X94876618Y-31435797D01*
X94879194Y-31442118D01*
X94889581Y-31474040D01*
X94895814Y-31506490D01*
X94897891Y-31539466D01*
X94897026Y-31565149D01*
X94893181Y-31597432D01*
X94885179Y-31631069D01*
X94873284Y-31661868D01*
X94870140Y-31668305D01*
X94851777Y-31697738D01*
X94829012Y-31722581D01*
X94801843Y-31742835D01*
X94789877Y-31749607D01*
X94757703Y-31762587D01*
X94725990Y-31769443D01*
X94691665Y-31771729D01*
X94224599Y-31771729D01*
X94224599Y-31654724D01*
X94270163Y-31649326D01*
X94266813Y-31646533D01*
X94243840Y-31621700D01*
X94227674Y-31592442D01*
X94218315Y-31558758D01*
X94218309Y-31558676D01*
X94320648Y-31558676D01*
X94324958Y-31591593D01*
X94339655Y-31620640D01*
X94364783Y-31642182D01*
X94567993Y-31642182D01*
X94593120Y-31620742D01*
X94607817Y-31591348D01*
X94612127Y-31557723D01*
X94610342Y-31538585D01*
X94597554Y-31508000D01*
X94574819Y-31485488D01*
X94570045Y-31482297D01*
X94539843Y-31468425D01*
X94506590Y-31461219D01*
X94471944Y-31459135D01*
X94453677Y-31459549D01*
X94420655Y-31462863D01*
X94389104Y-31470553D01*
X94358591Y-31485647D01*
X94343807Y-31498258D01*
X94325984Y-31526676D01*
X94320648Y-31558676D01*
X94218309Y-31558676D01*
X94215709Y-31525654D01*
X94216771Y-31503803D01*
X94223738Y-31468320D01*
X94237208Y-31436347D01*
X94257181Y-31407884D01*
X94283657Y-31382931D01*
X94301282Y-31370540D01*
X94330258Y-31355052D01*
X94362282Y-31343281D01*
X94397353Y-31335227D01*
X94428907Y-31331355D01*
X94462577Y-31330064D01*
X94467975Y-31330064D01*
X94488661Y-31330537D01*
G37*
G36*
X94707700Y-32019232D02*
G01*
X94707700Y-31885241D01*
X94057586Y-31885241D01*
X94057586Y-32019232D01*
X94707700Y-32019232D01*
G37*
G36*
X94707700Y-32573297D02*
G01*
X94707700Y-32127664D01*
X94619271Y-32127664D01*
X94395105Y-32338018D01*
X94369448Y-32360614D01*
X94343178Y-32381538D01*
X94314766Y-32400834D01*
X94312551Y-32402156D01*
X94282381Y-32416373D01*
X94249538Y-32422872D01*
X94245555Y-32422953D01*
X94213406Y-32419338D01*
X94183930Y-32406180D01*
X94177448Y-32401045D01*
X94158874Y-32374453D01*
X94152706Y-32341016D01*
X94152682Y-32338494D01*
X94157660Y-32305958D01*
X94174156Y-32277776D01*
X94182846Y-32269435D01*
X94210472Y-32253194D01*
X94241508Y-32245551D01*
X94262066Y-32244351D01*
X94262066Y-32114804D01*
X94229484Y-32117040D01*
X94195196Y-32124767D01*
X94162923Y-32138013D01*
X94153635Y-32143063D01*
X94124968Y-32163103D01*
X94100488Y-32187702D01*
X94082035Y-32213737D01*
X94076637Y-32223236D01*
X94063130Y-32253518D01*
X94054044Y-32285959D01*
X94049378Y-32320561D01*
X94048696Y-32340717D01*
X94050392Y-32376823D01*
X94055483Y-32409769D01*
X94065710Y-32444214D01*
X94080556Y-32474359D01*
X94096958Y-32496776D01*
X94123500Y-32521086D01*
X94155024Y-32538450D01*
X94186693Y-32547946D01*
X94222175Y-32552124D01*
X94233014Y-32552341D01*
X94266400Y-32549377D01*
X94300200Y-32540485D01*
X94331285Y-32527257D01*
X94360721Y-32510411D01*
X94389079Y-32490693D01*
X94415585Y-32469777D01*
X94443672Y-32445442D01*
X94447813Y-32441687D01*
X94603713Y-32293883D01*
X94603713Y-32573297D01*
X94707700Y-32573297D01*
G37*
G36*
X94537194Y-33000673D02*
G01*
X94505494Y-32994778D01*
X94480217Y-32975494D01*
X94478929Y-32973843D01*
X94462052Y-32945072D01*
X94448570Y-32913277D01*
X94437472Y-32881791D01*
X94436065Y-32877477D01*
X94424833Y-32844446D01*
X94412291Y-32811626D01*
X94398475Y-32780550D01*
X94391613Y-32767140D01*
X94371893Y-32735263D01*
X94350143Y-32708788D01*
X94326362Y-32687716D01*
X94295144Y-32669562D01*
X94261001Y-32659188D01*
X94230315Y-32656486D01*
X94198572Y-32659385D01*
X94166199Y-32669272D01*
X94136489Y-32686174D01*
X94112374Y-32707256D01*
X94091826Y-32733392D01*
X94076381Y-32761236D01*
X94071874Y-32771427D01*
X94060670Y-32803762D01*
X94053132Y-32838258D01*
X94049511Y-32870734D01*
X94048696Y-32896211D01*
X94050273Y-32930105D01*
X94055006Y-32962095D01*
X94064102Y-32995806D01*
X94073938Y-33020359D01*
X94089782Y-33049068D01*
X94111245Y-33076460D01*
X94136771Y-33099108D01*
X94145220Y-33104977D01*
X94175121Y-33120884D01*
X94207471Y-33130899D01*
X94242270Y-33135023D01*
X94249524Y-33135141D01*
X94249524Y-33001150D01*
X94216553Y-32996512D01*
X94188371Y-32981145D01*
X94180147Y-32973049D01*
X94163217Y-32944086D01*
X94156252Y-32912295D01*
X94155381Y-32893988D01*
X94158306Y-32860254D01*
X94169110Y-32828630D01*
X94176178Y-32817625D01*
X94201870Y-32796319D01*
X94230791Y-32790319D01*
X94261615Y-32799325D01*
X94283975Y-32822229D01*
X94299669Y-32850501D01*
X94312169Y-32880507D01*
X94322967Y-32912522D01*
X94324141Y-32916373D01*
X94335309Y-32950578D01*
X94347284Y-32981752D01*
X94362719Y-33015160D01*
X94379314Y-33044203D01*
X94400142Y-33072571D01*
X94409552Y-33082910D01*
X94436521Y-33105761D01*
X94466626Y-33122083D01*
X94499866Y-33131877D01*
X94531523Y-33135090D01*
X94536241Y-33135141D01*
X94571445Y-33132080D01*
X94603154Y-33122895D01*
X94631368Y-33107588D01*
X94656088Y-33086157D01*
X94668645Y-33071162D01*
X94687327Y-33041128D01*
X94701420Y-33006871D01*
X94709848Y-32974146D01*
X94714904Y-32938317D01*
X94716543Y-32906090D01*
X94716590Y-32899386D01*
X94715276Y-32867179D01*
X94710555Y-32831952D01*
X94702401Y-32798412D01*
X94690815Y-32766558D01*
X94689125Y-32762695D01*
X94674122Y-32733722D01*
X94654208Y-32705492D01*
X94631079Y-32681883D01*
X94613874Y-32668711D01*
X94585801Y-32653055D01*
X94555342Y-32642523D01*
X94522497Y-32637115D01*
X94503219Y-32636324D01*
X94503219Y-32770792D01*
X94539799Y-32775313D01*
X94568811Y-32788875D01*
X94593093Y-32816126D01*
X94605707Y-32849279D01*
X94610437Y-32883814D01*
X94610857Y-32899386D01*
X94608134Y-32932256D01*
X94598071Y-32963099D01*
X94591489Y-32973843D01*
X94566440Y-32994778D01*
X94537194Y-33000673D01*
G37*
G36*
X94057586Y-33398044D02*
G01*
X94529097Y-33565057D01*
X94057586Y-33731118D01*
X94057586Y-33907022D01*
X94707700Y-33907022D01*
X94707700Y-33772713D01*
X94530049Y-33772713D01*
X94223171Y-33786048D01*
X94707700Y-33610621D01*
X94707700Y-33518700D01*
X94223647Y-33343590D01*
X94530049Y-33356926D01*
X94707700Y-33356926D01*
X94707700Y-33223093D01*
X94057586Y-33223093D01*
X94057586Y-33398044D01*
G37*
G36*
X94707700Y-34147699D02*
G01*
X94707700Y-34018152D01*
X94224599Y-34018152D01*
X94224599Y-34147699D01*
X94707700Y-34147699D01*
G37*
G36*
X94099498Y-34010691D02*
G01*
X94067350Y-34018257D01*
X94051871Y-34030059D01*
X94036097Y-34058040D01*
X94032979Y-34082926D01*
X94038311Y-34114247D01*
X94051871Y-34135633D01*
X94079257Y-34152551D01*
X94099498Y-34155319D01*
X94130758Y-34148323D01*
X94147761Y-34135474D01*
X94163402Y-34107375D01*
X94166494Y-34082926D01*
X94160567Y-34050331D01*
X94147761Y-34030535D01*
X94120127Y-34013481D01*
X94099498Y-34010691D01*
G37*
G36*
X94612604Y-34453784D02*
G01*
X94607682Y-34486131D01*
X94592918Y-34511730D01*
X94566702Y-34530132D01*
X94540686Y-34535068D01*
X94540686Y-34656041D01*
X94573456Y-34652656D01*
X94604312Y-34643155D01*
X94630702Y-34629211D01*
X94656595Y-34608804D01*
X94678174Y-34583820D01*
X94694046Y-34557135D01*
X94705935Y-34527613D01*
X94713420Y-34496200D01*
X94716502Y-34462894D01*
X94716590Y-34456006D01*
X94714279Y-34418671D01*
X94707347Y-34384417D01*
X94695794Y-34353243D01*
X94679619Y-34325150D01*
X94658823Y-34300139D01*
X94650864Y-34292486D01*
X94624388Y-34272200D01*
X94594374Y-34256110D01*
X94560821Y-34244219D01*
X94523729Y-34236524D01*
X94490116Y-34233318D01*
X94468769Y-34232793D01*
X94460355Y-34232793D01*
X94426578Y-34234243D01*
X94395004Y-34238591D01*
X94360020Y-34247637D01*
X94328206Y-34260857D01*
X94299563Y-34278252D01*
X94282228Y-34292168D01*
X94259622Y-34315986D01*
X94241693Y-34342906D01*
X94228441Y-34372930D01*
X94219866Y-34406057D01*
X94215969Y-34442288D01*
X94215709Y-34455054D01*
X94217523Y-34487781D01*
X94224224Y-34522760D01*
X94235864Y-34554290D01*
X94252441Y-34582371D01*
X94267305Y-34600317D01*
X94291450Y-34621705D01*
X94318877Y-34637941D01*
X94349585Y-34649027D01*
X94383576Y-34654962D01*
X94404472Y-34656041D01*
X94404472Y-34535068D01*
X94372451Y-34529466D01*
X94345140Y-34513109D01*
X94343668Y-34511730D01*
X94325334Y-34484038D01*
X94320172Y-34452831D01*
X94325595Y-34419840D01*
X94343567Y-34392457D01*
X94353034Y-34384724D01*
X94383322Y-34370696D01*
X94417362Y-34363952D01*
X94450354Y-34361794D01*
X94459402Y-34361704D01*
X94472897Y-34361704D01*
X94507516Y-34363123D01*
X94540224Y-34368112D01*
X94571230Y-34379086D01*
X94580058Y-34384407D01*
X94602306Y-34408938D01*
X94611809Y-34439825D01*
X94612604Y-34453784D01*
G37*
G36*
X95566053Y-31167557D02*
G01*
X95240599Y-31257414D01*
X95240599Y-31392200D01*
X95723700Y-31229155D01*
X95723700Y-31105959D01*
X95240599Y-30943074D01*
X95240599Y-31077859D01*
X95566053Y-31167557D01*
G37*
G36*
X95500990Y-31441134D02*
G01*
X95537428Y-31445592D01*
X95570905Y-31452725D01*
X95601421Y-31462532D01*
X95634132Y-31477830D01*
X95662578Y-31496980D01*
X95675090Y-31507958D01*
X95696422Y-31532561D01*
X95712831Y-31560691D01*
X95724317Y-31592348D01*
X95730881Y-31627533D01*
X95732590Y-31659548D01*
X95732311Y-31672800D01*
X95728125Y-31710122D01*
X95718916Y-31743794D01*
X95704683Y-31773816D01*
X95685428Y-31800188D01*
X95661149Y-31822910D01*
X95656622Y-31826348D01*
X95626862Y-31844684D01*
X95592649Y-31859091D01*
X95560735Y-31868096D01*
X95525729Y-31874372D01*
X95487629Y-31877919D01*
X95454922Y-31878792D01*
X95335219Y-31878792D01*
X95295827Y-31877009D01*
X95259412Y-31872551D01*
X95225974Y-31865418D01*
X95195512Y-31855611D01*
X95162887Y-31840313D01*
X95134549Y-31821163D01*
X95122066Y-31810185D01*
X95100782Y-31785582D01*
X95084410Y-31757452D01*
X95072950Y-31725795D01*
X95066401Y-31690610D01*
X95064696Y-31658595D01*
X95169158Y-31658595D01*
X95170453Y-31675287D01*
X95182143Y-31705479D01*
X95205990Y-31727496D01*
X95224208Y-31736156D01*
X95257535Y-31744839D01*
X95290381Y-31748659D01*
X95323630Y-31749722D01*
X95478101Y-31749722D01*
X95496579Y-31749171D01*
X95529859Y-31746195D01*
X95561439Y-31739857D01*
X95591613Y-31727814D01*
X95604184Y-31719029D01*
X95623402Y-31691324D01*
X95628604Y-31659548D01*
X95627247Y-31642543D01*
X95615003Y-31611981D01*
X95590025Y-31590012D01*
X95571133Y-31581599D01*
X95537397Y-31573165D01*
X95504693Y-31569454D01*
X95471910Y-31568421D01*
X95313787Y-31568421D01*
X95300145Y-31568837D01*
X95267178Y-31571695D01*
X95236020Y-31577946D01*
X95204244Y-31591282D01*
X95194136Y-31598660D01*
X95174949Y-31625505D01*
X95169158Y-31658595D01*
X95064696Y-31658595D01*
X95064971Y-31645513D01*
X95069101Y-31608596D01*
X95078188Y-31575174D01*
X95092230Y-31545245D01*
X95111229Y-31518810D01*
X95135184Y-31495868D01*
X95139654Y-31492391D01*
X95169168Y-31473846D01*
X95203303Y-31459275D01*
X95235280Y-31450168D01*
X95270465Y-31443821D01*
X95308860Y-31440234D01*
X95341887Y-31439351D01*
X95461590Y-31439351D01*
X95500990Y-31441134D01*
G37*
G36*
X95660355Y-31975158D02*
G01*
X95627867Y-31982490D01*
X95610346Y-31995956D01*
X95594307Y-32024346D01*
X95591137Y-32048028D01*
X95597215Y-32080232D01*
X95610346Y-32100418D01*
X95637244Y-32117783D01*
X95660355Y-32121216D01*
X95692390Y-32113940D01*
X95709729Y-32100577D01*
X95725503Y-32072172D01*
X95728621Y-32048028D01*
X95722643Y-32015824D01*
X95709729Y-31995638D01*
X95681512Y-31978038D01*
X95660355Y-31975158D01*
G37*
G36*
X95583040Y-32213454D02*
G01*
X95583040Y-32480008D01*
X95723700Y-32480008D01*
X95723700Y-32609078D01*
X95583040Y-32609078D01*
X95583040Y-32682742D01*
X95479054Y-32682742D01*
X95479054Y-32609078D01*
X95073586Y-32609078D01*
X95073586Y-32480008D01*
X95249490Y-32480008D01*
X95479054Y-32480008D01*
X95479054Y-32336332D01*
X95264254Y-32471594D01*
X95249490Y-32480008D01*
X95073586Y-32480008D01*
X95073586Y-32478738D01*
X95501756Y-32207739D01*
X95583040Y-32213454D01*
G37*
D14*
%TO.C,J2*%
X93827600Y-45611400D03*
X96327600Y-45611400D03*
D15*
X98827600Y-50611400D03*
D14*
X103827600Y-45611400D03*
X101327600Y-45611400D03*
%TD*%
D16*
%TO.C,MK1*%
X109006000Y-47988000D03*
D17*
X111546000Y-47988000D03*
%TD*%
D18*
%TO.C,J4*%
X97663000Y-30602000D03*
D19*
X97663000Y-33142000D03*
X100203000Y-30602000D03*
X100203000Y-33142000D03*
X102743000Y-30602000D03*
X102743000Y-33142000D03*
X105283000Y-30602000D03*
X105283000Y-33142000D03*
X107823000Y-30602000D03*
X107823000Y-33142000D03*
X110363000Y-30602000D03*
X110363000Y-33142000D03*
%TD*%
D20*
%TO.C,JP3*%
X94157800Y-39340000D03*
X94157800Y-40640000D03*
%TD*%
%TO.C,JP4*%
X114450000Y-39360000D03*
X114450000Y-40660000D03*
%TD*%
%LPD*%
M02*
