%TF.GenerationSoftware,KiCad,Pcbnew,8.0.2*%
%TF.CreationDate,2024-06-06T16:49:04+02:00*%
%TF.ProjectId,AnalogI2SMic,416e616c-6f67-4493-9253-4d69632e6b69,rev?*%
%TF.SameCoordinates,Original*%
%TF.FileFunction,Copper,L2,Bot*%
%TF.FilePolarity,Positive*%
%FSLAX46Y46*%
G04 Gerber Fmt 4.6, Leading zero omitted, Abs format (unit mm)*
G04 Created by KiCad (PCBNEW 8.0.2) date 2024-06-06 16:49:04*
%MOMM*%
%LPD*%
G01*
G04 APERTURE LIST*
%TA.AperFunction,EtchedComponent*%
%ADD10C,0.000000*%
%TD*%
%TA.AperFunction,ComponentPad*%
%ADD11R,1.700000X1.700000*%
%TD*%
%TA.AperFunction,ComponentPad*%
%ADD12O,1.700000X1.700000*%
%TD*%
%TA.AperFunction,ComponentPad*%
%ADD13O,1.200000X2.200000*%
%TD*%
%TA.AperFunction,ComponentPad*%
%ADD14O,2.200000X1.200000*%
%TD*%
%TA.AperFunction,ComponentPad*%
%ADD15R,1.500000X1.500000*%
%TD*%
%TA.AperFunction,ComponentPad*%
%ADD16C,1.500000*%
%TD*%
%TA.AperFunction,ComponentPad*%
%ADD17C,0.500000*%
%TD*%
%TA.AperFunction,SMDPad,CuDef*%
%ADD18R,2.500000X2.500000*%
%TD*%
%TA.AperFunction,SMDPad,CuDef*%
%ADD19R,1.500000X1.000000*%
%TD*%
%TA.AperFunction,ViaPad*%
%ADD20C,0.800000*%
%TD*%
%TA.AperFunction,ViaPad*%
%ADD21C,1.200000*%
%TD*%
%TA.AperFunction,Conductor*%
%ADD22C,0.250000*%
%TD*%
%TA.AperFunction,Conductor*%
%ADD23C,0.500000*%
%TD*%
G04 APERTURE END LIST*
D10*
%TA.AperFunction,EtchedComponent*%
%TO.C,JP3*%
G36*
X93957800Y-41916400D02*
G01*
X93557800Y-41916400D01*
X93557800Y-41416400D01*
X93957800Y-41416400D01*
X93957800Y-41916400D01*
G37*
%TD.AperFunction*%
%TA.AperFunction,EtchedComponent*%
G36*
X94757800Y-41916400D02*
G01*
X94357800Y-41916400D01*
X94357800Y-41416400D01*
X94757800Y-41416400D01*
X94757800Y-41916400D01*
G37*
%TD.AperFunction*%
%TA.AperFunction,EtchedComponent*%
%TO.C,JP4*%
G36*
X114354000Y-41764000D02*
G01*
X113954000Y-41764000D01*
X113954000Y-41264000D01*
X114354000Y-41264000D01*
X114354000Y-41764000D01*
G37*
%TD.AperFunction*%
%TA.AperFunction,EtchedComponent*%
G36*
X115154000Y-41764000D02*
G01*
X114754000Y-41764000D01*
X114754000Y-41264000D01*
X115154000Y-41264000D01*
X115154000Y-41764000D01*
G37*
%TD.AperFunction*%
%TD*%
D11*
%TO.P,J2,1,Pin_1*%
%TO.N,Net-(J2-Pin_1)*%
X113919000Y-46355000D03*
D12*
%TO.P,J2,2,Pin_2*%
%TO.N,Net-(J2-Pin_2)*%
X111379000Y-46355000D03*
%TO.P,J2,3,Pin_3*%
%TO.N,Net-(J2-Pin_3)*%
X108839000Y-46355000D03*
%TD*%
D11*
%TO.P,J4,1,Pin_1*%
%TO.N,+3.3V*%
X94742000Y-29210000D03*
D12*
%TO.P,J4,2,Pin_2*%
%TO.N,I2S_BCLK*%
X97282000Y-29210000D03*
%TO.P,J4,3,Pin_3*%
%TO.N,I2S_MCLK*%
X99822000Y-29210000D03*
%TO.P,J4,4,Pin_4*%
%TO.N,I2S_DOUT*%
X102362000Y-29210000D03*
%TO.P,J4,5,Pin_5*%
%TO.N,I2S_WCLK*%
X104902000Y-29210000D03*
%TO.P,J4,6,Pin_6*%
%TO.N,GND*%
X107442000Y-29210000D03*
%TD*%
D11*
%TO.P,J3,1,Pin_1*%
%TO.N,Net-(J3-Pin_1)*%
X97891600Y-41910000D03*
D12*
%TO.P,J3,2,Pin_2*%
%TO.N,RIGHT*%
X97891600Y-39370000D03*
%TD*%
D11*
%TO.P,J6,1,Pin_1*%
%TO.N,GPIO1*%
X112649000Y-32893000D03*
D12*
%TO.P,J6,2,Pin_2*%
%TO.N,I2C_SCL*%
X110109000Y-32893000D03*
%TO.P,J6,3,Pin_3*%
%TO.N,I2C_SDA*%
X107569000Y-32893000D03*
%TO.P,J6,4,Pin_4*%
%TO.N,GPIO2*%
X105029000Y-32893000D03*
%TO.P,J6,5,Pin_5*%
%TO.N,ENABLE*%
X102489000Y-32893000D03*
%TO.P,J6,6,Pin_6*%
%TO.N,~{TRIGGER}*%
X99949000Y-32893000D03*
%TD*%
D13*
%TO.P,J1,R*%
%TO.N,Net-(J3-Pin_1)*%
X94060000Y-49022000D03*
%TO.P,J1,RN*%
%TO.N,unconnected-(J1-PadRN)*%
X96560000Y-49022000D03*
D14*
%TO.P,J1,S*%
%TO.N,GNDA*%
X99060000Y-54022000D03*
D13*
%TO.P,J1,T*%
%TO.N,Net-(J2-Pin_3)*%
X104060000Y-49022000D03*
%TO.P,J1,TN*%
%TO.N,unconnected-(J1-PadTN)*%
X101560000Y-49022000D03*
%TD*%
D15*
%TO.P,MK1,1,-*%
%TO.N,GNDA*%
X109220000Y-51435000D03*
D16*
%TO.P,MK1,2,+*%
%TO.N,Net-(J2-Pin_1)*%
X111760000Y-51435000D03*
%TD*%
D17*
%TO.P,U1,25,PAD*%
%TO.N,GNDA*%
X104140000Y-38640000D03*
X104140000Y-39640000D03*
X104140000Y-40640000D03*
X105140000Y-38640000D03*
X105140000Y-39640000D03*
D18*
X105140000Y-39640000D03*
D17*
X105140000Y-40640000D03*
X106140000Y-38640000D03*
X106140000Y-39640000D03*
X106140000Y-40640000D03*
%TD*%
D19*
%TO.P,JP3,1,A*%
%TO.N,GND*%
X94157800Y-41016400D03*
%TO.P,JP3,2,B*%
%TO.N,GNDA*%
X94157800Y-42316400D03*
%TD*%
%TO.P,JP4,1,A*%
%TO.N,GND*%
X114554000Y-40864000D03*
%TO.P,JP4,2,B*%
%TO.N,GNDA*%
X114554000Y-42164000D03*
%TD*%
D20*
%TO.N,GND*%
X93218000Y-39624000D03*
D21*
X97425817Y-34266931D03*
D20*
X93503141Y-27903721D03*
D21*
X101693234Y-34376766D03*
X112894400Y-37463727D03*
X115104900Y-37498300D03*
X114688883Y-30581600D03*
X104233640Y-34366938D03*
X97242785Y-30859536D03*
%TO.N,+3.3VA*%
X105708861Y-45254358D03*
X111125000Y-42578500D03*
D20*
%TO.N,GNDA*%
X98253850Y-47714500D03*
X104521000Y-51511200D03*
X114655600Y-53162200D03*
D21*
X114630200Y-44450000D03*
D20*
X114655600Y-57581800D03*
X105714800Y-57581800D03*
D21*
X110302710Y-41073728D03*
X93980000Y-43688000D03*
D20*
X115087400Y-48895000D03*
X93751400Y-58039000D03*
X93472000Y-51460400D03*
X110464600Y-54330600D03*
D21*
X104267000Y-45212000D03*
%TO.N,+1V8*%
X96235168Y-33247104D03*
D20*
X103383640Y-36179575D03*
D21*
%TO.N,+3.3V*%
X112979200Y-35305826D03*
D20*
X107246600Y-35872301D03*
D21*
X113944400Y-38709600D03*
D20*
%TO.N,Net-(J2-Pin_2)*%
X102806500Y-45148500D03*
%TO.N,Net-(J3-Pin_1)*%
X105336070Y-46924668D03*
%TO.N,I2S_DOUT*%
X100848197Y-35283418D03*
X99930949Y-37076651D03*
%TO.N,I2S_WCLK*%
X103632000Y-31685600D03*
X100789908Y-37935609D03*
%TO.N,Net-(U1-I2C_ADR0)*%
X112221518Y-36440817D03*
X109104052Y-39367546D03*
%TO.N,ENABLE*%
X94843600Y-31360000D03*
%TO.N,~{TRIGGER}*%
X93886931Y-35735397D03*
%TD*%
D22*
%TO.N,ENABLE*%
X102463600Y-32867600D02*
X101266000Y-31670000D01*
X97740469Y-31670000D02*
X97625933Y-31784536D01*
X101266000Y-31670000D02*
X97740469Y-31670000D01*
X97625933Y-31784536D02*
X95264536Y-31784536D01*
X95264536Y-31784536D02*
X94843600Y-31363600D01*
X94843600Y-31363600D02*
X94843600Y-31360000D01*
D23*
%TO.N,+3.3V*%
X94742000Y-29210000D02*
X96042000Y-27910000D01*
X96042000Y-27910000D02*
X108072400Y-27910000D01*
X108072400Y-27910000D02*
X111455200Y-31292800D01*
X111455200Y-31292800D02*
X113648800Y-31292800D01*
X113648800Y-31292800D02*
X113960000Y-31604000D01*
X113960000Y-31604000D02*
X113960000Y-38694000D01*
X113960000Y-38694000D02*
X113944400Y-38709600D01*
%TO.N,GND*%
X97458886Y-34300000D02*
X97425817Y-34266931D01*
X101693234Y-34376766D02*
X101616468Y-34300000D01*
X101616468Y-34300000D02*
X97458886Y-34300000D01*
D22*
%TO.N,I2S_WCLK*%
X103632000Y-31685600D02*
X103705000Y-31758600D01*
X103705000Y-33547430D02*
X103308640Y-33943790D01*
X103308640Y-33943790D02*
X103308640Y-35222960D01*
X103705000Y-31758600D02*
X103705000Y-33547430D01*
X103308640Y-35222960D02*
X100789908Y-37741692D01*
X100789908Y-37741692D02*
X100789908Y-37935609D01*
D23*
%TO.N,GND*%
X99466400Y-30835600D02*
X99441000Y-30861000D01*
X115104900Y-37498300D02*
X115104900Y-40313100D01*
X104233640Y-36845592D02*
X104233640Y-34326938D01*
X93196184Y-30966184D02*
X93196184Y-28210678D01*
X94843600Y-37998400D02*
X98628850Y-37998400D01*
X96829400Y-30510000D02*
X93696000Y-30510000D01*
X105003600Y-30835600D02*
X100736400Y-30835600D01*
X114688883Y-37082283D02*
X114688883Y-30581600D01*
X92960000Y-31202368D02*
X92960000Y-31246000D01*
X100736400Y-30835600D02*
X99466400Y-30835600D01*
X105410000Y-31242000D02*
X105003600Y-30835600D01*
X97180400Y-30861000D02*
X96829400Y-30510000D01*
X115104900Y-40313100D02*
X114554000Y-40864000D01*
X93696000Y-30510000D02*
X92960000Y-31246000D01*
X94102400Y-41016400D02*
X92960000Y-39874000D01*
X105410000Y-31242000D02*
X107442000Y-29210000D01*
X101325485Y-39753747D02*
X104233640Y-36845592D01*
X93347747Y-39753747D02*
X93218000Y-39624000D01*
X108661200Y-31242000D02*
X105410000Y-31242000D01*
X115104900Y-37498300D02*
X114688883Y-37082283D01*
X97242785Y-30859536D02*
X97181864Y-30859536D01*
X97181864Y-30859536D02*
X97180400Y-30861000D01*
X115104900Y-37498300D02*
X115104900Y-39034025D01*
X92960000Y-39874000D02*
X92960000Y-31246000D01*
X109067600Y-30835600D02*
X108661200Y-31242000D01*
X93196184Y-30966184D02*
X92960000Y-31202368D01*
X93196184Y-28210678D02*
X93503141Y-27903721D01*
X100384197Y-39753747D02*
X101325485Y-39753747D01*
X114362525Y-39776400D02*
X113526275Y-39776400D01*
X98628850Y-37998400D02*
X100384197Y-39753747D01*
X92968000Y-39874000D02*
X92960000Y-39874000D01*
X115104900Y-39034025D02*
X114362525Y-39776400D01*
X112725200Y-37294527D02*
X112894400Y-37463727D01*
X99441000Y-30861000D02*
X97180400Y-30861000D01*
X93218000Y-39624000D02*
X92968000Y-39874000D01*
X93218000Y-39624000D02*
X94843600Y-37998400D01*
X113526275Y-39776400D02*
X112725200Y-38975325D01*
X112725200Y-38975325D02*
X112725200Y-37294527D01*
%TO.N,+3.3VA*%
X111125000Y-42578500D02*
X110015500Y-43688000D01*
X110015500Y-43688000D02*
X107275219Y-43688000D01*
X105708861Y-45254358D02*
X107275219Y-43688000D01*
%TO.N,GNDA*%
X104267000Y-44729400D02*
X104267000Y-45212000D01*
X93010000Y-48087076D02*
X97104276Y-43992800D01*
X98253850Y-47714500D02*
X97960000Y-48008350D01*
X104267000Y-45212000D02*
X107950000Y-41529000D01*
X107950000Y-41529000D02*
X110439200Y-41529000D01*
X97960000Y-48008350D02*
X97960000Y-49606924D01*
X115087400Y-48895000D02*
X114655600Y-49326800D01*
X114630200Y-44450000D02*
X114630200Y-42240200D01*
X97960000Y-49606924D02*
X96994924Y-50572000D01*
X93751400Y-58039000D02*
X95043000Y-58039000D01*
X93625076Y-50572000D02*
X93010000Y-49956924D01*
X95043000Y-58039000D02*
X99060000Y-54022000D01*
X94157800Y-42316400D02*
X94157800Y-43510200D01*
X114630200Y-44450000D02*
X114630200Y-43891200D01*
X114655600Y-57581800D02*
X105714800Y-57581800D01*
X110439200Y-41210218D02*
X110302710Y-41073728D01*
X112268000Y-41529000D02*
X110439200Y-41529000D01*
X109220000Y-51435000D02*
X109220000Y-52146200D01*
X114630200Y-43891200D02*
X112268000Y-41529000D01*
X96994924Y-50572000D02*
X93625076Y-50572000D01*
X107213400Y-57581800D02*
X110464600Y-54330600D01*
X114655600Y-49326800D02*
X114655600Y-53162200D01*
X99060000Y-54022000D02*
X96033600Y-54022000D01*
X97104276Y-43992800D02*
X103530400Y-43992800D01*
X114630200Y-42240200D02*
X114554000Y-42164000D01*
X105714800Y-57581800D02*
X107213400Y-57581800D01*
X94157800Y-43510200D02*
X93980000Y-43688000D01*
X105638600Y-57505600D02*
X105714800Y-57581800D01*
X96033600Y-54022000D02*
X93472000Y-51460400D01*
X103530400Y-43992800D02*
X104267000Y-44729400D01*
X114655600Y-57581800D02*
X114655600Y-53162200D01*
X93010000Y-49956924D02*
X93010000Y-48087076D01*
X109220000Y-52146200D02*
X114655600Y-57581800D01*
X110439200Y-41529000D02*
X110439200Y-41210218D01*
%TO.N,+1V8*%
X98856800Y-37236400D02*
X100406009Y-38785609D01*
X96215200Y-33267072D02*
X96215200Y-36271200D01*
X101303673Y-38785609D02*
X103383640Y-36705642D01*
X100406009Y-38785609D02*
X101303673Y-38785609D01*
X97180400Y-37236400D02*
X98856800Y-37236400D01*
X96215200Y-36271200D02*
X97180400Y-37236400D01*
X96235168Y-33247104D02*
X96215200Y-33267072D01*
X103383640Y-36705642D02*
X103383640Y-36179575D01*
D22*
%TO.N,+3.3V*%
X107246600Y-35872301D02*
X107507053Y-35611848D01*
D23*
X112979200Y-35305826D02*
X113944400Y-36271026D01*
X112979200Y-35305826D02*
X107813075Y-35305826D01*
X107813075Y-35305826D02*
X107246600Y-35872301D01*
D22*
%TO.N,Net-(J2-Pin_2)*%
X110204000Y-47530000D02*
X111379000Y-46355000D01*
X105615358Y-46179358D02*
X106966000Y-47530000D01*
X106966000Y-47530000D02*
X110204000Y-47530000D01*
X103837358Y-46179358D02*
X105615358Y-46179358D01*
X102806500Y-45148500D02*
X103837358Y-46179358D01*
%TO.N,Net-(J3-Pin_1)*%
X96092000Y-46990000D02*
X94060000Y-49022000D01*
X105336070Y-46924668D02*
X105270738Y-46990000D01*
X105270738Y-46990000D02*
X96092000Y-46990000D01*
%TO.N,I2S_DOUT*%
X99930949Y-37076651D02*
X99930949Y-36200666D01*
X99930949Y-36200666D02*
X100848197Y-35283418D01*
%TO.N,Net-(U1-I2C_ADR0)*%
X109349454Y-39367546D02*
X109104052Y-39367546D01*
X112221518Y-36495482D02*
X109349454Y-39367546D01*
X112221518Y-36440817D02*
X112221518Y-36495482D01*
D23*
%TO.N,GPIO1*%
X112649000Y-32893000D02*
X112496600Y-32893000D01*
D22*
%TO.N,~{TRIGGER}*%
X93886931Y-35735397D02*
X93845000Y-35693466D01*
X93845000Y-35693466D02*
X93845000Y-34211652D01*
X99122104Y-32322104D02*
X99800000Y-33000000D01*
X95852020Y-32322104D02*
X99122104Y-32322104D01*
X93845000Y-34211652D02*
X93962472Y-34211652D01*
X93962472Y-34211652D02*
X95852020Y-32322104D01*
%TD*%
%TA.AperFunction,Conductor*%
%TO.N,GNDA*%
G36*
X113063195Y-40166770D02*
G01*
X113084408Y-40183769D01*
X113157559Y-40256920D01*
X113239895Y-40304456D01*
X113294490Y-40335977D01*
X113361594Y-40353957D01*
X113421253Y-40390320D01*
X113451783Y-40453167D01*
X113453500Y-40473731D01*
X113453500Y-41256604D01*
X113433815Y-41323643D01*
X113428767Y-41330915D01*
X113360646Y-41421911D01*
X113360645Y-41421913D01*
X113310403Y-41556620D01*
X113310401Y-41556627D01*
X113304000Y-41616155D01*
X113304000Y-41914000D01*
X114680000Y-41914000D01*
X114747039Y-41933685D01*
X114792794Y-41986489D01*
X114804000Y-42038000D01*
X114804000Y-43164000D01*
X115351828Y-43164000D01*
X115351844Y-43163999D01*
X115411372Y-43157598D01*
X115411379Y-43157596D01*
X115546086Y-43107354D01*
X115546089Y-43107352D01*
X115625688Y-43047764D01*
X115691152Y-43023346D01*
X115759425Y-43038197D01*
X115808831Y-43087601D01*
X115824000Y-43147030D01*
X115824000Y-57605065D01*
X115821238Y-57631092D01*
X115784546Y-57802010D01*
X115777245Y-57824916D01*
X115708721Y-57984468D01*
X115697136Y-58005535D01*
X115599109Y-58148868D01*
X115583678Y-58167303D01*
X115459839Y-58289021D01*
X115441140Y-58304132D01*
X115296138Y-58399667D01*
X115274874Y-58410886D01*
X115114159Y-58476645D01*
X115091129Y-58483549D01*
X114919297Y-58517342D01*
X114898307Y-58519638D01*
X114811476Y-58521696D01*
X114808542Y-58521731D01*
X105560000Y-58522000D01*
X101384000Y-58522000D01*
X101316961Y-58502315D01*
X101271206Y-58449511D01*
X101260000Y-58398000D01*
X101260000Y-57521991D01*
X101257538Y-57459040D01*
X101257538Y-57459038D01*
X101257538Y-57459036D01*
X101218624Y-57339272D01*
X101144606Y-57237394D01*
X101069224Y-57182626D01*
X101042730Y-57163377D01*
X101042725Y-57163375D01*
X101033424Y-57160353D01*
X100922964Y-57124462D01*
X100922962Y-57124461D01*
X100922960Y-57124461D01*
X100860009Y-57122000D01*
X100860000Y-57122000D01*
X97260000Y-57122000D01*
X97259991Y-57122000D01*
X97197040Y-57124461D01*
X97197038Y-57124461D01*
X97077274Y-57163375D01*
X97077269Y-57163377D01*
X96975394Y-57237394D01*
X96901377Y-57339269D01*
X96901375Y-57339274D01*
X96862461Y-57459038D01*
X96862461Y-57459040D01*
X96860000Y-57521991D01*
X96860000Y-58398000D01*
X96840315Y-58465039D01*
X96787511Y-58510794D01*
X96736000Y-58522000D01*
X93980000Y-58522000D01*
X93579791Y-58521601D01*
X93577080Y-58521569D01*
X93489353Y-58519563D01*
X93467999Y-58517213D01*
X93294704Y-58482745D01*
X93271442Y-58475689D01*
X93109519Y-58408621D01*
X93088081Y-58397162D01*
X92942361Y-58299798D01*
X92923569Y-58284377D01*
X92799635Y-58160445D01*
X92784215Y-58141655D01*
X92686846Y-57995936D01*
X92675386Y-57974497D01*
X92608316Y-57812575D01*
X92601260Y-57789313D01*
X92585383Y-57709494D01*
X92583000Y-57685303D01*
X92583000Y-56438228D01*
X93209500Y-56438228D01*
X93209500Y-56605771D01*
X93242182Y-56770074D01*
X93242184Y-56770082D01*
X93306295Y-56924860D01*
X93399373Y-57064162D01*
X93517837Y-57182626D01*
X93599804Y-57237394D01*
X93657137Y-57275703D01*
X93811918Y-57339816D01*
X93976228Y-57372499D01*
X93976232Y-57372500D01*
X93976233Y-57372500D01*
X94143768Y-57372500D01*
X94143769Y-57372499D01*
X94308082Y-57339816D01*
X94462863Y-57275703D01*
X94602162Y-57182626D01*
X94720626Y-57064162D01*
X94813703Y-56924863D01*
X94877816Y-56770082D01*
X94910500Y-56605767D01*
X94910500Y-56438233D01*
X94910499Y-56438228D01*
X103209500Y-56438228D01*
X103209500Y-56605771D01*
X103242182Y-56770074D01*
X103242184Y-56770082D01*
X103306295Y-56924860D01*
X103399373Y-57064162D01*
X103517837Y-57182626D01*
X103599804Y-57237394D01*
X103657137Y-57275703D01*
X103811918Y-57339816D01*
X103976228Y-57372499D01*
X103976232Y-57372500D01*
X103976233Y-57372500D01*
X104143768Y-57372500D01*
X104143769Y-57372499D01*
X104308082Y-57339816D01*
X104462863Y-57275703D01*
X104602162Y-57182626D01*
X104720626Y-57064162D01*
X104813703Y-56924863D01*
X104877816Y-56770082D01*
X104910500Y-56605767D01*
X104910500Y-56438233D01*
X104877816Y-56273918D01*
X104813703Y-56119137D01*
X104782537Y-56072494D01*
X104720626Y-55979837D01*
X104602162Y-55861373D01*
X104462860Y-55768295D01*
X104308082Y-55704184D01*
X104308074Y-55704182D01*
X104143771Y-55671500D01*
X104143767Y-55671500D01*
X103976233Y-55671500D01*
X103976228Y-55671500D01*
X103811925Y-55704182D01*
X103811917Y-55704184D01*
X103657139Y-55768295D01*
X103517837Y-55861373D01*
X103399373Y-55979837D01*
X103306295Y-56119139D01*
X103242184Y-56273917D01*
X103242182Y-56273925D01*
X103209500Y-56438228D01*
X94910499Y-56438228D01*
X94877816Y-56273918D01*
X94813703Y-56119137D01*
X94782537Y-56072494D01*
X94720626Y-55979837D01*
X94602162Y-55861373D01*
X94462860Y-55768295D01*
X94308082Y-55704184D01*
X94308074Y-55704182D01*
X94143771Y-55671500D01*
X94143767Y-55671500D01*
X93976233Y-55671500D01*
X93976228Y-55671500D01*
X93811925Y-55704182D01*
X93811917Y-55704184D01*
X93657139Y-55768295D01*
X93517837Y-55861373D01*
X93399373Y-55979837D01*
X93306295Y-56119139D01*
X93242184Y-56273917D01*
X93242182Y-56273925D01*
X93209500Y-56438228D01*
X92583000Y-56438228D01*
X92583000Y-53938228D01*
X93209500Y-53938228D01*
X93209500Y-54105771D01*
X93242182Y-54270074D01*
X93242184Y-54270082D01*
X93306295Y-54424860D01*
X93399373Y-54564162D01*
X93517837Y-54682626D01*
X93601612Y-54738602D01*
X93657137Y-54775703D01*
X93811918Y-54839816D01*
X93976228Y-54872499D01*
X93976232Y-54872500D01*
X93976233Y-54872500D01*
X94143768Y-54872500D01*
X94143769Y-54872499D01*
X94308082Y-54839816D01*
X94462863Y-54775703D01*
X94602162Y-54682626D01*
X94720626Y-54564162D01*
X94813703Y-54424863D01*
X94877022Y-54272000D01*
X97485885Y-54272000D01*
X97487085Y-54279584D01*
X97540591Y-54444255D01*
X97619195Y-54598524D01*
X97720967Y-54738602D01*
X97843397Y-54861032D01*
X97983475Y-54962804D01*
X98137742Y-55041408D01*
X98302415Y-55094914D01*
X98473429Y-55122000D01*
X98810000Y-55122000D01*
X99310000Y-55122000D01*
X99646571Y-55122000D01*
X99817584Y-55094914D01*
X99982257Y-55041408D01*
X100136524Y-54962804D01*
X100276602Y-54861032D01*
X100399032Y-54738602D01*
X100500804Y-54598524D01*
X100579408Y-54444255D01*
X100632914Y-54279584D01*
X100634115Y-54272000D01*
X99310000Y-54272000D01*
X99310000Y-55122000D01*
X98810000Y-55122000D01*
X98810000Y-54272000D01*
X97485885Y-54272000D01*
X94877022Y-54272000D01*
X94877816Y-54270082D01*
X94910500Y-54105767D01*
X94910500Y-53982218D01*
X98360000Y-53982218D01*
X98360000Y-54061782D01*
X98390448Y-54135291D01*
X98446709Y-54191552D01*
X98520218Y-54222000D01*
X99599782Y-54222000D01*
X99673291Y-54191552D01*
X99729552Y-54135291D01*
X99760000Y-54061782D01*
X99760000Y-53982218D01*
X99741779Y-53938228D01*
X103209500Y-53938228D01*
X103209500Y-54105771D01*
X103242182Y-54270074D01*
X103242184Y-54270082D01*
X103306295Y-54424860D01*
X103399373Y-54564162D01*
X103517837Y-54682626D01*
X103601612Y-54738602D01*
X103657137Y-54775703D01*
X103811918Y-54839816D01*
X103976228Y-54872499D01*
X103976232Y-54872500D01*
X103976233Y-54872500D01*
X104143768Y-54872500D01*
X104143769Y-54872499D01*
X104308082Y-54839816D01*
X104462863Y-54775703D01*
X104602162Y-54682626D01*
X104720626Y-54564162D01*
X104813703Y-54424863D01*
X104877816Y-54270082D01*
X104910500Y-54105767D01*
X104910500Y-53938233D01*
X104877816Y-53773918D01*
X104813703Y-53619137D01*
X104782537Y-53572494D01*
X104720626Y-53479837D01*
X104602162Y-53361373D01*
X104462860Y-53268295D01*
X104308082Y-53204184D01*
X104308074Y-53204182D01*
X104143771Y-53171500D01*
X104143767Y-53171500D01*
X103976233Y-53171500D01*
X103976228Y-53171500D01*
X103811925Y-53204182D01*
X103811917Y-53204184D01*
X103657139Y-53268295D01*
X103517837Y-53361373D01*
X103399373Y-53479837D01*
X103306295Y-53619139D01*
X103242184Y-53773917D01*
X103242182Y-53773925D01*
X103209500Y-53938228D01*
X99741779Y-53938228D01*
X99729552Y-53908709D01*
X99673291Y-53852448D01*
X99599782Y-53822000D01*
X98520218Y-53822000D01*
X98446709Y-53852448D01*
X98390448Y-53908709D01*
X98360000Y-53982218D01*
X94910500Y-53982218D01*
X94910500Y-53938233D01*
X94877816Y-53773918D01*
X94877021Y-53771999D01*
X97485884Y-53771999D01*
X97485885Y-53772000D01*
X98810000Y-53772000D01*
X99310000Y-53772000D01*
X100634115Y-53772000D01*
X100634115Y-53771999D01*
X100632914Y-53764415D01*
X100579408Y-53599744D01*
X100500804Y-53445475D01*
X100399032Y-53305397D01*
X100276602Y-53182967D01*
X100136524Y-53081195D01*
X99982257Y-53002591D01*
X99817584Y-52949085D01*
X99646571Y-52922000D01*
X99310000Y-52922000D01*
X99310000Y-53772000D01*
X98810000Y-53772000D01*
X98810000Y-52922000D01*
X98473429Y-52922000D01*
X98302415Y-52949085D01*
X98137742Y-53002591D01*
X97983475Y-53081195D01*
X97843397Y-53182967D01*
X97720967Y-53305397D01*
X97619195Y-53445475D01*
X97540591Y-53599744D01*
X97487085Y-53764415D01*
X97485884Y-53771999D01*
X94877021Y-53771999D01*
X94813703Y-53619137D01*
X94782537Y-53572494D01*
X94720626Y-53479837D01*
X94602162Y-53361373D01*
X94462860Y-53268295D01*
X94308082Y-53204184D01*
X94308074Y-53204182D01*
X94143771Y-53171500D01*
X94143767Y-53171500D01*
X93976233Y-53171500D01*
X93976228Y-53171500D01*
X93811925Y-53204182D01*
X93811917Y-53204184D01*
X93657139Y-53268295D01*
X93517837Y-53361373D01*
X93399373Y-53479837D01*
X93306295Y-53619139D01*
X93242184Y-53773917D01*
X93242182Y-53773925D01*
X93209500Y-53938228D01*
X92583000Y-53938228D01*
X92583000Y-52232844D01*
X107970000Y-52232844D01*
X107976401Y-52292372D01*
X107976403Y-52292379D01*
X108026645Y-52427086D01*
X108026649Y-52427093D01*
X108112809Y-52542187D01*
X108112812Y-52542190D01*
X108227906Y-52628350D01*
X108227913Y-52628354D01*
X108362620Y-52678596D01*
X108362627Y-52678598D01*
X108422155Y-52684999D01*
X108422172Y-52685000D01*
X108970000Y-52685000D01*
X108970000Y-51685000D01*
X107970000Y-51685000D01*
X107970000Y-52232844D01*
X92583000Y-52232844D01*
X92583000Y-51392213D01*
X108895000Y-51392213D01*
X108895000Y-51477787D01*
X108917149Y-51560445D01*
X108959936Y-51634554D01*
X109020446Y-51695064D01*
X109094555Y-51737851D01*
X109177213Y-51760000D01*
X109262787Y-51760000D01*
X109345445Y-51737851D01*
X109419554Y-51695064D01*
X109470000Y-51644618D01*
X109470000Y-52685000D01*
X110017828Y-52685000D01*
X110017844Y-52684999D01*
X110077372Y-52678598D01*
X110077379Y-52678596D01*
X110212086Y-52628354D01*
X110212093Y-52628350D01*
X110327187Y-52542190D01*
X110327190Y-52542187D01*
X110413350Y-52427093D01*
X110413354Y-52427086D01*
X110463596Y-52292379D01*
X110463598Y-52292372D01*
X110469999Y-52232844D01*
X110470000Y-52232827D01*
X110470000Y-51811416D01*
X110489685Y-51744377D01*
X110542489Y-51698622D01*
X110611647Y-51688678D01*
X110675203Y-51717703D01*
X110712977Y-51776481D01*
X110713266Y-51777481D01*
X110729417Y-51834247D01*
X110729422Y-51834260D01*
X110820327Y-52016821D01*
X110943237Y-52179581D01*
X111093958Y-52316980D01*
X111093960Y-52316982D01*
X111193141Y-52378392D01*
X111267363Y-52424348D01*
X111457544Y-52498024D01*
X111658024Y-52535500D01*
X111658026Y-52535500D01*
X111861974Y-52535500D01*
X111861976Y-52535500D01*
X112062456Y-52498024D01*
X112252637Y-52424348D01*
X112426041Y-52316981D01*
X112576764Y-52179579D01*
X112699673Y-52016821D01*
X112790582Y-51834250D01*
X112846397Y-51638083D01*
X112865215Y-51435000D01*
X112846397Y-51231917D01*
X112790582Y-51035750D01*
X112699673Y-50853179D01*
X112576764Y-50690421D01*
X112576762Y-50690418D01*
X112426041Y-50553019D01*
X112426039Y-50553017D01*
X112252642Y-50445655D01*
X112252635Y-50445651D01*
X112157546Y-50408814D01*
X112062456Y-50371976D01*
X111861976Y-50334500D01*
X111658024Y-50334500D01*
X111457544Y-50371976D01*
X111457541Y-50371976D01*
X111457541Y-50371977D01*
X111267364Y-50445651D01*
X111267357Y-50445655D01*
X111093960Y-50553017D01*
X111093958Y-50553019D01*
X110943237Y-50690418D01*
X110820327Y-50853178D01*
X110729422Y-51035739D01*
X110729417Y-51035752D01*
X110713266Y-51092518D01*
X110675986Y-51151611D01*
X110612676Y-51181168D01*
X110543437Y-51171806D01*
X110490251Y-51126496D01*
X110470004Y-51059624D01*
X110470000Y-51058583D01*
X110470000Y-50637172D01*
X110469999Y-50637155D01*
X110463598Y-50577627D01*
X110463596Y-50577620D01*
X110413354Y-50442913D01*
X110413350Y-50442906D01*
X110327190Y-50327812D01*
X110327187Y-50327809D01*
X110212093Y-50241649D01*
X110212086Y-50241645D01*
X110077379Y-50191403D01*
X110077372Y-50191401D01*
X110017844Y-50185000D01*
X109470000Y-50185000D01*
X109470000Y-51225382D01*
X109419554Y-51174936D01*
X109345445Y-51132149D01*
X109262787Y-51110000D01*
X109177213Y-51110000D01*
X109094555Y-51132149D01*
X109020446Y-51174936D01*
X108959936Y-51235446D01*
X108917149Y-51309555D01*
X108895000Y-51392213D01*
X92583000Y-51392213D01*
X92583000Y-50637155D01*
X107970000Y-50637155D01*
X107970000Y-51185000D01*
X108970000Y-51185000D01*
X108970000Y-50185000D01*
X108422155Y-50185000D01*
X108362627Y-50191401D01*
X108362620Y-50191403D01*
X108227913Y-50241645D01*
X108227906Y-50241649D01*
X108112812Y-50327809D01*
X108112809Y-50327812D01*
X108026649Y-50442906D01*
X108026645Y-50442913D01*
X107976403Y-50577620D01*
X107976401Y-50577627D01*
X107970000Y-50637155D01*
X92583000Y-50637155D01*
X92583000Y-48428379D01*
X93109500Y-48428379D01*
X93109500Y-49615620D01*
X93146025Y-49799243D01*
X93146027Y-49799251D01*
X93217676Y-49972228D01*
X93217681Y-49972237D01*
X93321697Y-50127907D01*
X93321700Y-50127911D01*
X93454088Y-50260299D01*
X93454092Y-50260302D01*
X93609762Y-50364318D01*
X93609771Y-50364323D01*
X93648956Y-50380554D01*
X93782749Y-50435973D01*
X93966379Y-50472499D01*
X93966383Y-50472500D01*
X93966384Y-50472500D01*
X94153617Y-50472500D01*
X94153618Y-50472499D01*
X94337251Y-50435973D01*
X94510231Y-50364322D01*
X94665908Y-50260302D01*
X94798302Y-50127908D01*
X94902322Y-49972231D01*
X94973973Y-49799251D01*
X95010500Y-49615616D01*
X95010500Y-48795320D01*
X95030185Y-48728281D01*
X95046815Y-48707643D01*
X95397820Y-48356638D01*
X95459142Y-48323154D01*
X95528834Y-48328138D01*
X95584767Y-48370010D01*
X95609184Y-48435474D01*
X95609500Y-48444320D01*
X95609500Y-49615620D01*
X95646025Y-49799243D01*
X95646027Y-49799251D01*
X95717676Y-49972228D01*
X95717681Y-49972237D01*
X95821697Y-50127907D01*
X95821700Y-50127911D01*
X95954088Y-50260299D01*
X95954092Y-50260302D01*
X96109762Y-50364318D01*
X96109771Y-50364323D01*
X96148956Y-50380554D01*
X96282749Y-50435973D01*
X96466379Y-50472499D01*
X96466383Y-50472500D01*
X96466384Y-50472500D01*
X96653617Y-50472500D01*
X96653618Y-50472499D01*
X96837251Y-50435973D01*
X97010231Y-50364322D01*
X97165908Y-50260302D01*
X97298302Y-50127908D01*
X97402322Y-49972231D01*
X97473973Y-49799251D01*
X97510500Y-49615616D01*
X97510500Y-48938228D01*
X98209500Y-48938228D01*
X98209500Y-49105771D01*
X98242182Y-49270074D01*
X98242184Y-49270082D01*
X98306295Y-49424860D01*
X98399373Y-49564162D01*
X98517837Y-49682626D01*
X98610494Y-49744537D01*
X98657137Y-49775703D01*
X98811918Y-49839816D01*
X98976228Y-49872499D01*
X98976232Y-49872500D01*
X98976233Y-49872500D01*
X99143768Y-49872500D01*
X99143769Y-49872499D01*
X99308082Y-49839816D01*
X99462863Y-49775703D01*
X99602162Y-49682626D01*
X99720626Y-49564162D01*
X99813703Y-49424863D01*
X99877816Y-49270082D01*
X99910500Y-49105767D01*
X99910500Y-48938233D01*
X99877816Y-48773918D01*
X99813703Y-48619137D01*
X99782537Y-48572494D01*
X99720626Y-48479837D01*
X99602162Y-48361373D01*
X99462860Y-48268295D01*
X99308082Y-48204184D01*
X99308074Y-48204182D01*
X99143771Y-48171500D01*
X99143767Y-48171500D01*
X98976233Y-48171500D01*
X98976228Y-48171500D01*
X98811925Y-48204182D01*
X98811917Y-48204184D01*
X98657139Y-48268295D01*
X98517837Y-48361373D01*
X98399373Y-48479837D01*
X98306295Y-48619139D01*
X98242184Y-48773917D01*
X98242182Y-48773925D01*
X98209500Y-48938228D01*
X97510500Y-48938228D01*
X97510500Y-48428384D01*
X97473973Y-48244749D01*
X97402322Y-48071769D01*
X97402321Y-48071768D01*
X97402318Y-48071762D01*
X97298302Y-47916092D01*
X97298299Y-47916088D01*
X97165911Y-47783700D01*
X97165907Y-47783697D01*
X97029574Y-47692602D01*
X96984769Y-47638990D01*
X96976062Y-47569665D01*
X97006216Y-47506637D01*
X97065659Y-47469918D01*
X97098465Y-47465500D01*
X101021535Y-47465500D01*
X101088574Y-47485185D01*
X101134329Y-47537989D01*
X101144273Y-47607147D01*
X101115248Y-47670703D01*
X101090426Y-47692602D01*
X100954092Y-47783697D01*
X100954088Y-47783700D01*
X100821700Y-47916088D01*
X100821697Y-47916092D01*
X100717681Y-48071762D01*
X100717676Y-48071771D01*
X100646027Y-48244748D01*
X100646025Y-48244756D01*
X100609500Y-48428379D01*
X100609500Y-49615620D01*
X100646025Y-49799243D01*
X100646027Y-49799251D01*
X100717676Y-49972228D01*
X100717681Y-49972237D01*
X100821697Y-50127907D01*
X100821700Y-50127911D01*
X100954088Y-50260299D01*
X100954092Y-50260302D01*
X101109762Y-50364318D01*
X101109771Y-50364323D01*
X101148956Y-50380554D01*
X101282749Y-50435973D01*
X101466379Y-50472499D01*
X101466383Y-50472500D01*
X101466384Y-50472500D01*
X101653617Y-50472500D01*
X101653618Y-50472499D01*
X101837251Y-50435973D01*
X102010231Y-50364322D01*
X102165908Y-50260302D01*
X102298302Y-50127908D01*
X102402322Y-49972231D01*
X102473973Y-49799251D01*
X102510500Y-49615616D01*
X102510500Y-48428384D01*
X102473973Y-48244749D01*
X102402322Y-48071769D01*
X102402321Y-48071768D01*
X102402318Y-48071762D01*
X102298302Y-47916092D01*
X102298299Y-47916088D01*
X102165911Y-47783700D01*
X102165907Y-47783697D01*
X102029574Y-47692602D01*
X101984769Y-47638990D01*
X101976062Y-47569665D01*
X102006216Y-47506637D01*
X102065659Y-47469918D01*
X102098465Y-47465500D01*
X103521535Y-47465500D01*
X103588574Y-47485185D01*
X103634329Y-47537989D01*
X103644273Y-47607147D01*
X103615248Y-47670703D01*
X103590426Y-47692602D01*
X103454092Y-47783697D01*
X103454088Y-47783700D01*
X103321700Y-47916088D01*
X103321697Y-47916092D01*
X103217681Y-48071762D01*
X103217676Y-48071771D01*
X103146027Y-48244748D01*
X103146025Y-48244756D01*
X103109500Y-48428379D01*
X103109500Y-49615620D01*
X103146025Y-49799243D01*
X103146027Y-49799251D01*
X103217676Y-49972228D01*
X103217681Y-49972237D01*
X103321697Y-50127907D01*
X103321700Y-50127911D01*
X103454088Y-50260299D01*
X103454092Y-50260302D01*
X103609762Y-50364318D01*
X103609771Y-50364323D01*
X103648956Y-50380554D01*
X103782749Y-50435973D01*
X103966379Y-50472499D01*
X103966383Y-50472500D01*
X103966384Y-50472500D01*
X104153617Y-50472500D01*
X104153618Y-50472499D01*
X104337251Y-50435973D01*
X104510231Y-50364322D01*
X104665908Y-50260302D01*
X104798302Y-50127908D01*
X104902322Y-49972231D01*
X104973973Y-49799251D01*
X105010500Y-49615616D01*
X105010500Y-48428384D01*
X104973973Y-48244749D01*
X104902322Y-48071769D01*
X104902321Y-48071768D01*
X104902318Y-48071762D01*
X104798302Y-47916092D01*
X104798299Y-47916088D01*
X104665911Y-47783700D01*
X104665907Y-47783697D01*
X104529574Y-47692602D01*
X104484769Y-47638990D01*
X104476062Y-47569665D01*
X104506216Y-47506637D01*
X104565659Y-47469918D01*
X104598465Y-47465500D01*
X104764173Y-47465500D01*
X104831212Y-47485185D01*
X104851854Y-47501819D01*
X104865179Y-47515144D01*
X104865185Y-47515149D01*
X105008372Y-47605120D01*
X105008375Y-47605122D01*
X105008379Y-47605123D01*
X105008380Y-47605124D01*
X105080983Y-47630528D01*
X105168013Y-47660982D01*
X105336067Y-47679917D01*
X105336070Y-47679917D01*
X105336073Y-47679917D01*
X105504126Y-47660982D01*
X105504129Y-47660981D01*
X105663760Y-47605124D01*
X105663762Y-47605122D01*
X105663764Y-47605122D01*
X105663767Y-47605120D01*
X105806954Y-47515149D01*
X105806955Y-47515148D01*
X105806960Y-47515145D01*
X105926547Y-47395558D01*
X105933557Y-47384400D01*
X105985888Y-47338111D01*
X106054941Y-47327460D01*
X106118791Y-47355833D01*
X106126232Y-47362691D01*
X106585505Y-47821964D01*
X106674036Y-47910495D01*
X106782464Y-47973095D01*
X106903399Y-48005500D01*
X106903401Y-48005500D01*
X110266599Y-48005500D01*
X110266601Y-48005500D01*
X110387536Y-47973095D01*
X110495964Y-47910495D01*
X110878609Y-47527848D01*
X110939930Y-47494365D01*
X111009621Y-47499349D01*
X111011040Y-47499888D01*
X111049060Y-47514618D01*
X111267757Y-47555500D01*
X111267759Y-47555500D01*
X111490241Y-47555500D01*
X111490243Y-47555500D01*
X111708940Y-47514618D01*
X111916401Y-47434247D01*
X112105562Y-47317124D01*
X112269981Y-47167236D01*
X112404058Y-46989689D01*
X112483500Y-46830149D01*
X112531003Y-46778912D01*
X112598666Y-46761491D01*
X112665006Y-46783417D01*
X112708961Y-46837728D01*
X112718500Y-46885421D01*
X112718500Y-47238260D01*
X112728426Y-47306391D01*
X112738726Y-47327460D01*
X112766563Y-47384403D01*
X112779803Y-47411485D01*
X112862514Y-47494196D01*
X112862515Y-47494196D01*
X112862517Y-47494198D01*
X112967607Y-47545573D01*
X113001673Y-47550536D01*
X113035739Y-47555500D01*
X113035740Y-47555500D01*
X114802261Y-47555500D01*
X114824971Y-47552191D01*
X114870393Y-47545573D01*
X114975483Y-47494198D01*
X115058198Y-47411483D01*
X115109573Y-47306393D01*
X115119500Y-47238260D01*
X115119500Y-45471740D01*
X115109573Y-45403607D01*
X115058198Y-45298517D01*
X115058196Y-45298515D01*
X115058196Y-45298514D01*
X114975485Y-45215803D01*
X114870391Y-45164426D01*
X114802261Y-45154500D01*
X114802260Y-45154500D01*
X113035740Y-45154500D01*
X113035739Y-45154500D01*
X112967608Y-45164426D01*
X112862514Y-45215803D01*
X112779803Y-45298514D01*
X112728426Y-45403608D01*
X112718500Y-45471739D01*
X112718500Y-45824578D01*
X112698815Y-45891617D01*
X112646011Y-45937372D01*
X112576853Y-45947316D01*
X112513297Y-45918291D01*
X112483500Y-45879850D01*
X112404061Y-45720316D01*
X112404056Y-45720308D01*
X112269979Y-45542761D01*
X112105562Y-45392876D01*
X112105560Y-45392874D01*
X111916404Y-45275754D01*
X111916398Y-45275752D01*
X111708940Y-45195382D01*
X111490243Y-45154500D01*
X111267757Y-45154500D01*
X111049060Y-45195382D01*
X110994933Y-45216351D01*
X110841601Y-45275752D01*
X110841595Y-45275754D01*
X110652439Y-45392874D01*
X110652437Y-45392876D01*
X110488020Y-45542761D01*
X110353943Y-45720308D01*
X110353938Y-45720316D01*
X110254775Y-45919461D01*
X110254769Y-45919476D01*
X110228266Y-46012627D01*
X110190987Y-46071721D01*
X110127677Y-46101278D01*
X110058438Y-46091916D01*
X110005251Y-46046606D01*
X109989734Y-46012627D01*
X109963230Y-45919476D01*
X109963229Y-45919472D01*
X109962641Y-45918291D01*
X109864061Y-45720316D01*
X109864056Y-45720308D01*
X109729979Y-45542761D01*
X109565562Y-45392876D01*
X109565560Y-45392874D01*
X109376404Y-45275754D01*
X109376398Y-45275752D01*
X109168940Y-45195382D01*
X108950243Y-45154500D01*
X108727757Y-45154500D01*
X108509060Y-45195382D01*
X108454933Y-45216351D01*
X108301601Y-45275752D01*
X108301595Y-45275754D01*
X108112439Y-45392874D01*
X108112437Y-45392876D01*
X107948020Y-45542761D01*
X107813943Y-45720308D01*
X107813938Y-45720316D01*
X107714775Y-45919461D01*
X107714769Y-45919476D01*
X107653885Y-46133462D01*
X107653884Y-46133464D01*
X107633357Y-46354999D01*
X107633357Y-46355000D01*
X107653884Y-46576535D01*
X107653885Y-46576537D01*
X107714769Y-46790523D01*
X107714775Y-46790538D01*
X107756946Y-46875228D01*
X107769207Y-46944014D01*
X107742334Y-47008509D01*
X107684858Y-47048236D01*
X107645946Y-47054500D01*
X107214321Y-47054500D01*
X107147282Y-47034815D01*
X107126640Y-47018181D01*
X106290896Y-46182437D01*
X106257411Y-46121114D01*
X106262395Y-46051422D01*
X106299911Y-45998903D01*
X106384218Y-45929715D01*
X106502997Y-45784983D01*
X106591257Y-45619859D01*
X106645608Y-45440689D01*
X106663960Y-45254358D01*
X106660216Y-45216349D01*
X106673234Y-45147705D01*
X106695935Y-45116518D01*
X107487636Y-44324819D01*
X107548959Y-44291334D01*
X107575317Y-44288500D01*
X109928831Y-44288500D01*
X109928847Y-44288501D01*
X109936443Y-44288501D01*
X110094554Y-44288501D01*
X110094557Y-44288501D01*
X110247285Y-44247577D01*
X110297404Y-44218639D01*
X110384216Y-44168520D01*
X110496020Y-44056716D01*
X110496020Y-44056714D01*
X110506228Y-44046507D01*
X110506230Y-44046504D01*
X110987158Y-43565575D01*
X111048479Y-43532092D01*
X111086988Y-43529855D01*
X111125000Y-43533599D01*
X111311331Y-43515247D01*
X111490501Y-43460896D01*
X111655625Y-43372636D01*
X111800357Y-43253857D01*
X111919136Y-43109125D01*
X112007396Y-42944001D01*
X112061747Y-42764831D01*
X112066966Y-42711844D01*
X113304000Y-42711844D01*
X113310401Y-42771372D01*
X113310403Y-42771379D01*
X113360645Y-42906086D01*
X113360649Y-42906093D01*
X113446809Y-43021187D01*
X113446812Y-43021190D01*
X113561906Y-43107350D01*
X113561913Y-43107354D01*
X113696620Y-43157596D01*
X113696627Y-43157598D01*
X113756155Y-43163999D01*
X113756172Y-43164000D01*
X114304000Y-43164000D01*
X114304000Y-42414000D01*
X113304000Y-42414000D01*
X113304000Y-42711844D01*
X112066966Y-42711844D01*
X112080099Y-42578500D01*
X112061747Y-42392169D01*
X112007396Y-42212999D01*
X111919136Y-42047875D01*
X111919135Y-42047873D01*
X111800357Y-41903142D01*
X111655626Y-41784364D01*
X111655623Y-41784362D01*
X111490502Y-41696104D01*
X111311333Y-41641753D01*
X111311331Y-41641752D01*
X111125000Y-41623401D01*
X110938668Y-41641752D01*
X110938666Y-41641753D01*
X110759497Y-41696104D01*
X110594376Y-41784362D01*
X110594373Y-41784364D01*
X110449642Y-41903142D01*
X110330864Y-42047873D01*
X110330862Y-42047876D01*
X110242604Y-42212997D01*
X110188253Y-42392166D01*
X110188252Y-42392168D01*
X110169901Y-42578500D01*
X110173644Y-42616507D01*
X110160625Y-42685153D01*
X110137922Y-42716341D01*
X109803082Y-43051182D01*
X109741761Y-43084666D01*
X109715403Y-43087500D01*
X107361889Y-43087500D01*
X107361873Y-43087499D01*
X107354277Y-43087499D01*
X107196162Y-43087499D01*
X107122079Y-43107350D01*
X107043433Y-43128423D01*
X107043428Y-43128426D01*
X106906509Y-43207475D01*
X106906501Y-43207481D01*
X105846701Y-44267280D01*
X105785378Y-44300765D01*
X105746867Y-44303002D01*
X105708861Y-44299259D01*
X105522529Y-44317610D01*
X105522527Y-44317611D01*
X105343358Y-44371962D01*
X105178237Y-44460220D01*
X105178234Y-44460222D01*
X105033503Y-44579000D01*
X104914725Y-44723731D01*
X104914723Y-44723734D01*
X104826465Y-44888855D01*
X104772114Y-45068024D01*
X104772113Y-45068026D01*
X104753762Y-45254358D01*
X104772113Y-45440685D01*
X104772113Y-45440687D01*
X104772114Y-45440689D01*
X104803412Y-45543864D01*
X104804035Y-45613729D01*
X104766787Y-45672842D01*
X104703493Y-45702433D01*
X104684751Y-45703858D01*
X104085679Y-45703858D01*
X104018640Y-45684173D01*
X103997998Y-45667539D01*
X103595590Y-45265131D01*
X103562105Y-45203808D01*
X103560051Y-45163567D01*
X103561749Y-45148500D01*
X103552681Y-45068024D01*
X103542814Y-44980443D01*
X103486954Y-44820805D01*
X103486952Y-44820802D01*
X103396981Y-44677615D01*
X103396976Y-44677609D01*
X103277390Y-44558023D01*
X103277384Y-44558018D01*
X103134197Y-44468047D01*
X103134194Y-44468045D01*
X102974556Y-44412185D01*
X102806503Y-44393251D01*
X102806497Y-44393251D01*
X102638443Y-44412185D01*
X102478805Y-44468045D01*
X102478802Y-44468047D01*
X102335615Y-44558018D01*
X102335609Y-44558023D01*
X102216023Y-44677609D01*
X102216018Y-44677615D01*
X102126047Y-44820802D01*
X102126045Y-44820805D01*
X102070185Y-44980443D01*
X102051251Y-45148497D01*
X102051251Y-45148502D01*
X102070185Y-45316556D01*
X102126045Y-45476194D01*
X102126047Y-45476197D01*
X102216018Y-45619384D01*
X102216023Y-45619390D01*
X102335609Y-45738976D01*
X102335615Y-45738981D01*
X102478802Y-45828952D01*
X102478805Y-45828954D01*
X102478809Y-45828955D01*
X102478810Y-45828956D01*
X102551413Y-45854360D01*
X102638443Y-45884814D01*
X102732091Y-45895365D01*
X102806500Y-45903749D01*
X102821564Y-45902051D01*
X102890384Y-45914104D01*
X102923131Y-45937590D01*
X103288360Y-46302819D01*
X103321845Y-46364142D01*
X103316861Y-46433834D01*
X103274989Y-46489767D01*
X103209525Y-46514184D01*
X103200679Y-46514500D01*
X96154601Y-46514500D01*
X96029399Y-46514500D01*
X95948775Y-46536103D01*
X95908463Y-46546905D01*
X95800037Y-46609504D01*
X95800034Y-46609506D01*
X94713848Y-47695691D01*
X94652525Y-47729176D01*
X94582833Y-47724192D01*
X94557276Y-47711112D01*
X94510237Y-47679681D01*
X94510228Y-47679676D01*
X94337251Y-47608027D01*
X94337243Y-47608025D01*
X94153620Y-47571500D01*
X94153616Y-47571500D01*
X93966384Y-47571500D01*
X93966379Y-47571500D01*
X93782756Y-47608025D01*
X93782748Y-47608027D01*
X93609771Y-47679676D01*
X93609762Y-47679681D01*
X93454092Y-47783697D01*
X93454088Y-47783700D01*
X93321700Y-47916088D01*
X93321697Y-47916092D01*
X93217681Y-48071762D01*
X93217676Y-48071771D01*
X93146027Y-48244748D01*
X93146025Y-48244756D01*
X93109500Y-48428379D01*
X92583000Y-48428379D01*
X92583000Y-42864244D01*
X92907800Y-42864244D01*
X92914201Y-42923772D01*
X92914203Y-42923779D01*
X92964445Y-43058486D01*
X92964449Y-43058493D01*
X93050609Y-43173587D01*
X93050612Y-43173590D01*
X93165706Y-43259750D01*
X93165713Y-43259754D01*
X93300420Y-43309996D01*
X93300427Y-43309998D01*
X93359955Y-43316399D01*
X93359972Y-43316400D01*
X93907800Y-43316400D01*
X94407800Y-43316400D01*
X94955628Y-43316400D01*
X94955644Y-43316399D01*
X95015172Y-43309998D01*
X95015179Y-43309996D01*
X95149886Y-43259754D01*
X95149893Y-43259750D01*
X95264987Y-43173590D01*
X95264990Y-43173587D01*
X95351150Y-43058493D01*
X95351154Y-43058486D01*
X95401396Y-42923779D01*
X95401398Y-42923772D01*
X95407799Y-42864244D01*
X95407800Y-42864227D01*
X95407800Y-42566400D01*
X94407800Y-42566400D01*
X94407800Y-43316400D01*
X93907800Y-43316400D01*
X93907800Y-42566400D01*
X92907800Y-42566400D01*
X92907800Y-42864244D01*
X92583000Y-42864244D01*
X92583000Y-40645597D01*
X92602685Y-40578558D01*
X92655489Y-40532803D01*
X92724647Y-40522859D01*
X92788203Y-40551884D01*
X92794681Y-40557916D01*
X93020981Y-40784216D01*
X93054466Y-40845539D01*
X93057300Y-40871897D01*
X93057300Y-41409004D01*
X93037615Y-41476043D01*
X93032567Y-41483315D01*
X92964446Y-41574311D01*
X92964445Y-41574313D01*
X92914203Y-41709020D01*
X92914201Y-41709027D01*
X92907800Y-41768555D01*
X92907800Y-42066400D01*
X95407800Y-42066400D01*
X95407800Y-41768572D01*
X95407799Y-41768555D01*
X95401398Y-41709027D01*
X95401396Y-41709020D01*
X95351154Y-41574313D01*
X95351153Y-41574311D01*
X95283033Y-41483315D01*
X95258616Y-41417851D01*
X95258300Y-41409004D01*
X95258300Y-40483139D01*
X95248373Y-40415007D01*
X95245530Y-40405805D01*
X95248936Y-40404752D01*
X95240160Y-40353429D01*
X95267485Y-40289124D01*
X95325239Y-40249801D01*
X95362640Y-40243810D01*
X97009575Y-40234811D01*
X97076718Y-40254128D01*
X97093783Y-40267166D01*
X97165038Y-40332124D01*
X97165040Y-40332125D01*
X97165041Y-40332126D01*
X97354195Y-40449245D01*
X97354201Y-40449248D01*
X97407441Y-40469873D01*
X97462842Y-40512446D01*
X97486433Y-40578213D01*
X97470722Y-40646293D01*
X97420698Y-40695072D01*
X97362647Y-40709500D01*
X97008339Y-40709500D01*
X96940208Y-40719426D01*
X96835114Y-40770803D01*
X96752403Y-40853514D01*
X96701026Y-40958608D01*
X96691100Y-41026739D01*
X96691100Y-42793260D01*
X96701026Y-42861391D01*
X96752403Y-42966485D01*
X96835114Y-43049196D01*
X96835115Y-43049196D01*
X96835117Y-43049198D01*
X96940207Y-43100573D01*
X96974273Y-43105536D01*
X97008339Y-43110500D01*
X97008340Y-43110500D01*
X98774861Y-43110500D01*
X98797571Y-43107191D01*
X98842993Y-43100573D01*
X98948083Y-43049198D01*
X99030798Y-42966483D01*
X99082173Y-42861393D01*
X99092100Y-42793260D01*
X99092100Y-41026740D01*
X99082173Y-40958607D01*
X99030798Y-40853517D01*
X99030796Y-40853515D01*
X99030796Y-40853514D01*
X98948085Y-40770803D01*
X98842991Y-40719426D01*
X98774861Y-40709500D01*
X98774860Y-40709500D01*
X98420553Y-40709500D01*
X98353514Y-40689815D01*
X98307759Y-40637011D01*
X98297815Y-40567853D01*
X98326840Y-40504297D01*
X98375759Y-40469873D01*
X98428998Y-40449248D01*
X98428996Y-40449248D01*
X98429001Y-40449247D01*
X98618162Y-40332124D01*
X98700042Y-40257479D01*
X98762844Y-40226863D01*
X98782880Y-40225120D01*
X99954643Y-40218717D01*
X100017316Y-40235326D01*
X100152413Y-40313324D01*
X100305140Y-40354248D01*
X100305142Y-40354248D01*
X100470851Y-40354248D01*
X100470867Y-40354247D01*
X101238816Y-40354247D01*
X101238832Y-40354248D01*
X101246428Y-40354248D01*
X101404539Y-40354248D01*
X101404542Y-40354248D01*
X101557270Y-40313324D01*
X101607389Y-40284386D01*
X101701241Y-40230203D01*
X101701913Y-40231367D01*
X101759149Y-40209232D01*
X101768767Y-40208804D01*
X104942087Y-40191464D01*
X104813285Y-40320266D01*
X104972056Y-40375824D01*
X105139996Y-40394746D01*
X105140004Y-40394746D01*
X105307943Y-40375824D01*
X105466713Y-40320267D01*
X105466714Y-40320266D01*
X105335760Y-40189312D01*
X112996053Y-40147453D01*
X113063195Y-40166770D01*
G37*
%TD.AperFunction*%
%TD*%
%TA.AperFunction,Conductor*%
%TO.N,GND*%
G36*
X95713125Y-27197685D02*
G01*
X95758880Y-27250489D01*
X95768824Y-27319647D01*
X95739799Y-27383203D01*
X95708085Y-27409387D01*
X95697746Y-27415357D01*
X95673285Y-27429479D01*
X95673282Y-27429481D01*
X95129583Y-27973181D01*
X95068260Y-28006666D01*
X95041902Y-28009500D01*
X93858739Y-28009500D01*
X93790608Y-28019426D01*
X93685514Y-28070803D01*
X93602803Y-28153514D01*
X93551426Y-28258608D01*
X93541500Y-28326739D01*
X93541500Y-30093260D01*
X93551426Y-30161391D01*
X93602803Y-30266485D01*
X93685514Y-30349196D01*
X93685515Y-30349196D01*
X93685517Y-30349198D01*
X93790607Y-30400573D01*
X93824673Y-30405536D01*
X93858739Y-30410500D01*
X94554981Y-30410500D01*
X94622020Y-30430185D01*
X94667775Y-30482989D01*
X94677719Y-30552147D01*
X94648694Y-30615703D01*
X94595936Y-30651542D01*
X94515905Y-30679545D01*
X94515902Y-30679547D01*
X94372715Y-30769518D01*
X94372709Y-30769523D01*
X94253123Y-30889109D01*
X94253118Y-30889115D01*
X94163147Y-31032302D01*
X94163145Y-31032305D01*
X94107285Y-31191943D01*
X94088351Y-31359997D01*
X94088351Y-31360002D01*
X94107285Y-31528056D01*
X94163145Y-31687694D01*
X94163147Y-31687697D01*
X94253118Y-31830884D01*
X94253123Y-31830890D01*
X94372709Y-31950476D01*
X94372715Y-31950481D01*
X94515902Y-32040452D01*
X94515905Y-32040454D01*
X94515909Y-32040455D01*
X94515910Y-32040456D01*
X94675541Y-32096313D01*
X94675544Y-32096314D01*
X94843597Y-32115249D01*
X94843600Y-32115249D01*
X94855429Y-32113916D01*
X94924251Y-32125969D01*
X94956996Y-32149455D01*
X94972572Y-32165031D01*
X95063430Y-32217487D01*
X95111644Y-32268051D01*
X95124868Y-32336658D01*
X95098901Y-32401523D01*
X95089110Y-32412554D01*
X93782825Y-33718838D01*
X93727239Y-33750931D01*
X93661470Y-33768554D01*
X93661463Y-33768557D01*
X93553037Y-33831156D01*
X93553034Y-33831158D01*
X93464506Y-33919686D01*
X93464504Y-33919689D01*
X93401905Y-34028115D01*
X93388699Y-34077402D01*
X93375160Y-34127930D01*
X93369500Y-34149052D01*
X93369500Y-35140099D01*
X93349815Y-35207138D01*
X93333181Y-35227780D01*
X93296454Y-35264506D01*
X93296449Y-35264512D01*
X93206478Y-35407699D01*
X93206476Y-35407702D01*
X93150616Y-35567340D01*
X93131682Y-35735394D01*
X93131682Y-35735399D01*
X93150616Y-35903453D01*
X93206476Y-36063091D01*
X93206478Y-36063094D01*
X93296449Y-36206281D01*
X93296454Y-36206287D01*
X93416040Y-36325873D01*
X93416046Y-36325878D01*
X93559233Y-36415849D01*
X93559236Y-36415851D01*
X93559240Y-36415852D01*
X93559241Y-36415853D01*
X93621619Y-36437680D01*
X93718874Y-36471711D01*
X93886928Y-36490646D01*
X93886931Y-36490646D01*
X93886934Y-36490646D01*
X94054987Y-36471711D01*
X94080519Y-36462777D01*
X94214621Y-36415853D01*
X94214623Y-36415851D01*
X94214625Y-36415851D01*
X94214628Y-36415849D01*
X94357815Y-36325878D01*
X94357816Y-36325877D01*
X94357821Y-36325874D01*
X94477408Y-36206287D01*
X94481362Y-36199995D01*
X94567383Y-36063094D01*
X94567385Y-36063091D01*
X94567385Y-36063089D01*
X94567387Y-36063087D01*
X94623244Y-35903456D01*
X94623244Y-35903455D01*
X94623245Y-35903453D01*
X94642180Y-35735399D01*
X94642180Y-35735394D01*
X94623245Y-35567340D01*
X94576746Y-35434455D01*
X94567387Y-35407707D01*
X94567386Y-35407706D01*
X94567385Y-35407702D01*
X94567383Y-35407699D01*
X94477412Y-35264512D01*
X94477407Y-35264506D01*
X94356819Y-35143918D01*
X94323334Y-35082595D01*
X94320500Y-35056237D01*
X94320500Y-34577444D01*
X94340185Y-34510405D01*
X94356814Y-34489767D01*
X95193169Y-33653412D01*
X95254490Y-33619929D01*
X95324181Y-33624913D01*
X95380115Y-33666785D01*
X95390206Y-33682641D01*
X95402285Y-33705238D01*
X95436129Y-33768557D01*
X95441033Y-33777730D01*
X95559811Y-33922462D01*
X95569363Y-33930301D01*
X95608699Y-33988046D01*
X95614700Y-34026155D01*
X95614700Y-36184530D01*
X95614699Y-36184548D01*
X95614699Y-36350254D01*
X95614698Y-36350254D01*
X95655623Y-36502985D01*
X95666256Y-36521401D01*
X95666257Y-36521404D01*
X95734675Y-36639909D01*
X95734681Y-36639917D01*
X95853549Y-36758785D01*
X95853555Y-36758790D01*
X96695539Y-37600774D01*
X96695549Y-37600785D01*
X96699879Y-37605115D01*
X96699880Y-37605116D01*
X96811684Y-37716920D01*
X96876777Y-37754501D01*
X96948615Y-37795977D01*
X97101343Y-37836901D01*
X97101346Y-37836901D01*
X97267053Y-37836901D01*
X97267069Y-37836900D01*
X98556703Y-37836900D01*
X98623742Y-37856585D01*
X98644384Y-37873219D01*
X99921148Y-39149983D01*
X99921158Y-39149994D01*
X99925488Y-39154324D01*
X99925489Y-39154325D01*
X100037293Y-39266129D01*
X100037295Y-39266130D01*
X100037299Y-39266133D01*
X100174218Y-39345182D01*
X100174225Y-39345186D01*
X100286028Y-39375143D01*
X100326951Y-39386109D01*
X100326952Y-39386109D01*
X101217004Y-39386109D01*
X101217020Y-39386110D01*
X101224616Y-39386110D01*
X101382727Y-39386110D01*
X101382730Y-39386110D01*
X101535458Y-39345186D01*
X101585577Y-39316248D01*
X101672389Y-39266129D01*
X101784193Y-39154325D01*
X101784193Y-39154323D01*
X101794401Y-39144116D01*
X101794402Y-39144113D01*
X103864160Y-37074358D01*
X103943217Y-36937426D01*
X103984141Y-36784699D01*
X103984141Y-36670234D01*
X104003147Y-36604262D01*
X104064096Y-36507265D01*
X104119953Y-36347634D01*
X104137473Y-36192143D01*
X104138889Y-36179577D01*
X104138889Y-36179572D01*
X104119954Y-36011518D01*
X104071799Y-35873899D01*
X104064096Y-35851885D01*
X104064095Y-35851884D01*
X104064094Y-35851880D01*
X104064092Y-35851877D01*
X103974121Y-35708690D01*
X103974116Y-35708684D01*
X103854528Y-35589096D01*
X103801606Y-35555843D01*
X103755316Y-35503508D01*
X103744668Y-35434455D01*
X103750045Y-35414456D01*
X103749631Y-35414346D01*
X103751733Y-35406497D01*
X103751735Y-35406496D01*
X103784140Y-35285561D01*
X103784140Y-35160359D01*
X103784140Y-34192110D01*
X103803825Y-34125071D01*
X103820459Y-34104429D01*
X103898733Y-34026155D01*
X103996962Y-33927926D01*
X103996964Y-33927925D01*
X104085495Y-33839394D01*
X104085501Y-33839382D01*
X104085514Y-33839367D01*
X104085543Y-33839345D01*
X104091242Y-33833647D01*
X104092130Y-33834535D01*
X104141940Y-33798162D01*
X104211686Y-33794004D01*
X104267431Y-33823211D01*
X104302438Y-33855124D01*
X104302440Y-33855125D01*
X104302441Y-33855126D01*
X104491595Y-33972245D01*
X104491596Y-33972245D01*
X104491599Y-33972247D01*
X104699060Y-34052618D01*
X104917757Y-34093500D01*
X104917759Y-34093500D01*
X105140241Y-34093500D01*
X105140243Y-34093500D01*
X105358940Y-34052618D01*
X105566401Y-33972247D01*
X105755562Y-33855124D01*
X105919981Y-33705236D01*
X106054058Y-33527689D01*
X106153229Y-33328528D01*
X106179734Y-33235371D01*
X106217013Y-33176278D01*
X106280323Y-33146721D01*
X106349562Y-33156083D01*
X106402749Y-33201393D01*
X106418266Y-33235372D01*
X106444769Y-33328523D01*
X106444775Y-33328538D01*
X106543938Y-33527683D01*
X106543943Y-33527691D01*
X106678020Y-33705238D01*
X106842437Y-33855123D01*
X106842439Y-33855125D01*
X107031595Y-33972245D01*
X107031596Y-33972245D01*
X107031599Y-33972247D01*
X107239060Y-34052618D01*
X107457757Y-34093500D01*
X107457759Y-34093500D01*
X107680241Y-34093500D01*
X107680243Y-34093500D01*
X107898940Y-34052618D01*
X108106401Y-33972247D01*
X108295562Y-33855124D01*
X108459981Y-33705236D01*
X108594058Y-33527689D01*
X108693229Y-33328528D01*
X108719734Y-33235371D01*
X108757013Y-33176278D01*
X108820323Y-33146721D01*
X108889562Y-33156083D01*
X108942749Y-33201393D01*
X108958266Y-33235372D01*
X108984769Y-33328523D01*
X108984775Y-33328538D01*
X109083938Y-33527683D01*
X109083943Y-33527691D01*
X109218020Y-33705238D01*
X109382437Y-33855123D01*
X109382439Y-33855125D01*
X109571595Y-33972245D01*
X109571596Y-33972245D01*
X109571599Y-33972247D01*
X109779060Y-34052618D01*
X109997757Y-34093500D01*
X109997759Y-34093500D01*
X110220241Y-34093500D01*
X110220243Y-34093500D01*
X110438940Y-34052618D01*
X110646401Y-33972247D01*
X110835562Y-33855124D01*
X110999981Y-33705236D01*
X111134058Y-33527689D01*
X111213500Y-33368149D01*
X111261003Y-33316912D01*
X111328666Y-33299491D01*
X111395006Y-33321417D01*
X111438961Y-33375728D01*
X111448500Y-33423421D01*
X111448500Y-33776260D01*
X111458426Y-33844391D01*
X111509803Y-33949485D01*
X111592514Y-34032196D01*
X111592515Y-34032196D01*
X111592517Y-34032198D01*
X111697607Y-34083573D01*
X111703510Y-34084433D01*
X111765739Y-34093500D01*
X111765740Y-34093500D01*
X113235500Y-34093500D01*
X113302539Y-34113185D01*
X113348294Y-34165989D01*
X113359500Y-34217500D01*
X113359500Y-34260724D01*
X113339815Y-34327763D01*
X113287011Y-34373518D01*
X113217853Y-34383462D01*
X113199505Y-34379385D01*
X113180164Y-34373518D01*
X113165531Y-34369079D01*
X113165529Y-34369078D01*
X113165531Y-34369078D01*
X112979200Y-34350727D01*
X112792868Y-34369078D01*
X112792866Y-34369079D01*
X112613697Y-34423430D01*
X112448576Y-34511688D01*
X112448573Y-34511690D01*
X112303842Y-34630468D01*
X112279614Y-34659991D01*
X112221868Y-34699325D01*
X112183761Y-34705326D01*
X107899745Y-34705326D01*
X107899729Y-34705325D01*
X107892133Y-34705325D01*
X107734018Y-34705325D01*
X107657654Y-34725787D01*
X107581289Y-34746249D01*
X107581284Y-34746252D01*
X107444365Y-34825301D01*
X107444361Y-34825304D01*
X107171358Y-35098306D01*
X107110035Y-35131790D01*
X107097566Y-35133844D01*
X107087037Y-35135030D01*
X107078541Y-35135988D01*
X107078540Y-35135988D01*
X106918907Y-35191845D01*
X106918902Y-35191848D01*
X106775715Y-35281819D01*
X106775709Y-35281824D01*
X106656123Y-35401410D01*
X106656118Y-35401416D01*
X106566147Y-35544603D01*
X106566145Y-35544606D01*
X106510285Y-35704244D01*
X106491351Y-35872298D01*
X106491351Y-35872303D01*
X106510285Y-36040357D01*
X106566145Y-36199995D01*
X106566147Y-36199998D01*
X106656118Y-36343185D01*
X106656123Y-36343191D01*
X106775709Y-36462777D01*
X106775715Y-36462782D01*
X106918902Y-36552753D01*
X106918905Y-36552755D01*
X106918909Y-36552756D01*
X106918910Y-36552757D01*
X106940653Y-36560365D01*
X107078543Y-36608615D01*
X107246597Y-36627550D01*
X107246600Y-36627550D01*
X107246603Y-36627550D01*
X107414656Y-36608615D01*
X107440474Y-36599581D01*
X107574290Y-36552757D01*
X107574292Y-36552755D01*
X107574294Y-36552755D01*
X107574297Y-36552753D01*
X107717484Y-36462782D01*
X107717485Y-36462781D01*
X107717490Y-36462778D01*
X107837077Y-36343191D01*
X107881332Y-36272760D01*
X107927052Y-36199998D01*
X107927055Y-36199992D01*
X107927056Y-36199991D01*
X107982913Y-36040360D01*
X107985055Y-36021340D01*
X108012120Y-35956928D01*
X108020595Y-35947542D01*
X108025492Y-35942645D01*
X108086815Y-35909160D01*
X108113173Y-35906326D01*
X111446642Y-35906326D01*
X111513681Y-35926011D01*
X111559436Y-35978815D01*
X111569380Y-36047973D01*
X111551636Y-36096298D01*
X111541063Y-36113124D01*
X111485203Y-36272760D01*
X111466269Y-36440814D01*
X111466269Y-36440822D01*
X111473501Y-36505014D01*
X111461446Y-36573835D01*
X111437962Y-36606577D01*
X109431801Y-38612738D01*
X109370478Y-38646223D01*
X109303167Y-38642099D01*
X109272110Y-38631232D01*
X109104055Y-38612297D01*
X109104049Y-38612297D01*
X108935995Y-38631231D01*
X108776357Y-38687091D01*
X108776354Y-38687093D01*
X108633167Y-38777064D01*
X108633161Y-38777069D01*
X108513575Y-38896655D01*
X108513570Y-38896661D01*
X108423599Y-39039848D01*
X108423597Y-39039851D01*
X108367737Y-39199489D01*
X108348803Y-39367543D01*
X108348803Y-39367548D01*
X108367737Y-39535602D01*
X108390495Y-39600638D01*
X108404267Y-39639998D01*
X108408711Y-39652696D01*
X108412272Y-39722475D01*
X108377543Y-39783103D01*
X108315550Y-39815330D01*
X108292347Y-39817649D01*
X106865178Y-39825448D01*
X106798032Y-39806130D01*
X106751989Y-39753577D01*
X106740500Y-39701450D01*
X106740500Y-39687487D01*
X106741561Y-39671301D01*
X106744011Y-39652696D01*
X106745682Y-39640000D01*
X106743225Y-39621340D01*
X106741561Y-39608697D01*
X106740500Y-39592512D01*
X106740500Y-38687487D01*
X106741561Y-38671301D01*
X106745682Y-38640000D01*
X106745682Y-38639998D01*
X106741561Y-38608697D01*
X106740500Y-38592512D01*
X106740500Y-38356739D01*
X106730886Y-38290753D01*
X106730573Y-38288607D01*
X106679198Y-38183517D01*
X106679196Y-38183515D01*
X106679196Y-38183514D01*
X106596485Y-38100803D01*
X106491391Y-38049426D01*
X106423261Y-38039500D01*
X106423260Y-38039500D01*
X106187487Y-38039500D01*
X106171302Y-38038439D01*
X106140000Y-38034318D01*
X106108697Y-38038439D01*
X106092513Y-38039500D01*
X105187487Y-38039500D01*
X105171302Y-38038439D01*
X105140000Y-38034318D01*
X105108697Y-38038439D01*
X105092513Y-38039500D01*
X104187487Y-38039500D01*
X104171302Y-38038439D01*
X104140000Y-38034318D01*
X104108697Y-38038439D01*
X104092513Y-38039500D01*
X103856739Y-38039500D01*
X103788608Y-38049426D01*
X103683514Y-38100803D01*
X103600803Y-38183514D01*
X103549426Y-38288608D01*
X103539500Y-38356739D01*
X103539500Y-38592512D01*
X103538439Y-38608697D01*
X103534318Y-38639998D01*
X103534318Y-38640000D01*
X103538439Y-38671301D01*
X103539500Y-38687487D01*
X103539500Y-39592512D01*
X103538439Y-39608697D01*
X103536775Y-39621340D01*
X103534318Y-39640000D01*
X103535989Y-39652696D01*
X103538439Y-39671301D01*
X103539500Y-39687487D01*
X103539500Y-39720297D01*
X103519815Y-39787336D01*
X103467011Y-39833091D01*
X103416178Y-39844295D01*
X101766820Y-39853308D01*
X101752997Y-39853654D01*
X101752989Y-39853654D01*
X101752963Y-39853655D01*
X101746261Y-39853953D01*
X101743340Y-39854083D01*
X101630922Y-39877662D01*
X101547765Y-39909821D01*
X101547658Y-39909949D01*
X101528039Y-39919932D01*
X101528136Y-39920137D01*
X101523503Y-39922323D01*
X101434182Y-39973890D01*
X101404283Y-39986275D01*
X101373509Y-39994522D01*
X101341411Y-39998748D01*
X101240785Y-39998748D01*
X101240722Y-39998747D01*
X101238816Y-39998747D01*
X100470867Y-39998747D01*
X100468961Y-39998747D01*
X100468898Y-39998748D01*
X100368271Y-39998748D01*
X100336176Y-39994522D01*
X100305396Y-39986274D01*
X100275491Y-39973887D01*
X100203660Y-39932416D01*
X100195066Y-39927454D01*
X100108384Y-39891688D01*
X100108383Y-39891687D01*
X100108379Y-39891686D01*
X100069578Y-39881404D01*
X100045711Y-39875079D01*
X99952700Y-39863222D01*
X99952698Y-39863222D01*
X99952691Y-39863221D01*
X99163065Y-39867536D01*
X99095919Y-39848218D01*
X99049876Y-39795665D01*
X99039555Y-39726562D01*
X99043118Y-39709616D01*
X99076715Y-39591536D01*
X99097243Y-39370000D01*
X99087618Y-39266133D01*
X99076715Y-39148464D01*
X99076714Y-39148462D01*
X99075477Y-39144116D01*
X99015829Y-38934472D01*
X99015824Y-38934461D01*
X98916661Y-38735316D01*
X98916656Y-38735308D01*
X98782579Y-38557761D01*
X98618162Y-38407876D01*
X98618160Y-38407874D01*
X98429004Y-38290754D01*
X98428998Y-38290752D01*
X98423464Y-38288608D01*
X98221540Y-38210382D01*
X98002843Y-38169500D01*
X97780357Y-38169500D01*
X97561660Y-38210382D01*
X97430464Y-38261207D01*
X97354201Y-38290752D01*
X97354195Y-38290754D01*
X97165039Y-38407874D01*
X97165037Y-38407876D01*
X97000620Y-38557761D01*
X96866543Y-38735308D01*
X96866538Y-38735316D01*
X96767375Y-38934461D01*
X96767369Y-38934476D01*
X96706485Y-39148462D01*
X96706484Y-39148464D01*
X96685957Y-39369999D01*
X96685957Y-39370000D01*
X96706484Y-39591533D01*
X96744024Y-39723473D01*
X96743436Y-39793340D01*
X96705169Y-39851798D01*
X96641372Y-39880288D01*
X96625435Y-39881404D01*
X95360698Y-39888315D01*
X95306410Y-39892784D01*
X95269050Y-39898768D01*
X95269019Y-39898774D01*
X95249181Y-39903064D01*
X95231418Y-39906905D01*
X95231417Y-39906905D01*
X95231414Y-39906906D01*
X95125164Y-39955946D01*
X95064328Y-39997369D01*
X95063486Y-39996132D01*
X95004041Y-40019289D01*
X94980155Y-40019036D01*
X94955635Y-40016400D01*
X94407800Y-40016400D01*
X94407800Y-41142400D01*
X94388115Y-41209439D01*
X94335311Y-41255194D01*
X94283800Y-41266400D01*
X94031800Y-41266400D01*
X93964761Y-41246715D01*
X93919006Y-41193911D01*
X93907800Y-41142400D01*
X93907800Y-40016400D01*
X93359955Y-40016400D01*
X93300427Y-40022801D01*
X93300420Y-40022803D01*
X93165713Y-40073045D01*
X93165706Y-40073049D01*
X93050614Y-40159208D01*
X93050606Y-40159216D01*
X93042602Y-40169908D01*
X92986667Y-40211778D01*
X92916975Y-40216760D01*
X92891829Y-40208391D01*
X92886920Y-40206149D01*
X92872327Y-40199485D01*
X92872321Y-40199483D01*
X92791049Y-40173615D01*
X92785578Y-40173491D01*
X92704204Y-40171657D01*
X92637627Y-40150467D01*
X92593074Y-40096646D01*
X92583000Y-40047689D01*
X92583000Y-28164489D01*
X92583032Y-28161655D01*
X92584331Y-28104847D01*
X92584456Y-28099351D01*
X92586806Y-28078002D01*
X92600431Y-28009500D01*
X92621275Y-27904700D01*
X92628327Y-27881451D01*
X92695401Y-27719515D01*
X92706851Y-27698094D01*
X92804231Y-27552354D01*
X92819640Y-27533578D01*
X92943578Y-27409640D01*
X92962354Y-27394231D01*
X93108094Y-27296851D01*
X93129515Y-27285401D01*
X93291448Y-27218328D01*
X93314703Y-27211275D01*
X93470025Y-27180382D01*
X93494214Y-27178000D01*
X95646086Y-27178000D01*
X95713125Y-27197685D01*
G37*
%TD.AperFunction*%
%TA.AperFunction,Conductor*%
G36*
X114809510Y-27178037D02*
G01*
X114897156Y-27180184D01*
X114918300Y-27182529D01*
X115091670Y-27217014D01*
X115114917Y-27224065D01*
X115276818Y-27291127D01*
X115298250Y-27302583D01*
X115323788Y-27319647D01*
X115443949Y-27399936D01*
X115462739Y-27415357D01*
X115586642Y-27539260D01*
X115602063Y-27558050D01*
X115699414Y-27703746D01*
X115710873Y-27725184D01*
X115775598Y-27881444D01*
X115777931Y-27887075D01*
X115784987Y-27910337D01*
X115819469Y-28083694D01*
X115821815Y-28104847D01*
X115823963Y-28192488D01*
X115824000Y-28195526D01*
X115824000Y-39880969D01*
X115804315Y-39948008D01*
X115751511Y-39993763D01*
X115682353Y-40003707D01*
X115625689Y-39980235D01*
X115546093Y-39920649D01*
X115546086Y-39920645D01*
X115411379Y-39870403D01*
X115411372Y-39870401D01*
X115351844Y-39864000D01*
X114804000Y-39864000D01*
X114804000Y-40990000D01*
X114784315Y-41057039D01*
X114731511Y-41102794D01*
X114680000Y-41114000D01*
X114428000Y-41114000D01*
X114360961Y-41094315D01*
X114315206Y-41041511D01*
X114304000Y-40990000D01*
X114304000Y-39864000D01*
X114249165Y-39864000D01*
X114182126Y-39844315D01*
X114136371Y-39791511D01*
X114126427Y-39722353D01*
X114155452Y-39658797D01*
X114213169Y-39621340D01*
X114251955Y-39609573D01*
X114309901Y-39591996D01*
X114475025Y-39503736D01*
X114619757Y-39384957D01*
X114738536Y-39240225D01*
X114826796Y-39075101D01*
X114881147Y-38895931D01*
X114899499Y-38709600D01*
X114881147Y-38523269D01*
X114826796Y-38344099D01*
X114797135Y-38288607D01*
X114738537Y-38178976D01*
X114738535Y-38178973D01*
X114619760Y-38034246D01*
X114619758Y-38034244D01*
X114619757Y-38034243D01*
X114605831Y-38022814D01*
X114566500Y-37965068D01*
X114560500Y-37926964D01*
X114560500Y-31524944D01*
X114560499Y-31524938D01*
X114557319Y-31513071D01*
X114554811Y-31503709D01*
X114519577Y-31372215D01*
X114478460Y-31300999D01*
X114459490Y-31268141D01*
X114440521Y-31235285D01*
X114324385Y-31119149D01*
X114324374Y-31119139D01*
X114136390Y-30931155D01*
X114136388Y-30931152D01*
X114017517Y-30812281D01*
X114017516Y-30812280D01*
X113930704Y-30762160D01*
X113930704Y-30762159D01*
X113930700Y-30762158D01*
X113880585Y-30733223D01*
X113727857Y-30692299D01*
X113569743Y-30692299D01*
X113562147Y-30692299D01*
X113562131Y-30692300D01*
X111755298Y-30692300D01*
X111688259Y-30672615D01*
X111667617Y-30655981D01*
X108559990Y-27548355D01*
X108559988Y-27548352D01*
X108441117Y-27429481D01*
X108441116Y-27429480D01*
X108406315Y-27409388D01*
X108358099Y-27358821D01*
X108344875Y-27290214D01*
X108370843Y-27225349D01*
X108427757Y-27184820D01*
X108468314Y-27178000D01*
X114806473Y-27178000D01*
X114809510Y-27178037D01*
G37*
%TD.AperFunction*%
%TA.AperFunction,Conductor*%
G36*
X113188021Y-36363882D02*
G01*
X113323181Y-36499042D01*
X113356666Y-36560365D01*
X113359500Y-36586723D01*
X113359500Y-37901359D01*
X113339815Y-37968398D01*
X113314169Y-37997208D01*
X113269043Y-38034243D01*
X113269040Y-38034245D01*
X113269038Y-38034248D01*
X113150264Y-38178973D01*
X113150262Y-38178976D01*
X113062004Y-38344097D01*
X113007653Y-38523266D01*
X113007652Y-38523268D01*
X112989301Y-38709600D01*
X113007652Y-38895931D01*
X113007653Y-38895933D01*
X113062004Y-39075102D01*
X113150262Y-39240223D01*
X113150264Y-39240226D01*
X113269042Y-39384957D01*
X113413773Y-39503735D01*
X113413776Y-39503737D01*
X113578894Y-39591994D01*
X113578896Y-39591994D01*
X113578899Y-39591996D01*
X113706121Y-39630588D01*
X113764558Y-39668885D01*
X113793014Y-39732697D01*
X113782454Y-39801764D01*
X113736230Y-39854157D01*
X113698649Y-39869922D01*
X113696632Y-39870398D01*
X113561913Y-39920645D01*
X113561906Y-39920649D01*
X113511889Y-39958092D01*
X113446425Y-39982509D01*
X113378152Y-39967657D01*
X113349898Y-39946506D01*
X113335808Y-39932416D01*
X113335793Y-39932402D01*
X113335784Y-39932393D01*
X113310729Y-39909949D01*
X113306722Y-39906359D01*
X113306709Y-39906348D01*
X113285494Y-39889347D01*
X113267096Y-39875558D01*
X113267087Y-39875552D01*
X113161494Y-39825130D01*
X113161487Y-39825128D01*
X113094352Y-39805812D01*
X113094337Y-39805809D01*
X112994115Y-39791958D01*
X112994110Y-39791958D01*
X112884048Y-39792559D01*
X109920224Y-39808754D01*
X109853078Y-39789436D01*
X109807035Y-39736883D01*
X109796714Y-39667780D01*
X109802501Y-39643813D01*
X109823758Y-39583063D01*
X109853115Y-39536342D01*
X112159141Y-37230316D01*
X112220462Y-37196833D01*
X112232929Y-37194780D01*
X112295716Y-37187705D01*
X112389573Y-37177131D01*
X112389575Y-37177130D01*
X112389577Y-37177130D01*
X112549208Y-37121273D01*
X112549210Y-37121271D01*
X112549212Y-37121271D01*
X112549215Y-37121269D01*
X112692402Y-37031298D01*
X112692403Y-37031297D01*
X112692408Y-37031294D01*
X112811995Y-36911707D01*
X112813949Y-36908597D01*
X112901970Y-36768514D01*
X112901972Y-36768511D01*
X112901972Y-36768509D01*
X112901974Y-36768507D01*
X112957831Y-36608876D01*
X112957831Y-36608874D01*
X112957832Y-36608872D01*
X112969813Y-36502531D01*
X112976767Y-36440817D01*
X112976767Y-36440814D01*
X112977120Y-36437680D01*
X113004186Y-36373266D01*
X113061781Y-36333711D01*
X113131618Y-36331573D01*
X113188021Y-36363882D01*
G37*
%TD.AperFunction*%
%TA.AperFunction,Conductor*%
G36*
X98688515Y-32817289D02*
G01*
X98734270Y-32870093D01*
X98744947Y-32910163D01*
X98763884Y-33114535D01*
X98763885Y-33114537D01*
X98824769Y-33328523D01*
X98824775Y-33328538D01*
X98923938Y-33527683D01*
X98923943Y-33527691D01*
X99058020Y-33705238D01*
X99222437Y-33855123D01*
X99222439Y-33855125D01*
X99411595Y-33972245D01*
X99411596Y-33972245D01*
X99411599Y-33972247D01*
X99619060Y-34052618D01*
X99837757Y-34093500D01*
X99837759Y-34093500D01*
X100060241Y-34093500D01*
X100060243Y-34093500D01*
X100278940Y-34052618D01*
X100486401Y-33972247D01*
X100675562Y-33855124D01*
X100839981Y-33705236D01*
X100974058Y-33527689D01*
X101073229Y-33328528D01*
X101099734Y-33235371D01*
X101137013Y-33176278D01*
X101200323Y-33146721D01*
X101269562Y-33156083D01*
X101322749Y-33201393D01*
X101338266Y-33235372D01*
X101364769Y-33328523D01*
X101364775Y-33328538D01*
X101463938Y-33527683D01*
X101463943Y-33527691D01*
X101598020Y-33705238D01*
X101762437Y-33855123D01*
X101762439Y-33855125D01*
X101951595Y-33972245D01*
X101951596Y-33972245D01*
X101951599Y-33972247D01*
X102159060Y-34052618D01*
X102377757Y-34093500D01*
X102377759Y-34093500D01*
X102600240Y-34093500D01*
X102600243Y-34093500D01*
X102686357Y-34077402D01*
X102755869Y-34084433D01*
X102810548Y-34127930D01*
X102833031Y-34194084D01*
X102833140Y-34199291D01*
X102833140Y-34974638D01*
X102813455Y-35041677D01*
X102796821Y-35062319D01*
X100878020Y-36981119D01*
X100816697Y-37014604D01*
X100747005Y-37009620D01*
X100691072Y-36967748D01*
X100670191Y-36915065D01*
X100668812Y-36915380D01*
X100667264Y-36908597D01*
X100614844Y-36758790D01*
X100611405Y-36748961D01*
X100611404Y-36748960D01*
X100611403Y-36748956D01*
X100611401Y-36748953D01*
X100521430Y-36605766D01*
X100521425Y-36605760D01*
X100447550Y-36531885D01*
X100414065Y-36470562D01*
X100419049Y-36400870D01*
X100447550Y-36356523D01*
X100552640Y-36251433D01*
X100731566Y-36072506D01*
X100792887Y-36039023D01*
X100833128Y-36036969D01*
X100848197Y-36038667D01*
X100848198Y-36038666D01*
X100848199Y-36038667D01*
X100848200Y-36038667D01*
X101016253Y-36019732D01*
X101023692Y-36017129D01*
X101175887Y-35963874D01*
X101175889Y-35963872D01*
X101175891Y-35963872D01*
X101175894Y-35963870D01*
X101319081Y-35873899D01*
X101319082Y-35873898D01*
X101319087Y-35873895D01*
X101438674Y-35754308D01*
X101438678Y-35754302D01*
X101528649Y-35611115D01*
X101528651Y-35611112D01*
X101528651Y-35611110D01*
X101528653Y-35611108D01*
X101584510Y-35451477D01*
X101584510Y-35451476D01*
X101584511Y-35451474D01*
X101603446Y-35283420D01*
X101603446Y-35283415D01*
X101584511Y-35115361D01*
X101528651Y-34955723D01*
X101528649Y-34955720D01*
X101438678Y-34812533D01*
X101438673Y-34812527D01*
X101319087Y-34692941D01*
X101319081Y-34692936D01*
X101175894Y-34602965D01*
X101175891Y-34602963D01*
X101016253Y-34547103D01*
X100848200Y-34528169D01*
X100848194Y-34528169D01*
X100680140Y-34547103D01*
X100520502Y-34602963D01*
X100520499Y-34602965D01*
X100377312Y-34692936D01*
X100377306Y-34692941D01*
X100257720Y-34812527D01*
X100257715Y-34812533D01*
X100167744Y-34955720D01*
X100167742Y-34955723D01*
X100111882Y-35115361D01*
X100092948Y-35283415D01*
X100092948Y-35283422D01*
X100094645Y-35298485D01*
X100082590Y-35367306D01*
X100059106Y-35400048D01*
X99621544Y-35837611D01*
X99621543Y-35837611D01*
X99621544Y-35837612D01*
X99550452Y-35908703D01*
X99487854Y-36017129D01*
X99455449Y-36138066D01*
X99455449Y-36439422D01*
X99435764Y-36506461D01*
X99419130Y-36527103D01*
X99340472Y-36605760D01*
X99340470Y-36605763D01*
X99304202Y-36663483D01*
X99251867Y-36709774D01*
X99182814Y-36720421D01*
X99137208Y-36704896D01*
X99088585Y-36676823D01*
X98935857Y-36635899D01*
X98777743Y-36635899D01*
X98770147Y-36635899D01*
X98770131Y-36635900D01*
X97480497Y-36635900D01*
X97413458Y-36616215D01*
X97392816Y-36599581D01*
X96852019Y-36058784D01*
X96818534Y-35997461D01*
X96815700Y-35971103D01*
X96815700Y-34058929D01*
X96835385Y-33991890D01*
X96861033Y-33963077D01*
X96910525Y-33922461D01*
X96912803Y-33919686D01*
X97029303Y-33777730D01*
X97029305Y-33777727D01*
X97030089Y-33776260D01*
X97117564Y-33612605D01*
X97171915Y-33433435D01*
X97190267Y-33247104D01*
X97171915Y-33060773D01*
X97140616Y-32957597D01*
X97139994Y-32887733D01*
X97177242Y-32828620D01*
X97240536Y-32799029D01*
X97259278Y-32797604D01*
X98621476Y-32797604D01*
X98688515Y-32817289D01*
G37*
%TD.AperFunction*%
%TA.AperFunction,Conductor*%
G36*
X103682562Y-29473083D02*
G01*
X103735749Y-29518393D01*
X103751266Y-29552372D01*
X103777769Y-29645523D01*
X103777775Y-29645538D01*
X103876938Y-29844683D01*
X103876943Y-29844691D01*
X104011020Y-30022238D01*
X104175437Y-30172123D01*
X104175439Y-30172125D01*
X104364595Y-30289245D01*
X104364596Y-30289245D01*
X104364599Y-30289247D01*
X104572060Y-30369618D01*
X104790757Y-30410500D01*
X104790759Y-30410500D01*
X105013241Y-30410500D01*
X105013243Y-30410500D01*
X105231940Y-30369618D01*
X105439401Y-30289247D01*
X105628562Y-30172124D01*
X105792981Y-30022236D01*
X105927058Y-29844689D01*
X105978335Y-29741712D01*
X106025837Y-29690475D01*
X106093500Y-29673053D01*
X106159841Y-29694978D01*
X106201717Y-29744578D01*
X106268399Y-29887578D01*
X106403894Y-30081082D01*
X106570917Y-30248105D01*
X106764421Y-30383600D01*
X106978507Y-30483429D01*
X106978516Y-30483433D01*
X107192000Y-30540634D01*
X107192000Y-29643012D01*
X107249007Y-29675925D01*
X107376174Y-29710000D01*
X107507826Y-29710000D01*
X107634993Y-29675925D01*
X107692000Y-29643012D01*
X107692000Y-30540633D01*
X107905483Y-30483433D01*
X107905492Y-30483429D01*
X108119578Y-30383600D01*
X108313082Y-30248105D01*
X108480105Y-30081082D01*
X108615600Y-29887578D01*
X108715429Y-29673492D01*
X108715434Y-29673481D01*
X108717160Y-29667040D01*
X108753524Y-29607379D01*
X108816370Y-29576849D01*
X108885746Y-29585143D01*
X108924614Y-29611450D01*
X111086484Y-31773320D01*
X111086486Y-31773321D01*
X111086490Y-31773324D01*
X111186199Y-31830890D01*
X111223416Y-31852377D01*
X111356596Y-31888063D01*
X111416254Y-31924428D01*
X111446783Y-31987275D01*
X111448500Y-32007837D01*
X111448500Y-32362578D01*
X111428815Y-32429617D01*
X111376011Y-32475372D01*
X111306853Y-32485316D01*
X111243297Y-32456291D01*
X111213500Y-32417850D01*
X111134061Y-32258316D01*
X111134056Y-32258308D01*
X110999979Y-32080761D01*
X110835562Y-31930876D01*
X110835560Y-31930874D01*
X110646404Y-31813754D01*
X110646398Y-31813752D01*
X110438940Y-31733382D01*
X110220243Y-31692500D01*
X109997757Y-31692500D01*
X109779060Y-31733382D01*
X109675958Y-31773324D01*
X109571601Y-31813752D01*
X109571595Y-31813754D01*
X109382439Y-31930874D01*
X109382437Y-31930876D01*
X109218020Y-32080761D01*
X109083943Y-32258308D01*
X109083938Y-32258316D01*
X108984775Y-32457461D01*
X108984769Y-32457476D01*
X108958266Y-32550627D01*
X108920987Y-32609721D01*
X108857677Y-32639278D01*
X108788438Y-32629916D01*
X108735251Y-32584606D01*
X108719734Y-32550627D01*
X108693230Y-32457476D01*
X108693229Y-32457472D01*
X108679359Y-32429617D01*
X108594061Y-32258316D01*
X108594056Y-32258308D01*
X108459979Y-32080761D01*
X108295562Y-31930876D01*
X108295560Y-31930874D01*
X108106404Y-31813754D01*
X108106398Y-31813752D01*
X107898940Y-31733382D01*
X107680243Y-31692500D01*
X107457757Y-31692500D01*
X107239060Y-31733382D01*
X107135958Y-31773324D01*
X107031601Y-31813752D01*
X107031595Y-31813754D01*
X106842439Y-31930874D01*
X106842437Y-31930876D01*
X106678020Y-32080761D01*
X106543943Y-32258308D01*
X106543938Y-32258316D01*
X106444775Y-32457461D01*
X106444769Y-32457476D01*
X106418266Y-32550627D01*
X106380987Y-32609721D01*
X106317677Y-32639278D01*
X106248438Y-32629916D01*
X106195251Y-32584606D01*
X106179734Y-32550627D01*
X106153230Y-32457476D01*
X106153229Y-32457472D01*
X106139359Y-32429617D01*
X106054061Y-32258316D01*
X106054056Y-32258308D01*
X105919979Y-32080761D01*
X105755562Y-31930876D01*
X105755560Y-31930874D01*
X105566404Y-31813754D01*
X105566398Y-31813752D01*
X105358940Y-31733382D01*
X105140243Y-31692500D01*
X104917757Y-31692500D01*
X104699060Y-31733382D01*
X104699057Y-31733382D01*
X104699057Y-31733383D01*
X104555450Y-31789016D01*
X104485827Y-31794877D01*
X104424087Y-31762167D01*
X104389832Y-31701271D01*
X104387437Y-31687272D01*
X104368314Y-31517544D01*
X104363473Y-31503709D01*
X104312456Y-31357910D01*
X104312455Y-31357909D01*
X104312454Y-31357905D01*
X104312452Y-31357902D01*
X104222481Y-31214715D01*
X104222476Y-31214709D01*
X104102890Y-31095123D01*
X104102884Y-31095118D01*
X103959697Y-31005147D01*
X103959694Y-31005145D01*
X103800056Y-30949285D01*
X103632003Y-30930351D01*
X103631997Y-30930351D01*
X103463943Y-30949285D01*
X103304305Y-31005145D01*
X103304302Y-31005147D01*
X103161115Y-31095118D01*
X103161109Y-31095123D01*
X103041523Y-31214709D01*
X103041518Y-31214715D01*
X102951547Y-31357902D01*
X102951545Y-31357905D01*
X102895685Y-31517544D01*
X102885215Y-31610473D01*
X102858148Y-31674887D01*
X102800553Y-31714442D01*
X102739211Y-31718477D01*
X102600243Y-31692500D01*
X102377757Y-31692500D01*
X102159060Y-31733382D01*
X102121081Y-31748095D01*
X102051459Y-31753956D01*
X101989719Y-31721246D01*
X101988608Y-31720149D01*
X101557965Y-31289506D01*
X101557964Y-31289505D01*
X101449536Y-31226905D01*
X101449537Y-31226905D01*
X101404021Y-31214709D01*
X101328601Y-31194500D01*
X97803070Y-31194500D01*
X97677868Y-31194500D01*
X97602448Y-31214709D01*
X97556932Y-31226905D01*
X97443449Y-31292424D01*
X97381450Y-31309036D01*
X95703920Y-31309036D01*
X95636881Y-31289351D01*
X95591126Y-31236547D01*
X95580700Y-31198919D01*
X95579914Y-31191946D01*
X95579913Y-31191943D01*
X95579913Y-31191941D01*
X95524056Y-31032310D01*
X95524055Y-31032307D01*
X95524052Y-31032302D01*
X95434081Y-30889115D01*
X95434076Y-30889109D01*
X95314490Y-30769523D01*
X95314484Y-30769518D01*
X95171297Y-30679547D01*
X95171294Y-30679545D01*
X95091264Y-30651542D01*
X95034488Y-30610820D01*
X95008741Y-30545867D01*
X95022197Y-30477305D01*
X95070585Y-30426903D01*
X95132219Y-30410500D01*
X95625261Y-30410500D01*
X95647971Y-30407191D01*
X95693393Y-30400573D01*
X95798483Y-30349198D01*
X95881198Y-30266483D01*
X95932573Y-30161393D01*
X95942500Y-30093260D01*
X95942500Y-29740421D01*
X95962185Y-29673382D01*
X96014989Y-29627627D01*
X96084147Y-29617683D01*
X96147703Y-29646708D01*
X96177500Y-29685149D01*
X96256938Y-29844683D01*
X96256943Y-29844691D01*
X96391020Y-30022238D01*
X96555437Y-30172123D01*
X96555439Y-30172125D01*
X96744595Y-30289245D01*
X96744596Y-30289245D01*
X96744599Y-30289247D01*
X96952060Y-30369618D01*
X97170757Y-30410500D01*
X97170759Y-30410500D01*
X97393241Y-30410500D01*
X97393243Y-30410500D01*
X97611940Y-30369618D01*
X97819401Y-30289247D01*
X98008562Y-30172124D01*
X98172981Y-30022236D01*
X98307058Y-29844689D01*
X98406229Y-29645528D01*
X98432734Y-29552371D01*
X98470013Y-29493278D01*
X98533323Y-29463721D01*
X98602562Y-29473083D01*
X98655749Y-29518393D01*
X98671266Y-29552372D01*
X98697769Y-29645523D01*
X98697775Y-29645538D01*
X98796938Y-29844683D01*
X98796943Y-29844691D01*
X98931020Y-30022238D01*
X99095437Y-30172123D01*
X99095439Y-30172125D01*
X99284595Y-30289245D01*
X99284596Y-30289245D01*
X99284599Y-30289247D01*
X99492060Y-30369618D01*
X99710757Y-30410500D01*
X99710759Y-30410500D01*
X99933241Y-30410500D01*
X99933243Y-30410500D01*
X100151940Y-30369618D01*
X100359401Y-30289247D01*
X100548562Y-30172124D01*
X100712981Y-30022236D01*
X100847058Y-29844689D01*
X100946229Y-29645528D01*
X100972734Y-29552371D01*
X101010013Y-29493278D01*
X101073323Y-29463721D01*
X101142562Y-29473083D01*
X101195749Y-29518393D01*
X101211266Y-29552372D01*
X101237769Y-29645523D01*
X101237775Y-29645538D01*
X101336938Y-29844683D01*
X101336943Y-29844691D01*
X101471020Y-30022238D01*
X101635437Y-30172123D01*
X101635439Y-30172125D01*
X101824595Y-30289245D01*
X101824596Y-30289245D01*
X101824599Y-30289247D01*
X102032060Y-30369618D01*
X102250757Y-30410500D01*
X102250759Y-30410500D01*
X102473241Y-30410500D01*
X102473243Y-30410500D01*
X102691940Y-30369618D01*
X102899401Y-30289247D01*
X103088562Y-30172124D01*
X103252981Y-30022236D01*
X103387058Y-29844689D01*
X103486229Y-29645528D01*
X103512734Y-29552371D01*
X103550013Y-29493278D01*
X103613323Y-29463721D01*
X103682562Y-29473083D01*
G37*
%TD.AperFunction*%
%TD*%
M02*
