%TF.GenerationSoftware,KiCad,Pcbnew,8.0.5*%
%TF.CreationDate,2024-09-20T16:42:47+02:00*%
%TF.ProjectId,AnalogI2SMic,416e616c-6f67-4493-9253-4d69632e6b69,rev?*%
%TF.SameCoordinates,Original*%
%TF.FileFunction,Copper,L2,Bot*%
%TF.FilePolarity,Positive*%
%FSLAX46Y46*%
G04 Gerber Fmt 4.6, Leading zero omitted, Abs format (unit mm)*
G04 Created by KiCad (PCBNEW 8.0.5) date 2024-09-20 16:42:47*
%MOMM*%
%LPD*%
G01*
G04 APERTURE LIST*
%TA.AperFunction,EtchedComponent*%
%ADD10C,0.000000*%
%TD*%
%TA.AperFunction,ComponentPad*%
%ADD11O,1.200000X2.200000*%
%TD*%
%TA.AperFunction,ComponentPad*%
%ADD12O,2.200000X1.200000*%
%TD*%
%TA.AperFunction,ComponentPad*%
%ADD13R,1.500000X1.500000*%
%TD*%
%TA.AperFunction,ComponentPad*%
%ADD14C,1.500000*%
%TD*%
%TA.AperFunction,ComponentPad*%
%ADD15C,0.500000*%
%TD*%
%TA.AperFunction,SMDPad,CuDef*%
%ADD16R,2.500000X2.500000*%
%TD*%
%TA.AperFunction,ComponentPad*%
%ADD17R,1.700000X1.700000*%
%TD*%
%TA.AperFunction,ComponentPad*%
%ADD18O,1.700000X1.700000*%
%TD*%
%TA.AperFunction,SMDPad,CuDef*%
%ADD19R,1.500000X1.000000*%
%TD*%
%TA.AperFunction,ViaPad*%
%ADD20C,0.800000*%
%TD*%
%TA.AperFunction,ViaPad*%
%ADD21C,1.200000*%
%TD*%
%TA.AperFunction,Conductor*%
%ADD22C,0.500000*%
%TD*%
%TA.AperFunction,Conductor*%
%ADD23C,0.250000*%
%TD*%
G04 APERTURE END LIST*
D10*
%TA.AperFunction,EtchedComponent*%
%TO.C,JP3*%
G36*
X93957800Y-40240000D02*
G01*
X93557800Y-40240000D01*
X93557800Y-39740000D01*
X93957800Y-39740000D01*
X93957800Y-40240000D01*
G37*
%TD.AperFunction*%
%TA.AperFunction,EtchedComponent*%
G36*
X94757800Y-40240000D02*
G01*
X94357800Y-40240000D01*
X94357800Y-39740000D01*
X94757800Y-39740000D01*
X94757800Y-40240000D01*
G37*
%TD.AperFunction*%
%TA.AperFunction,EtchedComponent*%
%TO.C,JP4*%
G36*
X114250000Y-40260000D02*
G01*
X113850000Y-40260000D01*
X113850000Y-39760000D01*
X114250000Y-39760000D01*
X114250000Y-40260000D01*
G37*
%TD.AperFunction*%
%TA.AperFunction,EtchedComponent*%
G36*
X115050000Y-40260000D02*
G01*
X114650000Y-40260000D01*
X114650000Y-39760000D01*
X115050000Y-39760000D01*
X115050000Y-40260000D01*
G37*
%TD.AperFunction*%
%TD*%
D11*
%TO.P,J2,R*%
%TO.N,Net-(C2-Pad2)*%
X93827600Y-45611400D03*
%TO.P,J2,RN*%
%TO.N,unconnected-(J2-PadRN)*%
X96327600Y-45611400D03*
D12*
%TO.P,J2,S*%
%TO.N,GNDA*%
X98827600Y-50611400D03*
D11*
%TO.P,J2,T*%
%TO.N,Net-(C3-Pad1)*%
X103827600Y-45611400D03*
%TO.P,J2,TN*%
%TO.N,unconnected-(J2-PadTN)*%
X101327600Y-45611400D03*
%TD*%
D13*
%TO.P,MK1,1,-*%
%TO.N,GNDA*%
X109006000Y-47988000D03*
D14*
%TO.P,MK1,2,+*%
%TO.N,Net-(MK1-+)*%
X111546000Y-47988000D03*
%TD*%
D15*
%TO.P,U1,25,PAD*%
%TO.N,GNDA*%
X106728500Y-38644000D03*
X106728500Y-39644000D03*
X106728500Y-40644000D03*
X107728500Y-38644000D03*
X107728500Y-39644000D03*
D16*
X107728500Y-39644000D03*
D15*
X107728500Y-40644000D03*
X108728500Y-38644000D03*
X108728500Y-39644000D03*
X108728500Y-40644000D03*
%TD*%
D17*
%TO.P,J4,1,Pin_1*%
%TO.N,+3.3V*%
X97663000Y-30602000D03*
D18*
%TO.P,J4,2,Pin_2*%
%TO.N,+1V8*%
X97663000Y-33142000D03*
%TO.P,J4,3,Pin_3*%
%TO.N,I2S_BCLK*%
X100203000Y-30602000D03*
%TO.P,J4,4,Pin_4*%
%TO.N,I2C_SDA*%
X100203000Y-33142000D03*
%TO.P,J4,5,Pin_5*%
%TO.N,I2S_MCLK*%
X102743000Y-30602000D03*
%TO.P,J4,6,Pin_6*%
%TO.N,I2C_SCL*%
X102743000Y-33142000D03*
%TO.P,J4,7,Pin_7*%
%TO.N,I2S_DOUT*%
X105283000Y-30602000D03*
%TO.P,J4,8,Pin_8*%
%TO.N,GPIO1*%
X105283000Y-33142000D03*
%TO.P,J4,9,Pin_9*%
%TO.N,I2S_WCLK*%
X107823000Y-30602000D03*
%TO.P,J4,10,Pin_10*%
%TO.N,GPIO2*%
X107823000Y-33142000D03*
%TO.P,J4,11,Pin_11*%
%TO.N,GND*%
X110363000Y-30602000D03*
%TO.P,J4,12,Pin_12*%
X110363000Y-33142000D03*
%TD*%
D19*
%TO.P,JP3,1,A*%
%TO.N,GND*%
X94157800Y-39340000D03*
%TO.P,JP3,2,B*%
%TO.N,GNDA*%
X94157800Y-40640000D03*
%TD*%
%TO.P,JP4,1,A*%
%TO.N,GND*%
X114450000Y-39360000D03*
%TO.P,JP4,2,B*%
%TO.N,GNDA*%
X114450000Y-40660000D03*
%TD*%
D20*
%TO.N,GND*%
X103950000Y-29160000D03*
D21*
X114802474Y-38702474D03*
X105553500Y-37019000D03*
X113650200Y-37238453D03*
X95810000Y-29302000D03*
X100944051Y-37609199D03*
%TO.N,+3.3VA*%
X113025000Y-45190000D03*
X99314000Y-40767000D03*
%TO.N,GNDA*%
X114821626Y-48690000D03*
X95590000Y-42220000D03*
X104880000Y-48560000D03*
X105810000Y-54417908D03*
X93178652Y-48249749D03*
X114969341Y-43160000D03*
X114821626Y-54417908D03*
X94500000Y-54511400D03*
%TO.N,+1V8*%
X107196497Y-36132563D03*
X101040926Y-36012141D03*
X97850000Y-36012141D03*
%TO.N,+3.3V*%
X112127526Y-35357526D03*
X96340000Y-34670000D03*
X108375000Y-35376828D03*
D20*
%TO.N,Net-(C2-Pad2)*%
X112175000Y-44222659D03*
%TO.N,Net-(C3-Pad1)*%
X111541304Y-43449075D03*
%TO.N,I2C_SDA*%
X110556938Y-34644466D03*
%TO.N,I2C_SCL*%
X111506000Y-38252400D03*
%TO.N,I2S_DOUT*%
X101219000Y-39153000D03*
X103165495Y-36739999D03*
%TO.N,I2S_WCLK*%
X104043311Y-37219000D03*
X102217703Y-38669000D03*
%TO.N,Net-(MK1-+)*%
X106476800Y-45796200D03*
%TD*%
D22*
%TO.N,+1V8*%
X106953934Y-35890000D02*
X97972141Y-35890000D01*
X107196497Y-36132563D02*
X106953934Y-35890000D01*
X97972141Y-35890000D02*
X97850000Y-36012141D01*
%TO.N,+3.3V*%
X111002638Y-36482414D02*
X112127526Y-35357526D01*
X108375000Y-35376828D02*
X107928172Y-34930000D01*
X107928172Y-34930000D02*
X97550000Y-34930000D01*
X97550000Y-34930000D02*
X97290000Y-34670000D01*
X97290000Y-34670000D02*
X96340000Y-34670000D01*
X108375000Y-35376828D02*
X109480586Y-36482414D01*
X109480586Y-36482414D02*
X111002638Y-36482414D01*
D23*
%TO.N,I2C_SCL*%
X111506000Y-38252400D02*
X111506000Y-38064000D01*
X110857243Y-35369466D02*
X110153070Y-35369466D01*
X111506000Y-38064000D02*
X113060000Y-36510000D01*
X112510674Y-34432526D02*
X111744378Y-34432526D01*
X110153070Y-35369466D02*
X109138604Y-34355000D01*
X113060000Y-36510000D02*
X113060000Y-34981852D01*
X111281938Y-34944771D02*
X110857243Y-35369466D01*
X113060000Y-34981852D02*
X112510674Y-34432526D01*
X111744378Y-34432526D02*
X111281938Y-34894966D01*
X109138604Y-34355000D02*
X103956000Y-34355000D01*
X103956000Y-34355000D02*
X102743000Y-33142000D01*
X111281938Y-34894966D02*
X111281938Y-34944771D01*
%TO.N,I2C_SDA*%
X110556938Y-34644466D02*
X110064466Y-34644466D01*
X109100000Y-32757299D02*
X108202701Y-31860000D01*
X110064466Y-34644466D02*
X109100000Y-33680000D01*
X109100000Y-33680000D02*
X109100000Y-32757299D01*
X108202701Y-31860000D02*
X101485000Y-31860000D01*
X101485000Y-31860000D02*
X100203000Y-33142000D01*
D22*
%TO.N,GND*%
X105553500Y-37019000D02*
X105937500Y-37403000D01*
X105937500Y-37403000D02*
X109093000Y-37403000D01*
X111219489Y-39529489D02*
X114364511Y-39529489D01*
X114364511Y-39529489D02*
X114554000Y-39340000D01*
X109093000Y-37403000D02*
X111219489Y-39529489D01*
D23*
%TO.N,I2S_WCLK*%
X102593311Y-38669000D02*
X102217703Y-38669000D01*
X104043311Y-37219000D02*
X102593311Y-38669000D01*
%TO.N,I2S_DOUT*%
X103165495Y-36739999D02*
X101961494Y-37944000D01*
X101961494Y-37944000D02*
X101917398Y-37944000D01*
X101917398Y-37944000D02*
X101219000Y-38642398D01*
X101219000Y-38642398D02*
X101219000Y-39153000D01*
D22*
%TO.N,GND*%
X110803400Y-32020800D02*
X110363000Y-32461200D01*
X113650200Y-38560200D02*
X114450000Y-39360000D01*
X114534000Y-39360000D02*
X114554000Y-39340000D01*
X113485653Y-37403000D02*
X113650200Y-37238453D01*
X113650200Y-37238453D02*
X113650200Y-38560200D01*
X113650200Y-37238453D02*
X113650200Y-32866475D01*
X95810000Y-29302000D02*
X94157800Y-30954200D01*
X113650200Y-32866475D02*
X112804525Y-32020800D01*
X114450000Y-39360000D02*
X114534000Y-39360000D01*
X94157800Y-30954200D02*
X94157800Y-39340000D01*
X114554000Y-38950948D02*
X114554000Y-39340000D01*
X112804525Y-32020800D02*
X110803400Y-32020800D01*
X114802474Y-38702474D02*
X114554000Y-38950948D01*
%TO.N,+3.3VA*%
X113025000Y-45190000D02*
X113025000Y-43730689D01*
X100330000Y-41783000D02*
X99314000Y-40767000D01*
X113025000Y-43730689D02*
X111077311Y-41783000D01*
X99314000Y-40767000D02*
X99568000Y-41021000D01*
X111077311Y-41783000D02*
X100330000Y-41783000D01*
%TO.N,GNDA*%
X94157800Y-40787800D02*
X94157800Y-40640000D01*
X114850000Y-46890000D02*
X114821626Y-46918374D01*
X114969341Y-43160000D02*
X114969341Y-41179341D01*
X98827600Y-51377068D02*
X98827600Y-50611400D01*
X95590000Y-42220000D02*
X94157800Y-40787800D01*
X104880000Y-48560000D02*
X100879000Y-48560000D01*
X114821626Y-54417908D02*
X101868440Y-54417908D01*
X100879000Y-48560000D02*
X98827600Y-50611400D01*
X101868440Y-54417908D02*
X98827600Y-51377068D01*
X105452000Y-47988000D02*
X104880000Y-48560000D01*
X114969341Y-47009341D02*
X114850000Y-46890000D01*
X109006000Y-47988000D02*
X105452000Y-47988000D01*
X114821626Y-46918374D02*
X114821626Y-54417908D01*
X114969341Y-43160000D02*
X114969341Y-47009341D01*
X114969341Y-41179341D02*
X114450000Y-40660000D01*
%TO.N,+1V8*%
X101040926Y-36012141D02*
X97850000Y-36012141D01*
%TO.N,+3.3V*%
X96270000Y-34600000D02*
X96340000Y-34670000D01*
X97663000Y-30602000D02*
X96270000Y-31995000D01*
X96270000Y-31995000D02*
X96270000Y-34600000D01*
D23*
%TO.N,Net-(C2-Pad2)*%
X106187548Y-45059600D02*
X104130148Y-47117000D01*
X111338059Y-45059600D02*
X106187548Y-45059600D01*
X104130148Y-47117000D02*
X95624000Y-47117000D01*
X112175000Y-44222659D02*
X111338059Y-45059600D01*
X95624000Y-47117000D02*
X93846000Y-45339000D01*
%TO.N,Net-(C3-Pad1)*%
X105079000Y-44360000D02*
X103827600Y-45611400D01*
X111541304Y-43449075D02*
X110630379Y-44360000D01*
X110630379Y-44360000D02*
X105079000Y-44360000D01*
%TO.N,Net-(MK1-+)*%
X106476800Y-45796200D02*
X109354200Y-45796200D01*
X109354200Y-45796200D02*
X111546000Y-47988000D01*
%TD*%
%TA.AperFunction,Conductor*%
%TO.N,GNDA*%
G36*
X113142465Y-40165022D02*
G01*
X113188510Y-40217574D01*
X113200000Y-40269704D01*
X113200000Y-40410000D01*
X114576000Y-40410000D01*
X114643039Y-40429685D01*
X114688794Y-40482489D01*
X114700000Y-40534000D01*
X114700000Y-41660000D01*
X115247828Y-41660000D01*
X115247844Y-41659999D01*
X115307372Y-41653598D01*
X115307379Y-41653596D01*
X115401977Y-41618314D01*
X115471668Y-41613330D01*
X115532991Y-41646815D01*
X115566476Y-41708138D01*
X115569310Y-41734489D01*
X115569999Y-54115109D01*
X115569895Y-54120191D01*
X115566384Y-54205905D01*
X115563726Y-54226854D01*
X115526973Y-54398073D01*
X115519672Y-54420982D01*
X115451149Y-54580533D01*
X115439564Y-54601601D01*
X115341539Y-54744929D01*
X115326105Y-54763366D01*
X115202261Y-54885082D01*
X115183561Y-54900192D01*
X115038565Y-54995716D01*
X115017298Y-55006936D01*
X114856581Y-55072685D01*
X114833552Y-55079588D01*
X114807597Y-55084690D01*
X114779215Y-55090271D01*
X114755295Y-55092600D01*
X101151600Y-55092600D01*
X101084561Y-55072915D01*
X101038806Y-55020111D01*
X101027600Y-54968600D01*
X101027600Y-54111391D01*
X101025138Y-54048440D01*
X101025138Y-54048438D01*
X101025138Y-54048436D01*
X100986224Y-53928672D01*
X100912206Y-53826794D01*
X100836824Y-53772026D01*
X100810330Y-53752777D01*
X100810325Y-53752775D01*
X100801024Y-53749753D01*
X100690564Y-53713862D01*
X100690562Y-53713861D01*
X100690560Y-53713861D01*
X100627609Y-53711400D01*
X100627600Y-53711400D01*
X97027600Y-53711400D01*
X97027591Y-53711400D01*
X96964640Y-53713861D01*
X96964638Y-53713861D01*
X96844874Y-53752775D01*
X96844869Y-53752777D01*
X96742994Y-53826794D01*
X96668977Y-53928669D01*
X96668975Y-53928674D01*
X96630061Y-54048438D01*
X96630061Y-54048440D01*
X96627600Y-54111391D01*
X96627600Y-54968600D01*
X96607915Y-55035639D01*
X96555111Y-55081394D01*
X96503600Y-55092600D01*
X93435565Y-55092600D01*
X93411751Y-55090291D01*
X93366890Y-55081511D01*
X93319662Y-55072268D01*
X93296735Y-55065429D01*
X93223542Y-55035639D01*
X93136969Y-55000403D01*
X93115784Y-54989288D01*
X93043634Y-54942038D01*
X92971482Y-54894788D01*
X92952824Y-54879809D01*
X92829363Y-54759355D01*
X92813929Y-54741072D01*
X92715900Y-54599147D01*
X92704264Y-54578238D01*
X92635320Y-54420128D01*
X92627917Y-54397375D01*
X92590303Y-54227523D01*
X92587517Y-54206702D01*
X92583430Y-54121964D01*
X92583287Y-54116145D01*
X92582427Y-53027628D01*
X92977100Y-53027628D01*
X92977100Y-53195171D01*
X93009782Y-53359474D01*
X93009784Y-53359482D01*
X93073895Y-53514260D01*
X93166973Y-53653562D01*
X93285437Y-53772026D01*
X93367404Y-53826794D01*
X93424737Y-53865103D01*
X93579518Y-53929216D01*
X93743828Y-53961899D01*
X93743832Y-53961900D01*
X93743833Y-53961900D01*
X93911368Y-53961900D01*
X93911369Y-53961899D01*
X94075682Y-53929216D01*
X94230463Y-53865103D01*
X94369762Y-53772026D01*
X94488226Y-53653562D01*
X94581303Y-53514263D01*
X94645416Y-53359482D01*
X94678100Y-53195167D01*
X94678100Y-53027633D01*
X94678099Y-53027628D01*
X102977100Y-53027628D01*
X102977100Y-53195171D01*
X103009782Y-53359474D01*
X103009784Y-53359482D01*
X103073895Y-53514260D01*
X103166973Y-53653562D01*
X103285437Y-53772026D01*
X103367404Y-53826794D01*
X103424737Y-53865103D01*
X103579518Y-53929216D01*
X103743828Y-53961899D01*
X103743832Y-53961900D01*
X103743833Y-53961900D01*
X103911368Y-53961900D01*
X103911369Y-53961899D01*
X104075682Y-53929216D01*
X104230463Y-53865103D01*
X104369762Y-53772026D01*
X104488226Y-53653562D01*
X104581303Y-53514263D01*
X104645416Y-53359482D01*
X104678100Y-53195167D01*
X104678100Y-53027633D01*
X104645416Y-52863318D01*
X104581303Y-52708537D01*
X104550137Y-52661894D01*
X104488226Y-52569237D01*
X104369762Y-52450773D01*
X104230460Y-52357695D01*
X104075682Y-52293584D01*
X104075674Y-52293582D01*
X103911371Y-52260900D01*
X103911367Y-52260900D01*
X103743833Y-52260900D01*
X103743828Y-52260900D01*
X103579525Y-52293582D01*
X103579517Y-52293584D01*
X103424739Y-52357695D01*
X103285437Y-52450773D01*
X103166973Y-52569237D01*
X103073895Y-52708539D01*
X103009784Y-52863317D01*
X103009782Y-52863325D01*
X102977100Y-53027628D01*
X94678099Y-53027628D01*
X94645416Y-52863318D01*
X94581303Y-52708537D01*
X94550137Y-52661894D01*
X94488226Y-52569237D01*
X94369762Y-52450773D01*
X94230460Y-52357695D01*
X94075682Y-52293584D01*
X94075674Y-52293582D01*
X93911371Y-52260900D01*
X93911367Y-52260900D01*
X93743833Y-52260900D01*
X93743828Y-52260900D01*
X93579525Y-52293582D01*
X93579517Y-52293584D01*
X93424739Y-52357695D01*
X93285437Y-52450773D01*
X93166973Y-52569237D01*
X93073895Y-52708539D01*
X93009784Y-52863317D01*
X93009782Y-52863325D01*
X92977100Y-53027628D01*
X92582427Y-53027628D01*
X92580451Y-50527628D01*
X92977100Y-50527628D01*
X92977100Y-50695171D01*
X93009782Y-50859474D01*
X93009784Y-50859482D01*
X93073895Y-51014260D01*
X93166973Y-51153562D01*
X93285437Y-51272026D01*
X93369212Y-51328002D01*
X93424737Y-51365103D01*
X93579518Y-51429216D01*
X93743828Y-51461899D01*
X93743832Y-51461900D01*
X93743833Y-51461900D01*
X93911368Y-51461900D01*
X93911369Y-51461899D01*
X94075682Y-51429216D01*
X94230463Y-51365103D01*
X94369762Y-51272026D01*
X94488226Y-51153562D01*
X94581303Y-51014263D01*
X94644622Y-50861400D01*
X97253485Y-50861400D01*
X97254685Y-50868984D01*
X97308191Y-51033655D01*
X97386795Y-51187924D01*
X97488567Y-51328002D01*
X97610997Y-51450432D01*
X97751075Y-51552204D01*
X97905342Y-51630808D01*
X98070015Y-51684314D01*
X98241029Y-51711400D01*
X98577600Y-51711400D01*
X99077600Y-51711400D01*
X99414171Y-51711400D01*
X99585184Y-51684314D01*
X99749857Y-51630808D01*
X99904124Y-51552204D01*
X100044202Y-51450432D01*
X100166632Y-51328002D01*
X100268404Y-51187924D01*
X100347008Y-51033655D01*
X100400514Y-50868984D01*
X100401715Y-50861400D01*
X99077600Y-50861400D01*
X99077600Y-51711400D01*
X98577600Y-51711400D01*
X98577600Y-50861400D01*
X97253485Y-50861400D01*
X94644622Y-50861400D01*
X94645416Y-50859482D01*
X94678100Y-50695167D01*
X94678100Y-50571618D01*
X98127600Y-50571618D01*
X98127600Y-50651182D01*
X98158048Y-50724691D01*
X98214309Y-50780952D01*
X98287818Y-50811400D01*
X99367382Y-50811400D01*
X99440891Y-50780952D01*
X99497152Y-50724691D01*
X99527600Y-50651182D01*
X99527600Y-50571618D01*
X99509379Y-50527628D01*
X102977100Y-50527628D01*
X102977100Y-50695171D01*
X103009782Y-50859474D01*
X103009784Y-50859482D01*
X103073895Y-51014260D01*
X103166973Y-51153562D01*
X103285437Y-51272026D01*
X103369212Y-51328002D01*
X103424737Y-51365103D01*
X103579518Y-51429216D01*
X103743828Y-51461899D01*
X103743832Y-51461900D01*
X103743833Y-51461900D01*
X103911368Y-51461900D01*
X103911369Y-51461899D01*
X104075682Y-51429216D01*
X104230463Y-51365103D01*
X104369762Y-51272026D01*
X104488226Y-51153562D01*
X104581303Y-51014263D01*
X104645416Y-50859482D01*
X104678100Y-50695167D01*
X104678100Y-50527633D01*
X104645416Y-50363318D01*
X104581303Y-50208537D01*
X104550137Y-50161894D01*
X104488226Y-50069237D01*
X104369762Y-49950773D01*
X104230460Y-49857695D01*
X104075682Y-49793584D01*
X104075674Y-49793582D01*
X103911371Y-49760900D01*
X103911367Y-49760900D01*
X103743833Y-49760900D01*
X103743828Y-49760900D01*
X103579525Y-49793582D01*
X103579517Y-49793584D01*
X103424739Y-49857695D01*
X103285437Y-49950773D01*
X103166973Y-50069237D01*
X103073895Y-50208539D01*
X103009784Y-50363317D01*
X103009782Y-50363325D01*
X102977100Y-50527628D01*
X99509379Y-50527628D01*
X99497152Y-50498109D01*
X99440891Y-50441848D01*
X99367382Y-50411400D01*
X98287818Y-50411400D01*
X98214309Y-50441848D01*
X98158048Y-50498109D01*
X98127600Y-50571618D01*
X94678100Y-50571618D01*
X94678100Y-50527633D01*
X94645416Y-50363318D01*
X94644621Y-50361399D01*
X97253484Y-50361399D01*
X97253485Y-50361400D01*
X98577600Y-50361400D01*
X99077600Y-50361400D01*
X100401715Y-50361400D01*
X100401715Y-50361399D01*
X100400514Y-50353815D01*
X100347008Y-50189144D01*
X100268404Y-50034875D01*
X100166632Y-49894797D01*
X100044202Y-49772367D01*
X99904124Y-49670595D01*
X99749857Y-49591991D01*
X99585184Y-49538485D01*
X99414171Y-49511400D01*
X99077600Y-49511400D01*
X99077600Y-50361400D01*
X98577600Y-50361400D01*
X98577600Y-49511400D01*
X98241029Y-49511400D01*
X98070015Y-49538485D01*
X97905342Y-49591991D01*
X97751075Y-49670595D01*
X97610997Y-49772367D01*
X97488567Y-49894797D01*
X97386795Y-50034875D01*
X97308191Y-50189144D01*
X97254685Y-50353815D01*
X97253484Y-50361399D01*
X94644621Y-50361399D01*
X94581303Y-50208537D01*
X94550137Y-50161894D01*
X94488226Y-50069237D01*
X94369762Y-49950773D01*
X94230460Y-49857695D01*
X94075682Y-49793584D01*
X94075674Y-49793582D01*
X93911371Y-49760900D01*
X93911367Y-49760900D01*
X93743833Y-49760900D01*
X93743828Y-49760900D01*
X93579525Y-49793582D01*
X93579517Y-49793584D01*
X93424739Y-49857695D01*
X93285437Y-49950773D01*
X93166973Y-50069237D01*
X93073895Y-50208539D01*
X93009784Y-50363317D01*
X93009782Y-50363325D01*
X92977100Y-50527628D01*
X92580451Y-50527628D01*
X92579074Y-48785844D01*
X107756000Y-48785844D01*
X107762401Y-48845372D01*
X107762403Y-48845379D01*
X107812645Y-48980086D01*
X107812649Y-48980093D01*
X107898809Y-49095187D01*
X107898812Y-49095190D01*
X108013906Y-49181350D01*
X108013913Y-49181354D01*
X108148620Y-49231596D01*
X108148627Y-49231598D01*
X108208155Y-49237999D01*
X108208172Y-49238000D01*
X108756000Y-49238000D01*
X108756000Y-48238000D01*
X107756000Y-48238000D01*
X107756000Y-48785844D01*
X92579074Y-48785844D01*
X92573069Y-41187844D01*
X92907800Y-41187844D01*
X92914201Y-41247372D01*
X92914203Y-41247379D01*
X92964445Y-41382086D01*
X92964449Y-41382093D01*
X93050609Y-41497187D01*
X93050612Y-41497190D01*
X93165706Y-41583350D01*
X93165713Y-41583354D01*
X93300420Y-41633596D01*
X93300427Y-41633598D01*
X93359955Y-41639999D01*
X93359972Y-41640000D01*
X93907800Y-41640000D01*
X94407800Y-41640000D01*
X94955628Y-41640000D01*
X94955644Y-41639999D01*
X95015172Y-41633598D01*
X95015179Y-41633596D01*
X95149886Y-41583354D01*
X95149893Y-41583350D01*
X95264987Y-41497190D01*
X95264990Y-41497187D01*
X95351150Y-41382093D01*
X95351154Y-41382086D01*
X95401396Y-41247379D01*
X95401398Y-41247372D01*
X95407799Y-41187844D01*
X95407800Y-41187827D01*
X95407800Y-40890000D01*
X94407800Y-40890000D01*
X94407800Y-41640000D01*
X93907800Y-41640000D01*
X93907800Y-40890000D01*
X92907800Y-40890000D01*
X92907800Y-41187844D01*
X92573069Y-41187844D01*
X92572432Y-40381775D01*
X92592064Y-40314722D01*
X92644831Y-40268925D01*
X92695746Y-40257681D01*
X92783121Y-40257201D01*
X92850265Y-40276517D01*
X92896310Y-40329069D01*
X92907800Y-40381199D01*
X92907800Y-40390000D01*
X95407800Y-40390000D01*
X95407800Y-40366100D01*
X95427485Y-40299061D01*
X95480289Y-40253306D01*
X95531114Y-40242103D01*
X98317713Y-40226792D01*
X98384856Y-40246107D01*
X98430901Y-40298659D01*
X98441224Y-40367761D01*
X98432958Y-40398228D01*
X98431604Y-40401497D01*
X98377253Y-40580666D01*
X98377252Y-40580668D01*
X98358901Y-40767000D01*
X98377252Y-40953331D01*
X98377253Y-40953333D01*
X98431604Y-41132502D01*
X98519862Y-41297623D01*
X98519864Y-41297626D01*
X98638642Y-41442357D01*
X98783373Y-41561135D01*
X98783376Y-41561137D01*
X98890348Y-41618314D01*
X98948499Y-41649396D01*
X99127666Y-41703746D01*
X99127668Y-41703747D01*
X99148024Y-41705751D01*
X99314000Y-41722099D01*
X99352007Y-41718355D01*
X99420652Y-41731373D01*
X99451842Y-41754077D01*
X99845139Y-42147374D01*
X99845149Y-42147385D01*
X99849479Y-42151715D01*
X99849480Y-42151716D01*
X99961284Y-42263520D01*
X100048095Y-42313639D01*
X100048097Y-42313641D01*
X100086151Y-42335611D01*
X100098215Y-42342577D01*
X100250943Y-42383501D01*
X100250946Y-42383501D01*
X100416653Y-42383501D01*
X100416669Y-42383500D01*
X110777214Y-42383500D01*
X110844253Y-42403185D01*
X110864895Y-42419819D01*
X111103715Y-42658639D01*
X111137200Y-42719962D01*
X111132216Y-42789654D01*
X111090344Y-42845587D01*
X111082008Y-42851312D01*
X111070418Y-42858594D01*
X111070413Y-42858598D01*
X110950827Y-42978184D01*
X110950822Y-42978190D01*
X110860851Y-43121377D01*
X110860849Y-43121380D01*
X110804989Y-43281018D01*
X110786055Y-43449072D01*
X110786055Y-43449079D01*
X110787752Y-43464142D01*
X110775697Y-43532963D01*
X110752213Y-43565705D01*
X110469737Y-43848182D01*
X110408417Y-43881666D01*
X110382058Y-43884500D01*
X105141601Y-43884500D01*
X105016399Y-43884500D01*
X104935775Y-43906103D01*
X104895463Y-43916905D01*
X104787038Y-43979503D01*
X104481448Y-44285092D01*
X104420125Y-44318576D01*
X104350433Y-44313592D01*
X104324876Y-44300512D01*
X104277837Y-44269081D01*
X104277828Y-44269076D01*
X104104851Y-44197427D01*
X104104843Y-44197425D01*
X103921220Y-44160900D01*
X103921216Y-44160900D01*
X103733984Y-44160900D01*
X103733979Y-44160900D01*
X103550356Y-44197425D01*
X103550348Y-44197427D01*
X103377371Y-44269076D01*
X103377362Y-44269081D01*
X103221692Y-44373097D01*
X103221688Y-44373100D01*
X103089300Y-44505488D01*
X103089297Y-44505492D01*
X102985281Y-44661162D01*
X102985276Y-44661171D01*
X102913627Y-44834148D01*
X102913625Y-44834156D01*
X102877100Y-45017779D01*
X102877100Y-46205020D01*
X102913625Y-46388643D01*
X102913628Y-46388655D01*
X102947342Y-46470048D01*
X102954811Y-46539517D01*
X102923535Y-46601996D01*
X102863446Y-46637648D01*
X102832781Y-46641500D01*
X102322419Y-46641500D01*
X102255380Y-46621815D01*
X102209625Y-46569011D01*
X102199681Y-46499853D01*
X102207858Y-46470048D01*
X102241571Y-46388655D01*
X102241573Y-46388651D01*
X102278100Y-46205016D01*
X102278100Y-45017784D01*
X102241573Y-44834149D01*
X102169922Y-44661169D01*
X102169921Y-44661168D01*
X102169918Y-44661162D01*
X102065902Y-44505492D01*
X102065899Y-44505488D01*
X101933511Y-44373100D01*
X101933507Y-44373097D01*
X101777837Y-44269081D01*
X101777828Y-44269076D01*
X101604851Y-44197427D01*
X101604843Y-44197425D01*
X101421220Y-44160900D01*
X101421216Y-44160900D01*
X101233984Y-44160900D01*
X101233979Y-44160900D01*
X101050356Y-44197425D01*
X101050348Y-44197427D01*
X100877371Y-44269076D01*
X100877362Y-44269081D01*
X100721692Y-44373097D01*
X100721688Y-44373100D01*
X100589300Y-44505488D01*
X100589297Y-44505492D01*
X100485281Y-44661162D01*
X100485276Y-44661171D01*
X100413627Y-44834148D01*
X100413625Y-44834156D01*
X100377100Y-45017779D01*
X100377100Y-46205020D01*
X100413625Y-46388643D01*
X100413628Y-46388655D01*
X100447342Y-46470048D01*
X100454811Y-46539517D01*
X100423535Y-46601996D01*
X100363446Y-46637648D01*
X100332781Y-46641500D01*
X99186573Y-46641500D01*
X99119534Y-46621815D01*
X99073779Y-46569011D01*
X99063835Y-46499853D01*
X99092860Y-46436297D01*
X99139120Y-46402939D01*
X99178382Y-46386676D01*
X99230463Y-46365103D01*
X99369762Y-46272026D01*
X99488226Y-46153562D01*
X99581303Y-46014263D01*
X99645416Y-45859482D01*
X99678100Y-45695167D01*
X99678100Y-45527633D01*
X99645416Y-45363318D01*
X99581303Y-45208537D01*
X99550137Y-45161894D01*
X99488226Y-45069237D01*
X99369762Y-44950773D01*
X99230460Y-44857695D01*
X99075682Y-44793584D01*
X99075674Y-44793582D01*
X98911371Y-44760900D01*
X98911367Y-44760900D01*
X98743833Y-44760900D01*
X98743828Y-44760900D01*
X98579525Y-44793582D01*
X98579517Y-44793584D01*
X98424739Y-44857695D01*
X98285437Y-44950773D01*
X98166973Y-45069237D01*
X98073895Y-45208539D01*
X98009784Y-45363317D01*
X98009782Y-45363325D01*
X97977100Y-45527628D01*
X97977100Y-45695171D01*
X98009782Y-45859474D01*
X98009784Y-45859482D01*
X98073895Y-46014260D01*
X98166973Y-46153562D01*
X98285437Y-46272026D01*
X98339305Y-46308019D01*
X98424737Y-46365103D01*
X98424738Y-46365103D01*
X98424739Y-46365104D01*
X98516080Y-46402939D01*
X98570483Y-46446780D01*
X98592548Y-46513074D01*
X98575269Y-46580774D01*
X98524131Y-46628384D01*
X98468627Y-46641500D01*
X97322419Y-46641500D01*
X97255380Y-46621815D01*
X97209625Y-46569011D01*
X97199681Y-46499853D01*
X97207858Y-46470048D01*
X97241571Y-46388655D01*
X97241573Y-46388651D01*
X97278100Y-46205016D01*
X97278100Y-45017784D01*
X97241573Y-44834149D01*
X97169922Y-44661169D01*
X97169921Y-44661168D01*
X97169918Y-44661162D01*
X97065902Y-44505492D01*
X97065899Y-44505488D01*
X96933511Y-44373100D01*
X96933507Y-44373097D01*
X96777837Y-44269081D01*
X96777828Y-44269076D01*
X96604851Y-44197427D01*
X96604843Y-44197425D01*
X96421220Y-44160900D01*
X96421216Y-44160900D01*
X96233984Y-44160900D01*
X96233979Y-44160900D01*
X96050356Y-44197425D01*
X96050348Y-44197427D01*
X95877371Y-44269076D01*
X95877362Y-44269081D01*
X95721692Y-44373097D01*
X95721688Y-44373100D01*
X95589300Y-44505488D01*
X95589297Y-44505492D01*
X95485281Y-44661162D01*
X95485276Y-44661171D01*
X95413627Y-44834148D01*
X95413625Y-44834156D01*
X95377100Y-45017779D01*
X95377100Y-45898279D01*
X95357415Y-45965318D01*
X95304611Y-46011073D01*
X95235453Y-46021017D01*
X95171897Y-45991992D01*
X95165419Y-45985960D01*
X94814419Y-45634960D01*
X94780934Y-45573637D01*
X94778100Y-45547279D01*
X94778100Y-45017783D01*
X94778099Y-45017779D01*
X94764771Y-44950773D01*
X94741573Y-44834149D01*
X94669922Y-44661169D01*
X94669921Y-44661168D01*
X94669918Y-44661162D01*
X94565902Y-44505492D01*
X94565899Y-44505488D01*
X94433511Y-44373100D01*
X94433507Y-44373097D01*
X94277837Y-44269081D01*
X94277828Y-44269076D01*
X94104851Y-44197427D01*
X94104843Y-44197425D01*
X93921220Y-44160900D01*
X93921216Y-44160900D01*
X93733984Y-44160900D01*
X93733979Y-44160900D01*
X93550356Y-44197425D01*
X93550348Y-44197427D01*
X93377371Y-44269076D01*
X93377362Y-44269081D01*
X93221692Y-44373097D01*
X93221688Y-44373100D01*
X93089300Y-44505488D01*
X93089297Y-44505492D01*
X92985281Y-44661162D01*
X92985276Y-44661171D01*
X92913627Y-44834148D01*
X92913625Y-44834156D01*
X92877100Y-45017779D01*
X92877100Y-46205020D01*
X92913625Y-46388643D01*
X92913627Y-46388651D01*
X92985276Y-46561628D01*
X92985281Y-46561637D01*
X93089297Y-46717307D01*
X93089300Y-46717311D01*
X93221688Y-46849699D01*
X93221692Y-46849702D01*
X93377362Y-46953718D01*
X93377368Y-46953721D01*
X93377369Y-46953722D01*
X93550349Y-47025373D01*
X93733979Y-47061899D01*
X93733983Y-47061900D01*
X93733984Y-47061900D01*
X93921217Y-47061900D01*
X93921218Y-47061899D01*
X94104851Y-47025373D01*
X94277831Y-46953722D01*
X94433508Y-46849702D01*
X94471193Y-46812016D01*
X94532514Y-46778530D01*
X94602206Y-46783513D01*
X94646556Y-46812015D01*
X95239164Y-47404622D01*
X95239174Y-47404633D01*
X95243504Y-47408963D01*
X95243505Y-47408964D01*
X95332036Y-47497495D01*
X95435782Y-47557392D01*
X95435785Y-47557395D01*
X95440459Y-47560093D01*
X95440461Y-47560093D01*
X95440464Y-47560095D01*
X95561399Y-47592501D01*
X95561402Y-47592501D01*
X95694197Y-47592501D01*
X95694213Y-47592500D01*
X104192747Y-47592500D01*
X104192749Y-47592500D01*
X104313684Y-47560095D01*
X104422112Y-47497495D01*
X104729452Y-47190155D01*
X107756000Y-47190155D01*
X107756000Y-47738000D01*
X108756000Y-47738000D01*
X108756000Y-46738000D01*
X108208155Y-46738000D01*
X108148627Y-46744401D01*
X108148620Y-46744403D01*
X108013913Y-46794645D01*
X108013906Y-46794649D01*
X107898812Y-46880809D01*
X107898809Y-46880812D01*
X107812649Y-46995906D01*
X107812645Y-46995913D01*
X107762403Y-47130620D01*
X107762401Y-47130627D01*
X107756000Y-47190155D01*
X104729452Y-47190155D01*
X105686155Y-46233450D01*
X105747476Y-46199967D01*
X105817167Y-46204951D01*
X105873101Y-46246822D01*
X105878828Y-46255162D01*
X105886321Y-46267087D01*
X105886323Y-46267090D01*
X106005909Y-46386676D01*
X106005915Y-46386681D01*
X106149102Y-46476652D01*
X106149105Y-46476654D01*
X106149109Y-46476655D01*
X106149110Y-46476656D01*
X106215404Y-46499853D01*
X106308743Y-46532514D01*
X106476797Y-46551449D01*
X106476800Y-46551449D01*
X106476803Y-46551449D01*
X106644856Y-46532514D01*
X106644859Y-46532513D01*
X106804490Y-46476656D01*
X106804492Y-46476654D01*
X106804494Y-46476654D01*
X106804497Y-46476652D01*
X106947684Y-46386681D01*
X106947685Y-46386680D01*
X106947690Y-46386677D01*
X107026348Y-46308019D01*
X107087671Y-46274534D01*
X107114029Y-46271700D01*
X109105879Y-46271700D01*
X109172918Y-46291385D01*
X109193560Y-46308019D01*
X109411860Y-46526319D01*
X109445345Y-46587642D01*
X109440361Y-46657334D01*
X109398489Y-46713267D01*
X109333025Y-46737684D01*
X109324179Y-46738000D01*
X109256000Y-46738000D01*
X109256000Y-47778382D01*
X109205554Y-47727936D01*
X109131445Y-47685149D01*
X109048787Y-47663000D01*
X108963213Y-47663000D01*
X108880555Y-47685149D01*
X108806446Y-47727936D01*
X108745936Y-47788446D01*
X108703149Y-47862555D01*
X108681000Y-47945213D01*
X108681000Y-48030787D01*
X108703149Y-48113445D01*
X108745936Y-48187554D01*
X108806446Y-48248064D01*
X108880555Y-48290851D01*
X108963213Y-48313000D01*
X109048787Y-48313000D01*
X109131445Y-48290851D01*
X109205554Y-48248064D01*
X109256000Y-48197618D01*
X109256000Y-49238000D01*
X109803828Y-49238000D01*
X109803844Y-49237999D01*
X109863372Y-49231598D01*
X109863379Y-49231596D01*
X109998086Y-49181354D01*
X109998093Y-49181350D01*
X110113187Y-49095190D01*
X110113190Y-49095187D01*
X110199350Y-48980093D01*
X110199354Y-48980086D01*
X110249596Y-48845379D01*
X110249598Y-48845372D01*
X110255999Y-48785844D01*
X110256000Y-48785827D01*
X110256000Y-48364416D01*
X110275685Y-48297377D01*
X110328489Y-48251622D01*
X110397647Y-48241678D01*
X110461203Y-48270703D01*
X110498977Y-48329481D01*
X110499266Y-48330481D01*
X110515417Y-48387247D01*
X110515422Y-48387260D01*
X110606327Y-48569821D01*
X110729237Y-48732581D01*
X110879958Y-48869980D01*
X110879960Y-48869982D01*
X110979141Y-48931392D01*
X111053363Y-48977348D01*
X111243544Y-49051024D01*
X111444024Y-49088500D01*
X111444026Y-49088500D01*
X111647974Y-49088500D01*
X111647976Y-49088500D01*
X111848456Y-49051024D01*
X112038637Y-48977348D01*
X112212041Y-48869981D01*
X112362764Y-48732579D01*
X112485673Y-48569821D01*
X112576582Y-48387250D01*
X112632397Y-48191083D01*
X112651215Y-47988000D01*
X112632397Y-47784917D01*
X112576582Y-47588750D01*
X112485673Y-47406179D01*
X112362764Y-47243421D01*
X112362762Y-47243418D01*
X112212041Y-47106019D01*
X112212039Y-47106017D01*
X112038642Y-46998655D01*
X112038635Y-46998651D01*
X111922648Y-46953718D01*
X111848456Y-46924976D01*
X111647976Y-46887500D01*
X111444024Y-46887500D01*
X111243544Y-46924976D01*
X111243540Y-46924977D01*
X111237909Y-46926030D01*
X111237621Y-46924490D01*
X111175158Y-46923959D01*
X111123424Y-46892965D01*
X109977240Y-45746781D01*
X109943755Y-45685458D01*
X109948739Y-45615766D01*
X109990611Y-45559833D01*
X110056075Y-45535416D01*
X110064921Y-45535100D01*
X111400658Y-45535100D01*
X111400660Y-45535100D01*
X111521595Y-45502695D01*
X111630023Y-45440095D01*
X111867502Y-45202615D01*
X111928820Y-45169133D01*
X111998512Y-45174117D01*
X112054446Y-45215988D01*
X112078582Y-45278144D01*
X112088253Y-45376332D01*
X112088253Y-45376333D01*
X112142604Y-45555502D01*
X112230862Y-45720623D01*
X112230864Y-45720626D01*
X112349642Y-45865357D01*
X112494373Y-45984135D01*
X112494376Y-45984137D01*
X112659497Y-46072395D01*
X112659499Y-46072396D01*
X112827718Y-46123425D01*
X112838666Y-46126746D01*
X112838668Y-46126747D01*
X112855374Y-46128392D01*
X113025000Y-46145099D01*
X113211331Y-46126747D01*
X113390501Y-46072396D01*
X113555625Y-45984136D01*
X113700357Y-45865357D01*
X113819136Y-45720625D01*
X113907396Y-45555501D01*
X113961747Y-45376331D01*
X113980099Y-45190000D01*
X113961747Y-45003669D01*
X113907396Y-44824499D01*
X113820095Y-44661169D01*
X113819137Y-44659376D01*
X113819135Y-44659373D01*
X113700357Y-44514642D01*
X113670835Y-44490414D01*
X113631501Y-44432668D01*
X113625500Y-44394561D01*
X113625500Y-43651634D01*
X113625498Y-43651625D01*
X113620404Y-43632611D01*
X113584577Y-43498904D01*
X113555639Y-43448784D01*
X113505520Y-43361973D01*
X113393716Y-43250169D01*
X113393715Y-43250168D01*
X113389385Y-43245838D01*
X113389374Y-43245828D01*
X111564901Y-41421355D01*
X111564899Y-41421352D01*
X111446028Y-41302481D01*
X111446027Y-41302480D01*
X111351423Y-41247861D01*
X111351422Y-41247860D01*
X111309094Y-41223422D01*
X111250955Y-41207844D01*
X113200000Y-41207844D01*
X113206401Y-41267372D01*
X113206403Y-41267379D01*
X113256645Y-41402086D01*
X113256649Y-41402093D01*
X113342809Y-41517187D01*
X113342812Y-41517190D01*
X113457906Y-41603350D01*
X113457913Y-41603354D01*
X113592620Y-41653596D01*
X113592627Y-41653598D01*
X113652155Y-41659999D01*
X113652172Y-41660000D01*
X114200000Y-41660000D01*
X114200000Y-40910000D01*
X113200000Y-40910000D01*
X113200000Y-41207844D01*
X111250955Y-41207844D01*
X111156368Y-41182499D01*
X110998254Y-41182499D01*
X110990658Y-41182499D01*
X110990642Y-41182500D01*
X100630097Y-41182500D01*
X100563058Y-41162815D01*
X100542416Y-41146181D01*
X100301077Y-40904842D01*
X100267592Y-40843519D01*
X100265355Y-40805009D01*
X100269099Y-40767000D01*
X100250747Y-40580669D01*
X100196396Y-40401499D01*
X100194706Y-40398338D01*
X100194321Y-40396488D01*
X100194064Y-40395867D01*
X100194181Y-40395818D01*
X100180460Y-40329939D01*
X100205456Y-40264693D01*
X100261757Y-40223318D01*
X100303374Y-40215881D01*
X113075321Y-40145706D01*
X113142465Y-40165022D01*
G37*
%TD.AperFunction*%
%TD*%
%TA.AperFunction,Conductor*%
%TO.N,GND*%
G36*
X100122736Y-28698157D02*
G01*
X101130863Y-28698426D01*
X101131355Y-28698427D01*
X114902430Y-28774511D01*
X114949027Y-28783878D01*
X114983281Y-28798007D01*
X115021736Y-28813869D01*
X115043108Y-28825241D01*
X115187901Y-28921522D01*
X115206652Y-28936829D01*
X115328111Y-29057564D01*
X115329973Y-29059415D01*
X115345398Y-29078083D01*
X115442534Y-29222289D01*
X115454037Y-29243599D01*
X115521295Y-29403939D01*
X115528437Y-29427076D01*
X115563550Y-29598889D01*
X115566006Y-29620022D01*
X115568587Y-29706595D01*
X115568642Y-29710283D01*
X115569118Y-38285425D01*
X115549437Y-38352466D01*
X115496636Y-38398224D01*
X115427478Y-38408171D01*
X115401785Y-38401614D01*
X115307379Y-38366403D01*
X115307372Y-38366401D01*
X115247844Y-38360000D01*
X114700000Y-38360000D01*
X114700000Y-39486000D01*
X114680315Y-39553039D01*
X114627511Y-39598794D01*
X114576000Y-39610000D01*
X113200000Y-39610000D01*
X113200000Y-39666195D01*
X113180315Y-39733234D01*
X113127511Y-39778989D01*
X113076681Y-39790193D01*
X113073369Y-39790211D01*
X113073368Y-39790211D01*
X110270884Y-39805608D01*
X109454390Y-39810095D01*
X109387244Y-39790779D01*
X109341199Y-39738227D01*
X109330770Y-39669912D01*
X109334182Y-39644000D01*
X109330061Y-39612697D01*
X109329000Y-39596512D01*
X109329000Y-38691487D01*
X109330061Y-38675301D01*
X109334182Y-38644000D01*
X109334182Y-38643998D01*
X109330061Y-38612697D01*
X109329000Y-38596512D01*
X109329000Y-38360739D01*
X109319073Y-38292608D01*
X109319073Y-38292607D01*
X109267698Y-38187517D01*
X109267696Y-38187515D01*
X109267696Y-38187514D01*
X109184985Y-38104803D01*
X109079891Y-38053426D01*
X109011761Y-38043500D01*
X109011760Y-38043500D01*
X108775987Y-38043500D01*
X108759802Y-38042439D01*
X108728500Y-38038318D01*
X108697197Y-38042439D01*
X108681013Y-38043500D01*
X107775987Y-38043500D01*
X107759802Y-38042439D01*
X107728500Y-38038318D01*
X107697197Y-38042439D01*
X107681013Y-38043500D01*
X106775987Y-38043500D01*
X106759802Y-38042439D01*
X106728500Y-38038318D01*
X106697197Y-38042439D01*
X106681013Y-38043500D01*
X106445239Y-38043500D01*
X106377108Y-38053426D01*
X106272014Y-38104803D01*
X106189303Y-38187514D01*
X106137926Y-38292608D01*
X106128000Y-38360739D01*
X106128000Y-38596512D01*
X106126939Y-38612697D01*
X106122818Y-38643998D01*
X106122818Y-38644000D01*
X106126939Y-38675301D01*
X106128000Y-38691487D01*
X106128000Y-39596512D01*
X106126939Y-39612697D01*
X106122818Y-39643998D01*
X106122818Y-39644000D01*
X106126939Y-39675301D01*
X106128000Y-39691487D01*
X106128000Y-39705051D01*
X106108315Y-39772090D01*
X106055511Y-39817845D01*
X106004681Y-39829049D01*
X101881705Y-39851702D01*
X101814559Y-39832386D01*
X101768514Y-39779834D01*
X101758191Y-39710732D01*
X101786866Y-39647017D01*
X101793332Y-39640034D01*
X101809477Y-39623890D01*
X101853996Y-39553039D01*
X101899452Y-39480697D01*
X101899453Y-39480694D01*
X101899456Y-39480690D01*
X101899457Y-39480685D01*
X101902477Y-39474417D01*
X101904410Y-39475348D01*
X101939100Y-39426970D01*
X102004050Y-39401215D01*
X102043036Y-39403804D01*
X102049640Y-39405311D01*
X102049644Y-39405313D01*
X102049647Y-39405313D01*
X102049650Y-39405314D01*
X102217700Y-39424249D01*
X102217703Y-39424249D01*
X102217706Y-39424249D01*
X102385759Y-39405314D01*
X102397473Y-39401215D01*
X102545393Y-39349456D01*
X102545395Y-39349454D01*
X102545397Y-39349454D01*
X102545400Y-39349452D01*
X102688587Y-39259481D01*
X102688588Y-39259480D01*
X102688593Y-39259477D01*
X102808180Y-39139890D01*
X102837066Y-39093918D01*
X102880059Y-39052505D01*
X102885275Y-39049495D01*
X103926680Y-38008088D01*
X103988001Y-37974605D01*
X104028242Y-37972551D01*
X104043311Y-37974249D01*
X104043312Y-37974248D01*
X104043313Y-37974249D01*
X104043314Y-37974249D01*
X104211367Y-37955314D01*
X104211370Y-37955313D01*
X104371001Y-37899456D01*
X104371003Y-37899454D01*
X104371005Y-37899454D01*
X104371008Y-37899452D01*
X104514195Y-37809481D01*
X104514196Y-37809480D01*
X104514201Y-37809477D01*
X104633788Y-37689890D01*
X104707899Y-37571944D01*
X104723763Y-37546697D01*
X104723765Y-37546694D01*
X104723765Y-37546692D01*
X104723767Y-37546690D01*
X104779624Y-37387059D01*
X104779624Y-37387058D01*
X104779625Y-37387056D01*
X104798560Y-37219002D01*
X104798560Y-37218997D01*
X104779625Y-37050943D01*
X104723765Y-36891305D01*
X104723763Y-36891302D01*
X104633792Y-36748115D01*
X104633787Y-36748109D01*
X104587859Y-36702181D01*
X104554374Y-36640858D01*
X104559358Y-36571166D01*
X104601230Y-36515233D01*
X104666694Y-36490816D01*
X104675540Y-36490500D01*
X106235735Y-36490500D01*
X106302774Y-36510185D01*
X106345093Y-36556047D01*
X106402359Y-36663186D01*
X106402361Y-36663189D01*
X106521139Y-36807920D01*
X106665870Y-36926698D01*
X106665873Y-36926700D01*
X106741719Y-36967240D01*
X106830996Y-37014959D01*
X106949619Y-37050943D01*
X107010163Y-37069309D01*
X107010165Y-37069310D01*
X107026871Y-37070955D01*
X107196497Y-37087662D01*
X107382828Y-37069310D01*
X107561998Y-37014959D01*
X107727122Y-36926699D01*
X107871854Y-36807920D01*
X107990633Y-36663188D01*
X108039052Y-36572601D01*
X108078891Y-36498068D01*
X108078891Y-36498067D01*
X108078893Y-36498064D01*
X108106878Y-36405808D01*
X108145175Y-36347372D01*
X108208987Y-36318916D01*
X108237689Y-36318403D01*
X108375000Y-36331927D01*
X108413006Y-36328183D01*
X108481650Y-36341201D01*
X108512841Y-36363905D01*
X109111870Y-36962934D01*
X109111872Y-36962935D01*
X109111876Y-36962938D01*
X109248795Y-37041987D01*
X109248802Y-37041991D01*
X109401529Y-37082915D01*
X109401531Y-37082915D01*
X109567240Y-37082915D01*
X109567256Y-37082914D01*
X110915969Y-37082914D01*
X110915985Y-37082915D01*
X110923581Y-37082915D01*
X111081692Y-37082915D01*
X111081695Y-37082915D01*
X111234423Y-37041991D01*
X111284542Y-37013053D01*
X111371354Y-36962934D01*
X111483158Y-36851130D01*
X111483158Y-36851128D01*
X111493366Y-36840921D01*
X111493368Y-36840918D01*
X111989684Y-36344601D01*
X112051005Y-36311118D01*
X112089514Y-36308881D01*
X112127526Y-36312625D01*
X112290000Y-36296622D01*
X112358643Y-36309641D01*
X112409354Y-36357705D01*
X112426029Y-36425556D01*
X112403373Y-36491651D01*
X112389833Y-36507706D01*
X111417659Y-37479880D01*
X111356336Y-37513365D01*
X111343872Y-37515418D01*
X111337948Y-37516085D01*
X111337940Y-37516087D01*
X111178307Y-37571944D01*
X111178302Y-37571947D01*
X111035115Y-37661918D01*
X111035109Y-37661923D01*
X110915523Y-37781509D01*
X110915518Y-37781515D01*
X110825547Y-37924702D01*
X110825545Y-37924705D01*
X110769685Y-38084343D01*
X110750751Y-38252397D01*
X110750751Y-38252402D01*
X110769685Y-38420456D01*
X110825545Y-38580094D01*
X110825547Y-38580097D01*
X110915518Y-38723284D01*
X110915523Y-38723290D01*
X111035109Y-38842876D01*
X111035115Y-38842881D01*
X111178302Y-38932852D01*
X111178305Y-38932854D01*
X111178309Y-38932855D01*
X111178310Y-38932856D01*
X111250913Y-38958260D01*
X111337943Y-38988714D01*
X111505997Y-39007649D01*
X111506000Y-39007649D01*
X111506003Y-39007649D01*
X111674056Y-38988714D01*
X111684839Y-38984941D01*
X111833690Y-38932856D01*
X111833692Y-38932854D01*
X111833694Y-38932854D01*
X111833697Y-38932852D01*
X111976884Y-38842881D01*
X111976885Y-38842880D01*
X111976890Y-38842877D01*
X112007612Y-38812155D01*
X113200000Y-38812155D01*
X113200000Y-39110000D01*
X114200000Y-39110000D01*
X114200000Y-38360000D01*
X113652155Y-38360000D01*
X113592627Y-38366401D01*
X113592620Y-38366403D01*
X113457913Y-38416645D01*
X113457906Y-38416649D01*
X113342812Y-38502809D01*
X113342809Y-38502812D01*
X113256649Y-38617906D01*
X113256645Y-38617913D01*
X113206403Y-38752620D01*
X113206401Y-38752627D01*
X113200000Y-38812155D01*
X112007612Y-38812155D01*
X112096477Y-38723290D01*
X112096481Y-38723284D01*
X112186452Y-38580097D01*
X112186454Y-38580094D01*
X112186454Y-38580092D01*
X112186456Y-38580090D01*
X112242313Y-38420459D01*
X112242313Y-38420458D01*
X112242314Y-38420456D01*
X112261249Y-38252402D01*
X112261249Y-38252397D01*
X112242314Y-38084348D01*
X112242313Y-38084343D01*
X112242313Y-38084341D01*
X112242311Y-38084336D01*
X112241920Y-38082621D01*
X112241990Y-38081470D01*
X112241534Y-38077421D01*
X112242242Y-38077341D01*
X112246184Y-38012882D01*
X112275124Y-37967333D01*
X113440495Y-36801964D01*
X113503095Y-36693536D01*
X113535500Y-36572601D01*
X113535500Y-36447399D01*
X113535500Y-34919251D01*
X113503095Y-34798316D01*
X113440495Y-34689888D01*
X113351964Y-34601357D01*
X112802638Y-34052031D01*
X112694210Y-33989431D01*
X112694211Y-33989431D01*
X112653898Y-33978629D01*
X112573275Y-33957026D01*
X111806979Y-33957026D01*
X111681777Y-33957026D01*
X111673649Y-33957026D01*
X111673649Y-33955435D01*
X111613857Y-33946103D01*
X111561607Y-33899716D01*
X111542731Y-33832445D01*
X111554340Y-33781532D01*
X111636430Y-33605492D01*
X111636432Y-33605486D01*
X111693636Y-33392000D01*
X110796012Y-33392000D01*
X110828925Y-33334993D01*
X110863000Y-33207826D01*
X110863000Y-33076174D01*
X110828925Y-32949007D01*
X110796012Y-32892000D01*
X111693636Y-32892000D01*
X111693635Y-32891999D01*
X111636432Y-32678513D01*
X111636429Y-32678507D01*
X111536600Y-32464422D01*
X111536599Y-32464420D01*
X111401113Y-32270926D01*
X111401108Y-32270920D01*
X111234082Y-32103894D01*
X111047968Y-31973575D01*
X111004344Y-31918998D01*
X110997151Y-31849499D01*
X111028673Y-31787145D01*
X111047968Y-31770425D01*
X111234082Y-31640105D01*
X111401105Y-31473082D01*
X111536600Y-31279578D01*
X111636429Y-31065492D01*
X111636432Y-31065486D01*
X111693636Y-30852000D01*
X110796012Y-30852000D01*
X110828925Y-30794993D01*
X110863000Y-30667826D01*
X110863000Y-30536174D01*
X110828925Y-30409007D01*
X110796012Y-30352000D01*
X111693636Y-30352000D01*
X111693635Y-30351999D01*
X111636432Y-30138513D01*
X111636429Y-30138507D01*
X111536600Y-29924422D01*
X111536599Y-29924420D01*
X111401113Y-29730926D01*
X111401108Y-29730920D01*
X111234082Y-29563894D01*
X111040578Y-29428399D01*
X110826492Y-29328570D01*
X110826486Y-29328567D01*
X110613000Y-29271364D01*
X110613000Y-30168988D01*
X110555993Y-30136075D01*
X110428826Y-30102000D01*
X110297174Y-30102000D01*
X110170007Y-30136075D01*
X110113000Y-30168988D01*
X110113000Y-29271364D01*
X110112999Y-29271364D01*
X109899513Y-29328567D01*
X109899507Y-29328570D01*
X109685422Y-29428399D01*
X109685420Y-29428400D01*
X109491926Y-29563886D01*
X109491920Y-29563891D01*
X109324891Y-29730920D01*
X109324886Y-29730926D01*
X109189400Y-29924420D01*
X109189399Y-29924422D01*
X109122717Y-30067421D01*
X109076544Y-30119860D01*
X109009350Y-30139012D01*
X108942469Y-30118796D01*
X108899335Y-30070288D01*
X108848061Y-29967316D01*
X108848056Y-29967308D01*
X108713979Y-29789761D01*
X108549562Y-29639876D01*
X108549560Y-29639874D01*
X108360404Y-29522754D01*
X108360398Y-29522752D01*
X108152940Y-29442382D01*
X107934243Y-29401500D01*
X107711757Y-29401500D01*
X107493060Y-29442382D01*
X107361864Y-29493207D01*
X107285601Y-29522752D01*
X107285595Y-29522754D01*
X107096439Y-29639874D01*
X107096437Y-29639876D01*
X106932020Y-29789761D01*
X106797943Y-29967308D01*
X106797938Y-29967316D01*
X106698775Y-30166461D01*
X106698769Y-30166476D01*
X106672266Y-30259627D01*
X106634987Y-30318721D01*
X106571677Y-30348278D01*
X106502438Y-30338916D01*
X106449251Y-30293606D01*
X106433734Y-30259627D01*
X106407230Y-30166476D01*
X106407229Y-30166472D01*
X106407224Y-30166461D01*
X106308061Y-29967316D01*
X106308056Y-29967308D01*
X106173979Y-29789761D01*
X106009562Y-29639876D01*
X106009560Y-29639874D01*
X105820404Y-29522754D01*
X105820398Y-29522752D01*
X105612940Y-29442382D01*
X105394243Y-29401500D01*
X105171757Y-29401500D01*
X104953060Y-29442382D01*
X104821864Y-29493207D01*
X104745601Y-29522752D01*
X104745595Y-29522754D01*
X104556439Y-29639874D01*
X104556437Y-29639876D01*
X104392020Y-29789761D01*
X104257943Y-29967308D01*
X104257938Y-29967316D01*
X104158775Y-30166461D01*
X104158769Y-30166476D01*
X104132266Y-30259627D01*
X104094987Y-30318721D01*
X104031677Y-30348278D01*
X103962438Y-30338916D01*
X103909251Y-30293606D01*
X103893734Y-30259627D01*
X103867230Y-30166476D01*
X103867229Y-30166472D01*
X103867224Y-30166461D01*
X103768061Y-29967316D01*
X103768056Y-29967308D01*
X103633979Y-29789761D01*
X103469562Y-29639876D01*
X103469560Y-29639874D01*
X103280404Y-29522754D01*
X103280398Y-29522752D01*
X103072940Y-29442382D01*
X102854243Y-29401500D01*
X102631757Y-29401500D01*
X102413060Y-29442382D01*
X102281864Y-29493207D01*
X102205601Y-29522752D01*
X102205595Y-29522754D01*
X102016439Y-29639874D01*
X102016437Y-29639876D01*
X101852020Y-29789761D01*
X101717943Y-29967308D01*
X101717938Y-29967316D01*
X101618775Y-30166461D01*
X101618769Y-30166476D01*
X101592266Y-30259627D01*
X101554987Y-30318721D01*
X101491677Y-30348278D01*
X101422438Y-30338916D01*
X101369251Y-30293606D01*
X101353734Y-30259627D01*
X101327230Y-30166476D01*
X101327229Y-30166472D01*
X101327224Y-30166461D01*
X101228061Y-29967316D01*
X101228056Y-29967308D01*
X101093979Y-29789761D01*
X100929562Y-29639876D01*
X100929560Y-29639874D01*
X100740404Y-29522754D01*
X100740398Y-29522752D01*
X100532940Y-29442382D01*
X100314243Y-29401500D01*
X100091757Y-29401500D01*
X99873060Y-29442382D01*
X99741864Y-29493207D01*
X99665601Y-29522752D01*
X99665595Y-29522754D01*
X99476439Y-29639874D01*
X99476437Y-29639876D01*
X99312020Y-29789761D01*
X99177943Y-29967308D01*
X99177938Y-29967316D01*
X99098500Y-30126850D01*
X99050997Y-30178087D01*
X98983334Y-30195508D01*
X98916994Y-30173582D01*
X98873039Y-30119271D01*
X98863500Y-30071578D01*
X98863500Y-29718739D01*
X98853573Y-29650608D01*
X98853573Y-29650607D01*
X98802198Y-29545517D01*
X98802196Y-29545515D01*
X98802196Y-29545514D01*
X98719485Y-29462803D01*
X98614391Y-29411426D01*
X98546261Y-29401500D01*
X98546260Y-29401500D01*
X96779740Y-29401500D01*
X96779739Y-29401500D01*
X96711608Y-29411426D01*
X96606514Y-29462803D01*
X96523803Y-29545514D01*
X96472426Y-29650608D01*
X96462500Y-29718739D01*
X96462500Y-30901902D01*
X96442815Y-30968941D01*
X96426181Y-30989583D01*
X95789481Y-31626282D01*
X95789479Y-31626285D01*
X95770890Y-31658483D01*
X95757749Y-31681245D01*
X95739361Y-31713094D01*
X95739359Y-31713096D01*
X95710425Y-31763209D01*
X95710424Y-31763210D01*
X95710423Y-31763215D01*
X95669499Y-31915943D01*
X95669499Y-31915945D01*
X95669499Y-32084046D01*
X95669500Y-32084059D01*
X95669500Y-33944356D01*
X95649815Y-34011395D01*
X95641353Y-34023021D01*
X95545864Y-34139373D01*
X95545862Y-34139376D01*
X95457604Y-34304497D01*
X95403253Y-34483666D01*
X95403252Y-34483668D01*
X95384901Y-34670000D01*
X95403252Y-34856331D01*
X95403253Y-34856333D01*
X95457604Y-35035502D01*
X95545862Y-35200623D01*
X95545864Y-35200626D01*
X95664642Y-35345357D01*
X95809373Y-35464135D01*
X95809376Y-35464137D01*
X95974497Y-35552395D01*
X95974499Y-35552396D01*
X96153666Y-35606746D01*
X96153668Y-35606747D01*
X96170374Y-35608392D01*
X96340000Y-35625099D01*
X96526331Y-35606747D01*
X96705501Y-35552396D01*
X96788434Y-35508067D01*
X96856835Y-35493826D01*
X96922079Y-35518826D01*
X96963450Y-35575131D01*
X96967812Y-35644864D01*
X96965547Y-35653421D01*
X96913252Y-35825811D01*
X96894901Y-36012141D01*
X96913252Y-36198472D01*
X96913253Y-36198474D01*
X96967604Y-36377643D01*
X97055862Y-36542764D01*
X97055864Y-36542767D01*
X97174642Y-36687498D01*
X97319373Y-36806276D01*
X97319376Y-36806278D01*
X97478447Y-36891302D01*
X97484499Y-36894537D01*
X97663666Y-36948887D01*
X97663668Y-36948888D01*
X97680374Y-36950533D01*
X97850000Y-36967240D01*
X98036331Y-36948888D01*
X98215501Y-36894537D01*
X98380625Y-36806277D01*
X98525357Y-36687498D01*
X98549586Y-36657976D01*
X98607332Y-36618642D01*
X98645439Y-36612641D01*
X100245487Y-36612641D01*
X100312526Y-36632326D01*
X100341340Y-36657976D01*
X100365568Y-36687498D01*
X100510299Y-36806276D01*
X100510302Y-36806278D01*
X100669373Y-36891302D01*
X100675425Y-36894537D01*
X100854592Y-36948887D01*
X100854594Y-36948888D01*
X100871300Y-36950533D01*
X101040926Y-36967240D01*
X101227257Y-36948888D01*
X101406427Y-36894537D01*
X101571551Y-36806277D01*
X101716283Y-36687498D01*
X101810579Y-36572599D01*
X101838927Y-36538057D01*
X101840575Y-36539410D01*
X101886786Y-36500799D01*
X101936265Y-36490500D01*
X102299602Y-36490500D01*
X102366641Y-36510185D01*
X102412396Y-36562989D01*
X102422822Y-36628384D01*
X102410246Y-36739996D01*
X102410246Y-36740003D01*
X102411943Y-36755066D01*
X102399888Y-36823887D01*
X102376404Y-36856629D01*
X101741307Y-37491726D01*
X101715627Y-37511432D01*
X101625434Y-37563505D01*
X101625431Y-37563507D01*
X100838506Y-38350432D01*
X100838504Y-38350435D01*
X100775905Y-38458861D01*
X100775905Y-38458862D01*
X100756733Y-38530407D01*
X100724642Y-38585991D01*
X100628518Y-38682115D01*
X100538547Y-38825302D01*
X100538545Y-38825305D01*
X100482685Y-38984943D01*
X100463751Y-39152997D01*
X100463751Y-39153002D01*
X100482685Y-39321056D01*
X100538545Y-39480694D01*
X100538547Y-39480697D01*
X100628518Y-39623884D01*
X100628523Y-39623890D01*
X100651891Y-39647258D01*
X100685376Y-39708581D01*
X100680392Y-39778273D01*
X100638520Y-39834206D01*
X100573056Y-39858623D01*
X100564892Y-39858937D01*
X100301432Y-39860385D01*
X100301421Y-39860385D01*
X100240828Y-39865925D01*
X100199221Y-39873361D01*
X100155662Y-39884019D01*
X100155660Y-39884019D01*
X100155659Y-39884020D01*
X100063311Y-39930745D01*
X100051237Y-39936854D01*
X100051236Y-39936855D01*
X99996709Y-39976925D01*
X99931031Y-40000761D01*
X99862892Y-39985304D01*
X99844759Y-39972953D01*
X99844623Y-39972862D01*
X99679502Y-39884604D01*
X99500333Y-39830253D01*
X99500331Y-39830252D01*
X99314000Y-39811901D01*
X99127668Y-39830252D01*
X99127666Y-39830253D01*
X98948497Y-39884604D01*
X98783381Y-39972860D01*
X98783369Y-39972867D01*
X98774456Y-39980183D01*
X98710146Y-40007495D01*
X98641279Y-39995702D01*
X98613004Y-39976642D01*
X98608791Y-39972864D01*
X98588744Y-39954885D01*
X98483137Y-39904462D01*
X98483135Y-39904461D01*
X98415998Y-39885147D01*
X98415990Y-39885146D01*
X98315761Y-39871297D01*
X98315760Y-39871297D01*
X98295736Y-39871407D01*
X95532481Y-39886589D01*
X95465335Y-39867273D01*
X95419290Y-39814721D01*
X95407800Y-39762591D01*
X95407800Y-39590000D01*
X92907800Y-39590000D01*
X92907800Y-39777690D01*
X92888115Y-39844729D01*
X92835311Y-39890484D01*
X92784480Y-39901688D01*
X92781169Y-39901706D01*
X92781168Y-39901706D01*
X92767969Y-39901778D01*
X92707680Y-39902109D01*
X92640533Y-39882792D01*
X92594490Y-39830240D01*
X92583000Y-39778111D01*
X92583000Y-38792155D01*
X92907800Y-38792155D01*
X92907800Y-39090000D01*
X93907800Y-39090000D01*
X94407800Y-39090000D01*
X95407800Y-39090000D01*
X95407800Y-38792172D01*
X95407799Y-38792155D01*
X95401398Y-38732627D01*
X95401396Y-38732620D01*
X95351154Y-38597913D01*
X95351150Y-38597906D01*
X95264990Y-38482812D01*
X95264987Y-38482809D01*
X95149893Y-38396649D01*
X95149886Y-38396645D01*
X95015179Y-38346403D01*
X95015172Y-38346401D01*
X94955644Y-38340000D01*
X94407800Y-38340000D01*
X94407800Y-39090000D01*
X93907800Y-39090000D01*
X93907800Y-38340000D01*
X93359955Y-38340000D01*
X93300427Y-38346401D01*
X93300420Y-38346403D01*
X93165713Y-38396645D01*
X93165706Y-38396649D01*
X93050612Y-38482809D01*
X93050609Y-38482812D01*
X92964449Y-38597906D01*
X92964445Y-38597913D01*
X92914203Y-38732620D01*
X92914201Y-38732627D01*
X92907800Y-38792155D01*
X92583000Y-38792155D01*
X92583000Y-29540738D01*
X92585382Y-29516548D01*
X92600134Y-29442382D01*
X92602854Y-29428701D01*
X92609910Y-29405443D01*
X92676980Y-29243516D01*
X92688435Y-29222084D01*
X92785812Y-29076346D01*
X92801212Y-29057579D01*
X92925162Y-28933627D01*
X92943935Y-28918220D01*
X93089669Y-28820843D01*
X93111096Y-28809389D01*
X93273038Y-28742309D01*
X93296267Y-28735262D01*
X93469581Y-28700788D01*
X93490944Y-28698440D01*
X93578607Y-28696449D01*
X93581388Y-28696418D01*
X100122736Y-28698157D01*
G37*
%TD.AperFunction*%
%TA.AperFunction,Conductor*%
G36*
X110613000Y-32708988D02*
G01*
X110555993Y-32676075D01*
X110428826Y-32642000D01*
X110297174Y-32642000D01*
X110170007Y-32676075D01*
X110113000Y-32708988D01*
X110113000Y-31035012D01*
X110170007Y-31067925D01*
X110297174Y-31102000D01*
X110428826Y-31102000D01*
X110555993Y-31067925D01*
X110613000Y-31035012D01*
X110613000Y-32708988D01*
G37*
%TD.AperFunction*%
%TD*%
M02*
