%TF.GenerationSoftware,KiCad,Pcbnew,8.0.5*%
%TF.CreationDate,2024-09-20T16:42:47+02:00*%
%TF.ProjectId,AnalogI2SMic,416e616c-6f67-4493-9253-4d69632e6b69,rev?*%
%TF.SameCoordinates,Original*%
%TF.FileFunction,Soldermask,Bot*%
%TF.FilePolarity,Negative*%
%FSLAX46Y46*%
G04 Gerber Fmt 4.6, Leading zero omitted, Abs format (unit mm)*
G04 Created by KiCad (PCBNEW 8.0.5) date 2024-09-20 16:42:47*
%MOMM*%
%LPD*%
G01*
G04 APERTURE LIST*
%ADD10C,0.160000*%
%ADD11C,0.130000*%
%ADD12O,1.200000X2.200000*%
%ADD13O,2.200000X1.200000*%
%ADD14R,1.500000X1.500000*%
%ADD15C,1.500000*%
%ADD16R,1.700000X1.700000*%
%ADD17O,1.700000X1.700000*%
%ADD18R,1.500000X1.000000*%
G04 APERTURE END LIST*
D10*
G36*
X93760378Y-29651183D02*
G01*
X93760378Y-29532970D01*
X92891460Y-29827624D01*
X92891460Y-29945838D01*
X93760378Y-29651183D01*
G37*
G36*
X93760378Y-29933333D02*
G01*
X93760378Y-29815119D01*
X92891460Y-30109774D01*
X92891460Y-30227987D01*
X93760378Y-29933333D01*
G37*
G36*
X93920211Y-30460311D02*
G01*
X93640015Y-30460311D01*
X93667371Y-30490219D01*
X93686910Y-30524449D01*
X93698634Y-30563003D01*
X93702542Y-30605880D01*
X93701250Y-30631721D01*
X93692775Y-30673651D01*
X93676390Y-30711393D01*
X93652095Y-30744946D01*
X93619890Y-30774310D01*
X93598372Y-30788964D01*
X93562890Y-30807283D01*
X93523560Y-30821204D01*
X93480384Y-30830730D01*
X93441466Y-30835309D01*
X93399876Y-30836836D01*
X93391474Y-30836836D01*
X93373860Y-30836597D01*
X93331930Y-30833909D01*
X93285580Y-30826742D01*
X93243558Y-30815275D01*
X93205864Y-30799508D01*
X93167357Y-30775678D01*
X93143940Y-30755434D01*
X93117824Y-30723086D01*
X93099488Y-30686063D01*
X93088930Y-30644365D01*
X93086073Y-30604903D01*
X93090154Y-30563089D01*
X93215228Y-30563089D01*
X93216815Y-30583177D01*
X93231140Y-30620244D01*
X93260364Y-30648476D01*
X93269124Y-30653749D01*
X93306943Y-30668645D01*
X93349098Y-30676136D01*
X93388152Y-30677980D01*
X93421465Y-30676981D01*
X93469705Y-30670873D01*
X93508843Y-30659212D01*
X93543794Y-30637890D01*
X93568005Y-30602908D01*
X93574558Y-30564261D01*
X93568815Y-30521953D01*
X93549229Y-30485730D01*
X93515745Y-30460311D01*
X93272283Y-30460311D01*
X93239800Y-30485062D01*
X93220800Y-30520896D01*
X93215228Y-30563089D01*
X93090154Y-30563089D01*
X93090396Y-30560609D01*
X93103365Y-30520737D01*
X93124981Y-30485285D01*
X93155242Y-30454254D01*
X93097015Y-30448783D01*
X93097015Y-30301456D01*
X93920211Y-30301456D01*
X93920211Y-30460311D01*
G37*
G36*
X93691600Y-31099055D02*
G01*
X93691600Y-30939613D01*
X93097015Y-30939613D01*
X93097015Y-31099055D01*
X93691600Y-31099055D01*
G37*
G36*
X92943044Y-30930430D02*
G01*
X92903477Y-30939742D01*
X92884426Y-30954268D01*
X92865011Y-30988706D01*
X92861174Y-31019334D01*
X92867736Y-31057884D01*
X92884426Y-31084205D01*
X92918131Y-31105027D01*
X92943044Y-31108434D01*
X92981518Y-31099823D01*
X93002444Y-31084010D01*
X93021695Y-31049426D01*
X93025500Y-31019334D01*
X93018205Y-30979217D01*
X93002444Y-30954854D01*
X92968433Y-30933864D01*
X92943044Y-30930430D01*
G37*
G36*
X93433224Y-31207829D02*
G01*
X93472074Y-31212237D01*
X93515268Y-31222816D01*
X93554726Y-31239165D01*
X93590446Y-31261284D01*
X93622430Y-31289174D01*
X93636747Y-31304990D01*
X93661156Y-31339200D01*
X93679932Y-31376844D01*
X93693075Y-31417922D01*
X93700586Y-31462435D01*
X93702542Y-31502153D01*
X93702294Y-31515959D01*
X93698585Y-31555972D01*
X93689243Y-31597967D01*
X93674405Y-31637366D01*
X93654522Y-31673007D01*
X93627626Y-31706525D01*
X93595466Y-31734086D01*
X93508124Y-31655929D01*
X93537189Y-31627621D01*
X93557950Y-31594282D01*
X93570406Y-31555911D01*
X93574558Y-31512509D01*
X93572875Y-31487580D01*
X93562159Y-31449368D01*
X93539387Y-31414421D01*
X93522897Y-31398982D01*
X93486417Y-31378197D01*
X93445989Y-31368113D01*
X93445989Y-31746592D01*
X93381118Y-31746592D01*
X93355197Y-31745975D01*
X93314513Y-31742208D01*
X93269849Y-31733165D01*
X93229718Y-31719191D01*
X93194121Y-31700284D01*
X93163058Y-31676445D01*
X93136895Y-31648386D01*
X93113213Y-31611032D01*
X93096899Y-31568704D01*
X93088779Y-31528463D01*
X93086073Y-31484568D01*
X93086095Y-31483982D01*
X93214642Y-31483982D01*
X93214755Y-31490217D01*
X93221872Y-31528776D01*
X93243560Y-31561944D01*
X93249157Y-31566878D01*
X93286142Y-31585361D01*
X93325040Y-31590667D01*
X93337740Y-31590667D01*
X93337740Y-31369676D01*
X93319851Y-31372756D01*
X93279633Y-31385585D01*
X93246491Y-31407192D01*
X93244532Y-31409053D01*
X93221640Y-31443559D01*
X93214642Y-31483982D01*
X93086095Y-31483982D01*
X93087008Y-31459601D01*
X93093403Y-31416848D01*
X93105857Y-31376908D01*
X93124370Y-31339781D01*
X93137069Y-31320642D01*
X93163917Y-31289751D01*
X93195898Y-31263434D01*
X93233009Y-31241693D01*
X93269475Y-31226562D01*
X93308334Y-31215754D01*
X93349586Y-31209270D01*
X93393232Y-31207108D01*
X93408669Y-31207108D01*
X93433224Y-31207829D01*
G37*
G36*
X93245905Y-32167471D02*
G01*
X93242114Y-32128265D01*
X93241606Y-32110416D01*
X93245417Y-32069175D01*
X93258812Y-32032093D01*
X93285007Y-32002456D01*
X93302569Y-31992202D01*
X93691600Y-31992202D01*
X93691600Y-31833347D01*
X93097015Y-31833347D01*
X93097015Y-31983410D01*
X93167943Y-31987904D01*
X93136042Y-32010529D01*
X93109179Y-32040714D01*
X93091190Y-32080191D01*
X93086073Y-32120186D01*
X93090366Y-32159374D01*
X93093107Y-32169620D01*
X93245905Y-32167471D01*
G37*
G36*
X93097015Y-32387485D02*
G01*
X93165598Y-32392565D01*
X93134611Y-32422509D01*
X93111235Y-32456604D01*
X93095470Y-32494851D01*
X93087315Y-32537249D01*
X93086073Y-32563340D01*
X93088728Y-32602396D01*
X93098266Y-32641352D01*
X93117287Y-32677939D01*
X93141565Y-32704024D01*
X93177122Y-32726486D01*
X93216021Y-32740433D01*
X93255687Y-32747987D01*
X93300608Y-32751204D01*
X93307454Y-32751309D01*
X93691600Y-32751309D01*
X93691600Y-32592454D01*
X93311362Y-32592454D01*
X93272429Y-32588227D01*
X93238089Y-32570374D01*
X93219001Y-32534123D01*
X93215228Y-32497492D01*
X93221970Y-32455364D01*
X93242196Y-32421132D01*
X93272283Y-32396864D01*
X93691600Y-32396864D01*
X93691600Y-32238008D01*
X93097015Y-32238008D01*
X93097015Y-32387485D01*
G37*
G36*
X93422009Y-32844208D02*
G01*
X93463098Y-32848322D01*
X93508589Y-32858196D01*
X93549917Y-32873455D01*
X93587083Y-32894100D01*
X93620085Y-32920130D01*
X93630070Y-32929907D01*
X93656160Y-32961675D01*
X93676452Y-32997098D01*
X93690946Y-33036176D01*
X93699643Y-33078907D01*
X93702542Y-33125294D01*
X93702219Y-33141184D01*
X93697376Y-33186391D01*
X93686722Y-33227902D01*
X93670256Y-33265718D01*
X93647978Y-33299838D01*
X93619890Y-33330262D01*
X93598378Y-33348168D01*
X93562928Y-33370551D01*
X93523658Y-33387562D01*
X93480569Y-33399201D01*
X93441744Y-33404796D01*
X93400267Y-33406661D01*
X93359625Y-33405684D01*
X93344029Y-33404322D01*
X93299724Y-33397075D01*
X93259142Y-33385088D01*
X93222284Y-33368361D01*
X93189148Y-33346894D01*
X93159736Y-33320688D01*
X93131033Y-33285312D01*
X93109380Y-33245691D01*
X93096432Y-33208352D01*
X93088662Y-33167893D01*
X93086073Y-33124317D01*
X93214642Y-33124317D01*
X93216830Y-33148785D01*
X93232502Y-33187530D01*
X93260364Y-33215566D01*
X93269229Y-33221362D01*
X93307344Y-33237739D01*
X93349647Y-33245974D01*
X93388738Y-33248001D01*
X93412238Y-33247495D01*
X93454272Y-33243440D01*
X93493648Y-33234033D01*
X93530399Y-33215566D01*
X93547606Y-33200160D01*
X93568348Y-33165099D01*
X93574558Y-33125294D01*
X93572985Y-33104047D01*
X93558784Y-33064563D01*
X93529813Y-33034045D01*
X93517958Y-33026580D01*
X93478966Y-33011184D01*
X93440090Y-33004186D01*
X93400267Y-33002195D01*
X93377302Y-33002693D01*
X93336025Y-33006674D01*
X93297003Y-33015912D01*
X93259974Y-33034045D01*
X93242310Y-33049317D01*
X93221017Y-33084328D01*
X93214642Y-33124317D01*
X93086073Y-33124317D01*
X93087405Y-33093311D01*
X93093328Y-33054214D01*
X93105655Y-33013295D01*
X93123979Y-32975622D01*
X93136588Y-32956328D01*
X93163131Y-32925303D01*
X93194620Y-32899038D01*
X93231055Y-32877534D01*
X93266849Y-32862659D01*
X93305061Y-32852035D01*
X93345691Y-32845660D01*
X93388738Y-32843535D01*
X93395968Y-32843535D01*
X93422009Y-32844208D01*
G37*
G36*
X93497573Y-33715189D02*
G01*
X93097015Y-33825782D01*
X93097015Y-33991672D01*
X93691600Y-33791002D01*
X93691600Y-33639376D01*
X93097015Y-33438902D01*
X93097015Y-33604791D01*
X93497573Y-33715189D01*
G37*
D11*
G36*
X94707700Y-29101580D02*
G01*
X94573708Y-29146191D01*
X94573708Y-29381153D01*
X94707700Y-29426240D01*
X94707700Y-29568646D01*
X94057586Y-29325270D01*
X94057586Y-29263196D01*
X94221900Y-29263196D01*
X94465276Y-29344956D01*
X94465276Y-29182388D01*
X94221900Y-29263196D01*
X94057586Y-29263196D01*
X94057586Y-29201122D01*
X94707700Y-28959175D01*
X94707700Y-29101580D01*
G37*
G36*
X94224599Y-29714862D02*
G01*
X94280323Y-29718990D01*
X94255146Y-29743319D01*
X94236153Y-29771021D01*
X94223344Y-29802097D01*
X94216719Y-29836545D01*
X94215709Y-29857744D01*
X94217866Y-29889477D01*
X94225616Y-29921129D01*
X94241070Y-29950856D01*
X94260796Y-29972050D01*
X94289687Y-29990301D01*
X94321292Y-30001632D01*
X94353521Y-30007770D01*
X94390019Y-30010384D01*
X94395582Y-30010469D01*
X94707700Y-30010469D01*
X94707700Y-29881399D01*
X94398757Y-29881399D01*
X94367124Y-29877965D01*
X94339223Y-29863459D01*
X94323713Y-29834005D01*
X94320648Y-29804243D01*
X94326126Y-29770013D01*
X94342559Y-29742200D01*
X94367005Y-29722482D01*
X94707700Y-29722482D01*
X94707700Y-29593412D01*
X94224599Y-29593412D01*
X94224599Y-29714862D01*
G37*
G36*
X94590985Y-30087336D02*
G01*
X94622591Y-30095130D01*
X94650806Y-30110309D01*
X94675630Y-30132871D01*
X94691590Y-30154454D01*
X94706350Y-30185619D01*
X94714030Y-30216547D01*
X94716590Y-30250511D01*
X94713325Y-30286291D01*
X94703532Y-30318539D01*
X94687210Y-30347254D01*
X94664359Y-30372437D01*
X94676771Y-30374739D01*
X94707700Y-30385455D01*
X94707700Y-30515795D01*
X94700079Y-30515795D01*
X94693176Y-30512443D01*
X94662829Y-30502898D01*
X94628370Y-30497965D01*
X94596093Y-30496586D01*
X94386691Y-30496586D01*
X94381647Y-30496534D01*
X94348331Y-30493301D01*
X94314536Y-30483448D01*
X94285304Y-30467027D01*
X94260637Y-30444037D01*
X94250107Y-30430364D01*
X94233259Y-30399565D01*
X94223124Y-30368839D01*
X94217288Y-30334588D01*
X94215709Y-30302425D01*
X94215888Y-30291455D01*
X94218567Y-30259783D01*
X94225314Y-30226773D01*
X94236030Y-30196057D01*
X94248679Y-30171141D01*
X94267447Y-30145292D01*
X94292071Y-30122870D01*
X94305684Y-30114075D01*
X94336672Y-30101263D01*
X94369704Y-30096992D01*
X94369704Y-30226062D01*
X94355274Y-30227519D01*
X94326839Y-30244478D01*
X94316095Y-30263405D01*
X94311122Y-30295598D01*
X94314450Y-30322481D01*
X94331285Y-30349893D01*
X94353117Y-30362200D01*
X94384945Y-30367039D01*
X94412569Y-30367039D01*
X94412569Y-30318936D01*
X94487979Y-30318936D01*
X94487979Y-30367039D01*
X94571009Y-30367039D01*
X94585878Y-30356584D01*
X94605301Y-30331319D01*
X94613524Y-30310979D01*
X94618001Y-30278611D01*
X94616482Y-30261464D01*
X94602443Y-30232254D01*
X94594059Y-30224822D01*
X94562595Y-30215267D01*
X94554974Y-30215743D01*
X94550853Y-30216219D01*
X94519645Y-30228481D01*
X94499036Y-30255109D01*
X94490334Y-30285753D01*
X94487979Y-30318936D01*
X94412569Y-30318936D01*
X94412569Y-30307664D01*
X94413710Y-30275263D01*
X94417699Y-30239647D01*
X94424545Y-30207592D01*
X94436144Y-30174694D01*
X94454163Y-30143032D01*
X94456758Y-30139535D01*
X94480041Y-30115558D01*
X94507809Y-30098685D01*
X94540061Y-30088916D01*
X94571962Y-30086197D01*
X94590985Y-30087336D01*
G37*
G36*
X94707700Y-30729325D02*
G01*
X94707700Y-30599778D01*
X94021866Y-30599778D01*
X94021866Y-30729325D01*
X94707700Y-30729325D01*
G37*
G36*
X94488657Y-30814966D02*
G01*
X94522042Y-30818308D01*
X94559004Y-30826331D01*
X94592583Y-30838729D01*
X94622780Y-30855502D01*
X94649594Y-30876652D01*
X94657707Y-30884596D01*
X94678905Y-30910408D01*
X94695392Y-30939189D01*
X94707169Y-30970939D01*
X94714235Y-31005659D01*
X94716590Y-31043348D01*
X94716328Y-31056259D01*
X94712393Y-31092989D01*
X94703736Y-31126717D01*
X94690358Y-31157443D01*
X94672257Y-31185165D01*
X94649435Y-31209885D01*
X94631957Y-31224433D01*
X94603154Y-31242619D01*
X94571247Y-31256440D01*
X94536237Y-31265897D01*
X94504692Y-31270444D01*
X94470992Y-31271959D01*
X94437970Y-31271165D01*
X94425298Y-31270058D01*
X94389301Y-31264170D01*
X94356328Y-31254431D01*
X94326381Y-31240840D01*
X94299458Y-31223398D01*
X94275561Y-31202106D01*
X94252240Y-31173362D01*
X94234646Y-31141170D01*
X94224126Y-31110832D01*
X94217813Y-31077960D01*
X94215709Y-31042554D01*
X94320172Y-31042554D01*
X94321949Y-31062435D01*
X94334683Y-31093915D01*
X94357321Y-31116694D01*
X94364523Y-31121404D01*
X94395492Y-31134709D01*
X94429863Y-31141401D01*
X94461625Y-31143048D01*
X94480718Y-31142636D01*
X94514871Y-31139342D01*
X94546864Y-31131698D01*
X94576724Y-31116694D01*
X94590705Y-31104176D01*
X94607558Y-31075690D01*
X94612604Y-31043348D01*
X94611325Y-31026085D01*
X94599787Y-30994004D01*
X94576248Y-30969208D01*
X94566616Y-30963143D01*
X94534935Y-30950634D01*
X94503348Y-30944948D01*
X94470992Y-30943330D01*
X94452333Y-30943735D01*
X94418795Y-30946969D01*
X94387090Y-30954475D01*
X94357003Y-30969208D01*
X94342652Y-30981617D01*
X94325351Y-31010063D01*
X94320172Y-31042554D01*
X94215709Y-31042554D01*
X94216792Y-31017362D01*
X94221604Y-30985595D01*
X94231620Y-30952349D01*
X94246508Y-30921739D01*
X94256753Y-30906063D01*
X94278319Y-30880855D01*
X94303904Y-30859515D01*
X94333507Y-30842043D01*
X94362590Y-30829957D01*
X94393637Y-30821325D01*
X94426648Y-30816145D01*
X94461625Y-30814419D01*
X94467499Y-30814419D01*
X94488657Y-30814966D01*
G37*
G36*
X94488661Y-31330537D02*
G01*
X94521407Y-31333428D01*
X94557848Y-31340366D01*
X94591174Y-31351087D01*
X94621385Y-31365593D01*
X94648483Y-31383883D01*
X94664445Y-31397856D01*
X94687259Y-31424805D01*
X94703554Y-31454928D01*
X94713331Y-31488227D01*
X94716590Y-31524702D01*
X94713435Y-31559370D01*
X94703969Y-31590507D01*
X94688192Y-31618111D01*
X94666105Y-31642182D01*
X94692141Y-31642182D01*
X94713065Y-31640815D01*
X94743844Y-31632108D01*
X94769933Y-31613606D01*
X94781949Y-31597899D01*
X94794152Y-31566322D01*
X94797398Y-31533751D01*
X94794024Y-31500600D01*
X94783903Y-31470049D01*
X94767035Y-31442098D01*
X94743420Y-31416746D01*
X94822005Y-31359593D01*
X94843572Y-31380273D01*
X94862212Y-31406731D01*
X94876618Y-31435797D01*
X94879194Y-31442118D01*
X94889581Y-31474040D01*
X94895814Y-31506490D01*
X94897891Y-31539466D01*
X94897026Y-31565149D01*
X94893181Y-31597432D01*
X94885179Y-31631069D01*
X94873284Y-31661868D01*
X94870140Y-31668305D01*
X94851777Y-31697738D01*
X94829012Y-31722581D01*
X94801843Y-31742835D01*
X94789877Y-31749607D01*
X94757703Y-31762587D01*
X94725990Y-31769443D01*
X94691665Y-31771729D01*
X94224599Y-31771729D01*
X94224599Y-31654724D01*
X94270163Y-31649326D01*
X94266813Y-31646533D01*
X94243840Y-31621700D01*
X94227674Y-31592442D01*
X94218315Y-31558758D01*
X94218309Y-31558676D01*
X94320648Y-31558676D01*
X94324958Y-31591593D01*
X94339655Y-31620640D01*
X94364783Y-31642182D01*
X94567993Y-31642182D01*
X94593120Y-31620742D01*
X94607817Y-31591348D01*
X94612127Y-31557723D01*
X94610342Y-31538585D01*
X94597554Y-31508000D01*
X94574819Y-31485488D01*
X94570045Y-31482297D01*
X94539843Y-31468425D01*
X94506590Y-31461219D01*
X94471944Y-31459135D01*
X94453677Y-31459549D01*
X94420655Y-31462863D01*
X94389104Y-31470553D01*
X94358591Y-31485647D01*
X94343807Y-31498258D01*
X94325984Y-31526676D01*
X94320648Y-31558676D01*
X94218309Y-31558676D01*
X94215709Y-31525654D01*
X94216771Y-31503803D01*
X94223738Y-31468320D01*
X94237208Y-31436347D01*
X94257181Y-31407884D01*
X94283657Y-31382931D01*
X94301282Y-31370540D01*
X94330258Y-31355052D01*
X94362282Y-31343281D01*
X94397353Y-31335227D01*
X94428907Y-31331355D01*
X94462577Y-31330064D01*
X94467975Y-31330064D01*
X94488661Y-31330537D01*
G37*
G36*
X94707700Y-32019232D02*
G01*
X94707700Y-31885241D01*
X94057586Y-31885241D01*
X94057586Y-32019232D01*
X94707700Y-32019232D01*
G37*
G36*
X94707700Y-32573297D02*
G01*
X94707700Y-32127664D01*
X94619271Y-32127664D01*
X94395105Y-32338018D01*
X94369448Y-32360614D01*
X94343178Y-32381538D01*
X94314766Y-32400834D01*
X94312551Y-32402156D01*
X94282381Y-32416373D01*
X94249538Y-32422872D01*
X94245555Y-32422953D01*
X94213406Y-32419338D01*
X94183930Y-32406180D01*
X94177448Y-32401045D01*
X94158874Y-32374453D01*
X94152706Y-32341016D01*
X94152682Y-32338494D01*
X94157660Y-32305958D01*
X94174156Y-32277776D01*
X94182846Y-32269435D01*
X94210472Y-32253194D01*
X94241508Y-32245551D01*
X94262066Y-32244351D01*
X94262066Y-32114804D01*
X94229484Y-32117040D01*
X94195196Y-32124767D01*
X94162923Y-32138013D01*
X94153635Y-32143063D01*
X94124968Y-32163103D01*
X94100488Y-32187702D01*
X94082035Y-32213737D01*
X94076637Y-32223236D01*
X94063130Y-32253518D01*
X94054044Y-32285959D01*
X94049378Y-32320561D01*
X94048696Y-32340717D01*
X94050392Y-32376823D01*
X94055483Y-32409769D01*
X94065710Y-32444214D01*
X94080556Y-32474359D01*
X94096958Y-32496776D01*
X94123500Y-32521086D01*
X94155024Y-32538450D01*
X94186693Y-32547946D01*
X94222175Y-32552124D01*
X94233014Y-32552341D01*
X94266400Y-32549377D01*
X94300200Y-32540485D01*
X94331285Y-32527257D01*
X94360721Y-32510411D01*
X94389079Y-32490693D01*
X94415585Y-32469777D01*
X94443672Y-32445442D01*
X94447813Y-32441687D01*
X94603713Y-32293883D01*
X94603713Y-32573297D01*
X94707700Y-32573297D01*
G37*
G36*
X94537194Y-33000673D02*
G01*
X94505494Y-32994778D01*
X94480217Y-32975494D01*
X94478929Y-32973843D01*
X94462052Y-32945072D01*
X94448570Y-32913277D01*
X94437472Y-32881791D01*
X94436065Y-32877477D01*
X94424833Y-32844446D01*
X94412291Y-32811626D01*
X94398475Y-32780550D01*
X94391613Y-32767140D01*
X94371893Y-32735263D01*
X94350143Y-32708788D01*
X94326362Y-32687716D01*
X94295144Y-32669562D01*
X94261001Y-32659188D01*
X94230315Y-32656486D01*
X94198572Y-32659385D01*
X94166199Y-32669272D01*
X94136489Y-32686174D01*
X94112374Y-32707256D01*
X94091826Y-32733392D01*
X94076381Y-32761236D01*
X94071874Y-32771427D01*
X94060670Y-32803762D01*
X94053132Y-32838258D01*
X94049511Y-32870734D01*
X94048696Y-32896211D01*
X94050273Y-32930105D01*
X94055006Y-32962095D01*
X94064102Y-32995806D01*
X94073938Y-33020359D01*
X94089782Y-33049068D01*
X94111245Y-33076460D01*
X94136771Y-33099108D01*
X94145220Y-33104977D01*
X94175121Y-33120884D01*
X94207471Y-33130899D01*
X94242270Y-33135023D01*
X94249524Y-33135141D01*
X94249524Y-33001150D01*
X94216553Y-32996512D01*
X94188371Y-32981145D01*
X94180147Y-32973049D01*
X94163217Y-32944086D01*
X94156252Y-32912295D01*
X94155381Y-32893988D01*
X94158306Y-32860254D01*
X94169110Y-32828630D01*
X94176178Y-32817625D01*
X94201870Y-32796319D01*
X94230791Y-32790319D01*
X94261615Y-32799325D01*
X94283975Y-32822229D01*
X94299669Y-32850501D01*
X94312169Y-32880507D01*
X94322967Y-32912522D01*
X94324141Y-32916373D01*
X94335309Y-32950578D01*
X94347284Y-32981752D01*
X94362719Y-33015160D01*
X94379314Y-33044203D01*
X94400142Y-33072571D01*
X94409552Y-33082910D01*
X94436521Y-33105761D01*
X94466626Y-33122083D01*
X94499866Y-33131877D01*
X94531523Y-33135090D01*
X94536241Y-33135141D01*
X94571445Y-33132080D01*
X94603154Y-33122895D01*
X94631368Y-33107588D01*
X94656088Y-33086157D01*
X94668645Y-33071162D01*
X94687327Y-33041128D01*
X94701420Y-33006871D01*
X94709848Y-32974146D01*
X94714904Y-32938317D01*
X94716543Y-32906090D01*
X94716590Y-32899386D01*
X94715276Y-32867179D01*
X94710555Y-32831952D01*
X94702401Y-32798412D01*
X94690815Y-32766558D01*
X94689125Y-32762695D01*
X94674122Y-32733722D01*
X94654208Y-32705492D01*
X94631079Y-32681883D01*
X94613874Y-32668711D01*
X94585801Y-32653055D01*
X94555342Y-32642523D01*
X94522497Y-32637115D01*
X94503219Y-32636324D01*
X94503219Y-32770792D01*
X94539799Y-32775313D01*
X94568811Y-32788875D01*
X94593093Y-32816126D01*
X94605707Y-32849279D01*
X94610437Y-32883814D01*
X94610857Y-32899386D01*
X94608134Y-32932256D01*
X94598071Y-32963099D01*
X94591489Y-32973843D01*
X94566440Y-32994778D01*
X94537194Y-33000673D01*
G37*
G36*
X94057586Y-33398044D02*
G01*
X94529097Y-33565057D01*
X94057586Y-33731118D01*
X94057586Y-33907022D01*
X94707700Y-33907022D01*
X94707700Y-33772713D01*
X94530049Y-33772713D01*
X94223171Y-33786048D01*
X94707700Y-33610621D01*
X94707700Y-33518700D01*
X94223647Y-33343590D01*
X94530049Y-33356926D01*
X94707700Y-33356926D01*
X94707700Y-33223093D01*
X94057586Y-33223093D01*
X94057586Y-33398044D01*
G37*
G36*
X94707700Y-34147699D02*
G01*
X94707700Y-34018152D01*
X94224599Y-34018152D01*
X94224599Y-34147699D01*
X94707700Y-34147699D01*
G37*
G36*
X94099498Y-34010691D02*
G01*
X94067350Y-34018257D01*
X94051871Y-34030059D01*
X94036097Y-34058040D01*
X94032979Y-34082926D01*
X94038311Y-34114247D01*
X94051871Y-34135633D01*
X94079257Y-34152551D01*
X94099498Y-34155319D01*
X94130758Y-34148323D01*
X94147761Y-34135474D01*
X94163402Y-34107375D01*
X94166494Y-34082926D01*
X94160567Y-34050331D01*
X94147761Y-34030535D01*
X94120127Y-34013481D01*
X94099498Y-34010691D01*
G37*
G36*
X94612604Y-34453784D02*
G01*
X94607682Y-34486131D01*
X94592918Y-34511730D01*
X94566702Y-34530132D01*
X94540686Y-34535068D01*
X94540686Y-34656041D01*
X94573456Y-34652656D01*
X94604312Y-34643155D01*
X94630702Y-34629211D01*
X94656595Y-34608804D01*
X94678174Y-34583820D01*
X94694046Y-34557135D01*
X94705935Y-34527613D01*
X94713420Y-34496200D01*
X94716502Y-34462894D01*
X94716590Y-34456006D01*
X94714279Y-34418671D01*
X94707347Y-34384417D01*
X94695794Y-34353243D01*
X94679619Y-34325150D01*
X94658823Y-34300139D01*
X94650864Y-34292486D01*
X94624388Y-34272200D01*
X94594374Y-34256110D01*
X94560821Y-34244219D01*
X94523729Y-34236524D01*
X94490116Y-34233318D01*
X94468769Y-34232793D01*
X94460355Y-34232793D01*
X94426578Y-34234243D01*
X94395004Y-34238591D01*
X94360020Y-34247637D01*
X94328206Y-34260857D01*
X94299563Y-34278252D01*
X94282228Y-34292168D01*
X94259622Y-34315986D01*
X94241693Y-34342906D01*
X94228441Y-34372930D01*
X94219866Y-34406057D01*
X94215969Y-34442288D01*
X94215709Y-34455054D01*
X94217523Y-34487781D01*
X94224224Y-34522760D01*
X94235864Y-34554290D01*
X94252441Y-34582371D01*
X94267305Y-34600317D01*
X94291450Y-34621705D01*
X94318877Y-34637941D01*
X94349585Y-34649027D01*
X94383576Y-34654962D01*
X94404472Y-34656041D01*
X94404472Y-34535068D01*
X94372451Y-34529466D01*
X94345140Y-34513109D01*
X94343668Y-34511730D01*
X94325334Y-34484038D01*
X94320172Y-34452831D01*
X94325595Y-34419840D01*
X94343567Y-34392457D01*
X94353034Y-34384724D01*
X94383322Y-34370696D01*
X94417362Y-34363952D01*
X94450354Y-34361794D01*
X94459402Y-34361704D01*
X94472897Y-34361704D01*
X94507516Y-34363123D01*
X94540224Y-34368112D01*
X94571230Y-34379086D01*
X94580058Y-34384407D01*
X94602306Y-34408938D01*
X94611809Y-34439825D01*
X94612604Y-34453784D01*
G37*
G36*
X95566053Y-31167557D02*
G01*
X95240599Y-31257414D01*
X95240599Y-31392200D01*
X95723700Y-31229155D01*
X95723700Y-31105959D01*
X95240599Y-30943074D01*
X95240599Y-31077859D01*
X95566053Y-31167557D01*
G37*
G36*
X95500990Y-31441134D02*
G01*
X95537428Y-31445592D01*
X95570905Y-31452725D01*
X95601421Y-31462532D01*
X95634132Y-31477830D01*
X95662578Y-31496980D01*
X95675090Y-31507958D01*
X95696422Y-31532561D01*
X95712831Y-31560691D01*
X95724317Y-31592348D01*
X95730881Y-31627533D01*
X95732590Y-31659548D01*
X95732311Y-31672800D01*
X95728125Y-31710122D01*
X95718916Y-31743794D01*
X95704683Y-31773816D01*
X95685428Y-31800188D01*
X95661149Y-31822910D01*
X95656622Y-31826348D01*
X95626862Y-31844684D01*
X95592649Y-31859091D01*
X95560735Y-31868096D01*
X95525729Y-31874372D01*
X95487629Y-31877919D01*
X95454922Y-31878792D01*
X95335219Y-31878792D01*
X95295827Y-31877009D01*
X95259412Y-31872551D01*
X95225974Y-31865418D01*
X95195512Y-31855611D01*
X95162887Y-31840313D01*
X95134549Y-31821163D01*
X95122066Y-31810185D01*
X95100782Y-31785582D01*
X95084410Y-31757452D01*
X95072950Y-31725795D01*
X95066401Y-31690610D01*
X95064696Y-31658595D01*
X95169158Y-31658595D01*
X95170453Y-31675287D01*
X95182143Y-31705479D01*
X95205990Y-31727496D01*
X95224208Y-31736156D01*
X95257535Y-31744839D01*
X95290381Y-31748659D01*
X95323630Y-31749722D01*
X95478101Y-31749722D01*
X95496579Y-31749171D01*
X95529859Y-31746195D01*
X95561439Y-31739857D01*
X95591613Y-31727814D01*
X95604184Y-31719029D01*
X95623402Y-31691324D01*
X95628604Y-31659548D01*
X95627247Y-31642543D01*
X95615003Y-31611981D01*
X95590025Y-31590012D01*
X95571133Y-31581599D01*
X95537397Y-31573165D01*
X95504693Y-31569454D01*
X95471910Y-31568421D01*
X95313787Y-31568421D01*
X95300145Y-31568837D01*
X95267178Y-31571695D01*
X95236020Y-31577946D01*
X95204244Y-31591282D01*
X95194136Y-31598660D01*
X95174949Y-31625505D01*
X95169158Y-31658595D01*
X95064696Y-31658595D01*
X95064971Y-31645513D01*
X95069101Y-31608596D01*
X95078188Y-31575174D01*
X95092230Y-31545245D01*
X95111229Y-31518810D01*
X95135184Y-31495868D01*
X95139654Y-31492391D01*
X95169168Y-31473846D01*
X95203303Y-31459275D01*
X95235280Y-31450168D01*
X95270465Y-31443821D01*
X95308860Y-31440234D01*
X95341887Y-31439351D01*
X95461590Y-31439351D01*
X95500990Y-31441134D01*
G37*
G36*
X95660355Y-31975158D02*
G01*
X95627867Y-31982490D01*
X95610346Y-31995956D01*
X95594307Y-32024346D01*
X95591137Y-32048028D01*
X95597215Y-32080232D01*
X95610346Y-32100418D01*
X95637244Y-32117783D01*
X95660355Y-32121216D01*
X95692390Y-32113940D01*
X95709729Y-32100577D01*
X95725503Y-32072172D01*
X95728621Y-32048028D01*
X95722643Y-32015824D01*
X95709729Y-31995638D01*
X95681512Y-31978038D01*
X95660355Y-31975158D01*
G37*
G36*
X95583040Y-32213454D02*
G01*
X95583040Y-32480008D01*
X95723700Y-32480008D01*
X95723700Y-32609078D01*
X95583040Y-32609078D01*
X95583040Y-32682742D01*
X95479054Y-32682742D01*
X95479054Y-32609078D01*
X95073586Y-32609078D01*
X95073586Y-32480008D01*
X95249490Y-32480008D01*
X95479054Y-32480008D01*
X95479054Y-32336332D01*
X95264254Y-32471594D01*
X95249490Y-32480008D01*
X95073586Y-32480008D01*
X95073586Y-32478738D01*
X95501756Y-32207739D01*
X95583040Y-32213454D01*
G37*
D12*
%TO.C,J2*%
X93827600Y-45611400D03*
X96327600Y-45611400D03*
D13*
X98827600Y-50611400D03*
D12*
X103827600Y-45611400D03*
X101327600Y-45611400D03*
%TD*%
D14*
%TO.C,MK1*%
X109006000Y-47988000D03*
D15*
X111546000Y-47988000D03*
%TD*%
D16*
%TO.C,J4*%
X97663000Y-30602000D03*
D17*
X97663000Y-33142000D03*
X100203000Y-30602000D03*
X100203000Y-33142000D03*
X102743000Y-30602000D03*
X102743000Y-33142000D03*
X105283000Y-30602000D03*
X105283000Y-33142000D03*
X107823000Y-30602000D03*
X107823000Y-33142000D03*
X110363000Y-30602000D03*
X110363000Y-33142000D03*
%TD*%
D18*
%TO.C,JP3*%
X94157800Y-39340000D03*
X94157800Y-40640000D03*
%TD*%
%TO.C,JP4*%
X114450000Y-39360000D03*
X114450000Y-40660000D03*
%TD*%
M02*
