%TF.GenerationSoftware,KiCad,Pcbnew,8.0.5*%
%TF.CreationDate,2024-09-20T16:42:47+02:00*%
%TF.ProjectId,AnalogI2SMic,416e616c-6f67-4493-9253-4d69632e6b69,rev?*%
%TF.SameCoordinates,Original*%
%TF.FileFunction,Soldermask,Top*%
%TF.FilePolarity,Negative*%
%FSLAX46Y46*%
G04 Gerber Fmt 4.6, Leading zero omitted, Abs format (unit mm)*
G04 Created by KiCad (PCBNEW 8.0.5) date 2024-09-20 16:42:47*
%MOMM*%
%LPD*%
G01*
G04 APERTURE LIST*
G04 Aperture macros list*
%AMRoundRect*
0 Rectangle with rounded corners*
0 $1 Rounding radius*
0 $2 $3 $4 $5 $6 $7 $8 $9 X,Y pos of 4 corners*
0 Add a 4 corners polygon primitive as box body*
4,1,4,$2,$3,$4,$5,$6,$7,$8,$9,$2,$3,0*
0 Add four circle primitives for the rounded corners*
1,1,$1+$1,$2,$3*
1,1,$1+$1,$4,$5*
1,1,$1+$1,$6,$7*
1,1,$1+$1,$8,$9*
0 Add four rect primitives between the rounded corners*
20,1,$1+$1,$2,$3,$4,$5,0*
20,1,$1+$1,$4,$5,$6,$7,0*
20,1,$1+$1,$6,$7,$8,$9,0*
20,1,$1+$1,$8,$9,$2,$3,0*%
G04 Aperture macros list end*
%ADD10C,0.130000*%
%ADD11C,0.160000*%
%ADD12RoundRect,0.140000X0.140000X0.170000X-0.140000X0.170000X-0.140000X-0.170000X0.140000X-0.170000X0*%
%ADD13RoundRect,0.140000X-0.170000X0.140000X-0.170000X-0.140000X0.170000X-0.140000X0.170000X0.140000X0*%
%ADD14RoundRect,0.135000X-0.185000X0.135000X-0.185000X-0.135000X0.185000X-0.135000X0.185000X0.135000X0*%
%ADD15RoundRect,0.140000X0.170000X-0.140000X0.170000X0.140000X-0.170000X0.140000X-0.170000X-0.140000X0*%
%ADD16C,0.500000*%
%ADD17RoundRect,0.135000X0.135000X0.185000X-0.135000X0.185000X-0.135000X-0.185000X0.135000X-0.185000X0*%
%ADD18RoundRect,0.135000X0.185000X-0.135000X0.185000X0.135000X-0.185000X0.135000X-0.185000X-0.135000X0*%
%ADD19O,1.200000X2.200000*%
%ADD20O,2.200000X1.200000*%
%ADD21R,1.500000X1.500000*%
%ADD22C,1.500000*%
%ADD23R,1.500000X1.000000*%
%ADD24RoundRect,0.218750X-0.256250X0.218750X-0.256250X-0.218750X0.256250X-0.218750X0.256250X0.218750X0*%
%ADD25RoundRect,0.062500X-0.375000X-0.062500X0.375000X-0.062500X0.375000X0.062500X-0.375000X0.062500X0*%
%ADD26RoundRect,0.062500X-0.062500X-0.375000X0.062500X-0.375000X0.062500X0.375000X-0.062500X0.375000X0*%
%ADD27R,2.500000X2.500000*%
%ADD28R,1.700000X1.700000*%
%ADD29O,1.700000X1.700000*%
G04 APERTURE END LIST*
D10*
G36*
X94707700Y-34251559D02*
G01*
X94573708Y-34296646D01*
X94573708Y-34531608D01*
X94707700Y-34576219D01*
X94707700Y-34718624D01*
X94057586Y-34476677D01*
X94057586Y-34414603D01*
X94221900Y-34414603D01*
X94465276Y-34495411D01*
X94465276Y-34332843D01*
X94221900Y-34414603D01*
X94057586Y-34414603D01*
X94057586Y-34352529D01*
X94707700Y-34109153D01*
X94707700Y-34251559D01*
G37*
G36*
X94224599Y-33962937D02*
G01*
X94280323Y-33958809D01*
X94255146Y-33934480D01*
X94236153Y-33906778D01*
X94223344Y-33875702D01*
X94216719Y-33841254D01*
X94215709Y-33820055D01*
X94217866Y-33788322D01*
X94225616Y-33756670D01*
X94241070Y-33726943D01*
X94260796Y-33705749D01*
X94289687Y-33687498D01*
X94321292Y-33676167D01*
X94353521Y-33670029D01*
X94390019Y-33667415D01*
X94395582Y-33667330D01*
X94707700Y-33667330D01*
X94707700Y-33796400D01*
X94398757Y-33796400D01*
X94367124Y-33799834D01*
X94339223Y-33814340D01*
X94323713Y-33843794D01*
X94320648Y-33873556D01*
X94326126Y-33907786D01*
X94342559Y-33935599D01*
X94367005Y-33955317D01*
X94707700Y-33955317D01*
X94707700Y-34084387D01*
X94224599Y-34084387D01*
X94224599Y-33962937D01*
G37*
G36*
X94707700Y-33292344D02*
G01*
X94676771Y-33303060D01*
X94664359Y-33305362D01*
X94687210Y-33330545D01*
X94703532Y-33359260D01*
X94713325Y-33391508D01*
X94716590Y-33427288D01*
X94714030Y-33461252D01*
X94706350Y-33492180D01*
X94691590Y-33523345D01*
X94675630Y-33544928D01*
X94650806Y-33567490D01*
X94622591Y-33582669D01*
X94590985Y-33590463D01*
X94571962Y-33591602D01*
X94540061Y-33588883D01*
X94507809Y-33579114D01*
X94480041Y-33562241D01*
X94456758Y-33538264D01*
X94454163Y-33534767D01*
X94436144Y-33503105D01*
X94424545Y-33470207D01*
X94417699Y-33438152D01*
X94413710Y-33402536D01*
X94412569Y-33370135D01*
X94412569Y-33358863D01*
X94487979Y-33358863D01*
X94490334Y-33392046D01*
X94499036Y-33422690D01*
X94519645Y-33449318D01*
X94550853Y-33461580D01*
X94554974Y-33462056D01*
X94562595Y-33462532D01*
X94594059Y-33452977D01*
X94602443Y-33445545D01*
X94616482Y-33416335D01*
X94618001Y-33399188D01*
X94613524Y-33366820D01*
X94605301Y-33346480D01*
X94585878Y-33321215D01*
X94571009Y-33310760D01*
X94487979Y-33310760D01*
X94487979Y-33358863D01*
X94412569Y-33358863D01*
X94412569Y-33310760D01*
X94384945Y-33310760D01*
X94353117Y-33315599D01*
X94331285Y-33327906D01*
X94314450Y-33355318D01*
X94311122Y-33382201D01*
X94316095Y-33414394D01*
X94326839Y-33433321D01*
X94355274Y-33450280D01*
X94369704Y-33451737D01*
X94369704Y-33580807D01*
X94336672Y-33576536D01*
X94305684Y-33563724D01*
X94292071Y-33554929D01*
X94267447Y-33532507D01*
X94248679Y-33506658D01*
X94236030Y-33481742D01*
X94225314Y-33451026D01*
X94218567Y-33418016D01*
X94215888Y-33386344D01*
X94215709Y-33375374D01*
X94217288Y-33343211D01*
X94223124Y-33308960D01*
X94233259Y-33278234D01*
X94250107Y-33247435D01*
X94260637Y-33233762D01*
X94285304Y-33210772D01*
X94314536Y-33194351D01*
X94348331Y-33184498D01*
X94381647Y-33181265D01*
X94386691Y-33181213D01*
X94596093Y-33181213D01*
X94628370Y-33179834D01*
X94662829Y-33174901D01*
X94693176Y-33165356D01*
X94700079Y-33162004D01*
X94707700Y-33162004D01*
X94707700Y-33292344D01*
G37*
G36*
X94707700Y-32948474D02*
G01*
X94707700Y-33078021D01*
X94021866Y-33078021D01*
X94021866Y-32948474D01*
X94707700Y-32948474D01*
G37*
G36*
X94504692Y-32407355D02*
G01*
X94536237Y-32411902D01*
X94571247Y-32421359D01*
X94603154Y-32435180D01*
X94631957Y-32453366D01*
X94649435Y-32467914D01*
X94672257Y-32492634D01*
X94690358Y-32520356D01*
X94703736Y-32551082D01*
X94712393Y-32584810D01*
X94716328Y-32621540D01*
X94716590Y-32634451D01*
X94714235Y-32672140D01*
X94707169Y-32706860D01*
X94695392Y-32738610D01*
X94678905Y-32767391D01*
X94657707Y-32793203D01*
X94649594Y-32801147D01*
X94622780Y-32822297D01*
X94592583Y-32839070D01*
X94559004Y-32851468D01*
X94522042Y-32859491D01*
X94488657Y-32862833D01*
X94467499Y-32863380D01*
X94461625Y-32863380D01*
X94426648Y-32861654D01*
X94393637Y-32856474D01*
X94362590Y-32847842D01*
X94333507Y-32835756D01*
X94303904Y-32818284D01*
X94278319Y-32796944D01*
X94256753Y-32771736D01*
X94246508Y-32756060D01*
X94231620Y-32725450D01*
X94221604Y-32692204D01*
X94216792Y-32660437D01*
X94215709Y-32635245D01*
X94320172Y-32635245D01*
X94325351Y-32667736D01*
X94342652Y-32696182D01*
X94357003Y-32708591D01*
X94387090Y-32723324D01*
X94418795Y-32730830D01*
X94452333Y-32734064D01*
X94470992Y-32734469D01*
X94503348Y-32732851D01*
X94534935Y-32727165D01*
X94566616Y-32714656D01*
X94576248Y-32708591D01*
X94599787Y-32683795D01*
X94611325Y-32651714D01*
X94612604Y-32634451D01*
X94607558Y-32602109D01*
X94590705Y-32573623D01*
X94576724Y-32561105D01*
X94546864Y-32546101D01*
X94514871Y-32538457D01*
X94480718Y-32535163D01*
X94461625Y-32534751D01*
X94429863Y-32536398D01*
X94395492Y-32543090D01*
X94364523Y-32556395D01*
X94357321Y-32561105D01*
X94334683Y-32583884D01*
X94321949Y-32615364D01*
X94320172Y-32635245D01*
X94215709Y-32635245D01*
X94217813Y-32599839D01*
X94224126Y-32566967D01*
X94234646Y-32536629D01*
X94252240Y-32504437D01*
X94275561Y-32475693D01*
X94299458Y-32454401D01*
X94326381Y-32436959D01*
X94356328Y-32423368D01*
X94389301Y-32413629D01*
X94425298Y-32407741D01*
X94437970Y-32406634D01*
X94470992Y-32405840D01*
X94504692Y-32407355D01*
G37*
G36*
X94725990Y-31908356D02*
G01*
X94757703Y-31915212D01*
X94789877Y-31928192D01*
X94801843Y-31934964D01*
X94829012Y-31955218D01*
X94851777Y-31980061D01*
X94870140Y-32009494D01*
X94873284Y-32015931D01*
X94885179Y-32046730D01*
X94893181Y-32080367D01*
X94897026Y-32112650D01*
X94897891Y-32138333D01*
X94895814Y-32171309D01*
X94889581Y-32203759D01*
X94879194Y-32235681D01*
X94876618Y-32242002D01*
X94862212Y-32271068D01*
X94843572Y-32297526D01*
X94822005Y-32318206D01*
X94743420Y-32261053D01*
X94767035Y-32235701D01*
X94783903Y-32207750D01*
X94794024Y-32177199D01*
X94797398Y-32144048D01*
X94794152Y-32111477D01*
X94781949Y-32079900D01*
X94769933Y-32064193D01*
X94743844Y-32045691D01*
X94713065Y-32036984D01*
X94692141Y-32035617D01*
X94666105Y-32035617D01*
X94688192Y-32059688D01*
X94703969Y-32087292D01*
X94713435Y-32118429D01*
X94716590Y-32153097D01*
X94713331Y-32189572D01*
X94703554Y-32222871D01*
X94687259Y-32252994D01*
X94664445Y-32279943D01*
X94648483Y-32293916D01*
X94621385Y-32312206D01*
X94591174Y-32326712D01*
X94557848Y-32337433D01*
X94521407Y-32344371D01*
X94488661Y-32347262D01*
X94467975Y-32347735D01*
X94462577Y-32347735D01*
X94428907Y-32346444D01*
X94397353Y-32342572D01*
X94362282Y-32334518D01*
X94330258Y-32322747D01*
X94301282Y-32307259D01*
X94283657Y-32294868D01*
X94257181Y-32269915D01*
X94237208Y-32241452D01*
X94223738Y-32209479D01*
X94216771Y-32173996D01*
X94215709Y-32152145D01*
X94218309Y-32119123D01*
X94320648Y-32119123D01*
X94325984Y-32151123D01*
X94343807Y-32179541D01*
X94358591Y-32192152D01*
X94389104Y-32207246D01*
X94420655Y-32214936D01*
X94453677Y-32218250D01*
X94471944Y-32218664D01*
X94506590Y-32216580D01*
X94539843Y-32209374D01*
X94570045Y-32195502D01*
X94574819Y-32192311D01*
X94597554Y-32169799D01*
X94610342Y-32139214D01*
X94612127Y-32120076D01*
X94607817Y-32086451D01*
X94593120Y-32057057D01*
X94567993Y-32035617D01*
X94364783Y-32035617D01*
X94339655Y-32057159D01*
X94324958Y-32086206D01*
X94320648Y-32119123D01*
X94218309Y-32119123D01*
X94218315Y-32119041D01*
X94227674Y-32085357D01*
X94243840Y-32056099D01*
X94266813Y-32031266D01*
X94270163Y-32028473D01*
X94224599Y-32023075D01*
X94224599Y-31906070D01*
X94691665Y-31906070D01*
X94725990Y-31908356D01*
G37*
G36*
X94707700Y-31658567D02*
G01*
X94707700Y-31792558D01*
X94057586Y-31792558D01*
X94057586Y-31658567D01*
X94707700Y-31658567D01*
G37*
G36*
X94707700Y-31104502D02*
G01*
X94707700Y-31550135D01*
X94619271Y-31550135D01*
X94395105Y-31339781D01*
X94369448Y-31317185D01*
X94343178Y-31296261D01*
X94314766Y-31276965D01*
X94312551Y-31275643D01*
X94282381Y-31261426D01*
X94249538Y-31254927D01*
X94245555Y-31254846D01*
X94213406Y-31258461D01*
X94183930Y-31271619D01*
X94177448Y-31276754D01*
X94158874Y-31303346D01*
X94152706Y-31336783D01*
X94152682Y-31339305D01*
X94157660Y-31371841D01*
X94174156Y-31400023D01*
X94182846Y-31408364D01*
X94210472Y-31424605D01*
X94241508Y-31432248D01*
X94262066Y-31433448D01*
X94262066Y-31562995D01*
X94229484Y-31560759D01*
X94195196Y-31553032D01*
X94162923Y-31539786D01*
X94153635Y-31534736D01*
X94124968Y-31514696D01*
X94100488Y-31490097D01*
X94082035Y-31464062D01*
X94076637Y-31454563D01*
X94063130Y-31424281D01*
X94054044Y-31391840D01*
X94049378Y-31357238D01*
X94048696Y-31337082D01*
X94050392Y-31300976D01*
X94055483Y-31268030D01*
X94065710Y-31233585D01*
X94080556Y-31203440D01*
X94096958Y-31181023D01*
X94123500Y-31156713D01*
X94155024Y-31139349D01*
X94186693Y-31129853D01*
X94222175Y-31125675D01*
X94233014Y-31125458D01*
X94266400Y-31128422D01*
X94300200Y-31137314D01*
X94331285Y-31150542D01*
X94360721Y-31167388D01*
X94389079Y-31187106D01*
X94415585Y-31208022D01*
X94443672Y-31232357D01*
X94447813Y-31236112D01*
X94603713Y-31383916D01*
X94603713Y-31104502D01*
X94707700Y-31104502D01*
G37*
G36*
X94537194Y-30677126D02*
G01*
X94505494Y-30683021D01*
X94480217Y-30702305D01*
X94478929Y-30703956D01*
X94462052Y-30732727D01*
X94448570Y-30764522D01*
X94437472Y-30796008D01*
X94436065Y-30800322D01*
X94424833Y-30833353D01*
X94412291Y-30866173D01*
X94398475Y-30897249D01*
X94391613Y-30910659D01*
X94371893Y-30942536D01*
X94350143Y-30969011D01*
X94326362Y-30990083D01*
X94295144Y-31008237D01*
X94261001Y-31018611D01*
X94230315Y-31021313D01*
X94198572Y-31018414D01*
X94166199Y-31008527D01*
X94136489Y-30991625D01*
X94112374Y-30970543D01*
X94091826Y-30944407D01*
X94076381Y-30916563D01*
X94071874Y-30906372D01*
X94060670Y-30874037D01*
X94053132Y-30839541D01*
X94049511Y-30807065D01*
X94048696Y-30781588D01*
X94050273Y-30747694D01*
X94055006Y-30715704D01*
X94064102Y-30681993D01*
X94073938Y-30657440D01*
X94089782Y-30628731D01*
X94111245Y-30601339D01*
X94136771Y-30578691D01*
X94145220Y-30572822D01*
X94175121Y-30556915D01*
X94207471Y-30546900D01*
X94242270Y-30542776D01*
X94249524Y-30542658D01*
X94249524Y-30676649D01*
X94216553Y-30681287D01*
X94188371Y-30696654D01*
X94180147Y-30704750D01*
X94163217Y-30733713D01*
X94156252Y-30765504D01*
X94155381Y-30783811D01*
X94158306Y-30817545D01*
X94169110Y-30849169D01*
X94176178Y-30860174D01*
X94201870Y-30881480D01*
X94230791Y-30887480D01*
X94261615Y-30878474D01*
X94283975Y-30855570D01*
X94299669Y-30827298D01*
X94312169Y-30797292D01*
X94322967Y-30765277D01*
X94324141Y-30761426D01*
X94335309Y-30727221D01*
X94347284Y-30696047D01*
X94362719Y-30662639D01*
X94379314Y-30633596D01*
X94400142Y-30605228D01*
X94409552Y-30594889D01*
X94436521Y-30572038D01*
X94466626Y-30555716D01*
X94499866Y-30545922D01*
X94531523Y-30542709D01*
X94536241Y-30542658D01*
X94571445Y-30545719D01*
X94603154Y-30554904D01*
X94631368Y-30570211D01*
X94656088Y-30591642D01*
X94668645Y-30606637D01*
X94687327Y-30636671D01*
X94701420Y-30670928D01*
X94709848Y-30703653D01*
X94714904Y-30739482D01*
X94716543Y-30771709D01*
X94716590Y-30778413D01*
X94715276Y-30810620D01*
X94710555Y-30845847D01*
X94702401Y-30879387D01*
X94690815Y-30911241D01*
X94689125Y-30915104D01*
X94674122Y-30944077D01*
X94654208Y-30972307D01*
X94631079Y-30995916D01*
X94613874Y-31009088D01*
X94585801Y-31024744D01*
X94555342Y-31035276D01*
X94522497Y-31040684D01*
X94503219Y-31041475D01*
X94503219Y-30907007D01*
X94539799Y-30902486D01*
X94568811Y-30888924D01*
X94593093Y-30861673D01*
X94605707Y-30828520D01*
X94610437Y-30793985D01*
X94610857Y-30778413D01*
X94608134Y-30745543D01*
X94598071Y-30714700D01*
X94591489Y-30703956D01*
X94566440Y-30683021D01*
X94537194Y-30677126D01*
G37*
G36*
X94057586Y-30279755D02*
G01*
X94529097Y-30112742D01*
X94057586Y-29946681D01*
X94057586Y-29770777D01*
X94707700Y-29770777D01*
X94707700Y-29905086D01*
X94530049Y-29905086D01*
X94223171Y-29891751D01*
X94707700Y-30067178D01*
X94707700Y-30159099D01*
X94223647Y-30334209D01*
X94530049Y-30320873D01*
X94707700Y-30320873D01*
X94707700Y-30454706D01*
X94057586Y-30454706D01*
X94057586Y-30279755D01*
G37*
G36*
X94707700Y-29530100D02*
G01*
X94707700Y-29659647D01*
X94224599Y-29659647D01*
X94224599Y-29530100D01*
X94707700Y-29530100D01*
G37*
G36*
X94099498Y-29667108D02*
G01*
X94067350Y-29659542D01*
X94051871Y-29647740D01*
X94036097Y-29619759D01*
X94032979Y-29594873D01*
X94038311Y-29563552D01*
X94051871Y-29542166D01*
X94079257Y-29525248D01*
X94099498Y-29522480D01*
X94130758Y-29529476D01*
X94147761Y-29542325D01*
X94163402Y-29570424D01*
X94166494Y-29594873D01*
X94160567Y-29627468D01*
X94147761Y-29647264D01*
X94120127Y-29664318D01*
X94099498Y-29667108D01*
G37*
G36*
X94612604Y-29224015D02*
G01*
X94607682Y-29191668D01*
X94592918Y-29166069D01*
X94566702Y-29147667D01*
X94540686Y-29142731D01*
X94540686Y-29021758D01*
X94573456Y-29025143D01*
X94604312Y-29034644D01*
X94630702Y-29048588D01*
X94656595Y-29068995D01*
X94678174Y-29093979D01*
X94694046Y-29120664D01*
X94705935Y-29150186D01*
X94713420Y-29181599D01*
X94716502Y-29214905D01*
X94716590Y-29221793D01*
X94714279Y-29259128D01*
X94707347Y-29293382D01*
X94695794Y-29324556D01*
X94679619Y-29352649D01*
X94658823Y-29377660D01*
X94650864Y-29385313D01*
X94624388Y-29405599D01*
X94594374Y-29421689D01*
X94560821Y-29433580D01*
X94523729Y-29441275D01*
X94490116Y-29444481D01*
X94468769Y-29445006D01*
X94460355Y-29445006D01*
X94426578Y-29443556D01*
X94395004Y-29439208D01*
X94360020Y-29430162D01*
X94328206Y-29416942D01*
X94299563Y-29399547D01*
X94282228Y-29385631D01*
X94259622Y-29361813D01*
X94241693Y-29334893D01*
X94228441Y-29304869D01*
X94219866Y-29271742D01*
X94215969Y-29235511D01*
X94215709Y-29222745D01*
X94217523Y-29190018D01*
X94224224Y-29155039D01*
X94235864Y-29123509D01*
X94252441Y-29095428D01*
X94267305Y-29077482D01*
X94291450Y-29056094D01*
X94318877Y-29039858D01*
X94349585Y-29028772D01*
X94383576Y-29022837D01*
X94404472Y-29021758D01*
X94404472Y-29142731D01*
X94372451Y-29148333D01*
X94345140Y-29164690D01*
X94343668Y-29166069D01*
X94325334Y-29193761D01*
X94320172Y-29224968D01*
X94325595Y-29257959D01*
X94343567Y-29285342D01*
X94353034Y-29293075D01*
X94383322Y-29307103D01*
X94417362Y-29313847D01*
X94450354Y-29316005D01*
X94459402Y-29316095D01*
X94472897Y-29316095D01*
X94507516Y-29314676D01*
X94540224Y-29309687D01*
X94571230Y-29298713D01*
X94580058Y-29293392D01*
X94602306Y-29268861D01*
X94611809Y-29237974D01*
X94612604Y-29224015D01*
G37*
D11*
G36*
X93760378Y-34026616D02*
G01*
X93760378Y-34144829D01*
X92891460Y-33850175D01*
X92891460Y-33731961D01*
X93760378Y-34026616D01*
G37*
G36*
X93760378Y-33744466D02*
G01*
X93760378Y-33862680D01*
X92891460Y-33568025D01*
X92891460Y-33449812D01*
X93760378Y-33744466D01*
G37*
G36*
X93441466Y-32842490D02*
G01*
X93480384Y-32847069D01*
X93523560Y-32856595D01*
X93562890Y-32870516D01*
X93598372Y-32888835D01*
X93619890Y-32903489D01*
X93652095Y-32932853D01*
X93676390Y-32966406D01*
X93692775Y-33004148D01*
X93701250Y-33046078D01*
X93702542Y-33071919D01*
X93698634Y-33114796D01*
X93686910Y-33153350D01*
X93667371Y-33187580D01*
X93640015Y-33217488D01*
X93920211Y-33217488D01*
X93920211Y-33376343D01*
X93097015Y-33376343D01*
X93097015Y-33229016D01*
X93155242Y-33223545D01*
X93124981Y-33192514D01*
X93103365Y-33157062D01*
X93090396Y-33117190D01*
X93090154Y-33114710D01*
X93215228Y-33114710D01*
X93220800Y-33156903D01*
X93239800Y-33192737D01*
X93272283Y-33217488D01*
X93515745Y-33217488D01*
X93549229Y-33192069D01*
X93568815Y-33155846D01*
X93574558Y-33113538D01*
X93568005Y-33074891D01*
X93543794Y-33039909D01*
X93508843Y-33018587D01*
X93469705Y-33006926D01*
X93421465Y-33000818D01*
X93388152Y-32999819D01*
X93349098Y-33001663D01*
X93306943Y-33009154D01*
X93269124Y-33024050D01*
X93260364Y-33029323D01*
X93231140Y-33057555D01*
X93216815Y-33094622D01*
X93215228Y-33114710D01*
X93090154Y-33114710D01*
X93086073Y-33072896D01*
X93088930Y-33033434D01*
X93099488Y-32991736D01*
X93117824Y-32954713D01*
X93143940Y-32922365D01*
X93167357Y-32902121D01*
X93205864Y-32878291D01*
X93243558Y-32862524D01*
X93285580Y-32851057D01*
X93331930Y-32843890D01*
X93373860Y-32841202D01*
X93391474Y-32840963D01*
X93399876Y-32840963D01*
X93441466Y-32842490D01*
G37*
G36*
X93691600Y-32578744D02*
G01*
X93691600Y-32738186D01*
X93097015Y-32738186D01*
X93097015Y-32578744D01*
X93691600Y-32578744D01*
G37*
G36*
X92943044Y-32747369D02*
G01*
X92903477Y-32738057D01*
X92884426Y-32723531D01*
X92865011Y-32689093D01*
X92861174Y-32658465D01*
X92867736Y-32619915D01*
X92884426Y-32593594D01*
X92918131Y-32572772D01*
X92943044Y-32569365D01*
X92981518Y-32577976D01*
X93002444Y-32593789D01*
X93021695Y-32628373D01*
X93025500Y-32658465D01*
X93018205Y-32698582D01*
X93002444Y-32722945D01*
X92968433Y-32743935D01*
X92943044Y-32747369D01*
G37*
G36*
X93445989Y-32309686D02*
G01*
X93486417Y-32299602D01*
X93522897Y-32278817D01*
X93539387Y-32263378D01*
X93562159Y-32228431D01*
X93572875Y-32190219D01*
X93574558Y-32165290D01*
X93570406Y-32121888D01*
X93557950Y-32083517D01*
X93537189Y-32050178D01*
X93508124Y-32021870D01*
X93595466Y-31943713D01*
X93627626Y-31971274D01*
X93654522Y-32004792D01*
X93674405Y-32040433D01*
X93689243Y-32079832D01*
X93698585Y-32121827D01*
X93702294Y-32161840D01*
X93702542Y-32175646D01*
X93700586Y-32215364D01*
X93693075Y-32259877D01*
X93679932Y-32300955D01*
X93661156Y-32338599D01*
X93636747Y-32372809D01*
X93622430Y-32388625D01*
X93590446Y-32416515D01*
X93554726Y-32438634D01*
X93515268Y-32454983D01*
X93472074Y-32465562D01*
X93433224Y-32469970D01*
X93408669Y-32470691D01*
X93393232Y-32470691D01*
X93349586Y-32468529D01*
X93308334Y-32462045D01*
X93269475Y-32451237D01*
X93233009Y-32436106D01*
X93195898Y-32414365D01*
X93163917Y-32388048D01*
X93137069Y-32357157D01*
X93124370Y-32338018D01*
X93105857Y-32300891D01*
X93093403Y-32260951D01*
X93087008Y-32218198D01*
X93086095Y-32193817D01*
X93214642Y-32193817D01*
X93221640Y-32234240D01*
X93244532Y-32268746D01*
X93246491Y-32270607D01*
X93279633Y-32292214D01*
X93319851Y-32305043D01*
X93337740Y-32308123D01*
X93337740Y-32087132D01*
X93325040Y-32087132D01*
X93286142Y-32092438D01*
X93249157Y-32110921D01*
X93243560Y-32115855D01*
X93221872Y-32149023D01*
X93214755Y-32187582D01*
X93214642Y-32193817D01*
X93086095Y-32193817D01*
X93086073Y-32193231D01*
X93088779Y-32149336D01*
X93096899Y-32109095D01*
X93113213Y-32066767D01*
X93136895Y-32029413D01*
X93163058Y-32001354D01*
X93194121Y-31977515D01*
X93229718Y-31958608D01*
X93269849Y-31944634D01*
X93314513Y-31935591D01*
X93355197Y-31931824D01*
X93381118Y-31931207D01*
X93445989Y-31931207D01*
X93445989Y-32309686D01*
G37*
G36*
X93245905Y-31510328D02*
G01*
X93242114Y-31549534D01*
X93241606Y-31567383D01*
X93245417Y-31608624D01*
X93258812Y-31645706D01*
X93285007Y-31675343D01*
X93302569Y-31685597D01*
X93691600Y-31685597D01*
X93691600Y-31844452D01*
X93097015Y-31844452D01*
X93097015Y-31694389D01*
X93167943Y-31689895D01*
X93136042Y-31667270D01*
X93109179Y-31637085D01*
X93091190Y-31597608D01*
X93086073Y-31557613D01*
X93090366Y-31518425D01*
X93093107Y-31508179D01*
X93245905Y-31510328D01*
G37*
G36*
X93097015Y-31290314D02*
G01*
X93165598Y-31285234D01*
X93134611Y-31255290D01*
X93111235Y-31221195D01*
X93095470Y-31182948D01*
X93087315Y-31140550D01*
X93086073Y-31114459D01*
X93088728Y-31075403D01*
X93098266Y-31036447D01*
X93117287Y-30999860D01*
X93141565Y-30973775D01*
X93177122Y-30951313D01*
X93216021Y-30937366D01*
X93255687Y-30929812D01*
X93300608Y-30926595D01*
X93307454Y-30926490D01*
X93691600Y-30926490D01*
X93691600Y-31085345D01*
X93311362Y-31085345D01*
X93272429Y-31089572D01*
X93238089Y-31107425D01*
X93219001Y-31143676D01*
X93215228Y-31180307D01*
X93221970Y-31222435D01*
X93242196Y-31256667D01*
X93272283Y-31280935D01*
X93691600Y-31280935D01*
X93691600Y-31439791D01*
X93097015Y-31439791D01*
X93097015Y-31290314D01*
G37*
G36*
X93441744Y-30273003D02*
G01*
X93480569Y-30278598D01*
X93523658Y-30290237D01*
X93562928Y-30307248D01*
X93598378Y-30329631D01*
X93619890Y-30347537D01*
X93647978Y-30377961D01*
X93670256Y-30412081D01*
X93686722Y-30449897D01*
X93697376Y-30491408D01*
X93702219Y-30536615D01*
X93702542Y-30552505D01*
X93699643Y-30598892D01*
X93690946Y-30641623D01*
X93676452Y-30680701D01*
X93656160Y-30716124D01*
X93630070Y-30747892D01*
X93620085Y-30757669D01*
X93587083Y-30783699D01*
X93549917Y-30804344D01*
X93508589Y-30819603D01*
X93463098Y-30829477D01*
X93422009Y-30833591D01*
X93395968Y-30834264D01*
X93388738Y-30834264D01*
X93345691Y-30832139D01*
X93305061Y-30825764D01*
X93266849Y-30815140D01*
X93231055Y-30800265D01*
X93194620Y-30778761D01*
X93163131Y-30752496D01*
X93136588Y-30721471D01*
X93123979Y-30702177D01*
X93105655Y-30664504D01*
X93093328Y-30623585D01*
X93087405Y-30584488D01*
X93086073Y-30553482D01*
X93214642Y-30553482D01*
X93221017Y-30593471D01*
X93242310Y-30628482D01*
X93259974Y-30643754D01*
X93297003Y-30661887D01*
X93336025Y-30671125D01*
X93377302Y-30675106D01*
X93400267Y-30675604D01*
X93440090Y-30673613D01*
X93478966Y-30666615D01*
X93517958Y-30651219D01*
X93529813Y-30643754D01*
X93558784Y-30613236D01*
X93572985Y-30573752D01*
X93574558Y-30552505D01*
X93568348Y-30512700D01*
X93547606Y-30477639D01*
X93530399Y-30462233D01*
X93493648Y-30443766D01*
X93454272Y-30434359D01*
X93412238Y-30430304D01*
X93388738Y-30429798D01*
X93349647Y-30431825D01*
X93307344Y-30440060D01*
X93269229Y-30456437D01*
X93260364Y-30462233D01*
X93232502Y-30490269D01*
X93216830Y-30529014D01*
X93214642Y-30553482D01*
X93086073Y-30553482D01*
X93088662Y-30509906D01*
X93096432Y-30469447D01*
X93109380Y-30432108D01*
X93131033Y-30392487D01*
X93159736Y-30357111D01*
X93189148Y-30330905D01*
X93222284Y-30309438D01*
X93259142Y-30292711D01*
X93299724Y-30280724D01*
X93344029Y-30273477D01*
X93359625Y-30272115D01*
X93400267Y-30271138D01*
X93441744Y-30273003D01*
G37*
G36*
X93497573Y-29962610D02*
G01*
X93097015Y-29852017D01*
X93097015Y-29686127D01*
X93691600Y-29886797D01*
X93691600Y-30038423D01*
X93097015Y-30238897D01*
X93097015Y-30073008D01*
X93497573Y-29962610D01*
G37*
D10*
G36*
X95566053Y-32484842D02*
G01*
X95240599Y-32394985D01*
X95240599Y-32260200D01*
X95723700Y-32423244D01*
X95723700Y-32546440D01*
X95240599Y-32709325D01*
X95240599Y-32574540D01*
X95566053Y-32484842D01*
G37*
G36*
X95487629Y-31774480D02*
G01*
X95525729Y-31778027D01*
X95560735Y-31784303D01*
X95592649Y-31793308D01*
X95626862Y-31807715D01*
X95656622Y-31826051D01*
X95661149Y-31829489D01*
X95685428Y-31852211D01*
X95704683Y-31878583D01*
X95718916Y-31908605D01*
X95728125Y-31942277D01*
X95732311Y-31979599D01*
X95732590Y-31992851D01*
X95730881Y-32024866D01*
X95724317Y-32060051D01*
X95712831Y-32091708D01*
X95696422Y-32119838D01*
X95675090Y-32144441D01*
X95662578Y-32155419D01*
X95634132Y-32174569D01*
X95601421Y-32189867D01*
X95570905Y-32199674D01*
X95537428Y-32206807D01*
X95500990Y-32211265D01*
X95461590Y-32213048D01*
X95341887Y-32213048D01*
X95308860Y-32212165D01*
X95270465Y-32208578D01*
X95235280Y-32202231D01*
X95203303Y-32193124D01*
X95169168Y-32178553D01*
X95139654Y-32160008D01*
X95135184Y-32156531D01*
X95111229Y-32133589D01*
X95092230Y-32107154D01*
X95078188Y-32077225D01*
X95069101Y-32043803D01*
X95064971Y-32006886D01*
X95064696Y-31993804D01*
X95169158Y-31993804D01*
X95174949Y-32026894D01*
X95194136Y-32053739D01*
X95204244Y-32061117D01*
X95236020Y-32074453D01*
X95267178Y-32080704D01*
X95300145Y-32083562D01*
X95313787Y-32083978D01*
X95471910Y-32083978D01*
X95504693Y-32082945D01*
X95537397Y-32079234D01*
X95571133Y-32070800D01*
X95590025Y-32062387D01*
X95615003Y-32040418D01*
X95627247Y-32009856D01*
X95628604Y-31992851D01*
X95623402Y-31961075D01*
X95604184Y-31933370D01*
X95591613Y-31924585D01*
X95561439Y-31912542D01*
X95529859Y-31906204D01*
X95496579Y-31903228D01*
X95478101Y-31902677D01*
X95323630Y-31902677D01*
X95290381Y-31903740D01*
X95257535Y-31907560D01*
X95224208Y-31916243D01*
X95205990Y-31924903D01*
X95182143Y-31946920D01*
X95170453Y-31977112D01*
X95169158Y-31993804D01*
X95064696Y-31993804D01*
X95066401Y-31961789D01*
X95072950Y-31926604D01*
X95084410Y-31894947D01*
X95100782Y-31866817D01*
X95122066Y-31842214D01*
X95134549Y-31831236D01*
X95162887Y-31812086D01*
X95195512Y-31796788D01*
X95225974Y-31786981D01*
X95259412Y-31779848D01*
X95295827Y-31775390D01*
X95335219Y-31773607D01*
X95454922Y-31773607D01*
X95487629Y-31774480D01*
G37*
G36*
X95660355Y-31677241D02*
G01*
X95627867Y-31669909D01*
X95610346Y-31656443D01*
X95594307Y-31628053D01*
X95591137Y-31604371D01*
X95597215Y-31572167D01*
X95610346Y-31551981D01*
X95637244Y-31534616D01*
X95660355Y-31531183D01*
X95692390Y-31538459D01*
X95709729Y-31551822D01*
X95725503Y-31580227D01*
X95728621Y-31604371D01*
X95722643Y-31636575D01*
X95709729Y-31656761D01*
X95681512Y-31674361D01*
X95660355Y-31677241D01*
G37*
G36*
X95583040Y-31043321D02*
G01*
X95723700Y-31043321D01*
X95723700Y-31172391D01*
X95583040Y-31172391D01*
X95583040Y-31438945D01*
X95501756Y-31444660D01*
X95073586Y-31173661D01*
X95073586Y-31172391D01*
X95249490Y-31172391D01*
X95264254Y-31180805D01*
X95479054Y-31316067D01*
X95479054Y-31172391D01*
X95249490Y-31172391D01*
X95073586Y-31172391D01*
X95073586Y-31043321D01*
X95479054Y-31043321D01*
X95479054Y-30969657D01*
X95583040Y-30969657D01*
X95583040Y-31043321D01*
G37*
D12*
%TO.C,C13*%
X96620000Y-35710000D03*
X95660000Y-35710000D03*
%TD*%
D13*
%TO.C,C12*%
X98940000Y-36360000D03*
X98940000Y-37320000D03*
%TD*%
%TO.C,C2*%
X110020000Y-43330000D03*
X110020000Y-44290000D03*
%TD*%
D14*
%TO.C,R7*%
X113360200Y-33524000D03*
X113360200Y-34544000D03*
%TD*%
D15*
%TO.C,C1*%
X99949000Y-39342000D03*
X99949000Y-38382000D03*
%TD*%
D16*
%TO.C,TP3*%
X109680000Y-42380000D03*
%TD*%
D14*
%TO.C,R9*%
X114757200Y-33526000D03*
X114757200Y-34546000D03*
%TD*%
%TO.C,R2*%
X110845600Y-36421600D03*
X110845600Y-37441600D03*
%TD*%
D16*
%TO.C,TP1*%
X105350000Y-42300000D03*
%TD*%
D12*
%TO.C,C4*%
X108960000Y-43360000D03*
X108000000Y-43360000D03*
%TD*%
D13*
%TO.C,C5*%
X106130000Y-35600000D03*
X106130000Y-36560000D03*
%TD*%
D17*
%TO.C,R11*%
X96670000Y-37760000D03*
X95650000Y-37760000D03*
%TD*%
D14*
%TO.C,R10*%
X114757200Y-35433000D03*
X114757200Y-36453000D03*
%TD*%
D13*
%TO.C,C8*%
X104740000Y-35550000D03*
X104740000Y-36510000D03*
%TD*%
D15*
%TO.C,C11*%
X106960000Y-44150000D03*
X106960000Y-43190000D03*
%TD*%
D17*
%TO.C,R3*%
X104340000Y-40600000D03*
X103320000Y-40600000D03*
%TD*%
D14*
%TO.C,R6*%
X111861600Y-36421600D03*
X111861600Y-37441600D03*
%TD*%
D16*
%TO.C,TP2*%
X110590000Y-41560000D03*
%TD*%
D13*
%TO.C,C10*%
X98044000Y-40795000D03*
X98044000Y-41755000D03*
%TD*%
D14*
%TO.C,R8*%
X113360200Y-35433000D03*
X113360200Y-36453000D03*
%TD*%
D12*
%TO.C,C9*%
X96620000Y-36716000D03*
X95660000Y-36716000D03*
%TD*%
D18*
%TO.C,R5*%
X112520000Y-41650000D03*
X112520000Y-40630000D03*
%TD*%
D14*
%TO.C,R4*%
X111504000Y-40630000D03*
X111504000Y-41650000D03*
%TD*%
%TO.C,R1*%
X98933000Y-38352000D03*
X98933000Y-39372000D03*
%TD*%
D19*
%TO.C,J2*%
X93827600Y-45611400D03*
X96327600Y-45611400D03*
D20*
X98827600Y-50611400D03*
D19*
X103827600Y-45611400D03*
X101327600Y-45611400D03*
%TD*%
D21*
%TO.C,MK1*%
X109006000Y-47988000D03*
D22*
X111546000Y-47988000D03*
%TD*%
D23*
%TO.C,JP2*%
X94157800Y-39370000D03*
X94157800Y-40670000D03*
%TD*%
D12*
%TO.C,C7*%
X108940000Y-44390000D03*
X107980000Y-44390000D03*
%TD*%
D15*
%TO.C,C3*%
X105900000Y-44150000D03*
X105900000Y-43190000D03*
%TD*%
D23*
%TO.C,JP1*%
X114460000Y-39370000D03*
X114460000Y-40670000D03*
%TD*%
D24*
%TO.C,FB1*%
X96647000Y-39268300D03*
X96647000Y-40843300D03*
%TD*%
D25*
%TO.C,U1*%
X105791000Y-38394000D03*
X105791000Y-38894000D03*
X105791000Y-39394000D03*
X105791000Y-39894000D03*
X105791000Y-40394000D03*
X105791000Y-40894000D03*
D26*
X106478500Y-41581500D03*
X106978500Y-41581500D03*
X107478500Y-41581500D03*
X107978500Y-41581500D03*
X108478500Y-41581500D03*
X108978500Y-41581500D03*
D25*
X109666000Y-40894000D03*
X109666000Y-40394000D03*
X109666000Y-39894000D03*
X109666000Y-39394000D03*
X109666000Y-38894000D03*
X109666000Y-38394000D03*
D26*
X108978500Y-37706500D03*
X108478500Y-37706500D03*
X107978500Y-37706500D03*
X107478500Y-37706500D03*
X106978500Y-37706500D03*
X106478500Y-37706500D03*
D27*
X107728500Y-39644000D03*
%TD*%
D13*
%TO.C,C6*%
X99949000Y-36350000D03*
X99949000Y-37310000D03*
%TD*%
D28*
%TO.C,J4*%
X97663000Y-30602000D03*
D29*
X97663000Y-33142000D03*
X100203000Y-30602000D03*
X100203000Y-33142000D03*
X102743000Y-30602000D03*
X102743000Y-33142000D03*
X105283000Y-30602000D03*
X105283000Y-33142000D03*
X107823000Y-30602000D03*
X107823000Y-33142000D03*
X110363000Y-30602000D03*
X110363000Y-33142000D03*
%TD*%
M02*
