M48
; DRILL file {KiCad (7.0.0)} date Tue 21 Feb 2023 03:06:07 PM CET
; FORMAT={-:-/ absolute / metric / decimal}
; #@! TF.CreationDate,2023-02-21T15:06:07+01:00
; #@! TF.GenerationSoftware,Kicad,Pcbnew,(7.0.0)
; #@! TF.FileFunction,Plated,1,2,PTH
FMAT,2
METRIC
; #@! TA.AperFunction,Plated,PTH,ComponentDrill
T1C0.300
; #@! TA.AperFunction,Plated,PTH,ViaDrill
T2C0.400
; #@! TA.AperFunction,Plated,PTH,ComponentDrill
T3C0.400
; #@! TA.AperFunction,Plated,PTH,ComponentDrill
T4C0.650
; #@! TA.AperFunction,Plated,PTH,ComponentDrill
T5C1.000
%
G90
G05
T1
X104.14Y-38.64
X104.14Y-39.64
X104.14Y-40.64
X105.14Y-38.64
X105.14Y-39.64
X105.14Y-40.64
X106.14Y-38.64
X106.14Y-39.64
X106.14Y-40.64
T2
X93.218Y-39.624
X93.337Y-30.825
X93.472Y-51.46
X93.503Y-27.904
X93.751Y-58.039
X93.98Y-43.688
X96.52Y-40.767
X98.254Y-47.715
X100.675Y-33.721
X100.675Y-36.698
X101.755Y-39.18
X101.998Y-38.21
X102.774Y-34.166
X102.806Y-45.148
X103.224Y-33.274
X103.253Y-36.118
X104.267Y-45.212
X104.521Y-51.511
X105.336Y-46.925
X105.41Y-31.242
X105.709Y-45.254
X105.715Y-57.582
X107.646Y-37.141
X109.104Y-39.368
X110.211Y-30.836
X110.303Y-41.074
X110.465Y-54.331
X111.125Y-42.578
X111.566Y-36.32
X113.639Y-37.387
X114.63Y-44.45
X114.656Y-53.162
X114.656Y-57.582
X114.689Y-30.582
X115.087Y-48.895
X115.105Y-37.498
T4
X109.22Y-51.435
X111.76Y-51.435
T5
X94.742Y-29.21
X97.282Y-29.21
X99.822Y-29.21
X102.362Y-29.21
X104.902Y-29.21
X105.029Y-32.893
X107.442Y-29.21
X107.569Y-32.893
X108.839Y-46.355
X110.109Y-32.893
X111.379Y-46.355
X112.649Y-32.893
X113.919Y-46.355
T3
X94.06Y-48.522G85X94.06Y-49.522
G05
X96.56Y-48.522G85X96.56Y-49.522
G05
X98.56Y-54.022G85X99.56Y-54.022
G05
X101.56Y-49.522G85X101.56Y-48.522
G05
X104.06Y-49.522G85X104.06Y-48.522
G05
T0
M30
