%TF.GenerationSoftware,KiCad,Pcbnew,(7.0.0)*%
%TF.CreationDate,2023-02-21T15:06:08+01:00*%
%TF.ProjectId,AnalogI2SMic,416e616c-6f67-4493-9253-4d69632e6b69,rev?*%
%TF.SameCoordinates,Original*%
%TF.FileFunction,Drillmap*%
%TF.FilePolarity,Positive*%
%FSLAX45Y45*%
G04 Gerber Fmt 4.5, Leading zero omitted, Abs format (unit mm)*
G04 Created by KiCad (PCBNEW (7.0.0)) date 2023-02-21 15:06:08*
%MOMM*%
%LPD*%
G01*
G04 APERTURE LIST*
%ADD10C,0.100000*%
%ADD11C,0.200000*%
%ADD12C,0.120000*%
G04 APERTURE END LIST*
D10*
X9398000Y-5852200D02*
X9357842Y-5852160D01*
X9256242Y-5750560D02*
G75*
G03*
X9357842Y-5852160I101600J0D01*
G01*
X11481000Y-5852173D02*
G75*
G03*
X11582758Y-5752158I0J101773D01*
G01*
X9359842Y-2717242D02*
G75*
G03*
X9258242Y-2818842I0J-101600D01*
G01*
X11582400Y-2819400D02*
G75*
G03*
X11480800Y-2717800I-101600J0D01*
G01*
X9258242Y-2818842D02*
X9256242Y-5750560D01*
X11480800Y-2717800D02*
X9359842Y-2717242D01*
X11582758Y-5752158D02*
X11582400Y-2819400D01*
X10556000Y-5852200D02*
X11481000Y-5852173D01*
D11*
D12*
X9346000Y-5342200D02*
X9466000Y-5462200D01*
X9466000Y-5342200D02*
X9346000Y-5462200D01*
X9346000Y-5592200D02*
X9466000Y-5712200D01*
X9466000Y-5592200D02*
X9346000Y-5712200D01*
X9846000Y-4842200D02*
X9966000Y-4962200D01*
X9966000Y-4842200D02*
X9846000Y-4962200D01*
X10346000Y-5342200D02*
X10466000Y-5462200D01*
X10466000Y-5342200D02*
X10346000Y-5462200D01*
X10346000Y-5592200D02*
X10466000Y-5712200D01*
X10466000Y-5592200D02*
X10346000Y-5712200D01*
D11*
X9498861Y-6151676D02*
X9498861Y-5951676D01*
X9498861Y-5951676D02*
X9546480Y-5951676D01*
X9546480Y-5951676D02*
X9575052Y-5961200D01*
X9575052Y-5961200D02*
X9594099Y-5980248D01*
X9594099Y-5980248D02*
X9603623Y-5999295D01*
X9603623Y-5999295D02*
X9613147Y-6037390D01*
X9613147Y-6037390D02*
X9613147Y-6065962D01*
X9613147Y-6065962D02*
X9603623Y-6104057D01*
X9603623Y-6104057D02*
X9594099Y-6123105D01*
X9594099Y-6123105D02*
X9575052Y-6142152D01*
X9575052Y-6142152D02*
X9546480Y-6151676D01*
X9546480Y-6151676D02*
X9498861Y-6151676D01*
X9698861Y-6151676D02*
X9698861Y-6018343D01*
X9698861Y-6056438D02*
X9708385Y-6037390D01*
X9708385Y-6037390D02*
X9717909Y-6027867D01*
X9717909Y-6027867D02*
X9736956Y-6018343D01*
X9736956Y-6018343D02*
X9756004Y-6018343D01*
X9822671Y-6151676D02*
X9822671Y-6018343D01*
X9822671Y-5951676D02*
X9813147Y-5961200D01*
X9813147Y-5961200D02*
X9822671Y-5970724D01*
X9822671Y-5970724D02*
X9832194Y-5961200D01*
X9832194Y-5961200D02*
X9822671Y-5951676D01*
X9822671Y-5951676D02*
X9822671Y-5970724D01*
X9946480Y-6151676D02*
X9927432Y-6142152D01*
X9927432Y-6142152D02*
X9917909Y-6123105D01*
X9917909Y-6123105D02*
X9917909Y-5951676D01*
X10051242Y-6151676D02*
X10032194Y-6142152D01*
X10032194Y-6142152D02*
X10022671Y-6123105D01*
X10022671Y-6123105D02*
X10022671Y-5951676D01*
X10247432Y-6151676D02*
X10247432Y-5951676D01*
X10247432Y-5951676D02*
X10314099Y-6094533D01*
X10314099Y-6094533D02*
X10380766Y-5951676D01*
X10380766Y-5951676D02*
X10380766Y-6151676D01*
X10561718Y-6151676D02*
X10561718Y-6046914D01*
X10561718Y-6046914D02*
X10552194Y-6027867D01*
X10552194Y-6027867D02*
X10533147Y-6018343D01*
X10533147Y-6018343D02*
X10495051Y-6018343D01*
X10495051Y-6018343D02*
X10476004Y-6027867D01*
X10561718Y-6142152D02*
X10542671Y-6151676D01*
X10542671Y-6151676D02*
X10495051Y-6151676D01*
X10495051Y-6151676D02*
X10476004Y-6142152D01*
X10476004Y-6142152D02*
X10466480Y-6123105D01*
X10466480Y-6123105D02*
X10466480Y-6104057D01*
X10466480Y-6104057D02*
X10476004Y-6085009D01*
X10476004Y-6085009D02*
X10495051Y-6075486D01*
X10495051Y-6075486D02*
X10542671Y-6075486D01*
X10542671Y-6075486D02*
X10561718Y-6065962D01*
X10656956Y-6018343D02*
X10656956Y-6218343D01*
X10656956Y-6027867D02*
X10676004Y-6018343D01*
X10676004Y-6018343D02*
X10714099Y-6018343D01*
X10714099Y-6018343D02*
X10733147Y-6027867D01*
X10733147Y-6027867D02*
X10742671Y-6037390D01*
X10742671Y-6037390D02*
X10752194Y-6056438D01*
X10752194Y-6056438D02*
X10752194Y-6113581D01*
X10752194Y-6113581D02*
X10742671Y-6132628D01*
X10742671Y-6132628D02*
X10733147Y-6142152D01*
X10733147Y-6142152D02*
X10714099Y-6151676D01*
X10714099Y-6151676D02*
X10676004Y-6151676D01*
X10676004Y-6151676D02*
X10656956Y-6142152D01*
X10837909Y-6132628D02*
X10847432Y-6142152D01*
X10847432Y-6142152D02*
X10837909Y-6151676D01*
X10837909Y-6151676D02*
X10828385Y-6142152D01*
X10828385Y-6142152D02*
X10837909Y-6132628D01*
X10837909Y-6132628D02*
X10837909Y-6151676D01*
X10837909Y-6027867D02*
X10847432Y-6037390D01*
X10847432Y-6037390D02*
X10837909Y-6046914D01*
X10837909Y-6046914D02*
X10828385Y-6037390D01*
X10828385Y-6037390D02*
X10837909Y-6027867D01*
X10837909Y-6027867D02*
X10837909Y-6046914D01*
D12*
X9131242Y-6438200D02*
X9251242Y-6558200D01*
X9251242Y-6438200D02*
X9131242Y-6558200D01*
D11*
X9603623Y-6571676D02*
X9489337Y-6571676D01*
X9546480Y-6571676D02*
X9546480Y-6371676D01*
X9546480Y-6371676D02*
X9527432Y-6400248D01*
X9527432Y-6400248D02*
X9508385Y-6419295D01*
X9508385Y-6419295D02*
X9489337Y-6428819D01*
X9689337Y-6552628D02*
X9698861Y-6562152D01*
X9698861Y-6562152D02*
X9689337Y-6571676D01*
X9689337Y-6571676D02*
X9679813Y-6562152D01*
X9679813Y-6562152D02*
X9689337Y-6552628D01*
X9689337Y-6552628D02*
X9689337Y-6571676D01*
X9775052Y-6390724D02*
X9784575Y-6381200D01*
X9784575Y-6381200D02*
X9803623Y-6371676D01*
X9803623Y-6371676D02*
X9851242Y-6371676D01*
X9851242Y-6371676D02*
X9870290Y-6381200D01*
X9870290Y-6381200D02*
X9879813Y-6390724D01*
X9879813Y-6390724D02*
X9889337Y-6409771D01*
X9889337Y-6409771D02*
X9889337Y-6428819D01*
X9889337Y-6428819D02*
X9879813Y-6457390D01*
X9879813Y-6457390D02*
X9765528Y-6571676D01*
X9765528Y-6571676D02*
X9889337Y-6571676D01*
X10013147Y-6371676D02*
X10032194Y-6371676D01*
X10032194Y-6371676D02*
X10051242Y-6381200D01*
X10051242Y-6381200D02*
X10060766Y-6390724D01*
X10060766Y-6390724D02*
X10070290Y-6409771D01*
X10070290Y-6409771D02*
X10079813Y-6447867D01*
X10079813Y-6447867D02*
X10079813Y-6495486D01*
X10079813Y-6495486D02*
X10070290Y-6533581D01*
X10070290Y-6533581D02*
X10060766Y-6552628D01*
X10060766Y-6552628D02*
X10051242Y-6562152D01*
X10051242Y-6562152D02*
X10032194Y-6571676D01*
X10032194Y-6571676D02*
X10013147Y-6571676D01*
X10013147Y-6571676D02*
X9994099Y-6562152D01*
X9994099Y-6562152D02*
X9984575Y-6552628D01*
X9984575Y-6552628D02*
X9975052Y-6533581D01*
X9975052Y-6533581D02*
X9965528Y-6495486D01*
X9965528Y-6495486D02*
X9965528Y-6447867D01*
X9965528Y-6447867D02*
X9975052Y-6409771D01*
X9975052Y-6409771D02*
X9984575Y-6390724D01*
X9984575Y-6390724D02*
X9994099Y-6381200D01*
X9994099Y-6381200D02*
X10013147Y-6371676D01*
X10203623Y-6371676D02*
X10222671Y-6371676D01*
X10222671Y-6371676D02*
X10241718Y-6381200D01*
X10241718Y-6381200D02*
X10251242Y-6390724D01*
X10251242Y-6390724D02*
X10260766Y-6409771D01*
X10260766Y-6409771D02*
X10270290Y-6447867D01*
X10270290Y-6447867D02*
X10270290Y-6495486D01*
X10270290Y-6495486D02*
X10260766Y-6533581D01*
X10260766Y-6533581D02*
X10251242Y-6552628D01*
X10251242Y-6552628D02*
X10241718Y-6562152D01*
X10241718Y-6562152D02*
X10222671Y-6571676D01*
X10222671Y-6571676D02*
X10203623Y-6571676D01*
X10203623Y-6571676D02*
X10184575Y-6562152D01*
X10184575Y-6562152D02*
X10175052Y-6552628D01*
X10175052Y-6552628D02*
X10165528Y-6533581D01*
X10165528Y-6533581D02*
X10156004Y-6495486D01*
X10156004Y-6495486D02*
X10156004Y-6447867D01*
X10156004Y-6447867D02*
X10165528Y-6409771D01*
X10165528Y-6409771D02*
X10175052Y-6390724D01*
X10175052Y-6390724D02*
X10184575Y-6381200D01*
X10184575Y-6381200D02*
X10203623Y-6371676D01*
X10356004Y-6571676D02*
X10356004Y-6438343D01*
X10356004Y-6457390D02*
X10365528Y-6447867D01*
X10365528Y-6447867D02*
X10384575Y-6438343D01*
X10384575Y-6438343D02*
X10413147Y-6438343D01*
X10413147Y-6438343D02*
X10432194Y-6447867D01*
X10432194Y-6447867D02*
X10441718Y-6466914D01*
X10441718Y-6466914D02*
X10441718Y-6571676D01*
X10441718Y-6466914D02*
X10451242Y-6447867D01*
X10451242Y-6447867D02*
X10470290Y-6438343D01*
X10470290Y-6438343D02*
X10498861Y-6438343D01*
X10498861Y-6438343D02*
X10517909Y-6447867D01*
X10517909Y-6447867D02*
X10527433Y-6466914D01*
X10527433Y-6466914D02*
X10527433Y-6571676D01*
X10622671Y-6571676D02*
X10622671Y-6438343D01*
X10622671Y-6457390D02*
X10632194Y-6447867D01*
X10632194Y-6447867D02*
X10651242Y-6438343D01*
X10651242Y-6438343D02*
X10679814Y-6438343D01*
X10679814Y-6438343D02*
X10698861Y-6447867D01*
X10698861Y-6447867D02*
X10708385Y-6466914D01*
X10708385Y-6466914D02*
X10708385Y-6571676D01*
X10708385Y-6466914D02*
X10717909Y-6447867D01*
X10717909Y-6447867D02*
X10736956Y-6438343D01*
X10736956Y-6438343D02*
X10765528Y-6438343D01*
X10765528Y-6438343D02*
X10784575Y-6447867D01*
X10784575Y-6447867D02*
X10794099Y-6466914D01*
X10794099Y-6466914D02*
X10794099Y-6571676D01*
X11152194Y-6362152D02*
X10980766Y-6619295D01*
X11376956Y-6371676D02*
X11396004Y-6371676D01*
X11396004Y-6371676D02*
X11415052Y-6381200D01*
X11415052Y-6381200D02*
X11424575Y-6390724D01*
X11424575Y-6390724D02*
X11434099Y-6409771D01*
X11434099Y-6409771D02*
X11443623Y-6447867D01*
X11443623Y-6447867D02*
X11443623Y-6495486D01*
X11443623Y-6495486D02*
X11434099Y-6533581D01*
X11434099Y-6533581D02*
X11424575Y-6552628D01*
X11424575Y-6552628D02*
X11415052Y-6562152D01*
X11415052Y-6562152D02*
X11396004Y-6571676D01*
X11396004Y-6571676D02*
X11376956Y-6571676D01*
X11376956Y-6571676D02*
X11357909Y-6562152D01*
X11357909Y-6562152D02*
X11348385Y-6552628D01*
X11348385Y-6552628D02*
X11338861Y-6533581D01*
X11338861Y-6533581D02*
X11329337Y-6495486D01*
X11329337Y-6495486D02*
X11329337Y-6447867D01*
X11329337Y-6447867D02*
X11338861Y-6409771D01*
X11338861Y-6409771D02*
X11348385Y-6390724D01*
X11348385Y-6390724D02*
X11357909Y-6381200D01*
X11357909Y-6381200D02*
X11376956Y-6371676D01*
X11529337Y-6552628D02*
X11538861Y-6562152D01*
X11538861Y-6562152D02*
X11529337Y-6571676D01*
X11529337Y-6571676D02*
X11519813Y-6562152D01*
X11519813Y-6562152D02*
X11529337Y-6552628D01*
X11529337Y-6552628D02*
X11529337Y-6571676D01*
X11662671Y-6371676D02*
X11681718Y-6371676D01*
X11681718Y-6371676D02*
X11700766Y-6381200D01*
X11700766Y-6381200D02*
X11710290Y-6390724D01*
X11710290Y-6390724D02*
X11719813Y-6409771D01*
X11719813Y-6409771D02*
X11729337Y-6447867D01*
X11729337Y-6447867D02*
X11729337Y-6495486D01*
X11729337Y-6495486D02*
X11719813Y-6533581D01*
X11719813Y-6533581D02*
X11710290Y-6552628D01*
X11710290Y-6552628D02*
X11700766Y-6562152D01*
X11700766Y-6562152D02*
X11681718Y-6571676D01*
X11681718Y-6571676D02*
X11662671Y-6571676D01*
X11662671Y-6571676D02*
X11643623Y-6562152D01*
X11643623Y-6562152D02*
X11634099Y-6552628D01*
X11634099Y-6552628D02*
X11624575Y-6533581D01*
X11624575Y-6533581D02*
X11615052Y-6495486D01*
X11615052Y-6495486D02*
X11615052Y-6447867D01*
X11615052Y-6447867D02*
X11624575Y-6409771D01*
X11624575Y-6409771D02*
X11634099Y-6390724D01*
X11634099Y-6390724D02*
X11643623Y-6381200D01*
X11643623Y-6381200D02*
X11662671Y-6371676D01*
X11900766Y-6438343D02*
X11900766Y-6571676D01*
X11853147Y-6362152D02*
X11805528Y-6505009D01*
X11805528Y-6505009D02*
X11929337Y-6505009D01*
X11986480Y-6371676D02*
X12119813Y-6371676D01*
X12119813Y-6371676D02*
X12034099Y-6571676D01*
X12186480Y-6390724D02*
X12196004Y-6381200D01*
X12196004Y-6381200D02*
X12215052Y-6371676D01*
X12215052Y-6371676D02*
X12262671Y-6371676D01*
X12262671Y-6371676D02*
X12281718Y-6381200D01*
X12281718Y-6381200D02*
X12291242Y-6390724D01*
X12291242Y-6390724D02*
X12300766Y-6409771D01*
X12300766Y-6409771D02*
X12300766Y-6428819D01*
X12300766Y-6428819D02*
X12291242Y-6457390D01*
X12291242Y-6457390D02*
X12176956Y-6571676D01*
X12176956Y-6571676D02*
X12300766Y-6571676D01*
X12376956Y-6371676D02*
X12376956Y-6409771D01*
X12453147Y-6371676D02*
X12453147Y-6409771D01*
X12716004Y-6647867D02*
X12706480Y-6638343D01*
X12706480Y-6638343D02*
X12687433Y-6609771D01*
X12687433Y-6609771D02*
X12677909Y-6590724D01*
X12677909Y-6590724D02*
X12668385Y-6562152D01*
X12668385Y-6562152D02*
X12658861Y-6514533D01*
X12658861Y-6514533D02*
X12658861Y-6476438D01*
X12658861Y-6476438D02*
X12668385Y-6428819D01*
X12668385Y-6428819D02*
X12677909Y-6400248D01*
X12677909Y-6400248D02*
X12687433Y-6381200D01*
X12687433Y-6381200D02*
X12706480Y-6352628D01*
X12706480Y-6352628D02*
X12716004Y-6343105D01*
X12887433Y-6371676D02*
X12792194Y-6371676D01*
X12792194Y-6371676D02*
X12782671Y-6466914D01*
X12782671Y-6466914D02*
X12792194Y-6457390D01*
X12792194Y-6457390D02*
X12811242Y-6447867D01*
X12811242Y-6447867D02*
X12858861Y-6447867D01*
X12858861Y-6447867D02*
X12877909Y-6457390D01*
X12877909Y-6457390D02*
X12887433Y-6466914D01*
X12887433Y-6466914D02*
X12896956Y-6485962D01*
X12896956Y-6485962D02*
X12896956Y-6533581D01*
X12896956Y-6533581D02*
X12887433Y-6552628D01*
X12887433Y-6552628D02*
X12877909Y-6562152D01*
X12877909Y-6562152D02*
X12858861Y-6571676D01*
X12858861Y-6571676D02*
X12811242Y-6571676D01*
X12811242Y-6571676D02*
X12792194Y-6562152D01*
X12792194Y-6562152D02*
X12782671Y-6552628D01*
X13102671Y-6571676D02*
X13102671Y-6371676D01*
X13188385Y-6571676D02*
X13188385Y-6466914D01*
X13188385Y-6466914D02*
X13178861Y-6447867D01*
X13178861Y-6447867D02*
X13159814Y-6438343D01*
X13159814Y-6438343D02*
X13131242Y-6438343D01*
X13131242Y-6438343D02*
X13112194Y-6447867D01*
X13112194Y-6447867D02*
X13102671Y-6457390D01*
X13312194Y-6571676D02*
X13293147Y-6562152D01*
X13293147Y-6562152D02*
X13283623Y-6552628D01*
X13283623Y-6552628D02*
X13274099Y-6533581D01*
X13274099Y-6533581D02*
X13274099Y-6476438D01*
X13274099Y-6476438D02*
X13283623Y-6457390D01*
X13283623Y-6457390D02*
X13293147Y-6447867D01*
X13293147Y-6447867D02*
X13312194Y-6438343D01*
X13312194Y-6438343D02*
X13340766Y-6438343D01*
X13340766Y-6438343D02*
X13359814Y-6447867D01*
X13359814Y-6447867D02*
X13369337Y-6457390D01*
X13369337Y-6457390D02*
X13378861Y-6476438D01*
X13378861Y-6476438D02*
X13378861Y-6533581D01*
X13378861Y-6533581D02*
X13369337Y-6552628D01*
X13369337Y-6552628D02*
X13359814Y-6562152D01*
X13359814Y-6562152D02*
X13340766Y-6571676D01*
X13340766Y-6571676D02*
X13312194Y-6571676D01*
X13493147Y-6571676D02*
X13474099Y-6562152D01*
X13474099Y-6562152D02*
X13464575Y-6543105D01*
X13464575Y-6543105D02*
X13464575Y-6371676D01*
X13645528Y-6562152D02*
X13626480Y-6571676D01*
X13626480Y-6571676D02*
X13588385Y-6571676D01*
X13588385Y-6571676D02*
X13569337Y-6562152D01*
X13569337Y-6562152D02*
X13559814Y-6543105D01*
X13559814Y-6543105D02*
X13559814Y-6466914D01*
X13559814Y-6466914D02*
X13569337Y-6447867D01*
X13569337Y-6447867D02*
X13588385Y-6438343D01*
X13588385Y-6438343D02*
X13626480Y-6438343D01*
X13626480Y-6438343D02*
X13645528Y-6447867D01*
X13645528Y-6447867D02*
X13655052Y-6466914D01*
X13655052Y-6466914D02*
X13655052Y-6485962D01*
X13655052Y-6485962D02*
X13559814Y-6505009D01*
X13731242Y-6562152D02*
X13750290Y-6571676D01*
X13750290Y-6571676D02*
X13788385Y-6571676D01*
X13788385Y-6571676D02*
X13807433Y-6562152D01*
X13807433Y-6562152D02*
X13816956Y-6543105D01*
X13816956Y-6543105D02*
X13816956Y-6533581D01*
X13816956Y-6533581D02*
X13807433Y-6514533D01*
X13807433Y-6514533D02*
X13788385Y-6505009D01*
X13788385Y-6505009D02*
X13759814Y-6505009D01*
X13759814Y-6505009D02*
X13740766Y-6495486D01*
X13740766Y-6495486D02*
X13731242Y-6476438D01*
X13731242Y-6476438D02*
X13731242Y-6466914D01*
X13731242Y-6466914D02*
X13740766Y-6447867D01*
X13740766Y-6447867D02*
X13759814Y-6438343D01*
X13759814Y-6438343D02*
X13788385Y-6438343D01*
X13788385Y-6438343D02*
X13807433Y-6447867D01*
X13883623Y-6647867D02*
X13893147Y-6638343D01*
X13893147Y-6638343D02*
X13912195Y-6609771D01*
X13912195Y-6609771D02*
X13921718Y-6590724D01*
X13921718Y-6590724D02*
X13931242Y-6562152D01*
X13931242Y-6562152D02*
X13940766Y-6514533D01*
X13940766Y-6514533D02*
X13940766Y-6476438D01*
X13940766Y-6476438D02*
X13931242Y-6428819D01*
X13931242Y-6428819D02*
X13921718Y-6400248D01*
X13921718Y-6400248D02*
X13912195Y-6381200D01*
X13912195Y-6381200D02*
X13893147Y-6352628D01*
X13893147Y-6352628D02*
X13883623Y-6343105D01*
X14213147Y-6647867D02*
X14203623Y-6638343D01*
X14203623Y-6638343D02*
X14184575Y-6609771D01*
X14184575Y-6609771D02*
X14175052Y-6590724D01*
X14175052Y-6590724D02*
X14165528Y-6562152D01*
X14165528Y-6562152D02*
X14156004Y-6514533D01*
X14156004Y-6514533D02*
X14156004Y-6476438D01*
X14156004Y-6476438D02*
X14165528Y-6428819D01*
X14165528Y-6428819D02*
X14175052Y-6400248D01*
X14175052Y-6400248D02*
X14184575Y-6381200D01*
X14184575Y-6381200D02*
X14203623Y-6352628D01*
X14203623Y-6352628D02*
X14213147Y-6343105D01*
X14289337Y-6438343D02*
X14289337Y-6571676D01*
X14289337Y-6457390D02*
X14298861Y-6447867D01*
X14298861Y-6447867D02*
X14317909Y-6438343D01*
X14317909Y-6438343D02*
X14346480Y-6438343D01*
X14346480Y-6438343D02*
X14365528Y-6447867D01*
X14365528Y-6447867D02*
X14375052Y-6466914D01*
X14375052Y-6466914D02*
X14375052Y-6571676D01*
X14498861Y-6571676D02*
X14479814Y-6562152D01*
X14479814Y-6562152D02*
X14470290Y-6552628D01*
X14470290Y-6552628D02*
X14460766Y-6533581D01*
X14460766Y-6533581D02*
X14460766Y-6476438D01*
X14460766Y-6476438D02*
X14470290Y-6457390D01*
X14470290Y-6457390D02*
X14479814Y-6447867D01*
X14479814Y-6447867D02*
X14498861Y-6438343D01*
X14498861Y-6438343D02*
X14527433Y-6438343D01*
X14527433Y-6438343D02*
X14546480Y-6447867D01*
X14546480Y-6447867D02*
X14556004Y-6457390D01*
X14556004Y-6457390D02*
X14565528Y-6476438D01*
X14565528Y-6476438D02*
X14565528Y-6533581D01*
X14565528Y-6533581D02*
X14556004Y-6552628D01*
X14556004Y-6552628D02*
X14546480Y-6562152D01*
X14546480Y-6562152D02*
X14527433Y-6571676D01*
X14527433Y-6571676D02*
X14498861Y-6571676D01*
X14622671Y-6438343D02*
X14698861Y-6438343D01*
X14651242Y-6371676D02*
X14651242Y-6543105D01*
X14651242Y-6543105D02*
X14660766Y-6562152D01*
X14660766Y-6562152D02*
X14679814Y-6571676D01*
X14679814Y-6571676D02*
X14698861Y-6571676D01*
X14885528Y-6438343D02*
X14885528Y-6638343D01*
X14885528Y-6447867D02*
X14904575Y-6438343D01*
X14904575Y-6438343D02*
X14942671Y-6438343D01*
X14942671Y-6438343D02*
X14961718Y-6447867D01*
X14961718Y-6447867D02*
X14971242Y-6457390D01*
X14971242Y-6457390D02*
X14980766Y-6476438D01*
X14980766Y-6476438D02*
X14980766Y-6533581D01*
X14980766Y-6533581D02*
X14971242Y-6552628D01*
X14971242Y-6552628D02*
X14961718Y-6562152D01*
X14961718Y-6562152D02*
X14942671Y-6571676D01*
X14942671Y-6571676D02*
X14904575Y-6571676D01*
X14904575Y-6571676D02*
X14885528Y-6562152D01*
X15095052Y-6571676D02*
X15076004Y-6562152D01*
X15076004Y-6562152D02*
X15066480Y-6543105D01*
X15066480Y-6543105D02*
X15066480Y-6371676D01*
X15256956Y-6571676D02*
X15256956Y-6466914D01*
X15256956Y-6466914D02*
X15247433Y-6447867D01*
X15247433Y-6447867D02*
X15228385Y-6438343D01*
X15228385Y-6438343D02*
X15190290Y-6438343D01*
X15190290Y-6438343D02*
X15171242Y-6447867D01*
X15256956Y-6562152D02*
X15237909Y-6571676D01*
X15237909Y-6571676D02*
X15190290Y-6571676D01*
X15190290Y-6571676D02*
X15171242Y-6562152D01*
X15171242Y-6562152D02*
X15161718Y-6543105D01*
X15161718Y-6543105D02*
X15161718Y-6524057D01*
X15161718Y-6524057D02*
X15171242Y-6505009D01*
X15171242Y-6505009D02*
X15190290Y-6495486D01*
X15190290Y-6495486D02*
X15237909Y-6495486D01*
X15237909Y-6495486D02*
X15256956Y-6485962D01*
X15323623Y-6438343D02*
X15399814Y-6438343D01*
X15352195Y-6371676D02*
X15352195Y-6543105D01*
X15352195Y-6543105D02*
X15361718Y-6562152D01*
X15361718Y-6562152D02*
X15380766Y-6571676D01*
X15380766Y-6571676D02*
X15399814Y-6571676D01*
X15542671Y-6562152D02*
X15523623Y-6571676D01*
X15523623Y-6571676D02*
X15485528Y-6571676D01*
X15485528Y-6571676D02*
X15466480Y-6562152D01*
X15466480Y-6562152D02*
X15456956Y-6543105D01*
X15456956Y-6543105D02*
X15456956Y-6466914D01*
X15456956Y-6466914D02*
X15466480Y-6447867D01*
X15466480Y-6447867D02*
X15485528Y-6438343D01*
X15485528Y-6438343D02*
X15523623Y-6438343D01*
X15523623Y-6438343D02*
X15542671Y-6447867D01*
X15542671Y-6447867D02*
X15552195Y-6466914D01*
X15552195Y-6466914D02*
X15552195Y-6485962D01*
X15552195Y-6485962D02*
X15456956Y-6505009D01*
X15723623Y-6571676D02*
X15723623Y-6371676D01*
X15723623Y-6562152D02*
X15704576Y-6571676D01*
X15704576Y-6571676D02*
X15666480Y-6571676D01*
X15666480Y-6571676D02*
X15647433Y-6562152D01*
X15647433Y-6562152D02*
X15637909Y-6552628D01*
X15637909Y-6552628D02*
X15628385Y-6533581D01*
X15628385Y-6533581D02*
X15628385Y-6476438D01*
X15628385Y-6476438D02*
X15637909Y-6457390D01*
X15637909Y-6457390D02*
X15647433Y-6447867D01*
X15647433Y-6447867D02*
X15666480Y-6438343D01*
X15666480Y-6438343D02*
X15704576Y-6438343D01*
X15704576Y-6438343D02*
X15723623Y-6447867D01*
X15799814Y-6647867D02*
X15809337Y-6638343D01*
X15809337Y-6638343D02*
X15828385Y-6609771D01*
X15828385Y-6609771D02*
X15837909Y-6590724D01*
X15837909Y-6590724D02*
X15847433Y-6562152D01*
X15847433Y-6562152D02*
X15856956Y-6514533D01*
X15856956Y-6514533D02*
X15856956Y-6476438D01*
X15856956Y-6476438D02*
X15847433Y-6428819D01*
X15847433Y-6428819D02*
X15837909Y-6400248D01*
X15837909Y-6400248D02*
X15828385Y-6381200D01*
X15828385Y-6381200D02*
X15809337Y-6352628D01*
X15809337Y-6352628D02*
X15799814Y-6343105D01*
M02*
