%TF.GenerationSoftware,KiCad,Pcbnew,8.0.6*%
%TF.CreationDate,2024-10-21T18:23:27+02:00*%
%TF.ProjectId,AnalogI2SMic,416e616c-6f67-4493-9253-4d69632e6b69,rev?*%
%TF.SameCoordinates,Original*%
%TF.FileFunction,Soldermask,Top*%
%TF.FilePolarity,Negative*%
%FSLAX46Y46*%
G04 Gerber Fmt 4.6, Leading zero omitted, Abs format (unit mm)*
G04 Created by KiCad (PCBNEW 8.0.6) date 2024-10-21 18:23:27*
%MOMM*%
%LPD*%
G01*
G04 APERTURE LIST*
G04 Aperture macros list*
%AMRoundRect*
0 Rectangle with rounded corners*
0 $1 Rounding radius*
0 $2 $3 $4 $5 $6 $7 $8 $9 X,Y pos of 4 corners*
0 Add a 4 corners polygon primitive as box body*
4,1,4,$2,$3,$4,$5,$6,$7,$8,$9,$2,$3,0*
0 Add four circle primitives for the rounded corners*
1,1,$1+$1,$2,$3*
1,1,$1+$1,$4,$5*
1,1,$1+$1,$6,$7*
1,1,$1+$1,$8,$9*
0 Add four rect primitives between the rounded corners*
20,1,$1+$1,$2,$3,$4,$5,0*
20,1,$1+$1,$4,$5,$6,$7,0*
20,1,$1+$1,$6,$7,$8,$9,0*
20,1,$1+$1,$8,$9,$2,$3,0*%
G04 Aperture macros list end*
%ADD10C,0.130000*%
%ADD11C,0.160000*%
%ADD12RoundRect,0.140000X-0.170000X0.140000X-0.170000X-0.140000X0.170000X-0.140000X0.170000X0.140000X0*%
%ADD13RoundRect,0.135000X-0.185000X0.135000X-0.185000X-0.135000X0.185000X-0.135000X0.185000X0.135000X0*%
%ADD14RoundRect,0.135000X0.185000X-0.135000X0.185000X0.135000X-0.185000X0.135000X-0.185000X-0.135000X0*%
%ADD15RoundRect,0.140000X0.170000X-0.140000X0.170000X0.140000X-0.170000X0.140000X-0.170000X-0.140000X0*%
%ADD16C,0.500000*%
%ADD17RoundRect,0.140000X0.140000X0.170000X-0.140000X0.170000X-0.140000X-0.170000X0.140000X-0.170000X0*%
%ADD18RoundRect,0.135000X0.135000X0.185000X-0.135000X0.185000X-0.135000X-0.185000X0.135000X-0.185000X0*%
%ADD19RoundRect,0.250000X0.787500X1.025000X-0.787500X1.025000X-0.787500X-1.025000X0.787500X-1.025000X0*%
%ADD20O,1.200000X2.200000*%
%ADD21O,2.200000X1.200000*%
%ADD22R,1.500000X1.500000*%
%ADD23C,1.500000*%
%ADD24R,1.500000X1.000000*%
%ADD25RoundRect,0.250000X1.025000X-0.787500X1.025000X0.787500X-1.025000X0.787500X-1.025000X-0.787500X0*%
%ADD26RoundRect,0.218750X-0.256250X0.218750X-0.256250X-0.218750X0.256250X-0.218750X0.256250X0.218750X0*%
%ADD27RoundRect,0.062500X-0.375000X-0.062500X0.375000X-0.062500X0.375000X0.062500X-0.375000X0.062500X0*%
%ADD28RoundRect,0.062500X-0.062500X-0.375000X0.062500X-0.375000X0.062500X0.375000X-0.062500X0.375000X0*%
%ADD29R,2.500000X2.500000*%
%ADD30R,1.700000X1.700000*%
%ADD31O,1.700000X1.700000*%
G04 APERTURE END LIST*
D10*
G36*
X92091500Y-56425759D02*
G01*
X91957508Y-56470846D01*
X91957508Y-56705808D01*
X92091500Y-56750419D01*
X92091500Y-56892824D01*
X91441386Y-56650877D01*
X91441386Y-56588803D01*
X91605700Y-56588803D01*
X91849076Y-56669611D01*
X91849076Y-56507043D01*
X91605700Y-56588803D01*
X91441386Y-56588803D01*
X91441386Y-56526729D01*
X92091500Y-56283353D01*
X92091500Y-56425759D01*
G37*
G36*
X91608399Y-56137137D02*
G01*
X91664123Y-56133009D01*
X91638946Y-56108680D01*
X91619953Y-56080978D01*
X91607144Y-56049902D01*
X91600519Y-56015454D01*
X91599509Y-55994255D01*
X91601666Y-55962522D01*
X91609416Y-55930870D01*
X91624870Y-55901143D01*
X91644596Y-55879949D01*
X91673487Y-55861698D01*
X91705092Y-55850367D01*
X91737321Y-55844229D01*
X91773819Y-55841615D01*
X91779382Y-55841530D01*
X92091500Y-55841530D01*
X92091500Y-55970600D01*
X91782557Y-55970600D01*
X91750924Y-55974034D01*
X91723023Y-55988540D01*
X91707513Y-56017994D01*
X91704448Y-56047756D01*
X91709926Y-56081986D01*
X91726359Y-56109799D01*
X91750805Y-56129517D01*
X92091500Y-56129517D01*
X92091500Y-56258587D01*
X91608399Y-56258587D01*
X91608399Y-56137137D01*
G37*
G36*
X92091500Y-55466544D02*
G01*
X92060571Y-55477260D01*
X92048159Y-55479562D01*
X92071010Y-55504745D01*
X92087332Y-55533460D01*
X92097125Y-55565708D01*
X92100390Y-55601488D01*
X92097830Y-55635452D01*
X92090150Y-55666380D01*
X92075390Y-55697545D01*
X92059430Y-55719128D01*
X92034606Y-55741690D01*
X92006391Y-55756869D01*
X91974785Y-55764663D01*
X91955762Y-55765802D01*
X91923861Y-55763083D01*
X91891609Y-55753314D01*
X91863841Y-55736441D01*
X91840558Y-55712464D01*
X91837963Y-55708967D01*
X91819944Y-55677305D01*
X91808345Y-55644407D01*
X91801499Y-55612352D01*
X91797510Y-55576736D01*
X91796369Y-55544335D01*
X91796369Y-55533063D01*
X91871779Y-55533063D01*
X91874134Y-55566246D01*
X91882836Y-55596890D01*
X91903445Y-55623518D01*
X91934653Y-55635780D01*
X91938774Y-55636256D01*
X91946395Y-55636732D01*
X91977859Y-55627177D01*
X91986243Y-55619745D01*
X92000282Y-55590535D01*
X92001801Y-55573388D01*
X91997324Y-55541020D01*
X91989101Y-55520680D01*
X91969678Y-55495415D01*
X91954809Y-55484960D01*
X91871779Y-55484960D01*
X91871779Y-55533063D01*
X91796369Y-55533063D01*
X91796369Y-55484960D01*
X91768745Y-55484960D01*
X91736917Y-55489799D01*
X91715085Y-55502106D01*
X91698250Y-55529518D01*
X91694922Y-55556401D01*
X91699895Y-55588594D01*
X91710639Y-55607521D01*
X91739074Y-55624480D01*
X91753504Y-55625937D01*
X91753504Y-55755007D01*
X91720472Y-55750736D01*
X91689484Y-55737924D01*
X91675871Y-55729129D01*
X91651247Y-55706707D01*
X91632479Y-55680858D01*
X91619830Y-55655942D01*
X91609114Y-55625226D01*
X91602367Y-55592216D01*
X91599688Y-55560544D01*
X91599509Y-55549574D01*
X91601088Y-55517411D01*
X91606924Y-55483160D01*
X91617059Y-55452434D01*
X91633907Y-55421635D01*
X91644437Y-55407962D01*
X91669104Y-55384972D01*
X91698336Y-55368551D01*
X91732131Y-55358698D01*
X91765447Y-55355465D01*
X91770491Y-55355413D01*
X91979893Y-55355413D01*
X92012170Y-55354034D01*
X92046629Y-55349101D01*
X92076976Y-55339556D01*
X92083879Y-55336204D01*
X92091500Y-55336204D01*
X92091500Y-55466544D01*
G37*
G36*
X92091500Y-55122674D02*
G01*
X92091500Y-55252221D01*
X91405666Y-55252221D01*
X91405666Y-55122674D01*
X92091500Y-55122674D01*
G37*
G36*
X91888492Y-54581555D02*
G01*
X91920037Y-54586102D01*
X91955047Y-54595559D01*
X91986954Y-54609380D01*
X92015757Y-54627566D01*
X92033235Y-54642114D01*
X92056057Y-54666834D01*
X92074158Y-54694556D01*
X92087536Y-54725282D01*
X92096193Y-54759010D01*
X92100128Y-54795740D01*
X92100390Y-54808651D01*
X92098035Y-54846340D01*
X92090969Y-54881060D01*
X92079192Y-54912810D01*
X92062705Y-54941591D01*
X92041507Y-54967403D01*
X92033394Y-54975347D01*
X92006580Y-54996497D01*
X91976383Y-55013270D01*
X91942804Y-55025668D01*
X91905842Y-55033691D01*
X91872457Y-55037033D01*
X91851299Y-55037580D01*
X91845425Y-55037580D01*
X91810448Y-55035854D01*
X91777437Y-55030674D01*
X91746390Y-55022042D01*
X91717307Y-55009956D01*
X91687704Y-54992484D01*
X91662119Y-54971144D01*
X91640553Y-54945936D01*
X91630308Y-54930260D01*
X91615420Y-54899650D01*
X91605404Y-54866404D01*
X91600592Y-54834637D01*
X91599509Y-54809445D01*
X91703972Y-54809445D01*
X91709151Y-54841936D01*
X91726452Y-54870382D01*
X91740803Y-54882791D01*
X91770890Y-54897524D01*
X91802595Y-54905030D01*
X91836133Y-54908264D01*
X91854792Y-54908669D01*
X91887148Y-54907051D01*
X91918735Y-54901365D01*
X91950416Y-54888856D01*
X91960048Y-54882791D01*
X91983587Y-54857995D01*
X91995125Y-54825914D01*
X91996404Y-54808651D01*
X91991358Y-54776309D01*
X91974505Y-54747823D01*
X91960524Y-54735305D01*
X91930664Y-54720301D01*
X91898671Y-54712657D01*
X91864518Y-54709363D01*
X91845425Y-54708951D01*
X91813663Y-54710598D01*
X91779292Y-54717290D01*
X91748323Y-54730595D01*
X91741121Y-54735305D01*
X91718483Y-54758084D01*
X91705749Y-54789564D01*
X91703972Y-54809445D01*
X91599509Y-54809445D01*
X91601613Y-54774039D01*
X91607926Y-54741167D01*
X91618446Y-54710829D01*
X91636040Y-54678637D01*
X91659361Y-54649893D01*
X91683258Y-54628601D01*
X91710181Y-54611159D01*
X91740128Y-54597568D01*
X91773101Y-54587829D01*
X91809098Y-54581941D01*
X91821770Y-54580834D01*
X91854792Y-54580040D01*
X91888492Y-54581555D01*
G37*
G36*
X92109790Y-54082556D02*
G01*
X92141503Y-54089412D01*
X92173677Y-54102392D01*
X92185643Y-54109164D01*
X92212812Y-54129418D01*
X92235577Y-54154261D01*
X92253940Y-54183694D01*
X92257084Y-54190131D01*
X92268979Y-54220930D01*
X92276981Y-54254567D01*
X92280826Y-54286850D01*
X92281691Y-54312533D01*
X92279614Y-54345509D01*
X92273381Y-54377959D01*
X92262994Y-54409881D01*
X92260418Y-54416202D01*
X92246012Y-54445268D01*
X92227372Y-54471726D01*
X92205805Y-54492406D01*
X92127220Y-54435253D01*
X92150835Y-54409901D01*
X92167703Y-54381950D01*
X92177824Y-54351399D01*
X92181198Y-54318248D01*
X92177952Y-54285677D01*
X92165749Y-54254100D01*
X92153733Y-54238393D01*
X92127644Y-54219891D01*
X92096865Y-54211184D01*
X92075941Y-54209817D01*
X92049905Y-54209817D01*
X92071992Y-54233888D01*
X92087769Y-54261492D01*
X92097235Y-54292629D01*
X92100390Y-54327297D01*
X92097131Y-54363772D01*
X92087354Y-54397071D01*
X92071059Y-54427194D01*
X92048245Y-54454143D01*
X92032283Y-54468116D01*
X92005185Y-54486406D01*
X91974974Y-54500912D01*
X91941648Y-54511633D01*
X91905207Y-54518571D01*
X91872461Y-54521462D01*
X91851775Y-54521935D01*
X91846377Y-54521935D01*
X91812707Y-54520644D01*
X91781153Y-54516772D01*
X91746082Y-54508718D01*
X91714058Y-54496947D01*
X91685082Y-54481459D01*
X91667457Y-54469068D01*
X91640981Y-54444115D01*
X91621008Y-54415652D01*
X91607538Y-54383679D01*
X91600571Y-54348196D01*
X91599509Y-54326345D01*
X91602109Y-54293323D01*
X91704448Y-54293323D01*
X91709784Y-54325323D01*
X91727607Y-54353741D01*
X91742391Y-54366352D01*
X91772904Y-54381446D01*
X91804455Y-54389136D01*
X91837477Y-54392450D01*
X91855744Y-54392864D01*
X91890390Y-54390780D01*
X91923643Y-54383574D01*
X91953845Y-54369702D01*
X91958619Y-54366511D01*
X91981354Y-54343999D01*
X91994142Y-54313414D01*
X91995927Y-54294276D01*
X91991617Y-54260651D01*
X91976920Y-54231257D01*
X91951793Y-54209817D01*
X91748583Y-54209817D01*
X91723455Y-54231359D01*
X91708758Y-54260406D01*
X91704448Y-54293323D01*
X91602109Y-54293323D01*
X91602115Y-54293241D01*
X91611474Y-54259557D01*
X91627640Y-54230299D01*
X91650613Y-54205466D01*
X91653963Y-54202673D01*
X91608399Y-54197275D01*
X91608399Y-54080270D01*
X92075465Y-54080270D01*
X92109790Y-54082556D01*
G37*
G36*
X92091500Y-53832767D02*
G01*
X92091500Y-53966758D01*
X91441386Y-53966758D01*
X91441386Y-53832767D01*
X92091500Y-53832767D01*
G37*
G36*
X92091500Y-53278702D02*
G01*
X92091500Y-53724335D01*
X92003071Y-53724335D01*
X91778905Y-53513981D01*
X91753248Y-53491385D01*
X91726978Y-53470461D01*
X91698566Y-53451165D01*
X91696351Y-53449843D01*
X91666181Y-53435626D01*
X91633338Y-53429127D01*
X91629355Y-53429046D01*
X91597206Y-53432661D01*
X91567730Y-53445819D01*
X91561248Y-53450954D01*
X91542674Y-53477546D01*
X91536506Y-53510983D01*
X91536482Y-53513505D01*
X91541460Y-53546041D01*
X91557956Y-53574223D01*
X91566646Y-53582564D01*
X91594272Y-53598805D01*
X91625308Y-53606448D01*
X91645866Y-53607648D01*
X91645866Y-53737195D01*
X91613284Y-53734959D01*
X91578996Y-53727232D01*
X91546723Y-53713986D01*
X91537435Y-53708936D01*
X91508768Y-53688896D01*
X91484288Y-53664297D01*
X91465835Y-53638262D01*
X91460437Y-53628763D01*
X91446930Y-53598481D01*
X91437844Y-53566040D01*
X91433178Y-53531438D01*
X91432496Y-53511282D01*
X91434192Y-53475176D01*
X91439283Y-53442230D01*
X91449510Y-53407785D01*
X91464356Y-53377640D01*
X91480758Y-53355223D01*
X91507300Y-53330913D01*
X91538824Y-53313549D01*
X91570493Y-53304053D01*
X91605975Y-53299875D01*
X91616814Y-53299658D01*
X91650200Y-53302622D01*
X91684000Y-53311514D01*
X91715085Y-53324742D01*
X91744521Y-53341588D01*
X91772879Y-53361306D01*
X91799385Y-53382222D01*
X91827472Y-53406557D01*
X91831613Y-53410312D01*
X91987513Y-53558116D01*
X91987513Y-53278702D01*
X92091500Y-53278702D01*
G37*
G36*
X91920994Y-52851326D02*
G01*
X91889294Y-52857221D01*
X91864017Y-52876505D01*
X91862729Y-52878156D01*
X91845852Y-52906927D01*
X91832370Y-52938722D01*
X91821272Y-52970208D01*
X91819865Y-52974522D01*
X91808633Y-53007553D01*
X91796091Y-53040373D01*
X91782275Y-53071449D01*
X91775413Y-53084859D01*
X91755693Y-53116736D01*
X91733943Y-53143211D01*
X91710162Y-53164283D01*
X91678944Y-53182437D01*
X91644801Y-53192811D01*
X91614115Y-53195513D01*
X91582372Y-53192614D01*
X91549999Y-53182727D01*
X91520289Y-53165825D01*
X91496174Y-53144743D01*
X91475626Y-53118607D01*
X91460181Y-53090763D01*
X91455674Y-53080572D01*
X91444470Y-53048237D01*
X91436932Y-53013741D01*
X91433311Y-52981265D01*
X91432496Y-52955788D01*
X91434073Y-52921894D01*
X91438806Y-52889904D01*
X91447902Y-52856193D01*
X91457738Y-52831640D01*
X91473582Y-52802931D01*
X91495045Y-52775539D01*
X91520571Y-52752891D01*
X91529020Y-52747022D01*
X91558921Y-52731115D01*
X91591271Y-52721100D01*
X91626070Y-52716976D01*
X91633324Y-52716858D01*
X91633324Y-52850849D01*
X91600353Y-52855487D01*
X91572171Y-52870854D01*
X91563947Y-52878950D01*
X91547017Y-52907913D01*
X91540052Y-52939704D01*
X91539181Y-52958011D01*
X91542106Y-52991745D01*
X91552910Y-53023369D01*
X91559978Y-53034374D01*
X91585670Y-53055680D01*
X91614591Y-53061680D01*
X91645415Y-53052674D01*
X91667775Y-53029770D01*
X91683469Y-53001498D01*
X91695969Y-52971492D01*
X91706767Y-52939477D01*
X91707941Y-52935626D01*
X91719109Y-52901421D01*
X91731084Y-52870247D01*
X91746519Y-52836839D01*
X91763114Y-52807796D01*
X91783942Y-52779428D01*
X91793352Y-52769089D01*
X91820321Y-52746238D01*
X91850426Y-52729916D01*
X91883666Y-52720122D01*
X91915323Y-52716909D01*
X91920041Y-52716858D01*
X91955245Y-52719919D01*
X91986954Y-52729104D01*
X92015168Y-52744411D01*
X92039888Y-52765842D01*
X92052445Y-52780837D01*
X92071127Y-52810871D01*
X92085220Y-52845128D01*
X92093648Y-52877853D01*
X92098704Y-52913682D01*
X92100343Y-52945909D01*
X92100390Y-52952613D01*
X92099076Y-52984820D01*
X92094355Y-53020047D01*
X92086201Y-53053587D01*
X92074615Y-53085441D01*
X92072925Y-53089304D01*
X92057922Y-53118277D01*
X92038008Y-53146507D01*
X92014879Y-53170116D01*
X91997674Y-53183288D01*
X91969601Y-53198944D01*
X91939142Y-53209476D01*
X91906297Y-53214884D01*
X91887019Y-53215675D01*
X91887019Y-53081207D01*
X91923599Y-53076686D01*
X91952611Y-53063124D01*
X91976893Y-53035873D01*
X91989507Y-53002720D01*
X91994237Y-52968185D01*
X91994657Y-52952613D01*
X91991934Y-52919743D01*
X91981871Y-52888900D01*
X91975289Y-52878156D01*
X91950240Y-52857221D01*
X91920994Y-52851326D01*
G37*
G36*
X91441386Y-52453955D02*
G01*
X91912897Y-52286942D01*
X91441386Y-52120881D01*
X91441386Y-51944977D01*
X92091500Y-51944977D01*
X92091500Y-52079286D01*
X91913849Y-52079286D01*
X91606971Y-52065951D01*
X92091500Y-52241378D01*
X92091500Y-52333299D01*
X91607447Y-52508409D01*
X91913849Y-52495073D01*
X92091500Y-52495073D01*
X92091500Y-52628906D01*
X91441386Y-52628906D01*
X91441386Y-52453955D01*
G37*
G36*
X92091500Y-51704300D02*
G01*
X92091500Y-51833847D01*
X91608399Y-51833847D01*
X91608399Y-51704300D01*
X92091500Y-51704300D01*
G37*
G36*
X91483298Y-51841308D02*
G01*
X91451150Y-51833742D01*
X91435671Y-51821940D01*
X91419897Y-51793959D01*
X91416779Y-51769073D01*
X91422111Y-51737752D01*
X91435671Y-51716366D01*
X91463057Y-51699448D01*
X91483298Y-51696680D01*
X91514558Y-51703676D01*
X91531561Y-51716525D01*
X91547202Y-51744624D01*
X91550294Y-51769073D01*
X91544367Y-51801668D01*
X91531561Y-51821464D01*
X91503927Y-51838518D01*
X91483298Y-51841308D01*
G37*
G36*
X91996404Y-51398215D02*
G01*
X91991482Y-51365868D01*
X91976718Y-51340269D01*
X91950502Y-51321867D01*
X91924486Y-51316931D01*
X91924486Y-51195958D01*
X91957256Y-51199343D01*
X91988112Y-51208844D01*
X92014502Y-51222788D01*
X92040395Y-51243195D01*
X92061974Y-51268179D01*
X92077846Y-51294864D01*
X92089735Y-51324386D01*
X92097220Y-51355799D01*
X92100302Y-51389105D01*
X92100390Y-51395993D01*
X92098079Y-51433328D01*
X92091147Y-51467582D01*
X92079594Y-51498756D01*
X92063419Y-51526849D01*
X92042623Y-51551860D01*
X92034664Y-51559513D01*
X92008188Y-51579799D01*
X91978174Y-51595889D01*
X91944621Y-51607780D01*
X91907529Y-51615475D01*
X91873916Y-51618681D01*
X91852569Y-51619206D01*
X91844155Y-51619206D01*
X91810378Y-51617756D01*
X91778804Y-51613408D01*
X91743820Y-51604362D01*
X91712006Y-51591142D01*
X91683363Y-51573747D01*
X91666028Y-51559831D01*
X91643422Y-51536013D01*
X91625493Y-51509093D01*
X91612241Y-51479069D01*
X91603666Y-51445942D01*
X91599769Y-51409711D01*
X91599509Y-51396945D01*
X91601323Y-51364218D01*
X91608024Y-51329239D01*
X91619664Y-51297709D01*
X91636241Y-51269628D01*
X91651105Y-51251682D01*
X91675250Y-51230294D01*
X91702677Y-51214058D01*
X91733385Y-51202972D01*
X91767376Y-51197037D01*
X91788272Y-51195958D01*
X91788272Y-51316931D01*
X91756251Y-51322533D01*
X91728940Y-51338890D01*
X91727468Y-51340269D01*
X91709134Y-51367961D01*
X91703972Y-51399168D01*
X91709395Y-51432159D01*
X91727367Y-51459542D01*
X91736834Y-51467275D01*
X91767122Y-51481303D01*
X91801162Y-51488047D01*
X91834154Y-51490205D01*
X91843202Y-51490295D01*
X91856697Y-51490295D01*
X91891316Y-51488876D01*
X91924024Y-51483887D01*
X91955030Y-51472913D01*
X91963858Y-51467592D01*
X91986106Y-51443061D01*
X91995609Y-51412174D01*
X91996404Y-51398215D01*
G37*
D11*
G36*
X92236378Y-48555416D02*
G01*
X92236378Y-48673629D01*
X91367460Y-48378975D01*
X91367460Y-48260761D01*
X92236378Y-48555416D01*
G37*
G36*
X92236378Y-48273266D02*
G01*
X92236378Y-48391480D01*
X91367460Y-48096825D01*
X91367460Y-47978612D01*
X92236378Y-48273266D01*
G37*
G36*
X91917466Y-47371290D02*
G01*
X91956384Y-47375869D01*
X91999560Y-47385395D01*
X92038890Y-47399316D01*
X92074372Y-47417635D01*
X92095890Y-47432289D01*
X92128095Y-47461653D01*
X92152390Y-47495206D01*
X92168775Y-47532948D01*
X92177250Y-47574878D01*
X92178542Y-47600719D01*
X92174634Y-47643596D01*
X92162910Y-47682150D01*
X92143371Y-47716380D01*
X92116015Y-47746288D01*
X92396211Y-47746288D01*
X92396211Y-47905143D01*
X91573015Y-47905143D01*
X91573015Y-47757816D01*
X91631242Y-47752345D01*
X91600981Y-47721314D01*
X91579365Y-47685862D01*
X91566396Y-47645990D01*
X91566154Y-47643510D01*
X91691228Y-47643510D01*
X91696800Y-47685703D01*
X91715800Y-47721537D01*
X91748283Y-47746288D01*
X91991745Y-47746288D01*
X92025229Y-47720869D01*
X92044815Y-47684646D01*
X92050558Y-47642338D01*
X92044005Y-47603691D01*
X92019794Y-47568709D01*
X91984843Y-47547387D01*
X91945705Y-47535726D01*
X91897465Y-47529618D01*
X91864152Y-47528619D01*
X91825098Y-47530463D01*
X91782943Y-47537954D01*
X91745124Y-47552850D01*
X91736364Y-47558123D01*
X91707140Y-47586355D01*
X91692815Y-47623422D01*
X91691228Y-47643510D01*
X91566154Y-47643510D01*
X91562073Y-47601696D01*
X91564930Y-47562234D01*
X91575488Y-47520536D01*
X91593824Y-47483513D01*
X91619940Y-47451165D01*
X91643357Y-47430921D01*
X91681864Y-47407091D01*
X91719558Y-47391324D01*
X91761580Y-47379857D01*
X91807930Y-47372690D01*
X91849860Y-47370002D01*
X91867474Y-47369763D01*
X91875876Y-47369763D01*
X91917466Y-47371290D01*
G37*
G36*
X92167600Y-47107544D02*
G01*
X92167600Y-47266986D01*
X91573015Y-47266986D01*
X91573015Y-47107544D01*
X92167600Y-47107544D01*
G37*
G36*
X91419044Y-47276169D02*
G01*
X91379477Y-47266857D01*
X91360426Y-47252331D01*
X91341011Y-47217893D01*
X91337174Y-47187265D01*
X91343736Y-47148715D01*
X91360426Y-47122394D01*
X91394131Y-47101572D01*
X91419044Y-47098165D01*
X91457518Y-47106776D01*
X91478444Y-47122589D01*
X91497695Y-47157173D01*
X91501500Y-47187265D01*
X91494205Y-47227382D01*
X91478444Y-47251745D01*
X91444433Y-47272735D01*
X91419044Y-47276169D01*
G37*
G36*
X91921989Y-46838486D02*
G01*
X91962417Y-46828402D01*
X91998897Y-46807617D01*
X92015387Y-46792178D01*
X92038159Y-46757231D01*
X92048875Y-46719019D01*
X92050558Y-46694090D01*
X92046406Y-46650688D01*
X92033950Y-46612317D01*
X92013189Y-46578978D01*
X91984124Y-46550670D01*
X92071466Y-46472513D01*
X92103626Y-46500074D01*
X92130522Y-46533592D01*
X92150405Y-46569233D01*
X92165243Y-46608632D01*
X92174585Y-46650627D01*
X92178294Y-46690640D01*
X92178542Y-46704446D01*
X92176586Y-46744164D01*
X92169075Y-46788677D01*
X92155932Y-46829755D01*
X92137156Y-46867399D01*
X92112747Y-46901609D01*
X92098430Y-46917425D01*
X92066446Y-46945315D01*
X92030726Y-46967434D01*
X91991268Y-46983783D01*
X91948074Y-46994362D01*
X91909224Y-46998770D01*
X91884669Y-46999491D01*
X91869232Y-46999491D01*
X91825586Y-46997329D01*
X91784334Y-46990845D01*
X91745475Y-46980037D01*
X91709009Y-46964906D01*
X91671898Y-46943165D01*
X91639917Y-46916848D01*
X91613069Y-46885957D01*
X91600370Y-46866818D01*
X91581857Y-46829691D01*
X91569403Y-46789751D01*
X91563008Y-46746998D01*
X91562095Y-46722617D01*
X91690642Y-46722617D01*
X91697640Y-46763040D01*
X91720532Y-46797546D01*
X91722491Y-46799407D01*
X91755633Y-46821014D01*
X91795851Y-46833843D01*
X91813740Y-46836923D01*
X91813740Y-46615932D01*
X91801040Y-46615932D01*
X91762142Y-46621238D01*
X91725157Y-46639721D01*
X91719560Y-46644655D01*
X91697872Y-46677823D01*
X91690755Y-46716382D01*
X91690642Y-46722617D01*
X91562095Y-46722617D01*
X91562073Y-46722031D01*
X91564779Y-46678136D01*
X91572899Y-46637895D01*
X91589213Y-46595567D01*
X91612895Y-46558213D01*
X91639058Y-46530154D01*
X91670121Y-46506315D01*
X91705718Y-46487408D01*
X91745849Y-46473434D01*
X91790513Y-46464391D01*
X91831197Y-46460624D01*
X91857118Y-46460007D01*
X91921989Y-46460007D01*
X91921989Y-46838486D01*
G37*
G36*
X91721905Y-46039128D02*
G01*
X91718114Y-46078334D01*
X91717606Y-46096183D01*
X91721417Y-46137424D01*
X91734812Y-46174506D01*
X91761007Y-46204143D01*
X91778569Y-46214397D01*
X92167600Y-46214397D01*
X92167600Y-46373252D01*
X91573015Y-46373252D01*
X91573015Y-46223189D01*
X91643943Y-46218695D01*
X91612042Y-46196070D01*
X91585179Y-46165885D01*
X91567190Y-46126408D01*
X91562073Y-46086413D01*
X91566366Y-46047225D01*
X91569107Y-46036979D01*
X91721905Y-46039128D01*
G37*
G36*
X91573015Y-45819114D02*
G01*
X91641598Y-45814034D01*
X91610611Y-45784090D01*
X91587235Y-45749995D01*
X91571470Y-45711748D01*
X91563315Y-45669350D01*
X91562073Y-45643259D01*
X91564728Y-45604203D01*
X91574266Y-45565247D01*
X91593287Y-45528660D01*
X91617565Y-45502575D01*
X91653122Y-45480113D01*
X91692021Y-45466166D01*
X91731687Y-45458612D01*
X91776608Y-45455395D01*
X91783454Y-45455290D01*
X92167600Y-45455290D01*
X92167600Y-45614145D01*
X91787362Y-45614145D01*
X91748429Y-45618372D01*
X91714089Y-45636225D01*
X91695001Y-45672476D01*
X91691228Y-45709107D01*
X91697970Y-45751235D01*
X91718196Y-45785467D01*
X91748283Y-45809735D01*
X92167600Y-45809735D01*
X92167600Y-45968591D01*
X91573015Y-45968591D01*
X91573015Y-45819114D01*
G37*
G36*
X91917744Y-44801803D02*
G01*
X91956569Y-44807398D01*
X91999658Y-44819037D01*
X92038928Y-44836048D01*
X92074378Y-44858431D01*
X92095890Y-44876337D01*
X92123978Y-44906761D01*
X92146256Y-44940881D01*
X92162722Y-44978697D01*
X92173376Y-45020208D01*
X92178219Y-45065415D01*
X92178542Y-45081305D01*
X92175643Y-45127692D01*
X92166946Y-45170423D01*
X92152452Y-45209501D01*
X92132160Y-45244924D01*
X92106070Y-45276692D01*
X92096085Y-45286469D01*
X92063083Y-45312499D01*
X92025917Y-45333144D01*
X91984589Y-45348403D01*
X91939098Y-45358277D01*
X91898009Y-45362391D01*
X91871968Y-45363064D01*
X91864738Y-45363064D01*
X91821691Y-45360939D01*
X91781061Y-45354564D01*
X91742849Y-45343940D01*
X91707055Y-45329065D01*
X91670620Y-45307561D01*
X91639131Y-45281296D01*
X91612588Y-45250271D01*
X91599979Y-45230977D01*
X91581655Y-45193304D01*
X91569328Y-45152385D01*
X91563405Y-45113288D01*
X91562073Y-45082282D01*
X91690642Y-45082282D01*
X91697017Y-45122271D01*
X91718310Y-45157282D01*
X91735974Y-45172554D01*
X91773003Y-45190687D01*
X91812025Y-45199925D01*
X91853302Y-45203906D01*
X91876267Y-45204404D01*
X91916090Y-45202413D01*
X91954966Y-45195415D01*
X91993958Y-45180019D01*
X92005813Y-45172554D01*
X92034784Y-45142036D01*
X92048985Y-45102552D01*
X92050558Y-45081305D01*
X92044348Y-45041500D01*
X92023606Y-45006439D01*
X92006399Y-44991033D01*
X91969648Y-44972566D01*
X91930272Y-44963159D01*
X91888238Y-44959104D01*
X91864738Y-44958598D01*
X91825647Y-44960625D01*
X91783344Y-44968860D01*
X91745229Y-44985237D01*
X91736364Y-44991033D01*
X91708502Y-45019069D01*
X91692830Y-45057814D01*
X91690642Y-45082282D01*
X91562073Y-45082282D01*
X91564662Y-45038706D01*
X91572432Y-44998247D01*
X91585380Y-44960908D01*
X91607033Y-44921287D01*
X91635736Y-44885911D01*
X91665148Y-44859705D01*
X91698284Y-44838238D01*
X91735142Y-44821511D01*
X91775724Y-44809524D01*
X91820029Y-44802277D01*
X91835625Y-44800915D01*
X91876267Y-44799938D01*
X91917744Y-44801803D01*
G37*
G36*
X91973573Y-44491410D02*
G01*
X91573015Y-44380817D01*
X91573015Y-44214927D01*
X92167600Y-44415597D01*
X92167600Y-44567223D01*
X91573015Y-44767697D01*
X91573015Y-44601808D01*
X91973573Y-44491410D01*
G37*
D10*
G36*
X91933853Y-50620442D02*
G01*
X91608399Y-50530585D01*
X91608399Y-50395800D01*
X92091500Y-50558844D01*
X92091500Y-50682040D01*
X91608399Y-50844925D01*
X91608399Y-50710140D01*
X91933853Y-50620442D01*
G37*
G36*
X91855429Y-49910080D02*
G01*
X91893529Y-49913627D01*
X91928535Y-49919903D01*
X91960449Y-49928908D01*
X91994662Y-49943315D01*
X92024422Y-49961651D01*
X92028949Y-49965089D01*
X92053228Y-49987811D01*
X92072483Y-50014183D01*
X92086716Y-50044205D01*
X92095925Y-50077877D01*
X92100111Y-50115199D01*
X92100390Y-50128451D01*
X92098681Y-50160466D01*
X92092117Y-50195651D01*
X92080631Y-50227308D01*
X92064222Y-50255438D01*
X92042890Y-50280041D01*
X92030378Y-50291019D01*
X92001932Y-50310169D01*
X91969221Y-50325467D01*
X91938705Y-50335274D01*
X91905228Y-50342407D01*
X91868790Y-50346865D01*
X91829390Y-50348648D01*
X91709687Y-50348648D01*
X91676660Y-50347765D01*
X91638265Y-50344178D01*
X91603080Y-50337831D01*
X91571103Y-50328724D01*
X91536968Y-50314153D01*
X91507454Y-50295608D01*
X91502984Y-50292131D01*
X91479029Y-50269189D01*
X91460030Y-50242754D01*
X91445988Y-50212825D01*
X91436901Y-50179403D01*
X91432771Y-50142486D01*
X91432496Y-50129404D01*
X91536958Y-50129404D01*
X91542749Y-50162494D01*
X91561936Y-50189339D01*
X91572044Y-50196717D01*
X91603820Y-50210053D01*
X91634978Y-50216304D01*
X91667945Y-50219162D01*
X91681587Y-50219578D01*
X91839710Y-50219578D01*
X91872493Y-50218545D01*
X91905197Y-50214834D01*
X91938933Y-50206400D01*
X91957825Y-50197987D01*
X91982803Y-50176018D01*
X91995047Y-50145456D01*
X91996404Y-50128451D01*
X91991202Y-50096675D01*
X91971984Y-50068970D01*
X91959413Y-50060185D01*
X91929239Y-50048142D01*
X91897659Y-50041804D01*
X91864379Y-50038828D01*
X91845901Y-50038277D01*
X91691430Y-50038277D01*
X91658181Y-50039340D01*
X91625335Y-50043160D01*
X91592008Y-50051843D01*
X91573790Y-50060503D01*
X91549943Y-50082520D01*
X91538253Y-50112712D01*
X91536958Y-50129404D01*
X91432496Y-50129404D01*
X91434201Y-50097389D01*
X91440750Y-50062204D01*
X91452210Y-50030547D01*
X91468582Y-50002417D01*
X91489866Y-49977814D01*
X91502349Y-49966836D01*
X91530687Y-49947686D01*
X91563312Y-49932388D01*
X91593774Y-49922581D01*
X91627212Y-49915448D01*
X91663627Y-49910990D01*
X91703019Y-49909207D01*
X91822722Y-49909207D01*
X91855429Y-49910080D01*
G37*
G36*
X92028155Y-49812841D02*
G01*
X91995667Y-49805509D01*
X91978146Y-49792043D01*
X91962107Y-49763653D01*
X91958937Y-49739971D01*
X91965015Y-49707767D01*
X91978146Y-49687581D01*
X92005044Y-49670216D01*
X92028155Y-49666783D01*
X92060190Y-49674059D01*
X92077529Y-49687422D01*
X92093303Y-49715827D01*
X92096421Y-49739971D01*
X92090443Y-49772175D01*
X92077529Y-49792361D01*
X92049312Y-49809961D01*
X92028155Y-49812841D01*
G37*
G36*
X91950840Y-49178921D02*
G01*
X92091500Y-49178921D01*
X92091500Y-49307991D01*
X91950840Y-49307991D01*
X91950840Y-49574545D01*
X91869556Y-49580260D01*
X91441386Y-49309261D01*
X91441386Y-49307991D01*
X91617290Y-49307991D01*
X91632054Y-49316405D01*
X91846854Y-49451667D01*
X91846854Y-49307991D01*
X91617290Y-49307991D01*
X91441386Y-49307991D01*
X91441386Y-49178921D01*
X91846854Y-49178921D01*
X91846854Y-49105257D01*
X91950840Y-49105257D01*
X91950840Y-49178921D01*
G37*
D12*
%TO.C,C2*%
X110020000Y-43330000D03*
X110020000Y-44290000D03*
%TD*%
D13*
%TO.C,R7*%
X113360200Y-33524000D03*
X113360200Y-34544000D03*
%TD*%
D14*
%TO.C,R13*%
X109601000Y-36451000D03*
X109601000Y-35431000D03*
%TD*%
D15*
%TO.C,C1*%
X99949000Y-39342000D03*
X99949000Y-38382000D03*
%TD*%
D16*
%TO.C,TP3*%
X109680000Y-42380000D03*
%TD*%
D13*
%TO.C,R9*%
X114757200Y-33526000D03*
X114757200Y-34546000D03*
%TD*%
%TO.C,R2*%
X112903000Y-30732000D03*
X112903000Y-31752000D03*
%TD*%
D17*
%TO.C,C13*%
X97762000Y-35763200D03*
X96802000Y-35763200D03*
%TD*%
D16*
%TO.C,TP1*%
X105350000Y-42300000D03*
%TD*%
D17*
%TO.C,C4*%
X108960000Y-43360000D03*
X108000000Y-43360000D03*
%TD*%
D12*
%TO.C,C5*%
X106130000Y-35600000D03*
X106130000Y-36560000D03*
%TD*%
D18*
%TO.C,R11*%
X96826800Y-39014400D03*
X95806800Y-39014400D03*
%TD*%
D19*
%TO.C,C15*%
X102680500Y-42875200D03*
X96455500Y-42875200D03*
%TD*%
D13*
%TO.C,R10*%
X114757200Y-35433000D03*
X114757200Y-36453000D03*
%TD*%
D12*
%TO.C,C8*%
X104740000Y-35550000D03*
X104740000Y-36510000D03*
%TD*%
D15*
%TO.C,C11*%
X106960000Y-44150000D03*
X106960000Y-43190000D03*
%TD*%
D13*
%TO.C,R3*%
X104521000Y-40638000D03*
X104521000Y-41658000D03*
%TD*%
%TO.C,R6*%
X113919000Y-30732000D03*
X113919000Y-31752000D03*
%TD*%
D16*
%TO.C,TP2*%
X110590000Y-41560000D03*
%TD*%
D17*
%TO.C,C10*%
X108938000Y-45415200D03*
X107978000Y-45415200D03*
%TD*%
D13*
%TO.C,R8*%
X113360200Y-35433000D03*
X113360200Y-36453000D03*
%TD*%
D17*
%TO.C,C9*%
X97762000Y-36769200D03*
X96802000Y-36769200D03*
%TD*%
D14*
%TO.C,R5*%
X112520000Y-41650000D03*
X112520000Y-40630000D03*
%TD*%
D13*
%TO.C,R4*%
X111504000Y-40630000D03*
X111504000Y-41650000D03*
%TD*%
%TO.C,R1*%
X98933000Y-38352000D03*
X98933000Y-39372000D03*
%TD*%
D20*
%TO.C,J2*%
X93846000Y-48260000D03*
X96346000Y-48260000D03*
D21*
X98846000Y-53260000D03*
D20*
X103846000Y-48260000D03*
X101346000Y-48260000D03*
%TD*%
D22*
%TO.C,MK1*%
X109024400Y-50636600D03*
D23*
X111564400Y-50636600D03*
%TD*%
D13*
%TO.C,R12*%
X110617000Y-35431000D03*
X110617000Y-36451000D03*
%TD*%
D24*
%TO.C,JP2*%
X92354400Y-39370000D03*
X92354400Y-40670000D03*
%TD*%
D17*
%TO.C,C7*%
X108940000Y-44390000D03*
X107980000Y-44390000D03*
%TD*%
D25*
%TO.C,C14*%
X93472000Y-37046900D03*
X93472000Y-30821900D03*
%TD*%
D15*
%TO.C,C3*%
X105900000Y-44150000D03*
X105900000Y-43190000D03*
%TD*%
D24*
%TO.C,JP1*%
X114460000Y-39370000D03*
X114460000Y-40670000D03*
%TD*%
D26*
%TO.C,FB1*%
X94386400Y-39242900D03*
X94386400Y-40817900D03*
%TD*%
D12*
%TO.C,C12*%
X98940000Y-36360000D03*
X98940000Y-37320000D03*
%TD*%
D27*
%TO.C,U1*%
X105791000Y-38394000D03*
X105791000Y-38894000D03*
X105791000Y-39394000D03*
X105791000Y-39894000D03*
X105791000Y-40394000D03*
X105791000Y-40894000D03*
D28*
X106478500Y-41581500D03*
X106978500Y-41581500D03*
X107478500Y-41581500D03*
X107978500Y-41581500D03*
X108478500Y-41581500D03*
X108978500Y-41581500D03*
D27*
X109666000Y-40894000D03*
X109666000Y-40394000D03*
X109666000Y-39894000D03*
X109666000Y-39394000D03*
X109666000Y-38894000D03*
X109666000Y-38394000D03*
D28*
X108978500Y-37706500D03*
X108478500Y-37706500D03*
X107978500Y-37706500D03*
X107478500Y-37706500D03*
X106978500Y-37706500D03*
X106478500Y-37706500D03*
D29*
X107728500Y-39644000D03*
%TD*%
D12*
%TO.C,C6*%
X99949000Y-36350000D03*
X99949000Y-37310000D03*
%TD*%
D30*
%TO.C,J4*%
X97663000Y-30602000D03*
D31*
X97663000Y-33142000D03*
X100203000Y-30602000D03*
X100203000Y-33142000D03*
X102743000Y-30602000D03*
X102743000Y-33142000D03*
X105283000Y-30602000D03*
X105283000Y-33142000D03*
X107823000Y-30602000D03*
X107823000Y-33142000D03*
X110363000Y-30602000D03*
X110363000Y-33142000D03*
%TD*%
M02*
