%TF.GenerationSoftware,KiCad,Pcbnew,(7.0.0)*%
%TF.CreationDate,2023-02-21T15:05:59+01:00*%
%TF.ProjectId,AnalogI2SMic,416e616c-6f67-4493-9253-4d69632e6b69,rev?*%
%TF.SameCoordinates,Original*%
%TF.FileFunction,Copper,L1,Top*%
%TF.FilePolarity,Positive*%
%FSLAX46Y46*%
G04 Gerber Fmt 4.6, Leading zero omitted, Abs format (unit mm)*
G04 Created by KiCad (PCBNEW (7.0.0)) date 2023-02-21 15:05:59*
%MOMM*%
%LPD*%
G01*
G04 APERTURE LIST*
G04 Aperture macros list*
%AMRoundRect*
0 Rectangle with rounded corners*
0 $1 Rounding radius*
0 $2 $3 $4 $5 $6 $7 $8 $9 X,Y pos of 4 corners*
0 Add a 4 corners polygon primitive as box body*
4,1,4,$2,$3,$4,$5,$6,$7,$8,$9,$2,$3,0*
0 Add four circle primitives for the rounded corners*
1,1,$1+$1,$2,$3*
1,1,$1+$1,$4,$5*
1,1,$1+$1,$6,$7*
1,1,$1+$1,$8,$9*
0 Add four rect primitives between the rounded corners*
20,1,$1+$1,$2,$3,$4,$5,0*
20,1,$1+$1,$4,$5,$6,$7,0*
20,1,$1+$1,$6,$7,$8,$9,0*
20,1,$1+$1,$8,$9,$2,$3,0*%
G04 Aperture macros list end*
%TA.AperFunction,ComponentPad*%
%ADD10O,1.200000X2.200000*%
%TD*%
%TA.AperFunction,ComponentPad*%
%ADD11O,2.200000X1.200000*%
%TD*%
%TA.AperFunction,SMDPad,CuDef*%
%ADD12RoundRect,0.062500X-0.375000X-0.062500X0.375000X-0.062500X0.375000X0.062500X-0.375000X0.062500X0*%
%TD*%
%TA.AperFunction,SMDPad,CuDef*%
%ADD13RoundRect,0.062500X-0.062500X-0.375000X0.062500X-0.375000X0.062500X0.375000X-0.062500X0.375000X0*%
%TD*%
%TA.AperFunction,ComponentPad*%
%ADD14C,0.500000*%
%TD*%
%TA.AperFunction,SMDPad,CuDef*%
%ADD15R,2.500000X2.500000*%
%TD*%
%TA.AperFunction,SMDPad,CuDef*%
%ADD16RoundRect,0.140000X-0.170000X0.140000X-0.170000X-0.140000X0.170000X-0.140000X0.170000X0.140000X0*%
%TD*%
%TA.AperFunction,SMDPad,CuDef*%
%ADD17R,1.500000X1.000000*%
%TD*%
%TA.AperFunction,SMDPad,CuDef*%
%ADD18R,1.500000X2.000000*%
%TD*%
%TA.AperFunction,SMDPad,CuDef*%
%ADD19R,3.800000X2.000000*%
%TD*%
%TA.AperFunction,SMDPad,CuDef*%
%ADD20RoundRect,0.135000X0.185000X-0.135000X0.185000X0.135000X-0.185000X0.135000X-0.185000X-0.135000X0*%
%TD*%
%TA.AperFunction,SMDPad,CuDef*%
%ADD21RoundRect,0.135000X-0.185000X0.135000X-0.185000X-0.135000X0.185000X-0.135000X0.185000X0.135000X0*%
%TD*%
%TA.AperFunction,ComponentPad*%
%ADD22R,1.500000X1.500000*%
%TD*%
%TA.AperFunction,ComponentPad*%
%ADD23C,1.500000*%
%TD*%
%TA.AperFunction,ComponentPad*%
%ADD24R,1.700000X1.700000*%
%TD*%
%TA.AperFunction,ComponentPad*%
%ADD25O,1.700000X1.700000*%
%TD*%
%TA.AperFunction,SMDPad,CuDef*%
%ADD26RoundRect,0.218750X-0.256250X0.218750X-0.256250X-0.218750X0.256250X-0.218750X0.256250X0.218750X0*%
%TD*%
%TA.AperFunction,SMDPad,CuDef*%
%ADD27RoundRect,0.140000X0.170000X-0.140000X0.170000X0.140000X-0.170000X0.140000X-0.170000X-0.140000X0*%
%TD*%
%TA.AperFunction,SMDPad,CuDef*%
%ADD28RoundRect,0.140000X-0.140000X-0.170000X0.140000X-0.170000X0.140000X0.170000X-0.140000X0.170000X0*%
%TD*%
%TA.AperFunction,SMDPad,CuDef*%
%ADD29RoundRect,0.140000X0.140000X0.170000X-0.140000X0.170000X-0.140000X-0.170000X0.140000X-0.170000X0*%
%TD*%
%TA.AperFunction,ViaPad*%
%ADD30C,0.800000*%
%TD*%
%TA.AperFunction,ViaPad*%
%ADD31C,1.200000*%
%TD*%
%TA.AperFunction,Conductor*%
%ADD32C,0.500000*%
%TD*%
%TA.AperFunction,Conductor*%
%ADD33C,0.250000*%
%TD*%
G04 APERTURE END LIST*
%TO.C,JP2*%
G36*
X94757800Y-41916400D02*
G01*
X94357800Y-41916400D01*
X94357800Y-41416400D01*
X94757800Y-41416400D01*
X94757800Y-41916400D01*
G37*
G36*
X93957800Y-41916400D02*
G01*
X93557800Y-41916400D01*
X93557800Y-41416400D01*
X93957800Y-41416400D01*
X93957800Y-41916400D01*
G37*
%TO.C,JP1*%
G36*
X115154000Y-41764000D02*
G01*
X114754000Y-41764000D01*
X114754000Y-41264000D01*
X115154000Y-41264000D01*
X115154000Y-41764000D01*
G37*
G36*
X114354000Y-41764000D02*
G01*
X113954000Y-41764000D01*
X113954000Y-41264000D01*
X114354000Y-41264000D01*
X114354000Y-41764000D01*
G37*
%TD*%
D10*
%TO.P,J1,R*%
%TO.N,Net-(C10-Pad2)*%
X94059999Y-49021999D03*
%TO.P,J1,RN*%
%TO.N,unconnected-(J1-PadRN)*%
X96559999Y-49021999D03*
D11*
%TO.P,J1,S*%
%TO.N,GNDA*%
X99059999Y-54021999D03*
D10*
%TO.P,J1,T*%
%TO.N,Net-(J2-Pin_3)*%
X104059999Y-49021999D03*
%TO.P,J1,TN*%
%TO.N,unconnected-(J1-PadTN)*%
X101559999Y-49021999D03*
%TD*%
D12*
%TO.P,U1,1,BCLK*%
%TO.N,I2S_BCLK*%
X103202500Y-38390000D03*
%TO.P,U1,2,WCLK*%
%TO.N,I2S_WCLK*%
X103202500Y-38890000D03*
%TO.P,U1,3,DOUT*%
%TO.N,I2S_DOUT*%
X103202500Y-39390000D03*
%TO.P,U1,4,~{RESET}*%
%TO.N,Net-(U1-~{RESET})*%
X103202500Y-39890000D03*
%TO.P,U1,5,MICBIAS1*%
%TO.N,Net-(U1-MICBIAS1)*%
X103202500Y-40390000D03*
%TO.P,U1,6,IN3L(M)*%
%TO.N,Net-(U1-IN3L(M))*%
X103202500Y-40890000D03*
D13*
%TO.P,U1,7,IN2L(P)*%
%TO.N,Net-(U1-IN2L(P))*%
X103890000Y-41577500D03*
%TO.P,U1,8,IN1L(P)*%
%TO.N,unconnected-(U1-IN1L(P)-Pad8)*%
X104390000Y-41577500D03*
%TO.P,U1,9,AVSS*%
%TO.N,GNDA*%
X104890000Y-41577500D03*
%TO.P,U1,10,AVDD*%
%TO.N,+3.3VA*%
X105390000Y-41577500D03*
%TO.P,U1,11,IN1R(M)*%
%TO.N,unconnected-(U1-IN1R(M)-Pad11)*%
X105890000Y-41577500D03*
%TO.P,U1,12,IN2R(P)*%
%TO.N,Net-(U1-IN2R(P))*%
X106390000Y-41577500D03*
D12*
%TO.P,U1,13,IN3R(M)*%
%TO.N,Net-(U1-IN3R(M))*%
X107077500Y-40890000D03*
%TO.P,U1,14,MICBIAS2*%
%TO.N,Net-(U1-MICBIAS2)*%
X107077500Y-40390000D03*
%TO.P,U1,15,I2C_ADR0*%
%TO.N,Net-(U1-I2C_ADR0)*%
X107077500Y-39890000D03*
%TO.P,U1,16,I2C_ADR1*%
%TO.N,Net-(U1-I2C_ADR1)*%
X107077500Y-39390000D03*
%TO.P,U1,17,SCL*%
%TO.N,I2C_SCL*%
X107077500Y-38890000D03*
%TO.P,U1,18,SDA*%
%TO.N,I2C_SDA*%
X107077500Y-38390000D03*
D13*
%TO.P,U1,19,DMDIN/G1*%
%TO.N,unconnected-(U1-DMDIN{slash}G1-Pad19)*%
X106390000Y-37702500D03*
%TO.P,U1,20,DMCLK/G2*%
%TO.N,unconnected-(U1-DMCLK{slash}G2-Pad20)*%
X105890000Y-37702500D03*
%TO.P,U1,21,IOVDD*%
%TO.N,+3.3V*%
X105390000Y-37702500D03*
%TO.P,U1,22,DVDD*%
%TO.N,+1V8*%
X104890000Y-37702500D03*
%TO.P,U1,23,DVSS*%
%TO.N,GND*%
X104390000Y-37702500D03*
%TO.P,U1,24,MCLK*%
%TO.N,I2S_MCLK*%
X103890000Y-37702500D03*
D14*
%TO.P,U1,25,PAD*%
%TO.N,GNDA*%
X104140000Y-38640000D03*
X104140000Y-39640000D03*
X104140000Y-40640000D03*
X105140000Y-38640000D03*
X105140000Y-39640000D03*
D15*
X105139999Y-39639999D03*
D14*
X105140000Y-40640000D03*
X106140000Y-38640000D03*
X106140000Y-39640000D03*
X106140000Y-40640000D03*
%TD*%
D16*
%TO.P,C9,1*%
%TO.N,Net-(U1-IN3L(M))*%
X102616000Y-42926000D03*
%TO.P,C9,2*%
%TO.N,GNDA*%
X102616000Y-43886000D03*
%TD*%
%TO.P,C16,1*%
%TO.N,Net-(U1-IN3R(M))*%
X107696000Y-42982000D03*
%TO.P,C16,2*%
%TO.N,GNDA*%
X107696000Y-43942000D03*
%TD*%
D17*
%TO.P,JP2,1,A*%
%TO.N,GND*%
X94157799Y-41016399D03*
%TO.P,JP2,2,B*%
%TO.N,GNDA*%
X94157799Y-42316399D03*
%TD*%
D18*
%TO.P,U2,1,GND*%
%TO.N,GND*%
X98819999Y-32409999D03*
D19*
%TO.P,U2,2,VO*%
%TO.N,+1V8*%
X96519999Y-38709999D03*
D18*
X96519999Y-32409999D03*
%TO.P,U2,3,VI*%
%TO.N,+3.3V*%
X94219999Y-32409999D03*
%TD*%
D20*
%TO.P,R10,1*%
%TO.N,+3.3V*%
X108204000Y-36146200D03*
%TO.P,R10,2*%
%TO.N,I2C_SDA*%
X108204000Y-35126200D03*
%TD*%
%TO.P,R9,1*%
%TO.N,+3.3V*%
X110363000Y-36146200D03*
%TO.P,R9,2*%
%TO.N,I2C_SCL*%
X110363000Y-35126200D03*
%TD*%
D21*
%TO.P,R8,1*%
%TO.N,+3.3V*%
X112801400Y-38733000D03*
%TO.P,R8,2*%
%TO.N,Net-(FB1-Pad1)*%
X112801400Y-39753000D03*
%TD*%
%TO.P,R7,1*%
%TO.N,+1V8*%
X100838000Y-38350000D03*
%TO.P,R7,2*%
%TO.N,Net-(U1-~{RESET})*%
X100838000Y-39370000D03*
%TD*%
%TO.P,R6,1*%
%TO.N,Net-(U1-I2C_ADR0)*%
X110998000Y-38989000D03*
%TO.P,R6,2*%
%TO.N,GND*%
X110998000Y-40009000D03*
%TD*%
%TO.P,R5,1*%
%TO.N,+3.3V*%
X110998000Y-37082000D03*
%TO.P,R5,2*%
%TO.N,Net-(U1-I2C_ADR0)*%
X110998000Y-38102000D03*
%TD*%
%TO.P,R4,1*%
%TO.N,Net-(U1-I2C_ADR1)*%
X109982000Y-38989000D03*
%TO.P,R4,2*%
%TO.N,GND*%
X109982000Y-40009000D03*
%TD*%
%TO.P,R3,1*%
%TO.N,+3.3V*%
X109982000Y-37080000D03*
%TO.P,R3,2*%
%TO.N,Net-(U1-I2C_ADR1)*%
X109982000Y-38100000D03*
%TD*%
%TO.P,R2,1*%
%TO.N,Net-(U1-MICBIAS2)*%
X108331000Y-40765000D03*
%TO.P,R2,2*%
%TO.N,Net-(J2-Pin_2)*%
X108331000Y-41785000D03*
%TD*%
%TO.P,R1,1*%
%TO.N,Net-(U1-MICBIAS1)*%
X101981000Y-40765000D03*
%TO.P,R1,2*%
%TO.N,Net-(C10-Pad2)*%
X101981000Y-41785000D03*
%TD*%
D22*
%TO.P,MK1,1,-*%
%TO.N,GNDA*%
X109219999Y-51434999D03*
D23*
%TO.P,MK1,2,+*%
%TO.N,Net-(J2-Pin_1)*%
X111760000Y-51435000D03*
%TD*%
D17*
%TO.P,JP1,1,A*%
%TO.N,GND*%
X114553999Y-40863999D03*
%TO.P,JP1,2,B*%
%TO.N,GNDA*%
X114553999Y-42163999D03*
%TD*%
D24*
%TO.P,J4,1,Pin_1*%
%TO.N,+3.3V*%
X94741999Y-29209999D03*
D25*
%TO.P,J4,2,Pin_2*%
%TO.N,I2S_BCLK*%
X97281999Y-29209999D03*
%TO.P,J4,3,Pin_3*%
%TO.N,I2S_MCLK*%
X99821999Y-29209999D03*
%TO.P,J4,4,Pin_4*%
%TO.N,I2S_DOUT*%
X102361999Y-29209999D03*
%TO.P,J4,5,Pin_5*%
%TO.N,I2S_WCLK*%
X104901999Y-29209999D03*
%TO.P,J4,6,Pin_6*%
%TO.N,GND*%
X107441999Y-29209999D03*
%TD*%
D24*
%TO.P,J3,1,Pin_1*%
%TO.N,+3.3V*%
X112648999Y-32892999D03*
D25*
%TO.P,J3,2,Pin_2*%
%TO.N,I2C_SCL*%
X110108999Y-32892999D03*
%TO.P,J3,3,Pin_3*%
%TO.N,I2C_SDA*%
X107568999Y-32892999D03*
%TO.P,J3,4,Pin_4*%
%TO.N,GND*%
X105028999Y-32892999D03*
%TD*%
D24*
%TO.P,J2,1,Pin_1*%
%TO.N,Net-(J2-Pin_1)*%
X113918999Y-46354999D03*
D25*
%TO.P,J2,2,Pin_2*%
%TO.N,Net-(J2-Pin_2)*%
X111378999Y-46354999D03*
%TO.P,J2,3,Pin_3*%
%TO.N,Net-(J2-Pin_3)*%
X108838999Y-46354999D03*
%TD*%
D26*
%TO.P,FB1,2*%
%TO.N,+3.3VA*%
X112547400Y-42469000D03*
%TO.P,FB1,1*%
%TO.N,Net-(FB1-Pad1)*%
X112547400Y-40894000D03*
%TD*%
D27*
%TO.P,C15,1*%
%TO.N,+1V8*%
X100838000Y-35913000D03*
%TO.P,C15,2*%
%TO.N,GND*%
X100838000Y-34953000D03*
%TD*%
D16*
%TO.P,C14,1*%
%TO.N,+3.3V*%
X100838000Y-31778000D03*
%TO.P,C14,2*%
%TO.N,GND*%
X100838000Y-32738000D03*
%TD*%
D28*
%TO.P,C13,2*%
%TO.N,GNDA*%
X113408400Y-43713400D03*
%TO.P,C13,1*%
%TO.N,+3.3VA*%
X112448400Y-43713400D03*
%TD*%
D16*
%TO.P,C12,1*%
%TO.N,Net-(J2-Pin_2)*%
X109347000Y-41839000D03*
%TO.P,C12,2*%
%TO.N,GNDA*%
X109347000Y-42799000D03*
%TD*%
D27*
%TO.P,C11,1*%
%TO.N,GNDA*%
X100965000Y-42799000D03*
%TO.P,C11,2*%
%TO.N,Net-(C10-Pad2)*%
X100965000Y-41839000D03*
%TD*%
D16*
%TO.P,C10,1*%
%TO.N,Net-(U1-IN2R(P))*%
X106680000Y-42954000D03*
%TO.P,C10,2*%
%TO.N,Net-(C10-Pad2)*%
X106680000Y-43914000D03*
%TD*%
%TO.P,C8,1*%
%TO.N,Net-(U1-IN2L(P))*%
X103632000Y-42926000D03*
%TO.P,C8,2*%
%TO.N,Net-(J2-Pin_2)*%
X103632000Y-43886000D03*
%TD*%
D27*
%TO.P,C7,1*%
%TO.N,+3.3V*%
X107188000Y-36139000D03*
%TO.P,C7,2*%
%TO.N,GND*%
X107188000Y-35179000D03*
%TD*%
%TO.P,C6,1*%
%TO.N,+3.3V*%
X106172000Y-36139000D03*
%TO.P,C6,2*%
%TO.N,GND*%
X106172000Y-35179000D03*
%TD*%
%TO.P,C5,1*%
%TO.N,+1V8*%
X105156000Y-36139000D03*
%TO.P,C5,2*%
%TO.N,GND*%
X105156000Y-35179000D03*
%TD*%
%TO.P,C4,1*%
%TO.N,+1V8*%
X104140000Y-36139000D03*
%TO.P,C4,2*%
%TO.N,GND*%
X104140000Y-35179000D03*
%TD*%
D29*
%TO.P,C3,1*%
%TO.N,+3.3VA*%
X105664000Y-43942000D03*
%TO.P,C3,2*%
%TO.N,GNDA*%
X104704000Y-43942000D03*
%TD*%
%TO.P,C2,1*%
%TO.N,+3.3VA*%
X105664000Y-42926000D03*
%TO.P,C2,2*%
%TO.N,GNDA*%
X104704000Y-42926000D03*
%TD*%
%TO.P,C1,2*%
%TO.N,GND*%
X98608000Y-40640000D03*
%TO.P,C1,1*%
%TO.N,Net-(U1-~{RESET})*%
X99568000Y-40640000D03*
%TD*%
D30*
%TO.N,GNDA*%
X110464600Y-54330600D03*
X98253850Y-47714500D03*
X104521000Y-51511200D03*
X93472000Y-51460400D03*
X93751400Y-58039000D03*
X105714800Y-57581800D03*
X115087400Y-48895000D03*
X114655600Y-53162200D03*
X114655600Y-57581800D03*
%TO.N,GND*%
X110210600Y-30835600D03*
X105410000Y-31242000D03*
X93503141Y-27903721D03*
X93218000Y-39624000D03*
X93336908Y-30825459D03*
D31*
%TO.N,GNDA*%
X110302710Y-41073728D03*
%TO.N,+3.3V*%
X113638883Y-37386798D03*
D30*
%TO.N,Net-(C10-Pad2)*%
X105336070Y-46924668D03*
%TO.N,Net-(J2-Pin_2)*%
X102806500Y-45148500D03*
D31*
%TO.N,+3.3VA*%
X111125000Y-42578500D03*
X105708861Y-45254358D03*
%TO.N,GNDA*%
X104267000Y-45212000D03*
D30*
%TO.N,Net-(U1-I2C_ADR0)*%
X109104052Y-39367546D03*
X111566071Y-36320304D03*
D31*
%TO.N,GNDA*%
X114630200Y-44450000D03*
%TO.N,GND*%
X115104900Y-37498300D03*
%TO.N,GNDA*%
X93980000Y-43688000D03*
%TO.N,GND*%
X96520000Y-40767000D03*
X114688883Y-30581600D03*
%TO.N,+3.3V*%
X107645911Y-37140713D03*
%TO.N,+1V8*%
X100675500Y-36697770D03*
%TO.N,GND*%
X100675500Y-33720500D03*
D30*
%TO.N,+1V8*%
X103253371Y-36118377D03*
%TO.N,I2S_WCLK*%
X101997951Y-38210049D03*
X103224500Y-33274000D03*
%TO.N,I2S_DOUT*%
X101755414Y-39179678D03*
X102774500Y-34166469D03*
%TD*%
D32*
%TO.N,GND*%
X115104900Y-37498300D02*
X115104900Y-40313100D01*
X115104900Y-40313100D02*
X114554000Y-40864000D01*
X93503141Y-27903721D02*
X93503141Y-28031859D01*
X93503141Y-28031859D02*
X93020000Y-28515000D01*
X93336908Y-30825459D02*
X93020000Y-31142367D01*
X93020000Y-31142367D02*
X93020000Y-31292800D01*
%TO.N,GNDA*%
X115087400Y-48895000D02*
X115087400Y-49804657D01*
X115087400Y-49804657D02*
X114655600Y-50236457D01*
X114655600Y-50236457D02*
X114655600Y-57581800D01*
%TO.N,GND*%
X107442000Y-29210000D02*
X113317283Y-29210000D01*
X111125315Y-40009000D02*
X110998000Y-40009000D01*
X111912400Y-39221915D02*
X111125315Y-40009000D01*
X112416071Y-37447639D02*
X111912400Y-37951310D01*
X113317283Y-29210000D02*
X114688883Y-30581600D01*
X112416071Y-37124685D02*
X112416071Y-37447639D01*
X113218402Y-36336798D02*
X113203958Y-36336798D01*
X114681000Y-30589483D02*
X114681000Y-34874200D01*
X113203958Y-36336798D02*
X112416071Y-37124685D01*
X114681000Y-34874200D02*
X113218402Y-36336798D01*
X114688883Y-30581600D02*
X114681000Y-30589483D01*
X111912400Y-37951310D02*
X111912400Y-39221915D01*
%TO.N,GNDA*%
X114145000Y-44450000D02*
X113408400Y-43713400D01*
X114630200Y-44450000D02*
X114630200Y-42240200D01*
X114630200Y-42240200D02*
X114554000Y-42164000D01*
X114630200Y-44450000D02*
X114145000Y-44450000D01*
X98253850Y-47301450D02*
X100965000Y-44590300D01*
X98253850Y-47714500D02*
X98253850Y-47301450D01*
X100965000Y-44590300D02*
X100965000Y-42799000D01*
X104470200Y-51460400D02*
X104521000Y-51511200D01*
X93472000Y-51460400D02*
X104470200Y-51460400D01*
%TO.N,GND*%
X110210600Y-30835600D02*
X109067600Y-30835600D01*
X109067600Y-30835600D02*
X107442000Y-29210000D01*
%TO.N,Net-(FB1-Pad1)*%
X112801400Y-39753000D02*
X112801400Y-40640000D01*
X112801400Y-40640000D02*
X112547400Y-40894000D01*
%TO.N,+3.3VA*%
X112448400Y-43713400D02*
X112448400Y-42568000D01*
X112547400Y-42469000D02*
X111234500Y-42469000D01*
X111234500Y-42469000D02*
X111125000Y-42578500D01*
%TO.N,+3.3V*%
X112649000Y-32893000D02*
X112649000Y-34036000D01*
X112649000Y-34036000D02*
X110538800Y-36146200D01*
X110538800Y-36146200D02*
X110363000Y-36146200D01*
D33*
%TO.N,Net-(U1-I2C_ADR0)*%
X111566071Y-36320304D02*
X111566071Y-36679533D01*
X111566071Y-36679533D02*
X111643000Y-36756462D01*
X110998000Y-38052538D02*
X110998000Y-38989000D01*
X111643000Y-36756462D02*
X111643000Y-37407538D01*
X111643000Y-37407538D02*
X110998000Y-38052538D01*
D32*
%TO.N,+3.3V*%
X112801400Y-38224281D02*
X113638883Y-37386798D01*
X112801400Y-38733000D02*
X112801400Y-38224281D01*
X110363000Y-36146200D02*
X110363000Y-36699000D01*
X110363000Y-36699000D02*
X109982000Y-37080000D01*
D33*
%TO.N,I2C_SCL*%
X110363000Y-35126200D02*
X110363000Y-33147000D01*
X110363000Y-33147000D02*
X110109000Y-32893000D01*
D32*
%TO.N,GNDA*%
X100965000Y-42799000D02*
X102052000Y-43886000D01*
X102052000Y-43886000D02*
X102616000Y-43886000D01*
X104267000Y-45212000D02*
X103480500Y-45998500D01*
X103480500Y-45998500D02*
X102386500Y-45998500D01*
X102386500Y-45998500D02*
X101956500Y-45568500D01*
X101956500Y-45568500D02*
X101956500Y-44545500D01*
X101956500Y-44545500D02*
X102616000Y-43886000D01*
D33*
%TO.N,Net-(U1-IN3L(M))*%
X102616000Y-42926000D02*
X103202500Y-42339500D01*
X103202500Y-42339500D02*
X103202500Y-40890000D01*
D32*
%TO.N,GNDA*%
X104267000Y-45212000D02*
X104267000Y-47057680D01*
X104267000Y-47057680D02*
X105088320Y-47879000D01*
X105088320Y-47879000D02*
X105664000Y-47879000D01*
X105664000Y-47879000D02*
X107539000Y-46004000D01*
X107539000Y-44099000D02*
X107696000Y-43942000D01*
X107539000Y-46004000D02*
X107539000Y-44099000D01*
D33*
%TO.N,Net-(C10-Pad2)*%
X105336070Y-46924668D02*
X106032738Y-46228000D01*
X106032738Y-46228000D02*
X106043367Y-46228000D01*
X106043367Y-46228000D02*
X106633861Y-45637506D01*
X106633861Y-45637506D02*
X106633861Y-43960139D01*
X106633861Y-43960139D02*
X106680000Y-43914000D01*
%TO.N,Net-(J2-Pin_3)*%
X108839000Y-46355000D02*
X108839000Y-46736000D01*
X106553000Y-49022000D02*
X104060000Y-49022000D01*
X108839000Y-46736000D02*
X106553000Y-49022000D01*
%TO.N,Net-(C10-Pad2)*%
X100965000Y-41839000D02*
X100528000Y-41839000D01*
X100528000Y-41839000D02*
X100330000Y-42037000D01*
X100330000Y-42037000D02*
X100330000Y-42752000D01*
X100330000Y-42752000D02*
X94060000Y-49022000D01*
%TO.N,Net-(J2-Pin_2)*%
X103632000Y-43886000D02*
X103632000Y-44323000D01*
X103632000Y-44323000D02*
X102806500Y-45148500D01*
D32*
%TO.N,GNDA*%
X107696000Y-43942000D02*
X108204000Y-43942000D01*
X108204000Y-43942000D02*
X109347000Y-42799000D01*
D33*
%TO.N,Net-(J2-Pin_2)*%
X109347000Y-41839000D02*
X109784000Y-41839000D01*
X109784000Y-41839000D02*
X110200000Y-42255000D01*
X110200000Y-42255000D02*
X110200000Y-45176000D01*
X110200000Y-45176000D02*
X111379000Y-46355000D01*
%TO.N,Net-(U1-IN3R(M))*%
X107077500Y-40890000D02*
X107077500Y-42363500D01*
X107077500Y-42363500D02*
X107696000Y-42982000D01*
%TO.N,Net-(U1-IN2R(P))*%
X106390000Y-41577500D02*
X106390000Y-42664000D01*
X106390000Y-42664000D02*
X106680000Y-42954000D01*
%TO.N,Net-(J2-Pin_1)*%
X113919000Y-46355000D02*
X113919000Y-49276000D01*
X113919000Y-49276000D02*
X111760000Y-51435000D01*
%TO.N,Net-(U1-IN2L(P))*%
X103890000Y-41577500D02*
X103890000Y-42668000D01*
X103890000Y-42668000D02*
X103632000Y-42926000D01*
D32*
%TO.N,+3.3VA*%
X105664000Y-43942000D02*
X105664000Y-45209497D01*
X105664000Y-45209497D02*
X105708861Y-45254358D01*
%TO.N,GNDA*%
X104704000Y-44775000D02*
X104267000Y-45212000D01*
X104704000Y-43942000D02*
X104704000Y-44775000D01*
D33*
%TO.N,Net-(C10-Pad2)*%
X100965000Y-41839000D02*
X101927000Y-41839000D01*
X101927000Y-41839000D02*
X101981000Y-41785000D01*
%TO.N,Net-(J2-Pin_2)*%
X109347000Y-41839000D02*
X108385000Y-41839000D01*
X108385000Y-41839000D02*
X108331000Y-41785000D01*
%TO.N,Net-(U1-MICBIAS1)*%
X103202500Y-40390000D02*
X102356000Y-40390000D01*
X102356000Y-40390000D02*
X101981000Y-40765000D01*
%TO.N,Net-(U1-MICBIAS2)*%
X107077500Y-40390000D02*
X107956000Y-40390000D01*
X107956000Y-40390000D02*
X108331000Y-40765000D01*
%TO.N,Net-(U1-~{RESET})*%
X100838000Y-39370000D02*
X101372678Y-39904678D01*
X101372678Y-39904678D02*
X103187822Y-39904678D01*
X103187822Y-39904678D02*
X103202500Y-39890000D01*
%TO.N,I2S_DOUT*%
X101755414Y-39179678D02*
X101965736Y-39390000D01*
X101965736Y-39390000D02*
X103202500Y-39390000D01*
%TO.N,I2S_WCLK*%
X101997951Y-38210049D02*
X102677902Y-38890000D01*
X102677902Y-38890000D02*
X103202500Y-38890000D01*
D32*
%TO.N,+1V8*%
X100675500Y-36075500D02*
X100838000Y-35913000D01*
X100675500Y-36697770D02*
X100675500Y-38187500D01*
X100675500Y-36697770D02*
X100308524Y-36697770D01*
X100308524Y-36697770D02*
X96520000Y-32909246D01*
X96520000Y-32909246D02*
X96520000Y-32410000D01*
X100675500Y-36697770D02*
X100675500Y-36075500D01*
X100675500Y-38187500D02*
X100838000Y-38350000D01*
D33*
%TO.N,+3.3VA*%
X105390000Y-41577500D02*
X105390000Y-42652000D01*
X105390000Y-42652000D02*
X105664000Y-42926000D01*
%TO.N,GNDA*%
X104890000Y-41577500D02*
X104890000Y-42740000D01*
X104890000Y-42740000D02*
X104704000Y-42926000D01*
D32*
X104704000Y-42926000D02*
X104704000Y-43942000D01*
%TO.N,+3.3VA*%
X105664000Y-43942000D02*
X105664000Y-42926000D01*
%TO.N,GND*%
X105029000Y-32893000D02*
X105029000Y-35052000D01*
X105029000Y-35052000D02*
X105156000Y-35179000D01*
X105029000Y-32893000D02*
X105029000Y-31623000D01*
X105029000Y-31623000D02*
X107442000Y-29210000D01*
D33*
%TO.N,I2C_SCL*%
X109299000Y-35687000D02*
X109299000Y-33703000D01*
X109299000Y-33703000D02*
X110109000Y-32893000D01*
%TO.N,I2C_SDA*%
X107077500Y-38390000D02*
X107704772Y-38390000D01*
X107704772Y-38390000D02*
X108579538Y-37515234D01*
X108849000Y-36471738D02*
X108849000Y-34173000D01*
X108849000Y-34173000D02*
X107569000Y-32893000D01*
X108579538Y-37515234D02*
X108579538Y-36741200D01*
X108579538Y-36741200D02*
X108849000Y-36471738D01*
X107569000Y-32893000D02*
X108204000Y-33528000D01*
X108204000Y-33528000D02*
X108204000Y-35126200D01*
%TO.N,Net-(U1-I2C_ADR0)*%
X107077500Y-39890000D02*
X108581598Y-39890000D01*
X108581598Y-39890000D02*
X109104052Y-39367546D01*
%TO.N,Net-(U1-I2C_ADR1)*%
X107077500Y-39390000D02*
X108057000Y-39390000D01*
X108057000Y-39390000D02*
X109347000Y-38100000D01*
X109347000Y-38100000D02*
X109982000Y-38100000D01*
%TO.N,Net-(U1-I2C_ADR0)*%
X110998000Y-38102000D02*
X110998000Y-38989000D01*
%TO.N,Net-(U1-I2C_ADR1)*%
X109982000Y-38989000D02*
X109982000Y-38100000D01*
%TO.N,GND*%
X109982000Y-40009000D02*
X110998000Y-40009000D01*
%TO.N,+3.3V*%
X110998000Y-37082000D02*
X109984000Y-37082000D01*
X109984000Y-37082000D02*
X109982000Y-37080000D01*
D32*
%TO.N,GNDA*%
X93980000Y-43688000D02*
X93980000Y-42494200D01*
X93980000Y-42494200D02*
X94157800Y-42316400D01*
%TO.N,GND*%
X94407200Y-40767000D02*
X96520000Y-40767000D01*
X98608000Y-40640000D02*
X98481000Y-40767000D01*
X98481000Y-40767000D02*
X96520000Y-40767000D01*
X94157800Y-41016400D02*
X93020000Y-39878600D01*
X106045000Y-27813000D02*
X107442000Y-29210000D01*
X93020000Y-39878600D02*
X93020000Y-28515000D01*
X93020000Y-28515000D02*
X93722000Y-27813000D01*
X93722000Y-27813000D02*
X106045000Y-27813000D01*
X94157800Y-41016400D02*
X94407200Y-40767000D01*
D33*
%TO.N,I2C_SCL*%
X107077500Y-38890000D02*
X107841168Y-38890000D01*
X109299000Y-36658134D02*
X109299000Y-35687000D01*
X107841168Y-38890000D02*
X109029538Y-37701630D01*
X109029538Y-37701630D02*
X109029538Y-36927596D01*
X109029538Y-36927596D02*
X109299000Y-36658134D01*
D32*
%TO.N,+3.3V*%
X107645911Y-37140713D02*
X107645911Y-36704289D01*
X107645911Y-36704289D02*
X108204000Y-36146200D01*
D33*
X108204000Y-36146200D02*
X107195200Y-36146200D01*
X107195200Y-36146200D02*
X107188000Y-36139000D01*
D32*
%TO.N,GND*%
X100838000Y-34953000D02*
X100838000Y-33883000D01*
X100838000Y-33883000D02*
X100675500Y-33720500D01*
X100765000Y-33810000D02*
X100675500Y-33720500D01*
X100838000Y-33810000D02*
X100765000Y-33810000D01*
D33*
X104390000Y-37702500D02*
X104390000Y-37216992D01*
X104390000Y-37216992D02*
X104113008Y-36940000D01*
X104113008Y-36940000D02*
X103050396Y-36940000D01*
X103050396Y-36940000D02*
X102528371Y-36417975D01*
X102528371Y-36417975D02*
X102528371Y-35818072D01*
X102528371Y-35818072D02*
X103167443Y-35179000D01*
X103167443Y-35179000D02*
X104140000Y-35179000D01*
%TO.N,+1V8*%
X103253371Y-36118377D02*
X104119377Y-36118377D01*
X104119377Y-36118377D02*
X104140000Y-36139000D01*
%TO.N,+3.3V*%
X105390000Y-37702500D02*
X105390000Y-36921000D01*
X105390000Y-36921000D02*
X106172000Y-36139000D01*
%TO.N,+1V8*%
X104890000Y-37702500D02*
X104890000Y-36405000D01*
X104890000Y-36405000D02*
X105156000Y-36139000D01*
%TO.N,GND*%
X106045000Y-35179000D02*
X107061000Y-35179000D01*
X105029000Y-35179000D02*
X106045000Y-35179000D01*
X104013000Y-35179000D02*
X105029000Y-35179000D01*
%TO.N,I2S_DOUT*%
X102774500Y-34166469D02*
X102500000Y-33891969D01*
X102500000Y-33891969D02*
X102500000Y-29348000D01*
X102500000Y-29348000D02*
X102362000Y-29210000D01*
%TO.N,I2S_WCLK*%
X103224500Y-33274000D02*
X102950000Y-32999500D01*
X102950000Y-31162000D02*
X104902000Y-29210000D01*
X102950000Y-32999500D02*
X102950000Y-31162000D01*
%TO.N,+3.3V*%
X106172000Y-36139000D02*
X107188000Y-36139000D01*
%TO.N,+1V8*%
X105156000Y-36139000D02*
X104140000Y-36139000D01*
D32*
X100838000Y-38350000D02*
X96880000Y-38350000D01*
X96880000Y-38350000D02*
X96520000Y-38710000D01*
D33*
%TO.N,Net-(U1-~{RESET})*%
X100838000Y-39370000D02*
X99568000Y-40640000D01*
%TO.N,I2S_MCLK*%
X99822000Y-29210000D02*
X99874005Y-29210000D01*
X99874005Y-29210000D02*
X102050000Y-31385995D01*
X103176500Y-37702500D02*
X103890000Y-37702500D01*
X102050000Y-31385995D02*
X102050000Y-36576000D01*
X102050000Y-36576000D02*
X103176500Y-37702500D01*
%TO.N,I2S_BCLK*%
X97282000Y-29210000D02*
X98457000Y-30385000D01*
X101600000Y-36787500D02*
X103202500Y-38390000D01*
X98457000Y-30385000D02*
X100412609Y-30385000D01*
X100412609Y-30385000D02*
X101600000Y-31572391D01*
X101600000Y-31572391D02*
X101600000Y-36787500D01*
D32*
%TO.N,+1V8*%
X96520000Y-38710000D02*
X97180000Y-39370000D01*
%TO.N,GND*%
X100838000Y-32738000D02*
X100838000Y-33810000D01*
X98820000Y-32410000D02*
X99148000Y-32738000D01*
X99148000Y-32738000D02*
X100838000Y-32738000D01*
%TO.N,+3.3V*%
X94220000Y-32410000D02*
X94220000Y-32060000D01*
X94220000Y-32060000D02*
X95320000Y-30960000D01*
X95320000Y-30960000D02*
X100020000Y-30960000D01*
X100020000Y-30960000D02*
X100838000Y-31778000D01*
%TO.N,+1V8*%
X96520000Y-32410000D02*
X96520000Y-38710000D01*
%TO.N,+3.3V*%
X94220000Y-32410000D02*
X94220000Y-29732000D01*
X94220000Y-29732000D02*
X94742000Y-29210000D01*
%TD*%
%TA.AperFunction,Conductor*%
%TO.N,GND*%
G36*
X114802623Y-27178498D02*
G01*
X114813363Y-27178969D01*
X114852936Y-27182431D01*
X114853949Y-27182525D01*
X114982724Y-27195208D01*
X115002649Y-27198834D01*
X115068302Y-27216425D01*
X115072179Y-27217532D01*
X115165384Y-27245806D01*
X115181778Y-27252079D01*
X115248720Y-27283294D01*
X115254710Y-27286288D01*
X115335535Y-27329490D01*
X115348173Y-27337254D01*
X115410366Y-27380802D01*
X115417886Y-27386508D01*
X115487299Y-27443474D01*
X115496315Y-27451646D01*
X115550352Y-27505683D01*
X115558524Y-27514699D01*
X115615490Y-27584112D01*
X115621203Y-27591641D01*
X115664739Y-27653817D01*
X115672514Y-27666474D01*
X115715696Y-27747261D01*
X115718712Y-27753295D01*
X115749917Y-27820215D01*
X115756196Y-27836625D01*
X115784462Y-27929808D01*
X115785576Y-27933708D01*
X115803163Y-27999343D01*
X115806791Y-28019282D01*
X115819458Y-28147888D01*
X115819583Y-28149236D01*
X115823028Y-28188613D01*
X115823500Y-28199405D01*
X115824000Y-32292853D01*
X115824000Y-41099268D01*
X115806359Y-41163016D01*
X115758454Y-41208626D01*
X115693917Y-41223119D01*
X115652465Y-41221083D01*
X115652463Y-41221083D01*
X115643890Y-41220662D01*
X115635529Y-41222598D01*
X115635521Y-41222599D01*
X115620102Y-41226170D01*
X115575309Y-41228221D01*
X115546835Y-41218852D01*
X115546331Y-41220204D01*
X115418752Y-41172620D01*
X115418750Y-41172619D01*
X115411483Y-41169909D01*
X115403770Y-41169079D01*
X115403767Y-41169079D01*
X115355180Y-41163855D01*
X115355169Y-41163854D01*
X115351873Y-41163500D01*
X115348550Y-41163500D01*
X113759439Y-41163500D01*
X113759420Y-41163500D01*
X113756128Y-41163501D01*
X113752850Y-41163853D01*
X113752838Y-41163854D01*
X113704231Y-41169079D01*
X113704225Y-41169080D01*
X113696517Y-41169909D01*
X113689248Y-41172619D01*
X113681700Y-41174404D01*
X113681433Y-41173278D01*
X113631449Y-41179105D01*
X113576181Y-41157928D01*
X113537025Y-41113547D01*
X113522900Y-41056071D01*
X113522900Y-40869788D01*
X113525461Y-40844716D01*
X113533822Y-40804218D01*
X113534590Y-40800752D01*
X113551900Y-40727721D01*
X113551900Y-40720490D01*
X113552302Y-40717051D01*
X113552356Y-40716714D01*
X113552372Y-40716360D01*
X113552671Y-40712933D01*
X113554133Y-40705856D01*
X113551952Y-40630889D01*
X113551900Y-40627283D01*
X113551900Y-40214139D01*
X113567675Y-40156475D01*
X113567199Y-40156269D01*
X113568647Y-40152920D01*
X113569169Y-40151016D01*
X113574269Y-40142393D01*
X113619065Y-39988204D01*
X113621900Y-39952181D01*
X113621899Y-39553820D01*
X113619065Y-39517796D01*
X113574269Y-39363607D01*
X113540271Y-39306120D01*
X113523003Y-39243000D01*
X113540272Y-39179878D01*
X113574269Y-39122393D01*
X113619065Y-38968204D01*
X113621900Y-38932181D01*
X113621899Y-38610830D01*
X113636654Y-38552167D01*
X113677407Y-38507464D01*
X113734460Y-38487360D01*
X113735129Y-38487298D01*
X113740859Y-38487298D01*
X113941339Y-38449822D01*
X114131520Y-38376146D01*
X114304924Y-38268779D01*
X114455647Y-38131377D01*
X114578556Y-37968619D01*
X114669465Y-37786048D01*
X114725280Y-37589881D01*
X114744098Y-37386798D01*
X114725280Y-37183715D01*
X114669465Y-36987548D01*
X114578556Y-36804977D01*
X114494912Y-36694214D01*
X114459104Y-36646796D01*
X114459100Y-36646792D01*
X114455647Y-36642219D01*
X114451410Y-36638356D01*
X114451406Y-36638352D01*
X114309158Y-36508677D01*
X114309159Y-36508677D01*
X114304924Y-36504817D01*
X114300054Y-36501802D01*
X114300052Y-36501800D01*
X114136394Y-36400468D01*
X114136395Y-36400468D01*
X114131520Y-36397450D01*
X114126177Y-36395380D01*
X113946686Y-36325845D01*
X113946681Y-36325843D01*
X113941339Y-36323774D01*
X113935701Y-36322720D01*
X113746488Y-36287350D01*
X113746485Y-36287349D01*
X113740859Y-36286298D01*
X113536907Y-36286298D01*
X113531281Y-36287349D01*
X113531277Y-36287350D01*
X113342064Y-36322720D01*
X113342061Y-36322720D01*
X113336427Y-36323774D01*
X113331086Y-36325842D01*
X113331079Y-36325845D01*
X113151588Y-36395380D01*
X113151583Y-36395382D01*
X113146246Y-36397450D01*
X113141374Y-36400466D01*
X113141371Y-36400468D01*
X112977713Y-36501800D01*
X112977705Y-36501805D01*
X112972842Y-36504817D01*
X112968611Y-36508673D01*
X112968607Y-36508677D01*
X112826359Y-36638352D01*
X112826349Y-36638362D01*
X112822119Y-36642219D01*
X112818670Y-36646785D01*
X112818661Y-36646796D01*
X112702662Y-36800405D01*
X112702659Y-36800409D01*
X112699210Y-36804977D01*
X112696657Y-36810102D01*
X112696655Y-36810107D01*
X112671710Y-36860204D01*
X112608301Y-36987548D01*
X112606733Y-36993056D01*
X112606730Y-36993066D01*
X112554056Y-37178193D01*
X112554053Y-37178204D01*
X112552486Y-37183715D01*
X112551956Y-37189425D01*
X112551956Y-37189430D01*
X112533668Y-37386798D01*
X112532616Y-37386700D01*
X112524757Y-37426208D01*
X112497875Y-37466437D01*
X112482272Y-37482039D01*
X112421640Y-37515370D01*
X112352586Y-37511023D01*
X112296612Y-37470352D01*
X112271144Y-37406019D01*
X112269050Y-37383857D01*
X112268500Y-37372193D01*
X112268500Y-36933089D01*
X112274569Y-36894771D01*
X112292181Y-36860204D01*
X112294252Y-36857353D01*
X112298604Y-36852520D01*
X112393250Y-36688588D01*
X112451745Y-36508560D01*
X112471531Y-36320304D01*
X112451745Y-36132048D01*
X112393250Y-35952020D01*
X112298604Y-35788088D01*
X112216095Y-35696453D01*
X112187424Y-35641376D01*
X112189050Y-35579303D01*
X112220563Y-35525803D01*
X113134638Y-34611727D01*
X113148262Y-34599953D01*
X113167530Y-34585610D01*
X113199372Y-34547661D01*
X113206686Y-34539681D01*
X113207267Y-34539099D01*
X113210590Y-34535777D01*
X113229832Y-34511438D01*
X113232054Y-34508711D01*
X113280302Y-34451214D01*
X113283544Y-34444755D01*
X113285437Y-34441878D01*
X113285643Y-34441592D01*
X113285832Y-34441254D01*
X113287623Y-34438350D01*
X113292110Y-34432677D01*
X113323832Y-34364647D01*
X113325335Y-34361543D01*
X113350295Y-34311844D01*
X113396008Y-34261960D01*
X113461104Y-34243499D01*
X113543561Y-34243499D01*
X113546872Y-34243499D01*
X113606483Y-34237091D01*
X113741331Y-34186796D01*
X113856546Y-34100546D01*
X113942796Y-33985331D01*
X113993091Y-33850483D01*
X113999500Y-33790873D01*
X113999499Y-31995128D01*
X113993091Y-31935517D01*
X113942796Y-31800669D01*
X113856546Y-31685454D01*
X113766030Y-31617694D01*
X113748431Y-31604519D01*
X113748430Y-31604518D01*
X113741331Y-31599204D01*
X113634442Y-31559337D01*
X113613752Y-31551620D01*
X113613750Y-31551619D01*
X113606483Y-31548909D01*
X113598770Y-31548079D01*
X113598767Y-31548079D01*
X113550180Y-31542855D01*
X113550169Y-31542854D01*
X113546873Y-31542500D01*
X113543550Y-31542500D01*
X111754439Y-31542500D01*
X111754420Y-31542500D01*
X111751128Y-31542501D01*
X111747850Y-31542853D01*
X111747838Y-31542854D01*
X111699231Y-31548079D01*
X111699225Y-31548080D01*
X111691517Y-31548909D01*
X111684252Y-31551618D01*
X111684246Y-31551620D01*
X111564980Y-31596104D01*
X111564978Y-31596104D01*
X111556669Y-31599204D01*
X111549572Y-31604516D01*
X111549568Y-31604519D01*
X111448550Y-31680141D01*
X111448546Y-31680144D01*
X111441454Y-31685454D01*
X111436144Y-31692546D01*
X111436141Y-31692550D01*
X111360519Y-31793568D01*
X111360516Y-31793572D01*
X111355204Y-31800669D01*
X111352104Y-31808978D01*
X111352105Y-31808978D01*
X111306189Y-31932083D01*
X111271210Y-31982462D01*
X111216365Y-32009915D01*
X111155072Y-32007726D01*
X111102326Y-31976430D01*
X110984232Y-31858336D01*
X110984230Y-31858334D01*
X110980401Y-31854505D01*
X110975970Y-31851402D01*
X110975966Y-31851399D01*
X110791259Y-31722066D01*
X110791257Y-31722064D01*
X110786830Y-31718965D01*
X110781933Y-31716681D01*
X110781927Y-31716678D01*
X110577572Y-31621386D01*
X110577570Y-31621385D01*
X110572663Y-31619097D01*
X110567438Y-31617697D01*
X110567430Y-31617694D01*
X110349634Y-31559337D01*
X110349630Y-31559336D01*
X110344408Y-31557937D01*
X110339020Y-31557465D01*
X110339017Y-31557465D01*
X110114395Y-31537813D01*
X110109000Y-31537341D01*
X110103605Y-31537813D01*
X109878982Y-31557465D01*
X109878977Y-31557465D01*
X109873592Y-31557937D01*
X109868371Y-31559335D01*
X109868365Y-31559337D01*
X109650569Y-31617694D01*
X109650557Y-31617698D01*
X109645337Y-31619097D01*
X109640432Y-31621383D01*
X109640427Y-31621386D01*
X109436081Y-31716675D01*
X109436077Y-31716677D01*
X109431171Y-31718965D01*
X109426738Y-31722068D01*
X109426731Y-31722073D01*
X109242034Y-31851399D01*
X109242029Y-31851402D01*
X109237599Y-31854505D01*
X109233775Y-31858328D01*
X109233769Y-31858334D01*
X109074334Y-32017769D01*
X109074328Y-32017775D01*
X109070505Y-32021599D01*
X109067402Y-32026029D01*
X109067399Y-32026034D01*
X108940575Y-32207159D01*
X108896257Y-32246025D01*
X108839000Y-32260036D01*
X108781743Y-32246025D01*
X108737425Y-32207159D01*
X108714483Y-32174395D01*
X108607495Y-32021599D01*
X108440401Y-31854505D01*
X108435970Y-31851402D01*
X108435966Y-31851399D01*
X108251259Y-31722066D01*
X108251257Y-31722064D01*
X108246830Y-31718965D01*
X108241933Y-31716681D01*
X108241927Y-31716678D01*
X108037572Y-31621386D01*
X108037570Y-31621385D01*
X108032663Y-31619097D01*
X108027438Y-31617697D01*
X108027430Y-31617694D01*
X107809634Y-31559337D01*
X107809630Y-31559336D01*
X107804408Y-31557937D01*
X107799020Y-31557465D01*
X107799017Y-31557465D01*
X107574395Y-31537813D01*
X107569000Y-31537341D01*
X107563605Y-31537813D01*
X107338982Y-31557465D01*
X107338977Y-31557465D01*
X107333592Y-31557937D01*
X107328371Y-31559335D01*
X107328365Y-31559337D01*
X107110569Y-31617694D01*
X107110557Y-31617698D01*
X107105337Y-31619097D01*
X107100432Y-31621383D01*
X107100427Y-31621386D01*
X106896081Y-31716675D01*
X106896077Y-31716677D01*
X106891171Y-31718965D01*
X106886738Y-31722068D01*
X106886731Y-31722073D01*
X106702034Y-31851399D01*
X106702029Y-31851402D01*
X106697599Y-31854505D01*
X106693775Y-31858328D01*
X106693769Y-31858334D01*
X106534334Y-32017769D01*
X106534328Y-32017775D01*
X106530505Y-32021599D01*
X106527403Y-32026028D01*
X106527403Y-32026029D01*
X106400269Y-32207596D01*
X106355951Y-32246461D01*
X106298694Y-32260472D01*
X106241437Y-32246461D01*
X106197119Y-32207595D01*
X106070215Y-32026357D01*
X106063280Y-32018092D01*
X105903909Y-31858721D01*
X105895643Y-31851784D01*
X105711008Y-31722501D01*
X105701676Y-31717113D01*
X105497397Y-31621856D01*
X105487263Y-31618168D01*
X105292780Y-31566056D01*
X105281551Y-31565688D01*
X105279000Y-31576631D01*
X105279000Y-33019000D01*
X105262387Y-33081000D01*
X105217000Y-33126387D01*
X105155000Y-33143000D01*
X104903000Y-33143000D01*
X104841000Y-33126387D01*
X104795613Y-33081000D01*
X104779000Y-33019000D01*
X104779000Y-31576631D01*
X104776448Y-31565688D01*
X104765219Y-31566056D01*
X104570736Y-31618168D01*
X104560602Y-31621856D01*
X104356332Y-31717110D01*
X104346982Y-31722508D01*
X104162357Y-31851784D01*
X104154092Y-31858719D01*
X103994719Y-32018092D01*
X103987784Y-32026357D01*
X103858508Y-32210982D01*
X103853110Y-32220332D01*
X103811882Y-32308746D01*
X103768840Y-32359142D01*
X103705989Y-32380171D01*
X103641285Y-32365826D01*
X103593211Y-32320206D01*
X103575500Y-32256341D01*
X103575500Y-31472452D01*
X103584939Y-31424999D01*
X103611819Y-31384771D01*
X103701343Y-31295247D01*
X104446353Y-30550235D01*
X104501938Y-30518143D01*
X104566126Y-30518143D01*
X104666592Y-30545063D01*
X104902000Y-30565659D01*
X105137408Y-30545063D01*
X105365663Y-30483903D01*
X105579830Y-30384035D01*
X105773401Y-30248495D01*
X105940495Y-30081401D01*
X106070730Y-29895405D01*
X106115048Y-29856540D01*
X106172305Y-29842529D01*
X106229562Y-29856540D01*
X106273880Y-29895405D01*
X106400784Y-30076643D01*
X106407721Y-30084909D01*
X106567090Y-30244278D01*
X106575356Y-30251215D01*
X106759991Y-30380498D01*
X106769323Y-30385886D01*
X106973602Y-30481143D01*
X106983736Y-30484831D01*
X107178219Y-30536943D01*
X107189448Y-30537311D01*
X107192000Y-30526369D01*
X107692000Y-30526369D01*
X107694551Y-30537311D01*
X107705780Y-30536943D01*
X107900263Y-30484831D01*
X107910397Y-30481143D01*
X108114676Y-30385886D01*
X108124008Y-30380498D01*
X108308643Y-30251215D01*
X108316909Y-30244278D01*
X108476278Y-30084909D01*
X108483215Y-30076643D01*
X108612498Y-29892008D01*
X108617886Y-29882676D01*
X108713143Y-29678397D01*
X108716831Y-29668263D01*
X108768943Y-29473780D01*
X108769311Y-29462551D01*
X108758369Y-29460000D01*
X107708326Y-29460000D01*
X107695450Y-29463450D01*
X107692000Y-29476326D01*
X107692000Y-30526369D01*
X107192000Y-30526369D01*
X107192000Y-28943674D01*
X107692000Y-28943674D01*
X107695450Y-28956549D01*
X107708326Y-28960000D01*
X108758369Y-28960000D01*
X108769311Y-28957448D01*
X108768943Y-28946219D01*
X108716831Y-28751736D01*
X108713143Y-28741602D01*
X108617889Y-28537332D01*
X108612491Y-28527982D01*
X108483215Y-28343357D01*
X108476280Y-28335092D01*
X108316909Y-28175721D01*
X108308643Y-28168784D01*
X108124008Y-28039501D01*
X108114676Y-28034113D01*
X107910397Y-27938856D01*
X107900263Y-27935168D01*
X107705780Y-27883056D01*
X107694551Y-27882688D01*
X107692000Y-27893631D01*
X107692000Y-28943674D01*
X107192000Y-28943674D01*
X107192000Y-27893631D01*
X107189448Y-27882688D01*
X107178219Y-27883056D01*
X106983736Y-27935168D01*
X106973602Y-27938856D01*
X106769332Y-28034110D01*
X106759982Y-28039508D01*
X106575357Y-28168784D01*
X106567092Y-28175719D01*
X106407719Y-28335092D01*
X106400788Y-28343352D01*
X106273880Y-28524596D01*
X106229562Y-28563461D01*
X106172305Y-28577472D01*
X106115048Y-28563461D01*
X106070730Y-28524595D01*
X106070425Y-28524159D01*
X105940495Y-28338599D01*
X105773401Y-28171505D01*
X105768970Y-28168402D01*
X105768966Y-28168399D01*
X105584259Y-28039066D01*
X105584257Y-28039064D01*
X105579830Y-28035965D01*
X105574933Y-28033681D01*
X105574927Y-28033678D01*
X105370572Y-27938386D01*
X105370570Y-27938385D01*
X105365663Y-27936097D01*
X105360438Y-27934697D01*
X105360430Y-27934694D01*
X105142634Y-27876337D01*
X105142630Y-27876336D01*
X105137408Y-27874937D01*
X105132020Y-27874465D01*
X105132017Y-27874465D01*
X104907395Y-27854813D01*
X104902000Y-27854341D01*
X104896605Y-27854813D01*
X104671982Y-27874465D01*
X104671977Y-27874465D01*
X104666592Y-27874937D01*
X104661371Y-27876335D01*
X104661365Y-27876337D01*
X104443569Y-27934694D01*
X104443557Y-27934698D01*
X104438337Y-27936097D01*
X104433432Y-27938383D01*
X104433427Y-27938386D01*
X104229081Y-28033675D01*
X104229077Y-28033677D01*
X104224171Y-28035965D01*
X104219738Y-28039068D01*
X104219731Y-28039073D01*
X104035034Y-28168399D01*
X104035029Y-28168402D01*
X104030599Y-28171505D01*
X104026775Y-28175328D01*
X104026769Y-28175334D01*
X103867334Y-28334769D01*
X103867328Y-28334775D01*
X103863505Y-28338599D01*
X103860402Y-28343029D01*
X103860399Y-28343034D01*
X103733575Y-28524159D01*
X103689257Y-28563025D01*
X103632000Y-28577036D01*
X103574743Y-28563025D01*
X103530425Y-28524159D01*
X103519327Y-28508310D01*
X103400495Y-28338599D01*
X103233401Y-28171505D01*
X103228970Y-28168402D01*
X103228966Y-28168399D01*
X103044259Y-28039066D01*
X103044257Y-28039064D01*
X103039830Y-28035965D01*
X103034933Y-28033681D01*
X103034927Y-28033678D01*
X102830572Y-27938386D01*
X102830570Y-27938385D01*
X102825663Y-27936097D01*
X102820438Y-27934697D01*
X102820430Y-27934694D01*
X102602634Y-27876337D01*
X102602630Y-27876336D01*
X102597408Y-27874937D01*
X102592020Y-27874465D01*
X102592017Y-27874465D01*
X102367395Y-27854813D01*
X102362000Y-27854341D01*
X102356605Y-27854813D01*
X102131982Y-27874465D01*
X102131977Y-27874465D01*
X102126592Y-27874937D01*
X102121371Y-27876335D01*
X102121365Y-27876337D01*
X101903569Y-27934694D01*
X101903557Y-27934698D01*
X101898337Y-27936097D01*
X101893432Y-27938383D01*
X101893427Y-27938386D01*
X101689081Y-28033675D01*
X101689077Y-28033677D01*
X101684171Y-28035965D01*
X101679738Y-28039068D01*
X101679731Y-28039073D01*
X101495034Y-28168399D01*
X101495029Y-28168402D01*
X101490599Y-28171505D01*
X101486775Y-28175328D01*
X101486769Y-28175334D01*
X101327334Y-28334769D01*
X101327328Y-28334775D01*
X101323505Y-28338599D01*
X101320402Y-28343029D01*
X101320399Y-28343034D01*
X101193575Y-28524159D01*
X101149257Y-28563025D01*
X101092000Y-28577036D01*
X101034743Y-28563025D01*
X100990425Y-28524159D01*
X100979327Y-28508310D01*
X100860495Y-28338599D01*
X100693401Y-28171505D01*
X100688970Y-28168402D01*
X100688966Y-28168399D01*
X100504259Y-28039066D01*
X100504257Y-28039064D01*
X100499830Y-28035965D01*
X100494933Y-28033681D01*
X100494927Y-28033678D01*
X100290572Y-27938386D01*
X100290570Y-27938385D01*
X100285663Y-27936097D01*
X100280438Y-27934697D01*
X100280430Y-27934694D01*
X100062634Y-27876337D01*
X100062630Y-27876336D01*
X100057408Y-27874937D01*
X100052020Y-27874465D01*
X100052017Y-27874465D01*
X99827395Y-27854813D01*
X99822000Y-27854341D01*
X99816605Y-27854813D01*
X99591982Y-27874465D01*
X99591977Y-27874465D01*
X99586592Y-27874937D01*
X99581371Y-27876335D01*
X99581365Y-27876337D01*
X99363569Y-27934694D01*
X99363557Y-27934698D01*
X99358337Y-27936097D01*
X99353432Y-27938383D01*
X99353427Y-27938386D01*
X99149081Y-28033675D01*
X99149077Y-28033677D01*
X99144171Y-28035965D01*
X99139738Y-28039068D01*
X99139731Y-28039073D01*
X98955034Y-28168399D01*
X98955029Y-28168402D01*
X98950599Y-28171505D01*
X98946775Y-28175328D01*
X98946769Y-28175334D01*
X98787334Y-28334769D01*
X98787328Y-28334775D01*
X98783505Y-28338599D01*
X98780402Y-28343029D01*
X98780399Y-28343034D01*
X98653575Y-28524159D01*
X98609257Y-28563025D01*
X98552000Y-28577036D01*
X98494743Y-28563025D01*
X98450425Y-28524159D01*
X98439327Y-28508310D01*
X98320495Y-28338599D01*
X98153401Y-28171505D01*
X98148970Y-28168402D01*
X98148966Y-28168399D01*
X97964259Y-28039066D01*
X97964257Y-28039064D01*
X97959830Y-28035965D01*
X97954933Y-28033681D01*
X97954927Y-28033678D01*
X97750572Y-27938386D01*
X97750570Y-27938385D01*
X97745663Y-27936097D01*
X97740438Y-27934697D01*
X97740430Y-27934694D01*
X97522634Y-27876337D01*
X97522630Y-27876336D01*
X97517408Y-27874937D01*
X97512020Y-27874465D01*
X97512017Y-27874465D01*
X97287395Y-27854813D01*
X97282000Y-27854341D01*
X97276605Y-27854813D01*
X97051982Y-27874465D01*
X97051977Y-27874465D01*
X97046592Y-27874937D01*
X97041371Y-27876335D01*
X97041365Y-27876337D01*
X96823569Y-27934694D01*
X96823557Y-27934698D01*
X96818337Y-27936097D01*
X96813432Y-27938383D01*
X96813427Y-27938386D01*
X96609081Y-28033675D01*
X96609077Y-28033677D01*
X96604171Y-28035965D01*
X96599738Y-28039068D01*
X96599731Y-28039073D01*
X96415034Y-28168399D01*
X96415029Y-28168402D01*
X96410599Y-28171505D01*
X96406775Y-28175329D01*
X96288673Y-28293431D01*
X96235926Y-28324726D01*
X96174633Y-28326915D01*
X96119789Y-28299462D01*
X96084810Y-28249082D01*
X96076725Y-28227405D01*
X96035796Y-28117669D01*
X95949546Y-28002454D01*
X95859030Y-27934694D01*
X95841431Y-27921519D01*
X95841430Y-27921518D01*
X95834331Y-27916204D01*
X95727442Y-27876337D01*
X95706752Y-27868620D01*
X95706750Y-27868619D01*
X95699483Y-27865909D01*
X95691770Y-27865079D01*
X95691767Y-27865079D01*
X95643180Y-27859855D01*
X95643169Y-27859854D01*
X95639873Y-27859500D01*
X95636550Y-27859500D01*
X93847439Y-27859500D01*
X93847420Y-27859500D01*
X93844128Y-27859501D01*
X93840850Y-27859853D01*
X93840838Y-27859854D01*
X93792231Y-27865079D01*
X93792225Y-27865080D01*
X93784517Y-27865909D01*
X93777252Y-27868618D01*
X93777246Y-27868620D01*
X93657980Y-27913104D01*
X93657978Y-27913104D01*
X93649669Y-27916204D01*
X93642572Y-27921516D01*
X93642568Y-27921519D01*
X93541550Y-27997141D01*
X93541546Y-27997144D01*
X93534454Y-28002454D01*
X93529144Y-28009546D01*
X93529141Y-28009550D01*
X93453519Y-28110568D01*
X93453516Y-28110572D01*
X93448204Y-28117669D01*
X93445104Y-28125978D01*
X93445104Y-28125980D01*
X93400620Y-28245247D01*
X93400619Y-28245250D01*
X93397909Y-28252517D01*
X93397079Y-28260227D01*
X93397079Y-28260232D01*
X93391855Y-28308819D01*
X93391854Y-28308831D01*
X93391500Y-28312127D01*
X93391500Y-28315448D01*
X93391500Y-28315449D01*
X93391500Y-30104560D01*
X93391500Y-30104578D01*
X93391501Y-30107872D01*
X93391853Y-30111150D01*
X93391854Y-30111161D01*
X93397079Y-30159768D01*
X93397080Y-30159773D01*
X93397909Y-30167483D01*
X93400619Y-30174749D01*
X93400620Y-30174753D01*
X93445105Y-30294023D01*
X93448204Y-30302331D01*
X93453516Y-30309427D01*
X93454333Y-30310923D01*
X93469500Y-30370348D01*
X93469500Y-30793508D01*
X93457357Y-30847024D01*
X93423307Y-30890059D01*
X93374018Y-30914184D01*
X93370223Y-30915080D01*
X93362517Y-30915909D01*
X93355258Y-30918616D01*
X93355251Y-30918618D01*
X93235980Y-30963104D01*
X93235978Y-30963104D01*
X93227669Y-30966204D01*
X93220572Y-30971516D01*
X93220568Y-30971519D01*
X93119550Y-31047141D01*
X93119546Y-31047144D01*
X93112454Y-31052454D01*
X93107144Y-31059546D01*
X93107141Y-31059550D01*
X93031519Y-31160568D01*
X93031516Y-31160572D01*
X93026204Y-31167669D01*
X93023104Y-31175978D01*
X93023104Y-31175980D01*
X92978620Y-31295247D01*
X92978619Y-31295250D01*
X92975909Y-31302517D01*
X92975079Y-31310227D01*
X92975079Y-31310232D01*
X92969855Y-31358819D01*
X92969854Y-31358831D01*
X92969500Y-31362127D01*
X92969500Y-31365448D01*
X92969500Y-31365449D01*
X92969500Y-33454560D01*
X92969500Y-33454578D01*
X92969501Y-33457872D01*
X92969853Y-33461150D01*
X92969854Y-33461161D01*
X92975079Y-33509768D01*
X92975080Y-33509773D01*
X92975909Y-33517483D01*
X92978619Y-33524749D01*
X92978620Y-33524753D01*
X92995806Y-33570830D01*
X93026204Y-33652331D01*
X93031518Y-33659430D01*
X93031519Y-33659431D01*
X93106779Y-33759966D01*
X93112454Y-33767546D01*
X93225205Y-33851952D01*
X93265171Y-33903084D01*
X93273833Y-33967403D01*
X93265529Y-34030478D01*
X93265528Y-34030485D01*
X93265000Y-34034500D01*
X93265000Y-38849155D01*
X93265429Y-38852782D01*
X93265430Y-38852793D01*
X93278537Y-38963532D01*
X93278539Y-38963546D01*
X93278968Y-38967166D01*
X93279818Y-38970708D01*
X93279820Y-38970717D01*
X93291632Y-39019915D01*
X93292484Y-39023462D01*
X93293744Y-39026877D01*
X93293747Y-39026887D01*
X93326219Y-39114900D01*
X93333616Y-39134950D01*
X93399638Y-39233756D01*
X93430564Y-39269964D01*
X93431573Y-39269101D01*
X93438865Y-39275666D01*
X93446956Y-39285138D01*
X93449188Y-39288478D01*
X93448212Y-39289358D01*
X93454279Y-39296096D01*
X93454281Y-39296099D01*
X93530600Y-39380860D01*
X93545837Y-39401831D01*
X93574322Y-39451168D01*
X93584864Y-39474847D01*
X93602468Y-39529027D01*
X93607858Y-39554383D01*
X93613813Y-39611037D01*
X93613813Y-39636959D01*
X93608428Y-39688201D01*
X93608579Y-39692530D01*
X93608579Y-39692537D01*
X93613188Y-39824492D01*
X93613189Y-39824501D01*
X93613340Y-39828824D01*
X93625211Y-39896143D01*
X93668690Y-40029956D01*
X93747368Y-40146601D01*
X93793108Y-40197401D01*
X93796426Y-40200185D01*
X93796428Y-40200187D01*
X93859890Y-40253439D01*
X93900895Y-40287846D01*
X94029436Y-40345076D01*
X94095146Y-40363918D01*
X94234480Y-40383500D01*
X95825724Y-40383500D01*
X95830015Y-40383500D01*
X95968356Y-40364202D01*
X96033631Y-40345629D01*
X96161399Y-40289213D01*
X96243885Y-40238139D01*
X96264356Y-40227947D01*
X96287781Y-40218872D01*
X96332574Y-40210499D01*
X96707423Y-40210499D01*
X96752214Y-40218871D01*
X96752217Y-40218872D01*
X96775639Y-40227945D01*
X96796113Y-40238140D01*
X96878599Y-40289213D01*
X97006370Y-40345629D01*
X97071646Y-40364202D01*
X97209985Y-40383500D01*
X97214276Y-40383500D01*
X97806163Y-40383500D01*
X97839823Y-40388156D01*
X97846361Y-40390000D01*
X98663500Y-40390000D01*
X98725500Y-40406613D01*
X98770887Y-40452000D01*
X98787500Y-40514000D01*
X98787500Y-40766000D01*
X98770887Y-40828000D01*
X98725500Y-40873387D01*
X98663500Y-40890000D01*
X97846363Y-40890000D01*
X97833218Y-40893706D01*
X97829540Y-40912196D01*
X97806298Y-40963489D01*
X97762766Y-40999213D01*
X97707924Y-41012000D01*
X97378306Y-41012000D01*
X97375448Y-41012264D01*
X97375443Y-41012265D01*
X97288290Y-41020340D01*
X97288278Y-41020341D01*
X97285425Y-41020606D01*
X97282604Y-41021133D01*
X97282599Y-41021134D01*
X97243444Y-41028453D01*
X97243440Y-41028453D01*
X97240631Y-41028979D01*
X97237876Y-41029762D01*
X97237871Y-41029764D01*
X97156419Y-41052939D01*
X97156417Y-41052939D01*
X97150905Y-41054508D01*
X97145782Y-41057058D01*
X97145774Y-41057062D01*
X97069968Y-41094809D01*
X97069946Y-41094820D01*
X97067398Y-41096090D01*
X97064953Y-41097603D01*
X97064951Y-41097605D01*
X97031097Y-41118566D01*
X97031082Y-41118575D01*
X97028655Y-41120079D01*
X97026383Y-41121794D01*
X97026368Y-41121805D01*
X96956488Y-41174577D01*
X96956481Y-41174582D01*
X96954215Y-41176294D01*
X96952127Y-41178197D01*
X96952101Y-41178219D01*
X96888593Y-41236114D01*
X96870333Y-41249903D01*
X96796119Y-41295854D01*
X96775635Y-41306054D01*
X96694237Y-41337587D01*
X96672231Y-41343848D01*
X96609519Y-41355572D01*
X96586431Y-41359888D01*
X96563647Y-41362000D01*
X96476353Y-41362000D01*
X96453568Y-41359888D01*
X96425592Y-41354658D01*
X96367767Y-41343848D01*
X96345761Y-41337587D01*
X96264363Y-41306054D01*
X96243879Y-41295854D01*
X96169665Y-41249903D01*
X96151404Y-41236113D01*
X96087895Y-41178218D01*
X96087892Y-41178215D01*
X96085782Y-41176292D01*
X96028748Y-41133221D01*
X96013639Y-41121811D01*
X96013633Y-41121807D01*
X96011349Y-41120082D01*
X95977735Y-41099268D01*
X95975048Y-41097604D01*
X95975040Y-41097599D01*
X95972607Y-41096093D01*
X95970044Y-41094817D01*
X95970032Y-41094810D01*
X95894233Y-41057066D01*
X95894232Y-41057065D01*
X95889098Y-41054509D01*
X95799369Y-41028979D01*
X95754575Y-41020606D01*
X95751718Y-41020341D01*
X95751709Y-41020340D01*
X95664556Y-41012265D01*
X95664552Y-41012264D01*
X95661694Y-41012000D01*
X95524150Y-41012000D01*
X95520716Y-41012384D01*
X95520710Y-41012385D01*
X95415733Y-41024145D01*
X95415721Y-41024146D01*
X95412293Y-41024531D01*
X95408934Y-41025293D01*
X95408917Y-41025296D01*
X95362153Y-41035907D01*
X95362136Y-41035911D01*
X95358777Y-41036674D01*
X95355526Y-41037804D01*
X95355507Y-41037810D01*
X95259011Y-41071369D01*
X95259009Y-41071369D01*
X95252470Y-41073644D01*
X95246597Y-41077307D01*
X95246593Y-41077310D01*
X95159910Y-41131391D01*
X95159900Y-41131397D01*
X95156978Y-41133221D01*
X95154278Y-41135357D01*
X95154267Y-41135365D01*
X95116657Y-41165123D01*
X95116650Y-41165128D01*
X95113943Y-41167271D01*
X95111488Y-41169703D01*
X95111487Y-41169705D01*
X95038912Y-41241634D01*
X95038909Y-41241637D01*
X95033997Y-41246506D01*
X95030287Y-41252334D01*
X95030281Y-41252343D01*
X95026380Y-41258475D01*
X94981436Y-41300600D01*
X94921767Y-41315900D01*
X94624383Y-41315900D01*
X93536799Y-41315900D01*
X93474800Y-41299288D01*
X93429413Y-41253901D01*
X93412800Y-41191901D01*
X93412800Y-40881678D01*
X93412800Y-40878628D01*
X93403087Y-40780011D01*
X93393648Y-40732558D01*
X93364881Y-40637727D01*
X93318166Y-40550332D01*
X93291286Y-40510104D01*
X93289360Y-40507758D01*
X93289354Y-40507749D01*
X93230352Y-40435856D01*
X93230347Y-40435851D01*
X93228423Y-40433506D01*
X93226280Y-40431363D01*
X93226271Y-40431353D01*
X93154712Y-40359795D01*
X93154712Y-40359794D01*
X93152123Y-40357206D01*
X93138248Y-40346268D01*
X93061683Y-40285908D01*
X93061682Y-40285907D01*
X93058806Y-40283640D01*
X93009443Y-40253390D01*
X93006139Y-40251866D01*
X93006130Y-40251862D01*
X92908165Y-40206699D01*
X92908160Y-40206697D01*
X92901526Y-40203639D01*
X92894352Y-40202212D01*
X92788563Y-40181169D01*
X92788554Y-40181167D01*
X92784976Y-40180456D01*
X92781338Y-40180169D01*
X92781333Y-40180169D01*
X92730897Y-40176200D01*
X92730893Y-40176199D01*
X92727260Y-40175914D01*
X92723617Y-40176057D01*
X92723611Y-40176057D01*
X92716529Y-40176335D01*
X92711870Y-40176518D01*
X92647834Y-40161589D01*
X92600434Y-40116016D01*
X92583000Y-40052615D01*
X92583000Y-28192900D01*
X92583469Y-28182122D01*
X92586853Y-28143438D01*
X92586922Y-28142705D01*
X92599632Y-28013658D01*
X92603253Y-27993758D01*
X92620825Y-27928176D01*
X92621881Y-27924477D01*
X92650244Y-27830977D01*
X92656505Y-27814614D01*
X92687655Y-27747810D01*
X92690658Y-27741805D01*
X92733940Y-27660829D01*
X92741707Y-27648186D01*
X92785169Y-27586115D01*
X92790842Y-27578638D01*
X92847963Y-27509036D01*
X92856096Y-27500063D01*
X92910063Y-27446096D01*
X92919036Y-27437963D01*
X92988638Y-27380842D01*
X92996115Y-27375169D01*
X93058186Y-27331707D01*
X93070829Y-27323940D01*
X93151816Y-27280652D01*
X93157810Y-27277655D01*
X93224614Y-27246505D01*
X93240977Y-27240244D01*
X93334477Y-27211881D01*
X93338176Y-27210825D01*
X93403758Y-27193253D01*
X93423663Y-27189631D01*
X93531916Y-27178970D01*
X93535704Y-27178597D01*
X93547856Y-27178000D01*
X112907045Y-27178000D01*
X114802623Y-27178498D01*
G37*
%TD.AperFunction*%
%TA.AperFunction,Conductor*%
G36*
X110743953Y-39759249D02*
G01*
X110743955Y-39759213D01*
X110746375Y-39759307D01*
X110748819Y-39759500D01*
X111124000Y-39759499D01*
X111186000Y-39776112D01*
X111231387Y-39821499D01*
X111248000Y-39883499D01*
X111248000Y-40135000D01*
X111231387Y-40197000D01*
X111186000Y-40242387D01*
X111124000Y-40259000D01*
X111090561Y-40259000D01*
X111045767Y-40250626D01*
X111007026Y-40226639D01*
X110968751Y-40191747D01*
X110963881Y-40188732D01*
X110963879Y-40188730D01*
X110800221Y-40087398D01*
X110800222Y-40087398D01*
X110795347Y-40084380D01*
X110681909Y-40040434D01*
X110610513Y-40012775D01*
X110610508Y-40012773D01*
X110605166Y-40010704D01*
X110599531Y-40009650D01*
X110599529Y-40009650D01*
X110574058Y-40004889D01*
X110519105Y-39979606D01*
X110482651Y-39931334D01*
X110473372Y-39871559D01*
X110493476Y-39814507D01*
X110538179Y-39773755D01*
X110596843Y-39759000D01*
X110737591Y-39759000D01*
X110743953Y-39759249D01*
G37*
%TD.AperFunction*%
%TA.AperFunction,Conductor*%
G36*
X106355951Y-33539540D02*
G01*
X106400269Y-33578405D01*
X106527399Y-33759966D01*
X106527402Y-33759970D01*
X106530505Y-33764401D01*
X106697599Y-33931495D01*
X106702031Y-33934598D01*
X106702033Y-33934600D01*
X106784630Y-33992435D01*
X106891170Y-34067035D01*
X107096150Y-34162619D01*
X107146544Y-34205660D01*
X107167574Y-34268510D01*
X107153230Y-34333214D01*
X107107610Y-34381288D01*
X107043745Y-34399000D01*
X106955787Y-34399000D01*
X106950947Y-34399191D01*
X106923401Y-34401358D01*
X106911000Y-34403622D01*
X106769297Y-34444791D01*
X106755089Y-34450939D01*
X106743118Y-34458019D01*
X106680000Y-34475285D01*
X106616882Y-34458019D01*
X106604910Y-34450939D01*
X106590702Y-34444791D01*
X106449002Y-34403623D01*
X106438415Y-34401689D01*
X106425706Y-34404217D01*
X106422000Y-34417359D01*
X106422000Y-34912674D01*
X106425450Y-34925549D01*
X106438326Y-34929000D01*
X107259500Y-34929000D01*
X107321500Y-34945613D01*
X107366887Y-34991000D01*
X107383500Y-35052999D01*
X107383501Y-35234499D01*
X107366888Y-35296500D01*
X107321501Y-35341887D01*
X107259501Y-35358500D01*
X106953310Y-35358500D01*
X106950890Y-35358690D01*
X106950875Y-35358691D01*
X106923324Y-35360859D01*
X106923315Y-35360860D01*
X106917007Y-35361357D01*
X106910927Y-35363123D01*
X106910918Y-35363125D01*
X106769097Y-35404329D01*
X106769094Y-35404330D01*
X106761605Y-35406506D01*
X106754893Y-35410475D01*
X106754887Y-35410478D01*
X106752766Y-35411733D01*
X106750650Y-35412311D01*
X106747729Y-35413576D01*
X106747549Y-35413160D01*
X106689647Y-35429000D01*
X106670353Y-35429000D01*
X106612450Y-35413160D01*
X106612271Y-35413576D01*
X106609349Y-35412311D01*
X106607234Y-35411733D01*
X106605112Y-35410478D01*
X106605109Y-35410476D01*
X106598395Y-35406506D01*
X106590902Y-35404329D01*
X106449081Y-35363125D01*
X106449074Y-35363123D01*
X106442993Y-35361357D01*
X106436682Y-35360860D01*
X106436675Y-35360859D01*
X106409124Y-35358691D01*
X106409110Y-35358690D01*
X106406690Y-35358500D01*
X105937310Y-35358500D01*
X105934890Y-35358690D01*
X105934875Y-35358691D01*
X105907324Y-35360859D01*
X105907315Y-35360860D01*
X105901007Y-35361357D01*
X105894927Y-35363123D01*
X105894918Y-35363125D01*
X105753097Y-35404329D01*
X105753094Y-35404330D01*
X105745605Y-35406506D01*
X105738893Y-35410475D01*
X105738887Y-35410478D01*
X105736766Y-35411733D01*
X105734650Y-35412311D01*
X105731729Y-35413576D01*
X105731549Y-35413160D01*
X105673647Y-35429000D01*
X105654353Y-35429000D01*
X105596450Y-35413160D01*
X105596271Y-35413576D01*
X105593349Y-35412311D01*
X105591234Y-35411733D01*
X105589112Y-35410478D01*
X105589109Y-35410476D01*
X105582395Y-35406506D01*
X105574902Y-35404329D01*
X105433081Y-35363125D01*
X105433074Y-35363123D01*
X105426993Y-35361357D01*
X105420682Y-35360860D01*
X105420675Y-35360859D01*
X105393124Y-35358691D01*
X105393110Y-35358690D01*
X105390690Y-35358500D01*
X104921310Y-35358500D01*
X104918890Y-35358690D01*
X104918875Y-35358691D01*
X104891324Y-35360859D01*
X104891315Y-35360860D01*
X104885007Y-35361357D01*
X104878927Y-35363123D01*
X104878918Y-35363125D01*
X104737097Y-35404329D01*
X104737094Y-35404330D01*
X104729605Y-35406506D01*
X104722893Y-35410475D01*
X104722887Y-35410478D01*
X104720766Y-35411733D01*
X104718650Y-35412311D01*
X104715729Y-35413576D01*
X104715549Y-35413160D01*
X104657647Y-35429000D01*
X104638353Y-35429000D01*
X104580450Y-35413160D01*
X104580271Y-35413576D01*
X104577349Y-35412311D01*
X104575234Y-35411733D01*
X104573112Y-35410478D01*
X104573109Y-35410476D01*
X104566395Y-35406506D01*
X104558902Y-35404329D01*
X104417081Y-35363125D01*
X104417074Y-35363123D01*
X104410993Y-35361357D01*
X104404682Y-35360860D01*
X104404675Y-35360859D01*
X104377124Y-35358691D01*
X104377110Y-35358690D01*
X104374690Y-35358500D01*
X104014000Y-35358500D01*
X103952000Y-35341887D01*
X103906613Y-35296500D01*
X103890000Y-35234500D01*
X103890000Y-34417363D01*
X103886293Y-34404218D01*
X103873585Y-34401690D01*
X103862993Y-34403624D01*
X103825685Y-34414463D01*
X103765627Y-34416743D01*
X103711552Y-34390513D01*
X103676162Y-34341936D01*
X103667772Y-34282427D01*
X103679960Y-34166469D01*
X103679281Y-34160009D01*
X103679281Y-34160003D01*
X103676673Y-34135194D01*
X103686713Y-34071795D01*
X103727104Y-34021915D01*
X103830371Y-33946888D01*
X103905606Y-33863330D01*
X103961499Y-33827722D01*
X104027752Y-33825987D01*
X104085435Y-33858623D01*
X104154090Y-33927278D01*
X104162356Y-33934215D01*
X104346991Y-34063498D01*
X104356323Y-34068886D01*
X104560602Y-34164143D01*
X104570738Y-34167832D01*
X104724924Y-34209146D01*
X104777904Y-34238707D01*
X104810519Y-34289862D01*
X104814962Y-34350368D01*
X104790170Y-34405739D01*
X104742078Y-34442722D01*
X104723091Y-34450938D01*
X104711118Y-34458019D01*
X104648000Y-34475285D01*
X104584882Y-34458019D01*
X104572910Y-34450939D01*
X104558702Y-34444791D01*
X104417002Y-34403623D01*
X104406415Y-34401689D01*
X104393706Y-34404217D01*
X104390000Y-34417359D01*
X104390000Y-34912674D01*
X104393450Y-34925549D01*
X104406326Y-34929000D01*
X105905674Y-34929000D01*
X105918549Y-34925549D01*
X105922000Y-34912674D01*
X105922000Y-34417363D01*
X105918293Y-34404218D01*
X105905585Y-34401690D01*
X105894994Y-34403624D01*
X105753297Y-34444791D01*
X105739089Y-34450939D01*
X105727118Y-34458019D01*
X105664000Y-34475285D01*
X105600882Y-34458019D01*
X105588910Y-34450939D01*
X105574702Y-34444791D01*
X105463313Y-34412429D01*
X105408769Y-34379552D01*
X105377739Y-34323937D01*
X105378407Y-34260254D01*
X105410598Y-34205303D01*
X105465819Y-34173577D01*
X105487262Y-34167832D01*
X105497397Y-34164143D01*
X105701676Y-34068886D01*
X105711008Y-34063498D01*
X105895643Y-33934215D01*
X105903909Y-33927278D01*
X106063278Y-33767909D01*
X106070219Y-33759638D01*
X106197119Y-33578406D01*
X106241437Y-33539540D01*
X106298694Y-33525529D01*
X106355951Y-33539540D01*
G37*
%TD.AperFunction*%
%TA.AperFunction,Conductor*%
G36*
X100912500Y-32575113D02*
G01*
X100957887Y-32620500D01*
X100974500Y-32682500D01*
X100974500Y-35008500D01*
X100957887Y-35070500D01*
X100912500Y-35115887D01*
X100850500Y-35132500D01*
X100712000Y-35132500D01*
X100650000Y-35115887D01*
X100604613Y-35070500D01*
X100588000Y-35008500D01*
X100588000Y-34191363D01*
X100584293Y-34178218D01*
X100571585Y-34175690D01*
X100561000Y-34177623D01*
X100425094Y-34217107D01*
X100362445Y-34218815D01*
X100306963Y-34189668D01*
X100281991Y-34166903D01*
X100242397Y-34130808D01*
X100226983Y-34113900D01*
X100174375Y-34044234D01*
X100162335Y-34024790D01*
X100123418Y-33946633D01*
X100115156Y-33925305D01*
X100101362Y-33876826D01*
X100097208Y-33862225D01*
X100056357Y-33761415D01*
X100033458Y-33718773D01*
X100018991Y-33668524D01*
X100026523Y-33616777D01*
X100060888Y-33524638D01*
X100064427Y-33509666D01*
X100068928Y-33467793D01*
X100092606Y-33407198D01*
X100143703Y-33366930D01*
X100208154Y-33358073D01*
X100268218Y-33383066D01*
X100279334Y-33391688D01*
X100405090Y-33466060D01*
X100419297Y-33472208D01*
X100560997Y-33513376D01*
X100571584Y-33515310D01*
X100584293Y-33512782D01*
X100588000Y-33499641D01*
X100588000Y-32682500D01*
X100604613Y-32620500D01*
X100650000Y-32575113D01*
X100712000Y-32558500D01*
X100850500Y-32558500D01*
X100912500Y-32575113D01*
G37*
%TD.AperFunction*%
%TD*%
%TA.AperFunction,Conductor*%
%TO.N,GNDA*%
G36*
X92745318Y-40684398D02*
G01*
X92794681Y-40714648D01*
X92870981Y-40790948D01*
X92897861Y-40831176D01*
X92907300Y-40878629D01*
X92907300Y-41560960D01*
X92907300Y-41560978D01*
X92907301Y-41564272D01*
X92907653Y-41567550D01*
X92907654Y-41567561D01*
X92912879Y-41616168D01*
X92912880Y-41616173D01*
X92913709Y-41623883D01*
X92916419Y-41631149D01*
X92916420Y-41631153D01*
X92935467Y-41682219D01*
X92964004Y-41758731D01*
X92969318Y-41765830D01*
X92969319Y-41765831D01*
X93039005Y-41858920D01*
X93050254Y-41873946D01*
X93165469Y-41960196D01*
X93300317Y-42010491D01*
X93359927Y-42016900D01*
X94955672Y-42016899D01*
X95015283Y-42010491D01*
X95150131Y-41960196D01*
X95265346Y-41873946D01*
X95351596Y-41758731D01*
X95401891Y-41623883D01*
X95402719Y-41616173D01*
X95403474Y-41612983D01*
X95427599Y-41563693D01*
X95470634Y-41529643D01*
X95524150Y-41517500D01*
X95661694Y-41517500D01*
X95706488Y-41525873D01*
X95745230Y-41549862D01*
X95853959Y-41648981D01*
X96027363Y-41756348D01*
X96217544Y-41830024D01*
X96418024Y-41867500D01*
X96616247Y-41867500D01*
X96621976Y-41867500D01*
X96822456Y-41830024D01*
X97012637Y-41756348D01*
X97186041Y-41648981D01*
X97294769Y-41549862D01*
X97333512Y-41525873D01*
X97378306Y-41517500D01*
X98417293Y-41517500D01*
X98435264Y-41518809D01*
X98439160Y-41519379D01*
X98459023Y-41522289D01*
X98508368Y-41517972D01*
X98519176Y-41517500D01*
X98521100Y-41517500D01*
X98524709Y-41517500D01*
X98555550Y-41513894D01*
X98559031Y-41513539D01*
X98633797Y-41506999D01*
X98640653Y-41504726D01*
X98644043Y-41504027D01*
X98644375Y-41503973D01*
X98644728Y-41503873D01*
X98648071Y-41503080D01*
X98655255Y-41502241D01*
X98725760Y-41476579D01*
X98729118Y-41475412D01*
X98787404Y-41456098D01*
X98816680Y-41450186D01*
X98817590Y-41450114D01*
X98848993Y-41447643D01*
X99004395Y-41402494D01*
X99011115Y-41398520D01*
X99024877Y-41390381D01*
X99087999Y-41373112D01*
X99151120Y-41390380D01*
X99164885Y-41398520D01*
X99171605Y-41402494D01*
X99305378Y-41441359D01*
X99319737Y-41445531D01*
X99327007Y-41447643D01*
X99363310Y-41450500D01*
X99365755Y-41450500D01*
X99736151Y-41450500D01*
X99791750Y-41463663D01*
X99835545Y-41500359D01*
X99858237Y-41552796D01*
X99855008Y-41609841D01*
X99829533Y-41654180D01*
X99829863Y-41654420D01*
X99827629Y-41657493D01*
X99826545Y-41659382D01*
X99825276Y-41660732D01*
X99825271Y-41660738D01*
X99819938Y-41666418D01*
X99816182Y-41673249D01*
X99816179Y-41673254D01*
X99810285Y-41683975D01*
X99799609Y-41700227D01*
X99792109Y-41709896D01*
X99792101Y-41709907D01*
X99787327Y-41716064D01*
X99784234Y-41723208D01*
X99784229Y-41723219D01*
X99769974Y-41756160D01*
X99764838Y-41766643D01*
X99743803Y-41804908D01*
X99741864Y-41812456D01*
X99741863Y-41812461D01*
X99738822Y-41824307D01*
X99732521Y-41842711D01*
X99727658Y-41853948D01*
X99727656Y-41853952D01*
X99724562Y-41861104D01*
X99723342Y-41868803D01*
X99723342Y-41868805D01*
X99717729Y-41904241D01*
X99715361Y-41915676D01*
X99706438Y-41950428D01*
X99706436Y-41950436D01*
X99704500Y-41957981D01*
X99704500Y-41965777D01*
X99704500Y-41978017D01*
X99702974Y-41997402D01*
X99699840Y-42017196D01*
X99700574Y-42024961D01*
X99700574Y-42024964D01*
X99703950Y-42060676D01*
X99704500Y-42072345D01*
X99704500Y-42441548D01*
X99695061Y-42489001D01*
X99668181Y-42529228D01*
X98418296Y-43779113D01*
X94689081Y-47508327D01*
X94643811Y-47537168D01*
X94590593Y-47544174D01*
X94539400Y-47528033D01*
X94524364Y-47519352D01*
X94524363Y-47519351D01*
X94519244Y-47516396D01*
X94513660Y-47514463D01*
X94513655Y-47514461D01*
X94326214Y-47449587D01*
X94326208Y-47449585D01*
X94320633Y-47447656D01*
X94314794Y-47446816D01*
X94314788Y-47446815D01*
X94118441Y-47418585D01*
X94118435Y-47418584D01*
X94112602Y-47417746D01*
X94106716Y-47418026D01*
X94106710Y-47418026D01*
X93908567Y-47427465D01*
X93908565Y-47427465D01*
X93902670Y-47427746D01*
X93896942Y-47429135D01*
X93896932Y-47429137D01*
X93704160Y-47475904D01*
X93704155Y-47475905D01*
X93698424Y-47477296D01*
X93693054Y-47479747D01*
X93693052Y-47479749D01*
X93512621Y-47562149D01*
X93512614Y-47562152D01*
X93507247Y-47564604D01*
X93502437Y-47568028D01*
X93502432Y-47568032D01*
X93340865Y-47683083D01*
X93340859Y-47683087D01*
X93336048Y-47686514D01*
X93331974Y-47690786D01*
X93331969Y-47690791D01*
X93195088Y-47834348D01*
X93195082Y-47834355D01*
X93191014Y-47838622D01*
X93187822Y-47843588D01*
X93187821Y-47843590D01*
X93080582Y-48010455D01*
X93080578Y-48010462D01*
X93077387Y-48015428D01*
X93075195Y-48020903D01*
X93075190Y-48020913D01*
X93001469Y-48205060D01*
X93001466Y-48205069D01*
X92999275Y-48210543D01*
X92998158Y-48216334D01*
X92998156Y-48216344D01*
X92960617Y-48411117D01*
X92959500Y-48416915D01*
X92959500Y-49574425D01*
X92959779Y-49577354D01*
X92959780Y-49577360D01*
X92972712Y-49712793D01*
X92974472Y-49731218D01*
X93033684Y-49932875D01*
X93129989Y-50119682D01*
X93133642Y-50124327D01*
X93235637Y-50254024D01*
X93259908Y-50284886D01*
X93418744Y-50422519D01*
X93600756Y-50527604D01*
X93799367Y-50596344D01*
X94007398Y-50626254D01*
X94217330Y-50616254D01*
X94421576Y-50566704D01*
X94612753Y-50479396D01*
X94783952Y-50357486D01*
X94928986Y-50205378D01*
X95042613Y-50028572D01*
X95120725Y-49833457D01*
X95160500Y-49627085D01*
X95160500Y-48857452D01*
X95169939Y-48809999D01*
X95196819Y-48769771D01*
X95247819Y-48718771D01*
X95297182Y-48688521D01*
X95354898Y-48683979D01*
X95408385Y-48706134D01*
X95445985Y-48750157D01*
X95459500Y-48806452D01*
X95459500Y-49574425D01*
X95459779Y-49577354D01*
X95459780Y-49577360D01*
X95472712Y-49712793D01*
X95474472Y-49731218D01*
X95533684Y-49932875D01*
X95629989Y-50119682D01*
X95633642Y-50124327D01*
X95735637Y-50254024D01*
X95759908Y-50284886D01*
X95918744Y-50422519D01*
X96100756Y-50527604D01*
X96299367Y-50596344D01*
X96507398Y-50626254D01*
X96717330Y-50616254D01*
X96921576Y-50566704D01*
X97112753Y-50479396D01*
X97283952Y-50357486D01*
X97428986Y-50205378D01*
X97542613Y-50028572D01*
X97620725Y-49833457D01*
X97660500Y-49627085D01*
X97660500Y-48975683D01*
X98205740Y-48975683D01*
X98215755Y-49160407D01*
X98217552Y-49166882D01*
X98217553Y-49166883D01*
X98263446Y-49332179D01*
X98263448Y-49332186D01*
X98265246Y-49338659D01*
X98268392Y-49344594D01*
X98268395Y-49344600D01*
X98348750Y-49496164D01*
X98348753Y-49496169D01*
X98351900Y-49502104D01*
X98356248Y-49507224D01*
X98356251Y-49507227D01*
X98462984Y-49632882D01*
X98471663Y-49643100D01*
X98618936Y-49755054D01*
X98786833Y-49832732D01*
X98967503Y-49872500D01*
X99102754Y-49872500D01*
X99106113Y-49872500D01*
X99243910Y-49857514D01*
X99419221Y-49798444D01*
X99577736Y-49703070D01*
X99712041Y-49575849D01*
X99713006Y-49574425D01*
X100459500Y-49574425D01*
X100459779Y-49577354D01*
X100459780Y-49577360D01*
X100472712Y-49712793D01*
X100474472Y-49731218D01*
X100533684Y-49932875D01*
X100629989Y-50119682D01*
X100633642Y-50124327D01*
X100735637Y-50254024D01*
X100759908Y-50284886D01*
X100918744Y-50422519D01*
X101100756Y-50527604D01*
X101299367Y-50596344D01*
X101507398Y-50626254D01*
X101717330Y-50616254D01*
X101921576Y-50566704D01*
X102112753Y-50479396D01*
X102283952Y-50357486D01*
X102428986Y-50205378D01*
X102542613Y-50028572D01*
X102620725Y-49833457D01*
X102660500Y-49627085D01*
X102660500Y-48469575D01*
X102645528Y-48312782D01*
X102586316Y-48111125D01*
X102490011Y-47924318D01*
X102360092Y-47759114D01*
X102201256Y-47621481D01*
X102019244Y-47516396D01*
X102013660Y-47514463D01*
X102013655Y-47514461D01*
X101826214Y-47449587D01*
X101826208Y-47449585D01*
X101820633Y-47447656D01*
X101814794Y-47446816D01*
X101814788Y-47446815D01*
X101618441Y-47418585D01*
X101618435Y-47418584D01*
X101612602Y-47417746D01*
X101606716Y-47418026D01*
X101606710Y-47418026D01*
X101408567Y-47427465D01*
X101408565Y-47427465D01*
X101402670Y-47427746D01*
X101396942Y-47429135D01*
X101396932Y-47429137D01*
X101204160Y-47475904D01*
X101204155Y-47475905D01*
X101198424Y-47477296D01*
X101193054Y-47479747D01*
X101193052Y-47479749D01*
X101012621Y-47562149D01*
X101012614Y-47562152D01*
X101007247Y-47564604D01*
X101002437Y-47568028D01*
X101002432Y-47568032D01*
X100840865Y-47683083D01*
X100840859Y-47683087D01*
X100836048Y-47686514D01*
X100831974Y-47690786D01*
X100831969Y-47690791D01*
X100695088Y-47834348D01*
X100695082Y-47834355D01*
X100691014Y-47838622D01*
X100687822Y-47843588D01*
X100687821Y-47843590D01*
X100580582Y-48010455D01*
X100580578Y-48010462D01*
X100577387Y-48015428D01*
X100575195Y-48020903D01*
X100575190Y-48020913D01*
X100501469Y-48205060D01*
X100501466Y-48205069D01*
X100499275Y-48210543D01*
X100498158Y-48216334D01*
X100498156Y-48216344D01*
X100460617Y-48411117D01*
X100459500Y-48416915D01*
X100459500Y-49574425D01*
X99713006Y-49574425D01*
X99815858Y-49422730D01*
X99884331Y-49250875D01*
X99914260Y-49068317D01*
X99904245Y-48883593D01*
X99854754Y-48705341D01*
X99845837Y-48688521D01*
X99771249Y-48547835D01*
X99771247Y-48547832D01*
X99768100Y-48541896D01*
X99705460Y-48468151D01*
X99652691Y-48406026D01*
X99648337Y-48400900D01*
X99501064Y-48288946D01*
X99333167Y-48211268D01*
X99304963Y-48205060D01*
X99159062Y-48172945D01*
X99159061Y-48172944D01*
X99152497Y-48171500D01*
X99013887Y-48171500D01*
X99010552Y-48171862D01*
X99010546Y-48171863D01*
X98882772Y-48185759D01*
X98882769Y-48185759D01*
X98876090Y-48186486D01*
X98869729Y-48188629D01*
X98869721Y-48188631D01*
X98707152Y-48243408D01*
X98707146Y-48243410D01*
X98700779Y-48245556D01*
X98695026Y-48249017D01*
X98695016Y-48249022D01*
X98548027Y-48337462D01*
X98548023Y-48337464D01*
X98542264Y-48340930D01*
X98537386Y-48345550D01*
X98537379Y-48345556D01*
X98412839Y-48463528D01*
X98407959Y-48468151D01*
X98404191Y-48473707D01*
X98404187Y-48473713D01*
X98307914Y-48615706D01*
X98304142Y-48621270D01*
X98301654Y-48627513D01*
X98301653Y-48627516D01*
X98238159Y-48786874D01*
X98238157Y-48786879D01*
X98235669Y-48793125D01*
X98234580Y-48799763D01*
X98234580Y-48799766D01*
X98206828Y-48969045D01*
X98205740Y-48975683D01*
X97660500Y-48975683D01*
X97660500Y-48469575D01*
X97645528Y-48312782D01*
X97586316Y-48111125D01*
X97490011Y-47924318D01*
X97360092Y-47759114D01*
X97201256Y-47621481D01*
X97019244Y-47516396D01*
X97013660Y-47514463D01*
X97013655Y-47514461D01*
X96826214Y-47449587D01*
X96826208Y-47449585D01*
X96820633Y-47447656D01*
X96814794Y-47446816D01*
X96814788Y-47446815D01*
X96802056Y-47444985D01*
X96740186Y-47417394D01*
X96702049Y-47361406D01*
X96699027Y-47293730D01*
X96732020Y-47234568D01*
X100407902Y-43558687D01*
X100448728Y-43531563D01*
X100496881Y-43522379D01*
X100538733Y-43531276D01*
X100538805Y-43531032D01*
X100542140Y-43532000D01*
X100544831Y-43532573D01*
X100546304Y-43533210D01*
X100687997Y-43574376D01*
X100698584Y-43576310D01*
X100711293Y-43573782D01*
X100715000Y-43560641D01*
X100715000Y-43304852D01*
X100723707Y-43259206D01*
X100748603Y-43219973D01*
X100777949Y-43188723D01*
X100780534Y-43186055D01*
X100800120Y-43166471D01*
X100802585Y-43163292D01*
X100810167Y-43154416D01*
X100840062Y-43122582D01*
X100849713Y-43105023D01*
X100860390Y-43088770D01*
X100872673Y-43072936D01*
X100890026Y-43032832D01*
X100895158Y-43022361D01*
X100912435Y-42990935D01*
X100912435Y-42990934D01*
X100916197Y-42984092D01*
X100921177Y-42964691D01*
X100927481Y-42946281D01*
X100928690Y-42943488D01*
X100935438Y-42927896D01*
X100942272Y-42884741D01*
X100944638Y-42873321D01*
X100952194Y-42843896D01*
X100955500Y-42831019D01*
X100955500Y-42810983D01*
X100957025Y-42791597D01*
X100960160Y-42771804D01*
X100959157Y-42761196D01*
X100958588Y-42755167D01*
X100970971Y-42688364D01*
X101016696Y-42638113D01*
X101082038Y-42619500D01*
X101091000Y-42619500D01*
X101153000Y-42636113D01*
X101198387Y-42681500D01*
X101215000Y-42743500D01*
X101215000Y-43560637D01*
X101218706Y-43573781D01*
X101231414Y-43576309D01*
X101242005Y-43574375D01*
X101383702Y-43533208D01*
X101397909Y-43527060D01*
X101523660Y-43452691D01*
X101535896Y-43443200D01*
X101639200Y-43339896D01*
X101653472Y-43321498D01*
X101655416Y-43323006D01*
X101691180Y-43287772D01*
X101752624Y-43271461D01*
X101814077Y-43287742D01*
X101859385Y-43332337D01*
X101865908Y-43343366D01*
X101883178Y-43406486D01*
X101865912Y-43469608D01*
X101857938Y-43483091D01*
X101851792Y-43497293D01*
X101815520Y-43622142D01*
X101814945Y-43633409D01*
X101825925Y-43636000D01*
X102117647Y-43636000D01*
X102175549Y-43651839D01*
X102175729Y-43651424D01*
X102178650Y-43652688D01*
X102180766Y-43653267D01*
X102182887Y-43654521D01*
X102189605Y-43658494D01*
X102345007Y-43703643D01*
X102381310Y-43706500D01*
X102697500Y-43706500D01*
X102759500Y-43723113D01*
X102804887Y-43768500D01*
X102821500Y-43830500D01*
X102821500Y-44012000D01*
X102804887Y-44074000D01*
X102759500Y-44119387D01*
X102697500Y-44136000D01*
X101825925Y-44136000D01*
X101814945Y-44138590D01*
X101815520Y-44149857D01*
X101851792Y-44274706D01*
X101857938Y-44288908D01*
X101932308Y-44414660D01*
X101941799Y-44426896D01*
X102027630Y-44512727D01*
X102056471Y-44557997D01*
X102063477Y-44611215D01*
X102047337Y-44662407D01*
X102002410Y-44740224D01*
X101979321Y-44780216D01*
X101977315Y-44786388D01*
X101977313Y-44786394D01*
X101922833Y-44954064D01*
X101922831Y-44954073D01*
X101920826Y-44960244D01*
X101920148Y-44966694D01*
X101920146Y-44966704D01*
X101905407Y-45106946D01*
X101901040Y-45148500D01*
X101901719Y-45154960D01*
X101920146Y-45330295D01*
X101920147Y-45330303D01*
X101920826Y-45336756D01*
X101922831Y-45342928D01*
X101922833Y-45342935D01*
X101977313Y-45510605D01*
X101979321Y-45516784D01*
X101982568Y-45522408D01*
X101982569Y-45522410D01*
X102064899Y-45665011D01*
X102073967Y-45680716D01*
X102078311Y-45685541D01*
X102078313Y-45685543D01*
X102113012Y-45724080D01*
X102200629Y-45821388D01*
X102205887Y-45825208D01*
X102205888Y-45825209D01*
X102266985Y-45869598D01*
X102353770Y-45932651D01*
X102526697Y-46009644D01*
X102711854Y-46049000D01*
X102894643Y-46049000D01*
X102901146Y-46049000D01*
X103086303Y-46009644D01*
X103259230Y-45932651D01*
X103412371Y-45821388D01*
X103539033Y-45680716D01*
X103633679Y-45516784D01*
X103692174Y-45336756D01*
X103709821Y-45168845D01*
X103721221Y-45128426D01*
X103745458Y-45094131D01*
X104019311Y-44820278D01*
X104027481Y-44812844D01*
X104033877Y-44808786D01*
X104079918Y-44759756D01*
X104082535Y-44757054D01*
X104102120Y-44737471D01*
X104104585Y-44734292D01*
X104112166Y-44725417D01*
X104119718Y-44717375D01*
X104126929Y-44709695D01*
X104172882Y-44678817D01*
X104227696Y-44671016D01*
X104280441Y-44687849D01*
X104301089Y-44700060D01*
X104315297Y-44706208D01*
X104456997Y-44747376D01*
X104469403Y-44749642D01*
X104496928Y-44751808D01*
X104501806Y-44751999D01*
X104543410Y-44751999D01*
X104598683Y-44764998D01*
X104642366Y-44801271D01*
X104665302Y-44853213D01*
X104662679Y-44909933D01*
X104624035Y-45045750D01*
X104624033Y-45045760D01*
X104622464Y-45051275D01*
X104621934Y-45056985D01*
X104621934Y-45056990D01*
X104606651Y-45221927D01*
X104603646Y-45254358D01*
X104604175Y-45260067D01*
X104616237Y-45390246D01*
X104622464Y-45457441D01*
X104624032Y-45462952D01*
X104624034Y-45462962D01*
X104676708Y-45648089D01*
X104676710Y-45648095D01*
X104678279Y-45653608D01*
X104769188Y-45836179D01*
X104772642Y-45840753D01*
X104772644Y-45840756D01*
X104881911Y-45985450D01*
X104906109Y-46045696D01*
X104896545Y-46109912D01*
X104855843Y-46160494D01*
X104735454Y-46247962D01*
X104730199Y-46251780D01*
X104725854Y-46256605D01*
X104725849Y-46256610D01*
X104607883Y-46387624D01*
X104607878Y-46387630D01*
X104603537Y-46392452D01*
X104600292Y-46398072D01*
X104600288Y-46398078D01*
X104512139Y-46550757D01*
X104512136Y-46550762D01*
X104508891Y-46556384D01*
X104506885Y-46562556D01*
X104506883Y-46562562D01*
X104452403Y-46730232D01*
X104452401Y-46730241D01*
X104450396Y-46736412D01*
X104449718Y-46742862D01*
X104449716Y-46742872D01*
X104436324Y-46870297D01*
X104430610Y-46924668D01*
X104431289Y-46931128D01*
X104449716Y-47106463D01*
X104449717Y-47106471D01*
X104450396Y-47112924D01*
X104452401Y-47119096D01*
X104452403Y-47119103D01*
X104485824Y-47221961D01*
X104508891Y-47292952D01*
X104509663Y-47294289D01*
X104519835Y-47348178D01*
X104504168Y-47403076D01*
X104465565Y-47445137D01*
X104412209Y-47465443D01*
X104355409Y-47459692D01*
X104326214Y-47449587D01*
X104326208Y-47449585D01*
X104320633Y-47447656D01*
X104314794Y-47446816D01*
X104314788Y-47446815D01*
X104118441Y-47418585D01*
X104118435Y-47418584D01*
X104112602Y-47417746D01*
X104106716Y-47418026D01*
X104106710Y-47418026D01*
X103908567Y-47427465D01*
X103908565Y-47427465D01*
X103902670Y-47427746D01*
X103896942Y-47429135D01*
X103896932Y-47429137D01*
X103704160Y-47475904D01*
X103704155Y-47475905D01*
X103698424Y-47477296D01*
X103693054Y-47479747D01*
X103693052Y-47479749D01*
X103512621Y-47562149D01*
X103512614Y-47562152D01*
X103507247Y-47564604D01*
X103502437Y-47568028D01*
X103502432Y-47568032D01*
X103340865Y-47683083D01*
X103340859Y-47683087D01*
X103336048Y-47686514D01*
X103331974Y-47690786D01*
X103331969Y-47690791D01*
X103195088Y-47834348D01*
X103195082Y-47834355D01*
X103191014Y-47838622D01*
X103187822Y-47843588D01*
X103187821Y-47843590D01*
X103080582Y-48010455D01*
X103080578Y-48010462D01*
X103077387Y-48015428D01*
X103075195Y-48020903D01*
X103075190Y-48020913D01*
X103001469Y-48205060D01*
X103001466Y-48205069D01*
X102999275Y-48210543D01*
X102998158Y-48216334D01*
X102998156Y-48216344D01*
X102960617Y-48411117D01*
X102959500Y-48416915D01*
X102959500Y-49574425D01*
X102959779Y-49577354D01*
X102959780Y-49577360D01*
X102972712Y-49712793D01*
X102974472Y-49731218D01*
X103033684Y-49932875D01*
X103129989Y-50119682D01*
X103133642Y-50124327D01*
X103235637Y-50254024D01*
X103259908Y-50284886D01*
X103418744Y-50422519D01*
X103600756Y-50527604D01*
X103799367Y-50596344D01*
X104007398Y-50626254D01*
X104217330Y-50616254D01*
X104421576Y-50566704D01*
X104612753Y-50479396D01*
X104783952Y-50357486D01*
X104928986Y-50205378D01*
X105042613Y-50028572D01*
X105120725Y-49833457D01*
X105137189Y-49748032D01*
X105160273Y-49696404D01*
X105203884Y-49660397D01*
X105258948Y-49647500D01*
X106475225Y-49647500D01*
X106486280Y-49648021D01*
X106493667Y-49649673D01*
X106560872Y-49647561D01*
X106564768Y-49647500D01*
X106588448Y-49647500D01*
X106592350Y-49647500D01*
X106596313Y-49646999D01*
X106607963Y-49646080D01*
X106651627Y-49644709D01*
X106670861Y-49639119D01*
X106689917Y-49635174D01*
X106709792Y-49632664D01*
X106750395Y-49616587D01*
X106761450Y-49612802D01*
X106803390Y-49600618D01*
X106820629Y-49590422D01*
X106838103Y-49581862D01*
X106849474Y-49577360D01*
X106849476Y-49577358D01*
X106856732Y-49574486D01*
X106892069Y-49548811D01*
X106901824Y-49542403D01*
X106939420Y-49520170D01*
X106953584Y-49506005D01*
X106968379Y-49493368D01*
X106984587Y-49481594D01*
X107012428Y-49447938D01*
X107020279Y-49439309D01*
X108715291Y-47744297D01*
X108760561Y-47715458D01*
X108813778Y-47708452D01*
X108839000Y-47710659D01*
X109074408Y-47690063D01*
X109302663Y-47628903D01*
X109516830Y-47529035D01*
X109710401Y-47393495D01*
X109877495Y-47226401D01*
X110007424Y-47040842D01*
X110051743Y-47001976D01*
X110109000Y-46987965D01*
X110166257Y-47001976D01*
X110210575Y-47040842D01*
X110337395Y-47221961D01*
X110337401Y-47221968D01*
X110340505Y-47226401D01*
X110507599Y-47393495D01*
X110512031Y-47396598D01*
X110512033Y-47396600D01*
X110598128Y-47456884D01*
X110701170Y-47529035D01*
X110706070Y-47531320D01*
X110706072Y-47531321D01*
X110757815Y-47555449D01*
X110915337Y-47628903D01*
X111143592Y-47690063D01*
X111379000Y-47710659D01*
X111614408Y-47690063D01*
X111842663Y-47628903D01*
X112056830Y-47529035D01*
X112250401Y-47393495D01*
X112372329Y-47271566D01*
X112425072Y-47240273D01*
X112486365Y-47238084D01*
X112541210Y-47265537D01*
X112576189Y-47315916D01*
X112625204Y-47447331D01*
X112630518Y-47454430D01*
X112630519Y-47454431D01*
X112686367Y-47529035D01*
X112711454Y-47562546D01*
X112826669Y-47648796D01*
X112961517Y-47699091D01*
X113021127Y-47705500D01*
X113169500Y-47705500D01*
X113231500Y-47722113D01*
X113276887Y-47767500D01*
X113293500Y-47829500D01*
X113293500Y-48965548D01*
X113284061Y-49013001D01*
X113257181Y-49053229D01*
X112133997Y-50176410D01*
X112078411Y-50208503D01*
X112014225Y-50208504D01*
X111983219Y-50200196D01*
X111983201Y-50200192D01*
X111977977Y-50198793D01*
X111972585Y-50198321D01*
X111972578Y-50198320D01*
X111765395Y-50180195D01*
X111760000Y-50179723D01*
X111754605Y-50180195D01*
X111547421Y-50198320D01*
X111547412Y-50198321D01*
X111542023Y-50198793D01*
X111536802Y-50200191D01*
X111536790Y-50200194D01*
X111335897Y-50254024D01*
X111335892Y-50254025D01*
X111330670Y-50255425D01*
X111325774Y-50257707D01*
X111325763Y-50257712D01*
X111137272Y-50345608D01*
X111137268Y-50345610D01*
X111132362Y-50347898D01*
X111127929Y-50351001D01*
X111127922Y-50351006D01*
X110957558Y-50470296D01*
X110957553Y-50470299D01*
X110953123Y-50473402D01*
X110949299Y-50477225D01*
X110949293Y-50477231D01*
X110802231Y-50624293D01*
X110802225Y-50624299D01*
X110798402Y-50628123D01*
X110795299Y-50632553D01*
X110795296Y-50632558D01*
X110695575Y-50774976D01*
X110648358Y-50815303D01*
X110587511Y-50827683D01*
X110528290Y-50809011D01*
X110485547Y-50763969D01*
X110470000Y-50703853D01*
X110470000Y-50640482D01*
X110469646Y-50633885D01*
X110464426Y-50585332D01*
X110460888Y-50570358D01*
X110416452Y-50451222D01*
X110408037Y-50435810D01*
X110332501Y-50334907D01*
X110320092Y-50322498D01*
X110219189Y-50246962D01*
X110203777Y-50238547D01*
X110084641Y-50194111D01*
X110069667Y-50190573D01*
X110021114Y-50185353D01*
X110014518Y-50185000D01*
X109486326Y-50185000D01*
X109473450Y-50188450D01*
X109470000Y-50201326D01*
X109470000Y-52668674D01*
X109473450Y-52681549D01*
X109486326Y-52685000D01*
X110014518Y-52685000D01*
X110021114Y-52684646D01*
X110069667Y-52679426D01*
X110084641Y-52675888D01*
X110203777Y-52631452D01*
X110219189Y-52623037D01*
X110320092Y-52547501D01*
X110332501Y-52535092D01*
X110408037Y-52434189D01*
X110416452Y-52418777D01*
X110460888Y-52299641D01*
X110464426Y-52284667D01*
X110469646Y-52236114D01*
X110470000Y-52229518D01*
X110470000Y-52166149D01*
X110485547Y-52106033D01*
X110528290Y-52060991D01*
X110587510Y-52042319D01*
X110648358Y-52054699D01*
X110695575Y-52095025D01*
X110795296Y-52237442D01*
X110795299Y-52237446D01*
X110798402Y-52241877D01*
X110953123Y-52396598D01*
X111132361Y-52522102D01*
X111330670Y-52614575D01*
X111488522Y-52656871D01*
X111536790Y-52669805D01*
X111536791Y-52669805D01*
X111542023Y-52671207D01*
X111760000Y-52690277D01*
X111977977Y-52671207D01*
X112189330Y-52614575D01*
X112387639Y-52522102D01*
X112566877Y-52396598D01*
X112721598Y-52241877D01*
X112847102Y-52062639D01*
X112939575Y-51864330D01*
X112996207Y-51652977D01*
X113015277Y-51435000D01*
X112996207Y-51217023D01*
X112994803Y-51211783D01*
X112986495Y-51180776D01*
X112986494Y-51116588D01*
X113018586Y-51061002D01*
X114306311Y-49773278D01*
X114314481Y-49765844D01*
X114320877Y-49761786D01*
X114366918Y-49712756D01*
X114369535Y-49710054D01*
X114389120Y-49690471D01*
X114391585Y-49687292D01*
X114399167Y-49678416D01*
X114429062Y-49646582D01*
X114438713Y-49629023D01*
X114449390Y-49612770D01*
X114461673Y-49596936D01*
X114479018Y-49556852D01*
X114484151Y-49546371D01*
X114505197Y-49508092D01*
X114510179Y-49488684D01*
X114516482Y-49470276D01*
X114524437Y-49451896D01*
X114531271Y-49408744D01*
X114533633Y-49397338D01*
X114544500Y-49355019D01*
X114544500Y-49334983D01*
X114546027Y-49315585D01*
X114547939Y-49303513D01*
X114547938Y-49303513D01*
X114549160Y-49295804D01*
X114545050Y-49252324D01*
X114544500Y-49240655D01*
X114544500Y-47829499D01*
X114561113Y-47767499D01*
X114606500Y-47722112D01*
X114668500Y-47705499D01*
X114813561Y-47705499D01*
X114816872Y-47705499D01*
X114876483Y-47699091D01*
X115011331Y-47648796D01*
X115126546Y-47562546D01*
X115212796Y-47447331D01*
X115263091Y-47312483D01*
X115269500Y-47252873D01*
X115269499Y-45457128D01*
X115263091Y-45397517D01*
X115212796Y-45262669D01*
X115126546Y-45147454D01*
X115086929Y-45117797D01*
X115018431Y-45066519D01*
X115018430Y-45066518D01*
X115011331Y-45061204D01*
X114904442Y-45021337D01*
X114883752Y-45013620D01*
X114883750Y-45013619D01*
X114876483Y-45010909D01*
X114868770Y-45010079D01*
X114868767Y-45010079D01*
X114820180Y-45004855D01*
X114820169Y-45004854D01*
X114816873Y-45004500D01*
X114813550Y-45004500D01*
X113024439Y-45004500D01*
X113024420Y-45004500D01*
X113021128Y-45004501D01*
X113017850Y-45004853D01*
X113017838Y-45004854D01*
X112969231Y-45010079D01*
X112969225Y-45010080D01*
X112961517Y-45010909D01*
X112954252Y-45013618D01*
X112954246Y-45013620D01*
X112834980Y-45058104D01*
X112834978Y-45058104D01*
X112826669Y-45061204D01*
X112819572Y-45066516D01*
X112819568Y-45066519D01*
X112718550Y-45142141D01*
X112718546Y-45142144D01*
X112711454Y-45147454D01*
X112706144Y-45154546D01*
X112706141Y-45154550D01*
X112630519Y-45255568D01*
X112630516Y-45255572D01*
X112625204Y-45262669D01*
X112622104Y-45270978D01*
X112622105Y-45270978D01*
X112576189Y-45394083D01*
X112541210Y-45444462D01*
X112486365Y-45471915D01*
X112425072Y-45469726D01*
X112372326Y-45438430D01*
X112254232Y-45320336D01*
X112254230Y-45320334D01*
X112250401Y-45316505D01*
X112245970Y-45313402D01*
X112245966Y-45313399D01*
X112061259Y-45184066D01*
X112061257Y-45184064D01*
X112056830Y-45180965D01*
X112051933Y-45178681D01*
X112051927Y-45178678D01*
X111847572Y-45083386D01*
X111847570Y-45083385D01*
X111842663Y-45081097D01*
X111837438Y-45079697D01*
X111837430Y-45079694D01*
X111619634Y-45021337D01*
X111619630Y-45021336D01*
X111614408Y-45019937D01*
X111609020Y-45019465D01*
X111609017Y-45019465D01*
X111384395Y-44999813D01*
X111379000Y-44999341D01*
X111373605Y-44999813D01*
X111148985Y-45019465D01*
X111148983Y-45019465D01*
X111143592Y-45019937D01*
X111138373Y-45021335D01*
X111138358Y-45021338D01*
X111043124Y-45046855D01*
X110978938Y-45046854D01*
X110923352Y-45014761D01*
X110861819Y-44953228D01*
X110834939Y-44913000D01*
X110825500Y-44865547D01*
X110825500Y-43791404D01*
X110837253Y-43738711D01*
X110870283Y-43696006D01*
X110918330Y-43671386D01*
X110972283Y-43669515D01*
X111023024Y-43679000D01*
X111221247Y-43679000D01*
X111226976Y-43679000D01*
X111427456Y-43641524D01*
X111441715Y-43636000D01*
X111499107Y-43613767D01*
X111558191Y-43606220D01*
X111613977Y-43627094D01*
X111653594Y-43671573D01*
X111667900Y-43729394D01*
X111667900Y-43948090D01*
X111668090Y-43950510D01*
X111668091Y-43950524D01*
X111670259Y-43978075D01*
X111670260Y-43978082D01*
X111670757Y-43984393D01*
X111672523Y-43990474D01*
X111672525Y-43990481D01*
X111712187Y-44126993D01*
X111715906Y-44139795D01*
X111798283Y-44279087D01*
X111912713Y-44393517D01*
X112052005Y-44475894D01*
X112207407Y-44521043D01*
X112243710Y-44523900D01*
X112650645Y-44523900D01*
X112653090Y-44523900D01*
X112689393Y-44521043D01*
X112844795Y-44475894D01*
X112865767Y-44463490D01*
X112928887Y-44446221D01*
X112992011Y-44463490D01*
X113005484Y-44471458D01*
X113019696Y-44477608D01*
X113144542Y-44513879D01*
X113155809Y-44514454D01*
X113158400Y-44503475D01*
X113658400Y-44503475D01*
X113660990Y-44514454D01*
X113672257Y-44513879D01*
X113797106Y-44477607D01*
X113811308Y-44471461D01*
X113937060Y-44397091D01*
X113949296Y-44387600D01*
X114052600Y-44284296D01*
X114062091Y-44272060D01*
X114136460Y-44146309D01*
X114142608Y-44132102D01*
X114183776Y-43990402D01*
X114185710Y-43979815D01*
X114183182Y-43967106D01*
X114170041Y-43963400D01*
X113674726Y-43963400D01*
X113661850Y-43966850D01*
X113658400Y-43979726D01*
X113658400Y-44503475D01*
X113158400Y-44503475D01*
X113158400Y-44211753D01*
X113174239Y-44153850D01*
X113173824Y-44153671D01*
X113175088Y-44150749D01*
X113175667Y-44148634D01*
X113176152Y-44147812D01*
X113180894Y-44139795D01*
X113226043Y-43984393D01*
X113228900Y-43948090D01*
X113228900Y-43587400D01*
X113245513Y-43525400D01*
X113290900Y-43480013D01*
X113352900Y-43463400D01*
X114170037Y-43463400D01*
X114183181Y-43459693D01*
X114185709Y-43446985D01*
X114183775Y-43436394D01*
X114142608Y-43294697D01*
X114136460Y-43280490D01*
X114062091Y-43154739D01*
X114052600Y-43142503D01*
X113949296Y-43039199D01*
X113937060Y-43029708D01*
X113811309Y-42955339D01*
X113797102Y-42949191D01*
X113655402Y-42908023D01*
X113642988Y-42905756D01*
X113633143Y-42904981D01*
X113571848Y-42883005D01*
X113530140Y-42833002D01*
X113519519Y-42768762D01*
X113522900Y-42735674D01*
X113522900Y-42202326D01*
X113512836Y-42103815D01*
X113475409Y-41990870D01*
X113472728Y-41922158D01*
X113507072Y-41862580D01*
X113567880Y-41830464D01*
X113636448Y-41835686D01*
X113696517Y-41858091D01*
X113756127Y-41864500D01*
X115351872Y-41864499D01*
X115411483Y-41858091D01*
X115546331Y-41807796D01*
X115608156Y-41761514D01*
X115625689Y-41748389D01*
X115688947Y-41724150D01*
X115755504Y-41736772D01*
X115805495Y-41782489D01*
X115824000Y-41847656D01*
X115824000Y-57544751D01*
X115823335Y-57557577D01*
X115822364Y-57566914D01*
X115822219Y-57568240D01*
X115807733Y-57694338D01*
X115803843Y-57714002D01*
X115785385Y-57779120D01*
X115784229Y-57782961D01*
X115755032Y-57874563D01*
X115748607Y-57890709D01*
X115716746Y-57956867D01*
X115713684Y-57962811D01*
X115670089Y-58042094D01*
X115662249Y-58054541D01*
X115618328Y-58115876D01*
X115612597Y-58123273D01*
X115555651Y-58191305D01*
X115547486Y-58200149D01*
X115493305Y-58253402D01*
X115484321Y-58261413D01*
X115415318Y-58317174D01*
X115407820Y-58322778D01*
X115345736Y-58365631D01*
X115333159Y-58373253D01*
X115253127Y-58415477D01*
X115247129Y-58418438D01*
X115180439Y-58449147D01*
X115164186Y-58455290D01*
X115072096Y-58482900D01*
X115068235Y-58483990D01*
X115002798Y-58501323D01*
X114983068Y-58504873D01*
X114856679Y-58517183D01*
X114855351Y-58517305D01*
X114815327Y-58520769D01*
X114804639Y-58521231D01*
X105559901Y-58521500D01*
X101384500Y-58521500D01*
X101322500Y-58504887D01*
X101277113Y-58459500D01*
X101260500Y-58397500D01*
X101260500Y-57477399D01*
X101260500Y-57469273D01*
X101233207Y-57367413D01*
X101180480Y-57276087D01*
X101105913Y-57201520D01*
X101098878Y-57197458D01*
X101098875Y-57197456D01*
X101021626Y-57152857D01*
X101014587Y-57148793D01*
X101006735Y-57146689D01*
X100920575Y-57123602D01*
X100920568Y-57123601D01*
X100912727Y-57121500D01*
X100860099Y-57121500D01*
X97260500Y-57121500D01*
X97260000Y-57121500D01*
X97207273Y-57121500D01*
X97199432Y-57123600D01*
X97199424Y-57123602D01*
X97113264Y-57146689D01*
X97113261Y-57146690D01*
X97105413Y-57148793D01*
X97098376Y-57152855D01*
X97098373Y-57152857D01*
X97021124Y-57197456D01*
X97021117Y-57197460D01*
X97014087Y-57201520D01*
X97008344Y-57207262D01*
X97008340Y-57207266D01*
X96945266Y-57270340D01*
X96945262Y-57270344D01*
X96939520Y-57276087D01*
X96935460Y-57283117D01*
X96935456Y-57283124D01*
X96890857Y-57360373D01*
X96890855Y-57360376D01*
X96886793Y-57367413D01*
X96884690Y-57375261D01*
X96884689Y-57375264D01*
X96861602Y-57461424D01*
X96861600Y-57461432D01*
X96859500Y-57469273D01*
X96859500Y-57477399D01*
X96859500Y-58397500D01*
X96842887Y-58459500D01*
X96797500Y-58504887D01*
X96735500Y-58521500D01*
X93980099Y-58521500D01*
X93979622Y-58521499D01*
X93583774Y-58521105D01*
X93573091Y-58520633D01*
X93533737Y-58517190D01*
X93532391Y-58517065D01*
X93403679Y-58504389D01*
X93383739Y-58500761D01*
X93318278Y-58483221D01*
X93314375Y-58482107D01*
X93220991Y-58453779D01*
X93204584Y-58447501D01*
X93137855Y-58416386D01*
X93131816Y-58413367D01*
X93050816Y-58370072D01*
X93038158Y-58362296D01*
X92976190Y-58318907D01*
X92968646Y-58313183D01*
X92899009Y-58256032D01*
X92889996Y-58247864D01*
X92836142Y-58194011D01*
X92827995Y-58185022D01*
X92770795Y-58115324D01*
X92765079Y-58107789D01*
X92721748Y-58045907D01*
X92713974Y-58033253D01*
X92670543Y-57952000D01*
X92667571Y-57946055D01*
X92636534Y-57879497D01*
X92630269Y-57863122D01*
X92601766Y-57769164D01*
X92600675Y-57765343D01*
X92587225Y-57715145D01*
X92583000Y-57683052D01*
X92583000Y-56475683D01*
X93205740Y-56475683D01*
X93215755Y-56660407D01*
X93217552Y-56666882D01*
X93217553Y-56666883D01*
X93263446Y-56832179D01*
X93263448Y-56832186D01*
X93265246Y-56838659D01*
X93268392Y-56844594D01*
X93268395Y-56844600D01*
X93348750Y-56996164D01*
X93348753Y-56996169D01*
X93351900Y-57002104D01*
X93356248Y-57007224D01*
X93356251Y-57007227D01*
X93418465Y-57080471D01*
X93471663Y-57143100D01*
X93618936Y-57255054D01*
X93786833Y-57332732D01*
X93967503Y-57372500D01*
X94102754Y-57372500D01*
X94106113Y-57372500D01*
X94243910Y-57357514D01*
X94419221Y-57298444D01*
X94577736Y-57203070D01*
X94712041Y-57075849D01*
X94815858Y-56922730D01*
X94884331Y-56750875D01*
X94914260Y-56568317D01*
X94909238Y-56475683D01*
X103205740Y-56475683D01*
X103215755Y-56660407D01*
X103217552Y-56666882D01*
X103217553Y-56666883D01*
X103263446Y-56832179D01*
X103263448Y-56832186D01*
X103265246Y-56838659D01*
X103268392Y-56844594D01*
X103268395Y-56844600D01*
X103348750Y-56996164D01*
X103348753Y-56996169D01*
X103351900Y-57002104D01*
X103356248Y-57007224D01*
X103356251Y-57007227D01*
X103418465Y-57080471D01*
X103471663Y-57143100D01*
X103618936Y-57255054D01*
X103786833Y-57332732D01*
X103967503Y-57372500D01*
X104102754Y-57372500D01*
X104106113Y-57372500D01*
X104243910Y-57357514D01*
X104419221Y-57298444D01*
X104577736Y-57203070D01*
X104712041Y-57075849D01*
X104815858Y-56922730D01*
X104884331Y-56750875D01*
X104914260Y-56568317D01*
X104904245Y-56383593D01*
X104854754Y-56205341D01*
X104851604Y-56199399D01*
X104771249Y-56047835D01*
X104771247Y-56047832D01*
X104768100Y-56041896D01*
X104705460Y-55968151D01*
X104652691Y-55906026D01*
X104648337Y-55900900D01*
X104501064Y-55788946D01*
X104333167Y-55711268D01*
X104152497Y-55671500D01*
X104013887Y-55671500D01*
X104010552Y-55671862D01*
X104010546Y-55671863D01*
X103882772Y-55685759D01*
X103882769Y-55685759D01*
X103876090Y-55686486D01*
X103869729Y-55688629D01*
X103869721Y-55688631D01*
X103707152Y-55743408D01*
X103707146Y-55743410D01*
X103700779Y-55745556D01*
X103695026Y-55749017D01*
X103695016Y-55749022D01*
X103548027Y-55837462D01*
X103548023Y-55837464D01*
X103542264Y-55840930D01*
X103537386Y-55845550D01*
X103537379Y-55845556D01*
X103412839Y-55963528D01*
X103407959Y-55968151D01*
X103404191Y-55973707D01*
X103404187Y-55973713D01*
X103307914Y-56115706D01*
X103304142Y-56121270D01*
X103301654Y-56127513D01*
X103301653Y-56127516D01*
X103238159Y-56286874D01*
X103238157Y-56286879D01*
X103235669Y-56293125D01*
X103205740Y-56475683D01*
X94909238Y-56475683D01*
X94904245Y-56383593D01*
X94854754Y-56205341D01*
X94851604Y-56199399D01*
X94771249Y-56047835D01*
X94771247Y-56047832D01*
X94768100Y-56041896D01*
X94705460Y-55968151D01*
X94652691Y-55906026D01*
X94648337Y-55900900D01*
X94501064Y-55788946D01*
X94333167Y-55711268D01*
X94152497Y-55671500D01*
X94013887Y-55671500D01*
X94010552Y-55671862D01*
X94010546Y-55671863D01*
X93882772Y-55685759D01*
X93882769Y-55685759D01*
X93876090Y-55686486D01*
X93869729Y-55688629D01*
X93869721Y-55688631D01*
X93707152Y-55743408D01*
X93707146Y-55743410D01*
X93700779Y-55745556D01*
X93695026Y-55749017D01*
X93695016Y-55749022D01*
X93548027Y-55837462D01*
X93548023Y-55837464D01*
X93542264Y-55840930D01*
X93537386Y-55845550D01*
X93537379Y-55845556D01*
X93412839Y-55963528D01*
X93407959Y-55968151D01*
X93404191Y-55973707D01*
X93404187Y-55973713D01*
X93307914Y-56115706D01*
X93304142Y-56121270D01*
X93301654Y-56127513D01*
X93301653Y-56127516D01*
X93238159Y-56286874D01*
X93238157Y-56286879D01*
X93235669Y-56293125D01*
X93205740Y-56475683D01*
X92583000Y-56475683D01*
X92583000Y-53975683D01*
X93205740Y-53975683D01*
X93215755Y-54160407D01*
X93217552Y-54166882D01*
X93217553Y-54166883D01*
X93263446Y-54332179D01*
X93263448Y-54332186D01*
X93265246Y-54338659D01*
X93268392Y-54344594D01*
X93268395Y-54344600D01*
X93348750Y-54496164D01*
X93348753Y-54496169D01*
X93351900Y-54502104D01*
X93356248Y-54507224D01*
X93356251Y-54507227D01*
X93417487Y-54579319D01*
X93471663Y-54643100D01*
X93618936Y-54755054D01*
X93786833Y-54832732D01*
X93967503Y-54872500D01*
X94102754Y-54872500D01*
X94106113Y-54872500D01*
X94243910Y-54857514D01*
X94419221Y-54798444D01*
X94577736Y-54703070D01*
X94712041Y-54575849D01*
X94815858Y-54422730D01*
X94874916Y-54274505D01*
X97491927Y-54274505D01*
X97492060Y-54285679D01*
X97514377Y-54377670D01*
X97518225Y-54388788D01*
X97600580Y-54569121D01*
X97606468Y-54579319D01*
X97721463Y-54740806D01*
X97729172Y-54749703D01*
X97872658Y-54886517D01*
X97881899Y-54893784D01*
X98048685Y-55000971D01*
X98059143Y-55006363D01*
X98243201Y-55080049D01*
X98254484Y-55083362D01*
X98449165Y-55120882D01*
X98460866Y-55122000D01*
X98793674Y-55122000D01*
X98806549Y-55118549D01*
X98810000Y-55105674D01*
X99310000Y-55105674D01*
X99313450Y-55118549D01*
X99326326Y-55122000D01*
X99609450Y-55122000D01*
X99615339Y-55121719D01*
X99763242Y-55107596D01*
X99774793Y-55105369D01*
X99965026Y-55049512D01*
X99975932Y-55045146D01*
X100152159Y-54954295D01*
X100162055Y-54947935D01*
X100317894Y-54825382D01*
X100326408Y-54817264D01*
X100456243Y-54667427D01*
X100463062Y-54657850D01*
X100562191Y-54486153D01*
X100567079Y-54475450D01*
X100631924Y-54288095D01*
X100633279Y-54282511D01*
X100632693Y-54274318D01*
X100622036Y-54272000D01*
X99326326Y-54272000D01*
X99313450Y-54275450D01*
X99310000Y-54288326D01*
X99310000Y-55105674D01*
X98810000Y-55105674D01*
X98810000Y-54288326D01*
X98806549Y-54275450D01*
X98793674Y-54272000D01*
X97502819Y-54272000D01*
X97491927Y-54274505D01*
X94874916Y-54274505D01*
X94884331Y-54250875D01*
X94914260Y-54068317D01*
X94909238Y-53975683D01*
X103205740Y-53975683D01*
X103215755Y-54160407D01*
X103217552Y-54166882D01*
X103217553Y-54166883D01*
X103263446Y-54332179D01*
X103263448Y-54332186D01*
X103265246Y-54338659D01*
X103268392Y-54344594D01*
X103268395Y-54344600D01*
X103348750Y-54496164D01*
X103348753Y-54496169D01*
X103351900Y-54502104D01*
X103356248Y-54507224D01*
X103356251Y-54507227D01*
X103417487Y-54579319D01*
X103471663Y-54643100D01*
X103618936Y-54755054D01*
X103786833Y-54832732D01*
X103967503Y-54872500D01*
X104102754Y-54872500D01*
X104106113Y-54872500D01*
X104243910Y-54857514D01*
X104419221Y-54798444D01*
X104577736Y-54703070D01*
X104712041Y-54575849D01*
X104815858Y-54422730D01*
X104884331Y-54250875D01*
X104914260Y-54068317D01*
X104904245Y-53883593D01*
X104854754Y-53705341D01*
X104834071Y-53666329D01*
X104771249Y-53547835D01*
X104771247Y-53547832D01*
X104768100Y-53541896D01*
X104711174Y-53474878D01*
X104652691Y-53406026D01*
X104648337Y-53400900D01*
X104501064Y-53288946D01*
X104333167Y-53211268D01*
X104152497Y-53171500D01*
X104013887Y-53171500D01*
X104010552Y-53171862D01*
X104010546Y-53171863D01*
X103882772Y-53185759D01*
X103882769Y-53185759D01*
X103876090Y-53186486D01*
X103869729Y-53188629D01*
X103869721Y-53188631D01*
X103707152Y-53243408D01*
X103707146Y-53243410D01*
X103700779Y-53245556D01*
X103695026Y-53249017D01*
X103695016Y-53249022D01*
X103548027Y-53337462D01*
X103548023Y-53337464D01*
X103542264Y-53340930D01*
X103537386Y-53345550D01*
X103537379Y-53345556D01*
X103412839Y-53463528D01*
X103407959Y-53468151D01*
X103404191Y-53473707D01*
X103404187Y-53473713D01*
X103307914Y-53615706D01*
X103304142Y-53621270D01*
X103301654Y-53627513D01*
X103301653Y-53627516D01*
X103238159Y-53786874D01*
X103238157Y-53786879D01*
X103235669Y-53793125D01*
X103205740Y-53975683D01*
X94909238Y-53975683D01*
X94904245Y-53883593D01*
X94870343Y-53761488D01*
X97486720Y-53761488D01*
X97487306Y-53769681D01*
X97497964Y-53772000D01*
X98793674Y-53772000D01*
X98806549Y-53768549D01*
X98810000Y-53755674D01*
X99310000Y-53755674D01*
X99313450Y-53768549D01*
X99326326Y-53772000D01*
X100617181Y-53772000D01*
X100628072Y-53769494D01*
X100627939Y-53758320D01*
X100605622Y-53666329D01*
X100601774Y-53655211D01*
X100519419Y-53474878D01*
X100513531Y-53464680D01*
X100398536Y-53303193D01*
X100390827Y-53294296D01*
X100247341Y-53157482D01*
X100238100Y-53150215D01*
X100071314Y-53043028D01*
X100060856Y-53037636D01*
X99876798Y-52963950D01*
X99865515Y-52960637D01*
X99670834Y-52923117D01*
X99659134Y-52922000D01*
X99326326Y-52922000D01*
X99313450Y-52925450D01*
X99310000Y-52938326D01*
X99310000Y-53755674D01*
X98810000Y-53755674D01*
X98810000Y-52938326D01*
X98806549Y-52925450D01*
X98793674Y-52922000D01*
X98510550Y-52922000D01*
X98504660Y-52922280D01*
X98356757Y-52936403D01*
X98345206Y-52938630D01*
X98154973Y-52994487D01*
X98144067Y-52998853D01*
X97967840Y-53089704D01*
X97957944Y-53096064D01*
X97802105Y-53218617D01*
X97793591Y-53226735D01*
X97663756Y-53376572D01*
X97656937Y-53386149D01*
X97557808Y-53557846D01*
X97552920Y-53568549D01*
X97488075Y-53755904D01*
X97486720Y-53761488D01*
X94870343Y-53761488D01*
X94854754Y-53705341D01*
X94834071Y-53666329D01*
X94771249Y-53547835D01*
X94771247Y-53547832D01*
X94768100Y-53541896D01*
X94711174Y-53474878D01*
X94652691Y-53406026D01*
X94648337Y-53400900D01*
X94501064Y-53288946D01*
X94333167Y-53211268D01*
X94152497Y-53171500D01*
X94013887Y-53171500D01*
X94010552Y-53171862D01*
X94010546Y-53171863D01*
X93882772Y-53185759D01*
X93882769Y-53185759D01*
X93876090Y-53186486D01*
X93869729Y-53188629D01*
X93869721Y-53188631D01*
X93707152Y-53243408D01*
X93707146Y-53243410D01*
X93700779Y-53245556D01*
X93695026Y-53249017D01*
X93695016Y-53249022D01*
X93548027Y-53337462D01*
X93548023Y-53337464D01*
X93542264Y-53340930D01*
X93537386Y-53345550D01*
X93537379Y-53345556D01*
X93412839Y-53463528D01*
X93407959Y-53468151D01*
X93404191Y-53473707D01*
X93404187Y-53473713D01*
X93307914Y-53615706D01*
X93304142Y-53621270D01*
X93301654Y-53627513D01*
X93301653Y-53627516D01*
X93238159Y-53786874D01*
X93238157Y-53786879D01*
X93235669Y-53793125D01*
X93205740Y-53975683D01*
X92583000Y-53975683D01*
X92583000Y-52229518D01*
X107970000Y-52229518D01*
X107970353Y-52236114D01*
X107975573Y-52284667D01*
X107979111Y-52299641D01*
X108023547Y-52418777D01*
X108031962Y-52434189D01*
X108107498Y-52535092D01*
X108119907Y-52547501D01*
X108220810Y-52623037D01*
X108236222Y-52631452D01*
X108355358Y-52675888D01*
X108370332Y-52679426D01*
X108418885Y-52684646D01*
X108425482Y-52685000D01*
X108953674Y-52685000D01*
X108966549Y-52681549D01*
X108970000Y-52668674D01*
X108970000Y-51701326D01*
X108966549Y-51688450D01*
X108953674Y-51685000D01*
X107986326Y-51685000D01*
X107973450Y-51688450D01*
X107970000Y-51701326D01*
X107970000Y-52229518D01*
X92583000Y-52229518D01*
X92583000Y-51168674D01*
X107970000Y-51168674D01*
X107973450Y-51181549D01*
X107986326Y-51185000D01*
X108953674Y-51185000D01*
X108966549Y-51181549D01*
X108970000Y-51168674D01*
X108970000Y-50201326D01*
X108966549Y-50188450D01*
X108953674Y-50185000D01*
X108425482Y-50185000D01*
X108418885Y-50185353D01*
X108370332Y-50190573D01*
X108355358Y-50194111D01*
X108236222Y-50238547D01*
X108220810Y-50246962D01*
X108119907Y-50322498D01*
X108107498Y-50334907D01*
X108031962Y-50435810D01*
X108023547Y-50451222D01*
X107979111Y-50570358D01*
X107975573Y-50585332D01*
X107970353Y-50633885D01*
X107970000Y-50640482D01*
X107970000Y-51168674D01*
X92583000Y-51168674D01*
X92583000Y-40802329D01*
X92596515Y-40746034D01*
X92634115Y-40702011D01*
X92687602Y-40679856D01*
X92745318Y-40684398D01*
G37*
%TD.AperFunction*%
%TA.AperFunction,Conductor*%
G36*
X109512500Y-42636113D02*
G01*
X109557887Y-42681500D01*
X109574500Y-42743500D01*
X109574500Y-45013216D01*
X109559214Y-45072859D01*
X109517125Y-45117797D01*
X109458610Y-45136951D01*
X109398095Y-45125598D01*
X109307572Y-45083386D01*
X109307570Y-45083385D01*
X109302663Y-45081097D01*
X109297438Y-45079697D01*
X109297430Y-45079694D01*
X109079634Y-45021337D01*
X109079630Y-45021336D01*
X109074408Y-45019937D01*
X109069020Y-45019465D01*
X109069017Y-45019465D01*
X108844395Y-44999813D01*
X108839000Y-44999341D01*
X108833605Y-44999813D01*
X108608982Y-45019465D01*
X108608977Y-45019465D01*
X108603592Y-45019937D01*
X108598371Y-45021335D01*
X108598365Y-45021337D01*
X108380569Y-45079694D01*
X108380557Y-45079698D01*
X108375337Y-45081097D01*
X108370432Y-45083383D01*
X108370427Y-45083386D01*
X108166081Y-45178675D01*
X108166077Y-45178677D01*
X108161171Y-45180965D01*
X108156738Y-45184068D01*
X108156731Y-45184073D01*
X107972034Y-45313399D01*
X107972029Y-45313402D01*
X107967599Y-45316505D01*
X107963775Y-45320328D01*
X107963769Y-45320334D01*
X107804334Y-45479769D01*
X107804328Y-45479775D01*
X107800505Y-45483599D01*
X107797402Y-45488029D01*
X107797399Y-45488034D01*
X107668073Y-45672731D01*
X107668068Y-45672738D01*
X107664965Y-45677171D01*
X107662677Y-45682077D01*
X107662675Y-45682081D01*
X107567386Y-45886427D01*
X107567383Y-45886432D01*
X107565097Y-45891337D01*
X107563698Y-45896557D01*
X107563694Y-45896569D01*
X107505337Y-46114365D01*
X107505335Y-46114371D01*
X107503937Y-46119592D01*
X107503465Y-46124977D01*
X107503465Y-46124982D01*
X107502106Y-46140517D01*
X107483341Y-46355000D01*
X107483813Y-46360395D01*
X107501500Y-46562562D01*
X107503937Y-46590408D01*
X107505336Y-46595630D01*
X107505337Y-46595634D01*
X107563694Y-46813430D01*
X107563697Y-46813438D01*
X107565097Y-46818663D01*
X107567386Y-46823572D01*
X107567388Y-46823577D01*
X107625921Y-46949102D01*
X107637487Y-46997900D01*
X107628778Y-47047288D01*
X107601220Y-47089187D01*
X106330228Y-48360181D01*
X106290000Y-48387061D01*
X106242547Y-48396500D01*
X105262935Y-48396500D01*
X105211424Y-48385294D01*
X105169222Y-48353703D01*
X105143958Y-48307435D01*
X105126806Y-48249022D01*
X105086316Y-48111125D01*
X105021523Y-47985443D01*
X105008220Y-47917717D01*
X105033184Y-47853370D01*
X105088683Y-47812338D01*
X105157517Y-47807333D01*
X105241424Y-47825168D01*
X105424213Y-47825168D01*
X105430716Y-47825168D01*
X105615873Y-47785812D01*
X105788800Y-47708819D01*
X105941941Y-47597556D01*
X106068603Y-47456884D01*
X106163249Y-47292952D01*
X106221744Y-47112924D01*
X106239391Y-46945015D01*
X106250791Y-46904595D01*
X106275028Y-46870299D01*
X106392699Y-46752627D01*
X106417265Y-46733575D01*
X106423069Y-46730143D01*
X106423070Y-46730141D01*
X106429787Y-46726170D01*
X106443951Y-46712005D01*
X106458746Y-46699368D01*
X106474954Y-46687594D01*
X106502795Y-46653938D01*
X106510646Y-46645309D01*
X107021167Y-46134788D01*
X107029343Y-46127349D01*
X107035738Y-46123292D01*
X107081794Y-46074246D01*
X107084411Y-46071544D01*
X107103981Y-46051976D01*
X107106426Y-46048822D01*
X107114016Y-46039934D01*
X107143923Y-46008088D01*
X107153570Y-45990538D01*
X107164254Y-45974272D01*
X107176535Y-45958442D01*
X107193879Y-45918357D01*
X107199021Y-45907862D01*
X107220058Y-45869598D01*
X107225040Y-45850195D01*
X107231341Y-45831789D01*
X107239299Y-45813401D01*
X107246130Y-45770262D01*
X107248500Y-45758821D01*
X107257421Y-45724080D01*
X107257420Y-45724080D01*
X107259361Y-45716525D01*
X107259361Y-45696489D01*
X107260886Y-45677103D01*
X107264021Y-45657310D01*
X107259911Y-45613830D01*
X107259361Y-45602161D01*
X107259361Y-44836150D01*
X107272437Y-44780726D01*
X107308906Y-44736991D01*
X107361078Y-44714169D01*
X107412669Y-44716802D01*
X107412772Y-44716239D01*
X107417093Y-44717028D01*
X107417949Y-44717072D01*
X107418993Y-44717375D01*
X107429584Y-44719310D01*
X107442293Y-44716782D01*
X107446000Y-44703641D01*
X107446000Y-44703637D01*
X107946000Y-44703637D01*
X107949706Y-44716781D01*
X107962414Y-44719309D01*
X107973005Y-44717375D01*
X108114702Y-44676208D01*
X108128909Y-44670060D01*
X108254660Y-44595691D01*
X108266896Y-44586200D01*
X108370200Y-44482896D01*
X108379691Y-44470660D01*
X108454061Y-44344908D01*
X108460207Y-44330706D01*
X108496479Y-44205857D01*
X108497054Y-44194590D01*
X108486075Y-44192000D01*
X107962326Y-44192000D01*
X107949450Y-44195450D01*
X107946000Y-44208326D01*
X107946000Y-44703637D01*
X107446000Y-44703637D01*
X107446000Y-44315974D01*
X107450924Y-44281379D01*
X107485874Y-44161081D01*
X107487643Y-44154993D01*
X107490500Y-44118690D01*
X107490500Y-43886500D01*
X107507113Y-43824500D01*
X107552500Y-43779113D01*
X107614500Y-43762500D01*
X107928245Y-43762500D01*
X107930690Y-43762500D01*
X107966993Y-43759643D01*
X108122395Y-43714494D01*
X108130412Y-43709752D01*
X108131234Y-43709267D01*
X108133349Y-43708688D01*
X108136271Y-43707424D01*
X108136450Y-43707839D01*
X108194353Y-43692000D01*
X108486075Y-43692000D01*
X108497054Y-43689409D01*
X108496479Y-43678142D01*
X108460208Y-43553296D01*
X108454058Y-43539084D01*
X108446090Y-43525611D01*
X108428821Y-43462487D01*
X108446090Y-43399367D01*
X108458494Y-43378395D01*
X108460673Y-43370892D01*
X108461974Y-43367888D01*
X108501322Y-43317973D01*
X108560231Y-43294109D01*
X108623224Y-43302568D01*
X108666254Y-43335404D01*
X108667281Y-43334378D01*
X108776103Y-43443200D01*
X108788339Y-43452691D01*
X108914090Y-43527060D01*
X108928297Y-43533208D01*
X109069997Y-43574376D01*
X109080584Y-43576310D01*
X109093293Y-43573782D01*
X109097000Y-43560641D01*
X109097000Y-42743500D01*
X109113613Y-42681500D01*
X109159000Y-42636113D01*
X109221000Y-42619500D01*
X109450500Y-42619500D01*
X109512500Y-42636113D01*
G37*
%TD.AperFunction*%
%TA.AperFunction,Conductor*%
G36*
X104704126Y-42687254D02*
G01*
X104746374Y-42718974D01*
X104771584Y-42765402D01*
X104772879Y-42769859D01*
X104776825Y-42788915D01*
X104779336Y-42808792D01*
X104782206Y-42816042D01*
X104782208Y-42816048D01*
X104795414Y-42849404D01*
X104799197Y-42860451D01*
X104811382Y-42902390D01*
X104815353Y-42909105D01*
X104815354Y-42909107D01*
X104821581Y-42919637D01*
X104830136Y-42937099D01*
X104834642Y-42948480D01*
X104834643Y-42948483D01*
X104837514Y-42955732D01*
X104842098Y-42962041D01*
X104842099Y-42962043D01*
X104859818Y-42986431D01*
X104877431Y-43020998D01*
X104883500Y-43059316D01*
X104883500Y-43160690D01*
X104883690Y-43163110D01*
X104883691Y-43163124D01*
X104885859Y-43190675D01*
X104885860Y-43190682D01*
X104886357Y-43196993D01*
X104888123Y-43203074D01*
X104888125Y-43203081D01*
X104908576Y-43273471D01*
X104913500Y-43308066D01*
X104913500Y-43559934D01*
X104908576Y-43594529D01*
X104888125Y-43664918D01*
X104888123Y-43664927D01*
X104886357Y-43671007D01*
X104885860Y-43677315D01*
X104885859Y-43677324D01*
X104883691Y-43704875D01*
X104883690Y-43704890D01*
X104883500Y-43707310D01*
X104883500Y-43709755D01*
X104883500Y-44068000D01*
X104866887Y-44130000D01*
X104821500Y-44175387D01*
X104759500Y-44192000D01*
X104578000Y-44192000D01*
X104516000Y-44175387D01*
X104470613Y-44130000D01*
X104454000Y-44068000D01*
X104454000Y-42972305D01*
X104469338Y-42912567D01*
X104476197Y-42900092D01*
X104481179Y-42880684D01*
X104487482Y-42862276D01*
X104495437Y-42843896D01*
X104502271Y-42800744D01*
X104504637Y-42789324D01*
X104509816Y-42769157D01*
X104534378Y-42720956D01*
X104577124Y-42687801D01*
X104629919Y-42676000D01*
X104652508Y-42676000D01*
X104704126Y-42687254D01*
G37*
%TD.AperFunction*%
%TA.AperFunction,Conductor*%
G36*
X109313817Y-40578663D02*
G01*
X109363180Y-40608913D01*
X109404402Y-40650135D01*
X109542607Y-40731869D01*
X109696796Y-40776665D01*
X109732819Y-40779500D01*
X110231180Y-40779499D01*
X110267204Y-40776665D01*
X110421393Y-40731869D01*
X110428110Y-40727896D01*
X110435271Y-40724798D01*
X110435864Y-40726169D01*
X110489990Y-40711356D01*
X110544142Y-40726168D01*
X110544734Y-40724800D01*
X110551889Y-40727896D01*
X110558607Y-40731869D01*
X110712796Y-40776665D01*
X110748819Y-40779500D01*
X111247180Y-40779499D01*
X111283204Y-40776665D01*
X111413305Y-40738866D01*
X111470178Y-40735961D01*
X111522352Y-40758782D01*
X111558824Y-40802518D01*
X111571900Y-40857943D01*
X111571900Y-41160674D01*
X111572218Y-41163788D01*
X111572219Y-41163805D01*
X111581275Y-41252447D01*
X111581276Y-41252452D01*
X111581964Y-41259185D01*
X111584093Y-41265612D01*
X111584094Y-41265613D01*
X111619435Y-41372265D01*
X111622023Y-41441359D01*
X111587208Y-41501098D01*
X111525817Y-41532907D01*
X111456936Y-41526896D01*
X111432807Y-41517548D01*
X111432797Y-41517545D01*
X111427456Y-41515476D01*
X111382108Y-41506999D01*
X111232605Y-41479052D01*
X111232602Y-41479051D01*
X111226976Y-41478000D01*
X111023024Y-41478000D01*
X111017398Y-41479051D01*
X111017394Y-41479052D01*
X110828181Y-41514422D01*
X110828178Y-41514422D01*
X110822544Y-41515476D01*
X110817203Y-41517544D01*
X110817196Y-41517547D01*
X110637705Y-41587082D01*
X110637700Y-41587084D01*
X110632363Y-41589152D01*
X110627499Y-41592163D01*
X110627490Y-41592168D01*
X110583936Y-41619136D01*
X110532000Y-41636988D01*
X110477447Y-41630659D01*
X110430980Y-41601390D01*
X110281289Y-41451699D01*
X110273841Y-41443515D01*
X110269786Y-41437123D01*
X110220775Y-41391098D01*
X110217978Y-41388387D01*
X110201227Y-41371636D01*
X110198471Y-41368880D01*
X110195290Y-41366412D01*
X110186414Y-41358830D01*
X110160269Y-41334278D01*
X110160267Y-41334276D01*
X110154582Y-41328938D01*
X110147749Y-41325182D01*
X110147743Y-41325177D01*
X110137025Y-41319285D01*
X110120766Y-41308606D01*
X110111095Y-41301104D01*
X110111092Y-41301102D01*
X110104936Y-41296327D01*
X110097779Y-41293229D01*
X110097776Y-41293228D01*
X110064849Y-41278978D01*
X110054363Y-41273841D01*
X110022932Y-41256562D01*
X110022923Y-41256558D01*
X110016092Y-41252803D01*
X110008535Y-41250862D01*
X110008531Y-41250861D01*
X109996688Y-41247820D01*
X109978277Y-41241516D01*
X109977132Y-41241021D01*
X109938709Y-41214905D01*
X109918205Y-41194401D01*
X109912687Y-41188883D01*
X109773395Y-41106506D01*
X109765902Y-41104329D01*
X109624081Y-41063125D01*
X109624074Y-41063123D01*
X109617993Y-41061357D01*
X109611682Y-41060860D01*
X109611675Y-41060859D01*
X109584124Y-41058691D01*
X109584110Y-41058690D01*
X109581690Y-41058500D01*
X109579245Y-41058500D01*
X109275500Y-41058500D01*
X109213500Y-41041887D01*
X109168113Y-40996500D01*
X109151500Y-40934501D01*
X109151500Y-40827267D01*
X109151499Y-40696593D01*
X109165014Y-40640300D01*
X109202613Y-40596276D01*
X109256101Y-40574121D01*
X109313817Y-40578663D01*
G37*
%TD.AperFunction*%
%TD*%
%TA.AperFunction,Conductor*%
%TO.N,+1V8*%
G36*
X97507500Y-31727113D02*
G01*
X97552887Y-31772500D01*
X97569500Y-31834500D01*
X97569500Y-33454560D01*
X97569500Y-33454578D01*
X97569501Y-33457872D01*
X97569853Y-33461150D01*
X97569854Y-33461161D01*
X97575079Y-33509768D01*
X97575080Y-33509773D01*
X97575909Y-33517483D01*
X97578619Y-33524749D01*
X97578620Y-33524753D01*
X97612217Y-33614831D01*
X97626204Y-33652331D01*
X97712454Y-33767546D01*
X97827669Y-33853796D01*
X97962517Y-33904091D01*
X98022127Y-33910500D01*
X99491740Y-33910499D01*
X99543567Y-33921849D01*
X99585906Y-33953822D01*
X99611006Y-34000564D01*
X99643347Y-34114231D01*
X99643349Y-34114237D01*
X99644918Y-34119750D01*
X99735827Y-34302321D01*
X99739279Y-34306892D01*
X99855278Y-34460501D01*
X99855283Y-34460506D01*
X99858736Y-34465079D01*
X99862972Y-34468940D01*
X99862976Y-34468945D01*
X99994292Y-34588655D01*
X100028243Y-34640641D01*
X100032737Y-34702568D01*
X100032123Y-34705927D01*
X100030357Y-34712007D01*
X100029860Y-34718312D01*
X100029859Y-34718322D01*
X100027691Y-34745875D01*
X100027690Y-34745890D01*
X100027500Y-34748310D01*
X100027500Y-35157690D01*
X100027690Y-35160110D01*
X100027691Y-35160124D01*
X100029859Y-35187675D01*
X100029860Y-35187682D01*
X100030357Y-35193993D01*
X100032123Y-35200074D01*
X100032125Y-35200081D01*
X100073329Y-35341902D01*
X100075506Y-35349395D01*
X100157883Y-35488687D01*
X100163401Y-35494205D01*
X100166681Y-35497485D01*
X100193561Y-35537713D01*
X100203000Y-35585166D01*
X100203000Y-38734905D01*
X100193561Y-38782358D01*
X100166681Y-38822586D01*
X100152383Y-38836883D01*
X100152379Y-38836887D01*
X100146865Y-38842402D01*
X100142894Y-38849115D01*
X100142892Y-38849119D01*
X100069102Y-38973891D01*
X100069099Y-38973896D01*
X100065131Y-38980607D01*
X100062955Y-38988096D01*
X100062954Y-38988099D01*
X100022103Y-39128707D01*
X100022101Y-39128716D01*
X100020335Y-39134796D01*
X100019838Y-39141104D01*
X100019837Y-39141113D01*
X100017691Y-39168384D01*
X100017690Y-39168400D01*
X100017500Y-39170819D01*
X100017500Y-39173264D01*
X100017500Y-39254546D01*
X100008061Y-39301999D01*
X99981181Y-39342227D01*
X99530228Y-39793181D01*
X99490000Y-39820061D01*
X99442547Y-39829500D01*
X99363310Y-39829500D01*
X99360890Y-39829690D01*
X99360875Y-39829691D01*
X99333324Y-39831859D01*
X99333315Y-39831860D01*
X99327007Y-39832357D01*
X99320927Y-39834123D01*
X99320918Y-39834125D01*
X99186853Y-39873076D01*
X99152258Y-39878000D01*
X99023742Y-39878000D01*
X98989147Y-39873076D01*
X98855081Y-39834125D01*
X98855074Y-39834123D01*
X98848993Y-39832357D01*
X98842682Y-39831860D01*
X98842675Y-39831859D01*
X98815124Y-39829691D01*
X98815110Y-39829690D01*
X98812690Y-39829500D01*
X98403310Y-39829500D01*
X98400890Y-39829690D01*
X98400875Y-39829691D01*
X98373324Y-39831859D01*
X98373315Y-39831860D01*
X98367007Y-39832357D01*
X98360927Y-39834123D01*
X98360918Y-39834125D01*
X98226853Y-39873076D01*
X98192258Y-39878000D01*
X97209985Y-39878000D01*
X97144709Y-39859427D01*
X97012637Y-39777652D01*
X96965505Y-39759393D01*
X96827803Y-39706047D01*
X96827798Y-39706045D01*
X96822456Y-39703976D01*
X96816818Y-39702922D01*
X96627605Y-39667552D01*
X96627602Y-39667551D01*
X96621976Y-39666500D01*
X96418024Y-39666500D01*
X96412398Y-39667551D01*
X96412394Y-39667552D01*
X96223181Y-39702922D01*
X96223178Y-39702922D01*
X96217544Y-39703976D01*
X96212203Y-39706044D01*
X96212196Y-39706047D01*
X96032705Y-39775582D01*
X96032700Y-39775584D01*
X96027363Y-39777652D01*
X96022496Y-39780665D01*
X96022493Y-39780667D01*
X95984780Y-39804017D01*
X95895290Y-39859427D01*
X95830015Y-39878000D01*
X94234480Y-39878000D01*
X94168770Y-39859158D01*
X94123030Y-39808358D01*
X94111159Y-39741039D01*
X94122781Y-39630460D01*
X94123460Y-39624000D01*
X94103674Y-39435744D01*
X94045179Y-39255716D01*
X93950533Y-39091784D01*
X93850428Y-38980607D01*
X93828220Y-38955942D01*
X93828219Y-38955941D01*
X93823871Y-38951112D01*
X93818612Y-38947291D01*
X93813785Y-38942945D01*
X93814942Y-38941659D01*
X93784016Y-38905451D01*
X93770500Y-38849155D01*
X93770500Y-34034500D01*
X93787113Y-33972500D01*
X93832500Y-33927113D01*
X93894500Y-33910500D01*
X94985421Y-33910499D01*
X95017872Y-33910499D01*
X95077483Y-33904091D01*
X95212331Y-33853796D01*
X95327546Y-33767546D01*
X95413796Y-33652331D01*
X95464091Y-33517483D01*
X95470500Y-33457873D01*
X95470499Y-31922230D01*
X95479938Y-31874778D01*
X95506818Y-31834549D01*
X95594550Y-31746818D01*
X95634779Y-31719939D01*
X95682231Y-31710500D01*
X97445500Y-31710500D01*
X97507500Y-31727113D01*
G37*
%TD.AperFunction*%
%TD*%
M02*
