%TF.GenerationSoftware,KiCad,Pcbnew,8.0.2*%
%TF.CreationDate,2024-06-06T19:50:14+02:00*%
%TF.ProjectId,AnalogI2SMic,416e616c-6f67-4493-9253-4d69632e6b69,rev?*%
%TF.SameCoordinates,Original*%
%TF.FileFunction,Paste,Top*%
%TF.FilePolarity,Positive*%
%FSLAX46Y46*%
G04 Gerber Fmt 4.6, Leading zero omitted, Abs format (unit mm)*
G04 Created by KiCad (PCBNEW 8.0.2) date 2024-06-06 19:50:14*
%MOMM*%
%LPD*%
G01*
G04 APERTURE LIST*
G04 Aperture macros list*
%AMRoundRect*
0 Rectangle with rounded corners*
0 $1 Rounding radius*
0 $2 $3 $4 $5 $6 $7 $8 $9 X,Y pos of 4 corners*
0 Add a 4 corners polygon primitive as box body*
4,1,4,$2,$3,$4,$5,$6,$7,$8,$9,$2,$3,0*
0 Add four circle primitives for the rounded corners*
1,1,$1+$1,$2,$3*
1,1,$1+$1,$4,$5*
1,1,$1+$1,$6,$7*
1,1,$1+$1,$8,$9*
0 Add four rect primitives between the rounded corners*
20,1,$1+$1,$2,$3,$4,$5,0*
20,1,$1+$1,$4,$5,$6,$7,0*
20,1,$1+$1,$6,$7,$8,$9,0*
20,1,$1+$1,$8,$9,$2,$3,0*%
%AMRotRect*
0 Rectangle, with rotation*
0 The origin of the aperture is its center*
0 $1 length*
0 $2 width*
0 $3 Rotation angle, in degrees counterclockwise*
0 Add horizontal line*
21,1,$1,$2,0,0,$3*%
%AMFreePoly0*
4,1,5,0.110000,-0.125000,-0.110000,-0.125000,-0.110000,0.125000,0.360000,0.125000,0.110000,-0.125000,0.110000,-0.125000,$1*%
%AMFreePoly1*
4,1,6,0.290000,-0.055000,0.290000,-0.125000,-0.110000,-0.125000,-0.110000,0.125000,0.110000,0.125000,0.290000,-0.055000,0.290000,-0.055000,$1*%
%AMFreePoly2*
4,1,7,0.110000,-0.125000,-0.110000,-0.125000,-0.290000,-0.125000,-0.290000,-0.055000,-0.110000,0.125000,0.110000,0.125000,0.110000,-0.125000,0.110000,-0.125000,$1*%
%AMFreePoly3*
4,1,6,0.110000,-0.125000,-0.110000,-0.125000,-0.290000,0.055000,-0.290000,0.125000,0.110000,0.125000,0.110000,-0.125000,0.110000,-0.125000,$1*%
%AMFreePoly4*
4,1,25,0.266375,0.443630,0.297109,0.420047,0.420047,0.297109,0.458455,0.230584,0.463512,0.192176,0.463512,-0.192176,0.443630,-0.266375,0.420047,-0.297109,0.297109,-0.420047,0.230584,-0.458455,0.192176,-0.463512,-0.192176,-0.463512,-0.266375,-0.443630,-0.297109,-0.420047,-0.420047,-0.297109,-0.458455,-0.230584,-0.463512,-0.192176,-0.463512,0.192176,-0.443630,0.266375,-0.420047,0.297109,
-0.297109,0.420047,-0.230584,0.458455,-0.192176,0.463512,0.192176,0.463512,0.266375,0.443630,0.266375,0.443630,$1*%
G04 Aperture macros list end*
%ADD10FreePoly0,180.000000*%
%ADD11FreePoly1,180.000000*%
%ADD12FreePoly2,180.000000*%
%ADD13FreePoly3,180.000000*%
%ADD14RotRect,0.480000X0.480000X225.000000*%
%ADD15RoundRect,0.150000X-0.150000X0.587500X-0.150000X-0.587500X0.150000X-0.587500X0.150000X0.587500X0*%
%ADD16RoundRect,0.140000X-0.170000X0.140000X-0.170000X-0.140000X0.170000X-0.140000X0.170000X0.140000X0*%
%ADD17RoundRect,0.135000X0.185000X-0.135000X0.185000X0.135000X-0.185000X0.135000X-0.185000X-0.135000X0*%
%ADD18RoundRect,0.135000X-0.185000X0.135000X-0.185000X-0.135000X0.185000X-0.135000X0.185000X0.135000X0*%
%ADD19RoundRect,0.140000X0.170000X-0.140000X0.170000X0.140000X-0.170000X0.140000X-0.170000X-0.140000X0*%
%ADD20RoundRect,0.140000X0.140000X0.170000X-0.140000X0.170000X-0.140000X-0.170000X0.140000X-0.170000X0*%
%ADD21RoundRect,0.140000X-0.140000X-0.170000X0.140000X-0.170000X0.140000X0.170000X-0.140000X0.170000X0*%
%ADD22RoundRect,0.218750X-0.256250X0.218750X-0.256250X-0.218750X0.256250X-0.218750X0.256250X0.218750X0*%
%ADD23FreePoly4,0.000000*%
%ADD24RoundRect,0.062500X-0.375000X-0.062500X0.375000X-0.062500X0.375000X0.062500X-0.375000X0.062500X0*%
%ADD25RoundRect,0.062500X-0.062500X-0.375000X0.062500X-0.375000X0.062500X0.375000X-0.062500X0.375000X0*%
G04 APERTURE END LIST*
D10*
%TO.C,U2*%
X96613300Y-32282500D03*
D11*
X96613300Y-31632500D03*
D12*
X95533300Y-31632500D03*
D13*
X95533300Y-32282500D03*
D14*
X96073300Y-31957500D03*
%TD*%
D15*
%TO.C,Q1*%
X95285800Y-37098900D03*
X93385800Y-37098900D03*
X94335800Y-38973900D03*
%TD*%
D16*
%TO.C,C10*%
X106680000Y-42954000D03*
X106680000Y-43914000D03*
%TD*%
D17*
%TO.C,R12*%
X96570800Y-37035200D03*
X96570800Y-36015200D03*
%TD*%
%TO.C,R11*%
X94488000Y-32969200D03*
X94488000Y-31949200D03*
%TD*%
D16*
%TO.C,C12*%
X109347000Y-41839000D03*
X109347000Y-42799000D03*
%TD*%
D18*
%TO.C,R3*%
X109982000Y-37080000D03*
X109982000Y-38100000D03*
%TD*%
%TO.C,R2*%
X108331000Y-40765000D03*
X108331000Y-41785000D03*
%TD*%
D19*
%TO.C,C1*%
X98704400Y-37005200D03*
X98704400Y-36045200D03*
%TD*%
D18*
%TO.C,R5*%
X110998000Y-37082000D03*
X110998000Y-38102000D03*
%TD*%
D17*
%TO.C,R13*%
X93827600Y-34901600D03*
X93827600Y-33881600D03*
%TD*%
D20*
%TO.C,C2*%
X105664000Y-42926000D03*
X104704000Y-42926000D03*
%TD*%
D19*
%TO.C,C4*%
X102463600Y-36141600D03*
X102463600Y-35181600D03*
%TD*%
D18*
%TO.C,R8*%
X112801400Y-38733000D03*
X112801400Y-39753000D03*
%TD*%
%TO.C,R6*%
X110998000Y-38989000D03*
X110998000Y-40009000D03*
%TD*%
D19*
%TO.C,C6*%
X105308400Y-36195000D03*
X105308400Y-35235000D03*
%TD*%
D18*
%TO.C,R1*%
X101981000Y-40765000D03*
X101981000Y-41785000D03*
%TD*%
D17*
%TO.C,R9*%
X109982000Y-36171600D03*
X109982000Y-35151600D03*
%TD*%
D21*
%TO.C,C13*%
X111889600Y-43713400D03*
X112849600Y-43713400D03*
%TD*%
D16*
%TO.C,C16*%
X107696000Y-42982000D03*
X107696000Y-43942000D03*
%TD*%
D18*
%TO.C,R4*%
X109982000Y-38989000D03*
X109982000Y-40009000D03*
%TD*%
D19*
%TO.C,C7*%
X106324400Y-36192400D03*
X106324400Y-35232400D03*
%TD*%
D18*
%TO.C,R7*%
X97637600Y-36015200D03*
X97637600Y-37035200D03*
%TD*%
D16*
%TO.C,C8*%
X103632000Y-42926000D03*
X103632000Y-43886000D03*
%TD*%
D21*
%TO.C,C14*%
X94820800Y-34340800D03*
X95780800Y-34340800D03*
%TD*%
D20*
%TO.C,C3*%
X105664000Y-43942000D03*
X104704000Y-43942000D03*
%TD*%
D16*
%TO.C,C9*%
X102616000Y-42926000D03*
X102616000Y-43886000D03*
%TD*%
D19*
%TO.C,C15*%
X97434400Y-32941200D03*
X97434400Y-31981200D03*
%TD*%
D22*
%TO.C,FB1*%
X112547400Y-40894000D03*
X112547400Y-42469000D03*
%TD*%
D23*
%TO.C,U1*%
X104640000Y-39140000D03*
X104640000Y-40140000D03*
X105640000Y-39140000D03*
X105640000Y-40140000D03*
D24*
X103202500Y-38390000D03*
X103202500Y-38890000D03*
X103202500Y-39390000D03*
X103202500Y-39890000D03*
X103202500Y-40390000D03*
X103202500Y-40890000D03*
D25*
X103890000Y-41577500D03*
X104390000Y-41577500D03*
X104890000Y-41577500D03*
X105390000Y-41577500D03*
X105890000Y-41577500D03*
X106390000Y-41577500D03*
D24*
X107077500Y-40890000D03*
X107077500Y-40390000D03*
X107077500Y-39890000D03*
X107077500Y-39390000D03*
X107077500Y-38890000D03*
X107077500Y-38390000D03*
D25*
X106390000Y-37702500D03*
X105890000Y-37702500D03*
X105390000Y-37702500D03*
X104890000Y-37702500D03*
X104390000Y-37702500D03*
X103890000Y-37702500D03*
%TD*%
D19*
%TO.C,C5*%
X104292400Y-36192400D03*
X104292400Y-35232400D03*
%TD*%
D17*
%TO.C,R10*%
X110998000Y-36171600D03*
X110998000Y-35151600D03*
%TD*%
D19*
%TO.C,C11*%
X100965000Y-42799000D03*
X100965000Y-41839000D03*
%TD*%
M02*
