%TF.GenerationSoftware,KiCad,Pcbnew,8.0.2*%
%TF.CreationDate,2024-05-17T20:22:55+02:00*%
%TF.ProjectId,AnalogI2SMic,416e616c-6f67-4493-9253-4d69632e6b69,rev?*%
%TF.SameCoordinates,Original*%
%TF.FileFunction,Drillmap*%
%TF.FilePolarity,Positive*%
%FSLAX45Y45*%
G04 Gerber Fmt 4.5, Leading zero omitted, Abs format (unit mm)*
G04 Created by KiCad (PCBNEW 8.0.2) date 2024-05-17 20:22:55*
%MOMM*%
%LPD*%
G01*
G04 APERTURE LIST*
%ADD10C,0.100000*%
%ADD11C,0.120000*%
%ADD12C,0.200000*%
G04 APERTURE END LIST*
D10*
X9357842Y-5852160D02*
G75*
G02*
X9256240Y-5750560I-2J101600D01*
G01*
X11582758Y-5752158D02*
G75*
G02*
X11481000Y-5852173I-101758J1758D01*
G01*
X9258242Y-2818842D02*
X9256242Y-5750560D01*
X11480800Y-2717800D02*
X9359842Y-2717242D01*
X10556000Y-5852200D02*
X11481000Y-5852173D01*
X9398000Y-5852200D02*
X9357842Y-5852160D01*
X9258242Y-2818842D02*
G75*
G02*
X9359842Y-2717242I101598J2D01*
G01*
X11480800Y-2717800D02*
G75*
G02*
X11582400Y-2819400I0J-101600D01*
G01*
X11582758Y-5752158D02*
X11582400Y-2819400D01*
D11*
X9686000Y-5752200D02*
X9686000Y-5852200D01*
X9686000Y-5852200D02*
X9398000Y-5852200D01*
X10086000Y-5712200D02*
X9726000Y-5712200D01*
X10126000Y-5752200D02*
X10126000Y-5852200D01*
X10126000Y-5852200D02*
X10556000Y-5852200D01*
X9686000Y-5752200D02*
G75*
G02*
X9726000Y-5712200I40000J0D01*
G01*
X10086000Y-5712200D02*
G75*
G02*
X10126000Y-5752200I0J-40000D01*
G01*
D12*
D11*
X9346000Y-5342200D02*
X9466000Y-5462200D01*
X9466000Y-5342200D02*
X9346000Y-5462200D01*
X9346000Y-5592200D02*
X9466000Y-5712200D01*
X9466000Y-5592200D02*
X9346000Y-5712200D01*
X9846000Y-4842200D02*
X9966000Y-4962200D01*
X9966000Y-4842200D02*
X9846000Y-4962200D01*
X10346000Y-5342200D02*
X10466000Y-5462200D01*
X10466000Y-5342200D02*
X10346000Y-5462200D01*
X10346000Y-5592200D02*
X10466000Y-5712200D01*
X10466000Y-5592200D02*
X10346000Y-5712200D01*
D12*
X9512019Y-6168684D02*
X9512019Y-5968684D01*
X9512019Y-5968684D02*
X9559638Y-5968684D01*
X9559638Y-5968684D02*
X9588209Y-5978208D01*
X9588209Y-5978208D02*
X9607257Y-5997255D01*
X9607257Y-5997255D02*
X9616781Y-6016303D01*
X9616781Y-6016303D02*
X9626305Y-6054398D01*
X9626305Y-6054398D02*
X9626305Y-6082969D01*
X9626305Y-6082969D02*
X9616781Y-6121065D01*
X9616781Y-6121065D02*
X9607257Y-6140112D01*
X9607257Y-6140112D02*
X9588209Y-6159160D01*
X9588209Y-6159160D02*
X9559638Y-6168684D01*
X9559638Y-6168684D02*
X9512019Y-6168684D01*
X9712019Y-6168684D02*
X9712019Y-6035350D01*
X9712019Y-6073446D02*
X9721543Y-6054398D01*
X9721543Y-6054398D02*
X9731066Y-6044874D01*
X9731066Y-6044874D02*
X9750114Y-6035350D01*
X9750114Y-6035350D02*
X9769162Y-6035350D01*
X9835828Y-6168684D02*
X9835828Y-6035350D01*
X9835828Y-5968684D02*
X9826305Y-5978208D01*
X9826305Y-5978208D02*
X9835828Y-5987731D01*
X9835828Y-5987731D02*
X9845352Y-5978208D01*
X9845352Y-5978208D02*
X9835828Y-5968684D01*
X9835828Y-5968684D02*
X9835828Y-5987731D01*
X9959638Y-6168684D02*
X9940590Y-6159160D01*
X9940590Y-6159160D02*
X9931066Y-6140112D01*
X9931066Y-6140112D02*
X9931066Y-5968684D01*
X10064400Y-6168684D02*
X10045352Y-6159160D01*
X10045352Y-6159160D02*
X10035828Y-6140112D01*
X10035828Y-6140112D02*
X10035828Y-5968684D01*
X10292971Y-6168684D02*
X10292971Y-5968684D01*
X10292971Y-5968684D02*
X10359638Y-6111541D01*
X10359638Y-6111541D02*
X10426305Y-5968684D01*
X10426305Y-5968684D02*
X10426305Y-6168684D01*
X10607257Y-6168684D02*
X10607257Y-6063922D01*
X10607257Y-6063922D02*
X10597733Y-6044874D01*
X10597733Y-6044874D02*
X10578686Y-6035350D01*
X10578686Y-6035350D02*
X10540590Y-6035350D01*
X10540590Y-6035350D02*
X10521543Y-6044874D01*
X10607257Y-6159160D02*
X10588209Y-6168684D01*
X10588209Y-6168684D02*
X10540590Y-6168684D01*
X10540590Y-6168684D02*
X10521543Y-6159160D01*
X10521543Y-6159160D02*
X10512019Y-6140112D01*
X10512019Y-6140112D02*
X10512019Y-6121065D01*
X10512019Y-6121065D02*
X10521543Y-6102017D01*
X10521543Y-6102017D02*
X10540590Y-6092493D01*
X10540590Y-6092493D02*
X10588209Y-6092493D01*
X10588209Y-6092493D02*
X10607257Y-6082969D01*
X10702495Y-6035350D02*
X10702495Y-6235350D01*
X10702495Y-6044874D02*
X10721543Y-6035350D01*
X10721543Y-6035350D02*
X10759638Y-6035350D01*
X10759638Y-6035350D02*
X10778686Y-6044874D01*
X10778686Y-6044874D02*
X10788209Y-6054398D01*
X10788209Y-6054398D02*
X10797733Y-6073446D01*
X10797733Y-6073446D02*
X10797733Y-6130588D01*
X10797733Y-6130588D02*
X10788209Y-6149636D01*
X10788209Y-6149636D02*
X10778686Y-6159160D01*
X10778686Y-6159160D02*
X10759638Y-6168684D01*
X10759638Y-6168684D02*
X10721543Y-6168684D01*
X10721543Y-6168684D02*
X10702495Y-6159160D01*
X10883447Y-6149636D02*
X10892971Y-6159160D01*
X10892971Y-6159160D02*
X10883447Y-6168684D01*
X10883447Y-6168684D02*
X10873924Y-6159160D01*
X10873924Y-6159160D02*
X10883447Y-6149636D01*
X10883447Y-6149636D02*
X10883447Y-6168684D01*
X10883447Y-6044874D02*
X10892971Y-6054398D01*
X10892971Y-6054398D02*
X10883447Y-6063922D01*
X10883447Y-6063922D02*
X10873924Y-6054398D01*
X10873924Y-6054398D02*
X10883447Y-6044874D01*
X10883447Y-6044874D02*
X10883447Y-6063922D01*
D11*
X9131242Y-6437200D02*
X9251242Y-6557200D01*
X9251242Y-6437200D02*
X9131242Y-6557200D01*
D12*
X9616781Y-6588684D02*
X9502495Y-6588684D01*
X9559638Y-6588684D02*
X9559638Y-6388684D01*
X9559638Y-6388684D02*
X9540590Y-6417255D01*
X9540590Y-6417255D02*
X9521543Y-6436303D01*
X9521543Y-6436303D02*
X9502495Y-6445827D01*
X9702495Y-6569636D02*
X9712019Y-6579160D01*
X9712019Y-6579160D02*
X9702495Y-6588684D01*
X9702495Y-6588684D02*
X9692971Y-6579160D01*
X9692971Y-6579160D02*
X9702495Y-6569636D01*
X9702495Y-6569636D02*
X9702495Y-6588684D01*
X9788209Y-6407731D02*
X9797733Y-6398208D01*
X9797733Y-6398208D02*
X9816781Y-6388684D01*
X9816781Y-6388684D02*
X9864400Y-6388684D01*
X9864400Y-6388684D02*
X9883447Y-6398208D01*
X9883447Y-6398208D02*
X9892971Y-6407731D01*
X9892971Y-6407731D02*
X9902495Y-6426779D01*
X9902495Y-6426779D02*
X9902495Y-6445827D01*
X9902495Y-6445827D02*
X9892971Y-6474398D01*
X9892971Y-6474398D02*
X9778686Y-6588684D01*
X9778686Y-6588684D02*
X9902495Y-6588684D01*
X10026305Y-6388684D02*
X10045352Y-6388684D01*
X10045352Y-6388684D02*
X10064400Y-6398208D01*
X10064400Y-6398208D02*
X10073924Y-6407731D01*
X10073924Y-6407731D02*
X10083447Y-6426779D01*
X10083447Y-6426779D02*
X10092971Y-6464874D01*
X10092971Y-6464874D02*
X10092971Y-6512493D01*
X10092971Y-6512493D02*
X10083447Y-6550588D01*
X10083447Y-6550588D02*
X10073924Y-6569636D01*
X10073924Y-6569636D02*
X10064400Y-6579160D01*
X10064400Y-6579160D02*
X10045352Y-6588684D01*
X10045352Y-6588684D02*
X10026305Y-6588684D01*
X10026305Y-6588684D02*
X10007257Y-6579160D01*
X10007257Y-6579160D02*
X9997733Y-6569636D01*
X9997733Y-6569636D02*
X9988209Y-6550588D01*
X9988209Y-6550588D02*
X9978686Y-6512493D01*
X9978686Y-6512493D02*
X9978686Y-6464874D01*
X9978686Y-6464874D02*
X9988209Y-6426779D01*
X9988209Y-6426779D02*
X9997733Y-6407731D01*
X9997733Y-6407731D02*
X10007257Y-6398208D01*
X10007257Y-6398208D02*
X10026305Y-6388684D01*
X10216781Y-6388684D02*
X10235828Y-6388684D01*
X10235828Y-6388684D02*
X10254876Y-6398208D01*
X10254876Y-6398208D02*
X10264400Y-6407731D01*
X10264400Y-6407731D02*
X10273924Y-6426779D01*
X10273924Y-6426779D02*
X10283447Y-6464874D01*
X10283447Y-6464874D02*
X10283447Y-6512493D01*
X10283447Y-6512493D02*
X10273924Y-6550588D01*
X10273924Y-6550588D02*
X10264400Y-6569636D01*
X10264400Y-6569636D02*
X10254876Y-6579160D01*
X10254876Y-6579160D02*
X10235828Y-6588684D01*
X10235828Y-6588684D02*
X10216781Y-6588684D01*
X10216781Y-6588684D02*
X10197733Y-6579160D01*
X10197733Y-6579160D02*
X10188209Y-6569636D01*
X10188209Y-6569636D02*
X10178686Y-6550588D01*
X10178686Y-6550588D02*
X10169162Y-6512493D01*
X10169162Y-6512493D02*
X10169162Y-6464874D01*
X10169162Y-6464874D02*
X10178686Y-6426779D01*
X10178686Y-6426779D02*
X10188209Y-6407731D01*
X10188209Y-6407731D02*
X10197733Y-6398208D01*
X10197733Y-6398208D02*
X10216781Y-6388684D01*
X10369162Y-6588684D02*
X10369162Y-6455350D01*
X10369162Y-6474398D02*
X10378686Y-6464874D01*
X10378686Y-6464874D02*
X10397733Y-6455350D01*
X10397733Y-6455350D02*
X10426305Y-6455350D01*
X10426305Y-6455350D02*
X10445352Y-6464874D01*
X10445352Y-6464874D02*
X10454876Y-6483922D01*
X10454876Y-6483922D02*
X10454876Y-6588684D01*
X10454876Y-6483922D02*
X10464400Y-6464874D01*
X10464400Y-6464874D02*
X10483447Y-6455350D01*
X10483447Y-6455350D02*
X10512019Y-6455350D01*
X10512019Y-6455350D02*
X10531067Y-6464874D01*
X10531067Y-6464874D02*
X10540590Y-6483922D01*
X10540590Y-6483922D02*
X10540590Y-6588684D01*
X10635828Y-6588684D02*
X10635828Y-6455350D01*
X10635828Y-6474398D02*
X10645352Y-6464874D01*
X10645352Y-6464874D02*
X10664400Y-6455350D01*
X10664400Y-6455350D02*
X10692971Y-6455350D01*
X10692971Y-6455350D02*
X10712019Y-6464874D01*
X10712019Y-6464874D02*
X10721543Y-6483922D01*
X10721543Y-6483922D02*
X10721543Y-6588684D01*
X10721543Y-6483922D02*
X10731067Y-6464874D01*
X10731067Y-6464874D02*
X10750114Y-6455350D01*
X10750114Y-6455350D02*
X10778686Y-6455350D01*
X10778686Y-6455350D02*
X10797733Y-6464874D01*
X10797733Y-6464874D02*
X10807257Y-6483922D01*
X10807257Y-6483922D02*
X10807257Y-6588684D01*
X11197733Y-6379160D02*
X11026305Y-6636303D01*
X11454876Y-6388684D02*
X11473924Y-6388684D01*
X11473924Y-6388684D02*
X11492971Y-6398208D01*
X11492971Y-6398208D02*
X11502495Y-6407731D01*
X11502495Y-6407731D02*
X11512019Y-6426779D01*
X11512019Y-6426779D02*
X11521543Y-6464874D01*
X11521543Y-6464874D02*
X11521543Y-6512493D01*
X11521543Y-6512493D02*
X11512019Y-6550588D01*
X11512019Y-6550588D02*
X11502495Y-6569636D01*
X11502495Y-6569636D02*
X11492971Y-6579160D01*
X11492971Y-6579160D02*
X11473924Y-6588684D01*
X11473924Y-6588684D02*
X11454876Y-6588684D01*
X11454876Y-6588684D02*
X11435828Y-6579160D01*
X11435828Y-6579160D02*
X11426305Y-6569636D01*
X11426305Y-6569636D02*
X11416781Y-6550588D01*
X11416781Y-6550588D02*
X11407257Y-6512493D01*
X11407257Y-6512493D02*
X11407257Y-6464874D01*
X11407257Y-6464874D02*
X11416781Y-6426779D01*
X11416781Y-6426779D02*
X11426305Y-6407731D01*
X11426305Y-6407731D02*
X11435828Y-6398208D01*
X11435828Y-6398208D02*
X11454876Y-6388684D01*
X11607257Y-6569636D02*
X11616781Y-6579160D01*
X11616781Y-6579160D02*
X11607257Y-6588684D01*
X11607257Y-6588684D02*
X11597733Y-6579160D01*
X11597733Y-6579160D02*
X11607257Y-6569636D01*
X11607257Y-6569636D02*
X11607257Y-6588684D01*
X11740590Y-6388684D02*
X11759638Y-6388684D01*
X11759638Y-6388684D02*
X11778686Y-6398208D01*
X11778686Y-6398208D02*
X11788209Y-6407731D01*
X11788209Y-6407731D02*
X11797733Y-6426779D01*
X11797733Y-6426779D02*
X11807257Y-6464874D01*
X11807257Y-6464874D02*
X11807257Y-6512493D01*
X11807257Y-6512493D02*
X11797733Y-6550588D01*
X11797733Y-6550588D02*
X11788209Y-6569636D01*
X11788209Y-6569636D02*
X11778686Y-6579160D01*
X11778686Y-6579160D02*
X11759638Y-6588684D01*
X11759638Y-6588684D02*
X11740590Y-6588684D01*
X11740590Y-6588684D02*
X11721543Y-6579160D01*
X11721543Y-6579160D02*
X11712019Y-6569636D01*
X11712019Y-6569636D02*
X11702495Y-6550588D01*
X11702495Y-6550588D02*
X11692971Y-6512493D01*
X11692971Y-6512493D02*
X11692971Y-6464874D01*
X11692971Y-6464874D02*
X11702495Y-6426779D01*
X11702495Y-6426779D02*
X11712019Y-6407731D01*
X11712019Y-6407731D02*
X11721543Y-6398208D01*
X11721543Y-6398208D02*
X11740590Y-6388684D01*
X11978686Y-6455350D02*
X11978686Y-6588684D01*
X11931067Y-6379160D02*
X11883448Y-6522017D01*
X11883448Y-6522017D02*
X12007257Y-6522017D01*
X12064400Y-6388684D02*
X12197733Y-6388684D01*
X12197733Y-6388684D02*
X12112019Y-6588684D01*
X12264400Y-6407731D02*
X12273924Y-6398208D01*
X12273924Y-6398208D02*
X12292971Y-6388684D01*
X12292971Y-6388684D02*
X12340590Y-6388684D01*
X12340590Y-6388684D02*
X12359638Y-6398208D01*
X12359638Y-6398208D02*
X12369162Y-6407731D01*
X12369162Y-6407731D02*
X12378686Y-6426779D01*
X12378686Y-6426779D02*
X12378686Y-6445827D01*
X12378686Y-6445827D02*
X12369162Y-6474398D01*
X12369162Y-6474398D02*
X12254876Y-6588684D01*
X12254876Y-6588684D02*
X12378686Y-6588684D01*
X12454876Y-6388684D02*
X12454876Y-6426779D01*
X12531067Y-6388684D02*
X12531067Y-6426779D01*
X12826305Y-6664874D02*
X12816781Y-6655350D01*
X12816781Y-6655350D02*
X12797733Y-6626779D01*
X12797733Y-6626779D02*
X12788210Y-6607731D01*
X12788210Y-6607731D02*
X12778686Y-6579160D01*
X12778686Y-6579160D02*
X12769162Y-6531541D01*
X12769162Y-6531541D02*
X12769162Y-6493446D01*
X12769162Y-6493446D02*
X12778686Y-6445827D01*
X12778686Y-6445827D02*
X12788210Y-6417255D01*
X12788210Y-6417255D02*
X12797733Y-6398208D01*
X12797733Y-6398208D02*
X12816781Y-6369636D01*
X12816781Y-6369636D02*
X12826305Y-6360112D01*
X12997733Y-6388684D02*
X12902495Y-6388684D01*
X12902495Y-6388684D02*
X12892971Y-6483922D01*
X12892971Y-6483922D02*
X12902495Y-6474398D01*
X12902495Y-6474398D02*
X12921543Y-6464874D01*
X12921543Y-6464874D02*
X12969162Y-6464874D01*
X12969162Y-6464874D02*
X12988210Y-6474398D01*
X12988210Y-6474398D02*
X12997733Y-6483922D01*
X12997733Y-6483922D02*
X13007257Y-6502969D01*
X13007257Y-6502969D02*
X13007257Y-6550588D01*
X13007257Y-6550588D02*
X12997733Y-6569636D01*
X12997733Y-6569636D02*
X12988210Y-6579160D01*
X12988210Y-6579160D02*
X12969162Y-6588684D01*
X12969162Y-6588684D02*
X12921543Y-6588684D01*
X12921543Y-6588684D02*
X12902495Y-6579160D01*
X12902495Y-6579160D02*
X12892971Y-6569636D01*
X13245352Y-6588684D02*
X13245352Y-6388684D01*
X13331067Y-6588684D02*
X13331067Y-6483922D01*
X13331067Y-6483922D02*
X13321543Y-6464874D01*
X13321543Y-6464874D02*
X13302495Y-6455350D01*
X13302495Y-6455350D02*
X13273924Y-6455350D01*
X13273924Y-6455350D02*
X13254876Y-6464874D01*
X13254876Y-6464874D02*
X13245352Y-6474398D01*
X13454876Y-6588684D02*
X13435829Y-6579160D01*
X13435829Y-6579160D02*
X13426305Y-6569636D01*
X13426305Y-6569636D02*
X13416781Y-6550588D01*
X13416781Y-6550588D02*
X13416781Y-6493446D01*
X13416781Y-6493446D02*
X13426305Y-6474398D01*
X13426305Y-6474398D02*
X13435829Y-6464874D01*
X13435829Y-6464874D02*
X13454876Y-6455350D01*
X13454876Y-6455350D02*
X13483448Y-6455350D01*
X13483448Y-6455350D02*
X13502495Y-6464874D01*
X13502495Y-6464874D02*
X13512019Y-6474398D01*
X13512019Y-6474398D02*
X13521543Y-6493446D01*
X13521543Y-6493446D02*
X13521543Y-6550588D01*
X13521543Y-6550588D02*
X13512019Y-6569636D01*
X13512019Y-6569636D02*
X13502495Y-6579160D01*
X13502495Y-6579160D02*
X13483448Y-6588684D01*
X13483448Y-6588684D02*
X13454876Y-6588684D01*
X13635829Y-6588684D02*
X13616781Y-6579160D01*
X13616781Y-6579160D02*
X13607257Y-6560112D01*
X13607257Y-6560112D02*
X13607257Y-6388684D01*
X13788210Y-6579160D02*
X13769162Y-6588684D01*
X13769162Y-6588684D02*
X13731067Y-6588684D01*
X13731067Y-6588684D02*
X13712019Y-6579160D01*
X13712019Y-6579160D02*
X13702495Y-6560112D01*
X13702495Y-6560112D02*
X13702495Y-6483922D01*
X13702495Y-6483922D02*
X13712019Y-6464874D01*
X13712019Y-6464874D02*
X13731067Y-6455350D01*
X13731067Y-6455350D02*
X13769162Y-6455350D01*
X13769162Y-6455350D02*
X13788210Y-6464874D01*
X13788210Y-6464874D02*
X13797733Y-6483922D01*
X13797733Y-6483922D02*
X13797733Y-6502969D01*
X13797733Y-6502969D02*
X13702495Y-6522017D01*
X13873924Y-6579160D02*
X13892972Y-6588684D01*
X13892972Y-6588684D02*
X13931067Y-6588684D01*
X13931067Y-6588684D02*
X13950114Y-6579160D01*
X13950114Y-6579160D02*
X13959638Y-6560112D01*
X13959638Y-6560112D02*
X13959638Y-6550588D01*
X13959638Y-6550588D02*
X13950114Y-6531541D01*
X13950114Y-6531541D02*
X13931067Y-6522017D01*
X13931067Y-6522017D02*
X13902495Y-6522017D01*
X13902495Y-6522017D02*
X13883448Y-6512493D01*
X13883448Y-6512493D02*
X13873924Y-6493446D01*
X13873924Y-6493446D02*
X13873924Y-6483922D01*
X13873924Y-6483922D02*
X13883448Y-6464874D01*
X13883448Y-6464874D02*
X13902495Y-6455350D01*
X13902495Y-6455350D02*
X13931067Y-6455350D01*
X13931067Y-6455350D02*
X13950114Y-6464874D01*
X14026305Y-6664874D02*
X14035829Y-6655350D01*
X14035829Y-6655350D02*
X14054876Y-6626779D01*
X14054876Y-6626779D02*
X14064400Y-6607731D01*
X14064400Y-6607731D02*
X14073924Y-6579160D01*
X14073924Y-6579160D02*
X14083448Y-6531541D01*
X14083448Y-6531541D02*
X14083448Y-6493446D01*
X14083448Y-6493446D02*
X14073924Y-6445827D01*
X14073924Y-6445827D02*
X14064400Y-6417255D01*
X14064400Y-6417255D02*
X14054876Y-6398208D01*
X14054876Y-6398208D02*
X14035829Y-6369636D01*
X14035829Y-6369636D02*
X14026305Y-6360112D01*
X14388210Y-6664874D02*
X14378686Y-6655350D01*
X14378686Y-6655350D02*
X14359638Y-6626779D01*
X14359638Y-6626779D02*
X14350114Y-6607731D01*
X14350114Y-6607731D02*
X14340591Y-6579160D01*
X14340591Y-6579160D02*
X14331067Y-6531541D01*
X14331067Y-6531541D02*
X14331067Y-6493446D01*
X14331067Y-6493446D02*
X14340591Y-6445827D01*
X14340591Y-6445827D02*
X14350114Y-6417255D01*
X14350114Y-6417255D02*
X14359638Y-6398208D01*
X14359638Y-6398208D02*
X14378686Y-6369636D01*
X14378686Y-6369636D02*
X14388210Y-6360112D01*
X14464400Y-6455350D02*
X14464400Y-6588684D01*
X14464400Y-6474398D02*
X14473924Y-6464874D01*
X14473924Y-6464874D02*
X14492972Y-6455350D01*
X14492972Y-6455350D02*
X14521543Y-6455350D01*
X14521543Y-6455350D02*
X14540591Y-6464874D01*
X14540591Y-6464874D02*
X14550114Y-6483922D01*
X14550114Y-6483922D02*
X14550114Y-6588684D01*
X14673924Y-6588684D02*
X14654876Y-6579160D01*
X14654876Y-6579160D02*
X14645353Y-6569636D01*
X14645353Y-6569636D02*
X14635829Y-6550588D01*
X14635829Y-6550588D02*
X14635829Y-6493446D01*
X14635829Y-6493446D02*
X14645353Y-6474398D01*
X14645353Y-6474398D02*
X14654876Y-6464874D01*
X14654876Y-6464874D02*
X14673924Y-6455350D01*
X14673924Y-6455350D02*
X14702495Y-6455350D01*
X14702495Y-6455350D02*
X14721543Y-6464874D01*
X14721543Y-6464874D02*
X14731067Y-6474398D01*
X14731067Y-6474398D02*
X14740591Y-6493446D01*
X14740591Y-6493446D02*
X14740591Y-6550588D01*
X14740591Y-6550588D02*
X14731067Y-6569636D01*
X14731067Y-6569636D02*
X14721543Y-6579160D01*
X14721543Y-6579160D02*
X14702495Y-6588684D01*
X14702495Y-6588684D02*
X14673924Y-6588684D01*
X14797734Y-6455350D02*
X14873924Y-6455350D01*
X14826305Y-6388684D02*
X14826305Y-6560112D01*
X14826305Y-6560112D02*
X14835829Y-6579160D01*
X14835829Y-6579160D02*
X14854876Y-6588684D01*
X14854876Y-6588684D02*
X14873924Y-6588684D01*
X15092972Y-6455350D02*
X15092972Y-6655350D01*
X15092972Y-6464874D02*
X15112019Y-6455350D01*
X15112019Y-6455350D02*
X15150115Y-6455350D01*
X15150115Y-6455350D02*
X15169162Y-6464874D01*
X15169162Y-6464874D02*
X15178686Y-6474398D01*
X15178686Y-6474398D02*
X15188210Y-6493446D01*
X15188210Y-6493446D02*
X15188210Y-6550588D01*
X15188210Y-6550588D02*
X15178686Y-6569636D01*
X15178686Y-6569636D02*
X15169162Y-6579160D01*
X15169162Y-6579160D02*
X15150115Y-6588684D01*
X15150115Y-6588684D02*
X15112019Y-6588684D01*
X15112019Y-6588684D02*
X15092972Y-6579160D01*
X15302495Y-6588684D02*
X15283448Y-6579160D01*
X15283448Y-6579160D02*
X15273924Y-6560112D01*
X15273924Y-6560112D02*
X15273924Y-6388684D01*
X15464400Y-6588684D02*
X15464400Y-6483922D01*
X15464400Y-6483922D02*
X15454876Y-6464874D01*
X15454876Y-6464874D02*
X15435829Y-6455350D01*
X15435829Y-6455350D02*
X15397734Y-6455350D01*
X15397734Y-6455350D02*
X15378686Y-6464874D01*
X15464400Y-6579160D02*
X15445353Y-6588684D01*
X15445353Y-6588684D02*
X15397734Y-6588684D01*
X15397734Y-6588684D02*
X15378686Y-6579160D01*
X15378686Y-6579160D02*
X15369162Y-6560112D01*
X15369162Y-6560112D02*
X15369162Y-6541065D01*
X15369162Y-6541065D02*
X15378686Y-6522017D01*
X15378686Y-6522017D02*
X15397734Y-6512493D01*
X15397734Y-6512493D02*
X15445353Y-6512493D01*
X15445353Y-6512493D02*
X15464400Y-6502969D01*
X15531067Y-6455350D02*
X15607257Y-6455350D01*
X15559638Y-6388684D02*
X15559638Y-6560112D01*
X15559638Y-6560112D02*
X15569162Y-6579160D01*
X15569162Y-6579160D02*
X15588210Y-6588684D01*
X15588210Y-6588684D02*
X15607257Y-6588684D01*
X15750115Y-6579160D02*
X15731067Y-6588684D01*
X15731067Y-6588684D02*
X15692972Y-6588684D01*
X15692972Y-6588684D02*
X15673924Y-6579160D01*
X15673924Y-6579160D02*
X15664400Y-6560112D01*
X15664400Y-6560112D02*
X15664400Y-6483922D01*
X15664400Y-6483922D02*
X15673924Y-6464874D01*
X15673924Y-6464874D02*
X15692972Y-6455350D01*
X15692972Y-6455350D02*
X15731067Y-6455350D01*
X15731067Y-6455350D02*
X15750115Y-6464874D01*
X15750115Y-6464874D02*
X15759638Y-6483922D01*
X15759638Y-6483922D02*
X15759638Y-6502969D01*
X15759638Y-6502969D02*
X15664400Y-6522017D01*
X15931067Y-6588684D02*
X15931067Y-6388684D01*
X15931067Y-6579160D02*
X15912019Y-6588684D01*
X15912019Y-6588684D02*
X15873924Y-6588684D01*
X15873924Y-6588684D02*
X15854876Y-6579160D01*
X15854876Y-6579160D02*
X15845353Y-6569636D01*
X15845353Y-6569636D02*
X15835829Y-6550588D01*
X15835829Y-6550588D02*
X15835829Y-6493446D01*
X15835829Y-6493446D02*
X15845353Y-6474398D01*
X15845353Y-6474398D02*
X15854876Y-6464874D01*
X15854876Y-6464874D02*
X15873924Y-6455350D01*
X15873924Y-6455350D02*
X15912019Y-6455350D01*
X15912019Y-6455350D02*
X15931067Y-6464874D01*
X16007257Y-6664874D02*
X16016781Y-6655350D01*
X16016781Y-6655350D02*
X16035829Y-6626779D01*
X16035829Y-6626779D02*
X16045353Y-6607731D01*
X16045353Y-6607731D02*
X16054876Y-6579160D01*
X16054876Y-6579160D02*
X16064400Y-6531541D01*
X16064400Y-6531541D02*
X16064400Y-6493446D01*
X16064400Y-6493446D02*
X16054876Y-6445827D01*
X16054876Y-6445827D02*
X16045353Y-6417255D01*
X16045353Y-6417255D02*
X16035829Y-6398208D01*
X16035829Y-6398208D02*
X16016781Y-6369636D01*
X16016781Y-6369636D02*
X16007257Y-6360112D01*
M02*
