%TF.GenerationSoftware,KiCad,Pcbnew,8.0.6*%
%TF.CreationDate,2024-10-21T18:23:27+02:00*%
%TF.ProjectId,AnalogI2SMic,416e616c-6f67-4493-9253-4d69632e6b69,rev?*%
%TF.SameCoordinates,Original*%
%TF.FileFunction,Paste,Top*%
%TF.FilePolarity,Positive*%
%FSLAX46Y46*%
G04 Gerber Fmt 4.6, Leading zero omitted, Abs format (unit mm)*
G04 Created by KiCad (PCBNEW 8.0.6) date 2024-10-21 18:23:27*
%MOMM*%
%LPD*%
G01*
G04 APERTURE LIST*
G04 Aperture macros list*
%AMRoundRect*
0 Rectangle with rounded corners*
0 $1 Rounding radius*
0 $2 $3 $4 $5 $6 $7 $8 $9 X,Y pos of 4 corners*
0 Add a 4 corners polygon primitive as box body*
4,1,4,$2,$3,$4,$5,$6,$7,$8,$9,$2,$3,0*
0 Add four circle primitives for the rounded corners*
1,1,$1+$1,$2,$3*
1,1,$1+$1,$4,$5*
1,1,$1+$1,$6,$7*
1,1,$1+$1,$8,$9*
0 Add four rect primitives between the rounded corners*
20,1,$1+$1,$2,$3,$4,$5,0*
20,1,$1+$1,$4,$5,$6,$7,0*
20,1,$1+$1,$6,$7,$8,$9,0*
20,1,$1+$1,$8,$9,$2,$3,0*%
%AMFreePoly0*
4,1,25,0.266375,0.443630,0.297109,0.420047,0.420047,0.297109,0.458455,0.230584,0.463512,0.192176,0.463512,-0.192176,0.443630,-0.266375,0.420047,-0.297109,0.297109,-0.420047,0.230584,-0.458455,0.192176,-0.463512,-0.192176,-0.463512,-0.266375,-0.443630,-0.297109,-0.420047,-0.420047,-0.297109,-0.458455,-0.230584,-0.463512,-0.192176,-0.463512,0.192176,-0.443630,0.266375,-0.420047,0.297109,
-0.297109,0.420047,-0.230584,0.458455,-0.192176,0.463512,0.192176,0.463512,0.266375,0.443630,0.266375,0.443630,$1*%
G04 Aperture macros list end*
%ADD10RoundRect,0.140000X-0.170000X0.140000X-0.170000X-0.140000X0.170000X-0.140000X0.170000X0.140000X0*%
%ADD11RoundRect,0.135000X-0.185000X0.135000X-0.185000X-0.135000X0.185000X-0.135000X0.185000X0.135000X0*%
%ADD12RoundRect,0.135000X0.185000X-0.135000X0.185000X0.135000X-0.185000X0.135000X-0.185000X-0.135000X0*%
%ADD13RoundRect,0.140000X0.170000X-0.140000X0.170000X0.140000X-0.170000X0.140000X-0.170000X-0.140000X0*%
%ADD14RoundRect,0.140000X0.140000X0.170000X-0.140000X0.170000X-0.140000X-0.170000X0.140000X-0.170000X0*%
%ADD15RoundRect,0.135000X0.135000X0.185000X-0.135000X0.185000X-0.135000X-0.185000X0.135000X-0.185000X0*%
%ADD16RoundRect,0.250000X0.787500X1.025000X-0.787500X1.025000X-0.787500X-1.025000X0.787500X-1.025000X0*%
%ADD17RoundRect,0.250000X1.025000X-0.787500X1.025000X0.787500X-1.025000X0.787500X-1.025000X-0.787500X0*%
%ADD18RoundRect,0.218750X-0.256250X0.218750X-0.256250X-0.218750X0.256250X-0.218750X0.256250X0.218750X0*%
%ADD19FreePoly0,0.000000*%
%ADD20RoundRect,0.062500X-0.375000X-0.062500X0.375000X-0.062500X0.375000X0.062500X-0.375000X0.062500X0*%
%ADD21RoundRect,0.062500X-0.062500X-0.375000X0.062500X-0.375000X0.062500X0.375000X-0.062500X0.375000X0*%
G04 APERTURE END LIST*
D10*
%TO.C,C2*%
X110020000Y-43330000D03*
X110020000Y-44290000D03*
%TD*%
D11*
%TO.C,R7*%
X113360200Y-33524000D03*
X113360200Y-34544000D03*
%TD*%
D12*
%TO.C,R13*%
X109601000Y-36451000D03*
X109601000Y-35431000D03*
%TD*%
D13*
%TO.C,C1*%
X99949000Y-39342000D03*
X99949000Y-38382000D03*
%TD*%
D11*
%TO.C,R9*%
X114757200Y-33526000D03*
X114757200Y-34546000D03*
%TD*%
%TO.C,R2*%
X112903000Y-30732000D03*
X112903000Y-31752000D03*
%TD*%
D14*
%TO.C,C13*%
X97762000Y-35763200D03*
X96802000Y-35763200D03*
%TD*%
%TO.C,C4*%
X108960000Y-43360000D03*
X108000000Y-43360000D03*
%TD*%
D10*
%TO.C,C5*%
X106130000Y-35600000D03*
X106130000Y-36560000D03*
%TD*%
D15*
%TO.C,R11*%
X96826800Y-39014400D03*
X95806800Y-39014400D03*
%TD*%
D16*
%TO.C,C15*%
X102680500Y-42875200D03*
X96455500Y-42875200D03*
%TD*%
D11*
%TO.C,R10*%
X114757200Y-35433000D03*
X114757200Y-36453000D03*
%TD*%
D10*
%TO.C,C8*%
X104740000Y-35550000D03*
X104740000Y-36510000D03*
%TD*%
D13*
%TO.C,C11*%
X106960000Y-44150000D03*
X106960000Y-43190000D03*
%TD*%
D11*
%TO.C,R3*%
X104521000Y-40638000D03*
X104521000Y-41658000D03*
%TD*%
%TO.C,R6*%
X113919000Y-30732000D03*
X113919000Y-31752000D03*
%TD*%
D14*
%TO.C,C10*%
X108938000Y-45415200D03*
X107978000Y-45415200D03*
%TD*%
D11*
%TO.C,R8*%
X113360200Y-35433000D03*
X113360200Y-36453000D03*
%TD*%
D14*
%TO.C,C9*%
X97762000Y-36769200D03*
X96802000Y-36769200D03*
%TD*%
D12*
%TO.C,R5*%
X112520000Y-41650000D03*
X112520000Y-40630000D03*
%TD*%
D11*
%TO.C,R4*%
X111504000Y-40630000D03*
X111504000Y-41650000D03*
%TD*%
%TO.C,R1*%
X98933000Y-38352000D03*
X98933000Y-39372000D03*
%TD*%
%TO.C,R12*%
X110617000Y-35431000D03*
X110617000Y-36451000D03*
%TD*%
D14*
%TO.C,C7*%
X108940000Y-44390000D03*
X107980000Y-44390000D03*
%TD*%
D17*
%TO.C,C14*%
X93472000Y-37046900D03*
X93472000Y-30821900D03*
%TD*%
D13*
%TO.C,C3*%
X105900000Y-44150000D03*
X105900000Y-43190000D03*
%TD*%
D18*
%TO.C,FB1*%
X94386400Y-39242900D03*
X94386400Y-40817900D03*
%TD*%
D10*
%TO.C,C12*%
X98940000Y-36360000D03*
X98940000Y-37320000D03*
%TD*%
D19*
%TO.C,U1*%
X107228500Y-39144000D03*
X107228500Y-40144000D03*
X108228500Y-39144000D03*
X108228500Y-40144000D03*
D20*
X105791000Y-38394000D03*
X105791000Y-38894000D03*
X105791000Y-39394000D03*
X105791000Y-39894000D03*
X105791000Y-40394000D03*
X105791000Y-40894000D03*
D21*
X106478500Y-41581500D03*
X106978500Y-41581500D03*
X107478500Y-41581500D03*
X107978500Y-41581500D03*
X108478500Y-41581500D03*
X108978500Y-41581500D03*
D20*
X109666000Y-40894000D03*
X109666000Y-40394000D03*
X109666000Y-39894000D03*
X109666000Y-39394000D03*
X109666000Y-38894000D03*
X109666000Y-38394000D03*
D21*
X108978500Y-37706500D03*
X108478500Y-37706500D03*
X107978500Y-37706500D03*
X107478500Y-37706500D03*
X106978500Y-37706500D03*
X106478500Y-37706500D03*
%TD*%
D10*
%TO.C,C6*%
X99949000Y-36350000D03*
X99949000Y-37310000D03*
%TD*%
M02*
