%TF.GenerationSoftware,KiCad,Pcbnew,8.0.6*%
%TF.CreationDate,2024-10-21T18:23:27+02:00*%
%TF.ProjectId,AnalogI2SMic,416e616c-6f67-4493-9253-4d69632e6b69,rev?*%
%TF.SameCoordinates,Original*%
%TF.FileFunction,Legend,Top*%
%TF.FilePolarity,Positive*%
%FSLAX46Y46*%
G04 Gerber Fmt 4.6, Leading zero omitted, Abs format (unit mm)*
G04 Created by KiCad (PCBNEW 8.0.6) date 2024-10-21 18:23:27*
%MOMM*%
%LPD*%
G01*
G04 APERTURE LIST*
G04 Aperture macros list*
%AMRoundRect*
0 Rectangle with rounded corners*
0 $1 Rounding radius*
0 $2 $3 $4 $5 $6 $7 $8 $9 X,Y pos of 4 corners*
0 Add a 4 corners polygon primitive as box body*
4,1,4,$2,$3,$4,$5,$6,$7,$8,$9,$2,$3,0*
0 Add four circle primitives for the rounded corners*
1,1,$1+$1,$2,$3*
1,1,$1+$1,$4,$5*
1,1,$1+$1,$6,$7*
1,1,$1+$1,$8,$9*
0 Add four rect primitives between the rounded corners*
20,1,$1+$1,$2,$3,$4,$5,0*
20,1,$1+$1,$4,$5,$6,$7,0*
20,1,$1+$1,$6,$7,$8,$9,0*
20,1,$1+$1,$8,$9,$2,$3,0*%
G04 Aperture macros list end*
%ADD10C,0.150000*%
%ADD11C,0.120000*%
%ADD12C,0.100000*%
%ADD13C,0.130000*%
%ADD14C,0.160000*%
%ADD15RoundRect,0.140000X-0.170000X0.140000X-0.170000X-0.140000X0.170000X-0.140000X0.170000X0.140000X0*%
%ADD16RoundRect,0.135000X-0.185000X0.135000X-0.185000X-0.135000X0.185000X-0.135000X0.185000X0.135000X0*%
%ADD17RoundRect,0.135000X0.185000X-0.135000X0.185000X0.135000X-0.185000X0.135000X-0.185000X-0.135000X0*%
%ADD18RoundRect,0.140000X0.170000X-0.140000X0.170000X0.140000X-0.170000X0.140000X-0.170000X-0.140000X0*%
%ADD19C,0.500000*%
%ADD20RoundRect,0.140000X0.140000X0.170000X-0.140000X0.170000X-0.140000X-0.170000X0.140000X-0.170000X0*%
%ADD21RoundRect,0.135000X0.135000X0.185000X-0.135000X0.185000X-0.135000X-0.185000X0.135000X-0.185000X0*%
%ADD22RoundRect,0.250000X0.787500X1.025000X-0.787500X1.025000X-0.787500X-1.025000X0.787500X-1.025000X0*%
%ADD23O,1.200000X2.200000*%
%ADD24O,2.200000X1.200000*%
%ADD25R,1.500000X1.500000*%
%ADD26C,1.500000*%
%ADD27R,1.500000X1.000000*%
%ADD28RoundRect,0.250000X1.025000X-0.787500X1.025000X0.787500X-1.025000X0.787500X-1.025000X-0.787500X0*%
%ADD29RoundRect,0.218750X-0.256250X0.218750X-0.256250X-0.218750X0.256250X-0.218750X0.256250X0.218750X0*%
%ADD30RoundRect,0.062500X-0.375000X-0.062500X0.375000X-0.062500X0.375000X0.062500X-0.375000X0.062500X0*%
%ADD31RoundRect,0.062500X-0.062500X-0.375000X0.062500X-0.375000X0.062500X0.375000X-0.062500X0.375000X0*%
%ADD32R,2.500000X2.500000*%
%ADD33R,1.700000X1.700000*%
%ADD34O,1.700000X1.700000*%
G04 APERTURE END LIST*
D10*
X110369704Y-46920132D02*
X110407800Y-46958228D01*
X110407800Y-46958228D02*
X110445895Y-47072513D01*
X110445895Y-47072513D02*
X110445895Y-47148704D01*
X110445895Y-47148704D02*
X110407800Y-47262990D01*
X110407800Y-47262990D02*
X110331609Y-47339180D01*
X110331609Y-47339180D02*
X110255419Y-47377275D01*
X110255419Y-47377275D02*
X110103038Y-47415371D01*
X110103038Y-47415371D02*
X109988752Y-47415371D01*
X109988752Y-47415371D02*
X109836371Y-47377275D01*
X109836371Y-47377275D02*
X109760180Y-47339180D01*
X109760180Y-47339180D02*
X109683990Y-47262990D01*
X109683990Y-47262990D02*
X109645895Y-47148704D01*
X109645895Y-47148704D02*
X109645895Y-47072513D01*
X109645895Y-47072513D02*
X109683990Y-46958228D01*
X109683990Y-46958228D02*
X109722085Y-46920132D01*
X109722085Y-46615371D02*
X109683990Y-46577275D01*
X109683990Y-46577275D02*
X109645895Y-46501085D01*
X109645895Y-46501085D02*
X109645895Y-46310609D01*
X109645895Y-46310609D02*
X109683990Y-46234418D01*
X109683990Y-46234418D02*
X109722085Y-46196323D01*
X109722085Y-46196323D02*
X109798276Y-46158228D01*
X109798276Y-46158228D02*
X109874466Y-46158228D01*
X109874466Y-46158228D02*
X109988752Y-46196323D01*
X109988752Y-46196323D02*
X110445895Y-46653466D01*
X110445895Y-46653466D02*
X110445895Y-46158228D01*
X111817495Y-34880532D02*
X111436542Y-35147199D01*
X111817495Y-35337675D02*
X111017495Y-35337675D01*
X111017495Y-35337675D02*
X111017495Y-35032913D01*
X111017495Y-35032913D02*
X111055590Y-34956723D01*
X111055590Y-34956723D02*
X111093685Y-34918628D01*
X111093685Y-34918628D02*
X111169876Y-34880532D01*
X111169876Y-34880532D02*
X111284161Y-34880532D01*
X111284161Y-34880532D02*
X111360352Y-34918628D01*
X111360352Y-34918628D02*
X111398447Y-34956723D01*
X111398447Y-34956723D02*
X111436542Y-35032913D01*
X111436542Y-35032913D02*
X111436542Y-35337675D01*
X111017495Y-34613866D02*
X111017495Y-34080532D01*
X111017495Y-34080532D02*
X111817495Y-34423390D01*
X107448695Y-36328285D02*
X107067742Y-36594952D01*
X107448695Y-36785428D02*
X106648695Y-36785428D01*
X106648695Y-36785428D02*
X106648695Y-36480666D01*
X106648695Y-36480666D02*
X106686790Y-36404476D01*
X106686790Y-36404476D02*
X106724885Y-36366381D01*
X106724885Y-36366381D02*
X106801076Y-36328285D01*
X106801076Y-36328285D02*
X106915361Y-36328285D01*
X106915361Y-36328285D02*
X106991552Y-36366381D01*
X106991552Y-36366381D02*
X107029647Y-36404476D01*
X107029647Y-36404476D02*
X107067742Y-36480666D01*
X107067742Y-36480666D02*
X107067742Y-36785428D01*
X107448695Y-35566381D02*
X107448695Y-36023524D01*
X107448695Y-35794952D02*
X106648695Y-35794952D01*
X106648695Y-35794952D02*
X106762980Y-35871143D01*
X106762980Y-35871143D02*
X106839171Y-35947333D01*
X106839171Y-35947333D02*
X106877266Y-36023524D01*
X106648695Y-35299714D02*
X106648695Y-34804476D01*
X106648695Y-34804476D02*
X106953457Y-35071142D01*
X106953457Y-35071142D02*
X106953457Y-34956857D01*
X106953457Y-34956857D02*
X106991552Y-34880666D01*
X106991552Y-34880666D02*
X107029647Y-34842571D01*
X107029647Y-34842571D02*
X107105838Y-34804476D01*
X107105838Y-34804476D02*
X107296314Y-34804476D01*
X107296314Y-34804476D02*
X107372504Y-34842571D01*
X107372504Y-34842571D02*
X107410600Y-34880666D01*
X107410600Y-34880666D02*
X107448695Y-34956857D01*
X107448695Y-34956857D02*
X107448695Y-35185428D01*
X107448695Y-35185428D02*
X107410600Y-35261619D01*
X107410600Y-35261619D02*
X107372504Y-35299714D01*
X101546104Y-39063332D02*
X101584200Y-39101428D01*
X101584200Y-39101428D02*
X101622295Y-39215713D01*
X101622295Y-39215713D02*
X101622295Y-39291904D01*
X101622295Y-39291904D02*
X101584200Y-39406190D01*
X101584200Y-39406190D02*
X101508009Y-39482380D01*
X101508009Y-39482380D02*
X101431819Y-39520475D01*
X101431819Y-39520475D02*
X101279438Y-39558571D01*
X101279438Y-39558571D02*
X101165152Y-39558571D01*
X101165152Y-39558571D02*
X101012771Y-39520475D01*
X101012771Y-39520475D02*
X100936580Y-39482380D01*
X100936580Y-39482380D02*
X100860390Y-39406190D01*
X100860390Y-39406190D02*
X100822295Y-39291904D01*
X100822295Y-39291904D02*
X100822295Y-39215713D01*
X100822295Y-39215713D02*
X100860390Y-39101428D01*
X100860390Y-39101428D02*
X100898485Y-39063332D01*
X101622295Y-38301428D02*
X101622295Y-38758571D01*
X101622295Y-38529999D02*
X100822295Y-38529999D01*
X100822295Y-38529999D02*
X100936580Y-38606190D01*
X100936580Y-38606190D02*
X101012771Y-38682380D01*
X101012771Y-38682380D02*
X101050866Y-38758571D01*
X110500476Y-42242295D02*
X110957619Y-42242295D01*
X110729047Y-43042295D02*
X110729047Y-42242295D01*
X111224286Y-43042295D02*
X111224286Y-42242295D01*
X111224286Y-42242295D02*
X111529048Y-42242295D01*
X111529048Y-42242295D02*
X111605238Y-42280390D01*
X111605238Y-42280390D02*
X111643333Y-42318485D01*
X111643333Y-42318485D02*
X111681429Y-42394676D01*
X111681429Y-42394676D02*
X111681429Y-42508961D01*
X111681429Y-42508961D02*
X111643333Y-42585152D01*
X111643333Y-42585152D02*
X111605238Y-42623247D01*
X111605238Y-42623247D02*
X111529048Y-42661342D01*
X111529048Y-42661342D02*
X111224286Y-42661342D01*
X111948095Y-42242295D02*
X112443333Y-42242295D01*
X112443333Y-42242295D02*
X112176667Y-42547057D01*
X112176667Y-42547057D02*
X112290952Y-42547057D01*
X112290952Y-42547057D02*
X112367143Y-42585152D01*
X112367143Y-42585152D02*
X112405238Y-42623247D01*
X112405238Y-42623247D02*
X112443333Y-42699438D01*
X112443333Y-42699438D02*
X112443333Y-42889914D01*
X112443333Y-42889914D02*
X112405238Y-42966104D01*
X112405238Y-42966104D02*
X112367143Y-43004200D01*
X112367143Y-43004200D02*
X112290952Y-43042295D01*
X112290952Y-43042295D02*
X112062381Y-43042295D01*
X112062381Y-43042295D02*
X111986190Y-43004200D01*
X111986190Y-43004200D02*
X111948095Y-42966104D01*
X112884295Y-34931332D02*
X112503342Y-35197999D01*
X112884295Y-35388475D02*
X112084295Y-35388475D01*
X112084295Y-35388475D02*
X112084295Y-35083713D01*
X112084295Y-35083713D02*
X112122390Y-35007523D01*
X112122390Y-35007523D02*
X112160485Y-34969428D01*
X112160485Y-34969428D02*
X112236676Y-34931332D01*
X112236676Y-34931332D02*
X112350961Y-34931332D01*
X112350961Y-34931332D02*
X112427152Y-34969428D01*
X112427152Y-34969428D02*
X112465247Y-35007523D01*
X112465247Y-35007523D02*
X112503342Y-35083713D01*
X112503342Y-35083713D02*
X112503342Y-35388475D01*
X112884295Y-34550380D02*
X112884295Y-34397999D01*
X112884295Y-34397999D02*
X112846200Y-34321809D01*
X112846200Y-34321809D02*
X112808104Y-34283713D01*
X112808104Y-34283713D02*
X112693819Y-34207523D01*
X112693819Y-34207523D02*
X112541438Y-34169428D01*
X112541438Y-34169428D02*
X112236676Y-34169428D01*
X112236676Y-34169428D02*
X112160485Y-34207523D01*
X112160485Y-34207523D02*
X112122390Y-34245618D01*
X112122390Y-34245618D02*
X112084295Y-34321809D01*
X112084295Y-34321809D02*
X112084295Y-34474190D01*
X112084295Y-34474190D02*
X112122390Y-34550380D01*
X112122390Y-34550380D02*
X112160485Y-34588475D01*
X112160485Y-34588475D02*
X112236676Y-34626571D01*
X112236676Y-34626571D02*
X112427152Y-34626571D01*
X112427152Y-34626571D02*
X112503342Y-34588475D01*
X112503342Y-34588475D02*
X112541438Y-34550380D01*
X112541438Y-34550380D02*
X112579533Y-34474190D01*
X112579533Y-34474190D02*
X112579533Y-34321809D01*
X112579533Y-34321809D02*
X112541438Y-34245618D01*
X112541438Y-34245618D02*
X112503342Y-34207523D01*
X112503342Y-34207523D02*
X112427152Y-34169428D01*
X113036695Y-29749732D02*
X112655742Y-30016399D01*
X113036695Y-30206875D02*
X112236695Y-30206875D01*
X112236695Y-30206875D02*
X112236695Y-29902113D01*
X112236695Y-29902113D02*
X112274790Y-29825923D01*
X112274790Y-29825923D02*
X112312885Y-29787828D01*
X112312885Y-29787828D02*
X112389076Y-29749732D01*
X112389076Y-29749732D02*
X112503361Y-29749732D01*
X112503361Y-29749732D02*
X112579552Y-29787828D01*
X112579552Y-29787828D02*
X112617647Y-29825923D01*
X112617647Y-29825923D02*
X112655742Y-29902113D01*
X112655742Y-29902113D02*
X112655742Y-30206875D01*
X112312885Y-29444971D02*
X112274790Y-29406875D01*
X112274790Y-29406875D02*
X112236695Y-29330685D01*
X112236695Y-29330685D02*
X112236695Y-29140209D01*
X112236695Y-29140209D02*
X112274790Y-29064018D01*
X112274790Y-29064018D02*
X112312885Y-29025923D01*
X112312885Y-29025923D02*
X112389076Y-28987828D01*
X112389076Y-28987828D02*
X112465266Y-28987828D01*
X112465266Y-28987828D02*
X112579552Y-29025923D01*
X112579552Y-29025923D02*
X113036695Y-29483066D01*
X113036695Y-29483066D02*
X113036695Y-28987828D01*
X96462914Y-35086504D02*
X96424818Y-35124600D01*
X96424818Y-35124600D02*
X96310533Y-35162695D01*
X96310533Y-35162695D02*
X96234342Y-35162695D01*
X96234342Y-35162695D02*
X96120056Y-35124600D01*
X96120056Y-35124600D02*
X96043866Y-35048409D01*
X96043866Y-35048409D02*
X96005771Y-34972219D01*
X96005771Y-34972219D02*
X95967675Y-34819838D01*
X95967675Y-34819838D02*
X95967675Y-34705552D01*
X95967675Y-34705552D02*
X96005771Y-34553171D01*
X96005771Y-34553171D02*
X96043866Y-34476980D01*
X96043866Y-34476980D02*
X96120056Y-34400790D01*
X96120056Y-34400790D02*
X96234342Y-34362695D01*
X96234342Y-34362695D02*
X96310533Y-34362695D01*
X96310533Y-34362695D02*
X96424818Y-34400790D01*
X96424818Y-34400790D02*
X96462914Y-34438885D01*
X97224818Y-35162695D02*
X96767675Y-35162695D01*
X96996247Y-35162695D02*
X96996247Y-34362695D01*
X96996247Y-34362695D02*
X96920056Y-34476980D01*
X96920056Y-34476980D02*
X96843866Y-34553171D01*
X96843866Y-34553171D02*
X96767675Y-34591266D01*
X97491485Y-34362695D02*
X97986723Y-34362695D01*
X97986723Y-34362695D02*
X97720057Y-34667457D01*
X97720057Y-34667457D02*
X97834342Y-34667457D01*
X97834342Y-34667457D02*
X97910533Y-34705552D01*
X97910533Y-34705552D02*
X97948628Y-34743647D01*
X97948628Y-34743647D02*
X97986723Y-34819838D01*
X97986723Y-34819838D02*
X97986723Y-35010314D01*
X97986723Y-35010314D02*
X97948628Y-35086504D01*
X97948628Y-35086504D02*
X97910533Y-35124600D01*
X97910533Y-35124600D02*
X97834342Y-35162695D01*
X97834342Y-35162695D02*
X97605771Y-35162695D01*
X97605771Y-35162695D02*
X97529580Y-35124600D01*
X97529580Y-35124600D02*
X97491485Y-35086504D01*
X104362695Y-44799123D02*
X104362695Y-44341980D01*
X105162695Y-44570552D02*
X104362695Y-44570552D01*
X105162695Y-44075313D02*
X104362695Y-44075313D01*
X104362695Y-44075313D02*
X104362695Y-43770551D01*
X104362695Y-43770551D02*
X104400790Y-43694361D01*
X104400790Y-43694361D02*
X104438885Y-43656266D01*
X104438885Y-43656266D02*
X104515076Y-43618170D01*
X104515076Y-43618170D02*
X104629361Y-43618170D01*
X104629361Y-43618170D02*
X104705552Y-43656266D01*
X104705552Y-43656266D02*
X104743647Y-43694361D01*
X104743647Y-43694361D02*
X104781742Y-43770551D01*
X104781742Y-43770551D02*
X104781742Y-44075313D01*
X105162695Y-42856266D02*
X105162695Y-43313409D01*
X105162695Y-43084837D02*
X104362695Y-43084837D01*
X104362695Y-43084837D02*
X104476980Y-43161028D01*
X104476980Y-43161028D02*
X104553171Y-43237218D01*
X104553171Y-43237218D02*
X104591266Y-43313409D01*
X108070667Y-46717304D02*
X108032571Y-46755400D01*
X108032571Y-46755400D02*
X107918286Y-46793495D01*
X107918286Y-46793495D02*
X107842095Y-46793495D01*
X107842095Y-46793495D02*
X107727809Y-46755400D01*
X107727809Y-46755400D02*
X107651619Y-46679209D01*
X107651619Y-46679209D02*
X107613524Y-46603019D01*
X107613524Y-46603019D02*
X107575428Y-46450638D01*
X107575428Y-46450638D02*
X107575428Y-46336352D01*
X107575428Y-46336352D02*
X107613524Y-46183971D01*
X107613524Y-46183971D02*
X107651619Y-46107780D01*
X107651619Y-46107780D02*
X107727809Y-46031590D01*
X107727809Y-46031590D02*
X107842095Y-45993495D01*
X107842095Y-45993495D02*
X107918286Y-45993495D01*
X107918286Y-45993495D02*
X108032571Y-46031590D01*
X108032571Y-46031590D02*
X108070667Y-46069685D01*
X108756381Y-46260161D02*
X108756381Y-46793495D01*
X108565905Y-45955400D02*
X108375428Y-46526828D01*
X108375428Y-46526828D02*
X108870667Y-46526828D01*
X104086104Y-36213332D02*
X104124200Y-36251428D01*
X104124200Y-36251428D02*
X104162295Y-36365713D01*
X104162295Y-36365713D02*
X104162295Y-36441904D01*
X104162295Y-36441904D02*
X104124200Y-36556190D01*
X104124200Y-36556190D02*
X104048009Y-36632380D01*
X104048009Y-36632380D02*
X103971819Y-36670475D01*
X103971819Y-36670475D02*
X103819438Y-36708571D01*
X103819438Y-36708571D02*
X103705152Y-36708571D01*
X103705152Y-36708571D02*
X103552771Y-36670475D01*
X103552771Y-36670475D02*
X103476580Y-36632380D01*
X103476580Y-36632380D02*
X103400390Y-36556190D01*
X103400390Y-36556190D02*
X103362295Y-36441904D01*
X103362295Y-36441904D02*
X103362295Y-36365713D01*
X103362295Y-36365713D02*
X103400390Y-36251428D01*
X103400390Y-36251428D02*
X103438485Y-36213332D01*
X103362295Y-35489523D02*
X103362295Y-35870475D01*
X103362295Y-35870475D02*
X103743247Y-35908571D01*
X103743247Y-35908571D02*
X103705152Y-35870475D01*
X103705152Y-35870475D02*
X103667057Y-35794285D01*
X103667057Y-35794285D02*
X103667057Y-35603809D01*
X103667057Y-35603809D02*
X103705152Y-35527618D01*
X103705152Y-35527618D02*
X103743247Y-35489523D01*
X103743247Y-35489523D02*
X103819438Y-35451428D01*
X103819438Y-35451428D02*
X104009914Y-35451428D01*
X104009914Y-35451428D02*
X104086104Y-35489523D01*
X104086104Y-35489523D02*
X104124200Y-35527618D01*
X104124200Y-35527618D02*
X104162295Y-35603809D01*
X104162295Y-35603809D02*
X104162295Y-35794285D01*
X104162295Y-35794285D02*
X104124200Y-35870475D01*
X104124200Y-35870475D02*
X104086104Y-35908571D01*
X95904114Y-40392695D02*
X95637447Y-40011742D01*
X95446971Y-40392695D02*
X95446971Y-39592695D01*
X95446971Y-39592695D02*
X95751733Y-39592695D01*
X95751733Y-39592695D02*
X95827923Y-39630790D01*
X95827923Y-39630790D02*
X95866018Y-39668885D01*
X95866018Y-39668885D02*
X95904114Y-39745076D01*
X95904114Y-39745076D02*
X95904114Y-39859361D01*
X95904114Y-39859361D02*
X95866018Y-39935552D01*
X95866018Y-39935552D02*
X95827923Y-39973647D01*
X95827923Y-39973647D02*
X95751733Y-40011742D01*
X95751733Y-40011742D02*
X95446971Y-40011742D01*
X96666018Y-40392695D02*
X96208875Y-40392695D01*
X96437447Y-40392695D02*
X96437447Y-39592695D01*
X96437447Y-39592695D02*
X96361256Y-39706980D01*
X96361256Y-39706980D02*
X96285066Y-39783171D01*
X96285066Y-39783171D02*
X96208875Y-39821266D01*
X97427923Y-40392695D02*
X96970780Y-40392695D01*
X97199352Y-40392695D02*
X97199352Y-39592695D01*
X97199352Y-39592695D02*
X97123161Y-39706980D01*
X97123161Y-39706980D02*
X97046971Y-39783171D01*
X97046971Y-39783171D02*
X96970780Y-39821266D01*
X93516514Y-45040904D02*
X93478418Y-45079000D01*
X93478418Y-45079000D02*
X93364133Y-45117095D01*
X93364133Y-45117095D02*
X93287942Y-45117095D01*
X93287942Y-45117095D02*
X93173656Y-45079000D01*
X93173656Y-45079000D02*
X93097466Y-45002809D01*
X93097466Y-45002809D02*
X93059371Y-44926619D01*
X93059371Y-44926619D02*
X93021275Y-44774238D01*
X93021275Y-44774238D02*
X93021275Y-44659952D01*
X93021275Y-44659952D02*
X93059371Y-44507571D01*
X93059371Y-44507571D02*
X93097466Y-44431380D01*
X93097466Y-44431380D02*
X93173656Y-44355190D01*
X93173656Y-44355190D02*
X93287942Y-44317095D01*
X93287942Y-44317095D02*
X93364133Y-44317095D01*
X93364133Y-44317095D02*
X93478418Y-44355190D01*
X93478418Y-44355190D02*
X93516514Y-44393285D01*
X94278418Y-45117095D02*
X93821275Y-45117095D01*
X94049847Y-45117095D02*
X94049847Y-44317095D01*
X94049847Y-44317095D02*
X93973656Y-44431380D01*
X93973656Y-44431380D02*
X93897466Y-44507571D01*
X93897466Y-44507571D02*
X93821275Y-44545666D01*
X95002228Y-44317095D02*
X94621276Y-44317095D01*
X94621276Y-44317095D02*
X94583180Y-44698047D01*
X94583180Y-44698047D02*
X94621276Y-44659952D01*
X94621276Y-44659952D02*
X94697466Y-44621857D01*
X94697466Y-44621857D02*
X94887942Y-44621857D01*
X94887942Y-44621857D02*
X94964133Y-44659952D01*
X94964133Y-44659952D02*
X95002228Y-44698047D01*
X95002228Y-44698047D02*
X95040323Y-44774238D01*
X95040323Y-44774238D02*
X95040323Y-44964714D01*
X95040323Y-44964714D02*
X95002228Y-45040904D01*
X95002228Y-45040904D02*
X94964133Y-45079000D01*
X94964133Y-45079000D02*
X94887942Y-45117095D01*
X94887942Y-45117095D02*
X94697466Y-45117095D01*
X94697466Y-45117095D02*
X94621276Y-45079000D01*
X94621276Y-45079000D02*
X94583180Y-45040904D01*
X112935095Y-37801485D02*
X112554142Y-38068152D01*
X112935095Y-38258628D02*
X112135095Y-38258628D01*
X112135095Y-38258628D02*
X112135095Y-37953866D01*
X112135095Y-37953866D02*
X112173190Y-37877676D01*
X112173190Y-37877676D02*
X112211285Y-37839581D01*
X112211285Y-37839581D02*
X112287476Y-37801485D01*
X112287476Y-37801485D02*
X112401761Y-37801485D01*
X112401761Y-37801485D02*
X112477952Y-37839581D01*
X112477952Y-37839581D02*
X112516047Y-37877676D01*
X112516047Y-37877676D02*
X112554142Y-37953866D01*
X112554142Y-37953866D02*
X112554142Y-38258628D01*
X112935095Y-37039581D02*
X112935095Y-37496724D01*
X112935095Y-37268152D02*
X112135095Y-37268152D01*
X112135095Y-37268152D02*
X112249380Y-37344343D01*
X112249380Y-37344343D02*
X112325571Y-37420533D01*
X112325571Y-37420533D02*
X112363666Y-37496724D01*
X112135095Y-36544342D02*
X112135095Y-36468152D01*
X112135095Y-36468152D02*
X112173190Y-36391961D01*
X112173190Y-36391961D02*
X112211285Y-36353866D01*
X112211285Y-36353866D02*
X112287476Y-36315771D01*
X112287476Y-36315771D02*
X112439857Y-36277676D01*
X112439857Y-36277676D02*
X112630333Y-36277676D01*
X112630333Y-36277676D02*
X112782714Y-36315771D01*
X112782714Y-36315771D02*
X112858904Y-36353866D01*
X112858904Y-36353866D02*
X112897000Y-36391961D01*
X112897000Y-36391961D02*
X112935095Y-36468152D01*
X112935095Y-36468152D02*
X112935095Y-36544342D01*
X112935095Y-36544342D02*
X112897000Y-36620533D01*
X112897000Y-36620533D02*
X112858904Y-36658628D01*
X112858904Y-36658628D02*
X112782714Y-36696723D01*
X112782714Y-36696723D02*
X112630333Y-36734819D01*
X112630333Y-36734819D02*
X112439857Y-36734819D01*
X112439857Y-36734819D02*
X112287476Y-36696723D01*
X112287476Y-36696723D02*
X112211285Y-36658628D01*
X112211285Y-36658628D02*
X112173190Y-36620533D01*
X112173190Y-36620533D02*
X112135095Y-36544342D01*
X102916104Y-36183332D02*
X102954200Y-36221428D01*
X102954200Y-36221428D02*
X102992295Y-36335713D01*
X102992295Y-36335713D02*
X102992295Y-36411904D01*
X102992295Y-36411904D02*
X102954200Y-36526190D01*
X102954200Y-36526190D02*
X102878009Y-36602380D01*
X102878009Y-36602380D02*
X102801819Y-36640475D01*
X102801819Y-36640475D02*
X102649438Y-36678571D01*
X102649438Y-36678571D02*
X102535152Y-36678571D01*
X102535152Y-36678571D02*
X102382771Y-36640475D01*
X102382771Y-36640475D02*
X102306580Y-36602380D01*
X102306580Y-36602380D02*
X102230390Y-36526190D01*
X102230390Y-36526190D02*
X102192295Y-36411904D01*
X102192295Y-36411904D02*
X102192295Y-36335713D01*
X102192295Y-36335713D02*
X102230390Y-36221428D01*
X102230390Y-36221428D02*
X102268485Y-36183332D01*
X102535152Y-35726190D02*
X102497057Y-35802380D01*
X102497057Y-35802380D02*
X102458961Y-35840475D01*
X102458961Y-35840475D02*
X102382771Y-35878571D01*
X102382771Y-35878571D02*
X102344676Y-35878571D01*
X102344676Y-35878571D02*
X102268485Y-35840475D01*
X102268485Y-35840475D02*
X102230390Y-35802380D01*
X102230390Y-35802380D02*
X102192295Y-35726190D01*
X102192295Y-35726190D02*
X102192295Y-35573809D01*
X102192295Y-35573809D02*
X102230390Y-35497618D01*
X102230390Y-35497618D02*
X102268485Y-35459523D01*
X102268485Y-35459523D02*
X102344676Y-35421428D01*
X102344676Y-35421428D02*
X102382771Y-35421428D01*
X102382771Y-35421428D02*
X102458961Y-35459523D01*
X102458961Y-35459523D02*
X102497057Y-35497618D01*
X102497057Y-35497618D02*
X102535152Y-35573809D01*
X102535152Y-35573809D02*
X102535152Y-35726190D01*
X102535152Y-35726190D02*
X102573247Y-35802380D01*
X102573247Y-35802380D02*
X102611342Y-35840475D01*
X102611342Y-35840475D02*
X102687533Y-35878571D01*
X102687533Y-35878571D02*
X102839914Y-35878571D01*
X102839914Y-35878571D02*
X102916104Y-35840475D01*
X102916104Y-35840475D02*
X102954200Y-35802380D01*
X102954200Y-35802380D02*
X102992295Y-35726190D01*
X102992295Y-35726190D02*
X102992295Y-35573809D01*
X102992295Y-35573809D02*
X102954200Y-35497618D01*
X102954200Y-35497618D02*
X102916104Y-35459523D01*
X102916104Y-35459523D02*
X102839914Y-35421428D01*
X102839914Y-35421428D02*
X102687533Y-35421428D01*
X102687533Y-35421428D02*
X102611342Y-35459523D01*
X102611342Y-35459523D02*
X102573247Y-35497618D01*
X102573247Y-35497618D02*
X102535152Y-35573809D01*
X107220104Y-46234285D02*
X107258200Y-46272381D01*
X107258200Y-46272381D02*
X107296295Y-46386666D01*
X107296295Y-46386666D02*
X107296295Y-46462857D01*
X107296295Y-46462857D02*
X107258200Y-46577143D01*
X107258200Y-46577143D02*
X107182009Y-46653333D01*
X107182009Y-46653333D02*
X107105819Y-46691428D01*
X107105819Y-46691428D02*
X106953438Y-46729524D01*
X106953438Y-46729524D02*
X106839152Y-46729524D01*
X106839152Y-46729524D02*
X106686771Y-46691428D01*
X106686771Y-46691428D02*
X106610580Y-46653333D01*
X106610580Y-46653333D02*
X106534390Y-46577143D01*
X106534390Y-46577143D02*
X106496295Y-46462857D01*
X106496295Y-46462857D02*
X106496295Y-46386666D01*
X106496295Y-46386666D02*
X106534390Y-46272381D01*
X106534390Y-46272381D02*
X106572485Y-46234285D01*
X107296295Y-45472381D02*
X107296295Y-45929524D01*
X107296295Y-45700952D02*
X106496295Y-45700952D01*
X106496295Y-45700952D02*
X106610580Y-45777143D01*
X106610580Y-45777143D02*
X106686771Y-45853333D01*
X106686771Y-45853333D02*
X106724866Y-45929524D01*
X107296295Y-44710476D02*
X107296295Y-45167619D01*
X107296295Y-44939047D02*
X106496295Y-44939047D01*
X106496295Y-44939047D02*
X106610580Y-45015238D01*
X106610580Y-45015238D02*
X106686771Y-45091428D01*
X106686771Y-45091428D02*
X106724866Y-45167619D01*
X104908695Y-39655732D02*
X104527742Y-39922399D01*
X104908695Y-40112875D02*
X104108695Y-40112875D01*
X104108695Y-40112875D02*
X104108695Y-39808113D01*
X104108695Y-39808113D02*
X104146790Y-39731923D01*
X104146790Y-39731923D02*
X104184885Y-39693828D01*
X104184885Y-39693828D02*
X104261076Y-39655732D01*
X104261076Y-39655732D02*
X104375361Y-39655732D01*
X104375361Y-39655732D02*
X104451552Y-39693828D01*
X104451552Y-39693828D02*
X104489647Y-39731923D01*
X104489647Y-39731923D02*
X104527742Y-39808113D01*
X104527742Y-39808113D02*
X104527742Y-40112875D01*
X104108695Y-39389066D02*
X104108695Y-38893828D01*
X104108695Y-38893828D02*
X104413457Y-39160494D01*
X104413457Y-39160494D02*
X104413457Y-39046209D01*
X104413457Y-39046209D02*
X104451552Y-38970018D01*
X104451552Y-38970018D02*
X104489647Y-38931923D01*
X104489647Y-38931923D02*
X104565838Y-38893828D01*
X104565838Y-38893828D02*
X104756314Y-38893828D01*
X104756314Y-38893828D02*
X104832504Y-38931923D01*
X104832504Y-38931923D02*
X104870600Y-38970018D01*
X104870600Y-38970018D02*
X104908695Y-39046209D01*
X104908695Y-39046209D02*
X104908695Y-39274780D01*
X104908695Y-39274780D02*
X104870600Y-39350971D01*
X104870600Y-39350971D02*
X104832504Y-39389066D01*
X114357495Y-29749732D02*
X113976542Y-30016399D01*
X114357495Y-30206875D02*
X113557495Y-30206875D01*
X113557495Y-30206875D02*
X113557495Y-29902113D01*
X113557495Y-29902113D02*
X113595590Y-29825923D01*
X113595590Y-29825923D02*
X113633685Y-29787828D01*
X113633685Y-29787828D02*
X113709876Y-29749732D01*
X113709876Y-29749732D02*
X113824161Y-29749732D01*
X113824161Y-29749732D02*
X113900352Y-29787828D01*
X113900352Y-29787828D02*
X113938447Y-29825923D01*
X113938447Y-29825923D02*
X113976542Y-29902113D01*
X113976542Y-29902113D02*
X113976542Y-30206875D01*
X113557495Y-29064018D02*
X113557495Y-29216399D01*
X113557495Y-29216399D02*
X113595590Y-29292590D01*
X113595590Y-29292590D02*
X113633685Y-29330685D01*
X113633685Y-29330685D02*
X113747971Y-29406875D01*
X113747971Y-29406875D02*
X113900352Y-29444971D01*
X113900352Y-29444971D02*
X114205114Y-29444971D01*
X114205114Y-29444971D02*
X114281304Y-29406875D01*
X114281304Y-29406875D02*
X114319400Y-29368780D01*
X114319400Y-29368780D02*
X114357495Y-29292590D01*
X114357495Y-29292590D02*
X114357495Y-29140209D01*
X114357495Y-29140209D02*
X114319400Y-29064018D01*
X114319400Y-29064018D02*
X114281304Y-29025923D01*
X114281304Y-29025923D02*
X114205114Y-28987828D01*
X114205114Y-28987828D02*
X114014638Y-28987828D01*
X114014638Y-28987828D02*
X113938447Y-29025923D01*
X113938447Y-29025923D02*
X113900352Y-29064018D01*
X113900352Y-29064018D02*
X113862257Y-29140209D01*
X113862257Y-29140209D02*
X113862257Y-29292590D01*
X113862257Y-29292590D02*
X113900352Y-29368780D01*
X113900352Y-29368780D02*
X113938447Y-29406875D01*
X113938447Y-29406875D02*
X114014638Y-29444971D01*
X113180476Y-41872295D02*
X113637619Y-41872295D01*
X113409047Y-42672295D02*
X113409047Y-41872295D01*
X113904286Y-42672295D02*
X113904286Y-41872295D01*
X113904286Y-41872295D02*
X114209048Y-41872295D01*
X114209048Y-41872295D02*
X114285238Y-41910390D01*
X114285238Y-41910390D02*
X114323333Y-41948485D01*
X114323333Y-41948485D02*
X114361429Y-42024676D01*
X114361429Y-42024676D02*
X114361429Y-42138961D01*
X114361429Y-42138961D02*
X114323333Y-42215152D01*
X114323333Y-42215152D02*
X114285238Y-42253247D01*
X114285238Y-42253247D02*
X114209048Y-42291342D01*
X114209048Y-42291342D02*
X113904286Y-42291342D01*
X114666190Y-41948485D02*
X114704286Y-41910390D01*
X114704286Y-41910390D02*
X114780476Y-41872295D01*
X114780476Y-41872295D02*
X114970952Y-41872295D01*
X114970952Y-41872295D02*
X115047143Y-41910390D01*
X115047143Y-41910390D02*
X115085238Y-41948485D01*
X115085238Y-41948485D02*
X115123333Y-42024676D01*
X115123333Y-42024676D02*
X115123333Y-42100866D01*
X115123333Y-42100866D02*
X115085238Y-42215152D01*
X115085238Y-42215152D02*
X114628095Y-42672295D01*
X114628095Y-42672295D02*
X115123333Y-42672295D01*
X110077314Y-45802904D02*
X110039218Y-45841000D01*
X110039218Y-45841000D02*
X109924933Y-45879095D01*
X109924933Y-45879095D02*
X109848742Y-45879095D01*
X109848742Y-45879095D02*
X109734456Y-45841000D01*
X109734456Y-45841000D02*
X109658266Y-45764809D01*
X109658266Y-45764809D02*
X109620171Y-45688619D01*
X109620171Y-45688619D02*
X109582075Y-45536238D01*
X109582075Y-45536238D02*
X109582075Y-45421952D01*
X109582075Y-45421952D02*
X109620171Y-45269571D01*
X109620171Y-45269571D02*
X109658266Y-45193380D01*
X109658266Y-45193380D02*
X109734456Y-45117190D01*
X109734456Y-45117190D02*
X109848742Y-45079095D01*
X109848742Y-45079095D02*
X109924933Y-45079095D01*
X109924933Y-45079095D02*
X110039218Y-45117190D01*
X110039218Y-45117190D02*
X110077314Y-45155285D01*
X110839218Y-45879095D02*
X110382075Y-45879095D01*
X110610647Y-45879095D02*
X110610647Y-45079095D01*
X110610647Y-45079095D02*
X110534456Y-45193380D01*
X110534456Y-45193380D02*
X110458266Y-45269571D01*
X110458266Y-45269571D02*
X110382075Y-45307666D01*
X111334457Y-45079095D02*
X111410647Y-45079095D01*
X111410647Y-45079095D02*
X111486838Y-45117190D01*
X111486838Y-45117190D02*
X111524933Y-45155285D01*
X111524933Y-45155285D02*
X111563028Y-45231476D01*
X111563028Y-45231476D02*
X111601123Y-45383857D01*
X111601123Y-45383857D02*
X111601123Y-45574333D01*
X111601123Y-45574333D02*
X111563028Y-45726714D01*
X111563028Y-45726714D02*
X111524933Y-45802904D01*
X111524933Y-45802904D02*
X111486838Y-45841000D01*
X111486838Y-45841000D02*
X111410647Y-45879095D01*
X111410647Y-45879095D02*
X111334457Y-45879095D01*
X111334457Y-45879095D02*
X111258266Y-45841000D01*
X111258266Y-45841000D02*
X111220171Y-45802904D01*
X111220171Y-45802904D02*
X111182076Y-45726714D01*
X111182076Y-45726714D02*
X111143980Y-45574333D01*
X111143980Y-45574333D02*
X111143980Y-45383857D01*
X111143980Y-45383857D02*
X111182076Y-45231476D01*
X111182076Y-45231476D02*
X111220171Y-45155285D01*
X111220171Y-45155285D02*
X111258266Y-45117190D01*
X111258266Y-45117190D02*
X111334457Y-45079095D01*
X111919095Y-37826932D02*
X111538142Y-38093599D01*
X111919095Y-38284075D02*
X111119095Y-38284075D01*
X111119095Y-38284075D02*
X111119095Y-37979313D01*
X111119095Y-37979313D02*
X111157190Y-37903123D01*
X111157190Y-37903123D02*
X111195285Y-37865028D01*
X111195285Y-37865028D02*
X111271476Y-37826932D01*
X111271476Y-37826932D02*
X111385761Y-37826932D01*
X111385761Y-37826932D02*
X111461952Y-37865028D01*
X111461952Y-37865028D02*
X111500047Y-37903123D01*
X111500047Y-37903123D02*
X111538142Y-37979313D01*
X111538142Y-37979313D02*
X111538142Y-38284075D01*
X111461952Y-37369790D02*
X111423857Y-37445980D01*
X111423857Y-37445980D02*
X111385761Y-37484075D01*
X111385761Y-37484075D02*
X111309571Y-37522171D01*
X111309571Y-37522171D02*
X111271476Y-37522171D01*
X111271476Y-37522171D02*
X111195285Y-37484075D01*
X111195285Y-37484075D02*
X111157190Y-37445980D01*
X111157190Y-37445980D02*
X111119095Y-37369790D01*
X111119095Y-37369790D02*
X111119095Y-37217409D01*
X111119095Y-37217409D02*
X111157190Y-37141218D01*
X111157190Y-37141218D02*
X111195285Y-37103123D01*
X111195285Y-37103123D02*
X111271476Y-37065028D01*
X111271476Y-37065028D02*
X111309571Y-37065028D01*
X111309571Y-37065028D02*
X111385761Y-37103123D01*
X111385761Y-37103123D02*
X111423857Y-37141218D01*
X111423857Y-37141218D02*
X111461952Y-37217409D01*
X111461952Y-37217409D02*
X111461952Y-37369790D01*
X111461952Y-37369790D02*
X111500047Y-37445980D01*
X111500047Y-37445980D02*
X111538142Y-37484075D01*
X111538142Y-37484075D02*
X111614333Y-37522171D01*
X111614333Y-37522171D02*
X111766714Y-37522171D01*
X111766714Y-37522171D02*
X111842904Y-37484075D01*
X111842904Y-37484075D02*
X111881000Y-37445980D01*
X111881000Y-37445980D02*
X111919095Y-37369790D01*
X111919095Y-37369790D02*
X111919095Y-37217409D01*
X111919095Y-37217409D02*
X111881000Y-37141218D01*
X111881000Y-37141218D02*
X111842904Y-37103123D01*
X111842904Y-37103123D02*
X111766714Y-37065028D01*
X111766714Y-37065028D02*
X111614333Y-37065028D01*
X111614333Y-37065028D02*
X111538142Y-37103123D01*
X111538142Y-37103123D02*
X111500047Y-37141218D01*
X111500047Y-37141218D02*
X111461952Y-37217409D01*
X97148667Y-38032904D02*
X97110571Y-38071000D01*
X97110571Y-38071000D02*
X96996286Y-38109095D01*
X96996286Y-38109095D02*
X96920095Y-38109095D01*
X96920095Y-38109095D02*
X96805809Y-38071000D01*
X96805809Y-38071000D02*
X96729619Y-37994809D01*
X96729619Y-37994809D02*
X96691524Y-37918619D01*
X96691524Y-37918619D02*
X96653428Y-37766238D01*
X96653428Y-37766238D02*
X96653428Y-37651952D01*
X96653428Y-37651952D02*
X96691524Y-37499571D01*
X96691524Y-37499571D02*
X96729619Y-37423380D01*
X96729619Y-37423380D02*
X96805809Y-37347190D01*
X96805809Y-37347190D02*
X96920095Y-37309095D01*
X96920095Y-37309095D02*
X96996286Y-37309095D01*
X96996286Y-37309095D02*
X97110571Y-37347190D01*
X97110571Y-37347190D02*
X97148667Y-37385285D01*
X97529619Y-38109095D02*
X97682000Y-38109095D01*
X97682000Y-38109095D02*
X97758190Y-38071000D01*
X97758190Y-38071000D02*
X97796286Y-38032904D01*
X97796286Y-38032904D02*
X97872476Y-37918619D01*
X97872476Y-37918619D02*
X97910571Y-37766238D01*
X97910571Y-37766238D02*
X97910571Y-37461476D01*
X97910571Y-37461476D02*
X97872476Y-37385285D01*
X97872476Y-37385285D02*
X97834381Y-37347190D01*
X97834381Y-37347190D02*
X97758190Y-37309095D01*
X97758190Y-37309095D02*
X97605809Y-37309095D01*
X97605809Y-37309095D02*
X97529619Y-37347190D01*
X97529619Y-37347190D02*
X97491524Y-37385285D01*
X97491524Y-37385285D02*
X97453428Y-37461476D01*
X97453428Y-37461476D02*
X97453428Y-37651952D01*
X97453428Y-37651952D02*
X97491524Y-37728142D01*
X97491524Y-37728142D02*
X97529619Y-37766238D01*
X97529619Y-37766238D02*
X97605809Y-37804333D01*
X97605809Y-37804333D02*
X97758190Y-37804333D01*
X97758190Y-37804333D02*
X97834381Y-37766238D01*
X97834381Y-37766238D02*
X97872476Y-37728142D01*
X97872476Y-37728142D02*
X97910571Y-37651952D01*
X113038295Y-39445332D02*
X112657342Y-39711999D01*
X113038295Y-39902475D02*
X112238295Y-39902475D01*
X112238295Y-39902475D02*
X112238295Y-39597713D01*
X112238295Y-39597713D02*
X112276390Y-39521523D01*
X112276390Y-39521523D02*
X112314485Y-39483428D01*
X112314485Y-39483428D02*
X112390676Y-39445332D01*
X112390676Y-39445332D02*
X112504961Y-39445332D01*
X112504961Y-39445332D02*
X112581152Y-39483428D01*
X112581152Y-39483428D02*
X112619247Y-39521523D01*
X112619247Y-39521523D02*
X112657342Y-39597713D01*
X112657342Y-39597713D02*
X112657342Y-39902475D01*
X112238295Y-38721523D02*
X112238295Y-39102475D01*
X112238295Y-39102475D02*
X112619247Y-39140571D01*
X112619247Y-39140571D02*
X112581152Y-39102475D01*
X112581152Y-39102475D02*
X112543057Y-39026285D01*
X112543057Y-39026285D02*
X112543057Y-38835809D01*
X112543057Y-38835809D02*
X112581152Y-38759618D01*
X112581152Y-38759618D02*
X112619247Y-38721523D01*
X112619247Y-38721523D02*
X112695438Y-38683428D01*
X112695438Y-38683428D02*
X112885914Y-38683428D01*
X112885914Y-38683428D02*
X112962104Y-38721523D01*
X112962104Y-38721523D02*
X113000200Y-38759618D01*
X113000200Y-38759618D02*
X113038295Y-38835809D01*
X113038295Y-38835809D02*
X113038295Y-39026285D01*
X113038295Y-39026285D02*
X113000200Y-39102475D01*
X113000200Y-39102475D02*
X112962104Y-39140571D01*
X111928295Y-39435332D02*
X111547342Y-39701999D01*
X111928295Y-39892475D02*
X111128295Y-39892475D01*
X111128295Y-39892475D02*
X111128295Y-39587713D01*
X111128295Y-39587713D02*
X111166390Y-39511523D01*
X111166390Y-39511523D02*
X111204485Y-39473428D01*
X111204485Y-39473428D02*
X111280676Y-39435332D01*
X111280676Y-39435332D02*
X111394961Y-39435332D01*
X111394961Y-39435332D02*
X111471152Y-39473428D01*
X111471152Y-39473428D02*
X111509247Y-39511523D01*
X111509247Y-39511523D02*
X111547342Y-39587713D01*
X111547342Y-39587713D02*
X111547342Y-39892475D01*
X111394961Y-38749618D02*
X111928295Y-38749618D01*
X111090200Y-38940094D02*
X111661628Y-39130571D01*
X111661628Y-39130571D02*
X111661628Y-38635332D01*
X98272295Y-39073332D02*
X97891342Y-39339999D01*
X98272295Y-39530475D02*
X97472295Y-39530475D01*
X97472295Y-39530475D02*
X97472295Y-39225713D01*
X97472295Y-39225713D02*
X97510390Y-39149523D01*
X97510390Y-39149523D02*
X97548485Y-39111428D01*
X97548485Y-39111428D02*
X97624676Y-39073332D01*
X97624676Y-39073332D02*
X97738961Y-39073332D01*
X97738961Y-39073332D02*
X97815152Y-39111428D01*
X97815152Y-39111428D02*
X97853247Y-39149523D01*
X97853247Y-39149523D02*
X97891342Y-39225713D01*
X97891342Y-39225713D02*
X97891342Y-39530475D01*
X98272295Y-38311428D02*
X98272295Y-38768571D01*
X98272295Y-38539999D02*
X97472295Y-38539999D01*
X97472295Y-38539999D02*
X97586580Y-38616190D01*
X97586580Y-38616190D02*
X97662771Y-38692380D01*
X97662771Y-38692380D02*
X97700866Y-38768571D01*
X104025733Y-56763095D02*
X104025733Y-57334523D01*
X104025733Y-57334523D02*
X103987638Y-57448809D01*
X103987638Y-57448809D02*
X103911447Y-57525000D01*
X103911447Y-57525000D02*
X103797162Y-57563095D01*
X103797162Y-57563095D02*
X103720971Y-57563095D01*
X104368590Y-56839285D02*
X104406686Y-56801190D01*
X104406686Y-56801190D02*
X104482876Y-56763095D01*
X104482876Y-56763095D02*
X104673352Y-56763095D01*
X104673352Y-56763095D02*
X104749543Y-56801190D01*
X104749543Y-56801190D02*
X104787638Y-56839285D01*
X104787638Y-56839285D02*
X104825733Y-56915476D01*
X104825733Y-56915476D02*
X104825733Y-56991666D01*
X104825733Y-56991666D02*
X104787638Y-57105952D01*
X104787638Y-57105952D02*
X104330495Y-57563095D01*
X104330495Y-57563095D02*
X104825733Y-57563095D01*
X113099981Y-48165095D02*
X113099981Y-47365095D01*
X113099981Y-47365095D02*
X113366647Y-47936523D01*
X113366647Y-47936523D02*
X113633314Y-47365095D01*
X113633314Y-47365095D02*
X113633314Y-48165095D01*
X114014267Y-48165095D02*
X114014267Y-47365095D01*
X114471410Y-48165095D02*
X114128552Y-47707952D01*
X114471410Y-47365095D02*
X114014267Y-47822238D01*
X115233314Y-48165095D02*
X114776171Y-48165095D01*
X115004743Y-48165095D02*
X115004743Y-47365095D01*
X115004743Y-47365095D02*
X114928552Y-47479380D01*
X114928552Y-47479380D02*
X114852362Y-47555571D01*
X114852362Y-47555571D02*
X114776171Y-47593666D01*
X108820295Y-36379085D02*
X108439342Y-36645752D01*
X108820295Y-36836228D02*
X108020295Y-36836228D01*
X108020295Y-36836228D02*
X108020295Y-36531466D01*
X108020295Y-36531466D02*
X108058390Y-36455276D01*
X108058390Y-36455276D02*
X108096485Y-36417181D01*
X108096485Y-36417181D02*
X108172676Y-36379085D01*
X108172676Y-36379085D02*
X108286961Y-36379085D01*
X108286961Y-36379085D02*
X108363152Y-36417181D01*
X108363152Y-36417181D02*
X108401247Y-36455276D01*
X108401247Y-36455276D02*
X108439342Y-36531466D01*
X108439342Y-36531466D02*
X108439342Y-36836228D01*
X108820295Y-35617181D02*
X108820295Y-36074324D01*
X108820295Y-35845752D02*
X108020295Y-35845752D01*
X108020295Y-35845752D02*
X108134580Y-35921943D01*
X108134580Y-35921943D02*
X108210771Y-35998133D01*
X108210771Y-35998133D02*
X108248866Y-36074324D01*
X108096485Y-35312419D02*
X108058390Y-35274323D01*
X108058390Y-35274323D02*
X108020295Y-35198133D01*
X108020295Y-35198133D02*
X108020295Y-35007657D01*
X108020295Y-35007657D02*
X108058390Y-34931466D01*
X108058390Y-34931466D02*
X108096485Y-34893371D01*
X108096485Y-34893371D02*
X108172676Y-34855276D01*
X108172676Y-34855276D02*
X108248866Y-34855276D01*
X108248866Y-34855276D02*
X108363152Y-34893371D01*
X108363152Y-34893371D02*
X108820295Y-35350514D01*
X108820295Y-35350514D02*
X108820295Y-34855276D01*
X91609933Y-41782295D02*
X91609933Y-42353723D01*
X91609933Y-42353723D02*
X91571838Y-42468009D01*
X91571838Y-42468009D02*
X91495647Y-42544200D01*
X91495647Y-42544200D02*
X91381362Y-42582295D01*
X91381362Y-42582295D02*
X91305171Y-42582295D01*
X91990886Y-42582295D02*
X91990886Y-41782295D01*
X91990886Y-41782295D02*
X92295648Y-41782295D01*
X92295648Y-41782295D02*
X92371838Y-41820390D01*
X92371838Y-41820390D02*
X92409933Y-41858485D01*
X92409933Y-41858485D02*
X92448029Y-41934676D01*
X92448029Y-41934676D02*
X92448029Y-42048961D01*
X92448029Y-42048961D02*
X92409933Y-42125152D01*
X92409933Y-42125152D02*
X92371838Y-42163247D01*
X92371838Y-42163247D02*
X92295648Y-42201342D01*
X92295648Y-42201342D02*
X91990886Y-42201342D01*
X92752790Y-41858485D02*
X92790886Y-41820390D01*
X92790886Y-41820390D02*
X92867076Y-41782295D01*
X92867076Y-41782295D02*
X93057552Y-41782295D01*
X93057552Y-41782295D02*
X93133743Y-41820390D01*
X93133743Y-41820390D02*
X93171838Y-41858485D01*
X93171838Y-41858485D02*
X93209933Y-41934676D01*
X93209933Y-41934676D02*
X93209933Y-42010866D01*
X93209933Y-42010866D02*
X93171838Y-42125152D01*
X93171838Y-42125152D02*
X92714695Y-42582295D01*
X92714695Y-42582295D02*
X93209933Y-42582295D01*
X108070667Y-47733304D02*
X108032571Y-47771400D01*
X108032571Y-47771400D02*
X107918286Y-47809495D01*
X107918286Y-47809495D02*
X107842095Y-47809495D01*
X107842095Y-47809495D02*
X107727809Y-47771400D01*
X107727809Y-47771400D02*
X107651619Y-47695209D01*
X107651619Y-47695209D02*
X107613524Y-47619019D01*
X107613524Y-47619019D02*
X107575428Y-47466638D01*
X107575428Y-47466638D02*
X107575428Y-47352352D01*
X107575428Y-47352352D02*
X107613524Y-47199971D01*
X107613524Y-47199971D02*
X107651619Y-47123780D01*
X107651619Y-47123780D02*
X107727809Y-47047590D01*
X107727809Y-47047590D02*
X107842095Y-47009495D01*
X107842095Y-47009495D02*
X107918286Y-47009495D01*
X107918286Y-47009495D02*
X108032571Y-47047590D01*
X108032571Y-47047590D02*
X108070667Y-47085685D01*
X108337333Y-47009495D02*
X108870667Y-47009495D01*
X108870667Y-47009495D02*
X108527809Y-47809495D01*
X92856114Y-29597704D02*
X92818018Y-29635800D01*
X92818018Y-29635800D02*
X92703733Y-29673895D01*
X92703733Y-29673895D02*
X92627542Y-29673895D01*
X92627542Y-29673895D02*
X92513256Y-29635800D01*
X92513256Y-29635800D02*
X92437066Y-29559609D01*
X92437066Y-29559609D02*
X92398971Y-29483419D01*
X92398971Y-29483419D02*
X92360875Y-29331038D01*
X92360875Y-29331038D02*
X92360875Y-29216752D01*
X92360875Y-29216752D02*
X92398971Y-29064371D01*
X92398971Y-29064371D02*
X92437066Y-28988180D01*
X92437066Y-28988180D02*
X92513256Y-28911990D01*
X92513256Y-28911990D02*
X92627542Y-28873895D01*
X92627542Y-28873895D02*
X92703733Y-28873895D01*
X92703733Y-28873895D02*
X92818018Y-28911990D01*
X92818018Y-28911990D02*
X92856114Y-28950085D01*
X93618018Y-29673895D02*
X93160875Y-29673895D01*
X93389447Y-29673895D02*
X93389447Y-28873895D01*
X93389447Y-28873895D02*
X93313256Y-28988180D01*
X93313256Y-28988180D02*
X93237066Y-29064371D01*
X93237066Y-29064371D02*
X93160875Y-29102466D01*
X94303733Y-29140561D02*
X94303733Y-29673895D01*
X94113257Y-28835800D02*
X93922780Y-29407228D01*
X93922780Y-29407228D02*
X94418019Y-29407228D01*
X106153304Y-45497732D02*
X106191400Y-45535828D01*
X106191400Y-45535828D02*
X106229495Y-45650113D01*
X106229495Y-45650113D02*
X106229495Y-45726304D01*
X106229495Y-45726304D02*
X106191400Y-45840590D01*
X106191400Y-45840590D02*
X106115209Y-45916780D01*
X106115209Y-45916780D02*
X106039019Y-45954875D01*
X106039019Y-45954875D02*
X105886638Y-45992971D01*
X105886638Y-45992971D02*
X105772352Y-45992971D01*
X105772352Y-45992971D02*
X105619971Y-45954875D01*
X105619971Y-45954875D02*
X105543780Y-45916780D01*
X105543780Y-45916780D02*
X105467590Y-45840590D01*
X105467590Y-45840590D02*
X105429495Y-45726304D01*
X105429495Y-45726304D02*
X105429495Y-45650113D01*
X105429495Y-45650113D02*
X105467590Y-45535828D01*
X105467590Y-45535828D02*
X105505685Y-45497732D01*
X105429495Y-45231066D02*
X105429495Y-44735828D01*
X105429495Y-44735828D02*
X105734257Y-45002494D01*
X105734257Y-45002494D02*
X105734257Y-44888209D01*
X105734257Y-44888209D02*
X105772352Y-44812018D01*
X105772352Y-44812018D02*
X105810447Y-44773923D01*
X105810447Y-44773923D02*
X105886638Y-44735828D01*
X105886638Y-44735828D02*
X106077114Y-44735828D01*
X106077114Y-44735828D02*
X106153304Y-44773923D01*
X106153304Y-44773923D02*
X106191400Y-44812018D01*
X106191400Y-44812018D02*
X106229495Y-44888209D01*
X106229495Y-44888209D02*
X106229495Y-45116780D01*
X106229495Y-45116780D02*
X106191400Y-45192971D01*
X106191400Y-45192971D02*
X106153304Y-45231066D01*
X113789333Y-37332295D02*
X113789333Y-37903723D01*
X113789333Y-37903723D02*
X113751238Y-38018009D01*
X113751238Y-38018009D02*
X113675047Y-38094200D01*
X113675047Y-38094200D02*
X113560762Y-38132295D01*
X113560762Y-38132295D02*
X113484571Y-38132295D01*
X114170286Y-38132295D02*
X114170286Y-37332295D01*
X114170286Y-37332295D02*
X114475048Y-37332295D01*
X114475048Y-37332295D02*
X114551238Y-37370390D01*
X114551238Y-37370390D02*
X114589333Y-37408485D01*
X114589333Y-37408485D02*
X114627429Y-37484676D01*
X114627429Y-37484676D02*
X114627429Y-37598961D01*
X114627429Y-37598961D02*
X114589333Y-37675152D01*
X114589333Y-37675152D02*
X114551238Y-37713247D01*
X114551238Y-37713247D02*
X114475048Y-37751342D01*
X114475048Y-37751342D02*
X114170286Y-37751342D01*
X115389333Y-38132295D02*
X114932190Y-38132295D01*
X115160762Y-38132295D02*
X115160762Y-37332295D01*
X115160762Y-37332295D02*
X115084571Y-37446580D01*
X115084571Y-37446580D02*
X115008381Y-37522771D01*
X115008381Y-37522771D02*
X114932190Y-37560866D01*
X94329647Y-42983066D02*
X94329647Y-43249732D01*
X94748695Y-43249732D02*
X93948695Y-43249732D01*
X93948695Y-43249732D02*
X93948695Y-42868780D01*
X94329647Y-42297352D02*
X94367742Y-42183066D01*
X94367742Y-42183066D02*
X94405838Y-42144971D01*
X94405838Y-42144971D02*
X94482028Y-42106875D01*
X94482028Y-42106875D02*
X94596314Y-42106875D01*
X94596314Y-42106875D02*
X94672504Y-42144971D01*
X94672504Y-42144971D02*
X94710600Y-42183066D01*
X94710600Y-42183066D02*
X94748695Y-42259256D01*
X94748695Y-42259256D02*
X94748695Y-42564018D01*
X94748695Y-42564018D02*
X93948695Y-42564018D01*
X93948695Y-42564018D02*
X93948695Y-42297352D01*
X93948695Y-42297352D02*
X93986790Y-42221161D01*
X93986790Y-42221161D02*
X94024885Y-42183066D01*
X94024885Y-42183066D02*
X94101076Y-42144971D01*
X94101076Y-42144971D02*
X94177266Y-42144971D01*
X94177266Y-42144971D02*
X94253457Y-42183066D01*
X94253457Y-42183066D02*
X94291552Y-42221161D01*
X94291552Y-42221161D02*
X94329647Y-42297352D01*
X94329647Y-42297352D02*
X94329647Y-42564018D01*
X94748695Y-41344971D02*
X94748695Y-41802114D01*
X94748695Y-41573542D02*
X93948695Y-41573542D01*
X93948695Y-41573542D02*
X94062980Y-41649733D01*
X94062980Y-41649733D02*
X94139171Y-41725923D01*
X94139171Y-41725923D02*
X94177266Y-41802114D01*
X99295304Y-35464685D02*
X99333400Y-35502781D01*
X99333400Y-35502781D02*
X99371495Y-35617066D01*
X99371495Y-35617066D02*
X99371495Y-35693257D01*
X99371495Y-35693257D02*
X99333400Y-35807543D01*
X99333400Y-35807543D02*
X99257209Y-35883733D01*
X99257209Y-35883733D02*
X99181019Y-35921828D01*
X99181019Y-35921828D02*
X99028638Y-35959924D01*
X99028638Y-35959924D02*
X98914352Y-35959924D01*
X98914352Y-35959924D02*
X98761971Y-35921828D01*
X98761971Y-35921828D02*
X98685780Y-35883733D01*
X98685780Y-35883733D02*
X98609590Y-35807543D01*
X98609590Y-35807543D02*
X98571495Y-35693257D01*
X98571495Y-35693257D02*
X98571495Y-35617066D01*
X98571495Y-35617066D02*
X98609590Y-35502781D01*
X98609590Y-35502781D02*
X98647685Y-35464685D01*
X99371495Y-34702781D02*
X99371495Y-35159924D01*
X99371495Y-34931352D02*
X98571495Y-34931352D01*
X98571495Y-34931352D02*
X98685780Y-35007543D01*
X98685780Y-35007543D02*
X98761971Y-35083733D01*
X98761971Y-35083733D02*
X98800066Y-35159924D01*
X98647685Y-34398019D02*
X98609590Y-34359923D01*
X98609590Y-34359923D02*
X98571495Y-34283733D01*
X98571495Y-34283733D02*
X98571495Y-34093257D01*
X98571495Y-34093257D02*
X98609590Y-34017066D01*
X98609590Y-34017066D02*
X98647685Y-33978971D01*
X98647685Y-33978971D02*
X98723876Y-33940876D01*
X98723876Y-33940876D02*
X98800066Y-33940876D01*
X98800066Y-33940876D02*
X98914352Y-33978971D01*
X98914352Y-33978971D02*
X99371495Y-34436114D01*
X99371495Y-34436114D02*
X99371495Y-33940876D01*
X103733676Y-37692295D02*
X103733676Y-38339914D01*
X103733676Y-38339914D02*
X103771771Y-38416104D01*
X103771771Y-38416104D02*
X103809866Y-38454200D01*
X103809866Y-38454200D02*
X103886057Y-38492295D01*
X103886057Y-38492295D02*
X104038438Y-38492295D01*
X104038438Y-38492295D02*
X104114628Y-38454200D01*
X104114628Y-38454200D02*
X104152723Y-38416104D01*
X104152723Y-38416104D02*
X104190819Y-38339914D01*
X104190819Y-38339914D02*
X104190819Y-37692295D01*
X104990818Y-38492295D02*
X104533675Y-38492295D01*
X104762247Y-38492295D02*
X104762247Y-37692295D01*
X104762247Y-37692295D02*
X104686056Y-37806580D01*
X104686056Y-37806580D02*
X104609866Y-37882771D01*
X104609866Y-37882771D02*
X104533675Y-37920866D01*
X100311304Y-35286932D02*
X100349400Y-35325028D01*
X100349400Y-35325028D02*
X100387495Y-35439313D01*
X100387495Y-35439313D02*
X100387495Y-35515504D01*
X100387495Y-35515504D02*
X100349400Y-35629790D01*
X100349400Y-35629790D02*
X100273209Y-35705980D01*
X100273209Y-35705980D02*
X100197019Y-35744075D01*
X100197019Y-35744075D02*
X100044638Y-35782171D01*
X100044638Y-35782171D02*
X99930352Y-35782171D01*
X99930352Y-35782171D02*
X99777971Y-35744075D01*
X99777971Y-35744075D02*
X99701780Y-35705980D01*
X99701780Y-35705980D02*
X99625590Y-35629790D01*
X99625590Y-35629790D02*
X99587495Y-35515504D01*
X99587495Y-35515504D02*
X99587495Y-35439313D01*
X99587495Y-35439313D02*
X99625590Y-35325028D01*
X99625590Y-35325028D02*
X99663685Y-35286932D01*
X99587495Y-34601218D02*
X99587495Y-34753599D01*
X99587495Y-34753599D02*
X99625590Y-34829790D01*
X99625590Y-34829790D02*
X99663685Y-34867885D01*
X99663685Y-34867885D02*
X99777971Y-34944075D01*
X99777971Y-34944075D02*
X99930352Y-34982171D01*
X99930352Y-34982171D02*
X100235114Y-34982171D01*
X100235114Y-34982171D02*
X100311304Y-34944075D01*
X100311304Y-34944075D02*
X100349400Y-34905980D01*
X100349400Y-34905980D02*
X100387495Y-34829790D01*
X100387495Y-34829790D02*
X100387495Y-34677409D01*
X100387495Y-34677409D02*
X100349400Y-34601218D01*
X100349400Y-34601218D02*
X100311304Y-34563123D01*
X100311304Y-34563123D02*
X100235114Y-34525028D01*
X100235114Y-34525028D02*
X100044638Y-34525028D01*
X100044638Y-34525028D02*
X99968447Y-34563123D01*
X99968447Y-34563123D02*
X99930352Y-34601218D01*
X99930352Y-34601218D02*
X99892257Y-34677409D01*
X99892257Y-34677409D02*
X99892257Y-34829790D01*
X99892257Y-34829790D02*
X99930352Y-34905980D01*
X99930352Y-34905980D02*
X99968447Y-34944075D01*
X99968447Y-34944075D02*
X100044638Y-34982171D01*
D11*
%TO.C,C2*%
X109660000Y-43702164D02*
X109660000Y-43917836D01*
X110380000Y-43702164D02*
X110380000Y-43917836D01*
%TO.C,R7*%
X112980200Y-33880359D02*
X112980200Y-34187641D01*
X113740200Y-33880359D02*
X113740200Y-34187641D01*
%TO.C,R13*%
X109221000Y-36094641D02*
X109221000Y-35787359D01*
X109981000Y-36094641D02*
X109981000Y-35787359D01*
%TO.C,C1*%
X99589000Y-38969836D02*
X99589000Y-38754164D01*
X100309000Y-38969836D02*
X100309000Y-38754164D01*
%TO.C,TP3*%
X110030000Y-42380000D02*
G75*
G02*
X109330000Y-42380000I-350000J0D01*
G01*
X109330000Y-42380000D02*
G75*
G02*
X110030000Y-42380000I350000J0D01*
G01*
%TO.C,R9*%
X114377200Y-33882359D02*
X114377200Y-34189641D01*
X115137200Y-33882359D02*
X115137200Y-34189641D01*
%TO.C,R2*%
X112523000Y-31088359D02*
X112523000Y-31395641D01*
X113283000Y-31088359D02*
X113283000Y-31395641D01*
%TO.C,C13*%
X97389836Y-35403200D02*
X97174164Y-35403200D01*
X97389836Y-36123200D02*
X97174164Y-36123200D01*
%TO.C,TP1*%
X105700000Y-42300000D02*
G75*
G02*
X105000000Y-42300000I-350000J0D01*
G01*
X105000000Y-42300000D02*
G75*
G02*
X105700000Y-42300000I350000J0D01*
G01*
%TO.C,C4*%
X108587836Y-43000000D02*
X108372164Y-43000000D01*
X108587836Y-43720000D02*
X108372164Y-43720000D01*
%TO.C,C5*%
X105770000Y-35972164D02*
X105770000Y-36187836D01*
X106490000Y-35972164D02*
X106490000Y-36187836D01*
%TO.C,R11*%
X96470441Y-38634400D02*
X96163159Y-38634400D01*
X96470441Y-39394400D02*
X96163159Y-39394400D01*
%TO.C,C15*%
X95918000Y-45135200D02*
X103978000Y-45135200D01*
X103978000Y-40615200D02*
X95918000Y-40615200D01*
X103978000Y-45135200D02*
X103978000Y-40615200D01*
%TO.C,R10*%
X114377200Y-35789359D02*
X114377200Y-36096641D01*
X115137200Y-35789359D02*
X115137200Y-36096641D01*
%TO.C,C8*%
X104380000Y-35922164D02*
X104380000Y-36137836D01*
X105100000Y-35922164D02*
X105100000Y-36137836D01*
%TO.C,C11*%
X106600000Y-43777836D02*
X106600000Y-43562164D01*
X107320000Y-43777836D02*
X107320000Y-43562164D01*
%TO.C,R3*%
X104141000Y-40994359D02*
X104141000Y-41301641D01*
X104901000Y-40994359D02*
X104901000Y-41301641D01*
%TO.C,R6*%
X113539000Y-31088359D02*
X113539000Y-31395641D01*
X114299000Y-31088359D02*
X114299000Y-31395641D01*
%TO.C,TP2*%
X110940000Y-41560000D02*
G75*
G02*
X110240000Y-41560000I-350000J0D01*
G01*
X110240000Y-41560000D02*
G75*
G02*
X110940000Y-41560000I350000J0D01*
G01*
%TO.C,C10*%
X108565836Y-45055200D02*
X108350164Y-45055200D01*
X108565836Y-45775200D02*
X108350164Y-45775200D01*
%TO.C,R8*%
X112980200Y-35789359D02*
X112980200Y-36096641D01*
X113740200Y-35789359D02*
X113740200Y-36096641D01*
%TO.C,C9*%
X97389836Y-36409200D02*
X97174164Y-36409200D01*
X97389836Y-37129200D02*
X97174164Y-37129200D01*
%TO.C,R5*%
X112140000Y-41293641D02*
X112140000Y-40986359D01*
X112900000Y-41293641D02*
X112900000Y-40986359D01*
%TO.C,R4*%
X111124000Y-40986359D02*
X111124000Y-41293641D01*
X111884000Y-40986359D02*
X111884000Y-41293641D01*
%TO.C,R1*%
X98553000Y-38708359D02*
X98553000Y-39015641D01*
X99313000Y-38708359D02*
X99313000Y-39015641D01*
%TO.C,J2*%
X92846000Y-45560000D02*
X104846000Y-45560000D01*
X92846000Y-56560000D02*
X92846000Y-45560000D01*
X94346000Y-56560000D02*
X92846000Y-56560000D01*
X94346000Y-57760000D02*
X94346000Y-56560000D01*
X95846000Y-57760000D02*
X94346000Y-57760000D01*
X95846000Y-59560000D02*
X95846000Y-57760000D01*
X96846000Y-56560000D02*
X96846000Y-59560000D01*
X100846000Y-56560000D02*
X96846000Y-56560000D01*
X100846000Y-59560000D02*
X100846000Y-56560000D01*
X101846000Y-57760000D02*
X101846000Y-59560000D01*
X101846000Y-59560000D02*
X95846000Y-59560000D01*
X103346000Y-56560000D02*
X103346000Y-57760000D01*
X103346000Y-57760000D02*
X101846000Y-57760000D01*
X104846000Y-45560000D02*
X104846000Y-56560000D01*
X104846000Y-56560000D02*
X103346000Y-56560000D01*
D12*
%TO.C,MK1*%
X115276367Y-52636600D02*
G75*
G02*
X105312433Y-52636600I-4981967J0D01*
G01*
X105312433Y-52636600D02*
G75*
G02*
X115276367Y-52636600I4981967J0D01*
G01*
D11*
%TO.C,R12*%
X110237000Y-35787359D02*
X110237000Y-36094641D01*
X110997000Y-35787359D02*
X110997000Y-36094641D01*
%TO.C,JP2*%
X91354400Y-38620000D02*
X93354400Y-38620000D01*
X91354400Y-41420000D02*
X91354400Y-38620000D01*
X93354400Y-38620000D02*
X93354400Y-41420000D01*
X93354400Y-41420000D02*
X91354400Y-41420000D01*
%TO.C,C7*%
X108567836Y-44030000D02*
X108352164Y-44030000D01*
X108567836Y-44750000D02*
X108352164Y-44750000D01*
%TO.C,C14*%
X91212000Y-30284400D02*
X91212000Y-38344400D01*
X91212000Y-38344400D02*
X95732000Y-38344400D01*
X95732000Y-38344400D02*
X95732000Y-30284400D01*
%TO.C,C3*%
X105540000Y-43777836D02*
X105540000Y-43562164D01*
X106260000Y-43777836D02*
X106260000Y-43562164D01*
%TO.C,JP1*%
X113460000Y-38620000D02*
X115460000Y-38620000D01*
X113460000Y-41420000D02*
X113460000Y-38620000D01*
X115460000Y-38620000D02*
X115460000Y-41420000D01*
X115460000Y-41420000D02*
X113460000Y-41420000D01*
%TO.C,FB1*%
X93876400Y-39867621D02*
X93876400Y-40193179D01*
X94896400Y-39867621D02*
X94896400Y-40193179D01*
%TO.C,C12*%
X98580000Y-36732164D02*
X98580000Y-36947836D01*
X99300000Y-36732164D02*
X99300000Y-36947836D01*
%TO.C,U1*%
X105618500Y-41754000D02*
X105618500Y-41279000D01*
X106093500Y-37534000D02*
X105618500Y-37534000D01*
X106093500Y-41754000D02*
X105618500Y-41754000D01*
X109363500Y-37534000D02*
X109838500Y-37534000D01*
X109363500Y-41754000D02*
X109838500Y-41754000D01*
X109838500Y-37534000D02*
X109838500Y-38009000D01*
X109838500Y-41754000D02*
X109838500Y-41279000D01*
%TO.C,C6*%
X99589000Y-36722164D02*
X99589000Y-36937836D01*
X100309000Y-36722164D02*
X100309000Y-36937836D01*
%TD*%
%LPC*%
D13*
G36*
X92091500Y-56425759D02*
G01*
X91957508Y-56470846D01*
X91957508Y-56705808D01*
X92091500Y-56750419D01*
X92091500Y-56892824D01*
X91441386Y-56650877D01*
X91441386Y-56588803D01*
X91605700Y-56588803D01*
X91849076Y-56669611D01*
X91849076Y-56507043D01*
X91605700Y-56588803D01*
X91441386Y-56588803D01*
X91441386Y-56526729D01*
X92091500Y-56283353D01*
X92091500Y-56425759D01*
G37*
G36*
X91608399Y-56137137D02*
G01*
X91664123Y-56133009D01*
X91638946Y-56108680D01*
X91619953Y-56080978D01*
X91607144Y-56049902D01*
X91600519Y-56015454D01*
X91599509Y-55994255D01*
X91601666Y-55962522D01*
X91609416Y-55930870D01*
X91624870Y-55901143D01*
X91644596Y-55879949D01*
X91673487Y-55861698D01*
X91705092Y-55850367D01*
X91737321Y-55844229D01*
X91773819Y-55841615D01*
X91779382Y-55841530D01*
X92091500Y-55841530D01*
X92091500Y-55970600D01*
X91782557Y-55970600D01*
X91750924Y-55974034D01*
X91723023Y-55988540D01*
X91707513Y-56017994D01*
X91704448Y-56047756D01*
X91709926Y-56081986D01*
X91726359Y-56109799D01*
X91750805Y-56129517D01*
X92091500Y-56129517D01*
X92091500Y-56258587D01*
X91608399Y-56258587D01*
X91608399Y-56137137D01*
G37*
G36*
X92091500Y-55466544D02*
G01*
X92060571Y-55477260D01*
X92048159Y-55479562D01*
X92071010Y-55504745D01*
X92087332Y-55533460D01*
X92097125Y-55565708D01*
X92100390Y-55601488D01*
X92097830Y-55635452D01*
X92090150Y-55666380D01*
X92075390Y-55697545D01*
X92059430Y-55719128D01*
X92034606Y-55741690D01*
X92006391Y-55756869D01*
X91974785Y-55764663D01*
X91955762Y-55765802D01*
X91923861Y-55763083D01*
X91891609Y-55753314D01*
X91863841Y-55736441D01*
X91840558Y-55712464D01*
X91837963Y-55708967D01*
X91819944Y-55677305D01*
X91808345Y-55644407D01*
X91801499Y-55612352D01*
X91797510Y-55576736D01*
X91796369Y-55544335D01*
X91796369Y-55533063D01*
X91871779Y-55533063D01*
X91874134Y-55566246D01*
X91882836Y-55596890D01*
X91903445Y-55623518D01*
X91934653Y-55635780D01*
X91938774Y-55636256D01*
X91946395Y-55636732D01*
X91977859Y-55627177D01*
X91986243Y-55619745D01*
X92000282Y-55590535D01*
X92001801Y-55573388D01*
X91997324Y-55541020D01*
X91989101Y-55520680D01*
X91969678Y-55495415D01*
X91954809Y-55484960D01*
X91871779Y-55484960D01*
X91871779Y-55533063D01*
X91796369Y-55533063D01*
X91796369Y-55484960D01*
X91768745Y-55484960D01*
X91736917Y-55489799D01*
X91715085Y-55502106D01*
X91698250Y-55529518D01*
X91694922Y-55556401D01*
X91699895Y-55588594D01*
X91710639Y-55607521D01*
X91739074Y-55624480D01*
X91753504Y-55625937D01*
X91753504Y-55755007D01*
X91720472Y-55750736D01*
X91689484Y-55737924D01*
X91675871Y-55729129D01*
X91651247Y-55706707D01*
X91632479Y-55680858D01*
X91619830Y-55655942D01*
X91609114Y-55625226D01*
X91602367Y-55592216D01*
X91599688Y-55560544D01*
X91599509Y-55549574D01*
X91601088Y-55517411D01*
X91606924Y-55483160D01*
X91617059Y-55452434D01*
X91633907Y-55421635D01*
X91644437Y-55407962D01*
X91669104Y-55384972D01*
X91698336Y-55368551D01*
X91732131Y-55358698D01*
X91765447Y-55355465D01*
X91770491Y-55355413D01*
X91979893Y-55355413D01*
X92012170Y-55354034D01*
X92046629Y-55349101D01*
X92076976Y-55339556D01*
X92083879Y-55336204D01*
X92091500Y-55336204D01*
X92091500Y-55466544D01*
G37*
G36*
X92091500Y-55122674D02*
G01*
X92091500Y-55252221D01*
X91405666Y-55252221D01*
X91405666Y-55122674D01*
X92091500Y-55122674D01*
G37*
G36*
X91888492Y-54581555D02*
G01*
X91920037Y-54586102D01*
X91955047Y-54595559D01*
X91986954Y-54609380D01*
X92015757Y-54627566D01*
X92033235Y-54642114D01*
X92056057Y-54666834D01*
X92074158Y-54694556D01*
X92087536Y-54725282D01*
X92096193Y-54759010D01*
X92100128Y-54795740D01*
X92100390Y-54808651D01*
X92098035Y-54846340D01*
X92090969Y-54881060D01*
X92079192Y-54912810D01*
X92062705Y-54941591D01*
X92041507Y-54967403D01*
X92033394Y-54975347D01*
X92006580Y-54996497D01*
X91976383Y-55013270D01*
X91942804Y-55025668D01*
X91905842Y-55033691D01*
X91872457Y-55037033D01*
X91851299Y-55037580D01*
X91845425Y-55037580D01*
X91810448Y-55035854D01*
X91777437Y-55030674D01*
X91746390Y-55022042D01*
X91717307Y-55009956D01*
X91687704Y-54992484D01*
X91662119Y-54971144D01*
X91640553Y-54945936D01*
X91630308Y-54930260D01*
X91615420Y-54899650D01*
X91605404Y-54866404D01*
X91600592Y-54834637D01*
X91599509Y-54809445D01*
X91703972Y-54809445D01*
X91709151Y-54841936D01*
X91726452Y-54870382D01*
X91740803Y-54882791D01*
X91770890Y-54897524D01*
X91802595Y-54905030D01*
X91836133Y-54908264D01*
X91854792Y-54908669D01*
X91887148Y-54907051D01*
X91918735Y-54901365D01*
X91950416Y-54888856D01*
X91960048Y-54882791D01*
X91983587Y-54857995D01*
X91995125Y-54825914D01*
X91996404Y-54808651D01*
X91991358Y-54776309D01*
X91974505Y-54747823D01*
X91960524Y-54735305D01*
X91930664Y-54720301D01*
X91898671Y-54712657D01*
X91864518Y-54709363D01*
X91845425Y-54708951D01*
X91813663Y-54710598D01*
X91779292Y-54717290D01*
X91748323Y-54730595D01*
X91741121Y-54735305D01*
X91718483Y-54758084D01*
X91705749Y-54789564D01*
X91703972Y-54809445D01*
X91599509Y-54809445D01*
X91601613Y-54774039D01*
X91607926Y-54741167D01*
X91618446Y-54710829D01*
X91636040Y-54678637D01*
X91659361Y-54649893D01*
X91683258Y-54628601D01*
X91710181Y-54611159D01*
X91740128Y-54597568D01*
X91773101Y-54587829D01*
X91809098Y-54581941D01*
X91821770Y-54580834D01*
X91854792Y-54580040D01*
X91888492Y-54581555D01*
G37*
G36*
X92109790Y-54082556D02*
G01*
X92141503Y-54089412D01*
X92173677Y-54102392D01*
X92185643Y-54109164D01*
X92212812Y-54129418D01*
X92235577Y-54154261D01*
X92253940Y-54183694D01*
X92257084Y-54190131D01*
X92268979Y-54220930D01*
X92276981Y-54254567D01*
X92280826Y-54286850D01*
X92281691Y-54312533D01*
X92279614Y-54345509D01*
X92273381Y-54377959D01*
X92262994Y-54409881D01*
X92260418Y-54416202D01*
X92246012Y-54445268D01*
X92227372Y-54471726D01*
X92205805Y-54492406D01*
X92127220Y-54435253D01*
X92150835Y-54409901D01*
X92167703Y-54381950D01*
X92177824Y-54351399D01*
X92181198Y-54318248D01*
X92177952Y-54285677D01*
X92165749Y-54254100D01*
X92153733Y-54238393D01*
X92127644Y-54219891D01*
X92096865Y-54211184D01*
X92075941Y-54209817D01*
X92049905Y-54209817D01*
X92071992Y-54233888D01*
X92087769Y-54261492D01*
X92097235Y-54292629D01*
X92100390Y-54327297D01*
X92097131Y-54363772D01*
X92087354Y-54397071D01*
X92071059Y-54427194D01*
X92048245Y-54454143D01*
X92032283Y-54468116D01*
X92005185Y-54486406D01*
X91974974Y-54500912D01*
X91941648Y-54511633D01*
X91905207Y-54518571D01*
X91872461Y-54521462D01*
X91851775Y-54521935D01*
X91846377Y-54521935D01*
X91812707Y-54520644D01*
X91781153Y-54516772D01*
X91746082Y-54508718D01*
X91714058Y-54496947D01*
X91685082Y-54481459D01*
X91667457Y-54469068D01*
X91640981Y-54444115D01*
X91621008Y-54415652D01*
X91607538Y-54383679D01*
X91600571Y-54348196D01*
X91599509Y-54326345D01*
X91602109Y-54293323D01*
X91704448Y-54293323D01*
X91709784Y-54325323D01*
X91727607Y-54353741D01*
X91742391Y-54366352D01*
X91772904Y-54381446D01*
X91804455Y-54389136D01*
X91837477Y-54392450D01*
X91855744Y-54392864D01*
X91890390Y-54390780D01*
X91923643Y-54383574D01*
X91953845Y-54369702D01*
X91958619Y-54366511D01*
X91981354Y-54343999D01*
X91994142Y-54313414D01*
X91995927Y-54294276D01*
X91991617Y-54260651D01*
X91976920Y-54231257D01*
X91951793Y-54209817D01*
X91748583Y-54209817D01*
X91723455Y-54231359D01*
X91708758Y-54260406D01*
X91704448Y-54293323D01*
X91602109Y-54293323D01*
X91602115Y-54293241D01*
X91611474Y-54259557D01*
X91627640Y-54230299D01*
X91650613Y-54205466D01*
X91653963Y-54202673D01*
X91608399Y-54197275D01*
X91608399Y-54080270D01*
X92075465Y-54080270D01*
X92109790Y-54082556D01*
G37*
G36*
X92091500Y-53832767D02*
G01*
X92091500Y-53966758D01*
X91441386Y-53966758D01*
X91441386Y-53832767D01*
X92091500Y-53832767D01*
G37*
G36*
X92091500Y-53278702D02*
G01*
X92091500Y-53724335D01*
X92003071Y-53724335D01*
X91778905Y-53513981D01*
X91753248Y-53491385D01*
X91726978Y-53470461D01*
X91698566Y-53451165D01*
X91696351Y-53449843D01*
X91666181Y-53435626D01*
X91633338Y-53429127D01*
X91629355Y-53429046D01*
X91597206Y-53432661D01*
X91567730Y-53445819D01*
X91561248Y-53450954D01*
X91542674Y-53477546D01*
X91536506Y-53510983D01*
X91536482Y-53513505D01*
X91541460Y-53546041D01*
X91557956Y-53574223D01*
X91566646Y-53582564D01*
X91594272Y-53598805D01*
X91625308Y-53606448D01*
X91645866Y-53607648D01*
X91645866Y-53737195D01*
X91613284Y-53734959D01*
X91578996Y-53727232D01*
X91546723Y-53713986D01*
X91537435Y-53708936D01*
X91508768Y-53688896D01*
X91484288Y-53664297D01*
X91465835Y-53638262D01*
X91460437Y-53628763D01*
X91446930Y-53598481D01*
X91437844Y-53566040D01*
X91433178Y-53531438D01*
X91432496Y-53511282D01*
X91434192Y-53475176D01*
X91439283Y-53442230D01*
X91449510Y-53407785D01*
X91464356Y-53377640D01*
X91480758Y-53355223D01*
X91507300Y-53330913D01*
X91538824Y-53313549D01*
X91570493Y-53304053D01*
X91605975Y-53299875D01*
X91616814Y-53299658D01*
X91650200Y-53302622D01*
X91684000Y-53311514D01*
X91715085Y-53324742D01*
X91744521Y-53341588D01*
X91772879Y-53361306D01*
X91799385Y-53382222D01*
X91827472Y-53406557D01*
X91831613Y-53410312D01*
X91987513Y-53558116D01*
X91987513Y-53278702D01*
X92091500Y-53278702D01*
G37*
G36*
X91920994Y-52851326D02*
G01*
X91889294Y-52857221D01*
X91864017Y-52876505D01*
X91862729Y-52878156D01*
X91845852Y-52906927D01*
X91832370Y-52938722D01*
X91821272Y-52970208D01*
X91819865Y-52974522D01*
X91808633Y-53007553D01*
X91796091Y-53040373D01*
X91782275Y-53071449D01*
X91775413Y-53084859D01*
X91755693Y-53116736D01*
X91733943Y-53143211D01*
X91710162Y-53164283D01*
X91678944Y-53182437D01*
X91644801Y-53192811D01*
X91614115Y-53195513D01*
X91582372Y-53192614D01*
X91549999Y-53182727D01*
X91520289Y-53165825D01*
X91496174Y-53144743D01*
X91475626Y-53118607D01*
X91460181Y-53090763D01*
X91455674Y-53080572D01*
X91444470Y-53048237D01*
X91436932Y-53013741D01*
X91433311Y-52981265D01*
X91432496Y-52955788D01*
X91434073Y-52921894D01*
X91438806Y-52889904D01*
X91447902Y-52856193D01*
X91457738Y-52831640D01*
X91473582Y-52802931D01*
X91495045Y-52775539D01*
X91520571Y-52752891D01*
X91529020Y-52747022D01*
X91558921Y-52731115D01*
X91591271Y-52721100D01*
X91626070Y-52716976D01*
X91633324Y-52716858D01*
X91633324Y-52850849D01*
X91600353Y-52855487D01*
X91572171Y-52870854D01*
X91563947Y-52878950D01*
X91547017Y-52907913D01*
X91540052Y-52939704D01*
X91539181Y-52958011D01*
X91542106Y-52991745D01*
X91552910Y-53023369D01*
X91559978Y-53034374D01*
X91585670Y-53055680D01*
X91614591Y-53061680D01*
X91645415Y-53052674D01*
X91667775Y-53029770D01*
X91683469Y-53001498D01*
X91695969Y-52971492D01*
X91706767Y-52939477D01*
X91707941Y-52935626D01*
X91719109Y-52901421D01*
X91731084Y-52870247D01*
X91746519Y-52836839D01*
X91763114Y-52807796D01*
X91783942Y-52779428D01*
X91793352Y-52769089D01*
X91820321Y-52746238D01*
X91850426Y-52729916D01*
X91883666Y-52720122D01*
X91915323Y-52716909D01*
X91920041Y-52716858D01*
X91955245Y-52719919D01*
X91986954Y-52729104D01*
X92015168Y-52744411D01*
X92039888Y-52765842D01*
X92052445Y-52780837D01*
X92071127Y-52810871D01*
X92085220Y-52845128D01*
X92093648Y-52877853D01*
X92098704Y-52913682D01*
X92100343Y-52945909D01*
X92100390Y-52952613D01*
X92099076Y-52984820D01*
X92094355Y-53020047D01*
X92086201Y-53053587D01*
X92074615Y-53085441D01*
X92072925Y-53089304D01*
X92057922Y-53118277D01*
X92038008Y-53146507D01*
X92014879Y-53170116D01*
X91997674Y-53183288D01*
X91969601Y-53198944D01*
X91939142Y-53209476D01*
X91906297Y-53214884D01*
X91887019Y-53215675D01*
X91887019Y-53081207D01*
X91923599Y-53076686D01*
X91952611Y-53063124D01*
X91976893Y-53035873D01*
X91989507Y-53002720D01*
X91994237Y-52968185D01*
X91994657Y-52952613D01*
X91991934Y-52919743D01*
X91981871Y-52888900D01*
X91975289Y-52878156D01*
X91950240Y-52857221D01*
X91920994Y-52851326D01*
G37*
G36*
X91441386Y-52453955D02*
G01*
X91912897Y-52286942D01*
X91441386Y-52120881D01*
X91441386Y-51944977D01*
X92091500Y-51944977D01*
X92091500Y-52079286D01*
X91913849Y-52079286D01*
X91606971Y-52065951D01*
X92091500Y-52241378D01*
X92091500Y-52333299D01*
X91607447Y-52508409D01*
X91913849Y-52495073D01*
X92091500Y-52495073D01*
X92091500Y-52628906D01*
X91441386Y-52628906D01*
X91441386Y-52453955D01*
G37*
G36*
X92091500Y-51704300D02*
G01*
X92091500Y-51833847D01*
X91608399Y-51833847D01*
X91608399Y-51704300D01*
X92091500Y-51704300D01*
G37*
G36*
X91483298Y-51841308D02*
G01*
X91451150Y-51833742D01*
X91435671Y-51821940D01*
X91419897Y-51793959D01*
X91416779Y-51769073D01*
X91422111Y-51737752D01*
X91435671Y-51716366D01*
X91463057Y-51699448D01*
X91483298Y-51696680D01*
X91514558Y-51703676D01*
X91531561Y-51716525D01*
X91547202Y-51744624D01*
X91550294Y-51769073D01*
X91544367Y-51801668D01*
X91531561Y-51821464D01*
X91503927Y-51838518D01*
X91483298Y-51841308D01*
G37*
G36*
X91996404Y-51398215D02*
G01*
X91991482Y-51365868D01*
X91976718Y-51340269D01*
X91950502Y-51321867D01*
X91924486Y-51316931D01*
X91924486Y-51195958D01*
X91957256Y-51199343D01*
X91988112Y-51208844D01*
X92014502Y-51222788D01*
X92040395Y-51243195D01*
X92061974Y-51268179D01*
X92077846Y-51294864D01*
X92089735Y-51324386D01*
X92097220Y-51355799D01*
X92100302Y-51389105D01*
X92100390Y-51395993D01*
X92098079Y-51433328D01*
X92091147Y-51467582D01*
X92079594Y-51498756D01*
X92063419Y-51526849D01*
X92042623Y-51551860D01*
X92034664Y-51559513D01*
X92008188Y-51579799D01*
X91978174Y-51595889D01*
X91944621Y-51607780D01*
X91907529Y-51615475D01*
X91873916Y-51618681D01*
X91852569Y-51619206D01*
X91844155Y-51619206D01*
X91810378Y-51617756D01*
X91778804Y-51613408D01*
X91743820Y-51604362D01*
X91712006Y-51591142D01*
X91683363Y-51573747D01*
X91666028Y-51559831D01*
X91643422Y-51536013D01*
X91625493Y-51509093D01*
X91612241Y-51479069D01*
X91603666Y-51445942D01*
X91599769Y-51409711D01*
X91599509Y-51396945D01*
X91601323Y-51364218D01*
X91608024Y-51329239D01*
X91619664Y-51297709D01*
X91636241Y-51269628D01*
X91651105Y-51251682D01*
X91675250Y-51230294D01*
X91702677Y-51214058D01*
X91733385Y-51202972D01*
X91767376Y-51197037D01*
X91788272Y-51195958D01*
X91788272Y-51316931D01*
X91756251Y-51322533D01*
X91728940Y-51338890D01*
X91727468Y-51340269D01*
X91709134Y-51367961D01*
X91703972Y-51399168D01*
X91709395Y-51432159D01*
X91727367Y-51459542D01*
X91736834Y-51467275D01*
X91767122Y-51481303D01*
X91801162Y-51488047D01*
X91834154Y-51490205D01*
X91843202Y-51490295D01*
X91856697Y-51490295D01*
X91891316Y-51488876D01*
X91924024Y-51483887D01*
X91955030Y-51472913D01*
X91963858Y-51467592D01*
X91986106Y-51443061D01*
X91995609Y-51412174D01*
X91996404Y-51398215D01*
G37*
D14*
G36*
X92236378Y-48555416D02*
G01*
X92236378Y-48673629D01*
X91367460Y-48378975D01*
X91367460Y-48260761D01*
X92236378Y-48555416D01*
G37*
G36*
X92236378Y-48273266D02*
G01*
X92236378Y-48391480D01*
X91367460Y-48096825D01*
X91367460Y-47978612D01*
X92236378Y-48273266D01*
G37*
G36*
X91917466Y-47371290D02*
G01*
X91956384Y-47375869D01*
X91999560Y-47385395D01*
X92038890Y-47399316D01*
X92074372Y-47417635D01*
X92095890Y-47432289D01*
X92128095Y-47461653D01*
X92152390Y-47495206D01*
X92168775Y-47532948D01*
X92177250Y-47574878D01*
X92178542Y-47600719D01*
X92174634Y-47643596D01*
X92162910Y-47682150D01*
X92143371Y-47716380D01*
X92116015Y-47746288D01*
X92396211Y-47746288D01*
X92396211Y-47905143D01*
X91573015Y-47905143D01*
X91573015Y-47757816D01*
X91631242Y-47752345D01*
X91600981Y-47721314D01*
X91579365Y-47685862D01*
X91566396Y-47645990D01*
X91566154Y-47643510D01*
X91691228Y-47643510D01*
X91696800Y-47685703D01*
X91715800Y-47721537D01*
X91748283Y-47746288D01*
X91991745Y-47746288D01*
X92025229Y-47720869D01*
X92044815Y-47684646D01*
X92050558Y-47642338D01*
X92044005Y-47603691D01*
X92019794Y-47568709D01*
X91984843Y-47547387D01*
X91945705Y-47535726D01*
X91897465Y-47529618D01*
X91864152Y-47528619D01*
X91825098Y-47530463D01*
X91782943Y-47537954D01*
X91745124Y-47552850D01*
X91736364Y-47558123D01*
X91707140Y-47586355D01*
X91692815Y-47623422D01*
X91691228Y-47643510D01*
X91566154Y-47643510D01*
X91562073Y-47601696D01*
X91564930Y-47562234D01*
X91575488Y-47520536D01*
X91593824Y-47483513D01*
X91619940Y-47451165D01*
X91643357Y-47430921D01*
X91681864Y-47407091D01*
X91719558Y-47391324D01*
X91761580Y-47379857D01*
X91807930Y-47372690D01*
X91849860Y-47370002D01*
X91867474Y-47369763D01*
X91875876Y-47369763D01*
X91917466Y-47371290D01*
G37*
G36*
X92167600Y-47107544D02*
G01*
X92167600Y-47266986D01*
X91573015Y-47266986D01*
X91573015Y-47107544D01*
X92167600Y-47107544D01*
G37*
G36*
X91419044Y-47276169D02*
G01*
X91379477Y-47266857D01*
X91360426Y-47252331D01*
X91341011Y-47217893D01*
X91337174Y-47187265D01*
X91343736Y-47148715D01*
X91360426Y-47122394D01*
X91394131Y-47101572D01*
X91419044Y-47098165D01*
X91457518Y-47106776D01*
X91478444Y-47122589D01*
X91497695Y-47157173D01*
X91501500Y-47187265D01*
X91494205Y-47227382D01*
X91478444Y-47251745D01*
X91444433Y-47272735D01*
X91419044Y-47276169D01*
G37*
G36*
X91921989Y-46838486D02*
G01*
X91962417Y-46828402D01*
X91998897Y-46807617D01*
X92015387Y-46792178D01*
X92038159Y-46757231D01*
X92048875Y-46719019D01*
X92050558Y-46694090D01*
X92046406Y-46650688D01*
X92033950Y-46612317D01*
X92013189Y-46578978D01*
X91984124Y-46550670D01*
X92071466Y-46472513D01*
X92103626Y-46500074D01*
X92130522Y-46533592D01*
X92150405Y-46569233D01*
X92165243Y-46608632D01*
X92174585Y-46650627D01*
X92178294Y-46690640D01*
X92178542Y-46704446D01*
X92176586Y-46744164D01*
X92169075Y-46788677D01*
X92155932Y-46829755D01*
X92137156Y-46867399D01*
X92112747Y-46901609D01*
X92098430Y-46917425D01*
X92066446Y-46945315D01*
X92030726Y-46967434D01*
X91991268Y-46983783D01*
X91948074Y-46994362D01*
X91909224Y-46998770D01*
X91884669Y-46999491D01*
X91869232Y-46999491D01*
X91825586Y-46997329D01*
X91784334Y-46990845D01*
X91745475Y-46980037D01*
X91709009Y-46964906D01*
X91671898Y-46943165D01*
X91639917Y-46916848D01*
X91613069Y-46885957D01*
X91600370Y-46866818D01*
X91581857Y-46829691D01*
X91569403Y-46789751D01*
X91563008Y-46746998D01*
X91562095Y-46722617D01*
X91690642Y-46722617D01*
X91697640Y-46763040D01*
X91720532Y-46797546D01*
X91722491Y-46799407D01*
X91755633Y-46821014D01*
X91795851Y-46833843D01*
X91813740Y-46836923D01*
X91813740Y-46615932D01*
X91801040Y-46615932D01*
X91762142Y-46621238D01*
X91725157Y-46639721D01*
X91719560Y-46644655D01*
X91697872Y-46677823D01*
X91690755Y-46716382D01*
X91690642Y-46722617D01*
X91562095Y-46722617D01*
X91562073Y-46722031D01*
X91564779Y-46678136D01*
X91572899Y-46637895D01*
X91589213Y-46595567D01*
X91612895Y-46558213D01*
X91639058Y-46530154D01*
X91670121Y-46506315D01*
X91705718Y-46487408D01*
X91745849Y-46473434D01*
X91790513Y-46464391D01*
X91831197Y-46460624D01*
X91857118Y-46460007D01*
X91921989Y-46460007D01*
X91921989Y-46838486D01*
G37*
G36*
X91721905Y-46039128D02*
G01*
X91718114Y-46078334D01*
X91717606Y-46096183D01*
X91721417Y-46137424D01*
X91734812Y-46174506D01*
X91761007Y-46204143D01*
X91778569Y-46214397D01*
X92167600Y-46214397D01*
X92167600Y-46373252D01*
X91573015Y-46373252D01*
X91573015Y-46223189D01*
X91643943Y-46218695D01*
X91612042Y-46196070D01*
X91585179Y-46165885D01*
X91567190Y-46126408D01*
X91562073Y-46086413D01*
X91566366Y-46047225D01*
X91569107Y-46036979D01*
X91721905Y-46039128D01*
G37*
G36*
X91573015Y-45819114D02*
G01*
X91641598Y-45814034D01*
X91610611Y-45784090D01*
X91587235Y-45749995D01*
X91571470Y-45711748D01*
X91563315Y-45669350D01*
X91562073Y-45643259D01*
X91564728Y-45604203D01*
X91574266Y-45565247D01*
X91593287Y-45528660D01*
X91617565Y-45502575D01*
X91653122Y-45480113D01*
X91692021Y-45466166D01*
X91731687Y-45458612D01*
X91776608Y-45455395D01*
X91783454Y-45455290D01*
X92167600Y-45455290D01*
X92167600Y-45614145D01*
X91787362Y-45614145D01*
X91748429Y-45618372D01*
X91714089Y-45636225D01*
X91695001Y-45672476D01*
X91691228Y-45709107D01*
X91697970Y-45751235D01*
X91718196Y-45785467D01*
X91748283Y-45809735D01*
X92167600Y-45809735D01*
X92167600Y-45968591D01*
X91573015Y-45968591D01*
X91573015Y-45819114D01*
G37*
G36*
X91917744Y-44801803D02*
G01*
X91956569Y-44807398D01*
X91999658Y-44819037D01*
X92038928Y-44836048D01*
X92074378Y-44858431D01*
X92095890Y-44876337D01*
X92123978Y-44906761D01*
X92146256Y-44940881D01*
X92162722Y-44978697D01*
X92173376Y-45020208D01*
X92178219Y-45065415D01*
X92178542Y-45081305D01*
X92175643Y-45127692D01*
X92166946Y-45170423D01*
X92152452Y-45209501D01*
X92132160Y-45244924D01*
X92106070Y-45276692D01*
X92096085Y-45286469D01*
X92063083Y-45312499D01*
X92025917Y-45333144D01*
X91984589Y-45348403D01*
X91939098Y-45358277D01*
X91898009Y-45362391D01*
X91871968Y-45363064D01*
X91864738Y-45363064D01*
X91821691Y-45360939D01*
X91781061Y-45354564D01*
X91742849Y-45343940D01*
X91707055Y-45329065D01*
X91670620Y-45307561D01*
X91639131Y-45281296D01*
X91612588Y-45250271D01*
X91599979Y-45230977D01*
X91581655Y-45193304D01*
X91569328Y-45152385D01*
X91563405Y-45113288D01*
X91562073Y-45082282D01*
X91690642Y-45082282D01*
X91697017Y-45122271D01*
X91718310Y-45157282D01*
X91735974Y-45172554D01*
X91773003Y-45190687D01*
X91812025Y-45199925D01*
X91853302Y-45203906D01*
X91876267Y-45204404D01*
X91916090Y-45202413D01*
X91954966Y-45195415D01*
X91993958Y-45180019D01*
X92005813Y-45172554D01*
X92034784Y-45142036D01*
X92048985Y-45102552D01*
X92050558Y-45081305D01*
X92044348Y-45041500D01*
X92023606Y-45006439D01*
X92006399Y-44991033D01*
X91969648Y-44972566D01*
X91930272Y-44963159D01*
X91888238Y-44959104D01*
X91864738Y-44958598D01*
X91825647Y-44960625D01*
X91783344Y-44968860D01*
X91745229Y-44985237D01*
X91736364Y-44991033D01*
X91708502Y-45019069D01*
X91692830Y-45057814D01*
X91690642Y-45082282D01*
X91562073Y-45082282D01*
X91564662Y-45038706D01*
X91572432Y-44998247D01*
X91585380Y-44960908D01*
X91607033Y-44921287D01*
X91635736Y-44885911D01*
X91665148Y-44859705D01*
X91698284Y-44838238D01*
X91735142Y-44821511D01*
X91775724Y-44809524D01*
X91820029Y-44802277D01*
X91835625Y-44800915D01*
X91876267Y-44799938D01*
X91917744Y-44801803D01*
G37*
G36*
X91973573Y-44491410D02*
G01*
X91573015Y-44380817D01*
X91573015Y-44214927D01*
X92167600Y-44415597D01*
X92167600Y-44567223D01*
X91573015Y-44767697D01*
X91573015Y-44601808D01*
X91973573Y-44491410D01*
G37*
D13*
G36*
X91933853Y-50620442D02*
G01*
X91608399Y-50530585D01*
X91608399Y-50395800D01*
X92091500Y-50558844D01*
X92091500Y-50682040D01*
X91608399Y-50844925D01*
X91608399Y-50710140D01*
X91933853Y-50620442D01*
G37*
G36*
X91855429Y-49910080D02*
G01*
X91893529Y-49913627D01*
X91928535Y-49919903D01*
X91960449Y-49928908D01*
X91994662Y-49943315D01*
X92024422Y-49961651D01*
X92028949Y-49965089D01*
X92053228Y-49987811D01*
X92072483Y-50014183D01*
X92086716Y-50044205D01*
X92095925Y-50077877D01*
X92100111Y-50115199D01*
X92100390Y-50128451D01*
X92098681Y-50160466D01*
X92092117Y-50195651D01*
X92080631Y-50227308D01*
X92064222Y-50255438D01*
X92042890Y-50280041D01*
X92030378Y-50291019D01*
X92001932Y-50310169D01*
X91969221Y-50325467D01*
X91938705Y-50335274D01*
X91905228Y-50342407D01*
X91868790Y-50346865D01*
X91829390Y-50348648D01*
X91709687Y-50348648D01*
X91676660Y-50347765D01*
X91638265Y-50344178D01*
X91603080Y-50337831D01*
X91571103Y-50328724D01*
X91536968Y-50314153D01*
X91507454Y-50295608D01*
X91502984Y-50292131D01*
X91479029Y-50269189D01*
X91460030Y-50242754D01*
X91445988Y-50212825D01*
X91436901Y-50179403D01*
X91432771Y-50142486D01*
X91432496Y-50129404D01*
X91536958Y-50129404D01*
X91542749Y-50162494D01*
X91561936Y-50189339D01*
X91572044Y-50196717D01*
X91603820Y-50210053D01*
X91634978Y-50216304D01*
X91667945Y-50219162D01*
X91681587Y-50219578D01*
X91839710Y-50219578D01*
X91872493Y-50218545D01*
X91905197Y-50214834D01*
X91938933Y-50206400D01*
X91957825Y-50197987D01*
X91982803Y-50176018D01*
X91995047Y-50145456D01*
X91996404Y-50128451D01*
X91991202Y-50096675D01*
X91971984Y-50068970D01*
X91959413Y-50060185D01*
X91929239Y-50048142D01*
X91897659Y-50041804D01*
X91864379Y-50038828D01*
X91845901Y-50038277D01*
X91691430Y-50038277D01*
X91658181Y-50039340D01*
X91625335Y-50043160D01*
X91592008Y-50051843D01*
X91573790Y-50060503D01*
X91549943Y-50082520D01*
X91538253Y-50112712D01*
X91536958Y-50129404D01*
X91432496Y-50129404D01*
X91434201Y-50097389D01*
X91440750Y-50062204D01*
X91452210Y-50030547D01*
X91468582Y-50002417D01*
X91489866Y-49977814D01*
X91502349Y-49966836D01*
X91530687Y-49947686D01*
X91563312Y-49932388D01*
X91593774Y-49922581D01*
X91627212Y-49915448D01*
X91663627Y-49910990D01*
X91703019Y-49909207D01*
X91822722Y-49909207D01*
X91855429Y-49910080D01*
G37*
G36*
X92028155Y-49812841D02*
G01*
X91995667Y-49805509D01*
X91978146Y-49792043D01*
X91962107Y-49763653D01*
X91958937Y-49739971D01*
X91965015Y-49707767D01*
X91978146Y-49687581D01*
X92005044Y-49670216D01*
X92028155Y-49666783D01*
X92060190Y-49674059D01*
X92077529Y-49687422D01*
X92093303Y-49715827D01*
X92096421Y-49739971D01*
X92090443Y-49772175D01*
X92077529Y-49792361D01*
X92049312Y-49809961D01*
X92028155Y-49812841D01*
G37*
G36*
X91950840Y-49178921D02*
G01*
X92091500Y-49178921D01*
X92091500Y-49307991D01*
X91950840Y-49307991D01*
X91950840Y-49574545D01*
X91869556Y-49580260D01*
X91441386Y-49309261D01*
X91441386Y-49307991D01*
X91617290Y-49307991D01*
X91632054Y-49316405D01*
X91846854Y-49451667D01*
X91846854Y-49307991D01*
X91617290Y-49307991D01*
X91441386Y-49307991D01*
X91441386Y-49178921D01*
X91846854Y-49178921D01*
X91846854Y-49105257D01*
X91950840Y-49105257D01*
X91950840Y-49178921D01*
G37*
D15*
%TO.C,C2*%
X110020000Y-43330000D03*
X110020000Y-44290000D03*
%TD*%
D16*
%TO.C,R7*%
X113360200Y-33524000D03*
X113360200Y-34544000D03*
%TD*%
D17*
%TO.C,R13*%
X109601000Y-36451000D03*
X109601000Y-35431000D03*
%TD*%
D18*
%TO.C,C1*%
X99949000Y-39342000D03*
X99949000Y-38382000D03*
%TD*%
D19*
%TO.C,TP3*%
X109680000Y-42380000D03*
%TD*%
D16*
%TO.C,R9*%
X114757200Y-33526000D03*
X114757200Y-34546000D03*
%TD*%
%TO.C,R2*%
X112903000Y-30732000D03*
X112903000Y-31752000D03*
%TD*%
D20*
%TO.C,C13*%
X97762000Y-35763200D03*
X96802000Y-35763200D03*
%TD*%
D19*
%TO.C,TP1*%
X105350000Y-42300000D03*
%TD*%
D20*
%TO.C,C4*%
X108960000Y-43360000D03*
X108000000Y-43360000D03*
%TD*%
D15*
%TO.C,C5*%
X106130000Y-35600000D03*
X106130000Y-36560000D03*
%TD*%
D21*
%TO.C,R11*%
X96826800Y-39014400D03*
X95806800Y-39014400D03*
%TD*%
D22*
%TO.C,C15*%
X102680500Y-42875200D03*
X96455500Y-42875200D03*
%TD*%
D16*
%TO.C,R10*%
X114757200Y-35433000D03*
X114757200Y-36453000D03*
%TD*%
D15*
%TO.C,C8*%
X104740000Y-35550000D03*
X104740000Y-36510000D03*
%TD*%
D18*
%TO.C,C11*%
X106960000Y-44150000D03*
X106960000Y-43190000D03*
%TD*%
D16*
%TO.C,R3*%
X104521000Y-40638000D03*
X104521000Y-41658000D03*
%TD*%
%TO.C,R6*%
X113919000Y-30732000D03*
X113919000Y-31752000D03*
%TD*%
D19*
%TO.C,TP2*%
X110590000Y-41560000D03*
%TD*%
D20*
%TO.C,C10*%
X108938000Y-45415200D03*
X107978000Y-45415200D03*
%TD*%
D16*
%TO.C,R8*%
X113360200Y-35433000D03*
X113360200Y-36453000D03*
%TD*%
D20*
%TO.C,C9*%
X97762000Y-36769200D03*
X96802000Y-36769200D03*
%TD*%
D17*
%TO.C,R5*%
X112520000Y-41650000D03*
X112520000Y-40630000D03*
%TD*%
D16*
%TO.C,R4*%
X111504000Y-40630000D03*
X111504000Y-41650000D03*
%TD*%
%TO.C,R1*%
X98933000Y-38352000D03*
X98933000Y-39372000D03*
%TD*%
D23*
%TO.C,J2*%
X93846000Y-48260000D03*
X96346000Y-48260000D03*
D24*
X98846000Y-53260000D03*
D23*
X103846000Y-48260000D03*
X101346000Y-48260000D03*
%TD*%
D25*
%TO.C,MK1*%
X109024400Y-50636600D03*
D26*
X111564400Y-50636600D03*
%TD*%
D16*
%TO.C,R12*%
X110617000Y-35431000D03*
X110617000Y-36451000D03*
%TD*%
D27*
%TO.C,JP2*%
X92354400Y-39370000D03*
X92354400Y-40670000D03*
%TD*%
D20*
%TO.C,C7*%
X108940000Y-44390000D03*
X107980000Y-44390000D03*
%TD*%
D28*
%TO.C,C14*%
X93472000Y-37046900D03*
X93472000Y-30821900D03*
%TD*%
D18*
%TO.C,C3*%
X105900000Y-44150000D03*
X105900000Y-43190000D03*
%TD*%
D27*
%TO.C,JP1*%
X114460000Y-39370000D03*
X114460000Y-40670000D03*
%TD*%
D29*
%TO.C,FB1*%
X94386400Y-39242900D03*
X94386400Y-40817900D03*
%TD*%
D15*
%TO.C,C12*%
X98940000Y-36360000D03*
X98940000Y-37320000D03*
%TD*%
D30*
%TO.C,U1*%
X105791000Y-38394000D03*
X105791000Y-38894000D03*
X105791000Y-39394000D03*
X105791000Y-39894000D03*
X105791000Y-40394000D03*
X105791000Y-40894000D03*
D31*
X106478500Y-41581500D03*
X106978500Y-41581500D03*
X107478500Y-41581500D03*
X107978500Y-41581500D03*
X108478500Y-41581500D03*
X108978500Y-41581500D03*
D30*
X109666000Y-40894000D03*
X109666000Y-40394000D03*
X109666000Y-39894000D03*
X109666000Y-39394000D03*
X109666000Y-38894000D03*
X109666000Y-38394000D03*
D31*
X108978500Y-37706500D03*
X108478500Y-37706500D03*
X107978500Y-37706500D03*
X107478500Y-37706500D03*
X106978500Y-37706500D03*
X106478500Y-37706500D03*
D32*
X107728500Y-39644000D03*
%TD*%
D15*
%TO.C,C6*%
X99949000Y-36350000D03*
X99949000Y-37310000D03*
%TD*%
D33*
%TO.C,J4*%
X97663000Y-30602000D03*
D34*
X97663000Y-33142000D03*
X100203000Y-30602000D03*
X100203000Y-33142000D03*
X102743000Y-30602000D03*
X102743000Y-33142000D03*
X105283000Y-30602000D03*
X105283000Y-33142000D03*
X107823000Y-30602000D03*
X107823000Y-33142000D03*
X110363000Y-30602000D03*
X110363000Y-33142000D03*
%TD*%
%LPD*%
M02*
