M48
; DRILL file {KiCad 8.0.2} date 2024-06-06T19:50:16+0200
; FORMAT={-:-/ absolute / metric / decimal}
; #@! TF.CreationDate,2024-06-06T19:50:16+02:00
; #@! TF.GenerationSoftware,Kicad,Pcbnew,8.0.2
; #@! TF.FileFunction,Plated,1,2,PTH
FMAT,2
METRIC
; #@! TA.AperFunction,Plated,PTH,ComponentDrill
T1C0.300
; #@! TA.AperFunction,Plated,PTH,ViaDrill
T2C0.400
; #@! TA.AperFunction,Plated,PTH,ComponentDrill
T3C0.400
; #@! TA.AperFunction,Plated,PTH,ComponentDrill
T4C0.650
; #@! TA.AperFunction,Plated,PTH,ComponentDrill
T5C1.000
%
G90
G05
T1
X104.14Y-38.64
X104.14Y-39.64
X104.14Y-40.64
X105.14Y-38.64
X105.14Y-39.64
X105.14Y-40.64
X106.14Y-38.64
X106.14Y-39.64
X106.14Y-40.64
T2
X93.218Y-39.624
X93.472Y-51.46
X93.503Y-27.904
X93.751Y-58.039
X93.887Y-35.735
X93.98Y-43.688
X94.844Y-31.36
X96.235Y-33.247
X97.243Y-30.86
X97.426Y-34.267
X98.254Y-47.715
X99.931Y-37.077
X100.79Y-37.936
X100.848Y-35.283
X101.693Y-34.377
X102.806Y-45.148
X103.384Y-36.18
X103.632Y-31.686
X104.234Y-34.367
X104.267Y-45.212
X104.521Y-51.511
X105.336Y-46.925
X105.709Y-45.254
X105.715Y-57.582
X107.247Y-35.872
X109.104Y-39.368
X110.303Y-41.074
X110.465Y-54.331
X111.125Y-42.578
X112.222Y-36.441
X112.894Y-37.464
X112.979Y-35.306
X113.944Y-38.71
X114.63Y-44.45
X114.656Y-53.162
X114.656Y-57.582
X114.689Y-30.582
X115.087Y-48.895
X115.105Y-37.498
T4
X109.22Y-51.435
X111.76Y-51.435
T5
X94.742Y-29.21
X97.282Y-29.21
X97.89Y-39.37
X97.89Y-41.91
X99.822Y-29.21
X99.949Y-32.893
X102.362Y-29.21
X102.489Y-32.893
X104.902Y-29.21
X105.029Y-32.893
X107.442Y-29.21
X107.569Y-32.893
X108.855Y-46.36
X110.109Y-32.893
X111.395Y-46.36
X112.649Y-32.893
X113.935Y-46.36
T3
X94.06Y-48.52G85X94.06Y-49.52
G05
X96.56Y-48.52G85X96.56Y-49.52
G05
X98.56Y-54.02G85X99.56Y-54.02
G05
X101.56Y-49.52G85X101.56Y-48.52
G05
X104.06Y-49.52G85X104.06Y-48.52
G05
M30
