M48
; DRILL file {KiCad 8.0.6} date 2024-10-21T18:23:29+0200
; FORMAT={-:-/ absolute / metric / decimal}
; #@! TF.CreationDate,2024-10-21T18:23:29+02:00
; #@! TF.GenerationSoftware,Kicad,Pcbnew,8.0.6
; #@! TF.FileFunction,Plated,1,2,PTH
FMAT,2
METRIC
; #@! TA.AperFunction,Plated,PTH,ComponentDrill
T1C0.300
; #@! TA.AperFunction,Plated,PTH,ViaDrill
T2C0.400
; #@! TA.AperFunction,Plated,PTH,ComponentDrill
T3C0.400
; #@! TA.AperFunction,Plated,PTH,ComponentDrill
T4C0.650
; #@! TA.AperFunction,Plated,PTH,ComponentDrill
T5C1.000
%
G90
G05
T1
X106.728Y-38.644
X106.728Y-39.644
X106.728Y-40.644
X107.728Y-38.644
X107.728Y-39.644
X107.728Y-40.644
X108.728Y-38.644
X108.728Y-39.644
X108.728Y-40.644
T2
X91.764Y-38.639
X92.151Y-43.129
X93.197Y-50.898
X94.488Y-43.688
X94.518Y-57.16
X95.555Y-35.966
X95.81Y-29.302
X97.67Y-34.995
X98.603Y-40.818
X100.944Y-37.609
X101.041Y-36.012
X101.223Y-38.776
X102.218Y-38.669
X103.165Y-36.74
X103.378Y-40.803
X103.95Y-29.16
X104.043Y-37.219
X105.553Y-37.019
X105.828Y-57.067
X106.693Y-47.954
X106.96Y-46.38
X107.196Y-36.133
X108.375Y-35.377
X110.611Y-36.981
X111.125Y-43.434
X111.667Y-44.275
X112.014Y-31.242
X112.625Y-43.331
X113.411Y-29.591
X113.535Y-32.654
X113.65Y-37.238
X114.802Y-38.702
X114.84Y-51.339
X114.84Y-57.067
X114.969Y-43.16
T4
X109.024Y-50.637
X111.564Y-50.637
T5
X97.663Y-30.602
X97.663Y-33.142
X100.203Y-30.602
X100.203Y-33.142
X102.743Y-30.602
X102.743Y-33.142
X105.283Y-30.602
X105.283Y-33.142
X107.823Y-30.602
X107.823Y-33.142
X110.363Y-30.602
X110.363Y-33.142
T3
X93.846Y-47.76G85X93.846Y-48.76
G05
X96.346Y-47.76G85X96.346Y-48.76
G05
X98.346Y-53.26G85X99.346Y-53.26
G05
X101.346Y-48.76G85X101.346Y-47.76
G05
X103.846Y-48.76G85X103.846Y-47.76
G05
M30
